<svg width="640" height="320" viewBox="0 0 640 320" xmlns="http://www.w3.org/2000/svg" style="overflow:display" preserveAspectRatio="xMinYMin meet" overflow="visible">
<defs>
	<style>
	.data-series path.line { fill-opacity: 0; }
	.data-series path.line.dotted { stroke-dasharray: 12 20 }
	.data-series circle { display: none; }
	.data-series:hover path.line, .data-series.on path.line { stroke-width: 5; }
	.data-series:hover circle, .data-series.on circle { display: inline; }
	.data-series circle:hover, .data-series circle.on { r: 6px!important; fill: black; }
	.grid { font-family: "Helvetica Neue",Helvetica,Arial,"Lucida Grande",sans-serif; }
	.grid line { stroke: rgb(0,0,0); stroke-width: 2; stroke-linecap: round; }
	.grid.grid-x text { text-anchor: middle; dominant-baseline: hanging; transform: translateY(10px); }
	.grid.grid-y text { text-anchor: end; dominant-baseline: middle; transform: translateX(-10px); }
	</style>
</defs>
<g class="grid grid-y">
	<line x1="50" y1="270" x2="630" y2="270" data-left="50"></line>
	<text x="50" y="270" text-anchor="end">0</text>
	<text x="50" y="215.615172927658" text-anchor="end">5</text>
	<text x="50" y="161.230345855317" text-anchor="end">10</text>
	<text x="50" y="106.845518782975" text-anchor="end">15</text>
	<text x="50" y="52.4606917106338" text-anchor="end">20</text>
	<text style="text-anchor:middle;dominant-baseline:hanging;font-weight:bold;transform: translateY(140px) rotate(-90deg);">Annual emissions (MtCO2)</text>
</g>
<g class="grid grid-x">
	<line class="tick" x1="224" y1="270" x2="224" y2="275"></line>
	<text x="224" y="270" text-anchor="middle">2030</text>
	<line class="tick" x1="417.333333333333" y1="270" x2="417.333333333333" y2="275"></line>
	<text x="417.333333333333" y="270" text-anchor="middle">2040</text>
	<line class="tick" x1="610.666666666667" y1="270" x2="610.666666666667" y2="275"></line>
	<text x="610.666666666667" y="270" text-anchor="middle">2050</text>
	<text style="text-anchor:middle;dominant-baseline:hanging;font-weight:bold;transform: translateY(140px) rotate(-90deg);"></text>
</g>
<g data-scenario="natural-gas" class="data-series">	<path d="M 50.00,150.54L 69.33,151.94L 88.67,153.73L 108.00,155.59L 127.33,158.19L 146.67,161.37L 166.00,165.16L 185.33,170.14L 204.67,175.25L 224.00,180.50L 243.33,184.72L 262.67,189.23L 282.00,194.35L 301.33,200.20L 320.67,206.06L 340.00,211.63L 359.33,216.98L 378.67,222.37L 398.00,227.91L 417.33,233.65L 436.67,239.75L 456.00,245.23L 475.33,250.05L 494.67,254.69L 514.00,258.65L 533.33,262.23L 552.67,265.74L 572.00,268.52L 591.33,269.22L 610.67,269.81" id="Natural gas" class="line" stroke="#B8BFF9" stroke-width="3" stroke-linecap="round"><title>Natural gas</title></path>
	<circle cx="50.00" cy="150.54" data-y="10.98251142" data-x="2021" r="4" fill="#B8BFF9"><title>2021: 10.98251142</title></circle>
	<circle cx="69.33" cy="151.94" data-y="10.85397264" data-x="2022" r="4" fill="#B8BFF9"><title>2022: 10.85397264</title></circle>
	<circle cx="88.67" cy="153.73" data-y="10.68954822" data-x="2023" r="4" fill="#B8BFF9"><title>2023: 10.68954822</title></circle>
	<circle cx="108.00" cy="155.59" data-y="10.51816669" data-x="2024" r="4" fill="#B8BFF9"><title>2024: 10.51816669</title></circle>
	<circle cx="127.33" cy="158.19" data-y="10.27914022" data-x="2025" r="4" fill="#B8BFF9"><title>2025: 10.27914022</title></circle>
	<circle cx="146.67" cy="161.37" data-y="9.987222661" data-x="2026" r="4" fill="#B8BFF9"><title>2026: 9.987222661</title></circle>
	<circle cx="166.00" cy="165.16" data-y="9.638279831" data-x="2027" r="4" fill="#B8BFF9"><title>2027: 9.638279831</title></circle>
	<circle cx="185.33" cy="170.14" data-y="9.180839788" data-x="2028" r="4" fill="#B8BFF9"><title>2028: 9.180839788</title></circle>
	<circle cx="204.67" cy="175.25" data-y="8.711221512" data-x="2029" r="4" fill="#B8BFF9"><title>2029: 8.711221512</title></circle>
	<circle cx="224.00" cy="180.50" data-y="8.228017237" data-x="2030" r="4" fill="#B8BFF9"><title>2030: 8.228017237</title></circle>
	<circle cx="243.33" cy="184.72" data-y="7.840272845" data-x="2031" r="4" fill="#B8BFF9"><title>2031: 7.840272845</title></circle>
	<circle cx="262.67" cy="189.23" data-y="7.426203883" data-x="2032" r="4" fill="#B8BFF9"><title>2032: 7.426203883</title></circle>
	<circle cx="282.00" cy="194.35" data-y="6.954973183" data-x="2033" r="4" fill="#B8BFF9"><title>2033: 6.954973183</title></circle>
	<circle cx="301.33" cy="200.20" data-y="6.417655877" data-x="2034" r="4" fill="#B8BFF9"><title>2034: 6.417655877</title></circle>
	<circle cx="320.67" cy="206.06" data-y="5.878277222" data-x="2035" r="4" fill="#B8BFF9"><title>2035: 5.878277222</title></circle>
	<circle cx="340.00" cy="211.63" data-y="5.365993826" data-x="2036" r="4" fill="#B8BFF9"><title>2036: 5.365993826</title></circle>
	<circle cx="359.33" cy="216.98" data-y="4.874509011" data-x="2037" r="4" fill="#B8BFF9"><title>2037: 4.874509011</title></circle>
	<circle cx="378.67" cy="222.37" data-y="4.379344942" data-x="2038" r="4" fill="#B8BFF9"><title>2038: 4.379344942</title></circle>
	<circle cx="398.00" cy="227.91" data-y="3.869390655" data-x="2039" r="4" fill="#B8BFF9"><title>2039: 3.869390655</title></circle>
	<circle cx="417.33" cy="233.65" data-y="3.341506343" data-x="2040" r="4" fill="#B8BFF9"><title>2040: 3.341506343</title></circle>
	<circle cx="436.67" cy="239.75" data-y="2.780851678" data-x="2041" r="4" fill="#B8BFF9"><title>2041: 2.780851678</title></circle>
	<circle cx="456.00" cy="245.23" data-y="2.27767496" data-x="2042" r="4" fill="#B8BFF9"><title>2042: 2.27767496</title></circle>
	<circle cx="475.33" cy="250.05" data-y="1.833995422" data-x="2043" r="4" fill="#B8BFF9"><title>2043: 1.833995422</title></circle>
	<circle cx="494.67" cy="254.69" data-y="1.407795449" data-x="2044" r="4" fill="#B8BFF9"><title>2044: 1.407795449</title></circle>
	<circle cx="514.00" cy="258.65" data-y="1.043625132" data-x="2045" r="4" fill="#B8BFF9"><title>2045: 1.043625132</title></circle>
	<circle cx="533.33" cy="262.23" data-y="0.71414925" data-x="2046" r="4" fill="#B8BFF9"><title>2046: 0.71414925</title></circle>
	<circle cx="552.67" cy="265.74" data-y="0.391588661" data-x="2047" r="4" fill="#B8BFF9"><title>2047: 0.391588661</title></circle>
	<circle cx="572.00" cy="268.52" data-y="0.135898101" data-x="2048" r="4" fill="#B8BFF9"><title>2048: 0.135898101</title></circle>
	<circle cx="591.33" cy="269.22" data-y="0.071346339" data-x="2049" r="4" fill="#B8BFF9"><title>2049: 0.071346339</title></circle>
	<circle cx="610.67" cy="269.81" data-y="0.017288933" data-x="2050" r="4" fill="#B8BFF9"><title>2050: 0.017288933</title></circle>
</g>
<g data-scenario="hydrogen" class="data-series">	<path d="M 50.00,269.99L 69.33,269.99L 88.67,269.99L 108.00,269.99L 127.33,269.99L 146.67,269.99L 166.00,269.99L 185.33,269.99L 204.67,269.99L 224.00,269.96L 243.33,269.94L 262.67,269.92L 282.00,269.90L 301.33,269.87L 320.67,269.85L 340.00,269.82L 359.33,269.79L 378.67,269.77L 398.00,269.74L 417.33,269.71L 436.67,269.62L 456.00,269.56L 475.33,269.51L 494.67,269.46L 514.00,269.42L 533.33,269.40L 552.67,269.39L 572.00,269.38L 591.33,269.37L 610.67,269.37" id="Hydrogen" class="line" stroke="#0279FA" stroke-width="3" stroke-linecap="round"><title>Hydrogen</title></path>
	<circle cx="50.00" cy="269.99" data-y="0.000564791" data-x="2021" r="4" fill="#0279FA"><title>2021: 0.000564791</title></circle>
	<circle cx="69.33" cy="269.99" data-y="0.000683658" data-x="2022" r="4" fill="#0279FA"><title>2022: 0.000683658</title></circle>
	<circle cx="88.67" cy="269.99" data-y="0.000727077" data-x="2023" r="4" fill="#0279FA"><title>2023: 0.000727077</title></circle>
	<circle cx="108.00" cy="269.99" data-y="0.000717157" data-x="2024" r="4" fill="#0279FA"><title>2024: 0.000717157</title></circle>
	<circle cx="127.33" cy="269.99" data-y="0.000776772" data-x="2025" r="4" fill="#0279FA"><title>2025: 0.000776772</title></circle>
	<circle cx="146.67" cy="269.99" data-y="0.00064973" data-x="2026" r="4" fill="#0279FA"><title>2026: 0.00064973</title></circle>
	<circle cx="166.00" cy="269.99" data-y="0.00063455" data-x="2027" r="4" fill="#0279FA"><title>2027: 0.00063455</title></circle>
	<circle cx="185.33" cy="269.99" data-y="0.000941494" data-x="2028" r="4" fill="#0279FA"><title>2028: 0.000941494</title></circle>
	<circle cx="204.67" cy="269.99" data-y="0.000960663" data-x="2029" r="4" fill="#0279FA"><title>2029: 0.000960663</title></circle>
	<circle cx="224.00" cy="269.96" data-y="0.00396029" data-x="2030" r="4" fill="#0279FA"><title>2030: 0.00396029</title></circle>
	<circle cx="243.33" cy="269.94" data-y="0.005950366" data-x="2031" r="4" fill="#0279FA"><title>2031: 0.005950366</title></circle>
	<circle cx="262.67" cy="269.92" data-y="0.007395202" data-x="2032" r="4" fill="#0279FA"><title>2032: 0.007395202</title></circle>
	<circle cx="282.00" cy="269.90" data-y="0.009297332" data-x="2033" r="4" fill="#0279FA"><title>2033: 0.009297332</title></circle>
	<circle cx="301.33" cy="269.87" data-y="0.011900579" data-x="2034" r="4" fill="#0279FA"><title>2034: 0.011900579</title></circle>
	<circle cx="320.67" cy="269.85" data-y="0.014207714" data-x="2035" r="4" fill="#0279FA"><title>2035: 0.014207714</title></circle>
	<circle cx="340.00" cy="269.82" data-y="0.017002627" data-x="2036" r="4" fill="#0279FA"><title>2036: 0.017002627</title></circle>
	<circle cx="359.33" cy="269.79" data-y="0.019108613" data-x="2037" r="4" fill="#0279FA"><title>2037: 0.019108613</title></circle>
	<circle cx="378.67" cy="269.77" data-y="0.021453974" data-x="2038" r="4" fill="#0279FA"><title>2038: 0.021453974</title></circle>
	<circle cx="398.00" cy="269.74" data-y="0.023705699" data-x="2039" r="4" fill="#0279FA"><title>2039: 0.023705699</title></circle>
	<circle cx="417.33" cy="269.71" data-y="0.026808637" data-x="2040" r="4" fill="#0279FA"><title>2040: 0.026808637</title></circle>
	<circle cx="436.67" cy="269.62" data-y="0.034564279" data-x="2041" r="4" fill="#0279FA"><title>2041: 0.034564279</title></circle>
	<circle cx="456.00" cy="269.56" data-y="0.040794632" data-x="2042" r="4" fill="#0279FA"><title>2042: 0.040794632</title></circle>
	<circle cx="475.33" cy="269.51" data-y="0.045413954" data-x="2043" r="4" fill="#0279FA"><title>2043: 0.045413954</title></circle>
	<circle cx="494.67" cy="269.46" data-y="0.049873348" data-x="2044" r="4" fill="#0279FA"><title>2044: 0.049873348</title></circle>
	<circle cx="514.00" cy="269.42" data-y="0.053049526" data-x="2045" r="4" fill="#0279FA"><title>2045: 0.053049526</title></circle>
	<circle cx="533.33" cy="269.40" data-y="0.05507445" data-x="2046" r="4" fill="#0279FA"><title>2046: 0.05507445</title></circle>
	<circle cx="552.67" cy="269.39" data-y="0.056199573" data-x="2047" r="4" fill="#0279FA"><title>2047: 0.056199573</title></circle>
	<circle cx="572.00" cy="269.38" data-y="0.057451587" data-x="2048" r="4" fill="#0279FA"><title>2048: 0.057451587</title></circle>
	<circle cx="591.33" cy="269.37" data-y="0.05820506" data-x="2049" r="4" fill="#0279FA"><title>2049: 0.05820506</title></circle>
	<circle cx="610.67" cy="269.37" data-y="0.057656781" data-x="2050" r="4" fill="#0279FA"><title>2050: 0.057656781</title></circle>
</g>
<g data-scenario="bioenergy" class="data-series">	<path d="M 50.00,269.38L 69.33,269.40L 88.67,269.43L 108.00,269.45L 127.33,269.47L 146.67,269.50L 166.00,269.54L 185.33,269.57L 204.67,269.60L 224.00,269.63L 243.33,269.65L 262.67,269.67L 282.00,269.69L 301.33,269.71L 320.67,269.74L 340.00,269.76L 359.33,269.78L 378.67,269.80L 398.00,269.82L 417.33,269.84L 436.67,269.85L 456.00,269.87L 475.33,269.89L 494.67,269.89L 514.00,269.90L 533.33,269.90L 552.67,269.90L 572.00,269.90L 591.33,269.90L 610.67,269.90" id="Bioenergy" class="line" stroke="#019303" stroke-width="3" stroke-linecap="round"><title>Bioenergy</title></path>
	<circle cx="50.00" cy="269.38" data-y="0.056850355" data-x="2021" r="4" fill="#019303"><title>2021: 0.056850355</title></circle>
	<circle cx="69.33" cy="269.40" data-y="0.054906417" data-x="2022" r="4" fill="#019303"><title>2022: 0.054906417</title></circle>
	<circle cx="88.67" cy="269.43" data-y="0.052795306" data-x="2023" r="4" fill="#019303"><title>2023: 0.052795306</title></circle>
	<circle cx="108.00" cy="269.45" data-y="0.050624745" data-x="2024" r="4" fill="#019303"><title>2024: 0.050624745</title></circle>
	<circle cx="127.33" cy="269.47" data-y="0.0485716" data-x="2025" r="4" fill="#019303"><title>2025: 0.0485716</title></circle>
	<circle cx="146.67" cy="269.50" data-y="0.045784318" data-x="2026" r="4" fill="#019303"><title>2026: 0.045784318</title></circle>
	<circle cx="166.00" cy="269.54" data-y="0.042564357" data-x="2027" r="4" fill="#019303"><title>2027: 0.042564357</title></circle>
	<circle cx="185.33" cy="269.57" data-y="0.039093718" data-x="2028" r="4" fill="#019303"><title>2028: 0.039093718</title></circle>
	<circle cx="204.67" cy="269.60" data-y="0.036562872" data-x="2029" r="4" fill="#019303"><title>2029: 0.036562872</title></circle>
	<circle cx="224.00" cy="269.63" data-y="0.0340782" data-x="2030" r="4" fill="#019303"><title>2030: 0.0340782</title></circle>
	<circle cx="243.33" cy="269.65" data-y="0.032123357" data-x="2031" r="4" fill="#019303"><title>2031: 0.032123357</title></circle>
	<circle cx="262.67" cy="269.67" data-y="0.030184196" data-x="2032" r="4" fill="#019303"><title>2032: 0.030184196</title></circle>
	<circle cx="282.00" cy="269.69" data-y="0.028349881" data-x="2033" r="4" fill="#019303"><title>2033: 0.028349881</title></circle>
	<circle cx="301.33" cy="269.71" data-y="0.026298588" data-x="2034" r="4" fill="#019303"><title>2034: 0.026298588</title></circle>
	<circle cx="320.67" cy="269.74" data-y="0.023529809" data-x="2035" r="4" fill="#019303"><title>2035: 0.023529809</title></circle>
	<circle cx="340.00" cy="269.76" data-y="0.021869721" data-x="2036" r="4" fill="#019303"><title>2036: 0.021869721</title></circle>
	<circle cx="359.33" cy="269.78" data-y="0.020201936" data-x="2037" r="4" fill="#019303"><title>2037: 0.020201936</title></circle>
	<circle cx="378.67" cy="269.80" data-y="0.018541212" data-x="2038" r="4" fill="#019303"><title>2038: 0.018541212</title></circle>
	<circle cx="398.00" cy="269.82" data-y="0.016810988" data-x="2039" r="4" fill="#019303"><title>2039: 0.016810988</title></circle>
	<circle cx="417.33" cy="269.84" data-y="0.015086136" data-x="2040" r="4" fill="#019303"><title>2040: 0.015086136</title></circle>
	<circle cx="436.67" cy="269.85" data-y="0.013360946" data-x="2041" r="4" fill="#019303"><title>2041: 0.013360946</title></circle>
	<circle cx="456.00" cy="269.87" data-y="0.011635514" data-x="2042" r="4" fill="#019303"><title>2042: 0.011635514</title></circle>
	<circle cx="475.33" cy="269.89" data-y="0.009997172" data-x="2043" r="4" fill="#019303"><title>2043: 0.009997172</title></circle>
	<circle cx="494.67" cy="269.89" data-y="0.009759544" data-x="2044" r="4" fill="#019303"><title>2044: 0.009759544</title></circle>
	<circle cx="514.00" cy="269.90" data-y="0.009645494" data-x="2045" r="4" fill="#019303"><title>2045: 0.009645494</title></circle>
	<circle cx="533.33" cy="269.90" data-y="0.009605859" data-x="2046" r="4" fill="#019303"><title>2046: 0.009605859</title></circle>
	<circle cx="552.67" cy="269.90" data-y="0.009566645" data-x="2047" r="4" fill="#019303"><title>2047: 0.009566645</title></circle>
	<circle cx="572.00" cy="269.90" data-y="0.009534629" data-x="2048" r="4" fill="#019303"><title>2048: 0.009534629</title></circle>
	<circle cx="591.33" cy="269.90" data-y="0.009503468" data-x="2049" r="4" fill="#019303"><title>2049: 0.009503468</title></circle>
	<circle cx="610.67" cy="269.90" data-y="0.009472338" data-x="2050" r="4" fill="#019303"><title>2050: 0.009472338</title></circle>
</g>
<g data-scenario="petrol" class="data-series">	<path d="M 50.00,69.72L 69.33,72.58L 88.67,79.33L 108.00,86.86L 127.33,96.42L 146.67,108.98L 166.00,121.78L 185.33,135.18L 204.67,148.61L 224.00,161.53L 243.33,174.31L 262.67,187.93L 282.00,200.44L 301.33,211.76L 320.67,221.90L 340.00,230.41L 359.33,237.93L 378.67,244.54L 398.00,250.32L 417.33,255.32L 436.67,259.41L 456.00,262.74L 475.33,265.41L 494.67,267.07L 514.00,268.16L 533.33,268.78L 552.67,269.23L 572.00,269.44L 591.33,269.58L 610.67,269.67" id="Petrol" class="line" stroke="#FFC300" stroke-width="3" stroke-linecap="round"><title>Petrol</title></path>
	<circle cx="50.00" cy="69.72" data-y="18.41311609" data-x="2021" r="4" fill="#FFC300"><title>2021: 18.41311609</title></circle>
	<circle cx="69.33" cy="72.58" data-y="18.15053935" data-x="2022" r="4" fill="#FFC300"><title>2022: 18.15053935</title></circle>
	<circle cx="88.67" cy="79.33" data-y="17.52993135" data-x="2023" r="4" fill="#FFC300"><title>2023: 17.52993135</title></circle>
	<circle cx="108.00" cy="86.86" data-y="16.83781335" data-x="2024" r="4" fill="#FFC300"><title>2024: 16.83781335</title></circle>
	<circle cx="127.33" cy="96.42" data-y="15.95845405" data-x="2025" r="4" fill="#FFC300"><title>2025: 15.95845405</title></circle>
	<circle cx="146.67" cy="108.98" data-y="14.80362403" data-x="2026" r="4" fill="#FFC300"><title>2026: 14.80362403</title></circle>
	<circle cx="166.00" cy="121.78" data-y="13.62691998" data-x="2027" r="4" fill="#FFC300"><title>2027: 13.62691998</title></circle>
	<circle cx="185.33" cy="135.18" data-y="12.39501143" data-x="2028" r="4" fill="#FFC300"><title>2028: 12.39501143</title></circle>
	<circle cx="204.67" cy="148.61" data-y="11.16067651" data-x="2029" r="4" fill="#FFC300"><title>2029: 11.16067651</title></circle>
	<circle cx="224.00" cy="161.53" data-y="9.972336309" data-x="2030" r="4" fill="#FFC300"><title>2030: 9.972336309</title></circle>
	<circle cx="243.33" cy="174.31" data-y="8.797047098" data-x="2031" r="4" fill="#FFC300"><title>2031: 8.797047098</title></circle>
	<circle cx="262.67" cy="187.93" data-y="7.545288197" data-x="2032" r="4" fill="#FFC300"><title>2032: 7.545288197</title></circle>
	<circle cx="282.00" cy="200.44" data-y="6.395609484" data-x="2033" r="4" fill="#FFC300"><title>2033: 6.395609484</title></circle>
	<circle cx="301.33" cy="211.76" data-y="5.35452095" data-x="2034" r="4" fill="#FFC300"><title>2034: 5.35452095</title></circle>
	<circle cx="320.67" cy="221.90" data-y="4.422152055" data-x="2035" r="4" fill="#FFC300"><title>2035: 4.422152055</title></circle>
	<circle cx="340.00" cy="230.41" data-y="3.639418923" data-x="2036" r="4" fill="#FFC300"><title>2036: 3.639418923</title></circle>
	<circle cx="359.33" cy="237.93" data-y="2.948135804" data-x="2037" r="4" fill="#FFC300"><title>2037: 2.948135804</title></circle>
	<circle cx="378.67" cy="244.54" data-y="2.34051249" data-x="2038" r="4" fill="#FFC300"><title>2038: 2.34051249</title></circle>
	<circle cx="398.00" cy="250.32" data-y="1.809247099" data-x="2039" r="4" fill="#FFC300"><title>2039: 1.809247099</title></circle>
	<circle cx="417.33" cy="255.32" data-y="1.34977123" data-x="2040" r="4" fill="#FFC300"><title>2040: 1.34977123</title></circle>
	<circle cx="436.67" cy="259.41" data-y="0.973495032" data-x="2041" r="4" fill="#FFC300"><title>2041: 0.973495032</title></circle>
	<circle cx="456.00" cy="262.74" data-y="0.667412015" data-x="2042" r="4" fill="#FFC300"><title>2042: 0.667412015</title></circle>
	<circle cx="475.33" cy="265.41" data-y="0.422194504" data-x="2043" r="4" fill="#FFC300"><title>2043: 0.422194504</title></circle>
	<circle cx="494.67" cy="267.07" data-y="0.269737232" data-x="2044" r="4" fill="#FFC300"><title>2044: 0.269737232</title></circle>
	<circle cx="514.00" cy="268.16" data-y="0.168717709" data-x="2045" r="4" fill="#FFC300"><title>2045: 0.168717709</title></circle>
	<circle cx="533.33" cy="268.78" data-y="0.112201859" data-x="2046" r="4" fill="#FFC300"><title>2046: 0.112201859</title></circle>
	<circle cx="552.67" cy="269.23" data-y="0.070691091" data-x="2047" r="4" fill="#FFC300"><title>2047: 0.070691091</title></circle>
	<circle cx="572.00" cy="269.44" data-y="0.051806448" data-x="2048" r="4" fill="#FFC300"><title>2048: 0.051806448</title></circle>
	<circle cx="591.33" cy="269.58" data-y="0.038983533" data-x="2049" r="4" fill="#FFC300"><title>2049: 0.038983533</title></circle>
	<circle cx="610.67" cy="269.67" data-y="0.03010756" data-x="2050" r="4" fill="#FFC300"><title>2050: 0.03010756</title></circle>
</g>
<g data-scenario="solid-fuel" class="data-series">	<path d="M 50.00,266.99L 69.33,267.12L 88.67,267.27L 108.00,267.42L 127.33,267.56L 146.67,267.73L 166.00,267.95L 185.33,268.18L 204.67,268.32L 224.00,268.47L 243.33,268.59L 262.67,268.72L 282.00,268.83L 301.33,268.95L 320.67,269.06L 340.00,269.17L 359.33,269.28L 378.67,269.38L 398.00,269.49L 417.33,269.61L 436.67,269.72L 456.00,269.83L 475.33,269.94L 494.67,269.95L 514.00,269.95L 533.33,269.96L 552.67,269.96L 572.00,269.96L 591.33,269.97L 610.67,269.97" id="Solid fuel" class="line" stroke="#505050" stroke-width="3" stroke-linecap="round"><title>Solid fuel</title></path>
	<circle cx="50.00" cy="266.99" data-y="0.277105276" data-x="2021" r="4" fill="#505050"><title>2021: 0.277105276</title></circle>
	<circle cx="69.33" cy="267.12" data-y="0.264836707" data-x="2022" r="4" fill="#505050"><title>2022: 0.264836707</title></circle>
	<circle cx="88.67" cy="267.27" data-y="0.251007922" data-x="2023" r="4" fill="#505050"><title>2023: 0.251007922</title></circle>
	<circle cx="108.00" cy="267.42" data-y="0.236966918" data-x="2024" r="4" fill="#505050"><title>2024: 0.236966918</title></circle>
	<circle cx="127.33" cy="267.56" data-y="0.22461675" data-x="2025" r="4" fill="#505050"><title>2025: 0.22461675</title></circle>
	<circle cx="146.67" cy="267.73" data-y="0.208382505" data-x="2026" r="4" fill="#505050"><title>2026: 0.208382505</title></circle>
	<circle cx="166.00" cy="267.95" data-y="0.188701242" data-x="2027" r="4" fill="#505050"><title>2027: 0.188701242</title></circle>
	<circle cx="185.33" cy="268.18" data-y="0.167395804" data-x="2028" r="4" fill="#505050"><title>2028: 0.167395804</title></circle>
	<circle cx="204.67" cy="268.32" data-y="0.154046927" data-x="2029" r="4" fill="#505050"><title>2029: 0.154046927</title></circle>
	<circle cx="224.00" cy="268.47" data-y="0.140994923" data-x="2030" r="4" fill="#505050"><title>2030: 0.140994923</title></circle>
	<circle cx="243.33" cy="268.59" data-y="0.129514446" data-x="2031" r="4" fill="#505050"><title>2031: 0.129514446</title></circle>
	<circle cx="262.67" cy="268.72" data-y="0.118130671" data-x="2032" r="4" fill="#505050"><title>2032: 0.118130671</title></circle>
	<circle cx="282.00" cy="268.83" data-y="0.107336084" data-x="2033" r="4" fill="#505050"><title>2033: 0.107336084</title></circle>
	<circle cx="301.33" cy="268.95" data-y="0.096630557" data-x="2034" r="4" fill="#505050"><title>2034: 0.096630557</title></circle>
	<circle cx="320.67" cy="269.06" data-y="0.086424594" data-x="2035" r="4" fill="#505050"><title>2035: 0.086424594</title></circle>
	<circle cx="340.00" cy="269.17" data-y="0.076524733" data-x="2036" r="4" fill="#505050"><title>2036: 0.076524733</title></circle>
	<circle cx="359.33" cy="269.28" data-y="0.066596892" data-x="2037" r="4" fill="#505050"><title>2037: 0.066596892</title></circle>
	<circle cx="378.67" cy="269.38" data-y="0.056699072" data-x="2038" r="4" fill="#505050"><title>2038: 0.056699072</title></circle>
	<circle cx="398.00" cy="269.49" data-y="0.046440719" data-x="2039" r="4" fill="#505050"><title>2039: 0.046440719</title></circle>
	<circle cx="417.33" cy="269.61" data-y="0.03617493" data-x="2040" r="4" fill="#505050"><title>2040: 0.03617493</title></circle>
	<circle cx="436.67" cy="269.72" data-y="0.02588364" data-x="2041" r="4" fill="#505050"><title>2041: 0.02588364</title></circle>
	<circle cx="456.00" cy="269.83" data-y="0.015621381" data-x="2042" r="4" fill="#505050"><title>2042: 0.015621381</title></circle>
	<circle cx="475.33" cy="269.94" data-y="0.005832849" data-x="2043" r="4" fill="#505050"><title>2043: 0.005832849</title></circle>
	<circle cx="494.67" cy="269.95" data-y="0.00489016" data-x="2044" r="4" fill="#505050"><title>2044: 0.00489016</title></circle>
	<circle cx="514.00" cy="269.95" data-y="0.004490291" data-x="2045" r="4" fill="#505050"><title>2045: 0.004490291</title></circle>
	<circle cx="533.33" cy="269.96" data-y="0.004111161" data-x="2046" r="4" fill="#505050"><title>2046: 0.004111161</title></circle>
	<circle cx="552.67" cy="269.96" data-y="0.003738591" data-x="2047" r="4" fill="#505050"><title>2047: 0.003738591</title></circle>
	<circle cx="572.00" cy="269.96" data-y="0.003408833" data-x="2048" r="4" fill="#505050"><title>2048: 0.003408833</title></circle>
	<circle cx="591.33" cy="269.97" data-y="0.003215632" data-x="2049" r="4" fill="#505050"><title>2049: 0.003215632</title></circle>
	<circle cx="610.67" cy="269.97" data-y="0.003040882" data-x="2050" r="4" fill="#505050"><title>2050: 0.003040882</title></circle>
</g>
<g data-scenario="electricity" class="data-series">	<path d="M 50.00,210.90L 69.33,211.98L 88.67,217.27L 108.00,216.54L 127.33,219.95L 146.67,231.99L 166.00,238.71L 185.33,242.10L 204.67,244.00L 224.00,248.41L 243.33,251.93L 262.67,256.54L 282.00,259.52L 301.33,261.86L 320.67,263.97L 340.00,264.15L 359.33,264.50L 378.67,264.62L 398.00,264.86L 417.33,265.21L 436.67,266.67L 456.00,266.93L 475.33,267.09L 494.67,267.20L 514.00,268.12L 533.33,268.28L 552.67,268.62L 572.00,268.63L 591.33,268.84L 610.67,268.85" id="Electricity" class="line" stroke="#cc0935" stroke-width="3" stroke-linecap="round"><title>Electricity</title></path>
	<circle cx="50.00" cy="210.90" data-y="5.433194672" data-x="2021" r="4" fill="#cc0935"><title>2021: 5.433194672</title></circle>
	<circle cx="69.33" cy="211.98" data-y="5.334347153" data-x="2022" r="4" fill="#cc0935"><title>2022: 5.334347153</title></circle>
	<circle cx="88.67" cy="217.27" data-y="4.848137534" data-x="2023" r="4" fill="#cc0935"><title>2023: 4.848137534</title></circle>
	<circle cx="108.00" cy="216.54" data-y="4.914598454" data-x="2024" r="4" fill="#cc0935"><title>2024: 4.914598454</title></circle>
	<circle cx="127.33" cy="219.95" data-y="4.601739131" data-x="2025" r="4" fill="#cc0935"><title>2025: 4.601739131</title></circle>
	<circle cx="146.67" cy="231.99" data-y="3.494864333" data-x="2026" r="4" fill="#cc0935"><title>2026: 3.494864333</title></circle>
	<circle cx="166.00" cy="238.71" data-y="2.876274052" data-x="2027" r="4" fill="#cc0935"><title>2027: 2.876274052</title></circle>
	<circle cx="185.33" cy="242.10" data-y="2.564870682" data-x="2028" r="4" fill="#cc0935"><title>2028: 2.564870682</title></circle>
	<circle cx="204.67" cy="244.00" data-y="2.389998047" data-x="2029" r="4" fill="#cc0935"><title>2029: 2.389998047</title></circle>
	<circle cx="224.00" cy="248.41" data-y="1.985257621" data-x="2030" r="4" fill="#cc0935"><title>2030: 1.985257621</title></circle>
	<circle cx="243.33" cy="251.93" data-y="1.661592418" data-x="2031" r="4" fill="#cc0935"><title>2031: 1.661592418</title></circle>
	<circle cx="262.67" cy="256.54" data-y="1.237325455" data-x="2032" r="4" fill="#cc0935"><title>2032: 1.237325455</title></circle>
	<circle cx="282.00" cy="259.52" data-y="0.963342404" data-x="2033" r="4" fill="#cc0935"><title>2033: 0.963342404</title></circle>
	<circle cx="301.33" cy="261.86" data-y="0.747949022" data-x="2034" r="4" fill="#cc0935"><title>2034: 0.747949022</title></circle>
	<circle cx="320.67" cy="263.97" data-y="0.554479806" data-x="2035" r="4" fill="#cc0935"><title>2035: 0.554479806</title></circle>
	<circle cx="340.00" cy="264.15" data-y="0.537786999" data-x="2036" r="4" fill="#cc0935"><title>2036: 0.537786999</title></circle>
	<circle cx="359.33" cy="264.50" data-y="0.505656989" data-x="2037" r="4" fill="#cc0935"><title>2037: 0.505656989</title></circle>
	<circle cx="378.67" cy="264.62" data-y="0.494633554" data-x="2038" r="4" fill="#cc0935"><title>2038: 0.494633554</title></circle>
	<circle cx="398.00" cy="264.86" data-y="0.472254317" data-x="2039" r="4" fill="#cc0935"><title>2039: 0.472254317</title></circle>
	<circle cx="417.33" cy="265.21" data-y="0.440217351" data-x="2040" r="4" fill="#cc0935"><title>2040: 0.440217351</title></circle>
	<circle cx="436.67" cy="266.67" data-y="0.305838433" data-x="2041" r="4" fill="#cc0935"><title>2041: 0.305838433</title></circle>
	<circle cx="456.00" cy="266.93" data-y="0.281818872" data-x="2042" r="4" fill="#cc0935"><title>2042: 0.281818872</title></circle>
	<circle cx="475.33" cy="267.09" data-y="0.267417716" data-x="2043" r="4" fill="#cc0935"><title>2043: 0.267417716</title></circle>
	<circle cx="494.67" cy="267.20" data-y="0.257858059" data-x="2044" r="4" fill="#cc0935"><title>2044: 0.257858059</title></circle>
	<circle cx="514.00" cy="268.12" data-y="0.173019581" data-x="2045" r="4" fill="#cc0935"><title>2045: 0.173019581</title></circle>
	<circle cx="533.33" cy="268.28" data-y="0.158014742" data-x="2046" r="4" fill="#cc0935"><title>2046: 0.158014742</title></circle>
	<circle cx="552.67" cy="268.62" data-y="0.126483519" data-x="2047" r="4" fill="#cc0935"><title>2047: 0.126483519</title></circle>
	<circle cx="572.00" cy="268.63" data-y="0.12604585" data-x="2048" r="4" fill="#cc0935"><title>2048: 0.12604585</title></circle>
	<circle cx="591.33" cy="268.84" data-y="0.107089365" data-x="2049" r="4" fill="#cc0935"><title>2049: 0.107089365</title></circle>
	<circle cx="610.67" cy="268.85" data-y="0.105338071" data-x="2050" r="4" fill="#cc0935"><title>2050: 0.105338071</title></circle>
</g>
<g data-scenario="total-emissions" class="data-series">	<path d="M 50.00,10.00L 69.33,13.95L 88.67,26.01L 108.00,32.84L 127.33,45.83L 146.67,70.46L 166.00,90.03L 185.33,106.85L 204.67,122.20L 224.00,139.52L 243.33,155.83L 262.67,174.06L 282.00,189.55L 301.33,203.21L 320.67,215.46L 340.00,224.14L 359.33,232.01L 378.67,238.73L 398.00,244.74L 417.33,250.07L 436.67,255.56L 456.00,259.10L 475.33,261.90L 494.67,263.61L 514.00,265.60L 533.33,266.36L 552.67,267.14L 572.00,267.34L 591.33,267.67L 610.67,267.80" id="Total Emissions" class="line" stroke="#cc0935" stroke-width="3" stroke-linecap="round"><title>Total Emissions</title></path>
	<circle cx="50.00" cy="10.00" data-y="23.90372591" data-x="2021" r="4" fill="#cc0935"><title>2021: 23.90372591</title></circle>
	<circle cx="69.33" cy="13.95" data-y="23.54047658" data-x="2022" r="4" fill="#cc0935"><title>2022: 23.54047658</title></circle>
	<circle cx="88.67" cy="26.01" data-y="22.43159127" data-x="2023" r="4" fill="#cc0935"><title>2023: 22.43159127</title></circle>
	<circle cx="108.00" cy="32.84" data-y="21.80375371" data-x="2024" r="4" fill="#cc0935"><title>2024: 21.80375371</title></circle>
	<circle cx="127.33" cy="45.83" data-y="20.60954156" data-x="2025" r="4" fill="#cc0935"><title>2025: 20.60954156</title></circle>
	<circle cx="146.67" cy="70.46" data-y="18.34492241" data-x="2026" r="4" fill="#cc0935"><title>2026: 18.34492241</title></circle>
	<circle cx="166.00" cy="90.03" data-y="16.54639294" data-x="2027" r="4" fill="#cc0935"><title>2027: 16.54639294</title></circle>
	<circle cx="185.33" cy="106.85" data-y="14.99991733" data-x="2028" r="4" fill="#cc0935"><title>2028: 14.99991733</title></circle>
	<circle cx="204.67" cy="122.20" data-y="13.5881981" data-x="2029" r="4" fill="#cc0935"><title>2029: 13.5881981</title></circle>
	<circle cx="224.00" cy="139.52" data-y="11.99563242" data-x="2030" r="4" fill="#cc0935"><title>2030: 11.99563242</title></circle>
	<circle cx="243.33" cy="155.83" data-y="10.49671324" data-x="2031" r="4" fill="#cc0935"><title>2031: 10.49671324</title></circle>
	<circle cx="262.67" cy="174.06" data-y="8.820193051" data-x="2032" r="4" fill="#cc0935"><title>2032: 8.820193051</title></circle>
	<circle cx="282.00" cy="189.55" data-y="7.3965991" data-x="2033" r="4" fill="#cc0935"><title>2033: 7.3965991</title></circle>
	<circle cx="301.33" cy="203.21" data-y="6.140669139" data-x="2034" r="4" fill="#cc0935"><title>2034: 6.140669139</title></circle>
	<circle cx="320.67" cy="215.46" data-y="5.014369383" data-x="2035" r="4" fill="#cc0935"><title>2035: 5.014369383</title></circle>
	<circle cx="340.00" cy="224.14" data-y="4.21607827" data-x="2036" r="4" fill="#cc0935"><title>2036: 4.21607827</title></circle>
	<circle cx="359.33" cy="232.01" data-y="3.493103341" data-x="2037" r="4" fill="#cc0935"><title>2037: 3.493103341</title></circle>
	<circle cx="378.67" cy="238.73" data-y="2.875141229" data-x="2038" r="4" fill="#cc0935"><title>2038: 2.875141229</title></circle>
	<circle cx="398.00" cy="244.74" data-y="2.322018103" data-x="2039" r="4" fill="#cc0935"><title>2039: 2.322018103</title></circle>
	<circle cx="417.33" cy="250.07" data-y="1.831883355" data-x="2040" r="4" fill="#cc0935"><title>2040: 1.831883355</title></circle>
	<circle cx="436.67" cy="255.56" data-y="1.327258689" data-x="2041" r="4" fill="#cc0935"><title>2041: 1.327258689</title></circle>
	<circle cx="456.00" cy="259.10" data-y="1.001661033" data-x="2042" r="4" fill="#cc0935"><title>2042: 1.001661033</title></circle>
	<circle cx="475.33" cy="261.90" data-y="0.745023347" data-x="2043" r="4" fill="#cc0935"><title>2043: 0.745023347</title></circle>
	<circle cx="494.67" cy="263.61" data-y="0.587228183" data-x="2044" r="4" fill="#cc0935"><title>2044: 0.587228183</title></circle>
	<circle cx="514.00" cy="265.60" data-y="0.404432309" data-x="2045" r="4" fill="#cc0935"><title>2045: 0.404432309</title></circle>
	<circle cx="533.33" cy="266.36" data-y="0.33489691" data-x="2046" r="4" fill="#cc0935"><title>2046: 0.33489691</title></circle>
	<circle cx="552.67" cy="267.14" data-y="0.262940828" data-x="2047" r="4" fill="#cc0935"><title>2047: 0.262940828</title></circle>
	<circle cx="572.00" cy="267.34" data-y="0.244838514" data-x="2048" r="4" fill="#cc0935"><title>2048: 0.244838514</title></circle>
	<circle cx="591.33" cy="267.67" data-y="0.213781427" data-x="2049" r="4" fill="#cc0935"><title>2049: 0.213781427</title></circle>
	<circle cx="610.67" cy="267.80" data-y="0.20257475" data-x="2050" r="4" fill="#cc0935"><title>2050: 0.20257475</title></circle>
</g>
</svg>
