<svg width="640" height="320" viewBox="0 0 640 320" xmlns="http://www.w3.org/2000/svg" style="overflow:display" preserveAspectRatio="xMinYMin meet" overflow="visible">
<defs>
	<style>
	.data-series path.line { fill-opacity: 0; }
	.data-series path.line.dotted { stroke-dasharray: 12 20 }
	.data-series circle { display: none; }
	.data-series:hover path.line, .data-series.on path.line { stroke-width: 5; }
	.data-series:hover circle, .data-series.on circle { display: inline; }
	.data-series circle:hover, .data-series circle.on { r: 6px!important; fill: black; }
	.grid { font-family: "Helvetica Neue",Helvetica,Arial,"Lucida Grande",sans-serif; }
	.grid line { stroke: rgb(0,0,0); stroke-width: 2; stroke-linecap: round; }
	.grid.grid-x text { text-anchor: middle; dominant-baseline: hanging; transform: translateY(10px); }
	.grid.grid-y text { text-anchor: end; dominant-baseline: middle; transform: translateX(-10px); }
	</style>
</defs>
<g class="grid grid-y">
	<line x1="120" y1="270" x2="630" y2="270" data-left="120"></line>
	<text x="120" y="270" text-anchor="end">0</text>
	<text x="120" y="218.139453010854" text-anchor="end">1,000,000</text>
	<text x="120" y="166.278906021708" text-anchor="end">2,000,000</text>
	<text x="120" y="114.418359032561" text-anchor="end">3,000,000</text>
	<text x="120" y="62.5578120434153" text-anchor="end">4,000,000</text>
	<text x="120" y="10.6972650542691" text-anchor="end">5,000,000</text>
	<text style="text-anchor:middle;dominant-baseline:hanging;font-weight:bold;transform: translateY(140px) rotate(-90deg);">Number</text>
</g>
<g class="grid grid-x">
	<line class="tick" x1="273" y1="270" x2="273" y2="275"></line>
	<text x="273" y="270" text-anchor="middle">2030</text>
	<line class="tick" x1="443" y1="270" x2="443" y2="275"></line>
	<text x="443" y="270" text-anchor="middle">2040</text>
	<line class="tick" x1="613" y1="270" x2="613" y2="275"></line>
	<text x="613" y="270" text-anchor="middle">2050</text>
	<text style="text-anchor:middle;dominant-baseline:hanging;font-weight:bold;transform: translateY(140px) rotate(-90deg);"></text>
</g>
<g data-scenario="consumer-transformation" class="data-series">	<path d="M 120.00,267.10L 137.00,264.73L 154.00,261.69L 171.00,256.90L 188.00,249.70L 205.00,238.96L 222.00,228.02L 239.00,214.49L 256.00,198.41L 273.00,180.07L 290.00,157.99L 307.00,134.56L 324.00,111.29L 341.00,90.03L 358.00,71.69L 375.00,57.05L 392.00,46.36L 409.00,38.71L 426.00,33.88L 443.00,30.79L 460.00,30.41L 477.00,31.01L 494.00,31.98L 511.00,33.33L 528.00,35.07L 545.00,37.34L 562.00,40.14L 579.00,43.25L 596.00,47.10L 613.00,51.59" id="Consumer Transformation" class="line" stroke="#cc0935" stroke-width="3" stroke-linecap="round"><title>Consumer Transformation</title></path>
	<circle cx="120.00" cy="267.10" data-y="55956" data-x="2021" r="4" fill="#cc0935"><title>2021: 55956</title></circle>
	<circle cx="137.00" cy="264.73" data-y="101669" data-x="2022" r="4" fill="#cc0935"><title>2022: 101669</title></circle>
	<circle cx="154.00" cy="261.69" data-y="160323" data-x="2023" r="4" fill="#cc0935"><title>2023: 160323</title></circle>
	<circle cx="171.00" cy="256.90" data-y="252512" data-x="2024" r="4" fill="#cc0935"><title>2024: 252512</title></circle>
	<circle cx="188.00" cy="249.70" data-y="391377" data-x="2025" r="4" fill="#cc0935"><title>2025: 391377</title></circle>
	<circle cx="205.00" cy="238.96" data-y="598542" data-x="2026" r="4" fill="#cc0935"><title>2026: 598542</title></circle>
	<circle cx="222.00" cy="228.02" data-y="809539" data-x="2027" r="4" fill="#cc0935"><title>2027: 809539</title></circle>
	<circle cx="239.00" cy="214.49" data-y="1070422" data-x="2028" r="4" fill="#cc0935"><title>2028: 1070422</title></circle>
	<circle cx="256.00" cy="198.41" data-y="1380521" data-x="2029" r="4" fill="#cc0935"><title>2029: 1380521</title></circle>
	<circle cx="273.00" cy="180.07" data-y="1734078" data-x="2030" r="4" fill="#cc0935"><title>2030: 1734078</title></circle>
	<circle cx="290.00" cy="157.99" data-y="2159887" data-x="2031" r="4" fill="#cc0935"><title>2031: 2159887</title></circle>
	<circle cx="307.00" cy="134.56" data-y="2611577" data-x="2032" r="4" fill="#cc0935"><title>2032: 2611577</title></circle>
	<circle cx="324.00" cy="111.29" data-y="3060319" data-x="2033" r="4" fill="#cc0935"><title>2033: 3060319</title></circle>
	<circle cx="341.00" cy="90.03" data-y="3470364" data-x="2034" r="4" fill="#cc0935"><title>2034: 3470364</title></circle>
	<circle cx="358.00" cy="71.69" data-y="3823990" data-x="2035" r="4" fill="#cc0935"><title>2035: 3823990</title></circle>
	<circle cx="375.00" cy="57.05" data-y="4106123" data-x="2036" r="4" fill="#cc0935"><title>2036: 4106123</title></circle>
	<circle cx="392.00" cy="46.36" data-y="4312251" data-x="2037" r="4" fill="#cc0935"><title>2037: 4312251</title></circle>
	<circle cx="409.00" cy="38.71" data-y="4459753" data-x="2038" r="4" fill="#cc0935"><title>2038: 4459753</title></circle>
	<circle cx="426.00" cy="33.88" data-y="4552937" data-x="2039" r="4" fill="#cc0935"><title>2039: 4552937</title></circle>
	<circle cx="443.00" cy="30.79" data-y="4612614" data-x="2040" r="4" fill="#cc0935"><title>2040: 4612614</title></circle>
	<circle cx="460.00" cy="30.41" data-y="4619976" data-x="2041" r="4" fill="#cc0935"><title>2041: 4619976</title></circle>
	<circle cx="477.00" cy="31.01" data-y="4608375" data-x="2042" r="4" fill="#cc0935"><title>2042: 4608375</title></circle>
	<circle cx="494.00" cy="31.98" data-y="4589627" data-x="2043" r="4" fill="#cc0935"><title>2043: 4589627</title></circle>
	<circle cx="511.00" cy="33.33" data-y="4563607" data-x="2044" r="4" fill="#cc0935"><title>2044: 4563607</title></circle>
	<circle cx="528.00" cy="35.07" data-y="4529989" data-x="2045" r="4" fill="#cc0935"><title>2045: 4529989</title></circle>
	<circle cx="545.00" cy="37.34" data-y="4486289" data-x="2046" r="4" fill="#cc0935"><title>2046: 4486289</title></circle>
	<circle cx="562.00" cy="40.14" data-y="4432223" data-x="2047" r="4" fill="#cc0935"><title>2047: 4432223</title></circle>
	<circle cx="579.00" cy="43.25" data-y="4372375" data-x="2048" r="4" fill="#cc0935"><title>2048: 4372375</title></circle>
	<circle cx="596.00" cy="47.10" data-y="4298114" data-x="2049" r="4" fill="#cc0935"><title>2049: 4298114</title></circle>
	<circle cx="613.00" cy="51.59" data-y="4211467" data-x="2050" r="4" fill="#cc0935"><title>2050: 4211467</title></circle>
</g>
<g data-scenario="system-transformation" class="data-series">	<path d="M 120.00,267.10L 137.00,265.60L 154.00,263.95L 171.00,261.67L 188.00,258.53L 205.00,254.14L 222.00,248.12L 239.00,239.91L 256.00,228.86L 273.00,217.85L 290.00,204.21L 307.00,188.12L 324.00,169.64L 341.00,149.31L 358.00,128.90L 375.00,108.37L 392.00,88.95L 409.00,71.56L 426.00,57.09L 443.00,45.56L 460.00,36.68L 477.00,30.45L 494.00,28.67L 511.00,29.95L 528.00,31.87L 545.00,34.68L 562.00,38.45L 579.00,41.98L 596.00,45.76L 613.00,50.02" id="System Transformation" class="line" stroke="#cc0935" stroke-width="3" stroke-linecap="round"><title>System Transformation</title></path>
	<circle cx="120.00" cy="267.10" data-y="55956" data-x="2021" r="4" fill="#cc0935"><title>2021: 55956</title></circle>
	<circle cx="137.00" cy="265.60" data-y="84861" data-x="2022" r="4" fill="#cc0935"><title>2022: 84861</title></circle>
	<circle cx="154.00" cy="263.95" data-y="116723" data-x="2023" r="4" fill="#cc0935"><title>2023: 116723</title></circle>
	<circle cx="171.00" cy="261.67" data-y="160552" data-x="2024" r="4" fill="#cc0935"><title>2024: 160552</title></circle>
	<circle cx="188.00" cy="258.53" data-y="221150" data-x="2025" r="4" fill="#cc0935"><title>2025: 221150</title></circle>
	<circle cx="205.00" cy="254.14" data-y="305901" data-x="2026" r="4" fill="#cc0935"><title>2026: 305901</title></circle>
	<circle cx="222.00" cy="248.12" data-y="421821" data-x="2027" r="4" fill="#cc0935"><title>2027: 421821</title></circle>
	<circle cx="239.00" cy="239.91" data-y="580160" data-x="2028" r="4" fill="#cc0935"><title>2028: 580160</title></circle>
	<circle cx="256.00" cy="228.86" data-y="793281" data-x="2029" r="4" fill="#cc0935"><title>2029: 793281</title></circle>
	<circle cx="273.00" cy="217.85" data-y="1005491" data-x="2030" r="4" fill="#cc0935"><title>2030: 1005491</title></circle>
	<circle cx="290.00" cy="204.21" data-y="1268575" data-x="2031" r="4" fill="#cc0935"><title>2031: 1268575</title></circle>
	<circle cx="307.00" cy="188.12" data-y="1578832" data-x="2032" r="4" fill="#cc0935"><title>2032: 1578832</title></circle>
	<circle cx="324.00" cy="169.64" data-y="1935100" data-x="2033" r="4" fill="#cc0935"><title>2033: 1935100</title></circle>
	<circle cx="341.00" cy="149.31" data-y="2327290" data-x="2034" r="4" fill="#cc0935"><title>2034: 2327290</title></circle>
	<circle cx="358.00" cy="128.90" data-y="2720731" data-x="2035" r="4" fill="#cc0935"><title>2035: 2720731</title></circle>
	<circle cx="375.00" cy="108.37" data-y="3116692" data-x="2036" r="4" fill="#cc0935"><title>2036: 3116692</title></circle>
	<circle cx="392.00" cy="88.95" data-y="3491035" data-x="2037" r="4" fill="#cc0935"><title>2037: 3491035</title></circle>
	<circle cx="409.00" cy="71.56" data-y="3826361" data-x="2038" r="4" fill="#cc0935"><title>2038: 3826361</title></circle>
	<circle cx="426.00" cy="57.09" data-y="4105417" data-x="2039" r="4" fill="#cc0935"><title>2039: 4105417</title></circle>
	<circle cx="443.00" cy="45.56" data-y="4327703" data-x="2040" r="4" fill="#cc0935"><title>2040: 4327703</title></circle>
	<circle cx="460.00" cy="36.68" data-y="4499029" data-x="2041" r="4" fill="#cc0935"><title>2041: 4499029</title></circle>
	<circle cx="477.00" cy="30.45" data-y="4619061" data-x="2042" r="4" fill="#cc0935"><title>2042: 4619061</title></circle>
	<circle cx="494.00" cy="28.67" data-y="4653438" data-x="2043" r="4" fill="#cc0935"><title>2043: 4653438</title></circle>
	<circle cx="511.00" cy="29.95" data-y="4628815" data-x="2044" r="4" fill="#cc0935"><title>2044: 4628815</title></circle>
	<circle cx="528.00" cy="31.87" data-y="4591689" data-x="2045" r="4" fill="#cc0935"><title>2045: 4591689</title></circle>
	<circle cx="545.00" cy="34.68" data-y="4537532" data-x="2046" r="4" fill="#cc0935"><title>2046: 4537532</title></circle>
	<circle cx="562.00" cy="38.45" data-y="4464840" data-x="2047" r="4" fill="#cc0935"><title>2047: 4464840</title></circle>
	<circle cx="579.00" cy="41.98" data-y="4396785" data-x="2048" r="4" fill="#cc0935"><title>2048: 4396785</title></circle>
	<circle cx="596.00" cy="45.76" data-y="4323869" data-x="2049" r="4" fill="#cc0935"><title>2049: 4323869</title></circle>
	<circle cx="613.00" cy="50.02" data-y="4241804" data-x="2050" r="4" fill="#cc0935"><title>2050: 4241804</title></circle>
</g>
<g data-scenario="leading-the-way" class="data-series">	<path d="M 120.00,267.10L 137.00,264.86L 154.00,261.82L 171.00,257.22L 188.00,250.17L 205.00,239.50L 222.00,228.37L 239.00,213.49L 256.00,195.24L 273.00,173.74L 290.00,150.08L 307.00,124.82L 324.00,100.55L 341.00,79.06L 358.00,62.30L 375.00,50.00L 392.00,41.86L 409.00,36.61L 426.00,34.27L 443.00,35.56L 460.00,37.56L 477.00,40.42L 494.00,44.02L 511.00,48.87L 528.00,54.96L 545.00,61.99L 562.00,70.05L 579.00,79.16L 596.00,89.24L 613.00,100.67" id="Leading The Way" class="line" stroke="#cc0935" stroke-width="3" stroke-linecap="round"><title>Leading The Way</title></path>
	<circle cx="120.00" cy="267.10" data-y="55956" data-x="2021" r="4" fill="#cc0935"><title>2021: 55956</title></circle>
	<circle cx="137.00" cy="264.86" data-y="99188" data-x="2022" r="4" fill="#cc0935"><title>2022: 99188</title></circle>
	<circle cx="154.00" cy="261.82" data-y="157675" data-x="2023" r="4" fill="#cc0935"><title>2023: 157675</title></circle>
	<circle cx="171.00" cy="257.22" data-y="246431" data-x="2024" r="4" fill="#cc0935"><title>2024: 246431</title></circle>
	<circle cx="188.00" cy="250.17" data-y="382317" data-x="2025" r="4" fill="#cc0935"><title>2025: 382317</title></circle>
	<circle cx="205.00" cy="239.50" data-y="588210" data-x="2026" r="4" fill="#cc0935"><title>2026: 588210</title></circle>
	<circle cx="222.00" cy="228.37" data-y="802792" data-x="2027" r="4" fill="#cc0935"><title>2027: 802792</title></circle>
	<circle cx="239.00" cy="213.49" data-y="1089652" data-x="2028" r="4" fill="#cc0935"><title>2028: 1089652</title></circle>
	<circle cx="256.00" cy="195.24" data-y="1441581" data-x="2029" r="4" fill="#cc0935"><title>2029: 1441581</title></circle>
	<circle cx="273.00" cy="173.74" data-y="1856121" data-x="2030" r="4" fill="#cc0935"><title>2030: 1856121</title></circle>
	<circle cx="290.00" cy="150.08" data-y="2312335" data-x="2031" r="4" fill="#cc0935"><title>2031: 2312335</title></circle>
	<circle cx="307.00" cy="124.82" data-y="2799431" data-x="2032" r="4" fill="#cc0935"><title>2032: 2799431</title></circle>
	<circle cx="324.00" cy="100.55" data-y="3267498" data-x="2033" r="4" fill="#cc0935"><title>2033: 3267498</title></circle>
	<circle cx="341.00" cy="79.06" data-y="3681880" data-x="2034" r="4" fill="#cc0935"><title>2034: 3681880</title></circle>
	<circle cx="358.00" cy="62.30" data-y="4004929" data-x="2035" r="4" fill="#cc0935"><title>2035: 4004929</title></circle>
	<circle cx="375.00" cy="50.00" data-y="4242174" data-x="2036" r="4" fill="#cc0935"><title>2036: 4242174</title></circle>
	<circle cx="392.00" cy="41.86" data-y="4399033" data-x="2037" r="4" fill="#cc0935"><title>2037: 4399033</title></circle>
	<circle cx="409.00" cy="36.61" data-y="4500405" data-x="2038" r="4" fill="#cc0935"><title>2038: 4500405</title></circle>
	<circle cx="426.00" cy="34.27" data-y="4545426" data-x="2039" r="4" fill="#cc0935"><title>2039: 4545426</title></circle>
	<circle cx="443.00" cy="35.56" data-y="4520504" data-x="2040" r="4" fill="#cc0935"><title>2040: 4520504</title></circle>
	<circle cx="460.00" cy="37.56" data-y="4482058" data-x="2041" r="4" fill="#cc0935"><title>2041: 4482058</title></circle>
	<circle cx="477.00" cy="40.42" data-y="4426958" data-x="2042" r="4" fill="#cc0935"><title>2042: 4426958</title></circle>
	<circle cx="494.00" cy="44.02" data-y="4357391" data-x="2043" r="4" fill="#cc0935"><title>2043: 4357391</title></circle>
	<circle cx="511.00" cy="48.87" data-y="4263987" data-x="2044" r="4" fill="#cc0935"><title>2044: 4263987</title></circle>
	<circle cx="528.00" cy="54.96" data-y="4146432" data-x="2045" r="4" fill="#cc0935"><title>2045: 4146432</title></circle>
	<circle cx="545.00" cy="61.99" data-y="4010951" data-x="2046" r="4" fill="#cc0935"><title>2046: 4010951</title></circle>
	<circle cx="562.00" cy="70.05" data-y="3855464" data-x="2047" r="4" fill="#cc0935"><title>2047: 3855464</title></circle>
	<circle cx="579.00" cy="79.16" data-y="3679794" data-x="2048" r="4" fill="#cc0935"><title>2048: 3679794</title></circle>
	<circle cx="596.00" cy="89.24" data-y="3485480" data-x="2049" r="4" fill="#cc0935"><title>2049: 3485480</title></circle>
	<circle cx="613.00" cy="100.67" data-y="3265163" data-x="2050" r="4" fill="#cc0935"><title>2050: 3265163</title></circle>
</g>
<g data-scenario="planning-scenario" class="data-series">	<path d="M 120.00,267.10L 137.00,264.37L 154.00,258.91L 171.00,251.83L 188.00,242.84L 205.00,232.87L 222.00,221.28L 239.00,208.06L 256.00,193.47L 273.00,174.40L 290.00,155.98L 307.00,138.13L 324.00,120.99L 341.00,104.75L 358.00,89.55L 375.00,75.56L 392.00,62.79L 409.00,51.29L 426.00,41.02L 443.00,32.01L 460.00,26.35L 477.00,21.79L 494.00,18.26L 511.00,15.59L 528.00,13.60L 545.00,12.22L 562.00,11.26L 579.00,10.65L 596.00,10.25L 613.00,10.00" id="NPg Planning Scenario" class="line" stroke="#ab1236" stroke-width="3" stroke-linecap="round"><title>NPg Planning Scenario</title></path>
	<circle cx="120.00" cy="267.10" data-y="55956" data-x="2021" r="4" fill="#ab1236"><title>2021: 55956</title></circle>
	<circle cx="137.00" cy="264.37" data-y="108640" data-x="2022" r="4" fill="#ab1236"><title>2022: 108640</title></circle>
	<circle cx="154.00" cy="258.91" data-y="213800" data-x="2023" r="4" fill="#ab1236"><title>2023: 213800</title></circle>
	<circle cx="171.00" cy="251.83" data-y="350456" data-x="2024" r="4" fill="#ab1236"><title>2024: 350456</title></circle>
	<circle cx="188.00" cy="242.84" data-y="523703" data-x="2025" r="4" fill="#ab1236"><title>2025: 523703</title></circle>
	<circle cx="205.00" cy="232.87" data-y="716036" data-x="2026" r="4" fill="#ab1236"><title>2026: 716036</title></circle>
	<circle cx="222.00" cy="221.28" data-y="939481" data-x="2027" r="4" fill="#ab1236"><title>2027: 939481</title></circle>
	<circle cx="239.00" cy="208.06" data-y="1194431" data-x="2028" r="4" fill="#ab1236"><title>2028: 1194431</title></circle>
	<circle cx="256.00" cy="193.47" data-y="1475724" data-x="2029" r="4" fill="#ab1236"><title>2029: 1475724</title></circle>
	<circle cx="273.00" cy="174.40" data-y="1843408" data-x="2030" r="4" fill="#ab1236"><title>2030: 1843408</title></circle>
	<circle cx="290.00" cy="155.98" data-y="2198530" data-x="2031" r="4" fill="#ab1236"><title>2031: 2198530</title></circle>
	<circle cx="307.00" cy="138.13" data-y="2542871" data-x="2032" r="4" fill="#ab1236"><title>2032: 2542871</title></circle>
	<circle cx="324.00" cy="120.99" data-y="2873291" data-x="2033" r="4" fill="#ab1236"><title>2033: 2873291</title></circle>
	<circle cx="341.00" cy="104.75" data-y="3186376" data-x="2034" r="4" fill="#ab1236"><title>2034: 3186376</title></circle>
	<circle cx="358.00" cy="89.55" data-y="3479607" data-x="2035" r="4" fill="#ab1236"><title>2035: 3479607</title></circle>
	<circle cx="375.00" cy="75.56" data-y="3749194" data-x="2036" r="4" fill="#ab1236"><title>2036: 3749194</title></circle>
	<circle cx="392.00" cy="62.79" data-y="3995456" data-x="2037" r="4" fill="#ab1236"><title>2037: 3995456</title></circle>
	<circle cx="409.00" cy="51.29" data-y="4217344" data-x="2038" r="4" fill="#ab1236"><title>2038: 4217344</title></circle>
	<circle cx="426.00" cy="41.02" data-y="4415258" data-x="2039" r="4" fill="#ab1236"><title>2039: 4415258</title></circle>
	<circle cx="443.00" cy="32.01" data-y="4589052" data-x="2040" r="4" fill="#ab1236"><title>2040: 4589052</title></circle>
	<circle cx="460.00" cy="26.35" data-y="4698245" data-x="2041" r="4" fill="#ab1236"><title>2041: 4698245</title></circle>
	<circle cx="477.00" cy="21.79" data-y="4786011" data-x="2042" r="4" fill="#ab1236"><title>2042: 4786011</title></circle>
	<circle cx="494.00" cy="18.26" data-y="4854110" data-x="2043" r="4" fill="#ab1236"><title>2043: 4854110</title></circle>
	<circle cx="511.00" cy="15.59" data-y="4905744" data-x="2044" r="4" fill="#ab1236"><title>2044: 4905744</title></circle>
	<circle cx="528.00" cy="13.60" data-y="4943989" data-x="2045" r="4" fill="#ab1236"><title>2045: 4943989</title></circle>
	<circle cx="545.00" cy="12.22" data-y="4970617" data-x="2046" r="4" fill="#ab1236"><title>2046: 4970617</title></circle>
	<circle cx="562.00" cy="11.26" data-y="4989110" data-x="2047" r="4" fill="#ab1236"><title>2047: 4989110</title></circle>
	<circle cx="579.00" cy="10.65" data-y="5000992" data-x="2048" r="4" fill="#ab1236"><title>2048: 5000992</title></circle>
	<circle cx="596.00" cy="10.25" data-y="5008709" data-x="2049" r="4" fill="#ab1236"><title>2049: 5008709</title></circle>
	<circle cx="613.00" cy="10.00" data-y="5013445" data-x="2050" r="4" fill="#ab1236"><title>2050: 5013445</title></circle>
</g>
<g data-scenario="falling-short" class="data-series">	<path d="M 120.00,267.10L 137.00,265.68L 154.00,264.20L 171.00,262.21L 188.00,259.54L 205.00,255.91L 222.00,251.11L 239.00,244.75L 256.00,236.43L 273.00,228.54L 290.00,219.34L 307.00,208.69L 324.00,196.60L 341.00,183.18L 358.00,168.69L 375.00,151.68L 392.00,133.81L 409.00,115.52L 426.00,97.49L 443.00,81.80L 460.00,67.56L 477.00,55.09L 494.00,44.33L 511.00,35.53L 528.00,28.66L 545.00,27.03L 562.00,25.59L 579.00,24.29L 596.00,23.11L 613.00,22.01" id="Falling Short" class="line" stroke="#cc0935" stroke-width="3" stroke-linecap="round"><title>Falling Short</title></path>
	<circle cx="120.00" cy="267.10" data-y="55956" data-x="2021" r="4" fill="#cc0935"><title>2021: 55956</title></circle>
	<circle cx="137.00" cy="265.68" data-y="83356" data-x="2022" r="4" fill="#cc0935"><title>2022: 83356</title></circle>
	<circle cx="154.00" cy="264.20" data-y="111760" data-x="2023" r="4" fill="#cc0935"><title>2023: 111760</title></circle>
	<circle cx="171.00" cy="262.21" data-y="150270" data-x="2024" r="4" fill="#cc0935"><title>2024: 150270</title></circle>
	<circle cx="188.00" cy="259.54" data-y="201739" data-x="2025" r="4" fill="#cc0935"><title>2025: 201739</title></circle>
	<circle cx="205.00" cy="255.91" data-y="271706" data-x="2026" r="4" fill="#cc0935"><title>2026: 271706</title></circle>
	<circle cx="222.00" cy="251.11" data-y="364257" data-x="2027" r="4" fill="#cc0935"><title>2027: 364257</title></circle>
	<circle cx="239.00" cy="244.75" data-y="486860" data-x="2028" r="4" fill="#cc0935"><title>2028: 486860</title></circle>
	<circle cx="256.00" cy="236.43" data-y="647400" data-x="2029" r="4" fill="#cc0935"><title>2029: 647400</title></circle>
	<circle cx="273.00" cy="228.54" data-y="799403" data-x="2030" r="4" fill="#cc0935"><title>2030: 799403</title></circle>
	<circle cx="290.00" cy="219.34" data-y="976929" data-x="2031" r="4" fill="#cc0935"><title>2031: 976929</title></circle>
	<circle cx="307.00" cy="208.69" data-y="1182226" data-x="2032" r="4" fill="#cc0935"><title>2032: 1182226</title></circle>
	<circle cx="324.00" cy="196.60" data-y="1415263" data-x="2033" r="4" fill="#cc0935"><title>2033: 1415263</title></circle>
	<circle cx="341.00" cy="183.18" data-y="1674107" data-x="2034" r="4" fill="#cc0935"><title>2034: 1674107</title></circle>
	<circle cx="358.00" cy="168.69" data-y="1953531" data-x="2035" r="4" fill="#cc0935"><title>2035: 1953531</title></circle>
	<circle cx="375.00" cy="151.68" data-y="2281516" data-x="2036" r="4" fill="#cc0935"><title>2036: 2281516</title></circle>
	<circle cx="392.00" cy="133.81" data-y="2626010" data-x="2037" r="4" fill="#cc0935"><title>2037: 2626010</title></circle>
	<circle cx="409.00" cy="115.52" data-y="2978755" data-x="2038" r="4" fill="#cc0935"><title>2038: 2978755</title></circle>
	<circle cx="426.00" cy="97.49" data-y="3326515" data-x="2039" r="4" fill="#cc0935"><title>2039: 3326515</title></circle>
	<circle cx="443.00" cy="81.80" data-y="3628975" data-x="2040" r="4" fill="#cc0935"><title>2040: 3628975</title></circle>
	<circle cx="460.00" cy="67.56" data-y="3903541" data-x="2041" r="4" fill="#cc0935"><title>2041: 3903541</title></circle>
	<circle cx="477.00" cy="55.09" data-y="4144094" data-x="2042" r="4" fill="#cc0935"><title>2042: 4144094</title></circle>
	<circle cx="494.00" cy="44.33" data-y="4351523" data-x="2043" r="4" fill="#cc0935"><title>2043: 4351523</title></circle>
	<circle cx="511.00" cy="35.53" data-y="4521168" data-x="2044" r="4" fill="#cc0935"><title>2044: 4521168</title></circle>
	<circle cx="528.00" cy="28.66" data-y="4653598" data-x="2045" r="4" fill="#cc0935"><title>2045: 4653598</title></circle>
	<circle cx="545.00" cy="27.03" data-y="4685089" data-x="2046" r="4" fill="#cc0935"><title>2046: 4685089</title></circle>
	<circle cx="562.00" cy="25.59" data-y="4712880" data-x="2047" r="4" fill="#cc0935"><title>2047: 4712880</title></circle>
	<circle cx="579.00" cy="24.29" data-y="4737821" data-x="2048" r="4" fill="#cc0935"><title>2048: 4737821</title></circle>
	<circle cx="596.00" cy="23.11" data-y="4760642" data-x="2049" r="4" fill="#cc0935"><title>2049: 4760642</title></circle>
	<circle cx="613.00" cy="22.01" data-y="4781906" data-x="2050" r="4" fill="#cc0935"><title>2050: 4781906</title></circle>
</g>
</svg>
