<svg width="640" height="320" viewBox="0 0 640 320" xmlns="http://www.w3.org/2000/svg" style="overflow:display" preserveAspectRatio="xMinYMin meet" overflow="visible">
<defs>
	<style>
	.data-series path.line { fill-opacity: 0; }
	.data-series path.line.dotted { stroke-dasharray: 12 20 }
	.data-series circle { display: none; }
	.data-series:hover path.line, .data-series.on path.line { stroke-width: 5; }
	.data-series:hover circle, .data-series.on circle { display: inline; }
	.data-series circle:hover, .data-series circle.on { r: 6px!important; fill: black; }
	.grid { font-family: "Helvetica Neue",Helvetica,Arial,"Lucida Grande",sans-serif; }
	.grid line { stroke: rgb(0,0,0); stroke-width: 2; stroke-linecap: round; }
	.grid.grid-x text { text-anchor: middle; dominant-baseline: hanging; transform: translateY(10px); }
	.grid.grid-y text { text-anchor: end; dominant-baseline: middle; transform: translateX(-10px); }
	</style>
</defs>
<g class="grid grid-y">
	<line x1="50" y1="270" x2="630" y2="270" data-left="50"></line>
	<text x="50" y="270" text-anchor="end">0</text>
	<text x="50" y="198.512510310696" text-anchor="end">1</text>
	<text x="50" y="127.025020621391" text-anchor="end">2</text>
	<text x="50" y="55.5375309320869" text-anchor="end">3</text>
	<text style="text-anchor:middle;dominant-baseline:hanging;font-weight:bold;transform: translateY(140px) rotate(-90deg);">Annual gross peak demand (GW)</text>
</g>
<g class="grid grid-x">
	<line class="tick" x1="50" y1="270" x2="50" y2="275"></line>
	<text x="50" y="270" text-anchor="middle">2020</text>
	<line class="tick" x1="237.096774193548" y1="270" x2="237.096774193548" y2="275"></line>
	<text x="237.096774193548" y="270" text-anchor="middle">2030</text>
	<line class="tick" x1="424.193548387097" y1="270" x2="424.193548387097" y2="275"></line>
	<text x="424.193548387097" y="270" text-anchor="middle">2040</text>
	<line class="tick" x1="611.290322580645" y1="270" x2="611.290322580645" y2="275"></line>
	<text x="611.290322580645" y="270" text-anchor="middle">2050</text>
	<text style="text-anchor:middle;dominant-baseline:hanging;font-weight:bold;transform: translateY(140px) rotate(-90deg);"></text>
</g>
<g data-scenario="domestic" class="data-series">	<path d="M 50.00,77.27L 68.71,85.63L 87.42,87.92L 106.13,89.28L 124.84,90.14L 143.55,91.00L 162.26,91.50L 180.97,91.21L 199.68,90.85L 218.39,90.42L 237.10,90.07L 255.81,89.99L 274.52,89.92L 293.23,89.92L 311.94,89.92L 330.65,89.92L 349.35,89.78L 368.06,89.42L 386.77,89.07L 405.48,88.78L 424.19,88.35L 442.90,87.85L 461.61,87.35L 480.32,86.85L 499.03,86.35L 517.74,85.85L 536.45,85.35L 555.16,84.70L 573.87,83.85L 592.58,82.99L 611.29,81.77" id="Domestic" class="line" stroke="#F1060E" stroke-width="3" stroke-linecap="round"><title>Domestic</title></path>
	<circle cx="50.00" cy="77.27" data-y="2.696 " data-x="2020" r="4" fill="#F1060E"><title>2020: 2.696 </title></circle>
	<circle cx="68.71" cy="85.63" data-y="2.579 " data-x="2021" r="4" fill="#F1060E"><title>2021: 2.579 </title></circle>
	<circle cx="87.42" cy="87.92" data-y="2.547 " data-x="2022" r="4" fill="#F1060E"><title>2022: 2.547 </title></circle>
	<circle cx="106.13" cy="89.28" data-y="2.528 " data-x="2023" r="4" fill="#F1060E"><title>2023: 2.528 </title></circle>
	<circle cx="124.84" cy="90.14" data-y="2.516 " data-x="2024" r="4" fill="#F1060E"><title>2024: 2.516 </title></circle>
	<circle cx="143.55" cy="91.00" data-y="2.504 " data-x="2025" r="4" fill="#F1060E"><title>2025: 2.504 </title></circle>
	<circle cx="162.26" cy="91.50" data-y="2.497 " data-x="2026" r="4" fill="#F1060E"><title>2026: 2.497 </title></circle>
	<circle cx="180.97" cy="91.21" data-y="2.501 " data-x="2027" r="4" fill="#F1060E"><title>2027: 2.501 </title></circle>
	<circle cx="199.68" cy="90.85" data-y="2.506 " data-x="2028" r="4" fill="#F1060E"><title>2028: 2.506 </title></circle>
	<circle cx="218.39" cy="90.42" data-y="2.512 " data-x="2029" r="4" fill="#F1060E"><title>2029: 2.512 </title></circle>
	<circle cx="237.10" cy="90.07" data-y="2.517 " data-x="2030" r="4" fill="#F1060E"><title>2030: 2.517 </title></circle>
	<circle cx="255.81" cy="89.99" data-y="2.518 " data-x="2031" r="4" fill="#F1060E"><title>2031: 2.518 </title></circle>
	<circle cx="274.52" cy="89.92" data-y="2.519 " data-x="2032" r="4" fill="#F1060E"><title>2032: 2.519 </title></circle>
	<circle cx="293.23" cy="89.92" data-y="2.519 " data-x="2033" r="4" fill="#F1060E"><title>2033: 2.519 </title></circle>
	<circle cx="311.94" cy="89.92" data-y="2.519 " data-x="2034" r="4" fill="#F1060E"><title>2034: 2.519 </title></circle>
	<circle cx="330.65" cy="89.92" data-y="2.519 " data-x="2035" r="4" fill="#F1060E"><title>2035: 2.519 </title></circle>
	<circle cx="349.35" cy="89.78" data-y="2.521 " data-x="2036" r="4" fill="#F1060E"><title>2036: 2.521 </title></circle>
	<circle cx="368.06" cy="89.42" data-y="2.526 " data-x="2037" r="4" fill="#F1060E"><title>2037: 2.526 </title></circle>
	<circle cx="386.77" cy="89.07" data-y="2.531 " data-x="2038" r="4" fill="#F1060E"><title>2038: 2.531 </title></circle>
	<circle cx="405.48" cy="88.78" data-y="2.535 " data-x="2039" r="4" fill="#F1060E"><title>2039: 2.535 </title></circle>
	<circle cx="424.19" cy="88.35" data-y="2.541 " data-x="2040" r="4" fill="#F1060E"><title>2040: 2.541 </title></circle>
	<circle cx="442.90" cy="87.85" data-y="2.548 " data-x="2041" r="4" fill="#F1060E"><title>2041: 2.548 </title></circle>
	<circle cx="461.61" cy="87.35" data-y="2.555 " data-x="2042" r="4" fill="#F1060E"><title>2042: 2.555 </title></circle>
	<circle cx="480.32" cy="86.85" data-y="2.562 " data-x="2043" r="4" fill="#F1060E"><title>2043: 2.562 </title></circle>
	<circle cx="499.03" cy="86.35" data-y="2.569 " data-x="2044" r="4" fill="#F1060E"><title>2044: 2.569 </title></circle>
	<circle cx="517.74" cy="85.85" data-y="2.576 " data-x="2045" r="4" fill="#F1060E"><title>2045: 2.576 </title></circle>
	<circle cx="536.45" cy="85.35" data-y="2.583 " data-x="2046" r="4" fill="#F1060E"><title>2046: 2.583 </title></circle>
	<circle cx="555.16" cy="84.70" data-y="2.592 " data-x="2047" r="4" fill="#F1060E"><title>2047: 2.592 </title></circle>
	<circle cx="573.87" cy="83.85" data-y="2.604 " data-x="2048" r="4" fill="#F1060E"><title>2048: 2.604 </title></circle>
	<circle cx="592.58" cy="82.99" data-y="2.616 " data-x="2049" r="4" fill="#F1060E"><title>2049: 2.616 </title></circle>
	<circle cx="611.29" cy="81.77" data-y="2.633 " data-x="2050" r="4" fill="#F1060E"><title>2050: 2.633 </title></circle>
</g>
<g data-scenario="i-and-c" class="data-series">	<path d="M 50.00,10.00L 68.71,12.50L 87.42,14.86L 106.13,17.08L 124.84,19.15L 143.55,21.15L 162.26,23.08L 180.97,24.80L 199.68,26.51L 218.39,28.09L 237.10,29.59L 255.81,30.95L 274.52,32.23L 293.23,33.45L 311.94,34.59L 330.65,35.66L 349.35,36.59L 368.06,37.52L 386.77,38.38L 405.48,39.17L 424.19,39.88L 442.90,40.53L 461.61,41.17L 480.32,41.74L 499.03,42.31L 517.74,42.81L 536.45,43.31L 555.16,43.81L 573.87,44.24L 592.58,44.67L 611.29,45.10" id="I &amp; C" class="line" stroke="#6DC2C7" stroke-width="3" stroke-linecap="round"><title>I &amp; C</title></path>
	<circle cx="50.00" cy="10.00" data-y="3.637 " data-x="2020" r="4" fill="#6DC2C7"><title>2020: 3.637 </title></circle>
	<circle cx="68.71" cy="12.50" data-y="3.602 " data-x="2021" r="4" fill="#6DC2C7"><title>2021: 3.602 </title></circle>
	<circle cx="87.42" cy="14.86" data-y="3.569 " data-x="2022" r="4" fill="#6DC2C7"><title>2022: 3.569 </title></circle>
	<circle cx="106.13" cy="17.08" data-y="3.538 " data-x="2023" r="4" fill="#6DC2C7"><title>2023: 3.538 </title></circle>
	<circle cx="124.84" cy="19.15" data-y="3.509 " data-x="2024" r="4" fill="#6DC2C7"><title>2024: 3.509 </title></circle>
	<circle cx="143.55" cy="21.15" data-y="3.481 " data-x="2025" r="4" fill="#6DC2C7"><title>2025: 3.481 </title></circle>
	<circle cx="162.26" cy="23.08" data-y="3.454 " data-x="2026" r="4" fill="#6DC2C7"><title>2026: 3.454 </title></circle>
	<circle cx="180.97" cy="24.80" data-y="3.430 " data-x="2027" r="4" fill="#6DC2C7"><title>2027: 3.430 </title></circle>
	<circle cx="199.68" cy="26.51" data-y="3.406 " data-x="2028" r="4" fill="#6DC2C7"><title>2028: 3.406 </title></circle>
	<circle cx="218.39" cy="28.09" data-y="3.384 " data-x="2029" r="4" fill="#6DC2C7"><title>2029: 3.384 </title></circle>
	<circle cx="237.10" cy="29.59" data-y="3.363 " data-x="2030" r="4" fill="#6DC2C7"><title>2030: 3.363 </title></circle>
	<circle cx="255.81" cy="30.95" data-y="3.344 " data-x="2031" r="4" fill="#6DC2C7"><title>2031: 3.344 </title></circle>
	<circle cx="274.52" cy="32.23" data-y="3.326 " data-x="2032" r="4" fill="#6DC2C7"><title>2032: 3.326 </title></circle>
	<circle cx="293.23" cy="33.45" data-y="3.309 " data-x="2033" r="4" fill="#6DC2C7"><title>2033: 3.309 </title></circle>
	<circle cx="311.94" cy="34.59" data-y="3.293 " data-x="2034" r="4" fill="#6DC2C7"><title>2034: 3.293 </title></circle>
	<circle cx="330.65" cy="35.66" data-y="3.278 " data-x="2035" r="4" fill="#6DC2C7"><title>2035: 3.278 </title></circle>
	<circle cx="349.35" cy="36.59" data-y="3.265 " data-x="2036" r="4" fill="#6DC2C7"><title>2036: 3.265 </title></circle>
	<circle cx="368.06" cy="37.52" data-y="3.252 " data-x="2037" r="4" fill="#6DC2C7"><title>2037: 3.252 </title></circle>
	<circle cx="386.77" cy="38.38" data-y="3.240 " data-x="2038" r="4" fill="#6DC2C7"><title>2038: 3.240 </title></circle>
	<circle cx="405.48" cy="39.17" data-y="3.229 " data-x="2039" r="4" fill="#6DC2C7"><title>2039: 3.229 </title></circle>
	<circle cx="424.19" cy="39.88" data-y="3.219 " data-x="2040" r="4" fill="#6DC2C7"><title>2040: 3.219 </title></circle>
	<circle cx="442.90" cy="40.53" data-y="3.210 " data-x="2041" r="4" fill="#6DC2C7"><title>2041: 3.210 </title></circle>
	<circle cx="461.61" cy="41.17" data-y="3.201 " data-x="2042" r="4" fill="#6DC2C7"><title>2042: 3.201 </title></circle>
	<circle cx="480.32" cy="41.74" data-y="3.193 " data-x="2043" r="4" fill="#6DC2C7"><title>2043: 3.193 </title></circle>
	<circle cx="499.03" cy="42.31" data-y="3.185 " data-x="2044" r="4" fill="#6DC2C7"><title>2044: 3.185 </title></circle>
	<circle cx="517.74" cy="42.81" data-y="3.178 " data-x="2045" r="4" fill="#6DC2C7"><title>2045: 3.178 </title></circle>
	<circle cx="536.45" cy="43.31" data-y="3.171 " data-x="2046" r="4" fill="#6DC2C7"><title>2046: 3.171 </title></circle>
	<circle cx="555.16" cy="43.81" data-y="3.164 " data-x="2047" r="4" fill="#6DC2C7"><title>2047: 3.164 </title></circle>
	<circle cx="573.87" cy="44.24" data-y="3.158 " data-x="2048" r="4" fill="#6DC2C7"><title>2048: 3.158 </title></circle>
	<circle cx="592.58" cy="44.67" data-y="3.152 " data-x="2049" r="4" fill="#6DC2C7"><title>2049: 3.152 </title></circle>
	<circle cx="611.29" cy="45.10" data-y="3.146 " data-x="2050" r="4" fill="#6DC2C7"><title>2050: 3.146 </title></circle>
</g>
<g data-scenario="heat-pumps---domestic" class="data-series">	<path d="M 50.00,268.50L 68.71,268.14L 87.42,267.71L 106.13,267.14L 124.84,266.50L 143.55,264.35L 162.26,260.78L 180.97,255.92L 199.68,248.84L 218.39,239.47L 237.10,227.39L 255.81,217.46L 274.52,207.59L 293.23,195.51L 311.94,183.07L 330.65,170.20L 349.35,157.84L 368.06,145.68L 386.77,133.60L 405.48,121.66L 424.19,112.23L 442.90,103.01L 461.61,93.71L 480.32,84.56L 499.03,76.77L 517.74,69.12L 536.45,61.61L 555.16,53.82L 573.87,46.32L 592.58,46.60L 611.29,47.17" id="Heat pumps - domestic" class="line" stroke="#2D137F" stroke-width="3" stroke-linecap="round"><title>Heat pumps - domestic</title></path>
	<circle cx="50.00" cy="268.50" data-y="0.021 " data-x="2020" r="4" fill="#2D137F"><title>2020: 0.021 </title></circle>
	<circle cx="68.71" cy="268.14" data-y="0.026 " data-x="2021" r="4" fill="#2D137F"><title>2021: 0.026 </title></circle>
	<circle cx="87.42" cy="267.71" data-y="0.032 " data-x="2022" r="4" fill="#2D137F"><title>2022: 0.032 </title></circle>
	<circle cx="106.13" cy="267.14" data-y="0.040 " data-x="2023" r="4" fill="#2D137F"><title>2023: 0.040 </title></circle>
	<circle cx="124.84" cy="266.50" data-y="0.049 " data-x="2024" r="4" fill="#2D137F"><title>2024: 0.049 </title></circle>
	<circle cx="143.55" cy="264.35" data-y="0.079 " data-x="2025" r="4" fill="#2D137F"><title>2025: 0.079 </title></circle>
	<circle cx="162.26" cy="260.78" data-y="0.129 " data-x="2026" r="4" fill="#2D137F"><title>2026: 0.129 </title></circle>
	<circle cx="180.97" cy="255.92" data-y="0.197 " data-x="2027" r="4" fill="#2D137F"><title>2027: 0.197 </title></circle>
	<circle cx="199.68" cy="248.84" data-y="0.296 " data-x="2028" r="4" fill="#2D137F"><title>2028: 0.296 </title></circle>
	<circle cx="218.39" cy="239.47" data-y="0.427 " data-x="2029" r="4" fill="#2D137F"><title>2029: 0.427 </title></circle>
	<circle cx="237.10" cy="227.39" data-y="0.596 " data-x="2030" r="4" fill="#2D137F"><title>2030: 0.596 </title></circle>
	<circle cx="255.81" cy="217.46" data-y="0.735 " data-x="2031" r="4" fill="#2D137F"><title>2031: 0.735 </title></circle>
	<circle cx="274.52" cy="207.59" data-y="0.873 " data-x="2032" r="4" fill="#2D137F"><title>2032: 0.873 </title></circle>
	<circle cx="293.23" cy="195.51" data-y="1.042 " data-x="2033" r="4" fill="#2D137F"><title>2033: 1.042 </title></circle>
	<circle cx="311.94" cy="183.07" data-y="1.216 " data-x="2034" r="4" fill="#2D137F"><title>2034: 1.216 </title></circle>
	<circle cx="330.65" cy="170.20" data-y="1.396 " data-x="2035" r="4" fill="#2D137F"><title>2035: 1.396 </title></circle>
	<circle cx="349.35" cy="157.84" data-y="1.569 " data-x="2036" r="4" fill="#2D137F"><title>2036: 1.569 </title></circle>
	<circle cx="368.06" cy="145.68" data-y="1.739 " data-x="2037" r="4" fill="#2D137F"><title>2037: 1.739 </title></circle>
	<circle cx="386.77" cy="133.60" data-y="1.908 " data-x="2038" r="4" fill="#2D137F"><title>2038: 1.908 </title></circle>
	<circle cx="405.48" cy="121.66" data-y="2.075 " data-x="2039" r="4" fill="#2D137F"><title>2039: 2.075 </title></circle>
	<circle cx="424.19" cy="112.23" data-y="2.207 " data-x="2040" r="4" fill="#2D137F"><title>2040: 2.207 </title></circle>
	<circle cx="442.90" cy="103.01" data-y="2.336 " data-x="2041" r="4" fill="#2D137F"><title>2041: 2.336 </title></circle>
	<circle cx="461.61" cy="93.71" data-y="2.466 " data-x="2042" r="4" fill="#2D137F"><title>2042: 2.466 </title></circle>
	<circle cx="480.32" cy="84.56" data-y="2.594 " data-x="2043" r="4" fill="#2D137F"><title>2043: 2.594 </title></circle>
	<circle cx="499.03" cy="76.77" data-y="2.703 " data-x="2044" r="4" fill="#2D137F"><title>2044: 2.703 </title></circle>
	<circle cx="517.74" cy="69.12" data-y="2.810 " data-x="2045" r="4" fill="#2D137F"><title>2045: 2.810 </title></circle>
	<circle cx="536.45" cy="61.61" data-y="2.915 " data-x="2046" r="4" fill="#2D137F"><title>2046: 2.915 </title></circle>
	<circle cx="555.16" cy="53.82" data-y="3.024 " data-x="2047" r="4" fill="#2D137F"><title>2047: 3.024 </title></circle>
	<circle cx="573.87" cy="46.32" data-y="3.129 " data-x="2048" r="4" fill="#2D137F"><title>2048: 3.129 </title></circle>
	<circle cx="592.58" cy="46.60" data-y="3.125 " data-x="2049" r="4" fill="#2D137F"><title>2049: 3.125 </title></circle>
	<circle cx="611.29" cy="47.17" data-y="3.117 " data-x="2050" r="4" fill="#2D137F"><title>2050: 3.117 </title></circle>
</g>
<g data-scenario="heat-pumps---i-and-c" class="data-series">	<path d="M 50.00,266.71L 68.71,266.71L 87.42,266.71L 106.13,266.43L 124.84,265.85L 143.55,265.28L 162.26,264.57L 180.97,263.78L 199.68,262.99L 218.39,261.64L 237.10,260.21L 255.81,258.42L 274.52,256.99L 293.23,255.20L 311.94,253.56L 330.65,251.84L 349.35,250.13L 368.06,247.84L 386.77,245.19L 405.48,242.26L 424.19,239.69L 442.90,237.26L 461.61,234.54L 480.32,231.68L 499.03,228.82L 517.74,225.82L 536.45,222.75L 555.16,219.67L 573.87,216.88L 592.58,215.03L 611.29,214.10" id="Heat pumps - I &amp; C" class="line" stroke="#cc0935" stroke-width="3" stroke-linecap="round"><title>Heat pumps - I &amp; C</title></path>
	<circle cx="50.00" cy="266.71" data-y="0.046 " data-x="2020" r="4" fill="#cc0935"><title>2020: 0.046 </title></circle>
	<circle cx="68.71" cy="266.71" data-y="0.046 " data-x="2021" r="4" fill="#cc0935"><title>2021: 0.046 </title></circle>
	<circle cx="87.42" cy="266.71" data-y="0.046 " data-x="2022" r="4" fill="#cc0935"><title>2022: 0.046 </title></circle>
	<circle cx="106.13" cy="266.43" data-y="0.050 " data-x="2023" r="4" fill="#cc0935"><title>2023: 0.050 </title></circle>
	<circle cx="124.84" cy="265.85" data-y="0.058 " data-x="2024" r="4" fill="#cc0935"><title>2024: 0.058 </title></circle>
	<circle cx="143.55" cy="265.28" data-y="0.066 " data-x="2025" r="4" fill="#cc0935"><title>2025: 0.066 </title></circle>
	<circle cx="162.26" cy="264.57" data-y="0.076 " data-x="2026" r="4" fill="#cc0935"><title>2026: 0.076 </title></circle>
	<circle cx="180.97" cy="263.78" data-y="0.087 " data-x="2027" r="4" fill="#cc0935"><title>2027: 0.087 </title></circle>
	<circle cx="199.68" cy="262.99" data-y="0.098 " data-x="2028" r="4" fill="#cc0935"><title>2028: 0.098 </title></circle>
	<circle cx="218.39" cy="261.64" data-y="0.117 " data-x="2029" r="4" fill="#cc0935"><title>2029: 0.117 </title></circle>
	<circle cx="237.10" cy="260.21" data-y="0.137 " data-x="2030" r="4" fill="#cc0935"><title>2030: 0.137 </title></circle>
	<circle cx="255.81" cy="258.42" data-y="0.162 " data-x="2031" r="4" fill="#cc0935"><title>2031: 0.162 </title></circle>
	<circle cx="274.52" cy="256.99" data-y="0.182 " data-x="2032" r="4" fill="#cc0935"><title>2032: 0.182 </title></circle>
	<circle cx="293.23" cy="255.20" data-y="0.207 " data-x="2033" r="4" fill="#cc0935"><title>2033: 0.207 </title></circle>
	<circle cx="311.94" cy="253.56" data-y="0.230 " data-x="2034" r="4" fill="#cc0935"><title>2034: 0.230 </title></circle>
	<circle cx="330.65" cy="251.84" data-y="0.254 " data-x="2035" r="4" fill="#cc0935"><title>2035: 0.254 </title></circle>
	<circle cx="349.35" cy="250.13" data-y="0.278 " data-x="2036" r="4" fill="#cc0935"><title>2036: 0.278 </title></circle>
	<circle cx="368.06" cy="247.84" data-y="0.310 " data-x="2037" r="4" fill="#cc0935"><title>2037: 0.310 </title></circle>
	<circle cx="386.77" cy="245.19" data-y="0.347 " data-x="2038" r="4" fill="#cc0935"><title>2038: 0.347 </title></circle>
	<circle cx="405.48" cy="242.26" data-y="0.388 " data-x="2039" r="4" fill="#cc0935"><title>2039: 0.388 </title></circle>
	<circle cx="424.19" cy="239.69" data-y="0.424 " data-x="2040" r="4" fill="#cc0935"><title>2040: 0.424 </title></circle>
	<circle cx="442.90" cy="237.26" data-y="0.458 " data-x="2041" r="4" fill="#cc0935"><title>2041: 0.458 </title></circle>
	<circle cx="461.61" cy="234.54" data-y="0.496 " data-x="2042" r="4" fill="#cc0935"><title>2042: 0.496 </title></circle>
	<circle cx="480.32" cy="231.68" data-y="0.536 " data-x="2043" r="4" fill="#cc0935"><title>2043: 0.536 </title></circle>
	<circle cx="499.03" cy="228.82" data-y="0.576 " data-x="2044" r="4" fill="#cc0935"><title>2044: 0.576 </title></circle>
	<circle cx="517.74" cy="225.82" data-y="0.618 " data-x="2045" r="4" fill="#cc0935"><title>2045: 0.618 </title></circle>
	<circle cx="536.45" cy="222.75" data-y="0.661 " data-x="2046" r="4" fill="#cc0935"><title>2046: 0.661 </title></circle>
	<circle cx="555.16" cy="219.67" data-y="0.704 " data-x="2047" r="4" fill="#cc0935"><title>2047: 0.704 </title></circle>
	<circle cx="573.87" cy="216.88" data-y="0.743 " data-x="2048" r="4" fill="#cc0935"><title>2048: 0.743 </title></circle>
	<circle cx="592.58" cy="215.03" data-y="0.769 " data-x="2049" r="4" fill="#cc0935"><title>2049: 0.769 </title></circle>
	<circle cx="611.29" cy="214.10" data-y="0.782 " data-x="2050" r="4" fill="#cc0935"><title>2050: 0.782 </title></circle>
</g>
<g data-scenario="ev" class="data-series">	<path d="M 50.00,268.50L 68.71,267.57L 87.42,265.64L 106.13,261.14L 124.84,254.99L 143.55,247.77L 162.26,240.12L 180.97,231.40L 199.68,221.03L 218.39,209.66L 237.10,194.51L 255.81,180.64L 274.52,167.63L 293.23,154.33L 311.94,141.68L 330.65,124.81L 349.35,109.80L 368.06,99.43L 386.77,90.28L 405.48,83.13L 424.19,76.98L 442.90,73.27L 461.61,70.41L 480.32,68.48L 499.03,67.19L 517.74,66.62L 536.45,66.62L 555.16,66.90L 573.87,67.48L 592.58,68.33L 611.29,69.26" id="EV" class="line" stroke="#45D526" stroke-width="3" stroke-linecap="round"><title>EV</title></path>
	<circle cx="50.00" cy="268.50" data-y="0.021 " data-x="2020" r="4" fill="#45D526"><title>2020: 0.021 </title></circle>
	<circle cx="68.71" cy="267.57" data-y="0.034 " data-x="2021" r="4" fill="#45D526"><title>2021: 0.034 </title></circle>
	<circle cx="87.42" cy="265.64" data-y="0.061 " data-x="2022" r="4" fill="#45D526"><title>2022: 0.061 </title></circle>
	<circle cx="106.13" cy="261.14" data-y="0.124 " data-x="2023" r="4" fill="#45D526"><title>2023: 0.124 </title></circle>
	<circle cx="124.84" cy="254.99" data-y="0.210 " data-x="2024" r="4" fill="#45D526"><title>2024: 0.210 </title></circle>
	<circle cx="143.55" cy="247.77" data-y="0.311 " data-x="2025" r="4" fill="#45D526"><title>2025: 0.311 </title></circle>
	<circle cx="162.26" cy="240.12" data-y="0.418 " data-x="2026" r="4" fill="#45D526"><title>2026: 0.418 </title></circle>
	<circle cx="180.97" cy="231.40" data-y="0.540 " data-x="2027" r="4" fill="#45D526"><title>2027: 0.540 </title></circle>
	<circle cx="199.68" cy="221.03" data-y="0.685 " data-x="2028" r="4" fill="#45D526"><title>2028: 0.685 </title></circle>
	<circle cx="218.39" cy="209.66" data-y="0.844 " data-x="2029" r="4" fill="#45D526"><title>2029: 0.844 </title></circle>
	<circle cx="237.10" cy="194.51" data-y="1.056 " data-x="2030" r="4" fill="#45D526"><title>2030: 1.056 </title></circle>
	<circle cx="255.81" cy="180.64" data-y="1.250 " data-x="2031" r="4" fill="#45D526"><title>2031: 1.250 </title></circle>
	<circle cx="274.52" cy="167.63" data-y="1.432 " data-x="2032" r="4" fill="#45D526"><title>2032: 1.432 </title></circle>
	<circle cx="293.23" cy="154.33" data-y="1.618 " data-x="2033" r="4" fill="#45D526"><title>2033: 1.618 </title></circle>
	<circle cx="311.94" cy="141.68" data-y="1.795 " data-x="2034" r="4" fill="#45D526"><title>2034: 1.795 </title></circle>
	<circle cx="330.65" cy="124.81" data-y="2.031 " data-x="2035" r="4" fill="#45D526"><title>2035: 2.031 </title></circle>
	<circle cx="349.35" cy="109.80" data-y="2.241 " data-x="2036" r="4" fill="#45D526"><title>2036: 2.241 </title></circle>
	<circle cx="368.06" cy="99.43" data-y="2.386 " data-x="2037" r="4" fill="#45D526"><title>2037: 2.386 </title></circle>
	<circle cx="386.77" cy="90.28" data-y="2.514 " data-x="2038" r="4" fill="#45D526"><title>2038: 2.514 </title></circle>
	<circle cx="405.48" cy="83.13" data-y="2.614 " data-x="2039" r="4" fill="#45D526"><title>2039: 2.614 </title></circle>
	<circle cx="424.19" cy="76.98" data-y="2.700 " data-x="2040" r="4" fill="#45D526"><title>2040: 2.700 </title></circle>
	<circle cx="442.90" cy="73.27" data-y="2.752 " data-x="2041" r="4" fill="#45D526"><title>2041: 2.752 </title></circle>
	<circle cx="461.61" cy="70.41" data-y="2.792 " data-x="2042" r="4" fill="#45D526"><title>2042: 2.792 </title></circle>
	<circle cx="480.32" cy="68.48" data-y="2.819 " data-x="2043" r="4" fill="#45D526"><title>2043: 2.819 </title></circle>
	<circle cx="499.03" cy="67.19" data-y="2.837 " data-x="2044" r="4" fill="#45D526"><title>2044: 2.837 </title></circle>
	<circle cx="517.74" cy="66.62" data-y="2.845 " data-x="2045" r="4" fill="#45D526"><title>2045: 2.845 </title></circle>
	<circle cx="536.45" cy="66.62" data-y="2.845 " data-x="2046" r="4" fill="#45D526"><title>2046: 2.845 </title></circle>
	<circle cx="555.16" cy="66.90" data-y="2.841 " data-x="2047" r="4" fill="#45D526"><title>2047: 2.841 </title></circle>
	<circle cx="573.87" cy="67.48" data-y="2.833 " data-x="2048" r="4" fill="#45D526"><title>2048: 2.833 </title></circle>
	<circle cx="592.58" cy="68.33" data-y="2.821 " data-x="2049" r="4" fill="#45D526"><title>2049: 2.821 </title></circle>
	<circle cx="611.29" cy="69.26" data-y="2.808 " data-x="2050" r="4" fill="#45D526"><title>2050: 2.808 </title></circle>
</g>
</svg>
