<svg width="640" height="320" viewBox="0 0 640 320" xmlns="http://www.w3.org/2000/svg" style="overflow:display" preserveAspectRatio="xMinYMin meet" overflow="visible">
<defs>
	<style>
	.data-series path.line { fill-opacity: 0; }
	.data-series path.line.dotted { stroke-dasharray: 12 20 }
	.data-series circle { display: none; }
	.data-series:hover path.line, .data-series.on path.line { stroke-width: 5; }
	.data-series:hover circle, .data-series.on circle { display: inline; }
	.data-series circle:hover, .data-series circle.on { r: 6px!important; fill: black; }
	.grid { font-family: "Helvetica Neue",Helvetica,Arial,"Lucida Grande",sans-serif; }
	.grid line { stroke: rgb(0,0,0); stroke-width: 2; stroke-linecap: round; }
	.grid.grid-x text { text-anchor: middle; dominant-baseline: hanging; transform: translateY(10px); }
	.grid.grid-y text { text-anchor: end; dominant-baseline: middle; transform: translateX(-10px); }
	</style>
</defs>
<g class="grid grid-y">
	<line x1="50" y1="270" x2="630" y2="270" data-left="50"></line>
	<text x="50" y="270" text-anchor="end">0</text>
	<text x="50" y="175.907740718728" text-anchor="end">5</text>
	<text x="50" y="81.8154814374552" text-anchor="end">10</text>
	<text style="text-anchor:middle;dominant-baseline:hanging;font-weight:bold;transform: translateY(140px) rotate(-90deg);">Renewable generation (GW)</text>
</g>
<g class="grid grid-x">
	<line class="tick" x1="224" y1="270" x2="224" y2="275"></line>
	<text x="224" y="270" text-anchor="middle">2030</text>
	<line class="tick" x1="417.333333333333" y1="270" x2="417.333333333333" y2="275"></line>
	<text x="417.333333333333" y="270" text-anchor="middle">2040</text>
	<line class="tick" x1="610.666666666667" y1="270" x2="610.666666666667" y2="275"></line>
	<text x="610.666666666667" y="270" text-anchor="middle">2050</text>
	<text style="text-anchor:middle;dominant-baseline:hanging;font-weight:bold;transform: translateY(140px) rotate(-90deg);"></text>
</g>
<g data-scenario="consumer-transformation" class="data-series">	<path d="M 50.00,213.39L 69.33,203.85L 88.67,201.87L 108.00,198.25L 127.33,192.59L 146.67,186.73L 166.00,180.77L 185.33,174.28L 204.67,167.45L 224.00,159.78L 243.33,151.63L 262.67,143.49L 282.00,135.42L 301.33,126.69L 320.67,118.47L 340.00,110.37L 359.33,102.76L 378.67,94.90L 398.00,86.61L 417.33,77.56L 436.67,68.61L 456.00,59.63L 475.33,50.63L 494.67,42.56L 514.00,34.54L 533.33,28.57L 552.67,23.92L 572.00,19.28L 591.33,14.68L 610.67,10.00" id="Consumer Transformation" class="line" stroke="#cc0935" stroke-width="3" stroke-linecap="round"><title>Consumer Transformation</title></path>
	<circle cx="50.00" cy="213.39" data-y="3.00796539" data-x="2021" r="4" fill="#cc0935"><title>2021: 3.00796539</title></circle>
	<circle cx="69.33" cy="203.85" data-y="3.515046037" data-x="2022" r="4" fill="#cc0935"><title>2022: 3.515046037</title></circle>
	<circle cx="88.67" cy="201.87" data-y="3.620449781" data-x="2023" r="4" fill="#cc0935"><title>2023: 3.620449781</title></circle>
	<circle cx="108.00" cy="198.25" data-y="3.812749717" data-x="2024" r="4" fill="#cc0935"><title>2024: 3.812749717</title></circle>
	<circle cx="127.33" cy="192.59" data-y="4.113260806" data-x="2025" r="4" fill="#cc0935"><title>2025: 4.113260806</title></circle>
	<circle cx="146.67" cy="186.73" data-y="4.424899953" data-x="2026" r="4" fill="#cc0935"><title>2026: 4.424899953</title></circle>
	<circle cx="166.00" cy="180.77" data-y="4.741723296" data-x="2027" r="4" fill="#cc0935"><title>2027: 4.741723296</title></circle>
	<circle cx="185.33" cy="174.28" data-y="5.086592741" data-x="2028" r="4" fill="#cc0935"><title>2028: 5.086592741</title></circle>
	<circle cx="204.67" cy="167.45" data-y="5.449696004" data-x="2029" r="4" fill="#cc0935"><title>2029: 5.449696004</title></circle>
	<circle cx="224.00" cy="159.78" data-y="5.857079922" data-x="2030" r="4" fill="#cc0935"><title>2030: 5.857079922</title></circle>
	<circle cx="243.33" cy="151.63" data-y="6.289918816" data-x="2031" r="4" fill="#cc0935"><title>2031: 6.289918816</title></circle>
	<circle cx="262.67" cy="143.49" data-y="6.722737566" data-x="2032" r="4" fill="#cc0935"><title>2032: 6.722737566</title></circle>
	<circle cx="282.00" cy="135.42" data-y="7.151230128" data-x="2033" r="4" fill="#cc0935"><title>2033: 7.151230128</title></circle>
	<circle cx="301.33" cy="126.69" data-y="7.615143071" data-x="2034" r="4" fill="#cc0935"><title>2034: 7.615143071</title></circle>
	<circle cx="320.67" cy="118.47" data-y="8.052239374" data-x="2035" r="4" fill="#cc0935"><title>2035: 8.052239374</title></circle>
	<circle cx="340.00" cy="110.37" data-y="8.482382009" data-x="2036" r="4" fill="#cc0935"><title>2036: 8.482382009</title></circle>
	<circle cx="359.33" cy="102.76" data-y="8.886782431" data-x="2037" r="4" fill="#cc0935"><title>2037: 8.886782431</title></circle>
	<circle cx="378.67" cy="94.90" data-y="9.304898184" data-x="2038" r="4" fill="#cc0935"><title>2038: 9.304898184</title></circle>
	<circle cx="398.00" cy="86.61" data-y="9.744981658" data-x="2039" r="4" fill="#cc0935"><title>2039: 9.744981658</title></circle>
	<circle cx="417.33" cy="77.56" data-y="10.22599253" data-x="2040" r="4" fill="#cc0935"><title>2040: 10.22599253</title></circle>
	<circle cx="436.67" cy="68.61" data-y="10.70163214" data-x="2041" r="4" fill="#cc0935"><title>2041: 10.70163214</title></circle>
	<circle cx="456.00" cy="59.63" data-y="11.1788584" data-x="2042" r="4" fill="#cc0935"><title>2042: 11.1788584</title></circle>
	<circle cx="475.33" cy="50.63" data-y="11.6571057" data-x="2043" r="4" fill="#cc0935"><title>2043: 11.6571057</title></circle>
	<circle cx="494.67" cy="42.56" data-y="12.08604521" data-x="2044" r="4" fill="#cc0935"><title>2044: 12.08604521</title></circle>
	<circle cx="514.00" cy="34.54" data-y="12.51234436" data-x="2045" r="4" fill="#cc0935"><title>2045: 12.51234436</title></circle>
	<circle cx="533.33" cy="28.57" data-y="12.82961039" data-x="2046" r="4" fill="#cc0935"><title>2046: 12.82961039</title></circle>
	<circle cx="552.67" cy="23.92" data-y="13.07648385" data-x="2047" r="4" fill="#cc0935"><title>2047: 13.07648385</title></circle>
	<circle cx="572.00" cy="19.28" data-y="13.3231861" data-x="2048" r="4" fill="#cc0935"><title>2048: 13.3231861</title></circle>
	<circle cx="591.33" cy="14.68" data-y="13.5674299" data-x="2049" r="4" fill="#cc0935"><title>2049: 13.5674299</title></circle>
	<circle cx="610.67" cy="10.00" data-y="13.81622686" data-x="2050" r="4" fill="#cc0935"><title>2050: 13.81622686</title></circle>
</g>
<g data-scenario="system-transformation" class="data-series">	<path d="M 50.00,213.41L 69.33,204.50L 88.67,203.40L 108.00,201.74L 127.33,199.57L 146.67,197.06L 166.00,194.23L 185.33,191.18L 204.67,187.90L 224.00,183.61L 243.33,178.96L 262.67,174.17L 282.00,169.62L 301.33,164.60L 320.67,160.49L 340.00,157.13L 359.33,154.49L 378.67,151.84L 398.00,149.04L 417.33,145.52L 436.67,142.00L 456.00,138.49L 475.33,134.97L 494.67,131.73L 514.00,128.48L 533.33,125.22L 552.67,121.95L 572.00,118.68L 591.33,115.40L 610.67,111.71" id="System Transformation" class="line" stroke="#cc0935" stroke-width="3" stroke-linecap="round"><title>System Transformation</title></path>
	<circle cx="50.00" cy="213.41" data-y="3.006892389" data-x="2021" r="4" fill="#cc0935"><title>2021: 3.006892389</title></circle>
	<circle cx="69.33" cy="204.50" data-y="3.480425107" data-x="2022" r="4" fill="#cc0935"><title>2022: 3.480425107</title></circle>
	<circle cx="88.67" cy="203.40" data-y="3.538991447" data-x="2023" r="4" fill="#cc0935"><title>2023: 3.538991447</title></circle>
	<circle cx="108.00" cy="201.74" data-y="3.627071692" data-x="2024" r="4" fill="#cc0935"><title>2024: 3.627071692</title></circle>
	<circle cx="127.33" cy="199.57" data-y="3.742744082" data-x="2025" r="4" fill="#cc0935"><title>2025: 3.742744082</title></circle>
	<circle cx="146.67" cy="197.06" data-y="3.875949124" data-x="2026" r="4" fill="#cc0935"><title>2026: 3.875949124</title></circle>
	<circle cx="166.00" cy="194.23" data-y="4.026318959" data-x="2027" r="4" fill="#cc0935"><title>2027: 4.026318959</title></circle>
	<circle cx="185.33" cy="191.18" data-y="4.188621119" data-x="2028" r="4" fill="#cc0935"><title>2028: 4.188621119</title></circle>
	<circle cx="204.67" cy="187.90" data-y="4.362636377" data-x="2029" r="4" fill="#cc0935"><title>2029: 4.362636377</title></circle>
	<circle cx="224.00" cy="183.61" data-y="4.590609604" data-x="2030" r="4" fill="#cc0935"><title>2030: 4.590609604</title></circle>
	<circle cx="243.33" cy="178.96" data-y="4.83776166" data-x="2031" r="4" fill="#cc0935"><title>2031: 4.83776166</title></circle>
	<circle cx="262.67" cy="174.17" data-y="5.092561266" data-x="2032" r="4" fill="#cc0935"><title>2032: 5.092561266</title></circle>
	<circle cx="282.00" cy="169.62" data-y="5.333905021" data-x="2033" r="4" fill="#cc0935"><title>2033: 5.333905021</title></circle>
	<circle cx="301.33" cy="164.60" data-y="5.600930061" data-x="2034" r="4" fill="#cc0935"><title>2034: 5.600930061</title></circle>
	<circle cx="320.67" cy="160.49" data-y="5.819225774" data-x="2035" r="4" fill="#cc0935"><title>2035: 5.819225774</title></circle>
	<circle cx="340.00" cy="157.13" data-y="5.997879065" data-x="2036" r="4" fill="#cc0935"><title>2036: 5.997879065</title></circle>
	<circle cx="359.33" cy="154.49" data-y="6.138315011" data-x="2037" r="4" fill="#cc0935"><title>2037: 6.138315011</title></circle>
	<circle cx="378.67" cy="151.84" data-y="6.279131675" data-x="2038" r="4" fill="#cc0935"><title>2038: 6.279131675</title></circle>
	<circle cx="398.00" cy="149.04" data-y="6.427808931" data-x="2039" r="4" fill="#cc0935"><title>2039: 6.427808931</title></circle>
	<circle cx="417.33" cy="145.52" data-y="6.614619443" data-x="2040" r="4" fill="#cc0935"><title>2040: 6.614619443</title></circle>
	<circle cx="436.67" cy="142.00" data-y="6.801700172" data-x="2041" r="4" fill="#cc0935"><title>2041: 6.801700172</title></circle>
	<circle cx="456.00" cy="138.49" data-y="6.988492539" data-x="2042" r="4" fill="#cc0935"><title>2042: 6.988492539</title></circle>
	<circle cx="475.33" cy="134.97" data-y="7.175513172" data-x="2043" r="4" fill="#cc0935"><title>2043: 7.175513172</title></circle>
	<circle cx="494.67" cy="131.73" data-y="7.347801251" data-x="2044" r="4" fill="#cc0935"><title>2044: 7.347801251</title></circle>
	<circle cx="514.00" cy="128.48" data-y="7.520442856" data-x="2045" r="4" fill="#cc0935"><title>2045: 7.520442856</title></circle>
	<circle cx="533.33" cy="125.22" data-y="7.693573928" data-x="2046" r="4" fill="#cc0935"><title>2046: 7.693573928</title></circle>
	<circle cx="552.67" cy="121.95" data-y="7.867082712" data-x="2047" r="4" fill="#cc0935"><title>2047: 7.867082712</title></circle>
	<circle cx="572.00" cy="118.68" data-y="8.04098553" data-x="2048" r="4" fill="#cc0935"><title>2048: 8.04098553</title></circle>
	<circle cx="591.33" cy="115.40" data-y="8.215291964" data-x="2049" r="4" fill="#cc0935"><title>2049: 8.215291964</title></circle>
	<circle cx="610.67" cy="111.71" data-y="8.41155267" data-x="2050" r="4" fill="#cc0935"><title>2050: 8.41155267</title></circle>
</g>
<g data-scenario="leading-the-way" class="data-series">	<path d="M 50.00,213.41L 69.33,203.49L 88.67,200.86L 108.00,195.92L 127.33,189.17L 146.67,182.27L 166.00,175.30L 185.33,168.14L 204.67,160.91L 224.00,153.23L 243.33,144.79L 262.67,135.97L 282.00,127.31L 301.33,118.86L 320.67,111.06L 340.00,104.00L 359.33,97.38L 378.67,90.77L 398.00,82.95L 417.33,74.39L 436.67,66.01L 456.00,57.47L 475.33,48.92L 494.67,42.20L 514.00,36.21L 533.33,31.53L 552.67,27.71L 572.00,23.88L 591.33,20.08L 610.67,15.97" id="Leading The Way" class="line" stroke="#cc0935" stroke-width="3" stroke-linecap="round"><title>Leading The Way</title></path>
	<circle cx="50.00" cy="213.41" data-y="3.007160639" data-x="2021" r="4" fill="#cc0935"><title>2021: 3.007160639</title></circle>
	<circle cx="69.33" cy="203.49" data-y="3.534318448" data-x="2022" r="4" fill="#cc0935"><title>2022: 3.534318448</title></circle>
	<circle cx="88.67" cy="200.86" data-y="3.674195275" data-x="2023" r="4" fill="#cc0935"><title>2023: 3.674195275</title></circle>
	<circle cx="108.00" cy="195.92" data-y="3.936792612" data-x="2024" r="4" fill="#cc0935"><title>2024: 3.936792612</title></circle>
	<circle cx="127.33" cy="189.17" data-y="4.295294965" data-x="2025" r="4" fill="#cc0935"><title>2025: 4.295294965</title></circle>
	<circle cx="146.67" cy="182.27" data-y="4.662127581" data-x="2026" r="4" fill="#cc0935"><title>2026: 4.662127581</title></circle>
	<circle cx="166.00" cy="175.30" data-y="5.032440115" data-x="2027" r="4" fill="#cc0935"><title>2027: 5.032440115</title></circle>
	<circle cx="185.33" cy="168.14" data-y="5.412967098" data-x="2028" r="4" fill="#cc0935"><title>2028: 5.412967098</title></circle>
	<circle cx="204.67" cy="160.91" data-y="5.796951484" data-x="2029" r="4" fill="#cc0935"><title>2029: 5.796951484</title></circle>
	<circle cx="224.00" cy="153.23" data-y="6.205018195" data-x="2030" r="4" fill="#cc0935"><title>2030: 6.205018195</title></circle>
	<circle cx="243.33" cy="144.79" data-y="6.653679571" data-x="2031" r="4" fill="#cc0935"><title>2031: 6.653679571</title></circle>
	<circle cx="262.67" cy="135.97" data-y="7.122341404" data-x="2032" r="4" fill="#cc0935"><title>2032: 7.122341404</title></circle>
	<circle cx="282.00" cy="127.31" data-y="7.582374158" data-x="2033" r="4" fill="#cc0935"><title>2033: 7.582374158</title></circle>
	<circle cx="301.33" cy="118.86" data-y="8.031265393" data-x="2034" r="4" fill="#cc0935"><title>2034: 8.031265393</title></circle>
	<circle cx="320.67" cy="111.06" data-y="8.44586419" data-x="2035" r="4" fill="#cc0935"><title>2035: 8.44586419</title></circle>
	<circle cx="340.00" cy="104.00" data-y="8.821226342" data-x="2036" r="4" fill="#cc0935"><title>2036: 8.821226342</title></circle>
	<circle cx="359.33" cy="97.38" data-y="9.172680658" data-x="2037" r="4" fill="#cc0935"><title>2037: 9.172680658</title></circle>
	<circle cx="378.67" cy="90.77" data-y="9.524046339" data-x="2038" r="4" fill="#cc0935"><title>2038: 9.524046339</title></circle>
	<circle cx="398.00" cy="82.95" data-y="9.939541117" data-x="2039" r="4" fill="#cc0935"><title>2039: 9.939541117</title></circle>
	<circle cx="417.33" cy="74.39" data-y="10.39480189" data-x="2040" r="4" fill="#cc0935"><title>2040: 10.39480189</title></circle>
	<circle cx="436.67" cy="66.01" data-y="10.83986076" data-x="2041" r="4" fill="#cc0935"><title>2041: 10.83986076</title></circle>
	<circle cx="456.00" cy="57.47" data-y="11.29389067" data-x="2042" r="4" fill="#cc0935"><title>2042: 11.29389067</title></circle>
	<circle cx="475.33" cy="48.92" data-y="11.74829516" data-x="2043" r="4" fill="#cc0935"><title>2043: 11.74829516</title></circle>
	<circle cx="494.67" cy="42.20" data-y="12.10540268" data-x="2044" r="4" fill="#cc0935"><title>2044: 12.10540268</title></circle>
	<circle cx="514.00" cy="36.21" data-y="12.42368884" data-x="2045" r="4" fill="#cc0935"><title>2045: 12.42368884</title></circle>
	<circle cx="533.33" cy="31.53" data-y="12.67192048" data-x="2046" r="4" fill="#cc0935"><title>2046: 12.67192048</title></circle>
	<circle cx="552.67" cy="27.71" data-y="12.87504101" data-x="2047" r="4" fill="#cc0935"><title>2047: 12.87504101</title></circle>
	<circle cx="572.00" cy="23.88" data-y="13.07850069" data-x="2048" r="4" fill="#cc0935"><title>2048: 13.07850069</title></circle>
	<circle cx="591.33" cy="20.08" data-y="13.28082034" data-x="2049" r="4" fill="#cc0935"><title>2049: 13.28082034</title></circle>
	<circle cx="610.67" cy="15.97" data-y="13.49899907" data-x="2050" r="4" fill="#cc0935"><title>2050: 13.49899907</title></circle>
</g>
<g data-scenario="planning-scenario" class="data-series">	<path d="M 50.00,213.41L 69.33,203.49L 88.67,200.86L 108.00,195.92L 127.33,189.17L 146.67,182.27L 166.00,175.30L 185.33,168.14L 204.67,160.91L 224.00,153.23L 243.33,144.79L 262.67,135.97L 282.00,127.31L 301.33,118.86L 320.67,111.06L 340.00,104.00L 359.33,97.38L 378.67,90.77L 398.00,82.95L 417.33,74.39L 436.67,66.01L 456.00,57.47L 475.33,48.92L 494.67,42.20L 514.00,36.21L 533.33,31.53L 552.67,27.71L 572.00,23.88L 591.33,20.08L 610.67,15.97" id="NPg Planning Scenario" class="line" stroke="#ab1236" stroke-width="3" stroke-linecap="round"><title>NPg Planning Scenario</title></path>
	<circle cx="50.00" cy="213.41" data-y="3.007160639" data-x="2021" r="4" fill="#ab1236"><title>2021: 3.007160639</title></circle>
	<circle cx="69.33" cy="203.49" data-y="3.534318448" data-x="2022" r="4" fill="#ab1236"><title>2022: 3.534318448</title></circle>
	<circle cx="88.67" cy="200.86" data-y="3.674195275" data-x="2023" r="4" fill="#ab1236"><title>2023: 3.674195275</title></circle>
	<circle cx="108.00" cy="195.92" data-y="3.936792612" data-x="2024" r="4" fill="#ab1236"><title>2024: 3.936792612</title></circle>
	<circle cx="127.33" cy="189.17" data-y="4.295294965" data-x="2025" r="4" fill="#ab1236"><title>2025: 4.295294965</title></circle>
	<circle cx="146.67" cy="182.27" data-y="4.662127581" data-x="2026" r="4" fill="#ab1236"><title>2026: 4.662127581</title></circle>
	<circle cx="166.00" cy="175.30" data-y="5.032440115" data-x="2027" r="4" fill="#ab1236"><title>2027: 5.032440115</title></circle>
	<circle cx="185.33" cy="168.14" data-y="5.412967098" data-x="2028" r="4" fill="#ab1236"><title>2028: 5.412967098</title></circle>
	<circle cx="204.67" cy="160.91" data-y="5.796951484" data-x="2029" r="4" fill="#ab1236"><title>2029: 5.796951484</title></circle>
	<circle cx="224.00" cy="153.23" data-y="6.205018195" data-x="2030" r="4" fill="#ab1236"><title>2030: 6.205018195</title></circle>
	<circle cx="243.33" cy="144.79" data-y="6.653679571" data-x="2031" r="4" fill="#ab1236"><title>2031: 6.653679571</title></circle>
	<circle cx="262.67" cy="135.97" data-y="7.122341404" data-x="2032" r="4" fill="#ab1236"><title>2032: 7.122341404</title></circle>
	<circle cx="282.00" cy="127.31" data-y="7.582374158" data-x="2033" r="4" fill="#ab1236"><title>2033: 7.582374158</title></circle>
	<circle cx="301.33" cy="118.86" data-y="8.031265393" data-x="2034" r="4" fill="#ab1236"><title>2034: 8.031265393</title></circle>
	<circle cx="320.67" cy="111.06" data-y="8.44586419" data-x="2035" r="4" fill="#ab1236"><title>2035: 8.44586419</title></circle>
	<circle cx="340.00" cy="104.00" data-y="8.821226342" data-x="2036" r="4" fill="#ab1236"><title>2036: 8.821226342</title></circle>
	<circle cx="359.33" cy="97.38" data-y="9.172680658" data-x="2037" r="4" fill="#ab1236"><title>2037: 9.172680658</title></circle>
	<circle cx="378.67" cy="90.77" data-y="9.524046339" data-x="2038" r="4" fill="#ab1236"><title>2038: 9.524046339</title></circle>
	<circle cx="398.00" cy="82.95" data-y="9.939541117" data-x="2039" r="4" fill="#ab1236"><title>2039: 9.939541117</title></circle>
	<circle cx="417.33" cy="74.39" data-y="10.39480189" data-x="2040" r="4" fill="#ab1236"><title>2040: 10.39480189</title></circle>
	<circle cx="436.67" cy="66.01" data-y="10.83986076" data-x="2041" r="4" fill="#ab1236"><title>2041: 10.83986076</title></circle>
	<circle cx="456.00" cy="57.47" data-y="11.29389067" data-x="2042" r="4" fill="#ab1236"><title>2042: 11.29389067</title></circle>
	<circle cx="475.33" cy="48.92" data-y="11.74829516" data-x="2043" r="4" fill="#ab1236"><title>2043: 11.74829516</title></circle>
	<circle cx="494.67" cy="42.20" data-y="12.10540268" data-x="2044" r="4" fill="#ab1236"><title>2044: 12.10540268</title></circle>
	<circle cx="514.00" cy="36.21" data-y="12.42368884" data-x="2045" r="4" fill="#ab1236"><title>2045: 12.42368884</title></circle>
	<circle cx="533.33" cy="31.53" data-y="12.67192048" data-x="2046" r="4" fill="#ab1236"><title>2046: 12.67192048</title></circle>
	<circle cx="552.67" cy="27.71" data-y="12.87504101" data-x="2047" r="4" fill="#ab1236"><title>2047: 12.87504101</title></circle>
	<circle cx="572.00" cy="23.88" data-y="13.07850069" data-x="2048" r="4" fill="#ab1236"><title>2048: 13.07850069</title></circle>
	<circle cx="591.33" cy="20.08" data-y="13.28082034" data-x="2049" r="4" fill="#ab1236"><title>2049: 13.28082034</title></circle>
	<circle cx="610.67" cy="15.97" data-y="13.49899907" data-x="2050" r="4" fill="#ab1236"><title>2050: 13.49899907</title></circle>
</g>
<g data-scenario="falling-short" class="data-series">	<path d="M 50.00,213.42L 69.33,205.13L 88.67,204.85L 108.00,204.44L 127.33,203.99L 146.67,203.27L 166.00,202.34L 185.33,201.26L 204.67,200.04L 224.00,198.31L 243.33,196.04L 262.67,193.46L 282.00,190.91L 301.33,188.16L 320.67,185.96L 340.00,183.96L 359.33,182.84L 378.67,181.71L 398.00,180.16L 417.33,178.89L 436.67,177.20L 456.00,175.51L 475.33,173.83L 494.67,172.14L 514.00,170.46L 533.33,168.79L 552.67,167.11L 572.00,165.44L 591.33,163.77L 610.67,162.10" id="Falling Short" class="line" stroke="#cc0935" stroke-width="3" stroke-linecap="round"><title>Falling Short</title></path>
	<circle cx="50.00" cy="213.42" data-y="3.006758264" data-x="2021" r="4" fill="#cc0935"><title>2021: 3.006758264</title></circle>
	<circle cx="69.33" cy="205.13" data-y="3.447245522" data-x="2022" r="4" fill="#cc0935"><title>2022: 3.447245522</title></circle>
	<circle cx="88.67" cy="204.85" data-y="3.462172322" data-x="2023" r="4" fill="#cc0935"><title>2023: 3.462172322</title></circle>
	<circle cx="108.00" cy="204.44" data-y="3.483786231" data-x="2024" r="4" fill="#cc0935"><title>2024: 3.483786231</title></circle>
	<circle cx="127.33" cy="203.99" data-y="3.50757944" data-x="2025" r="4" fill="#cc0935"><title>2025: 3.50757944</title></circle>
	<circle cx="146.67" cy="203.27" data-y="3.545843923" data-x="2026" r="4" fill="#cc0935"><title>2026: 3.545843923</title></circle>
	<circle cx="166.00" cy="202.34" data-y="3.595522115" data-x="2027" r="4" fill="#cc0935"><title>2027: 3.595522115</title></circle>
	<circle cx="185.33" cy="201.26" data-y="3.652636534" data-x="2028" r="4" fill="#cc0935"><title>2028: 3.652636534</title></circle>
	<circle cx="204.67" cy="200.04" data-y="3.717451007" data-x="2029" r="4" fill="#cc0935"><title>2029: 3.717451007</title></circle>
	<circle cx="224.00" cy="198.31" data-y="3.809571646" data-x="2030" r="4" fill="#cc0935"><title>2030: 3.809571646</title></circle>
	<circle cx="243.33" cy="196.04" data-y="3.930150048" data-x="2031" r="4" fill="#cc0935"><title>2031: 3.930150048</title></circle>
	<circle cx="262.67" cy="193.46" data-y="4.067394348" data-x="2032" r="4" fill="#cc0935"><title>2032: 4.067394348</title></circle>
	<circle cx="282.00" cy="190.91" data-y="4.202572882" data-x="2033" r="4" fill="#cc0935"><title>2033: 4.202572882</title></circle>
	<circle cx="301.33" cy="188.16" data-y="4.348805045" data-x="2034" r="4" fill="#cc0935"><title>2034: 4.348805045</title></circle>
	<circle cx="320.67" cy="185.96" data-y="4.465882603" data-x="2035" r="4" fill="#cc0935"><title>2035: 4.465882603</title></circle>
	<circle cx="340.00" cy="183.96" data-y="4.571883648" data-x="2036" r="4" fill="#cc0935"><title>2036: 4.571883648</title></circle>
	<circle cx="359.33" cy="182.84" data-y="4.631683434" data-x="2037" r="4" fill="#cc0935"><title>2037: 4.631683434</title></circle>
	<circle cx="378.67" cy="181.71" data-y="4.691530656" data-x="2038" r="4" fill="#cc0935"><title>2038: 4.691530656</title></circle>
	<circle cx="398.00" cy="180.16" data-y="4.774159251" data-x="2039" r="4" fill="#cc0935"><title>2039: 4.774159251</title></circle>
	<circle cx="417.33" cy="178.89" data-y="4.841363586" data-x="2040" r="4" fill="#cc0935"><title>2040: 4.841363586</title></circle>
	<circle cx="436.67" cy="177.20" data-y="4.931240585" data-x="2041" r="4" fill="#cc0935"><title>2041: 4.931240585</title></circle>
	<circle cx="456.00" cy="175.51" data-y="5.020974064" data-x="2042" r="4" fill="#cc0935"><title>2042: 5.020974064</title></circle>
	<circle cx="475.33" cy="173.83" data-y="5.110558682" data-x="2043" r="4" fill="#cc0935"><title>2043: 5.110558682</title></circle>
	<circle cx="494.67" cy="172.14" data-y="5.199998821" data-x="2044" r="4" fill="#cc0935"><title>2044: 5.199998821</title></circle>
	<circle cx="514.00" cy="170.46" data-y="5.289293998" data-x="2045" r="4" fill="#cc0935"><title>2045: 5.289293998</title></circle>
	<circle cx="533.33" cy="168.79" data-y="5.378439455" data-x="2046" r="4" fill="#cc0935"><title>2046: 5.378439455</title></circle>
	<circle cx="552.67" cy="167.11" data-y="5.4674427" data-x="2047" r="4" fill="#cc0935"><title>2047: 5.4674427</title></circle>
	<circle cx="572.00" cy="165.44" data-y="5.556297556" data-x="2048" r="4" fill="#cc0935"><title>2048: 5.556297556</title></circle>
	<circle cx="591.33" cy="163.77" data-y="5.645006254" data-x="2049" r="4" fill="#cc0935"><title>2049: 5.645006254</title></circle>
	<circle cx="610.67" cy="162.10" data-y="5.733567309" data-x="2050" r="4" fill="#cc0935"><title>2050: 5.733567309</title></circle>
</g>
</svg>
