<svg width="640" height="320" viewBox="0 0 640 320" xmlns="http://www.w3.org/2000/svg" style="overflow:display" preserveAspectRatio="xMinYMin meet" overflow="visible">
<defs>
	<style>
	.data-series path.line { fill-opacity: 0; }
	.data-series path.line.dotted { stroke-dasharray: 12 20 }
	.data-series circle { display: none; }
	.data-series:hover path.line, .data-series.on path.line { stroke-width: 5; }
	.data-series:hover circle, .data-series.on circle { display: inline; }
	.data-series circle:hover, .data-series circle.on { r: 6px!important; fill: black; }
	.grid { font-family: "Helvetica Neue",Helvetica,Arial,"Lucida Grande",sans-serif; }
	.grid line { stroke: rgb(0,0,0); stroke-width: 2; stroke-linecap: round; }
	.grid.grid-x text { text-anchor: middle; dominant-baseline: hanging; transform: translateY(10px); }
	.grid.grid-y text { text-anchor: end; dominant-baseline: middle; transform: translateX(-10px); }
	</style>
</defs>
<g class="grid grid-y">
	<line x1="100" y1="270" x2="630" y2="270" data-left="100"></line>
	<text x="100" y="270" text-anchor="end">0</text>
	<text x="100" y="200.741450294089" text-anchor="end">20</text>
	<text x="100" y="131.482900588178" text-anchor="end">40</text>
	<text x="100" y="62.2243508822675" text-anchor="end">60</text>
	<text style="text-anchor:middle;dominant-baseline:hanging;font-weight:bold;transform: translateY(140px) rotate(-90deg);">Fuel consumption (GWh-yr)</text>
</g>
<g class="grid grid-x">
	<line class="tick" x1="259" y1="270" x2="259" y2="275"></line>
	<text x="259" y="270" text-anchor="middle">2030</text>
	<line class="tick" x1="435.666666666667" y1="270" x2="435.666666666667" y2="275"></line>
	<text x="435.666666666667" y="270" text-anchor="middle">2040</text>
	<line class="tick" x1="612.333333333333" y1="270" x2="612.333333333333" y2="275"></line>
	<text x="612.333333333333" y="270" text-anchor="middle">2050</text>
	<text style="text-anchor:middle;dominant-baseline:hanging;font-weight:bold;transform: translateY(140px) rotate(-90deg);"></text>
</g>
<g data-scenario="natural-gas" class="data-series">	<path d="M 100.00,83.83L 117.67,86.00L 135.33,88.79L 153.00,91.70L 170.67,95.75L 188.33,100.70L 206.00,106.61L 223.67,114.37L 241.33,122.33L 259.00,130.52L 276.67,137.09L 294.33,144.11L 312.00,152.10L 329.67,161.21L 347.33,170.35L 365.00,179.04L 382.67,187.37L 400.33,195.76L 418.00,204.41L 435.67,213.36L 453.33,222.86L 471.00,231.39L 488.67,238.91L 506.33,246.14L 524.00,252.31L 541.67,257.89L 559.33,263.36L 577.00,267.70L 594.67,268.79L 612.33,269.71" id="Natural gas" class="line" stroke="#B8BFF9" stroke-width="3" stroke-linecap="round"><title>Natural gas</title></path>
	<circle cx="100.00" cy="83.83" data-y="53.76204925" data-x="2021" r="4" fill="#B8BFF9"><title>2021: 53.76204925</title></circle>
	<circle cx="117.67" cy="86.00" data-y="53.13282085" data-x="2022" r="4" fill="#B8BFF9"><title>2022: 53.13282085</title></circle>
	<circle cx="135.33" cy="88.79" data-y="52.32792356" data-x="2023" r="4" fill="#B8BFF9"><title>2023: 52.32792356</title></circle>
	<circle cx="153.00" cy="91.70" data-y="51.48896951" data-x="2024" r="4" fill="#B8BFF9"><title>2024: 51.48896951</title></circle>
	<circle cx="170.67" cy="95.75" data-y="50.31887711" data-x="2025" r="4" fill="#B8BFF9"><title>2025: 50.31887711</title></circle>
	<circle cx="188.33" cy="100.70" data-y="48.88987008" data-x="2026" r="4" fill="#B8BFF9"><title>2026: 48.88987008</title></circle>
	<circle cx="206.00" cy="106.61" data-y="47.18171055" data-x="2027" r="4" fill="#B8BFF9"><title>2027: 47.18171055</title></circle>
	<circle cx="223.67" cy="114.37" data-y="44.94243092" data-x="2028" r="4" fill="#B8BFF9"><title>2028: 44.94243092</title></circle>
	<circle cx="241.33" cy="122.33" data-y="42.64353589" data-x="2029" r="4" fill="#B8BFF9"><title>2029: 42.64353589</title></circle>
	<circle cx="259.00" cy="130.52" data-y="40.27813412" data-x="2030" r="4" fill="#B8BFF9"><title>2030: 40.27813412</title></circle>
	<circle cx="276.67" cy="137.09" data-y="38.38003155" data-x="2031" r="4" fill="#B8BFF9"><title>2031: 38.38003155</title></circle>
	<circle cx="294.33" cy="144.11" data-y="36.35306385" data-x="2032" r="4" fill="#B8BFF9"><title>2032: 36.35306385</title></circle>
	<circle cx="312.00" cy="152.10" data-y="34.04627562" data-x="2033" r="4" fill="#B8BFF9"><title>2033: 34.04627562</title></circle>
	<circle cx="329.67" cy="161.21" data-y="31.41597747" data-x="2034" r="4" fill="#B8BFF9"><title>2034: 31.41597747</title></circle>
	<circle cx="347.33" cy="170.35" data-y="28.77558852" data-x="2035" r="4" fill="#B8BFF9"><title>2035: 28.77558852</title></circle>
	<circle cx="365.00" cy="179.04" data-y="26.26783741" data-x="2036" r="4" fill="#B8BFF9"><title>2036: 26.26783741</title></circle>
	<circle cx="382.67" cy="187.37" data-y="23.86190039" data-x="2037" r="4" fill="#B8BFF9"><title>2037: 23.86190039</title></circle>
	<circle cx="400.33" cy="195.76" data-y="21.43795253" data-x="2038" r="4" fill="#B8BFF9"><title>2038: 21.43795253</title></circle>
	<circle cx="418.00" cy="204.41" data-y="18.94160297" data-x="2039" r="4" fill="#B8BFF9"><title>2039: 18.94160297</title></circle>
	<circle cx="435.67" cy="213.36" data-y="16.35748161" data-x="2040" r="4" fill="#B8BFF9"><title>2040: 16.35748161</title></circle>
	<circle cx="453.33" cy="222.86" data-y="13.61294144" data-x="2041" r="4" fill="#B8BFF9"><title>2041: 13.61294144</title></circle>
	<circle cx="471.00" cy="231.39" data-y="11.14976973" data-x="2042" r="4" fill="#B8BFF9"><title>2042: 11.14976973</title></circle>
	<circle cx="488.67" cy="238.91" data-y="8.977851094" data-x="2043" r="4" fill="#B8BFF9"><title>2043: 8.977851094</title></circle>
	<circle cx="506.33" cy="246.14" data-y="6.891499162" data-x="2044" r="4" fill="#B8BFF9"><title>2044: 6.891499162</title></circle>
	<circle cx="524.00" cy="252.31" data-y="5.108797398" data-x="2045" r="4" fill="#B8BFF9"><title>2045: 5.108797398</title></circle>
	<circle cx="541.67" cy="257.89" data-y="3.495933276" data-x="2046" r="4" fill="#B8BFF9"><title>2046: 3.495933276</title></circle>
	<circle cx="559.33" cy="263.36" data-y="1.916921189" data-x="2047" r="4" fill="#B8BFF9"><title>2047: 1.916921189</title></circle>
	<circle cx="577.00" cy="267.70" data-y="0.665254067" data-x="2048" r="4" fill="#B8BFF9"><title>2048: 0.665254067</title></circle>
	<circle cx="594.67" cy="268.79" data-y="0.349257581" data-x="2049" r="4" fill="#B8BFF9"><title>2049: 0.349257581</title></circle>
	<circle cx="612.33" cy="269.71" data-y="0.08463351" data-x="2050" r="4" fill="#B8BFF9"><title>2050: 0.08463351</title></circle>
</g>
<g data-scenario="solid-fuel" class="data-series">	<path d="M 100.00,267.18L 117.67,267.30L 135.33,267.44L 153.00,267.59L 170.67,267.71L 188.33,267.88L 206.00,268.08L 223.67,268.30L 241.33,268.43L 259.00,268.56L 276.67,268.68L 294.33,268.80L 312.00,268.91L 329.67,269.02L 347.33,269.12L 365.00,269.22L 382.67,269.32L 400.33,269.42L 418.00,269.53L 435.67,269.63L 453.33,269.74L 471.00,269.84L 488.67,269.94L 506.33,269.95L 524.00,269.95L 541.67,269.96L 559.33,269.96L 577.00,269.97L 594.67,269.97L 612.33,269.97" id="Solid fuel" class="line" stroke="#505050" stroke-width="3" stroke-linecap="round"><title>Solid fuel</title></path>
	<circle cx="100.00" cy="267.18" data-y="0.815015517" data-x="2021" r="4" fill="#505050"><title>2021: 0.815015517</title></circle>
	<circle cx="117.67" cy="267.30" data-y="0.778931491" data-x="2022" r="4" fill="#505050"><title>2022: 0.778931491</title></circle>
	<circle cx="135.33" cy="267.44" data-y="0.738258594" data-x="2023" r="4" fill="#505050"><title>2023: 0.738258594</title></circle>
	<circle cx="153.00" cy="267.59" data-y="0.696961522" data-x="2024" r="4" fill="#505050"><title>2024: 0.696961522</title></circle>
	<circle cx="170.67" cy="267.71" data-y="0.660637499" data-x="2025" r="4" fill="#505050"><title>2025: 0.660637499</title></circle>
	<circle cx="188.33" cy="267.88" data-y="0.61288972" data-x="2026" r="4" fill="#505050"><title>2026: 0.61288972</title></circle>
	<circle cx="206.00" cy="268.08" data-y="0.555003654" data-x="2027" r="4" fill="#505050"><title>2027: 0.555003654</title></circle>
	<circle cx="223.67" cy="268.30" data-y="0.492340599" data-x="2028" r="4" fill="#505050"><title>2028: 0.492340599</title></circle>
	<circle cx="241.33" cy="268.43" data-y="0.453079198" data-x="2029" r="4" fill="#505050"><title>2029: 0.453079198</title></circle>
	<circle cx="259.00" cy="268.56" data-y="0.41469095" data-x="2030" r="4" fill="#505050"><title>2030: 0.41469095</title></circle>
	<circle cx="276.67" cy="268.68" data-y="0.380924841" data-x="2031" r="4" fill="#505050"><title>2031: 0.380924841</title></circle>
	<circle cx="294.33" cy="268.80" data-y="0.347443149" data-x="2032" r="4" fill="#505050"><title>2032: 0.347443149</title></circle>
	<circle cx="312.00" cy="268.91" data-y="0.315694365" data-x="2033" r="4" fill="#505050"><title>2033: 0.315694365</title></circle>
	<circle cx="329.67" cy="269.02" data-y="0.28420752" data-x="2034" r="4" fill="#505050"><title>2034: 0.28420752</title></circle>
	<circle cx="347.33" cy="269.12" data-y="0.254189982" data-x="2035" r="4" fill="#505050"><title>2035: 0.254189982</title></circle>
	<circle cx="365.00" cy="269.22" data-y="0.225072745" data-x="2036" r="4" fill="#505050"><title>2036: 0.225072745</title></circle>
	<circle cx="382.67" cy="269.32" data-y="0.195873211" data-x="2037" r="4" fill="#505050"><title>2037: 0.195873211</title></circle>
	<circle cx="400.33" cy="269.42" data-y="0.166761976" data-x="2038" r="4" fill="#505050"><title>2038: 0.166761976</title></circle>
	<circle cx="418.00" cy="269.53" data-y="0.13659035" data-x="2039" r="4" fill="#505050"><title>2039: 0.13659035</title></circle>
	<circle cx="435.67" cy="269.63" data-y="0.106396853" data-x="2040" r="4" fill="#505050"><title>2040: 0.106396853</title></circle>
	<circle cx="453.33" cy="269.74" data-y="0.076128352" data-x="2041" r="4" fill="#505050"><title>2041: 0.076128352</title></circle>
	<circle cx="471.00" cy="269.84" data-y="0.045945238" data-x="2042" r="4" fill="#505050"><title>2042: 0.045945238</title></circle>
	<circle cx="488.67" cy="269.94" data-y="0.017155439" data-x="2043" r="4" fill="#505050"><title>2043: 0.017155439</title></circle>
	<circle cx="506.33" cy="269.95" data-y="0.014382823" data-x="2044" r="4" fill="#505050"><title>2044: 0.014382823</title></circle>
	<circle cx="524.00" cy="269.95" data-y="0.013206738" data-x="2045" r="4" fill="#505050"><title>2045: 0.013206738</title></circle>
	<circle cx="541.67" cy="269.96" data-y="0.012091649" data-x="2046" r="4" fill="#505050"><title>2046: 0.012091649</title></circle>
	<circle cx="559.33" cy="269.96" data-y="0.010995857" data-x="2047" r="4" fill="#505050"><title>2047: 0.010995857</title></circle>
	<circle cx="577.00" cy="269.97" data-y="0.010025978" data-x="2048" r="4" fill="#505050"><title>2048: 0.010025978</title></circle>
	<circle cx="594.67" cy="269.97" data-y="0.009457742" data-x="2049" r="4" fill="#505050"><title>2049: 0.009457742</title></circle>
	<circle cx="612.33" cy="269.97" data-y="0.008943769" data-x="2050" r="4" fill="#505050"><title>2050: 0.008943769</title></circle>
</g>
<g data-scenario="petroleum" class="data-series">	<path d="M 100.00,10.00L 117.67,13.59L 135.33,22.40L 153.00,32.25L 170.67,44.82L 188.33,61.24L 206.00,77.87L 223.67,95.22L 241.33,112.77L 259.00,129.63L 276.67,146.35L 294.33,164.19L 312.00,180.54L 329.67,195.30L 347.33,208.50L 365.00,219.54L 382.67,229.26L 400.33,237.77L 418.00,245.17L 435.67,251.52L 453.33,256.68L 471.00,260.84L 488.67,264.13L 506.33,266.27L 524.00,267.69L 541.67,268.48L 559.33,269.06L 577.00,269.32L 594.67,269.51L 612.33,269.63" id="Petroleum" class="line" stroke="#cc0935" stroke-width="3" stroke-linecap="round"><title>Petroleum</title></path>
	<circle cx="100.00" cy="10.00" data-y="75.0809831" data-x="2021" r="4" fill="#cc0935"><title>2021: 75.0809831</title></circle>
	<circle cx="117.67" cy="13.59" data-y="74.04434804" data-x="2022" r="4" fill="#cc0935"><title>2022: 74.04434804</title></circle>
	<circle cx="135.33" cy="22.40" data-y="71.49879131" data-x="2023" r="4" fill="#cc0935"><title>2023: 71.49879131</title></circle>
	<circle cx="153.00" cy="32.25" data-y="68.65574047" data-x="2024" r="4" fill="#cc0935"><title>2024: 68.65574047</title></circle>
	<circle cx="170.67" cy="44.82" data-y="65.02666729" data-x="2025" r="4" fill="#cc0935"><title>2025: 65.02666729</title></circle>
	<circle cx="188.33" cy="61.24" data-y="60.28360617" data-x="2026" r="4" fill="#cc0935"><title>2026: 60.28360617</title></circle>
	<circle cx="206.00" cy="77.87" data-y="55.48321389" data-x="2027" r="4" fill="#cc0935"><title>2027: 55.48321389</title></circle>
	<circle cx="223.67" cy="95.22" data-y="50.47066188" data-x="2028" r="4" fill="#cc0935"><title>2028: 50.47066188</title></circle>
	<circle cx="241.33" cy="112.77" data-y="45.40402314" data-x="2029" r="4" fill="#cc0935"><title>2029: 45.40402314</title></circle>
	<circle cx="259.00" cy="129.63" data-y="40.53643516" data-x="2030" r="4" fill="#cc0935"><title>2030: 40.53643516</title></circle>
	<circle cx="276.67" cy="146.35" data-y="35.70762412" data-x="2031" r="4" fill="#cc0935"><title>2031: 35.70762412</title></circle>
	<circle cx="294.33" cy="164.19" data-y="30.5554031" data-x="2032" r="4" fill="#cc0935"><title>2032: 30.5554031</title></circle>
	<circle cx="312.00" cy="180.54" data-y="25.83388586" data-x="2033" r="4" fill="#cc0935"><title>2033: 25.83388586</title></circle>
	<circle cx="329.67" cy="195.30" data-y="21.57096479" data-x="2034" r="4" fill="#cc0935"><title>2034: 21.57096479</title></circle>
	<circle cx="347.33" cy="208.50" data-y="17.76077072" data-x="2035" r="4" fill="#cc0935"><title>2035: 17.76077072</title></circle>
	<circle cx="365.00" cy="219.54" data-y="14.57126362" data-x="2036" r="4" fill="#cc0935"><title>2036: 14.57126362</title></circle>
	<circle cx="382.67" cy="229.26" data-y="11.76454965" data-x="2037" r="4" fill="#cc0935"><title>2037: 11.76454965</title></circle>
	<circle cx="400.33" cy="237.77" data-y="9.307490012" data-x="2038" r="4" fill="#cc0935"><title>2038: 9.307490012</title></circle>
	<circle cx="418.00" cy="245.17" data-y="7.171547064" data-x="2039" r="4" fill="#cc0935"><title>2039: 7.171547064</title></circle>
	<circle cx="435.67" cy="251.52" data-y="5.335305757" data-x="2040" r="4" fill="#cc0935"><title>2040: 5.335305757</title></circle>
	<circle cx="453.33" cy="256.68" data-y="3.845453143" data-x="2041" r="4" fill="#cc0935"><title>2041: 3.845453143</title></circle>
	<circle cx="471.00" cy="260.84" data-y="2.644708118" data-x="2042" r="4" fill="#cc0935"><title>2042: 2.644708118</title></circle>
	<circle cx="488.67" cy="264.13" data-y="1.694406957" data-x="2043" r="4" fill="#cc0935"><title>2043: 1.694406957</title></circle>
	<circle cx="506.33" cy="266.27" data-y="1.076805078" data-x="2044" r="4" fill="#cc0935"><title>2044: 1.076805078</title></circle>
	<circle cx="524.00" cy="267.69" data-y="0.667724326" data-x="2045" r="4" fill="#cc0935"><title>2045: 0.667724326</title></circle>
	<circle cx="541.67" cy="268.48" data-y="0.438689889" data-x="2046" r="4" fill="#cc0935"><title>2046: 0.438689889</title></circle>
	<circle cx="559.33" cy="269.06" data-y="0.272405402" data-x="2047" r="4" fill="#cc0935"><title>2047: 0.272405402</title></circle>
	<circle cx="577.00" cy="269.32" data-y="0.195002807" data-x="2048" r="4" fill="#cc0935"><title>2048: 0.195002807</title></circle>
	<circle cx="594.67" cy="269.51" data-y="0.142304059" data-x="2049" r="4" fill="#cc0935"><title>2049: 0.142304059</title></circle>
	<circle cx="612.33" cy="269.63" data-y="0.106090039" data-x="2050" r="4" fill="#cc0935"><title>2050: 0.106090039</title></circle>
</g>
<g data-scenario="hydrogen" class="data-series">	<path d="M 100.00,269.98L 117.67,269.97L 135.33,269.96L 153.00,269.96L 170.67,269.94L 188.33,269.94L 206.00,269.92L 223.67,269.91L 241.33,269.89L 259.00,269.54L 276.67,269.18L 294.33,268.80L 312.00,268.31L 329.67,267.76L 347.33,267.13L 365.00,266.43L 382.67,265.77L 400.33,265.03L 418.00,264.20L 435.67,263.01L 453.33,261.51L 471.00,260.20L 488.67,259.29L 506.33,258.32L 524.00,257.65L 541.67,257.25L 559.33,256.87L 577.00,256.61L 594.67,256.34L 612.33,256.33" id="Hydrogen" class="line" stroke="#0279FA" stroke-width="3" stroke-linecap="round"><title>Hydrogen</title></path>
	<circle cx="100.00" cy="269.98" data-y="0.005774827" data-x="2021" r="4" fill="#0279FA"><title>2021: 0.005774827</title></circle>
	<circle cx="117.67" cy="269.97" data-y="0.008665637" data-x="2022" r="4" fill="#0279FA"><title>2022: 0.008665637</title></circle>
	<circle cx="135.33" cy="269.96" data-y="0.010189035" data-x="2023" r="4" fill="#0279FA"><title>2023: 0.010189035</title></circle>
	<circle cx="153.00" cy="269.96" data-y="0.012560961" data-x="2024" r="4" fill="#0279FA"><title>2024: 0.012560961</title></circle>
	<circle cx="170.67" cy="269.94" data-y="0.015949707" data-x="2025" r="4" fill="#0279FA"><title>2025: 0.015949707</title></circle>
	<circle cx="188.33" cy="269.94" data-y="0.018421935" data-x="2026" r="4" fill="#0279FA"><title>2026: 0.018421935</title></circle>
	<circle cx="206.00" cy="269.92" data-y="0.021838353" data-x="2027" r="4" fill="#0279FA"><title>2027: 0.021838353</title></circle>
	<circle cx="223.67" cy="269.91" data-y="0.026750654" data-x="2028" r="4" fill="#0279FA"><title>2028: 0.026750654</title></circle>
	<circle cx="241.33" cy="269.89" data-y="0.031719783" data-x="2029" r="4" fill="#0279FA"><title>2029: 0.031719783</title></circle>
	<circle cx="259.00" cy="269.54" data-y="0.133325141" data-x="2030" r="4" fill="#0279FA"><title>2030: 0.133325141</title></circle>
	<circle cx="276.67" cy="269.18" data-y="0.237549969" data-x="2031" r="4" fill="#0279FA"><title>2031: 0.237549969</title></circle>
	<circle cx="294.33" cy="268.80" data-y="0.346393774" data-x="2032" r="4" fill="#0279FA"><title>2032: 0.346393774</title></circle>
	<circle cx="312.00" cy="268.31" data-y="0.486893161" data-x="2033" r="4" fill="#0279FA"><title>2033: 0.486893161</title></circle>
	<circle cx="329.67" cy="267.76" data-y="0.645409579" data-x="2034" r="4" fill="#0279FA"><title>2034: 0.645409579</title></circle>
	<circle cx="347.33" cy="267.13" data-y="0.829372969" data-x="2035" r="4" fill="#0279FA"><title>2035: 0.829372969</title></circle>
	<circle cx="365.00" cy="266.43" data-y="1.032309103" data-x="2036" r="4" fill="#0279FA"><title>2036: 1.032309103</title></circle>
	<circle cx="382.67" cy="265.77" data-y="1.222628164" data-x="2037" r="4" fill="#0279FA"><title>2037: 1.222628164</title></circle>
	<circle cx="400.33" cy="265.03" data-y="1.435789166" data-x="2038" r="4" fill="#0279FA"><title>2038: 1.435789166</title></circle>
	<circle cx="418.00" cy="264.20" data-y="1.674208179" data-x="2039" r="4" fill="#0279FA"><title>2039: 1.674208179</title></circle>
	<circle cx="435.67" cy="263.01" data-y="2.018657855" data-x="2040" r="4" fill="#0279FA"><title>2040: 2.018657855</title></circle>
	<circle cx="453.33" cy="261.51" data-y="2.452796546" data-x="2041" r="4" fill="#0279FA"><title>2041: 2.452796546</title></circle>
	<circle cx="471.00" cy="260.20" data-y="2.829535777" data-x="2042" r="4" fill="#0279FA"><title>2042: 2.829535777</title></circle>
	<circle cx="488.67" cy="259.29" data-y="3.094175924" data-x="2043" r="4" fill="#0279FA"><title>2043: 3.094175924</title></circle>
	<circle cx="506.33" cy="258.32" data-y="3.373691139" data-x="2044" r="4" fill="#0279FA"><title>2044: 3.373691139</title></circle>
	<circle cx="524.00" cy="257.65" data-y="3.565550821" data-x="2045" r="4" fill="#0279FA"><title>2045: 3.565550821</title></circle>
	<circle cx="541.67" cy="257.25" data-y="3.681565293" data-x="2046" r="4" fill="#0279FA"><title>2046: 3.681565293</title></circle>
	<circle cx="559.33" cy="256.87" data-y="3.791104956" data-x="2047" r="4" fill="#0279FA"><title>2047: 3.791104956</title></circle>
	<circle cx="577.00" cy="256.61" data-y="3.867442911" data-x="2048" r="4" fill="#0279FA"><title>2048: 3.867442911</title></circle>
	<circle cx="594.67" cy="256.34" data-y="3.944362693" data-x="2049" r="4" fill="#0279FA"><title>2049: 3.944362693</title></circle>
	<circle cx="612.33" cy="256.33" data-y="3.947998708" data-x="2050" r="4" fill="#0279FA"><title>2050: 3.947998708</title></circle>
</g>
<g data-scenario="bioenergy" class="data-series">	<path d="M 100.00,257.40L 117.67,257.84L 135.33,258.30L 153.00,258.78L 170.67,259.24L 188.33,259.86L 206.00,260.57L 223.67,261.34L 241.33,261.90L 259.00,262.45L 276.67,262.88L 294.33,263.31L 312.00,263.72L 329.67,264.17L 347.33,264.79L 365.00,265.15L 382.67,265.52L 400.33,265.89L 418.00,266.28L 435.67,266.66L 453.33,267.04L 471.00,267.42L 488.67,267.79L 506.33,267.84L 524.00,267.86L 541.67,267.87L 559.33,267.88L 577.00,267.89L 594.67,267.89L 612.33,267.90" id="Bioenergy" class="line" stroke="#019303" stroke-width="3" stroke-linecap="round"><title>Bioenergy</title></path>
	<circle cx="100.00" cy="257.40" data-y="3.637258777" data-x="2021" r="4" fill="#019303"><title>2021: 3.637258777</title></circle>
	<circle cx="117.67" cy="257.84" data-y="3.512886537" data-x="2022" r="4" fill="#019303"><title>2022: 3.512886537</title></circle>
	<circle cx="135.33" cy="258.30" data-y="3.377818664" data-x="2023" r="4" fill="#019303"><title>2023: 3.377818664</title></circle>
	<circle cx="153.00" cy="258.78" data-y="3.238947247" data-x="2024" r="4" fill="#019303"><title>2024: 3.238947247</title></circle>
	<circle cx="170.67" cy="259.24" data-y="3.107587944" data-x="2025" r="4" fill="#019303"><title>2025: 3.107587944</title></circle>
	<circle cx="188.33" cy="259.86" data-y="2.929259011" data-x="2026" r="4" fill="#019303"><title>2026: 2.929259011</title></circle>
	<circle cx="206.00" cy="260.57" data-y="2.72324741" data-x="2027" r="4" fill="#019303"><title>2027: 2.72324741</title></circle>
	<circle cx="223.67" cy="261.34" data-y="2.501197541" data-x="2028" r="4" fill="#019303"><title>2028: 2.501197541</title></circle>
	<circle cx="241.33" cy="261.90" data-y="2.33927524" data-x="2029" r="4" fill="#019303"><title>2029: 2.33927524</title></circle>
	<circle cx="259.00" cy="262.45" data-y="2.180307073" data-x="2030" r="4" fill="#019303"><title>2030: 2.180307073</title></circle>
	<circle cx="276.67" cy="262.88" data-y="2.055237162" data-x="2031" r="4" fill="#019303"><title>2031: 2.055237162</title></circle>
	<circle cx="294.33" cy="263.31" data-y="1.931170595" data-x="2032" r="4" fill="#019303"><title>2032: 1.931170595</title></circle>
	<circle cx="312.00" cy="263.72" data-y="1.813811937" data-x="2033" r="4" fill="#019303"><title>2033: 1.813811937</title></circle>
	<circle cx="329.67" cy="264.17" data-y="1.682571241" data-x="2034" r="4" fill="#019303"><title>2034: 1.682571241</title></circle>
	<circle cx="347.33" cy="264.79" data-y="1.50542601" data-x="2035" r="4" fill="#019303"><title>2035: 1.50542601</title></circle>
	<circle cx="365.00" cy="265.15" data-y="1.399214365" data-x="2036" r="4" fill="#019303"><title>2036: 1.399214365</title></circle>
	<circle cx="382.67" cy="265.52" data-y="1.292510304" data-x="2037" r="4" fill="#019303"><title>2037: 1.292510304</title></circle>
	<circle cx="400.33" cy="265.89" data-y="1.18625795" data-x="2038" r="4" fill="#019303"><title>2038: 1.18625795</title></circle>
	<circle cx="418.00" cy="266.28" data-y="1.07555904" data-x="2039" r="4" fill="#019303"><title>2039: 1.07555904</title></circle>
	<circle cx="435.67" cy="266.66" data-y="0.96520387" data-x="2040" r="4" fill="#019303"><title>2040: 0.96520387</title></circle>
	<circle cx="453.33" cy="267.04" data-y="0.854827005" data-x="2041" r="4" fill="#019303"><title>2041: 0.854827005</title></circle>
	<circle cx="471.00" cy="267.42" data-y="0.744434673" data-x="2042" r="4" fill="#019303"><title>2042: 0.744434673</title></circle>
	<circle cx="488.67" cy="267.79" data-y="0.639614362" data-x="2043" r="4" fill="#019303"><title>2043: 0.639614362</title></circle>
	<circle cx="506.33" cy="267.84" data-y="0.624410981" data-x="2044" r="4" fill="#019303"><title>2044: 0.624410981</title></circle>
	<circle cx="524.00" cy="267.86" data-y="0.617114152" data-x="2045" r="4" fill="#019303"><title>2045: 0.617114152</title></circle>
	<circle cx="541.67" cy="267.87" data-y="0.614578287" data-x="2046" r="4" fill="#019303"><title>2046: 0.614578287</title></circle>
	<circle cx="559.33" cy="267.88" data-y="0.612069408" data-x="2047" r="4" fill="#019303"><title>2047: 0.612069408</title></circle>
	<circle cx="577.00" cy="267.89" data-y="0.610021021" data-x="2048" r="4" fill="#019303"><title>2048: 0.610021021</title></circle>
	<circle cx="594.67" cy="267.89" data-y="0.608027412" data-x="2049" r="4" fill="#019303"><title>2049: 0.608027412</title></circle>
	<circle cx="612.33" cy="267.90" data-y="0.606035703" data-x="2050" r="4" fill="#019303"><title>2050: 0.606035703</title></circle>
</g>
<g data-scenario="electricity" class="data-series">	<path d="M 100.00,145.01L 117.67,145.53L 135.33,145.12L 153.00,144.09L 170.67,142.43L 188.33,139.87L 206.00,136.26L 223.67,131.45L 241.33,125.62L 259.00,117.92L 276.67,110.77L 294.33,103.70L 312.00,96.17L 329.67,88.63L 347.33,79.81L 365.00,71.46L 382.67,64.20L 400.33,57.19L 418.00,50.67L 435.67,44.73L 453.33,39.55L 471.00,34.97L 488.67,31.03L 506.33,27.72L 524.00,24.92L 541.67,22.53L 559.33,20.17L 577.00,17.91L 594.67,17.49L 612.33,17.38" id="Electricity" class="line" stroke="#cc0935" stroke-width="3" stroke-linecap="round"><title>Electricity</title></path>
	<circle cx="100.00" cy="145.01" data-y="36.09422741" data-x="2021" r="4" fill="#cc0935"><title>2021: 36.09422741</title></circle>
	<circle cx="117.67" cy="145.53" data-y="35.94381194" data-x="2022" r="4" fill="#cc0935"><title>2022: 35.94381194</title></circle>
	<circle cx="135.33" cy="145.12" data-y="36.06186494" data-x="2023" r="4" fill="#cc0935"><title>2023: 36.06186494</title></circle>
	<circle cx="153.00" cy="144.09" data-y="36.35850758" data-x="2024" r="4" fill="#cc0935"><title>2024: 36.35850758</title></circle>
	<circle cx="170.67" cy="142.43" data-y="36.83997375" data-x="2025" r="4" fill="#cc0935"><title>2025: 36.83997375</title></circle>
	<circle cx="188.33" cy="139.87" data-y="37.57741574" data-x="2026" r="4" fill="#cc0935"><title>2026: 37.57741574</title></circle>
	<circle cx="206.00" cy="136.26" data-y="38.61975801" data-x="2027" r="4" fill="#cc0935"><title>2027: 38.61975801</title></circle>
	<circle cx="223.67" cy="131.45" data-y="40.00863838" data-x="2028" r="4" fill="#cc0935"><title>2028: 40.00863838</title></circle>
	<circle cx="241.33" cy="125.62" data-y="41.6935327" data-x="2029" r="4" fill="#cc0935"><title>2029: 41.6935327</title></circle>
	<circle cx="259.00" cy="117.92" data-y="43.91554218" data-x="2030" r="4" fill="#cc0935"><title>2030: 43.91554218</title></circle>
	<circle cx="276.67" cy="110.77" data-y="45.98192321" data-x="2031" r="4" fill="#cc0935"><title>2031: 45.98192321</title></circle>
	<circle cx="294.33" cy="103.70" data-y="48.02241182" data-x="2032" r="4" fill="#cc0935"><title>2032: 48.02241182</title></circle>
	<circle cx="312.00" cy="96.17" data-y="50.19708776" data-x="2033" r="4" fill="#cc0935"><title>2033: 50.19708776</title></circle>
	<circle cx="329.67" cy="88.63" data-y="52.37522558" data-x="2034" r="4" fill="#cc0935"><title>2034: 52.37522558</title></circle>
	<circle cx="347.33" cy="79.81" data-y="54.92243512" data-x="2035" r="4" fill="#cc0935"><title>2035: 54.92243512</title></circle>
	<circle cx="365.00" cy="71.46" data-y="57.33254914" data-x="2036" r="4" fill="#cc0935"><title>2036: 57.33254914</title></circle>
	<circle cx="382.67" cy="64.20" data-y="59.43050057" data-x="2037" r="4" fill="#cc0935"><title>2037: 59.43050057</title></circle>
	<circle cx="400.33" cy="57.19" data-y="61.45301793" data-x="2038" r="4" fill="#cc0935"><title>2038: 61.45301793</title></circle>
	<circle cx="418.00" cy="50.67" data-y="63.33642689" data-x="2039" r="4" fill="#cc0935"><title>2039: 63.33642689</title></circle>
	<circle cx="435.67" cy="44.73" data-y="65.05045544" data-x="2040" r="4" fill="#cc0935"><title>2040: 65.05045544</title></circle>
	<circle cx="453.33" cy="39.55" data-y="66.54649409" data-x="2041" r="4" fill="#cc0935"><title>2041: 66.54649409</title></circle>
	<circle cx="471.00" cy="34.97" data-y="67.87146549" data-x="2042" r="4" fill="#cc0935"><title>2042: 67.87146549</title></circle>
	<circle cx="488.67" cy="31.03" data-y="69.00722751" data-x="2043" r="4" fill="#cc0935"><title>2043: 69.00722751</title></circle>
	<circle cx="506.33" cy="27.72" data-y="69.96278886" data-x="2044" r="4" fill="#cc0935"><title>2044: 69.96278886</title></circle>
	<circle cx="524.00" cy="24.92" data-y="70.77192916" data-x="2045" r="4" fill="#cc0935"><title>2045: 70.77192916</title></circle>
	<circle cx="541.67" cy="22.53" data-y="71.46123151" data-x="2046" r="4" fill="#cc0935"><title>2046: 71.46123151</title></circle>
	<circle cx="559.33" cy="20.17" data-y="72.14521235" data-x="2047" r="4" fill="#cc0935"><title>2047: 72.14521235</title></circle>
	<circle cx="577.00" cy="17.91" data-y="72.79739976" data-x="2048" r="4" fill="#cc0935"><title>2048: 72.79739976</title></circle>
	<circle cx="594.67" cy="17.49" data-y="72.91740309" data-x="2049" r="4" fill="#cc0935"><title>2049: 72.91740309</title></circle>
	<circle cx="612.33" cy="17.38" data-y="72.94932022" data-x="2050" r="4" fill="#cc0935"><title>2050: 72.94932022</title></circle>
</g>
</svg>
