<svg width="640" height="320" viewBox="0 0 640 320" xmlns="http://www.w3.org/2000/svg" style="overflow:display" preserveAspectRatio="xMinYMin meet" overflow="visible">
<defs>
	<style>
	.data-series path.line { fill-opacity: 0; }
	.data-series path.line.dotted { stroke-dasharray: 12 20 }
	.data-series circle { display: none; }
	.data-series:hover path.line, .data-series.on path.line { stroke-width: 5; }
	.data-series:hover circle, .data-series.on circle { display: inline; }
	.data-series circle:hover, .data-series circle.on { r: 6px!important; fill: black; }
	.grid { font-family: "Helvetica Neue",Helvetica,Arial,"Lucida Grande",sans-serif; }
	.grid line { stroke: rgb(0,0,0); stroke-width: 2; stroke-linecap: round; }
	.grid.grid-x text { text-anchor: middle; dominant-baseline: hanging; transform: translateY(10px); }
	.grid.grid-y text { text-anchor: end; dominant-baseline: middle; transform: translateX(-10px); }
	</style>
</defs>
<g class="grid grid-y">
	<line x1="70" y1="270" x2="630" y2="270" data-left="70"></line>
	<text x="70" y="270" text-anchor="end">0</text>
	<text x="70" y="194.173947616912" text-anchor="end">20</text>
	<text x="70" y="118.347895233824" text-anchor="end">40</text>
	<text x="70" y="42.5218428507363" text-anchor="end">60</text>
	<text style="text-anchor:middle;dominant-baseline:hanging;font-weight:bold;transform: translateY(140px) rotate(-90deg);">Energy consumption (TWh)</text>
</g>
<g class="grid grid-x">
	<line class="tick" x1="238" y1="270" x2="238" y2="275"></line>
	<text x="238" y="270" text-anchor="middle">2030</text>
	<line class="tick" x1="424.666666666667" y1="270" x2="424.666666666667" y2="275"></line>
	<text x="424.666666666667" y="270" text-anchor="middle">2040</text>
	<line class="tick" x1="611.333333333333" y1="270" x2="611.333333333333" y2="275"></line>
	<text x="611.333333333333" y="270" text-anchor="middle">2050</text>
	<text style="text-anchor:middle;dominant-baseline:hanging;font-weight:bold;transform: translateY(140px) rotate(-90deg);"></text>
</g>
<g data-scenario="consumer-transformation" class="data-series">	<path d="M 70.00,143.24L 88.67,144.00L 107.33,145.06L 126.00,145.11L 144.67,144.57L 163.33,142.92L 182.00,140.73L 200.67,137.72L 219.33,133.52L 238.00,128.33L 256.67,121.19L 275.33,113.51L 294.00,105.70L 312.67,98.12L 331.33,89.31L 350.00,81.69L 368.67,75.05L 387.33,68.91L 406.00,63.24L 424.67,57.72L 443.33,52.99L 462.00,49.68L 480.67,47.94L 499.33,46.95L 518.00,46.28L 536.67,45.85L 555.33,45.49L 574.00,45.20L 592.67,45.04L 611.33,45.56" id="Consumer Transformation" class="line" stroke="#FFBF22" stroke-width="3" stroke-linecap="round"><title>Consumer Transformation</title></path>
	<circle cx="70.00" cy="143.24" data-y="33.43466416" data-x="2021" r="4" fill="#FFBF22"><title>2021: 33.43466416</title></circle>
	<circle cx="88.67" cy="144.00" data-y="33.23377937" data-x="2022" r="4" fill="#FFBF22"><title>2022: 33.23377937</title></circle>
	<circle cx="107.33" cy="145.06" data-y="32.95478299" data-x="2023" r="4" fill="#FFBF22"><title>2023: 32.95478299</title></circle>
	<circle cx="126.00" cy="145.11" data-y="32.94145133" data-x="2024" r="4" fill="#FFBF22"><title>2024: 32.94145133</title></circle>
	<circle cx="144.67" cy="144.57" data-y="33.08238045" data-x="2025" r="4" fill="#FFBF22"><title>2025: 33.08238045</title></circle>
	<circle cx="163.33" cy="142.92" data-y="33.52001789" data-x="2026" r="4" fill="#FFBF22"><title>2026: 33.52001789</title></circle>
	<circle cx="182.00" cy="140.73" data-y="34.09535453" data-x="2027" r="4" fill="#FFBF22"><title>2027: 34.09535453</title></circle>
	<circle cx="200.67" cy="137.72" data-y="34.88992929" data-x="2028" r="4" fill="#FFBF22"><title>2028: 34.88992929</title></circle>
	<circle cx="219.33" cy="133.52" data-y="35.99859514" data-x="2029" r="4" fill="#FFBF22"><title>2029: 35.99859514</title></circle>
	<circle cx="238.00" cy="128.33" data-y="37.36600401" data-x="2030" r="4" fill="#FFBF22"><title>2030: 37.36600401</title></circle>
	<circle cx="256.67" cy="121.19" data-y="39.2509837" data-x="2031" r="4" fill="#FFBF22"><title>2031: 39.2509837</title></circle>
	<circle cx="275.33" cy="113.51" data-y="41.27566593" data-x="2032" r="4" fill="#FFBF22"><title>2032: 41.27566593</title></circle>
	<circle cx="294.00" cy="105.70" data-y="43.33648875" data-x="2033" r="4" fill="#FFBF22"><title>2033: 43.33648875</title></circle>
	<circle cx="312.67" cy="98.12" data-y="45.33550068" data-x="2034" r="4" fill="#FFBF22"><title>2034: 45.33550068</title></circle>
	<circle cx="331.33" cy="89.31" data-y="47.65975215" data-x="2035" r="4" fill="#FFBF22"><title>2035: 47.65975215</title></circle>
	<circle cx="350.00" cy="81.69" data-y="49.66879568" data-x="2036" r="4" fill="#FFBF22"><title>2036: 49.66879568</title></circle>
	<circle cx="368.67" cy="75.05" data-y="51.42138712" data-x="2037" r="4" fill="#FFBF22"><title>2037: 51.42138712</title></circle>
	<circle cx="387.33" cy="68.91" data-y="53.03978581" data-x="2038" r="4" fill="#FFBF22"><title>2038: 53.03978581</title></circle>
	<circle cx="406.00" cy="63.24" data-y="54.53570185" data-x="2039" r="4" fill="#FFBF22"><title>2039: 54.53570185</title></circle>
	<circle cx="424.67" cy="57.72" data-y="55.99234164" data-x="2040" r="4" fill="#FFBF22"><title>2040: 55.99234164</title></circle>
	<circle cx="443.33" cy="52.99" data-y="57.23768831" data-x="2041" r="4" fill="#FFBF22"><title>2041: 57.23768831</title></circle>
	<circle cx="462.00" cy="49.68" data-y="58.11107252" data-x="2042" r="4" fill="#FFBF22"><title>2042: 58.11107252</title></circle>
	<circle cx="480.67" cy="47.94" data-y="58.57101837" data-x="2043" r="4" fill="#FFBF22"><title>2043: 58.57101837</title></circle>
	<circle cx="499.33" cy="46.95" data-y="58.83208366" data-x="2044" r="4" fill="#FFBF22"><title>2044: 58.83208366</title></circle>
	<circle cx="518.00" cy="46.28" data-y="59.00813735" data-x="2045" r="4" fill="#FFBF22"><title>2045: 59.00813735</title></circle>
	<circle cx="536.67" cy="45.85" data-y="59.1215151" data-x="2046" r="4" fill="#FFBF22"><title>2046: 59.1215151</title></circle>
	<circle cx="555.33" cy="45.49" data-y="59.21749481" data-x="2047" r="4" fill="#FFBF22"><title>2047: 59.21749481</title></circle>
	<circle cx="574.00" cy="45.20" data-y="59.29371378" data-x="2048" r="4" fill="#FFBF22"><title>2048: 59.29371378</title></circle>
	<circle cx="592.67" cy="45.04" data-y="59.33646541" data-x="2049" r="4" fill="#FFBF22"><title>2049: 59.33646541</title></circle>
	<circle cx="611.33" cy="45.56" data-y="59.1998397" data-x="2050" r="4" fill="#FFBF22"><title>2050: 59.1998397</title></circle>
</g>
<g data-scenario="system-transformation" class="data-series">	<path d="M 70.00,143.24L 88.67,142.01L 107.33,142.83L 126.00,143.46L 144.67,143.51L 163.33,142.76L 182.00,141.54L 200.67,139.88L 219.33,137.73L 238.00,135.30L 256.67,132.19L 275.33,128.63L 294.00,124.53L 312.67,120.00L 331.33,114.20L 350.00,108.33L 368.67,102.79L 387.33,97.72L 406.00,93.26L 424.67,89.37L 443.33,85.76L 462.00,82.88L 480.67,80.83L 499.33,79.54L 518.00,78.30L 536.67,76.83L 555.33,75.75L 574.00,74.57L 592.67,73.41L 611.33,72.40" id="System Transformation" class="line" stroke="#5BCBF5" stroke-width="3" stroke-linecap="round"><title>System Transformation</title></path>
	<circle cx="70.00" cy="143.24" data-y="33.43558567" data-x="2021" r="4" fill="#5BCBF5"><title>2021: 33.43558567</title></circle>
	<circle cx="88.67" cy="142.01" data-y="33.75834916" data-x="2022" r="4" fill="#5BCBF5"><title>2022: 33.75834916</title></circle>
	<circle cx="107.33" cy="142.83" data-y="33.54184727" data-x="2023" r="4" fill="#5BCBF5"><title>2023: 33.54184727</title></circle>
	<circle cx="126.00" cy="143.46" data-y="33.37592049" data-x="2024" r="4" fill="#5BCBF5"><title>2024: 33.37592049</title></circle>
	<circle cx="144.67" cy="143.51" data-y="33.36419616" data-x="2025" r="4" fill="#5BCBF5"><title>2025: 33.36419616</title></circle>
	<circle cx="163.33" cy="142.76" data-y="33.56080773" data-x="2026" r="4" fill="#5BCBF5"><title>2026: 33.56080773</title></circle>
	<circle cx="182.00" cy="141.54" data-y="33.88381677" data-x="2027" r="4" fill="#5BCBF5"><title>2027: 33.88381677</title></circle>
	<circle cx="200.67" cy="139.88" data-y="34.32175691" data-x="2028" r="4" fill="#5BCBF5"><title>2028: 34.32175691</title></circle>
	<circle cx="219.33" cy="137.73" data-y="34.88899105" data-x="2029" r="4" fill="#5BCBF5"><title>2029: 34.88899105</title></circle>
	<circle cx="238.00" cy="135.30" data-y="35.52765278" data-x="2030" r="4" fill="#5BCBF5"><title>2030: 35.52765278</title></circle>
	<circle cx="256.67" cy="132.19" data-y="36.34801364" data-x="2031" r="4" fill="#5BCBF5"><title>2031: 36.34801364</title></circle>
	<circle cx="275.33" cy="128.63" data-y="37.28748882" data-x="2032" r="4" fill="#5BCBF5"><title>2032: 37.28748882</title></circle>
	<circle cx="294.00" cy="124.53" data-y="38.36915688" data-x="2033" r="4" fill="#5BCBF5"><title>2033: 38.36915688</title></circle>
	<circle cx="312.67" cy="120.00" data-y="39.56332956" data-x="2034" r="4" fill="#5BCBF5"><title>2034: 39.56332956</title></circle>
	<circle cx="331.33" cy="114.20" data-y="41.09364538" data-x="2035" r="4" fill="#5BCBF5"><title>2035: 41.09364538</title></circle>
	<circle cx="350.00" cy="108.33" data-y="42.64198138" data-x="2036" r="4" fill="#5BCBF5"><title>2036: 42.64198138</title></circle>
	<circle cx="368.67" cy="102.79" data-y="44.10268546" data-x="2037" r="4" fill="#5BCBF5"><title>2037: 44.10268546</title></circle>
	<circle cx="387.33" cy="97.72" data-y="45.43967265" data-x="2038" r="4" fill="#5BCBF5"><title>2038: 45.43967265</title></circle>
	<circle cx="406.00" cy="93.26" data-y="46.61599399" data-x="2039" r="4" fill="#5BCBF5"><title>2039: 46.61599399</title></circle>
	<circle cx="424.67" cy="89.37" data-y="47.64379795" data-x="2040" r="4" fill="#5BCBF5"><title>2040: 47.64379795</title></circle>
	<circle cx="443.33" cy="85.76" data-y="48.59662621" data-x="2041" r="4" fill="#5BCBF5"><title>2041: 48.59662621</title></circle>
	<circle cx="462.00" cy="82.88" data-y="49.35479848" data-x="2042" r="4" fill="#5BCBF5"><title>2042: 49.35479848</title></circle>
	<circle cx="480.67" cy="80.83" data-y="49.89466967" data-x="2043" r="4" fill="#5BCBF5"><title>2043: 49.89466967</title></circle>
	<circle cx="499.33" cy="79.54" data-y="50.23523039" data-x="2044" r="4" fill="#5BCBF5"><title>2044: 50.23523039</title></circle>
	<circle cx="518.00" cy="78.30" data-y="50.5640014" data-x="2045" r="4" fill="#5BCBF5"><title>2045: 50.5640014</title></circle>
	<circle cx="536.67" cy="76.83" data-y="50.94980362" data-x="2046" r="4" fill="#5BCBF5"><title>2046: 50.94980362</title></circle>
	<circle cx="555.33" cy="75.75" data-y="51.23585846" data-x="2047" r="4" fill="#5BCBF5"><title>2047: 51.23585846</title></circle>
	<circle cx="574.00" cy="74.57" data-y="51.54737867" data-x="2048" r="4" fill="#5BCBF5"><title>2048: 51.54737867</title></circle>
	<circle cx="592.67" cy="73.41" data-y="51.85287765" data-x="2049" r="4" fill="#5BCBF5"><title>2049: 51.85287765</title></circle>
	<circle cx="611.33" cy="72.40" data-y="52.12057449" data-x="2050" r="4" fill="#5BCBF5"><title>2050: 52.12057449</title></circle>
</g>
<g data-scenario="leading-the-way" class="data-series">	<path d="M 70.00,143.24L 88.67,145.73L 107.33,147.84L 126.00,148.55L 144.67,148.41L 163.33,147.10L 182.00,144.94L 200.67,141.64L 219.33,137.72L 238.00,132.82L 256.67,125.07L 275.33,117.71L 294.00,110.32L 312.67,103.25L 331.33,95.48L 350.00,88.01L 368.67,82.48L 387.33,78.00L 406.00,73.97L 424.67,70.80L 443.33,67.02L 462.00,64.95L 480.67,63.63L 499.33,63.33L 518.00,63.42L 536.67,63.48L 555.33,63.83L 574.00,64.40L 592.67,65.03L 611.33,66.20" id="Leading The Way" class="line" stroke="#C2CD23" stroke-width="3" stroke-linecap="round"><title>Leading The Way</title></path>
	<circle cx="70.00" cy="143.24" data-y="33.43375106" data-x="2021" r="4" fill="#C2CD23"><title>2021: 33.43375106</title></circle>
	<circle cx="88.67" cy="145.73" data-y="32.77733992" data-x="2022" r="4" fill="#C2CD23"><title>2022: 32.77733992</title></circle>
	<circle cx="107.33" cy="147.84" data-y="32.22142352" data-x="2023" r="4" fill="#C2CD23"><title>2023: 32.22142352</title></circle>
	<circle cx="126.00" cy="148.55" data-y="32.03461489" data-x="2024" r="4" fill="#C2CD23"><title>2024: 32.03461489</title></circle>
	<circle cx="144.67" cy="148.41" data-y="32.07032952" data-x="2025" r="4" fill="#C2CD23"><title>2025: 32.07032952</title></circle>
	<circle cx="163.33" cy="147.10" data-y="32.41502781" data-x="2026" r="4" fill="#C2CD23"><title>2026: 32.41502781</title></circle>
	<circle cx="182.00" cy="144.94" data-y="32.98519475" data-x="2027" r="4" fill="#C2CD23"><title>2027: 32.98519475</title></circle>
	<circle cx="200.67" cy="141.64" data-y="33.85619664" data-x="2028" r="4" fill="#C2CD23"><title>2028: 33.85619664</title></circle>
	<circle cx="219.33" cy="137.72" data-y="34.8904495" data-x="2029" r="4" fill="#C2CD23"><title>2029: 34.8904495</title></circle>
	<circle cx="238.00" cy="132.82" data-y="36.18402648" data-x="2030" r="4" fill="#C2CD23"><title>2030: 36.18402648</title></circle>
	<circle cx="256.67" cy="125.07" data-y="38.22802534" data-x="2031" r="4" fill="#C2CD23"><title>2031: 38.22802534</title></circle>
	<circle cx="275.33" cy="117.71" data-y="40.16701514" data-x="2032" r="4" fill="#C2CD23"><title>2032: 40.16701514</title></circle>
	<circle cx="294.00" cy="110.32" data-y="42.11739202" data-x="2033" r="4" fill="#C2CD23"><title>2033: 42.11739202</title></circle>
	<circle cx="312.67" cy="103.25" data-y="43.98225568" data-x="2034" r="4" fill="#C2CD23"><title>2034: 43.98225568</title></circle>
	<circle cx="331.33" cy="95.48" data-y="46.03215186" data-x="2035" r="4" fill="#C2CD23"><title>2035: 46.03215186</title></circle>
	<circle cx="350.00" cy="88.01" data-y="48.00282679" data-x="2036" r="4" fill="#C2CD23"><title>2036: 48.00282679</title></circle>
	<circle cx="368.67" cy="82.48" data-y="49.46163426" data-x="2037" r="4" fill="#C2CD23"><title>2037: 49.46163426</title></circle>
	<circle cx="387.33" cy="78.00" data-y="50.64180493" data-x="2038" r="4" fill="#C2CD23"><title>2038: 50.64180493</title></circle>
	<circle cx="406.00" cy="73.97" data-y="51.70516519" data-x="2039" r="4" fill="#C2CD23"><title>2039: 51.70516519</title></circle>
	<circle cx="424.67" cy="70.80" data-y="52.54056502" data-x="2040" r="4" fill="#C2CD23"><title>2040: 52.54056502</title></circle>
	<circle cx="443.33" cy="67.02" data-y="53.5372376" data-x="2041" r="4" fill="#C2CD23"><title>2041: 53.5372376</title></circle>
	<circle cx="462.00" cy="64.95" data-y="54.0840127" data-x="2042" r="4" fill="#C2CD23"><title>2042: 54.0840127</title></circle>
	<circle cx="480.67" cy="63.63" data-y="54.43176293" data-x="2043" r="4" fill="#C2CD23"><title>2043: 54.43176293</title></circle>
	<circle cx="499.33" cy="63.33" data-y="54.51142989" data-x="2044" r="4" fill="#C2CD23"><title>2044: 54.51142989</title></circle>
	<circle cx="518.00" cy="63.42" data-y="54.48712212" data-x="2045" r="4" fill="#C2CD23"><title>2045: 54.48712212</title></circle>
	<circle cx="536.67" cy="63.48" data-y="54.47154279" data-x="2046" r="4" fill="#C2CD23"><title>2046: 54.47154279</title></circle>
	<circle cx="555.33" cy="63.83" data-y="54.37922336" data-x="2047" r="4" fill="#C2CD23"><title>2047: 54.37922336</title></circle>
	<circle cx="574.00" cy="64.40" data-y="54.22987807" data-x="2048" r="4" fill="#C2CD23"><title>2048: 54.22987807</title></circle>
	<circle cx="592.67" cy="65.03" data-y="54.06261855" data-x="2049" r="4" fill="#C2CD23"><title>2049: 54.06261855</title></circle>
	<circle cx="611.33" cy="66.20" data-y="53.75379989" data-x="2050" r="4" fill="#C2CD23"><title>2050: 53.75379989</title></circle>
</g>
<g data-scenario="planning-scenario" class="data-series">	<path d="M 70.00,143.35L 88.67,141.77L 107.33,140.98L 126.00,139.92L 144.67,138.20L 163.33,135.59L 182.00,131.91L 200.67,127.02L 219.33,121.07L 238.00,113.13L 256.67,105.86L 275.33,98.68L 294.00,91.02L 312.67,83.36L 331.33,73.41L 350.00,64.94L 368.67,57.56L 387.33,50.44L 406.00,43.82L 424.67,37.79L 443.33,32.53L 462.00,27.87L 480.67,23.87L 499.33,20.51L 518.00,17.66L 536.67,15.24L 555.33,12.83L 574.00,10.54L 592.67,10.11L 611.33,10.00" id="NPg Planning Scenario" class="line" stroke="#ab1236" stroke-width="3" stroke-linecap="round"><title>NPg Planning Scenario</title></path>
	<circle cx="70.00" cy="143.35" data-y="33.40503555" data-x="2021" r="4" fill="#ab1236"><title>2021: 33.40503555</title></circle>
	<circle cx="88.67" cy="141.77" data-y="33.82164533" data-x="2022" r="4" fill="#ab1236"><title>2022: 33.82164533</title></circle>
	<circle cx="107.33" cy="140.98" data-y="34.03005886" data-x="2023" r="4" fill="#ab1236"><title>2023: 34.03005886</title></circle>
	<circle cx="126.00" cy="139.92" data-y="34.3110803" data-x="2024" r="4" fill="#ab1236"><title>2024: 34.3110803</title></circle>
	<circle cx="144.67" cy="138.20" data-y="34.76348244" data-x="2025" r="4" fill="#ab1236"><title>2025: 34.76348244</title></circle>
	<circle cx="163.33" cy="135.59" data-y="35.45166686" data-x="2026" r="4" fill="#ab1236"><title>2026: 35.45166686</title></circle>
	<circle cx="182.00" cy="131.91" data-y="36.42195228" data-x="2027" r="4" fill="#ab1236"><title>2027: 36.42195228</title></circle>
	<circle cx="200.67" cy="127.02" data-y="37.71293353" data-x="2028" r="4" fill="#ab1236"><title>2028: 37.71293353</title></circle>
	<circle cx="219.33" cy="121.07" data-y="39.28087244" data-x="2029" r="4" fill="#ab1236"><title>2029: 39.28087244</title></circle>
	<circle cx="238.00" cy="113.13" data-y="41.37497229" data-x="2030" r="4" fill="#ab1236"><title>2030: 41.37497229</title></circle>
	<circle cx="256.67" cy="105.86" data-y="43.29366663" data-x="2031" r="4" fill="#ab1236"><title>2031: 43.29366663</title></circle>
	<circle cx="275.33" cy="98.68" data-y="45.18812174" data-x="2032" r="4" fill="#ab1236"><title>2032: 45.18812174</title></circle>
	<circle cx="294.00" cy="91.02" data-y="47.20681545" data-x="2033" r="4" fill="#ab1236"><title>2033: 47.20681545</title></circle>
	<circle cx="312.67" cy="83.36" data-y="49.22864071" data-x="2034" r="4" fill="#ab1236"><title>2034: 49.22864071</title></circle>
	<circle cx="331.33" cy="73.41" data-y="51.85161932" data-x="2035" r="4" fill="#ab1236"><title>2035: 51.85161932</title></circle>
	<circle cx="350.00" cy="64.94" data-y="54.08770224" data-x="2036" r="4" fill="#ab1236"><title>2036: 54.08770224</title></circle>
	<circle cx="368.67" cy="57.56" data-y="56.03417942" data-x="2037" r="4" fill="#ab1236"><title>2037: 56.03417942</title></circle>
	<circle cx="387.33" cy="50.44" data-y="57.9104878" data-x="2038" r="4" fill="#ab1236"><title>2038: 57.9104878</title></circle>
	<circle cx="406.00" cy="43.82" data-y="59.65784184" data-x="2039" r="4" fill="#ab1236"><title>2039: 59.65784184</title></circle>
	<circle cx="424.67" cy="37.79" data-y="61.24789425" data-x="2040" r="4" fill="#ab1236"><title>2040: 61.24789425</title></circle>
	<circle cx="443.33" cy="32.53" data-y="62.63593159" data-x="2041" r="4" fill="#ab1236"><title>2041: 62.63593159</title></circle>
	<circle cx="462.00" cy="27.87" data-y="63.86516955" data-x="2042" r="4" fill="#ab1236"><title>2042: 63.86516955</title></circle>
	<circle cx="480.67" cy="23.87" data-y="64.91904702" data-x="2043" r="4" fill="#ab1236"><title>2043: 64.91904702</title></circle>
	<circle cx="499.33" cy="20.51" data-y="65.80565075" data-x="2044" r="4" fill="#ab1236"><title>2044: 65.80565075</title></circle>
	<circle cx="518.00" cy="17.66" data-y="66.55681841" data-x="2045" r="4" fill="#ab1236"><title>2045: 66.55681841</title></circle>
	<circle cx="536.67" cy="15.24" data-y="67.19682274" data-x="2046" r="4" fill="#ab1236"><title>2046: 67.19682274</title></circle>
	<circle cx="555.33" cy="12.83" data-y="67.83146033" data-x="2047" r="4" fill="#ab1236"><title>2047: 67.83146033</title></circle>
	<circle cx="574.00" cy="10.54" data-y="68.43663282" data-x="2048" r="4" fill="#ab1236"><title>2048: 68.43663282</title></circle>
	<circle cx="592.67" cy="10.11" data-y="68.54822159" data-x="2049" r="4" fill="#ab1236"><title>2049: 68.54822159</title></circle>
	<circle cx="611.33" cy="10.00" data-y="68.57801292" data-x="2050" r="4" fill="#ab1236"><title>2050: 68.57801292</title></circle>
</g>
<g data-scenario="falling-short" class="data-series">	<path d="M 70.00,143.23L 88.67,137.89L 107.33,136.66L 126.00,135.96L 144.67,135.33L 163.33,134.96L 182.00,134.14L 200.67,132.85L 219.33,131.17L 238.00,129.12L 256.67,126.88L 275.33,124.38L 294.00,121.53L 312.67,118.37L 331.33,113.76L 350.00,109.17L 368.67,104.41L 387.33,99.31L 406.00,93.96L 424.67,88.41L 443.33,82.62L 462.00,77.38L 480.67,72.30L 499.33,67.44L 518.00,62.62L 536.67,58.87L 555.33,55.56L 574.00,53.06L 592.67,50.37L 611.33,47.56" id="Falling Short" class="line" stroke="#827B7A" stroke-width="3" stroke-linecap="round"><title>Falling Short</title></path>
	<circle cx="70.00" cy="143.23" data-y="33.43701218" data-x="2021" r="4" fill="#827B7A"><title>2021: 33.43701218</title></circle>
	<circle cx="88.67" cy="137.89" data-y="34.84439246" data-x="2022" r="4" fill="#827B7A"><title>2022: 34.84439246</title></circle>
	<circle cx="107.33" cy="136.66" data-y="35.16881298" data-x="2023" r="4" fill="#827B7A"><title>2023: 35.16881298</title></circle>
	<circle cx="126.00" cy="135.96" data-y="35.35561899" data-x="2024" r="4" fill="#827B7A"><title>2024: 35.35561899</title></circle>
	<circle cx="144.67" cy="135.33" data-y="35.52168622" data-x="2025" r="4" fill="#827B7A"><title>2025: 35.52168622</title></circle>
	<circle cx="163.33" cy="134.96" data-y="35.61882631" data-x="2026" r="4" fill="#827B7A"><title>2026: 35.61882631</title></circle>
	<circle cx="182.00" cy="134.14" data-y="35.8357711" data-x="2027" r="4" fill="#827B7A"><title>2027: 35.8357711</title></circle>
	<circle cx="200.67" cy="132.85" data-y="36.17483082" data-x="2028" r="4" fill="#827B7A"><title>2028: 36.17483082</title></circle>
	<circle cx="219.33" cy="131.17" data-y="36.61683147" data-x="2029" r="4" fill="#827B7A"><title>2029: 36.61683147</title></circle>
	<circle cx="238.00" cy="129.12" data-y="37.15874382" data-x="2030" r="4" fill="#827B7A"><title>2030: 37.15874382</title></circle>
	<circle cx="256.67" cy="126.88" data-y="37.74987172" data-x="2031" r="4" fill="#827B7A"><title>2031: 37.74987172</title></circle>
	<circle cx="275.33" cy="124.38" data-y="38.40967609" data-x="2032" r="4" fill="#827B7A"><title>2032: 38.40967609</title></circle>
	<circle cx="294.00" cy="121.53" data-y="39.1606707" data-x="2033" r="4" fill="#827B7A"><title>2033: 39.1606707</title></circle>
	<circle cx="312.67" cy="118.37" data-y="39.99475081" data-x="2034" r="4" fill="#827B7A"><title>2034: 39.99475081</title></circle>
	<circle cx="331.33" cy="113.76" data-y="41.21084041" data-x="2035" r="4" fill="#827B7A"><title>2035: 41.21084041</title></circle>
	<circle cx="350.00" cy="109.17" data-y="42.41981929" data-x="2036" r="4" fill="#827B7A"><title>2036: 42.41981929</title></circle>
	<circle cx="368.67" cy="104.41" data-y="43.67678309" data-x="2037" r="4" fill="#827B7A"><title>2037: 43.67678309</title></circle>
	<circle cx="387.33" cy="99.31" data-y="45.02109709" data-x="2038" r="4" fill="#827B7A"><title>2038: 45.02109709</title></circle>
	<circle cx="406.00" cy="93.96" data-y="46.43382307" data-x="2039" r="4" fill="#827B7A"><title>2039: 46.43382307</title></circle>
	<circle cx="424.67" cy="88.41" data-y="47.89524038" data-x="2040" r="4" fill="#827B7A"><title>2040: 47.89524038</title></circle>
	<circle cx="443.33" cy="82.62" data-y="49.42349685" data-x="2041" r="4" fill="#827B7A"><title>2041: 49.42349685</title></circle>
	<circle cx="462.00" cy="77.38" data-y="50.8051905" data-x="2042" r="4" fill="#827B7A"><title>2042: 50.8051905</title></circle>
	<circle cx="480.67" cy="72.30" data-y="52.14539563" data-x="2043" r="4" fill="#827B7A"><title>2043: 52.14539563</title></circle>
	<circle cx="499.33" cy="67.44" data-y="53.42837637" data-x="2044" r="4" fill="#827B7A"><title>2044: 53.42837637</title></circle>
	<circle cx="518.00" cy="62.62" data-y="54.69967921" data-x="2045" r="4" fill="#827B7A"><title>2045: 54.69967921</title></circle>
	<circle cx="536.67" cy="58.87" data-y="55.68924769" data-x="2046" r="4" fill="#827B7A"><title>2046: 55.68924769</title></circle>
	<circle cx="555.33" cy="55.56" data-y="56.5613165" data-x="2047" r="4" fill="#827B7A"><title>2047: 56.5613165</title></circle>
	<circle cx="574.00" cy="53.06" data-y="57.22036048" data-x="2048" r="4" fill="#827B7A"><title>2048: 57.22036048</title></circle>
	<circle cx="592.67" cy="50.37" data-y="57.92868641" data-x="2049" r="4" fill="#827B7A"><title>2049: 57.92868641</title></circle>
	<circle cx="611.33" cy="47.56" data-y="58.6698601" data-x="2050" r="4" fill="#827B7A"><title>2050: 58.6698601</title></circle>
</g>
</svg>
