<svg width="640" height="320" viewBox="0 0 640 320" xmlns="http://www.w3.org/2000/svg" style="overflow:display" preserveAspectRatio="xMinYMin meet" overflow="visible">
<defs>
	<style>
	.data-series path.line { fill-opacity: 0; }
	.data-series path.line.dotted { stroke-dasharray: 12 20 }
	.data-series circle { display: none; }
	.data-series:hover path.line, .data-series.on path.line { stroke-width: 5; }
	.data-series:hover circle, .data-series.on circle { display: inline; }
	.data-series circle:hover, .data-series circle.on { r: 6px!important; fill: black; }
	.grid { font-family: "Helvetica Neue",Helvetica,Arial,"Lucida Grande",sans-serif; }
	.grid line { stroke: rgb(0,0,0); stroke-width: 2; stroke-linecap: round; }
	.grid.grid-x text { text-anchor: middle; dominant-baseline: hanging; transform: translateY(10px); }
	.grid.grid-y text { text-anchor: end; dominant-baseline: middle; transform: translateX(-10px); }
	</style>
</defs>
<g class="grid grid-y">
	<line x1="70" y1="270" x2="630" y2="270" data-left="70"></line>
	<text x="70" y="270" text-anchor="end">0</text>
	<text x="70" y="211.830032272347" text-anchor="end">100</text>
	<text x="70" y="153.660064544694" text-anchor="end">200</text>
	<text x="70" y="95.4900968170405" text-anchor="end">300</text>
	<text x="70" y="37.3201290893874" text-anchor="end">400</text>
	<text style="text-anchor:middle;dominant-baseline:hanging;font-weight:bold;transform: translateY(140px) rotate(-90deg);">Cumulative emissions (MtCO2)</text>
</g>
<g class="grid grid-x">
	<line class="tick" x1="238" y1="270" x2="238" y2="275"></line>
	<text x="238" y="270" text-anchor="middle">2030</text>
	<line class="tick" x1="424.666666666667" y1="270" x2="424.666666666667" y2="275"></line>
	<text x="424.666666666667" y="270" text-anchor="middle">2040</text>
	<line class="tick" x1="611.333333333333" y1="270" x2="611.333333333333" y2="275"></line>
	<text x="611.333333333333" y="270" text-anchor="middle">2050</text>
	<text style="text-anchor:middle;dominant-baseline:hanging;font-weight:bold;transform: translateY(140px) rotate(-90deg);"></text>
</g>
<g data-scenario="planning-scenario" class="data-series">	<path d="M 70.00,229.24L 88.67,209.24L 107.33,189.97L 126.00,171.17L 144.67,153.20L 163.33,136.72L 182.00,121.49L 200.67,107.42L 219.33,94.45L 238.00,82.69L 256.67,72.02L 275.33,62.57L 294.00,54.22L 312.67,46.91L 331.33,40.58L 350.00,35.00L 368.67,30.14L 387.33,25.92L 406.00,22.32L 424.67,19.31L 443.33,16.92L 462.00,15.01L 480.67,13.51L 499.33,12.35L 518.00,11.51L 536.67,10.90L 555.33,10.52L 574.00,10.29L 592.67,10.13L 611.33,10.00" id="NPg Planning Scenario" class="line" stroke="#ab1236" stroke-width="3" stroke-linecap="round"><title>NPg Planning Scenario</title></path>
	<circle cx="70.00" cy="229.24" data-y="70.06545692" data-x="2021" r="4" fill="#ab1236"><title>2021: 70.06545692</title></circle>
	<circle cx="88.67" cy="209.24" data-y="104.4599061" data-x="2022" r="4" fill="#ab1236"><title>2022: 104.4599061</title></circle>
	<circle cx="107.33" cy="189.97" data-y="137.5810456" data-x="2023" r="4" fill="#ab1236"><title>2023: 137.5810456</title></circle>
	<circle cx="126.00" cy="171.17" data-y="169.902966" data-x="2024" r="4" fill="#ab1236"><title>2024: 169.902966</title></circle>
	<circle cx="144.67" cy="153.20" data-y="200.7916478" data-x="2025" r="4" fill="#ab1236"><title>2025: 200.7916478</title></circle>
	<circle cx="163.33" cy="136.72" data-y="229.1237929" data-x="2026" r="4" fill="#ab1236"><title>2026: 229.1237929</title></circle>
	<circle cx="182.00" cy="121.49" data-y="255.3084656" data-x="2027" r="4" fill="#ab1236"><title>2027: 255.3084656</title></circle>
	<circle cx="200.67" cy="107.42" data-y="279.4892228" data-x="2028" r="4" fill="#ab1236"><title>2028: 279.4892228</title></circle>
	<circle cx="219.33" cy="94.45" data-y="301.7886424" data-x="2029" r="4" fill="#ab1236"><title>2029: 301.7886424</title></circle>
	<circle cx="238.00" cy="82.69" data-y="322.012292" data-x="2030" r="4" fill="#ab1236"><title>2030: 322.012292</title></circle>
	<circle cx="256.67" cy="72.02" data-y="340.3492781" data-x="2031" r="4" fill="#ab1236"><title>2031: 340.3492781</title></circle>
	<circle cx="275.33" cy="62.57" data-y="356.595675" data-x="2032" r="4" fill="#ab1236"><title>2032: 356.595675</title></circle>
	<circle cx="294.00" cy="54.22" data-y="370.9472473" data-x="2033" r="4" fill="#ab1236"><title>2033: 370.9472473</title></circle>
	<circle cx="312.67" cy="46.91" data-y="383.5055723" data-x="2034" r="4" fill="#ab1236"><title>2034: 383.5055723</title></circle>
	<circle cx="331.33" cy="40.58" data-y="394.3982189" data-x="2035" r="4" fill="#ab1236"><title>2035: 394.3982189</title></circle>
	<circle cx="350.00" cy="35.00" data-y="403.980291" data-x="2036" r="4" fill="#ab1236"><title>2036: 403.980291</title></circle>
	<circle cx="368.67" cy="30.14" data-y="412.3479034" data-x="2037" r="4" fill="#ab1236"><title>2037: 412.3479034</title></circle>
	<circle cx="387.33" cy="25.92" data-y="419.6023896" data-x="2038" r="4" fill="#ab1236"><title>2038: 419.6023896</title></circle>
	<circle cx="406.00" cy="22.32" data-y="425.7937983" data-x="2039" r="4" fill="#ab1236"><title>2039: 425.7937983</title></circle>
	<circle cx="424.67" cy="19.31" data-y="430.967188" data-x="2040" r="4" fill="#ab1236"><title>2040: 430.967188</title></circle>
	<circle cx="443.33" cy="16.92" data-y="435.0752984" data-x="2041" r="4" fill="#ab1236"><title>2041: 435.0752984</title></circle>
	<circle cx="462.00" cy="15.01" data-y="438.3546344" data-x="2042" r="4" fill="#ab1236"><title>2042: 438.3546344</title></circle>
	<circle cx="480.67" cy="13.51" data-y="440.9336532" data-x="2043" r="4" fill="#ab1236"><title>2043: 440.9336532</title></circle>
	<circle cx="499.33" cy="12.35" data-y="442.9286768" data-x="2044" r="4" fill="#ab1236"><title>2044: 442.9286768</title></circle>
	<circle cx="518.00" cy="11.51" data-y="444.3767342" data-x="2045" r="4" fill="#ab1236"><title>2045: 444.3767342</title></circle>
	<circle cx="536.67" cy="10.90" data-y="445.4257804" data-x="2046" r="4" fill="#ab1236"><title>2046: 445.4257804</title></circle>
	<circle cx="555.33" cy="10.52" data-y="446.0803099" data-x="2047" r="4" fill="#ab1236"><title>2047: 446.0803099</title></circle>
	<circle cx="574.00" cy="10.29" data-y="446.4610465" data-x="2048" r="4" fill="#ab1236"><title>2048: 446.4610465</title></circle>
	<circle cx="592.67" cy="10.13" data-y="446.7461743" data-x="2049" r="4" fill="#ab1236"><title>2049: 446.7461743</title></circle>
	<circle cx="611.33" cy="10.00" data-y="446.9660379" data-x="2050" r="4" fill="#ab1236"><title>2050: 446.9660379</title></circle>
</g>
</svg>
