<svg width="640" height="320" viewBox="0 0 640 320" xmlns="http://www.w3.org/2000/svg" style="overflow:display" preserveAspectRatio="xMinYMin meet" overflow="visible">
<defs>
	<style>
	.data-series path.line { fill-opacity: 0; }
	.data-series path.line.dotted { stroke-dasharray: 12 20 }
	.data-series circle { display: none; }
	.data-series:hover path.line, .data-series.on path.line { stroke-width: 5; }
	.data-series:hover circle, .data-series.on circle { display: inline; }
	.data-series circle:hover, .data-series circle.on { r: 6px!important; fill: black; }
	.grid { font-family: "Helvetica Neue",Helvetica,Arial,"Lucida Grande",sans-serif; }
	.grid line { stroke: rgb(0,0,0); stroke-width: 2; stroke-linecap: round; }
	.grid.grid-x text { text-anchor: middle; dominant-baseline: hanging; transform: translateY(10px); }
	.grid.grid-y text { text-anchor: end; dominant-baseline: middle; transform: translateX(-10px); }
	</style>
</defs>
<g class="grid grid-y">
	<line x1="90" y1="270" x2="630" y2="270" data-left="90"></line>
	<text x="90" y="270" text-anchor="end">0</text>
	<text x="90" y="212.271595165269" text-anchor="end">20,000</text>
	<text x="90" y="154.543190330539" text-anchor="end">40,000</text>
	<text x="90" y="96.8147854958079" text-anchor="end">60,000</text>
	<text x="90" y="39.0863806610772" text-anchor="end">80,000</text>
	<text style="text-anchor:middle;dominant-baseline:hanging;font-weight:bold;transform: translateY(140px) rotate(-90deg);">Number</text>
</g>
<g class="grid grid-x">
	<line class="tick" x1="252" y1="270" x2="252" y2="275"></line>
	<text x="252" y="270" text-anchor="middle">2030</text>
	<line class="tick" x1="432" y1="270" x2="432" y2="275"></line>
	<text x="432" y="270" text-anchor="middle">2040</text>
	<line class="tick" x1="612" y1="270" x2="612" y2="275"></line>
	<text x="612" y="270" text-anchor="middle">2050</text>
	<text style="text-anchor:middle;dominant-baseline:hanging;font-weight:bold;transform: translateY(140px) rotate(-90deg);"></text>
</g>
<g data-scenario="consumer-transformation" class="data-series">	<path d="M 90.00,269.59L 108.00,269.22L 126.00,268.81L 144.00,268.17L 162.00,267.19L 180.00,265.68L 198.00,264.01L 216.00,261.74L 234.00,258.65L 252.00,254.48L 270.00,248.85L 288.00,241.29L 306.00,231.27L 324.00,218.18L 342.00,201.81L 360.00,183.95L 378.00,164.66L 396.00,144.28L 414.00,123.52L 432.00,102.22L 450.00,81.70L 468.00,65.41L 486.00,55.64L 504.00,53.18L 522.00,50.98L 540.00,49.05L 558.00,47.13L 576.00,45.92L 594.00,44.44L 612.00,44.09" id="Consumer Transformation" class="line" stroke="#FFBF22" stroke-width="3" stroke-linecap="round"><title>Consumer Transformation</title></path>
	<circle cx="90.00" cy="269.59" data-y="141.4571608" data-x="2021" r="4" fill="#FFBF22"><title>2021: 141.4571608</title></circle>
	<circle cx="108.00" cy="269.22" data-y="268.5476759" data-x="2022" r="4" fill="#FFBF22"><title>2022: 268.5476759</title></circle>
	<circle cx="126.00" cy="268.81" data-y="410.9407815" data-x="2023" r="4" fill="#FFBF22"><title>2023: 410.9407815</title></circle>
	<circle cx="144.00" cy="268.17" data-y="632.8733598" data-x="2024" r="4" fill="#FFBF22"><title>2024: 632.8733598</title></circle>
	<circle cx="162.00" cy="267.19" data-y="973.3597892" data-x="2025" r="4" fill="#FFBF22"><title>2025: 973.3597892</title></circle>
	<circle cx="180.00" cy="265.68" data-y="1497.118666" data-x="2026" r="4" fill="#FFBF22"><title>2026: 1497.118666</title></circle>
	<circle cx="198.00" cy="264.01" data-y="2076.090613" data-x="2027" r="4" fill="#FFBF22"><title>2027: 2076.090613</title></circle>
	<circle cx="216.00" cy="261.74" data-y="2863.073515" data-x="2028" r="4" fill="#FFBF22"><title>2028: 2863.073515</title></circle>
	<circle cx="234.00" cy="258.65" data-y="3931.260925" data-x="2029" r="4" fill="#FFBF22"><title>2029: 3931.260925</title></circle>
	<circle cx="252.00" cy="254.48" data-y="5378.08186" data-x="2030" r="4" fill="#FFBF22"><title>2030: 5378.08186</title></circle>
	<circle cx="270.00" cy="248.85" data-y="7327.880107" data-x="2031" r="4" fill="#FFBF22"><title>2031: 7327.880107</title></circle>
	<circle cx="288.00" cy="241.29" data-y="9945.188921" data-x="2032" r="4" fill="#FFBF22"><title>2032: 9945.188921</title></circle>
	<circle cx="306.00" cy="231.27" data-y="13418.53346" data-x="2033" r="4" fill="#FFBF22"><title>2033: 13418.53346</title></circle>
	<circle cx="324.00" cy="218.18" data-y="17954.21966" data-x="2034" r="4" fill="#FFBF22"><title>2034: 17954.21966</title></circle>
	<circle cx="342.00" cy="201.81" data-y="23623.4925" data-x="2035" r="4" fill="#FFBF22"><title>2035: 23623.4925</title></circle>
	<circle cx="360.00" cy="183.95" data-y="29813.40166" data-x="2036" r="4" fill="#FFBF22"><title>2036: 29813.40166</title></circle>
	<circle cx="378.00" cy="164.66" data-y="36494.59665" data-x="2037" r="4" fill="#FFBF22"><title>2037: 36494.59665</title></circle>
	<circle cx="396.00" cy="144.28" data-y="43556.49554" data-x="2038" r="4" fill="#FFBF22"><title>2038: 43556.49554</title></circle>
	<circle cx="414.00" cy="123.52" data-y="50748.82752" data-x="2039" r="4" fill="#FFBF22"><title>2039: 50748.82752</title></circle>
	<circle cx="432.00" cy="102.22" data-y="58127.85786" data-x="2040" r="4" fill="#FFBF22"><title>2040: 58127.85786</title></circle>
	<circle cx="450.00" cy="81.70" data-y="65236.64446" data-x="2041" r="4" fill="#FFBF22"><title>2041: 65236.64446</title></circle>
	<circle cx="468.00" cy="65.41" data-y="70878.51539" data-x="2042" r="4" fill="#FFBF22"><title>2042: 70878.51539</title></circle>
	<circle cx="486.00" cy="55.64" data-y="74264.17381" data-x="2043" r="4" fill="#FFBF22"><title>2043: 74264.17381</title></circle>
	<circle cx="504.00" cy="53.18" data-y="75118.99166" data-x="2044" r="4" fill="#FFBF22"><title>2044: 75118.99166</title></circle>
	<circle cx="522.00" cy="50.98" data-y="75880.15588" data-x="2045" r="4" fill="#FFBF22"><title>2045: 75880.15588</title></circle>
	<circle cx="540.00" cy="49.05" data-y="76546.69216" data-x="2046" r="4" fill="#FFBF22"><title>2046: 76546.69216</title></circle>
	<circle cx="558.00" cy="47.13" data-y="77213.42077" data-x="2047" r="4" fill="#FFBF22"><title>2047: 77213.42077</title></circle>
	<circle cx="576.00" cy="45.92" data-y="77633.78517" data-x="2048" r="4" fill="#FFBF22"><title>2048: 77633.78517</title></circle>
	<circle cx="594.00" cy="44.44" data-y="78143.73296" data-x="2049" r="4" fill="#FFBF22"><title>2049: 78143.73296</title></circle>
	<circle cx="612.00" cy="44.09" data-y="78266.82095" data-x="2050" r="4" fill="#FFBF22"><title>2050: 78266.82095</title></circle>
</g>
<g data-scenario="system-transformation" class="data-series">	<path d="M 90.00,269.59L 108.00,269.30L 126.00,268.98L 144.00,268.52L 162.00,267.87L 180.00,266.93L 198.00,265.57L 216.00,263.61L 234.00,260.79L 252.00,257.58L 270.00,253.30L 288.00,247.62L 306.00,240.15L 324.00,230.67L 342.00,218.66L 360.00,206.40L 378.00,194.04L 396.00,181.76L 414.00,169.74L 432.00,158.20L 450.00,147.38L 468.00,137.91L 486.00,131.63L 504.00,132.52L 522.00,134.40L 540.00,136.69L 558.00,139.25L 576.00,142.04L 594.00,144.92L 612.00,147.88" id="System Transformation" class="line" stroke="#5BCBF5" stroke-width="3" stroke-linecap="round"><title>System Transformation</title></path>
	<circle cx="90.00" cy="269.59" data-y="141.4571608" data-x="2021" r="4" fill="#5BCBF5"><title>2021: 141.4571608</title></circle>
	<circle cx="108.00" cy="269.30" data-y="243.6587848" data-x="2022" r="4" fill="#5BCBF5"><title>2022: 243.6587848</title></circle>
	<circle cx="126.00" cy="268.98" data-y="352.4074258" data-x="2023" r="4" fill="#5BCBF5"><title>2023: 352.4074258</title></circle>
	<circle cx="144.00" cy="268.52" data-y="511.0550454" data-x="2024" r="4" fill="#5BCBF5"><title>2024: 511.0550454</title></circle>
	<circle cx="162.00" cy="267.87" data-y="737.8371061" data-x="2025" r="4" fill="#5BCBF5"><title>2025: 737.8371061</title></circle>
	<circle cx="180.00" cy="266.93" data-y="1063.88894" data-x="2026" r="4" fill="#5BCBF5"><title>2026: 1063.88894</title></circle>
	<circle cx="198.00" cy="265.57" data-y="1533.835174" data-x="2027" r="4" fill="#5BCBF5"><title>2027: 1533.835174</title></circle>
	<circle cx="216.00" cy="263.61" data-y="2212.170688" data-x="2028" r="4" fill="#5BCBF5"><title>2028: 2212.170688</title></circle>
	<circle cx="234.00" cy="260.79" data-y="3192.018241" data-x="2029" r="4" fill="#5BCBF5"><title>2029: 3192.018241</title></circle>
	<circle cx="252.00" cy="257.58" data-y="4304.170496" data-x="2030" r="4" fill="#5BCBF5"><title>2030: 4304.170496</title></circle>
	<circle cx="270.00" cy="253.30" data-y="5785.822305" data-x="2031" r="4" fill="#5BCBF5"><title>2031: 5785.822305</title></circle>
	<circle cx="288.00" cy="247.62" data-y="7754.375638" data-x="2032" r="4" fill="#5BCBF5"><title>2032: 7754.375638</title></circle>
	<circle cx="306.00" cy="240.15" data-y="10341.35967" data-x="2033" r="4" fill="#5BCBF5"><title>2033: 10341.35967</title></circle>
	<circle cx="324.00" cy="230.67" data-y="13626.6662" data-x="2034" r="4" fill="#5BCBF5"><title>2034: 13626.6662</title></circle>
	<circle cx="342.00" cy="218.66" data-y="17788.34675" data-x="2035" r="4" fill="#5BCBF5"><title>2035: 17788.34675</title></circle>
	<circle cx="360.00" cy="206.40" data-y="22035.15591" data-x="2036" r="4" fill="#5BCBF5"><title>2036: 22035.15591</title></circle>
	<circle cx="378.00" cy="194.04" data-y="26314.84737" data-x="2037" r="4" fill="#5BCBF5"><title>2037: 26314.84737</title></circle>
	<circle cx="396.00" cy="181.76" data-y="30569.45085" data-x="2038" r="4" fill="#5BCBF5"><title>2038: 30569.45085</title></circle>
	<circle cx="414.00" cy="169.74" data-y="34735.39392" data-x="2039" r="4" fill="#5BCBF5"><title>2039: 34735.39392</title></circle>
	<circle cx="432.00" cy="158.20" data-y="38732.41944" data-x="2040" r="4" fill="#5BCBF5"><title>2040: 38732.41944</title></circle>
	<circle cx="450.00" cy="147.38" data-y="42480.02666" data-x="2041" r="4" fill="#5BCBF5"><title>2041: 42480.02666</title></circle>
	<circle cx="468.00" cy="137.91" data-y="45763.50639" data-x="2042" r="4" fill="#5BCBF5"><title>2042: 45763.50639</title></circle>
	<circle cx="486.00" cy="131.63" data-y="47937.2696" data-x="2043" r="4" fill="#5BCBF5"><title>2043: 47937.2696</title></circle>
	<circle cx="504.00" cy="132.52" data-y="47631.43841" data-x="2044" r="4" fill="#5BCBF5"><title>2044: 47631.43841</title></circle>
	<circle cx="522.00" cy="134.40" data-y="46977.15382" data-x="2045" r="4" fill="#5BCBF5"><title>2045: 46977.15382</title></circle>
	<circle cx="540.00" cy="136.69" data-y="46186.64951" data-x="2046" r="4" fill="#5BCBF5"><title>2046: 46186.64951</title></circle>
	<circle cx="558.00" cy="139.25" data-y="45297.52512" data-x="2047" r="4" fill="#5BCBF5"><title>2047: 45297.52512</title></circle>
	<circle cx="576.00" cy="142.04" data-y="44331.63021" data-x="2048" r="4" fill="#5BCBF5"><title>2048: 44331.63021</title></circle>
	<circle cx="594.00" cy="144.92" data-y="43334.81843" data-x="2049" r="4" fill="#5BCBF5"><title>2049: 43334.81843</title></circle>
	<circle cx="612.00" cy="147.88" data-y="42309.18745" data-x="2050" r="4" fill="#5BCBF5"><title>2050: 42309.18745</title></circle>
</g>
<g data-scenario="leading-the-way" class="data-series">	<path d="M 90.00,269.59L 108.00,269.08L 126.00,268.59L 144.00,267.82L 162.00,266.65L 180.00,264.87L 198.00,262.93L 216.00,260.35L 234.00,256.93L 252.00,252.41L 270.00,246.49L 288.00,238.76L 306.00,228.77L 324.00,216.01L 342.00,200.44L 360.00,183.69L 378.00,165.76L 396.00,146.69L 414.00,126.83L 432.00,106.30L 450.00,86.65L 468.00,68.59L 486.00,54.51L 504.00,51.09L 522.00,52.11L 540.00,53.51L 558.00,55.22L 576.00,57.24L 594.00,59.57L 612.00,62.50" id="Leading The Way" class="line" stroke="#C2CD23" stroke-width="3" stroke-linecap="round"><title>Leading The Way</title></path>
	<circle cx="90.00" cy="269.59" data-y="141.4571608" data-x="2021" r="4" fill="#C2CD23"><title>2021: 141.4571608</title></circle>
	<circle cx="108.00" cy="269.08" data-y="318.6491878" data-x="2022" r="4" fill="#C2CD23"><title>2022: 318.6491878</title></circle>
	<circle cx="126.00" cy="268.59" data-y="489.2781377" data-x="2023" r="4" fill="#C2CD23"><title>2023: 489.2781377</title></circle>
	<circle cx="144.00" cy="267.82" data-y="755.4697386" data-x="2024" r="4" fill="#C2CD23"><title>2024: 755.4697386</title></circle>
	<circle cx="162.00" cy="266.65" data-y="1160.974087" data-x="2025" r="4" fill="#C2CD23"><title>2025: 1160.974087</title></circle>
	<circle cx="180.00" cy="264.87" data-y="1778.810318" data-x="2026" r="4" fill="#C2CD23"><title>2026: 1778.810318</title></circle>
	<circle cx="198.00" cy="262.93" data-y="2449.609115" data-x="2027" r="4" fill="#C2CD23"><title>2027: 2449.609115</title></circle>
	<circle cx="216.00" cy="260.35" data-y="3343.520366" data-x="2028" r="4" fill="#C2CD23"><title>2028: 3343.520366</title></circle>
	<circle cx="234.00" cy="256.93" data-y="4529.23153" data-x="2029" r="4" fill="#C2CD23"><title>2029: 4529.23153</title></circle>
	<circle cx="252.00" cy="252.41" data-y="6094.428723" data-x="2030" r="4" fill="#C2CD23"><title>2030: 6094.428723</title></circle>
	<circle cx="270.00" cy="246.49" data-y="8143.848142" data-x="2031" r="4" fill="#C2CD23"><title>2031: 8143.848142</title></circle>
	<circle cx="288.00" cy="238.76" data-y="10821.44116" data-x="2032" r="4" fill="#C2CD23"><title>2032: 10821.44116</title></circle>
	<circle cx="306.00" cy="228.77" data-y="14282.48528" data-x="2033" r="4" fill="#C2CD23"><title>2033: 14282.48528</title></circle>
	<circle cx="324.00" cy="216.01" data-y="18703.93596" data-x="2034" r="4" fill="#C2CD23"><title>2034: 18703.93596</title></circle>
	<circle cx="342.00" cy="200.44" data-y="24099.67683" data-x="2035" r="4" fill="#C2CD23"><title>2035: 24099.67683</title></circle>
	<circle cx="360.00" cy="183.69" data-y="29900.96599" data-x="2036" r="4" fill="#C2CD23"><title>2036: 29900.96599</title></circle>
	<circle cx="378.00" cy="165.76" data-y="36114.3799" data-x="2037" r="4" fill="#C2CD23"><title>2037: 36114.3799</title></circle>
	<circle cx="396.00" cy="146.69" data-y="42720.43277" data-x="2038" r="4" fill="#C2CD23"><title>2038: 42720.43277</title></circle>
	<circle cx="414.00" cy="126.83" data-y="49602.6969" data-x="2039" r="4" fill="#C2CD23"><title>2039: 49602.6969</title></circle>
	<circle cx="432.00" cy="106.30" data-y="56712.45779" data-x="2040" r="4" fill="#C2CD23"><title>2040: 56712.45779</title></circle>
	<circle cx="450.00" cy="86.65" data-y="63522.50266" data-x="2041" r="4" fill="#C2CD23"><title>2041: 63522.50266</title></circle>
	<circle cx="468.00" cy="68.59" data-y="69777.3239" data-x="2042" r="4" fill="#C2CD23"><title>2042: 69777.3239</title></circle>
	<circle cx="486.00" cy="54.51" data-y="74657.66526" data-x="2043" r="4" fill="#C2CD23"><title>2043: 74657.66526</title></circle>
	<circle cx="504.00" cy="51.09" data-y="75841.8712" data-x="2044" r="4" fill="#C2CD23"><title>2044: 75841.8712</title></circle>
	<circle cx="522.00" cy="52.11" data-y="75487.2086" data-x="2045" r="4" fill="#C2CD23"><title>2045: 75487.2086</title></circle>
	<circle cx="540.00" cy="53.51" data-y="75002.04641" data-x="2046" r="4" fill="#C2CD23"><title>2046: 75002.04641</title></circle>
	<circle cx="558.00" cy="55.22" data-y="74411.90907" data-x="2047" r="4" fill="#C2CD23"><title>2047: 74411.90907</title></circle>
	<circle cx="576.00" cy="57.24" data-y="73709.63745" data-x="2048" r="4" fill="#C2CD23"><title>2048: 73709.63745</title></circle>
	<circle cx="594.00" cy="59.57" data-y="72904.74336" data-x="2049" r="4" fill="#C2CD23"><title>2049: 72904.74336</title></circle>
	<circle cx="612.00" cy="62.50" data-y="71888.81374" data-x="2050" r="4" fill="#C2CD23"><title>2050: 71888.81374</title></circle>
</g>
<g data-scenario="planning-scenario" class="data-series">	<path d="M 90.00,269.44L 108.00,268.63L 126.00,267.47L 144.00,265.97L 162.00,264.11L 180.00,259.75L 198.00,252.94L 216.00,243.67L 234.00,231.96L 252.00,217.81L 270.00,201.28L 288.00,183.56L 306.00,164.72L 324.00,144.85L 342.00,123.95L 360.00,104.65L 378.00,86.94L 396.00,70.80L 414.00,56.45L 432.00,43.89L 450.00,33.87L 468.00,25.91L 486.00,20.01L 504.00,16.04L 522.00,14.01L 540.00,12.84L 558.00,11.93L 576.00,11.27L 594.00,10.63L 612.00,10.00" id="NPg Planning Scenario" class="line" stroke="#ab1236" stroke-width="3" stroke-linecap="round"><title>NPg Planning Scenario</title></path>
	<circle cx="90.00" cy="269.44" data-y="194.9805655" data-x="2021" r="4" fill="#ab1236"><title>2021: 194.9805655</title></circle>
	<circle cx="108.00" cy="268.63" data-y="474.3573882" data-x="2022" r="4" fill="#ab1236"><title>2022: 474.3573882</title></circle>
	<circle cx="126.00" cy="267.47" data-y="874.991904" data-x="2023" r="4" fill="#ab1236"><title>2023: 874.991904</title></circle>
	<circle cx="144.00" cy="265.97" data-y="1396.884113" data-x="2024" r="4" fill="#ab1236"><title>2024: 1396.884113</title></circle>
	<circle cx="162.00" cy="264.11" data-y="2040.034015" data-x="2025" r="4" fill="#ab1236"><title>2025: 2040.034015</title></circle>
	<circle cx="180.00" cy="259.75" data-y="3551.83516" data-x="2026" r="4" fill="#ab1236"><title>2026: 3551.83516</title></circle>
	<circle cx="198.00" cy="252.94" data-y="5911.994406" data-x="2027" r="4" fill="#ab1236"><title>2027: 5911.994406</title></circle>
	<circle cx="216.00" cy="243.67" data-y="9120.511753" data-x="2028" r="4" fill="#ab1236"><title>2028: 9120.511753</title></circle>
	<circle cx="234.00" cy="231.96" data-y="13177.3872" data-x="2029" r="4" fill="#ab1236"><title>2029: 13177.3872</title></circle>
	<circle cx="252.00" cy="217.81" data-y="18082.62075" data-x="2030" r="4" fill="#ab1236"><title>2030: 18082.62075</title></circle>
	<circle cx="270.00" cy="201.28" data-y="23808.19894" data-x="2031" r="4" fill="#ab1236"><title>2031: 23808.19894</title></circle>
	<circle cx="288.00" cy="183.56" data-y="29946.0562" data-x="2032" r="4" fill="#ab1236"><title>2032: 29946.0562</title></circle>
	<circle cx="306.00" cy="164.72" data-y="36474.95013" data-x="2033" r="4" fill="#ab1236"><title>2033: 36474.95013</title></circle>
	<circle cx="324.00" cy="144.85" data-y="43359.14097" data-x="2034" r="4" fill="#ab1236"><title>2034: 43359.14097</title></circle>
	<circle cx="342.00" cy="123.95" data-y="50598.62872" data-x="2035" r="4" fill="#ab1236"><title>2035: 50598.62872</title></circle>
	<circle cx="360.00" cy="104.65" data-y="57284.74678" data-x="2036" r="4" fill="#ab1236"><title>2036: 57284.74678</title></circle>
	<circle cx="378.00" cy="86.94" data-y="63422.34915" data-x="2037" r="4" fill="#ab1236"><title>2037: 63422.34915</title></circle>
	<circle cx="396.00" cy="70.80" data-y="69011.43583" data-x="2038" r="4" fill="#ab1236"><title>2038: 69011.43583</title></circle>
	<circle cx="414.00" cy="56.45" data-y="73982.87011" data-x="2039" r="4" fill="#ab1236"><title>2039: 73982.87011</title></circle>
	<circle cx="432.00" cy="43.89" data-y="78336.652" data-x="2040" r="4" fill="#ab1236"><title>2040: 78336.652</title></circle>
	<circle cx="450.00" cy="33.87" data-y="81805.69214" data-x="2041" r="4" fill="#ab1236"><title>2041: 81805.69214</title></circle>
	<circle cx="468.00" cy="25.91" data-y="84563.29232" data-x="2042" r="4" fill="#ab1236"><title>2042: 84563.29232</title></circle>
	<circle cx="486.00" cy="20.01" data-y="86609.45252" data-x="2043" r="4" fill="#ab1236"><title>2043: 86609.45252</title></circle>
	<circle cx="504.00" cy="16.04" data-y="87984.67696" data-x="2044" r="4" fill="#ab1236"><title>2044: 87984.67696</title></circle>
	<circle cx="522.00" cy="14.01" data-y="88688.96565" data-x="2045" r="4" fill="#ab1236"><title>2045: 88688.96565</title></circle>
	<circle cx="540.00" cy="12.84" data-y="89091.41705" data-x="2046" r="4" fill="#ab1236"><title>2046: 89091.41705</title></circle>
	<circle cx="558.00" cy="11.93" data-y="89407.24573" data-x="2047" r="4" fill="#ab1236"><title>2047: 89407.24573</title></circle>
	<circle cx="576.00" cy="11.27" data-y="89636.45169" data-x="2048" r="4" fill="#ab1236"><title>2048: 89636.45169</title></circle>
	<circle cx="594.00" cy="10.63" data-y="89859.69432" data-x="2049" r="4" fill="#ab1236"><title>2049: 89859.69432</title></circle>
	<circle cx="612.00" cy="10.00" data-y="90076.97363" data-x="2050" r="4" fill="#ab1236"><title>2050: 90076.97363</title></circle>
</g>
<g data-scenario="falling-short" class="data-series">	<path d="M 90.00,269.59L 108.00,269.59L 126.00,269.44L 144.00,269.24L 162.00,268.96L 180.00,268.60L 198.00,268.10L 216.00,267.41L 234.00,266.45L 252.00,265.42L 270.00,264.07L 288.00,262.30L 306.00,259.96L 324.00,256.86L 342.00,252.75L 360.00,247.31L 378.00,240.15L 396.00,231.98L 414.00,222.72L 432.00,208.18L 450.00,192.41L 468.00,175.28L 486.00,156.78L 504.00,137.16L 522.00,115.43L 540.00,98.29L 558.00,86.25L 576.00,80.88L 594.00,75.15L 612.00,69.13" id="Falling Short" class="line" stroke="#827B7A" stroke-width="3" stroke-linecap="round"><title>Falling Short</title></path>
	<circle cx="90.00" cy="269.59" data-y="141.4571608" data-x="2021" r="4" fill="#827B7A"><title>2021: 141.4571608</title></circle>
	<circle cx="108.00" cy="269.59" data-y="140.9680333" data-x="2022" r="4" fill="#827B7A"><title>2022: 140.9680333</title></circle>
	<circle cx="126.00" cy="269.44" data-y="193.1721394" data-x="2023" r="4" fill="#827B7A"><title>2023: 193.1721394</title></circle>
	<circle cx="144.00" cy="269.24" data-y="264.4504125" data-x="2024" r="4" fill="#827B7A"><title>2024: 264.4504125</title></circle>
	<circle cx="162.00" cy="268.96" data-y="361.486128" data-x="2025" r="4" fill="#827B7A"><title>2025: 361.486128</title></circle>
	<circle cx="180.00" cy="268.60" data-y="486.1230586" data-x="2026" r="4" fill="#827B7A"><title>2026: 486.1230586</title></circle>
	<circle cx="198.00" cy="268.10" data-y="658.2780857" data-x="2027" r="4" fill="#827B7A"><title>2027: 658.2780857</title></circle>
	<circle cx="216.00" cy="267.41" data-y="897.4212169" data-x="2028" r="4" fill="#827B7A"><title>2028: 897.4212169</title></circle>
	<circle cx="234.00" cy="266.45" data-y="1231.25923" data-x="2029" r="4" fill="#827B7A"><title>2029: 1231.25923</title></circle>
	<circle cx="252.00" cy="265.42" data-y="1587.727654" data-x="2030" r="4" fill="#827B7A"><title>2030: 1587.727654</title></circle>
	<circle cx="270.00" cy="264.07" data-y="2054.169084" data-x="2031" r="4" fill="#827B7A"><title>2031: 2054.169084</title></circle>
	<circle cx="288.00" cy="262.30" data-y="2668.093691" data-x="2032" r="4" fill="#827B7A"><title>2032: 2668.093691</title></circle>
	<circle cx="306.00" cy="259.96" data-y="3478.946703" data-x="2033" r="4" fill="#827B7A"><title>2033: 3478.946703</title></circle>
	<circle cx="324.00" cy="256.86" data-y="4553.10164" data-x="2034" r="4" fill="#827B7A"><title>2034: 4553.10164</title></circle>
	<circle cx="342.00" cy="252.75" data-y="5977.392114" data-x="2035" r="4" fill="#827B7A"><title>2035: 5977.392114</title></circle>
	<circle cx="360.00" cy="247.31" data-y="7862.521849" data-x="2036" r="4" fill="#827B7A"><title>2036: 7862.521849</title></circle>
	<circle cx="378.00" cy="240.15" data-y="10341.23788" data-x="2037" r="4" fill="#827B7A"><title>2037: 10341.23788</title></circle>
	<circle cx="396.00" cy="231.98" data-y="13171.91625" data-x="2038" r="4" fill="#827B7A"><title>2038: 13171.91625</title></circle>
	<circle cx="414.00" cy="222.72" data-y="16381.22814" data-x="2039" r="4" fill="#827B7A"><title>2039: 16381.22814</title></circle>
	<circle cx="432.00" cy="208.18" data-y="21418.18665" data-x="2040" r="4" fill="#827B7A"><title>2040: 21418.18665</title></circle>
	<circle cx="450.00" cy="192.41" data-y="26881.76247" data-x="2041" r="4" fill="#827B7A"><title>2041: 26881.76247</title></circle>
	<circle cx="468.00" cy="175.28" data-y="32815.18974" data-x="2042" r="4" fill="#827B7A"><title>2042: 32815.18974</title></circle>
	<circle cx="486.00" cy="156.78" data-y="39224.55777" data-x="2043" r="4" fill="#827B7A"><title>2043: 39224.55777</title></circle>
	<circle cx="504.00" cy="137.16" data-y="46022.78937" data-x="2044" r="4" fill="#827B7A"><title>2044: 46022.78937</title></circle>
	<circle cx="522.00" cy="115.43" data-y="53550.64254" data-x="2045" r="4" fill="#827B7A"><title>2045: 53550.64254</title></circle>
	<circle cx="540.00" cy="98.29" data-y="59488.81947" data-x="2046" r="4" fill="#827B7A"><title>2046: 59488.81947</title></circle>
	<circle cx="558.00" cy="86.25" data-y="63661.33901" data-x="2047" r="4" fill="#827B7A"><title>2047: 63661.33901</title></circle>
	<circle cx="576.00" cy="80.88" data-y="65521.9897" data-x="2048" r="4" fill="#827B7A"><title>2048: 65521.9897</title></circle>
	<circle cx="594.00" cy="75.15" data-y="67504.91381" data-x="2049" r="4" fill="#827B7A"><title>2049: 67504.91381</title></circle>
	<circle cx="612.00" cy="69.13" data-y="69592.03737" data-x="2050" r="4" fill="#827B7A"><title>2050: 69592.03737</title></circle>
</g>
</svg>
