<svg width="640" height="320" viewBox="0 0 640 320" xmlns="http://www.w3.org/2000/svg" style="overflow:display" preserveAspectRatio="xMinYMin meet" overflow="visible">
<defs>
	<style>
	.data-series path.line { fill-opacity: 0; }
	.data-series path.line.dotted { stroke-dasharray: 12 20 }
	.data-series circle { display: none; }
	.data-series:hover path.line, .data-series.on path.line { stroke-width: 5; }
	.data-series:hover circle, .data-series.on circle { display: inline; }
	.data-series circle:hover, .data-series circle.on { r: 6px!important; fill: black; }
	.grid { font-family: "Helvetica Neue",Helvetica,Arial,"Lucida Grande",sans-serif; }
	.grid line { stroke: rgb(0,0,0); stroke-width: 2; stroke-linecap: round; }
	.grid.grid-x text { text-anchor: middle; dominant-baseline: hanging; transform: translateY(10px); }
	.grid.grid-y text { text-anchor: end; dominant-baseline: middle; transform: translateX(-10px); }
	</style>
</defs>
<g class="grid grid-y">
	<line x1="70" y1="270" x2="630" y2="270" data-left="70"></line>
	<text x="70" y="270" text-anchor="end">0</text>
	<text x="70" y="198.648856323495" text-anchor="end">20</text>
	<text x="70" y="127.29771264699" text-anchor="end">40</text>
	<text x="70" y="55.9465689704853" text-anchor="end">60</text>
	<text style="text-anchor:middle;dominant-baseline:hanging;font-weight:bold;transform: translateY(140px) rotate(-90deg);">Energy consumption (TWh)</text>
</g>
<g class="grid grid-x">
	<line class="tick" x1="87.5" y1="270" x2="87.5" y2="275"></line>
	<text x="87.5" y="270" text-anchor="middle">2020</text>
	<line class="tick" x1="262.5" y1="270" x2="262.5" y2="275"></line>
	<text x="262.5" y="270" text-anchor="middle">2030</text>
	<line class="tick" x1="437.5" y1="270" x2="437.5" y2="275"></line>
	<text x="437.5" y="270" text-anchor="middle">2040</text>
	<line class="tick" x1="612.5" y1="270" x2="612.5" y2="275"></line>
	<text x="612.5" y="270" text-anchor="middle">2050</text>
	<text style="text-anchor:middle;dominant-baseline:hanging;font-weight:bold;transform: translateY(140px) rotate(-90deg);"></text>
</g>
<g data-scenario="consumer-transformation" class="data-series">	<path d="M 70.00,138.38L 87.50,138.83L 105.00,140.89L 122.50,144.02L 140.00,145.37L 157.50,145.40L 175.00,144.95L 192.50,143.73L 210.00,142.07L 227.50,139.81L 245.00,136.92L 262.50,133.19L 280.00,127.51L 297.50,121.44L 315.00,115.34L 332.50,109.25L 350.00,103.29L 367.50,96.30L 385.00,90.66L 402.50,85.47L 420.00,80.86L 437.50,76.72L 455.00,72.89L 472.50,69.84L 490.00,67.41L 507.50,65.44L 525.00,63.93L 542.50,62.71L 560.00,61.74L 577.50,60.99L 595.00,60.32L 612.50,59.72" id="Consumer transformation" class="line" stroke="#FFBF22" stroke-width="3" stroke-linecap="round"><title>Consumer transformation</title></path>
	<circle cx="70.00" cy="138.38" data-y="36.894" data-x="2019" r="4" fill="#FFBF22"><title>2019: 36.894</title></circle>
	<circle cx="87.50" cy="138.83" data-y="36.768" data-x="2020" r="4" fill="#FFBF22"><title>2020: 36.768</title></circle>
	<circle cx="105.00" cy="140.89" data-y="36.189" data-x="2021" r="4" fill="#FFBF22"><title>2021: 36.189</title></circle>
	<circle cx="122.50" cy="144.02" data-y="35.314" data-x="2022" r="4" fill="#FFBF22"><title>2022: 35.314</title></circle>
	<circle cx="140.00" cy="145.37" data-y="34.934" data-x="2023" r="4" fill="#FFBF22"><title>2023: 34.934</title></circle>
	<circle cx="157.50" cy="145.40" data-y="34.926" data-x="2024" r="4" fill="#FFBF22"><title>2024: 34.926</title></circle>
	<circle cx="175.00" cy="144.95" data-y="35.053" data-x="2025" r="4" fill="#FFBF22"><title>2025: 35.053</title></circle>
	<circle cx="192.50" cy="143.73" data-y="35.393" data-x="2026" r="4" fill="#FFBF22"><title>2026: 35.393</title></circle>
	<circle cx="210.00" cy="142.07" data-y="35.859" data-x="2027" r="4" fill="#FFBF22"><title>2027: 35.859</title></circle>
	<circle cx="227.50" cy="139.81" data-y="36.493" data-x="2028" r="4" fill="#FFBF22"><title>2028: 36.493</title></circle>
	<circle cx="245.00" cy="136.92" data-y="37.304" data-x="2029" r="4" fill="#FFBF22"><title>2029: 37.304</title></circle>
	<circle cx="262.50" cy="133.19" data-y="38.349" data-x="2030" r="4" fill="#FFBF22"><title>2030: 38.349</title></circle>
	<circle cx="280.00" cy="127.51" data-y="39.941" data-x="2031" r="4" fill="#FFBF22"><title>2031: 39.941</title></circle>
	<circle cx="297.50" cy="121.44" data-y="41.642" data-x="2032" r="4" fill="#FFBF22"><title>2032: 41.642</title></circle>
	<circle cx="315.00" cy="115.34" data-y="43.351" data-x="2033" r="4" fill="#FFBF22"><title>2033: 43.351</title></circle>
	<circle cx="332.50" cy="109.25" data-y="45.060" data-x="2034" r="4" fill="#FFBF22"><title>2034: 45.060</title></circle>
	<circle cx="350.00" cy="103.29" data-y="46.730" data-x="2035" r="4" fill="#FFBF22"><title>2035: 46.730</title></circle>
	<circle cx="367.50" cy="96.30" data-y="48.688" data-x="2036" r="4" fill="#FFBF22"><title>2036: 48.688</title></circle>
	<circle cx="385.00" cy="90.66" data-y="50.270" data-x="2037" r="4" fill="#FFBF22"><title>2037: 50.270</title></circle>
	<circle cx="402.50" cy="85.47" data-y="51.724" data-x="2038" r="4" fill="#FFBF22"><title>2038: 51.724</title></circle>
	<circle cx="420.00" cy="80.86" data-y="53.018" data-x="2039" r="4" fill="#FFBF22"><title>2039: 53.018</title></circle>
	<circle cx="437.50" cy="76.72" data-y="54.177" data-x="2040" r="4" fill="#FFBF22"><title>2040: 54.177</title></circle>
	<circle cx="455.00" cy="72.89" data-y="55.252" data-x="2041" r="4" fill="#FFBF22"><title>2041: 55.252</title></circle>
	<circle cx="472.50" cy="69.84" data-y="56.105" data-x="2042" r="4" fill="#FFBF22"><title>2042: 56.105</title></circle>
	<circle cx="490.00" cy="67.41" data-y="56.786" data-x="2043" r="4" fill="#FFBF22"><title>2043: 56.786</title></circle>
	<circle cx="507.50" cy="65.44" data-y="57.338" data-x="2044" r="4" fill="#FFBF22"><title>2044: 57.338</title></circle>
	<circle cx="525.00" cy="63.93" data-y="57.762" data-x="2045" r="4" fill="#FFBF22"><title>2045: 57.762</title></circle>
	<circle cx="542.50" cy="62.71" data-y="58.105" data-x="2046" r="4" fill="#FFBF22"><title>2046: 58.105</title></circle>
	<circle cx="560.00" cy="61.74" data-y="58.375" data-x="2047" r="4" fill="#FFBF22"><title>2047: 58.375</title></circle>
	<circle cx="577.50" cy="60.99" data-y="58.585" data-x="2048" r="4" fill="#FFBF22"><title>2048: 58.585</title></circle>
	<circle cx="595.00" cy="60.32" data-y="58.773" data-x="2049" r="4" fill="#FFBF22"><title>2049: 58.773</title></circle>
	<circle cx="612.50" cy="59.72" data-y="58.941" data-x="2050" r="4" fill="#FFBF22"><title>2050: 58.941</title></circle>
</g>
<g data-scenario="system-transformation" class="data-series">	<path d="M 70.00,138.38L 87.50,138.83L 105.00,140.33L 122.50,141.93L 140.00,143.14L 157.50,143.82L 175.00,143.98L 192.50,143.32L 210.00,142.22L 227.50,140.80L 245.00,139.05L 262.50,136.93L 280.00,133.69L 297.50,130.37L 315.00,126.52L 332.50,122.22L 350.00,117.69L 367.50,112.80L 385.00,107.70L 402.50,103.04L 420.00,98.90L 437.50,95.30L 455.00,91.79L 472.50,89.30L 490.00,87.77L 507.50,86.56L 525.00,85.47L 542.50,84.20L 560.00,83.47L 577.50,82.79L 595.00,82.28L 612.50,81.93" id="System transformation" class="line" stroke="#5BCBF5" stroke-width="3" stroke-linecap="round"><title>System transformation</title></path>
	<circle cx="70.00" cy="138.38" data-y="36.894" data-x="2019" r="4" fill="#5BCBF5"><title>2019: 36.894</title></circle>
	<circle cx="87.50" cy="138.83" data-y="36.768" data-x="2020" r="4" fill="#5BCBF5"><title>2020: 36.768</title></circle>
	<circle cx="105.00" cy="140.33" data-y="36.347" data-x="2021" r="4" fill="#5BCBF5"><title>2021: 36.347</title></circle>
	<circle cx="122.50" cy="141.93" data-y="35.899" data-x="2022" r="4" fill="#5BCBF5"><title>2022: 35.899</title></circle>
	<circle cx="140.00" cy="143.14" data-y="35.560" data-x="2023" r="4" fill="#5BCBF5"><title>2023: 35.560</title></circle>
	<circle cx="157.50" cy="143.82" data-y="35.370" data-x="2024" r="4" fill="#5BCBF5"><title>2024: 35.370</title></circle>
	<circle cx="175.00" cy="143.98" data-y="35.323" data-x="2025" r="4" fill="#5BCBF5"><title>2025: 35.323</title></circle>
	<circle cx="192.50" cy="143.32" data-y="35.510" data-x="2026" r="4" fill="#5BCBF5"><title>2026: 35.510</title></circle>
	<circle cx="210.00" cy="142.22" data-y="35.818" data-x="2027" r="4" fill="#5BCBF5"><title>2027: 35.818</title></circle>
	<circle cx="227.50" cy="140.80" data-y="36.215" data-x="2028" r="4" fill="#5BCBF5"><title>2028: 36.215</title></circle>
	<circle cx="245.00" cy="139.05" data-y="36.706" data-x="2029" r="4" fill="#5BCBF5"><title>2029: 36.706</title></circle>
	<circle cx="262.50" cy="136.93" data-y="37.301" data-x="2030" r="4" fill="#5BCBF5"><title>2030: 37.301</title></circle>
	<circle cx="280.00" cy="133.69" data-y="38.208" data-x="2031" r="4" fill="#5BCBF5"><title>2031: 38.208</title></circle>
	<circle cx="297.50" cy="130.37" data-y="39.138" data-x="2032" r="4" fill="#5BCBF5"><title>2032: 39.138</title></circle>
	<circle cx="315.00" cy="126.52" data-y="40.219" data-x="2033" r="4" fill="#5BCBF5"><title>2033: 40.219</title></circle>
	<circle cx="332.50" cy="122.22" data-y="41.422" data-x="2034" r="4" fill="#5BCBF5"><title>2034: 41.422</title></circle>
	<circle cx="350.00" cy="117.69" data-y="42.694" data-x="2035" r="4" fill="#5BCBF5"><title>2035: 42.694</title></circle>
	<circle cx="367.50" cy="112.80" data-y="44.064" data-x="2036" r="4" fill="#5BCBF5"><title>2036: 44.064</title></circle>
	<circle cx="385.00" cy="107.70" data-y="45.492" data-x="2037" r="4" fill="#5BCBF5"><title>2037: 45.492</title></circle>
	<circle cx="402.50" cy="103.04" data-y="46.799" data-x="2038" r="4" fill="#5BCBF5"><title>2038: 46.799</title></circle>
	<circle cx="420.00" cy="98.90" data-y="47.960" data-x="2039" r="4" fill="#5BCBF5"><title>2039: 47.960</title></circle>
	<circle cx="437.50" cy="95.30" data-y="48.970" data-x="2040" r="4" fill="#5BCBF5"><title>2040: 48.970</title></circle>
	<circle cx="455.00" cy="91.79" data-y="49.954" data-x="2041" r="4" fill="#5BCBF5"><title>2041: 49.954</title></circle>
	<circle cx="472.50" cy="89.30" data-y="50.650" data-x="2042" r="4" fill="#5BCBF5"><title>2042: 50.650</title></circle>
	<circle cx="490.00" cy="87.77" data-y="51.081" data-x="2043" r="4" fill="#5BCBF5"><title>2043: 51.081</title></circle>
	<circle cx="507.50" cy="86.56" data-y="51.419" data-x="2044" r="4" fill="#5BCBF5"><title>2044: 51.419</title></circle>
	<circle cx="525.00" cy="85.47" data-y="51.725" data-x="2045" r="4" fill="#5BCBF5"><title>2045: 51.725</title></circle>
	<circle cx="542.50" cy="84.20" data-y="52.080" data-x="2046" r="4" fill="#5BCBF5"><title>2046: 52.080</title></circle>
	<circle cx="560.00" cy="83.47" data-y="52.284" data-x="2047" r="4" fill="#5BCBF5"><title>2047: 52.284</title></circle>
	<circle cx="577.50" cy="82.79" data-y="52.477" data-x="2048" r="4" fill="#5BCBF5"><title>2048: 52.477</title></circle>
	<circle cx="595.00" cy="82.28" data-y="52.619" data-x="2049" r="4" fill="#5BCBF5"><title>2049: 52.619</title></circle>
	<circle cx="612.50" cy="81.93" data-y="52.716" data-x="2050" r="4" fill="#5BCBF5"><title>2050: 52.716</title></circle>
</g>
<g data-scenario="steady-progression" class="data-series">	<path d="M 70.00,138.38L 87.50,138.83L 105.00,138.76L 122.50,137.01L 140.00,136.11L 157.50,135.39L 175.00,134.76L 192.50,134.24L 210.00,133.43L 227.50,132.27L 245.00,130.79L 262.50,128.88L 280.00,126.69L 297.50,124.32L 315.00,121.66L 332.50,118.75L 350.00,115.60L 367.50,111.75L 385.00,107.75L 402.50,103.58L 420.00,99.40L 437.50,95.41L 455.00,91.68L 472.50,88.43L 490.00,85.52L 507.50,82.95L 525.00,80.76L 542.50,79.18L 560.00,77.91L 577.50,76.67L 595.00,75.46L 612.50,74.24" id="Steady progression" class="line" stroke="#cc0935" stroke-width="3" stroke-linecap="round"><title>Steady progression</title></path>
	<circle cx="70.00" cy="138.38" data-y="36.894" data-x="2019" r="4" fill="#cc0935"><title>2019: 36.894</title></circle>
	<circle cx="87.50" cy="138.83" data-y="36.768" data-x="2020" r="4" fill="#cc0935"><title>2020: 36.768</title></circle>
	<circle cx="105.00" cy="138.76" data-y="36.788" data-x="2021" r="4" fill="#cc0935"><title>2021: 36.788</title></circle>
	<circle cx="122.50" cy="137.01" data-y="37.279" data-x="2022" r="4" fill="#cc0935"><title>2022: 37.279</title></circle>
	<circle cx="140.00" cy="136.11" data-y="37.531" data-x="2023" r="4" fill="#cc0935"><title>2023: 37.531</title></circle>
	<circle cx="157.50" cy="135.39" data-y="37.732" data-x="2024" r="4" fill="#cc0935"><title>2024: 37.732</title></circle>
	<circle cx="175.00" cy="134.76" data-y="37.908" data-x="2025" r="4" fill="#cc0935"><title>2025: 37.908</title></circle>
	<circle cx="192.50" cy="134.24" data-y="38.053" data-x="2026" r="4" fill="#cc0935"><title>2026: 38.053</title></circle>
	<circle cx="210.00" cy="133.43" data-y="38.280" data-x="2027" r="4" fill="#cc0935"><title>2027: 38.280</title></circle>
	<circle cx="227.50" cy="132.27" data-y="38.606" data-x="2028" r="4" fill="#cc0935"><title>2028: 38.606</title></circle>
	<circle cx="245.00" cy="130.79" data-y="39.020" data-x="2029" r="4" fill="#cc0935"><title>2029: 39.020</title></circle>
	<circle cx="262.50" cy="128.88" data-y="39.556" data-x="2030" r="4" fill="#cc0935"><title>2030: 39.556</title></circle>
	<circle cx="280.00" cy="126.69" data-y="40.169" data-x="2031" r="4" fill="#cc0935"><title>2031: 40.169</title></circle>
	<circle cx="297.50" cy="124.32" data-y="40.835" data-x="2032" r="4" fill="#cc0935"><title>2032: 40.835</title></circle>
	<circle cx="315.00" cy="121.66" data-y="41.580" data-x="2033" r="4" fill="#cc0935"><title>2033: 41.580</title></circle>
	<circle cx="332.50" cy="118.75" data-y="42.397" data-x="2034" r="4" fill="#cc0935"><title>2034: 42.397</title></circle>
	<circle cx="350.00" cy="115.60" data-y="43.280" data-x="2035" r="4" fill="#cc0935"><title>2035: 43.280</title></circle>
	<circle cx="367.50" cy="111.75" data-y="44.359" data-x="2036" r="4" fill="#cc0935"><title>2036: 44.359</title></circle>
	<circle cx="385.00" cy="107.75" data-y="45.478" data-x="2037" r="4" fill="#cc0935"><title>2037: 45.478</title></circle>
	<circle cx="402.50" cy="103.58" data-y="46.647" data-x="2038" r="4" fill="#cc0935"><title>2038: 46.647</title></circle>
	<circle cx="420.00" cy="99.40" data-y="47.819" data-x="2039" r="4" fill="#cc0935"><title>2039: 47.819</title></circle>
	<circle cx="437.50" cy="95.41" data-y="48.937" data-x="2040" r="4" fill="#cc0935"><title>2040: 48.937</title></circle>
	<circle cx="455.00" cy="91.68" data-y="49.985" data-x="2041" r="4" fill="#cc0935"><title>2041: 49.985</title></circle>
	<circle cx="472.50" cy="88.43" data-y="50.894" data-x="2042" r="4" fill="#cc0935"><title>2042: 50.894</title></circle>
	<circle cx="490.00" cy="85.52" data-y="51.710" data-x="2043" r="4" fill="#cc0935"><title>2043: 51.710</title></circle>
	<circle cx="507.50" cy="82.95" data-y="52.432" data-x="2044" r="4" fill="#cc0935"><title>2044: 52.432</title></circle>
	<circle cx="525.00" cy="80.76" data-y="53.046" data-x="2045" r="4" fill="#cc0935"><title>2045: 53.046</title></circle>
	<circle cx="542.50" cy="79.18" data-y="53.488" data-x="2046" r="4" fill="#cc0935"><title>2046: 53.488</title></circle>
	<circle cx="560.00" cy="77.91" data-y="53.844" data-x="2047" r="4" fill="#cc0935"><title>2047: 53.844</title></circle>
	<circle cx="577.50" cy="76.67" data-y="54.190" data-x="2048" r="4" fill="#cc0935"><title>2048: 54.190</title></circle>
	<circle cx="595.00" cy="75.46" data-y="54.530" data-x="2049" r="4" fill="#cc0935"><title>2049: 54.530</title></circle>
	<circle cx="612.50" cy="74.24" data-y="54.871" data-x="2050" r="4" fill="#cc0935"><title>2050: 54.871</title></circle>
</g>
<g data-scenario="leading-the-way" class="data-series">	<path d="M 70.00,138.38L 87.50,138.83L 105.00,141.61L 122.50,145.68L 140.00,148.03L 157.50,148.65L 175.00,148.65L 192.50,147.69L 210.00,145.56L 227.50,142.30L 245.00,138.42L 262.50,133.90L 280.00,127.29L 297.50,120.54L 315.00,113.85L 332.50,107.46L 350.00,101.72L 367.50,96.59L 385.00,92.67L 402.50,89.24L 420.00,86.48L 437.50,84.49L 455.00,82.97L 472.50,82.31L 490.00,81.93L 507.50,81.52L 525.00,81.21L 542.50,80.87L 560.00,80.74L 577.50,80.74L 595.00,80.92L 612.50,81.23" id="Leading the way" class="line" stroke="#C2CD23" stroke-width="3" stroke-linecap="round"><title>Leading the way</title></path>
	<circle cx="70.00" cy="138.38" data-y="36.894" data-x="2019" r="4" fill="#C2CD23"><title>2019: 36.894</title></circle>
	<circle cx="87.50" cy="138.83" data-y="36.768" data-x="2020" r="4" fill="#C2CD23"><title>2020: 36.768</title></circle>
	<circle cx="105.00" cy="141.61" data-y="35.988" data-x="2021" r="4" fill="#C2CD23"><title>2021: 35.988</title></circle>
	<circle cx="122.50" cy="145.68" data-y="34.847" data-x="2022" r="4" fill="#C2CD23"><title>2022: 34.847</title></circle>
	<circle cx="140.00" cy="148.03" data-y="34.190" data-x="2023" r="4" fill="#C2CD23"><title>2023: 34.190</title></circle>
	<circle cx="157.50" cy="148.65" data-y="34.014" data-x="2024" r="4" fill="#C2CD23"><title>2024: 34.014</title></circle>
	<circle cx="175.00" cy="148.65" data-y="34.014" data-x="2025" r="4" fill="#C2CD23"><title>2025: 34.014</title></circle>
	<circle cx="192.50" cy="147.69" data-y="34.285" data-x="2026" r="4" fill="#C2CD23"><title>2026: 34.285</title></circle>
	<circle cx="210.00" cy="145.56" data-y="34.881" data-x="2027" r="4" fill="#C2CD23"><title>2027: 34.881</title></circle>
	<circle cx="227.50" cy="142.30" data-y="35.795" data-x="2028" r="4" fill="#C2CD23"><title>2028: 35.795</title></circle>
	<circle cx="245.00" cy="138.42" data-y="36.883" data-x="2029" r="4" fill="#C2CD23"><title>2029: 36.883</title></circle>
	<circle cx="262.50" cy="133.90" data-y="38.150" data-x="2030" r="4" fill="#C2CD23"><title>2030: 38.150</title></circle>
	<circle cx="280.00" cy="127.29" data-y="40.001" data-x="2031" r="4" fill="#C2CD23"><title>2031: 40.001</title></circle>
	<circle cx="297.50" cy="120.54" data-y="41.893" data-x="2032" r="4" fill="#C2CD23"><title>2032: 41.893</title></circle>
	<circle cx="315.00" cy="113.85" data-y="43.769" data-x="2033" r="4" fill="#C2CD23"><title>2033: 43.769</title></circle>
	<circle cx="332.50" cy="107.46" data-y="45.560" data-x="2034" r="4" fill="#C2CD23"><title>2034: 45.560</title></circle>
	<circle cx="350.00" cy="101.72" data-y="47.170" data-x="2035" r="4" fill="#C2CD23"><title>2035: 47.170</title></circle>
	<circle cx="367.50" cy="96.59" data-y="48.608" data-x="2036" r="4" fill="#C2CD23"><title>2036: 48.608</title></circle>
	<circle cx="385.00" cy="92.67" data-y="49.706" data-x="2037" r="4" fill="#C2CD23"><title>2037: 49.706</title></circle>
	<circle cx="402.50" cy="89.24" data-y="50.669" data-x="2038" r="4" fill="#C2CD23"><title>2038: 50.669</title></circle>
	<circle cx="420.00" cy="86.48" data-y="51.441" data-x="2039" r="4" fill="#C2CD23"><title>2039: 51.441</title></circle>
	<circle cx="437.50" cy="84.49" data-y="51.998" data-x="2040" r="4" fill="#C2CD23"><title>2040: 51.998</title></circle>
	<circle cx="455.00" cy="82.97" data-y="52.425" data-x="2041" r="4" fill="#C2CD23"><title>2041: 52.425</title></circle>
	<circle cx="472.50" cy="82.31" data-y="52.611" data-x="2042" r="4" fill="#C2CD23"><title>2042: 52.611</title></circle>
	<circle cx="490.00" cy="81.93" data-y="52.717" data-x="2043" r="4" fill="#C2CD23"><title>2043: 52.717</title></circle>
	<circle cx="507.50" cy="81.52" data-y="52.833" data-x="2044" r="4" fill="#C2CD23"><title>2044: 52.833</title></circle>
	<circle cx="525.00" cy="81.21" data-y="52.918" data-x="2045" r="4" fill="#C2CD23"><title>2045: 52.918</title></circle>
	<circle cx="542.50" cy="80.87" data-y="53.014" data-x="2046" r="4" fill="#C2CD23"><title>2046: 53.014</title></circle>
	<circle cx="560.00" cy="80.74" data-y="53.050" data-x="2047" r="4" fill="#C2CD23"><title>2047: 53.050</title></circle>
	<circle cx="577.50" cy="80.74" data-y="53.051" data-x="2048" r="4" fill="#C2CD23"><title>2048: 53.051</title></circle>
	<circle cx="595.00" cy="80.92" data-y="53.001" data-x="2049" r="4" fill="#C2CD23"><title>2049: 53.001</title></circle>
	<circle cx="612.50" cy="81.23" data-y="52.914" data-x="2050" r="4" fill="#C2CD23"><title>2050: 52.914</title></circle>
</g>
<g data-scenario="planning-scenario" class="data-series">	<path d="M 70.00,138.36L 87.50,139.09L 105.00,141.46L 122.50,142.00L 140.00,141.57L 157.50,140.51L 175.00,138.79L 192.50,136.16L 210.00,132.44L 227.50,127.49L 245.00,121.48L 262.50,113.56L 280.00,106.19L 297.50,98.91L 315.00,91.15L 332.50,83.38L 350.00,74.29L 367.50,65.70L 385.00,58.21L 402.50,51.00L 420.00,44.28L 437.50,38.17L 455.00,32.83L 472.50,28.11L 490.00,24.05L 507.50,20.65L 525.00,17.76L 542.50,15.30L 560.00,12.86L 577.50,10.54L 595.00,10.11L 612.50,10.00" id="NPg Planning Scenario" class="line" stroke="#ab1236" stroke-width="3" stroke-linecap="round"><title>NPg Planning Scenario</title></path>
	<circle cx="70.00" cy="138.36" data-y="36.899" data-x="2019" r="4" fill="#ab1236"><title>2019: 36.899</title></circle>
	<circle cx="87.50" cy="139.09" data-y="36.695" data-x="2020" r="4" fill="#ab1236"><title>2020: 36.695</title></circle>
	<circle cx="105.00" cy="141.46" data-y="36.029" data-x="2021" r="4" fill="#ab1236"><title>2021: 36.029</title></circle>
	<circle cx="122.50" cy="142.00" data-y="35.879" data-x="2022" r="4" fill="#ab1236"><title>2022: 35.879</title></circle>
	<circle cx="140.00" cy="141.57" data-y="35.999" data-x="2023" r="4" fill="#ab1236"><title>2023: 35.999</title></circle>
	<circle cx="157.50" cy="140.51" data-y="36.297" data-x="2024" r="4" fill="#ab1236"><title>2024: 36.297</title></circle>
	<circle cx="175.00" cy="138.79" data-y="36.779" data-x="2025" r="4" fill="#ab1236"><title>2025: 36.779</title></circle>
	<circle cx="192.50" cy="136.16" data-y="37.517" data-x="2026" r="4" fill="#ab1236"><title>2026: 37.517</title></circle>
	<circle cx="210.00" cy="132.44" data-y="38.558" data-x="2027" r="4" fill="#ab1236"><title>2027: 38.558</title></circle>
	<circle cx="227.50" cy="127.49" data-y="39.946" data-x="2028" r="4" fill="#ab1236"><title>2028: 39.946</title></circle>
	<circle cx="245.00" cy="121.48" data-y="41.631" data-x="2029" r="4" fill="#ab1236"><title>2029: 41.631</title></circle>
	<circle cx="262.50" cy="113.56" data-y="43.851" data-x="2030" r="4" fill="#ab1236"><title>2030: 43.851</title></circle>
	<circle cx="280.00" cy="106.19" data-y="45.917" data-x="2031" r="4" fill="#ab1236"><title>2031: 45.917</title></circle>
	<circle cx="297.50" cy="98.91" data-y="47.957" data-x="2032" r="4" fill="#ab1236"><title>2032: 47.957</title></circle>
	<circle cx="315.00" cy="91.15" data-y="50.132" data-x="2033" r="4" fill="#ab1236"><title>2033: 50.132</title></circle>
	<circle cx="332.50" cy="83.38" data-y="52.310" data-x="2034" r="4" fill="#ab1236"><title>2034: 52.310</title></circle>
	<circle cx="350.00" cy="74.29" data-y="54.857" data-x="2035" r="4" fill="#ab1236"><title>2035: 54.857</title></circle>
	<circle cx="367.50" cy="65.70" data-y="57.267" data-x="2036" r="4" fill="#ab1236"><title>2036: 57.267</title></circle>
	<circle cx="385.00" cy="58.21" data-y="59.365" data-x="2037" r="4" fill="#ab1236"><title>2037: 59.365</title></circle>
	<circle cx="402.50" cy="51.00" data-y="61.387" data-x="2038" r="4" fill="#ab1236"><title>2038: 61.387</title></circle>
	<circle cx="420.00" cy="44.28" data-y="63.270" data-x="2039" r="4" fill="#ab1236"><title>2039: 63.270</title></circle>
	<circle cx="437.50" cy="38.17" data-y="64.984" data-x="2040" r="4" fill="#ab1236"><title>2040: 64.984</title></circle>
	<circle cx="455.00" cy="32.83" data-y="66.480" data-x="2041" r="4" fill="#ab1236"><title>2041: 66.480</title></circle>
	<circle cx="472.50" cy="28.11" data-y="67.804" data-x="2042" r="4" fill="#ab1236"><title>2042: 67.804</title></circle>
	<circle cx="490.00" cy="24.05" data-y="68.940" data-x="2043" r="4" fill="#ab1236"><title>2043: 68.940</title></circle>
	<circle cx="507.50" cy="20.65" data-y="69.895" data-x="2044" r="4" fill="#ab1236"><title>2044: 69.895</title></circle>
	<circle cx="525.00" cy="17.76" data-y="70.704" data-x="2045" r="4" fill="#ab1236"><title>2045: 70.704</title></circle>
	<circle cx="542.50" cy="15.30" data-y="71.393" data-x="2046" r="4" fill="#ab1236"><title>2046: 71.393</title></circle>
	<circle cx="560.00" cy="12.86" data-y="72.076" data-x="2047" r="4" fill="#ab1236"><title>2047: 72.076</title></circle>
	<circle cx="577.50" cy="10.54" data-y="72.728" data-x="2048" r="4" fill="#ab1236"><title>2048: 72.728</title></circle>
	<circle cx="595.00" cy="10.11" data-y="72.847" data-x="2049" r="4" fill="#ab1236"><title>2049: 72.847</title></circle>
	<circle cx="612.50" cy="10.00" data-y="72.879" data-x="2050" r="4" fill="#ab1236"><title>2050: 72.879</title></circle>
</g>
</svg>
