<svg width="640" height="320" viewBox="0 0 640 320" xmlns="http://www.w3.org/2000/svg" style="overflow:display" preserveAspectRatio="xMinYMin meet" overflow="visible">
<defs>
	<style>
	.data-series path.line { fill-opacity: 0; }
	.data-series path.line.dotted { stroke-dasharray: 12 20 }
	.data-series circle { display: none; }
	.data-series:hover path.line, .data-series.on path.line { stroke-width: 5; }
	.data-series:hover circle, .data-series.on circle { display: inline; }
	.data-series circle:hover, .data-series circle.on { r: 6px!important; fill: black; }
	.grid { font-family: "Helvetica Neue",Helvetica,Arial,"Lucida Grande",sans-serif; }
	.grid line { stroke: rgb(0,0,0); stroke-width: 2; stroke-linecap: round; }
	.grid.grid-x text { text-anchor: middle; dominant-baseline: hanging; transform: translateY(10px); }
	.grid.grid-y text { text-anchor: end; dominant-baseline: middle; transform: translateX(-10px); }
	</style>
</defs>
<g class="grid grid-y">
	<line x1="80" y1="270" x2="630" y2="270" data-left="80"></line>
	<text x="80" y="270" text-anchor="end">0</text>
	<text x="80" y="193.157231295354" text-anchor="end">2,000</text>
	<text x="80" y="116.314462590709" text-anchor="end">4,000</text>
	<text x="80" y="39.4716938860634" text-anchor="end">6,000</text>
	<text style="text-anchor:middle;dominant-baseline:hanging;font-weight:bold;transform: translateY(140px) rotate(-90deg);">Energy consumption (GWh)</text>
</g>
<g class="grid grid-x">
	<line class="tick" x1="245" y1="270" x2="245" y2="275"></line>
	<text x="245" y="270" text-anchor="middle">2030</text>
	<line class="tick" x1="428.333333333333" y1="270" x2="428.333333333333" y2="275"></line>
	<text x="428.333333333333" y="270" text-anchor="middle">2040</text>
	<line class="tick" x1="611.666666666667" y1="270" x2="611.666666666667" y2="275"></line>
	<text x="611.666666666667" y="270" text-anchor="middle">2050</text>
	<text style="text-anchor:middle;dominant-baseline:hanging;font-weight:bold;transform: translateY(140px) rotate(-90deg);"></text>
</g>
<g data-scenario="electric-hgvs" class="data-series">	<path d="M 80.00,269.51L 98.33,268.85L 116.67,267.90L 135.00,266.67L 153.33,265.16L 171.67,260.50L 190.00,252.91L 208.33,242.52L 226.67,229.48L 245.00,213.93L 263.33,196.03L 281.67,178.32L 300.00,160.82L 318.33,143.55L 336.67,126.53L 355.00,108.75L 373.33,92.23L 391.67,76.98L 410.00,63.00L 428.33,50.28L 446.67,40.21L 465.00,31.94L 483.33,25.47L 501.67,20.80L 520.00,17.92L 538.33,16.33L 556.67,14.74L 575.00,13.16L 593.33,11.58L 611.67,10.00" id="Electric HGVs" class="line" stroke="#FF9966" stroke-width="3" stroke-linecap="round"><title>Electric HGVs</title></path>
	<circle cx="80.00" cy="269.51" data-y="12.67637829" data-x="2021" r="4" fill="#FF9966"><title>2021: 12.67637829</title></circle>
	<circle cx="98.33" cy="268.85" data-y="29.99694923" data-x="2022" r="4" fill="#FF9966"><title>2022: 29.99694923</title></circle>
	<circle cx="116.67" cy="267.90" data-y="54.63910802" data-x="2023" r="4" fill="#FF9966"><title>2023: 54.63910802</title></circle>
	<circle cx="135.00" cy="266.67" data-y="86.60285467" data-x="2024" r="4" fill="#FF9966"><title>2024: 86.60285467</title></circle>
	<circle cx="153.33" cy="265.16" data-y="125.8881892" data-x="2025" r="4" fill="#FF9966"><title>2025: 125.8881892</title></circle>
	<circle cx="171.67" cy="260.50" data-y="247.2677327" data-x="2026" r="4" fill="#FF9966"><title>2026: 247.2677327</title></circle>
	<circle cx="190.00" cy="252.91" data-y="444.886871" data-x="2027" r="4" fill="#FF9966"><title>2027: 444.886871</title></circle>
	<circle cx="208.33" cy="242.52" data-y="715.1612427" data-x="2028" r="4" fill="#FF9966"><title>2028: 715.1612427</title></circle>
	<circle cx="226.67" cy="229.48" data-y="1054.506317" data-x="2029" r="4" fill="#FF9966"><title>2029: 1054.506317</title></circle>
	<circle cx="245.00" cy="213.93" data-y="1459.337392" data-x="2030" r="4" fill="#FF9966"><title>2030: 1459.337392</title></circle>
	<circle cx="263.33" cy="196.03" data-y="1925.305704" data-x="2031" r="4" fill="#FF9966"><title>2031: 1925.305704</title></circle>
	<circle cx="281.67" cy="178.32" data-y="2386.233053" data-x="2032" r="4" fill="#FF9966"><title>2032: 2386.233053</title></circle>
	<circle cx="300.00" cy="160.82" data-y="2841.653124" data-x="2033" r="4" fill="#FF9966"><title>2033: 2841.653124</title></circle>
	<circle cx="318.33" cy="143.55" data-y="3291.096657" data-x="2034" r="4" fill="#FF9966"><title>2034: 3291.096657</title></circle>
	<circle cx="336.67" cy="126.53" data-y="3734.091452" data-x="2035" r="4" fill="#FF9966"><title>2035: 3734.091452</title></circle>
	<circle cx="355.00" cy="108.75" data-y="4196.893045" data-x="2036" r="4" fill="#FF9966"><title>2036: 4196.893045</title></circle>
	<circle cx="373.33" cy="92.23" data-y="4626.77239" data-x="2037" r="4" fill="#FF9966"><title>2037: 4626.77239</title></circle>
	<circle cx="391.67" cy="76.98" data-y="5023.710066" data-x="2038" r="4" fill="#FF9966"><title>2038: 5023.710066</title></circle>
	<circle cx="410.00" cy="63.00" data-y="5387.686651" data-x="2039" r="4" fill="#FF9966"><title>2039: 5387.686651</title></circle>
	<circle cx="428.33" cy="50.28" data-y="5718.682724" data-x="2040" r="4" fill="#FF9966"><title>2040: 5718.682724</title></circle>
	<circle cx="446.67" cy="40.21" data-y="5980.781529" data-x="2041" r="4" fill="#FF9966"><title>2041: 5980.781529</title></circle>
	<circle cx="465.00" cy="31.94" data-y="6196.039117" data-x="2042" r="4" fill="#FF9966"><title>2042: 6196.039117</title></circle>
	<circle cx="483.33" cy="25.47" data-y="6364.46596" data-x="2043" r="4" fill="#FF9966"><title>2043: 6364.46596</title></circle>
	<circle cx="501.67" cy="20.80" data-y="6486.072529" data-x="2044" r="4" fill="#FF9966"><title>2044: 6486.072529</title></circle>
	<circle cx="520.00" cy="17.92" data-y="6560.869297" data-x="2045" r="4" fill="#FF9966"><title>2045: 6560.869297</title></circle>
	<circle cx="538.33" cy="16.33" data-y="6602.310091" data-x="2046" r="4" fill="#FF9966"><title>2046: 6602.310091</title></circle>
	<circle cx="556.67" cy="14.74" data-y="6643.64963" data-x="2047" r="4" fill="#FF9966"><title>2047: 6643.64963</title></circle>
	<circle cx="575.00" cy="13.16" data-y="6684.888327" data-x="2048" r="4" fill="#FF9966"><title>2048: 6684.888327</title></circle>
	<circle cx="593.33" cy="11.58" data-y="6726.026599" data-x="2049" r="4" fill="#FF9966"><title>2049: 6726.026599</title></circle>
	<circle cx="611.67" cy="10.00" data-y="6767.064862" data-x="2050" r="4" fill="#FF9966"><title>2050: 6767.064862</title></circle>
</g>
<g data-scenario="electric-buses" class="data-series">	<path d="M 80.00,269.62L 98.33,269.10L 116.67,268.37L 135.00,267.41L 153.33,266.25L 171.67,264.79L 190.00,263.00L 208.33,260.91L 226.67,258.53L 245.00,255.90L 263.33,253.19L 281.67,250.40L 300.00,247.62L 318.33,244.94L 336.67,242.36L 355.00,239.15L 373.33,236.05L 391.67,233.05L 410.00,230.35L 428.33,227.95L 446.67,225.90L 465.00,224.19L 483.33,222.84L 501.67,221.70L 520.00,220.79L 538.33,220.10L 556.67,219.63L 575.00,219.38L 593.33,219.18L 611.67,219.04" id="Electric Buses" class="line" stroke="#466228" stroke-width="3" stroke-linecap="round"><title>Electric Buses</title></path>
	<circle cx="80.00" cy="269.62" data-y="9.949799151" data-x="2021" r="4" fill="#466228"><title>2021: 9.949799151</title></circle>
	<circle cx="98.33" cy="269.10" data-y="23.40638038" data-x="2022" r="4" fill="#466228"><title>2022: 23.40638038</title></circle>
	<circle cx="116.67" cy="268.37" data-y="42.51741606" data-x="2023" r="4" fill="#466228"><title>2023: 42.51741606</title></circle>
	<circle cx="135.00" cy="267.41" data-y="67.28290616" data-x="2024" r="4" fill="#466228"><title>2024: 67.28290616</title></circle>
	<circle cx="153.33" cy="266.25" data-y="97.70285071" data-x="2025" r="4" fill="#466228"><title>2025: 97.70285071</title></circle>
	<circle cx="171.67" cy="264.79" data-y="135.5467617" data-x="2026" r="4" fill="#466228"><title>2026: 135.5467617</title></circle>
	<circle cx="190.00" cy="263.00" data-y="182.0659513" data-x="2027" r="4" fill="#466228"><title>2027: 182.0659513</title></circle>
	<circle cx="208.33" cy="260.91" data-y="236.5844852" data-x="2028" r="4" fill="#466228"><title>2028: 236.5844852</title></circle>
	<circle cx="226.67" cy="258.53" data-y="298.4263597" data-x="2029" r="4" fill="#466228"><title>2029: 298.4263597</title></circle>
	<circle cx="245.00" cy="255.90" data-y="366.9155014" data-x="2030" r="4" fill="#466228"><title>2030: 366.9155014</title></circle>
	<circle cx="263.33" cy="253.19" data-y="437.5607764" data-x="2031" r="4" fill="#466228"><title>2031: 437.5607764</title></circle>
	<circle cx="281.67" cy="250.40" data-y="510.0772148" data-x="2032" r="4" fill="#466228"><title>2032: 510.0772148</title></circle>
	<circle cx="300.00" cy="247.62" data-y="582.5521872" data-x="2033" r="4" fill="#466228"><title>2033: 582.5521872</title></circle>
	<circle cx="318.33" cy="244.94" data-y="652.2523821" data-x="2034" r="4" fill="#466228"><title>2034: 652.2523821</title></circle>
	<circle cx="336.67" cy="242.36" data-y="719.3756403" data-x="2035" r="4" fill="#466228"><title>2035: 719.3756403</title></circle>
	<circle cx="355.00" cy="239.15" data-y="802.8932511" data-x="2036" r="4" fill="#466228"><title>2036: 802.8932511</title></circle>
	<circle cx="373.33" cy="236.05" data-y="883.6604346" data-x="2037" r="4" fill="#466228"><title>2037: 883.6604346</title></circle>
	<circle cx="391.67" cy="233.05" data-y="961.6739534" data-x="2038" r="4" fill="#466228"><title>2038: 961.6739534</title></circle>
	<circle cx="410.00" cy="230.35" data-y="1031.923327" data-x="2039" r="4" fill="#466228"><title>2039: 1031.923327</title></circle>
	<circle cx="428.33" cy="227.95" data-y="1094.405717" data-x="2040" r="4" fill="#466228"><title>2040: 1094.405717</title></circle>
	<circle cx="446.67" cy="225.90" data-y="1147.831223" data-x="2041" r="4" fill="#466228"><title>2041: 1147.831223</title></circle>
	<circle cx="465.00" cy="224.19" data-y="1192.197323" data-x="2042" r="4" fill="#466228"><title>2042: 1192.197323</title></circle>
	<circle cx="483.33" cy="222.84" data-y="1227.503535" data-x="2043" r="4" fill="#466228"><title>2043: 1227.503535</title></circle>
	<circle cx="501.67" cy="221.70" data-y="1257.039153" data-x="2044" r="4" fill="#466228"><title>2044: 1257.039153</title></circle>
	<circle cx="520.00" cy="220.79" data-y="1280.801585" data-x="2045" r="4" fill="#466228"><title>2045: 1280.801585</title></circle>
	<circle cx="538.33" cy="220.10" data-y="1298.813386" data-x="2046" r="4" fill="#466228"><title>2046: 1298.813386</title></circle>
	<circle cx="556.67" cy="219.63" data-y="1311.035229" data-x="2047" r="4" fill="#466228"><title>2047: 1311.035229</title></circle>
	<circle cx="575.00" cy="219.38" data-y="1317.462532" data-x="2048" r="4" fill="#466228"><title>2048: 1317.462532</title></circle>
	<circle cx="593.33" cy="219.18" data-y="1322.590426" data-x="2049" r="4" fill="#466228"><title>2049: 1322.590426</title></circle>
	<circle cx="611.67" cy="219.04" data-y="1326.425887" data-x="2050" r="4" fill="#466228"><title>2050: 1326.425887</title></circle>
</g>
<g data-scenario="electrolysers" class="data-series">	<path d="L 171.67,269.97L 190.00,269.95L 208.33,269.93L 226.67,269.92L 245.00,269.86L 263.33,269.68L 281.67,269.38L 300.00,268.97L 318.33,268.46L 336.67,268.09L 355.00,267.62L 373.33,267.16L 391.67,266.73L 410.00,266.35L 428.33,265.99L 446.67,265.73L 465.00,265.57L 483.33,265.50L 501.67,265.49L 520.00,265.53L 538.33,265.63L 556.67,265.72L 575.00,265.80L 593.33,265.87L 611.67,265.92" id="Electrolysers" class="line" stroke="#4BACC6" stroke-width="3" stroke-linecap="round"><title>Electrolysers</title></path>
	<circle cx="171.67" cy="269.97" data-y="0.768348366" data-x="2026" r="4" fill="#4BACC6"><title>2026: 0.768348366</title></circle>
	<circle cx="190.00" cy="269.95" data-y="1.413885271" data-x="2027" r="4" fill="#4BACC6"><title>2027: 1.413885271</title></circle>
	<circle cx="208.33" cy="269.93" data-y="1.852978286" data-x="2028" r="4" fill="#4BACC6"><title>2028: 1.852978286</title></circle>
	<circle cx="226.67" cy="269.92" data-y="2.138779753" data-x="2029" r="4" fill="#4BACC6"><title>2029: 2.138779753</title></circle>
	<circle cx="245.00" cy="269.86" data-y="3.718655704" data-x="2030" r="4" fill="#4BACC6"><title>2030: 3.718655704</title></circle>
	<circle cx="263.33" cy="269.68" data-y="8.334226726" data-x="2031" r="4" fill="#4BACC6"><title>2031: 8.334226726</title></circle>
	<circle cx="281.67" cy="269.38" data-y="16.11716371" data-x="2032" r="4" fill="#4BACC6"><title>2032: 16.11716371</title></circle>
	<circle cx="300.00" cy="268.97" data-y="26.78910786" data-x="2033" r="4" fill="#4BACC6"><title>2033: 26.78910786</title></circle>
	<circle cx="318.33" cy="268.46" data-y="39.96584732" data-x="2034" r="4" fill="#4BACC6"><title>2034: 39.96584732</title></circle>
	<circle cx="336.67" cy="268.09" data-y="49.74059063" data-x="2035" r="4" fill="#4BACC6"><title>2035: 49.74059063</title></circle>
	<circle cx="355.00" cy="267.62" data-y="61.89040573" data-x="2036" r="4" fill="#4BACC6"><title>2036: 61.89040573</title></circle>
	<circle cx="373.33" cy="267.16" data-y="73.98334181" data-x="2037" r="4" fill="#4BACC6"><title>2037: 73.98334181</title></circle>
	<circle cx="391.67" cy="266.73" data-y="85.09975611" data-x="2038" r="4" fill="#4BACC6"><title>2038: 85.09975611</title></circle>
	<circle cx="410.00" cy="266.35" data-y="95.04401376" data-x="2039" r="4" fill="#4BACC6"><title>2039: 95.04401376</title></circle>
	<circle cx="428.33" cy="265.99" data-y="104.4645144" data-x="2040" r="4" fill="#4BACC6"><title>2040: 104.4645144</title></circle>
	<circle cx="446.67" cy="265.73" data-y="111.22516" data-x="2041" r="4" fill="#4BACC6"><title>2041: 111.22516</title></circle>
	<circle cx="465.00" cy="265.57" data-y="115.2669028" data-x="2042" r="4" fill="#4BACC6"><title>2042: 115.2669028</title></circle>
	<circle cx="483.33" cy="265.50" data-y="117.153314" data-x="2043" r="4" fill="#4BACC6"><title>2043: 117.153314</title></circle>
	<circle cx="501.67" cy="265.49" data-y="117.3179363" data-x="2044" r="4" fill="#4BACC6"><title>2044: 117.3179363</title></circle>
	<circle cx="520.00" cy="265.53" data-y="116.2252863" data-x="2045" r="4" fill="#4BACC6"><title>2045: 116.2252863</title></circle>
	<circle cx="538.33" cy="265.63" data-y="113.8369839" data-x="2046" r="4" fill="#4BACC6"><title>2046: 113.8369839</title></circle>
	<circle cx="556.67" cy="265.72" data-y="111.4830879" data-x="2047" r="4" fill="#4BACC6"><title>2047: 111.4830879</title></circle>
	<circle cx="575.00" cy="265.80" data-y="109.2262679" data-x="2048" r="4" fill="#4BACC6"><title>2048: 109.2262679</title></circle>
	<circle cx="593.33" cy="265.87" data-y="107.4028236" data-x="2049" r="4" fill="#4BACC6"><title>2049: 107.4028236</title></circle>
	<circle cx="611.67" cy="265.92" data-y="106.0943461" data-x="2050" r="4" fill="#4BACC6"><title>2050: 106.0943461</title></circle>
</g>
<g data-scenario="large-industry-fuel-switching" class="data-series">	<path d="M 80.00,265.23L 98.33,260.46L 116.67,255.69L 135.00,250.93L 153.33,246.16L 171.67,237.97L 190.00,229.78L 208.33,221.59L 226.67,213.40L 245.00,205.22L 263.33,198.00L 281.67,190.78L 300.00,183.56L 318.33,176.34L 336.67,169.12L 355.00,160.55L 373.33,151.97L 391.67,143.40L 410.00,134.82L 428.33,126.25L 446.67,113.63L 465.00,101.01L 483.33,88.40L 501.67,75.78L 520.00,63.17L 538.33,63.17L 556.67,63.17L 575.00,63.17L 593.33,63.17L 611.67,63.17" id="Large industry Fuel Switching" class="line" stroke="#808080" stroke-width="3" stroke-linecap="round"><title>Large industry Fuel Switching</title></path>
	<circle cx="80.00" cy="265.23" data-y="124.111801" data-x="2021" r="4" fill="#808080"><title>2021: 124.111801</title></circle>
	<circle cx="98.33" cy="260.46" data-y="248.2236021" data-x="2022" r="4" fill="#808080"><title>2022: 248.2236021</title></circle>
	<circle cx="116.67" cy="255.69" data-y="372.3354031" data-x="2023" r="4" fill="#808080"><title>2023: 372.3354031</title></circle>
	<circle cx="135.00" cy="250.93" data-y="496.4472042" data-x="2024" r="4" fill="#808080"><title>2024: 496.4472042</title></circle>
	<circle cx="153.33" cy="246.16" data-y="620.5590052" data-x="2025" r="4" fill="#808080"><title>2025: 620.5590052</title></circle>
	<circle cx="171.67" cy="237.97" data-y="833.6723421" data-x="2026" r="4" fill="#808080"><title>2026: 833.6723421</title></circle>
	<circle cx="190.00" cy="229.78" data-y="1046.785679" data-x="2027" r="4" fill="#808080"><title>2027: 1046.785679</title></circle>
	<circle cx="208.33" cy="221.59" data-y="1259.899016" data-x="2028" r="4" fill="#808080"><title>2028: 1259.899016</title></circle>
	<circle cx="226.67" cy="213.40" data-y="1473.012353" data-x="2029" r="4" fill="#808080"><title>2029: 1473.012353</title></circle>
	<circle cx="245.00" cy="205.22" data-y="1686.12569" data-x="2030" r="4" fill="#808080"><title>2030: 1686.12569</title></circle>
	<circle cx="263.33" cy="198.00" data-y="1874.01654" data-x="2031" r="4" fill="#808080"><title>2031: 1874.01654</title></circle>
	<circle cx="281.67" cy="190.78" data-y="2061.90739" data-x="2032" r="4" fill="#808080"><title>2032: 2061.90739</title></circle>
	<circle cx="300.00" cy="183.56" data-y="2249.79824" data-x="2033" r="4" fill="#808080"><title>2033: 2249.79824</title></circle>
	<circle cx="318.33" cy="176.34" data-y="2437.689089" data-x="2034" r="4" fill="#808080"><title>2034: 2437.689089</title></circle>
	<circle cx="336.67" cy="169.12" data-y="2625.579939" data-x="2035" r="4" fill="#808080"><title>2035: 2625.579939</title></circle>
	<circle cx="355.00" cy="160.55" data-y="2848.76791" data-x="2036" r="4" fill="#808080"><title>2036: 2848.76791</title></circle>
	<circle cx="373.33" cy="151.97" data-y="3071.955881" data-x="2037" r="4" fill="#808080"><title>2037: 3071.955881</title></circle>
	<circle cx="391.67" cy="143.40" data-y="3295.143851" data-x="2038" r="4" fill="#808080"><title>2038: 3295.143851</title></circle>
	<circle cx="410.00" cy="134.82" data-y="3518.331822" data-x="2039" r="4" fill="#808080"><title>2039: 3518.331822</title></circle>
	<circle cx="428.33" cy="126.25" data-y="3741.519792" data-x="2040" r="4" fill="#808080"><title>2040: 3741.519792</title></circle>
	<circle cx="446.67" cy="113.63" data-y="4069.881031" data-x="2041" r="4" fill="#808080"><title>2041: 4069.881031</title></circle>
	<circle cx="465.00" cy="101.01" data-y="4398.242269" data-x="2042" r="4" fill="#808080"><title>2042: 4398.242269</title></circle>
	<circle cx="483.33" cy="88.40" data-y="4726.603508" data-x="2043" r="4" fill="#808080"><title>2043: 4726.603508</title></circle>
	<circle cx="501.67" cy="75.78" data-y="5054.964746" data-x="2044" r="4" fill="#808080"><title>2044: 5054.964746</title></circle>
	<circle cx="520.00" cy="63.17" data-y="5383.325984" data-x="2045" r="4" fill="#808080"><title>2045: 5383.325984</title></circle>
	<circle cx="538.33" cy="63.17" data-y="5383.325984" data-x="2046" r="4" fill="#808080"><title>2046: 5383.325984</title></circle>
	<circle cx="556.67" cy="63.17" data-y="5383.325984" data-x="2047" r="4" fill="#808080"><title>2047: 5383.325984</title></circle>
	<circle cx="575.00" cy="63.17" data-y="5383.325984" data-x="2048" r="4" fill="#808080"><title>2048: 5383.325984</title></circle>
	<circle cx="593.33" cy="63.17" data-y="5383.325984" data-x="2049" r="4" fill="#808080"><title>2049: 5383.325984</title></circle>
	<circle cx="611.67" cy="63.17" data-y="5383.325984" data-x="2050" r="4" fill="#808080"><title>2050: 5383.325984</title></circle>
</g>
</svg>
