<svg width="640" height="320" viewBox="0 0 640 320" xmlns="http://www.w3.org/2000/svg" style="overflow:display" preserveAspectRatio="xMinYMin meet" overflow="visible">
<defs>
	<style>
	.data-series path.line { fill-opacity: 0; }
	.data-series path.line.dotted { stroke-dasharray: 12 20 }
	.data-series circle { display: none; }
	.data-series:hover path.line, .data-series.on path.line { stroke-width: 5; }
	.data-series:hover circle, .data-series.on circle { display: inline; }
	.data-series circle:hover, .data-series circle.on { r: 6px!important; fill: black; }
	.grid { font-family: "Helvetica Neue",Helvetica,Arial,"Lucida Grande",sans-serif; }
	.grid line { stroke: rgb(0,0,0); stroke-width: 2; stroke-linecap: round; }
	.grid.grid-x text { text-anchor: middle; dominant-baseline: hanging; transform: translateY(10px); }
	.grid.grid-y text { text-anchor: end; dominant-baseline: middle; transform: translateX(-10px); }
	</style>
</defs>
<g class="grid grid-y">
	<line x1="120" y1="270" x2="630" y2="270" data-left="120"></line>
	<text x="120" y="270" text-anchor="end">0</text>
	<text x="120" y="197.149870368798" text-anchor="end">1,000,000</text>
	<text x="120" y="124.299740737596" text-anchor="end">2,000,000</text>
	<text x="120" y="51.4496111063945" text-anchor="end">3,000,000</text>
	<text style="text-anchor:middle;dominant-baseline:hanging;font-weight:bold;transform: translateY(140px) rotate(-90deg);">Number</text>
</g>
<g class="grid grid-x">
	<line class="tick" x1="273" y1="270" x2="273" y2="275"></line>
	<text x="273" y="270" text-anchor="middle">2030</text>
	<line class="tick" x1="443" y1="270" x2="443" y2="275"></line>
	<text x="443" y="270" text-anchor="middle">2040</text>
	<line class="tick" x1="613" y1="270" x2="613" y2="275"></line>
	<text x="613" y="270" text-anchor="middle">2050</text>
	<text style="text-anchor:middle;dominant-baseline:hanging;font-weight:bold;transform: translateY(140px) rotate(-90deg);"></text>
</g>
<g data-scenario="consumer-transformation" class="data-series">	<path d="M 120.00,267.27L 137.00,265.59L 154.00,264.36L 171.00,263.01L 188.00,261.65L 205.00,258.61L 222.00,253.89L 239.00,247.06L 256.00,237.81L 273.00,226.56L 290.00,214.21L 307.00,202.11L 324.00,190.02L 341.00,178.05L 358.00,164.02L 375.00,148.39L 392.00,134.55L 409.00,120.81L 426.00,106.90L 443.00,92.98L 460.00,80.22L 477.00,69.73L 494.00,61.38L 511.00,55.11L 528.00,50.33L 545.00,46.46L 562.00,42.78L 579.00,39.29L 596.00,36.15L 613.00,35.09" id="Consumer Transformation" class="line" stroke="#FFBF22" stroke-width="3" stroke-linecap="round"><title>Consumer Transformation</title></path>
	<circle cx="120.00" cy="267.27" data-y="37489" data-x="2021" r="4" fill="#FFBF22"><title>2021: 37489</title></circle>
	<circle cx="137.00" cy="265.59" data-y="60496" data-x="2022" r="4" fill="#FFBF22"><title>2022: 60496</title></circle>
	<circle cx="154.00" cy="264.36" data-y="77413" data-x="2023" r="4" fill="#FFBF22"><title>2023: 77413</title></circle>
	<circle cx="171.00" cy="263.01" data-y="95995" data-x="2024" r="4" fill="#FFBF22"><title>2024: 95995</title></circle>
	<circle cx="188.00" cy="261.65" data-y="114619" data-x="2025" r="4" fill="#FFBF22"><title>2025: 114619</title></circle>
	<circle cx="205.00" cy="258.61" data-y="156372" data-x="2026" r="4" fill="#FFBF22"><title>2026: 156372</title></circle>
	<circle cx="222.00" cy="253.89" data-y="221081" data-x="2027" r="4" fill="#FFBF22"><title>2027: 221081</title></circle>
	<circle cx="239.00" cy="247.06" data-y="314858" data-x="2028" r="4" fill="#FFBF22"><title>2028: 314858</title></circle>
	<circle cx="256.00" cy="237.81" data-y="441924" data-x="2029" r="4" fill="#FFBF22"><title>2029: 441924</title></circle>
	<circle cx="273.00" cy="226.56" data-y="596248" data-x="2030" r="4" fill="#FFBF22"><title>2030: 596248</title></circle>
	<circle cx="290.00" cy="214.21" data-y="765830" data-x="2031" r="4" fill="#FFBF22"><title>2031: 765830</title></circle>
	<circle cx="307.00" cy="202.11" data-y="931864" data-x="2032" r="4" fill="#FFBF22"><title>2032: 931864</title></circle>
	<circle cx="324.00" cy="190.02" data-y="1097830" data-x="2033" r="4" fill="#FFBF22"><title>2033: 1097830</title></circle>
	<circle cx="341.00" cy="178.05" data-y="1262231" data-x="2034" r="4" fill="#FFBF22"><title>2034: 1262231</title></circle>
	<circle cx="358.00" cy="164.02" data-y="1454771" data-x="2035" r="4" fill="#FFBF22"><title>2035: 1454771</title></circle>
	<circle cx="375.00" cy="148.39" data-y="1669376" data-x="2036" r="4" fill="#FFBF22"><title>2036: 1669376</title></circle>
	<circle cx="392.00" cy="134.55" data-y="1859240" data-x="2037" r="4" fill="#FFBF22"><title>2037: 1859240</title></circle>
	<circle cx="409.00" cy="120.81" data-y="2047886" data-x="2038" r="4" fill="#FFBF22"><title>2038: 2047886</title></circle>
	<circle cx="426.00" cy="106.90" data-y="2238883" data-x="2039" r="4" fill="#FFBF22"><title>2039: 2238883</title></circle>
	<circle cx="443.00" cy="92.98" data-y="2429889" data-x="2040" r="4" fill="#FFBF22"><title>2040: 2429889</title></circle>
	<circle cx="460.00" cy="80.22" data-y="2605072" data-x="2041" r="4" fill="#FFBF22"><title>2041: 2605072</title></circle>
	<circle cx="477.00" cy="69.73" data-y="2749066" data-x="2042" r="4" fill="#FFBF22"><title>2042: 2749066</title></circle>
	<circle cx="494.00" cy="61.38" data-y="2863692" data-x="2043" r="4" fill="#FFBF22"><title>2043: 2863692</title></circle>
	<circle cx="511.00" cy="55.11" data-y="2949779" data-x="2044" r="4" fill="#FFBF22"><title>2044: 2949779</title></circle>
	<circle cx="528.00" cy="50.33" data-y="3015398" data-x="2045" r="4" fill="#FFBF22"><title>2045: 3015398</title></circle>
	<circle cx="545.00" cy="46.46" data-y="3068450" data-x="2046" r="4" fill="#FFBF22"><title>2046: 3068450</title></circle>
	<circle cx="562.00" cy="42.78" data-y="3118991" data-x="2047" r="4" fill="#FFBF22"><title>2047: 3118991</title></circle>
	<circle cx="579.00" cy="39.29" data-y="3166960" data-x="2048" r="4" fill="#FFBF22"><title>2048: 3166960</title></circle>
	<circle cx="596.00" cy="36.15" data-y="3209984" data-x="2049" r="4" fill="#FFBF22"><title>2049: 3209984</title></circle>
	<circle cx="613.00" cy="35.09" data-y="3224513" data-x="2050" r="4" fill="#FFBF22"><title>2050: 3224513</title></circle>
</g>
<g data-scenario="system-transformation" class="data-series">	<path d="M 120.00,267.27L 137.00,266.31L 154.00,265.50L 171.00,264.62L 188.00,263.64L 205.00,262.44L 222.00,260.80L 239.00,259.05L 256.00,257.20L 273.00,255.25L 290.00,253.31L 307.00,251.80L 324.00,250.27L 341.00,248.69L 358.00,246.69L 375.00,239.26L 392.00,232.87L 409.00,226.31L 426.00,219.64L 443.00,212.85L 460.00,205.02L 477.00,197.93L 494.00,190.43L 511.00,182.44L 528.00,173.77L 545.00,163.43L 562.00,154.25L 579.00,145.01L 596.00,135.77L 613.00,127.15" id="System Transformation" class="line" stroke="#5BCBF5" stroke-width="3" stroke-linecap="round"><title>System Transformation</title></path>
	<circle cx="120.00" cy="267.27" data-y="37489" data-x="2021" r="4" fill="#5BCBF5"><title>2021: 37489</title></circle>
	<circle cx="137.00" cy="266.31" data-y="50677" data-x="2022" r="4" fill="#5BCBF5"><title>2022: 50677</title></circle>
	<circle cx="154.00" cy="265.50" data-y="61770" data-x="2023" r="4" fill="#5BCBF5"><title>2023: 61770</title></circle>
	<circle cx="171.00" cy="264.62" data-y="73786" data-x="2024" r="4" fill="#5BCBF5"><title>2024: 73786</title></circle>
	<circle cx="188.00" cy="263.64" data-y="87361" data-x="2025" r="4" fill="#5BCBF5"><title>2025: 87361</title></circle>
	<circle cx="205.00" cy="262.44" data-y="103708" data-x="2026" r="4" fill="#5BCBF5"><title>2026: 103708</title></circle>
	<circle cx="222.00" cy="260.80" data-y="126231" data-x="2027" r="4" fill="#5BCBF5"><title>2027: 126231</title></circle>
	<circle cx="239.00" cy="259.05" data-y="150254" data-x="2028" r="4" fill="#5BCBF5"><title>2028: 150254</title></circle>
	<circle cx="256.00" cy="257.20" data-y="175686" data-x="2029" r="4" fill="#5BCBF5"><title>2029: 175686</title></circle>
	<circle cx="273.00" cy="255.25" data-y="202468" data-x="2030" r="4" fill="#5BCBF5"><title>2030: 202468</title></circle>
	<circle cx="290.00" cy="253.31" data-y="229157" data-x="2031" r="4" fill="#5BCBF5"><title>2031: 229157</title></circle>
	<circle cx="307.00" cy="251.80" data-y="249861" data-x="2032" r="4" fill="#5BCBF5"><title>2032: 249861</title></circle>
	<circle cx="324.00" cy="250.27" data-y="270891" data-x="2033" r="4" fill="#5BCBF5"><title>2033: 270891</title></circle>
	<circle cx="341.00" cy="248.69" data-y="292543" data-x="2034" r="4" fill="#5BCBF5"><title>2034: 292543</title></circle>
	<circle cx="358.00" cy="246.69" data-y="319920" data-x="2035" r="4" fill="#5BCBF5"><title>2035: 319920</title></circle>
	<circle cx="375.00" cy="239.26" data-y="421922" data-x="2036" r="4" fill="#5BCBF5"><title>2036: 421922</title></circle>
	<circle cx="392.00" cy="232.87" data-y="509682" data-x="2037" r="4" fill="#5BCBF5"><title>2037: 509682</title></circle>
	<circle cx="409.00" cy="226.31" data-y="599681" data-x="2038" r="4" fill="#5BCBF5"><title>2038: 599681</title></circle>
	<circle cx="426.00" cy="219.64" data-y="691302" data-x="2039" r="4" fill="#5BCBF5"><title>2039: 691302</title></circle>
	<circle cx="443.00" cy="212.85" data-y="784423" data-x="2040" r="4" fill="#5BCBF5"><title>2040: 784423</title></circle>
	<circle cx="460.00" cy="205.02" data-y="891919" data-x="2041" r="4" fill="#5BCBF5"><title>2041: 891919</title></circle>
	<circle cx="477.00" cy="197.93" data-y="989289" data-x="2042" r="4" fill="#5BCBF5"><title>2042: 989289</title></circle>
	<circle cx="494.00" cy="190.43" data-y="1092255" data-x="2043" r="4" fill="#5BCBF5"><title>2043: 1092255</title></circle>
	<circle cx="511.00" cy="182.44" data-y="1201967" data-x="2044" r="4" fill="#5BCBF5"><title>2044: 1201967</title></circle>
	<circle cx="528.00" cy="173.77" data-y="1320880" data-x="2045" r="4" fill="#5BCBF5"><title>2045: 1320880</title></circle>
	<circle cx="545.00" cy="163.43" data-y="1462854" data-x="2046" r="4" fill="#5BCBF5"><title>2046: 1462854</title></circle>
	<circle cx="562.00" cy="154.25" data-y="1588838" data-x="2047" r="4" fill="#5BCBF5"><title>2047: 1588838</title></circle>
	<circle cx="579.00" cy="145.01" data-y="1715673" data-x="2048" r="4" fill="#5BCBF5"><title>2048: 1715673</title></circle>
	<circle cx="596.00" cy="135.77" data-y="1842561" data-x="2049" r="4" fill="#5BCBF5"><title>2049: 1842561</title></circle>
	<circle cx="613.00" cy="127.15" data-y="1960917" data-x="2050" r="4" fill="#5BCBF5"><title>2050: 1960917</title></circle>
</g>
<g data-scenario="leading-the-way" class="data-series">	<path d="M 120.00,267.27L 137.00,266.31L 154.00,262.49L 171.00,258.16L 188.00,252.27L 205.00,244.63L 222.00,236.52L 239.00,227.60L 256.00,219.28L 273.00,210.28L 290.00,197.50L 307.00,187.27L 324.00,177.01L 341.00,166.90L 358.00,155.10L 375.00,137.98L 392.00,126.23L 409.00,117.33L 426.00,108.90L 443.00,102.49L 460.00,92.98L 477.00,89.12L 494.00,86.06L 511.00,81.82L 528.00,78.29L 545.00,74.55L 562.00,72.06L 579.00,70.13L 596.00,68.24L 613.00,68.43" id="Leading The Way" class="line" stroke="#C2CD23" stroke-width="3" stroke-linecap="round"><title>Leading The Way</title></path>
	<circle cx="120.00" cy="267.27" data-y="37489" data-x="2021" r="4" fill="#C2CD23"><title>2021: 37489</title></circle>
	<circle cx="137.00" cy="266.31" data-y="50600" data-x="2022" r="4" fill="#C2CD23"><title>2022: 50600</title></circle>
	<circle cx="154.00" cy="262.49" data-y="103025" data-x="2023" r="4" fill="#C2CD23"><title>2023: 103025</title></circle>
	<circle cx="171.00" cy="258.16" data-y="162562" data-x="2024" r="4" fill="#C2CD23"><title>2024: 162562</title></circle>
	<circle cx="188.00" cy="252.27" data-y="243436" data-x="2025" r="4" fill="#C2CD23"><title>2025: 243436</title></circle>
	<circle cx="205.00" cy="244.63" data-y="348261" data-x="2026" r="4" fill="#C2CD23"><title>2026: 348261</title></circle>
	<circle cx="222.00" cy="236.52" data-y="459519" data-x="2027" r="4" fill="#C2CD23"><title>2027: 459519</title></circle>
	<circle cx="239.00" cy="227.60" data-y="582052" data-x="2028" r="4" fill="#C2CD23"><title>2028: 582052</title></circle>
	<circle cx="256.00" cy="219.28" data-y="696226" data-x="2029" r="4" fill="#C2CD23"><title>2029: 696226</title></circle>
	<circle cx="273.00" cy="210.28" data-y="819729" data-x="2030" r="4" fill="#C2CD23"><title>2030: 819729</title></circle>
	<circle cx="290.00" cy="197.50" data-y="995154" data-x="2031" r="4" fill="#C2CD23"><title>2031: 995154</title></circle>
	<circle cx="307.00" cy="187.27" data-y="1135593" data-x="2032" r="4" fill="#C2CD23"><title>2032: 1135593</title></circle>
	<circle cx="324.00" cy="177.01" data-y="1276492" data-x="2033" r="4" fill="#C2CD23"><title>2033: 1276492</title></circle>
	<circle cx="341.00" cy="166.90" data-y="1415215" data-x="2034" r="4" fill="#C2CD23"><title>2034: 1415215</title></circle>
	<circle cx="358.00" cy="155.10" data-y="1577155" data-x="2035" r="4" fill="#C2CD23"><title>2035: 1577155</title></circle>
	<circle cx="375.00" cy="137.98" data-y="1812229" data-x="2036" r="4" fill="#C2CD23"><title>2036: 1812229</title></circle>
	<circle cx="392.00" cy="126.23" data-y="1973560" data-x="2037" r="4" fill="#C2CD23"><title>2037: 1973560</title></circle>
	<circle cx="409.00" cy="117.33" data-y="2095636" data-x="2038" r="4" fill="#C2CD23"><title>2038: 2095636</title></circle>
	<circle cx="426.00" cy="108.90" data-y="2211400" data-x="2039" r="4" fill="#C2CD23"><title>2039: 2211400</title></circle>
	<circle cx="443.00" cy="102.49" data-y="2299343" data-x="2040" r="4" fill="#C2CD23"><title>2040: 2299343</title></circle>
	<circle cx="460.00" cy="92.98" data-y="2429904" data-x="2041" r="4" fill="#C2CD23"><title>2041: 2429904</title></circle>
	<circle cx="477.00" cy="89.12" data-y="2482919" data-x="2042" r="4" fill="#C2CD23"><title>2042: 2482919</title></circle>
	<circle cx="494.00" cy="86.06" data-y="2524877" data-x="2043" r="4" fill="#C2CD23"><title>2043: 2524877</title></circle>
	<circle cx="511.00" cy="81.82" data-y="2583176" data-x="2044" r="4" fill="#C2CD23"><title>2044: 2583176</title></circle>
	<circle cx="528.00" cy="78.29" data-y="2631525" data-x="2045" r="4" fill="#C2CD23"><title>2045: 2631525</title></circle>
	<circle cx="545.00" cy="74.55" data-y="2682923" data-x="2046" r="4" fill="#C2CD23"><title>2046: 2682923</title></circle>
	<circle cx="562.00" cy="72.06" data-y="2717146" data-x="2047" r="4" fill="#C2CD23"><title>2047: 2717146</title></circle>
	<circle cx="579.00" cy="70.13" data-y="2743544" data-x="2048" r="4" fill="#C2CD23"><title>2048: 2743544</title></circle>
	<circle cx="596.00" cy="68.24" data-y="2769537" data-x="2049" r="4" fill="#C2CD23"><title>2049: 2769537</title></circle>
	<circle cx="613.00" cy="68.43" data-y="2766866" data-x="2050" r="4" fill="#C2CD23"><title>2050: 2766866</title></circle>
</g>
<g data-scenario="planning-scenario" class="data-series">	<path d="M 120.00,267.25L 137.00,266.05L 154.00,264.64L 171.00,263.14L 188.00,259.37L 205.00,254.22L 222.00,247.76L 239.00,239.44L 256.00,230.24L 273.00,219.61L 290.00,209.83L 307.00,199.40L 324.00,187.66L 341.00,174.83L 358.00,161.00L 375.00,147.83L 392.00,134.76L 409.00,121.41L 426.00,107.54L 443.00,94.43L 460.00,80.67L 477.00,68.10L 494.00,56.89L 511.00,47.12L 528.00,38.16L 545.00,29.94L 562.00,21.62L 579.00,13.29L 596.00,11.22L 613.00,10.00" id="NPg Planning Scenario" class="line" stroke="#ab1236" stroke-width="3" stroke-linecap="round"><title>NPg Planning Scenario</title></path>
	<circle cx="120.00" cy="267.25" data-y="37807" data-x="2021" r="4" fill="#ab1236"><title>2021: 37807</title></circle>
	<circle cx="137.00" cy="266.05" data-y="54255" data-x="2022" r="4" fill="#ab1236"><title>2022: 54255</title></circle>
	<circle cx="154.00" cy="264.64" data-y="73585" data-x="2023" r="4" fill="#ab1236"><title>2023: 73585</title></circle>
	<circle cx="171.00" cy="263.14" data-y="94167" data-x="2024" r="4" fill="#ab1236"><title>2024: 94167</title></circle>
	<circle cx="188.00" cy="259.37" data-y="145981" data-x="2025" r="4" fill="#ab1236"><title>2025: 145981</title></circle>
	<circle cx="205.00" cy="254.22" data-y="216586" data-x="2026" r="4" fill="#ab1236"><title>2026: 216586</title></circle>
	<circle cx="222.00" cy="247.76" data-y="305335" data-x="2027" r="4" fill="#ab1236"><title>2027: 305335</title></circle>
	<circle cx="239.00" cy="239.44" data-y="419489" data-x="2028" r="4" fill="#ab1236"><title>2028: 419489</title></circle>
	<circle cx="256.00" cy="230.24" data-y="545817" data-x="2029" r="4" fill="#ab1236"><title>2029: 545817</title></circle>
	<circle cx="273.00" cy="219.61" data-y="691754" data-x="2030" r="4" fill="#ab1236"><title>2030: 691754</title></circle>
	<circle cx="290.00" cy="209.83" data-y="825970" data-x="2031" r="4" fill="#ab1236"><title>2031: 825970</title></circle>
	<circle cx="307.00" cy="199.40" data-y="969084" data-x="2032" r="4" fill="#ab1236"><title>2032: 969084</title></circle>
	<circle cx="324.00" cy="187.66" data-y="1130282" data-x="2033" r="4" fill="#ab1236"><title>2033: 1130282</title></circle>
	<circle cx="341.00" cy="174.83" data-y="1306315" data-x="2034" r="4" fill="#ab1236"><title>2034: 1306315</title></circle>
	<circle cx="358.00" cy="161.00" data-y="1496164" data-x="2035" r="4" fill="#ab1236"><title>2035: 1496164</title></circle>
	<circle cx="375.00" cy="147.83" data-y="1677062" data-x="2036" r="4" fill="#ab1236"><title>2036: 1677062</title></circle>
	<circle cx="392.00" cy="134.76" data-y="1856404" data-x="2037" r="4" fill="#ab1236"><title>2037: 1856404</title></circle>
	<circle cx="409.00" cy="121.41" data-y="2039602" data-x="2038" r="4" fill="#ab1236"><title>2038: 2039602</title></circle>
	<circle cx="426.00" cy="107.54" data-y="2230016" data-x="2039" r="4" fill="#ab1236"><title>2039: 2230016</title></circle>
	<circle cx="443.00" cy="94.43" data-y="2409952" data-x="2040" r="4" fill="#ab1236"><title>2040: 2409952</title></circle>
	<circle cx="460.00" cy="80.67" data-y="2598963" data-x="2041" r="4" fill="#ab1236"><title>2041: 2598963</title></circle>
	<circle cx="477.00" cy="68.10" data-y="2771448" data-x="2042" r="4" fill="#ab1236"><title>2042: 2771448</title></circle>
	<circle cx="494.00" cy="56.89" data-y="2925286" data-x="2043" r="4" fill="#ab1236"><title>2043: 2925286</title></circle>
	<circle cx="511.00" cy="47.12" data-y="3059379" data-x="2044" r="4" fill="#ab1236"><title>2044: 3059379</title></circle>
	<circle cx="528.00" cy="38.16" data-y="3182376" data-x="2045" r="4" fill="#ab1236"><title>2045: 3182376</title></circle>
	<circle cx="545.00" cy="29.94" data-y="3295319" data-x="2046" r="4" fill="#ab1236"><title>2046: 3295319</title></circle>
	<circle cx="562.00" cy="21.62" data-y="3409463" data-x="2047" r="4" fill="#ab1236"><title>2047: 3409463</title></circle>
	<circle cx="579.00" cy="13.29" data-y="3523789" data-x="2048" r="4" fill="#ab1236"><title>2048: 3523789</title></circle>
	<circle cx="596.00" cy="11.22" data-y="3552198" data-x="2049" r="4" fill="#ab1236"><title>2049: 3552198</title></circle>
	<circle cx="613.00" cy="10.00" data-y="3568971" data-x="2050" r="4" fill="#ab1236"><title>2050: 3568971</title></circle>
</g>
<g data-scenario="falling-short" class="data-series">	<path d="M 120.00,267.27L 137.00,266.70L 154.00,266.18L 171.00,265.66L 188.00,265.14L 205.00,264.14L 222.00,262.54L 239.00,260.66L 256.00,258.55L 273.00,256.24L 290.00,253.21L 307.00,250.18L 324.00,246.99L 341.00,243.58L 358.00,239.90L 375.00,234.30L 392.00,229.38L 409.00,223.91L 426.00,217.73L 443.00,210.99L 460.00,202.80L 477.00,196.42L 494.00,190.25L 511.00,184.30L 528.00,178.55L 545.00,172.81L 562.00,166.97L 579.00,159.33L 596.00,150.97L 613.00,142.39" id="Falling Short" class="line" stroke="#827B7A" stroke-width="3" stroke-linecap="round"><title>Falling Short</title></path>
	<circle cx="120.00" cy="267.27" data-y="37489" data-x="2021" r="4" fill="#827B7A"><title>2021: 37489</title></circle>
	<circle cx="137.00" cy="266.70" data-y="45319" data-x="2022" r="4" fill="#827B7A"><title>2022: 45319</title></circle>
	<circle cx="154.00" cy="266.18" data-y="52492" data-x="2023" r="4" fill="#827B7A"><title>2023: 52492</title></circle>
	<circle cx="171.00" cy="265.66" data-y="59561" data-x="2024" r="4" fill="#827B7A"><title>2024: 59561</title></circle>
	<circle cx="188.00" cy="265.14" data-y="66655" data-x="2025" r="4" fill="#827B7A"><title>2025: 66655</title></circle>
	<circle cx="205.00" cy="264.14" data-y="80477" data-x="2026" r="4" fill="#827B7A"><title>2026: 80477</title></circle>
	<circle cx="222.00" cy="262.54" data-y="102416" data-x="2027" r="4" fill="#827B7A"><title>2027: 102416</title></circle>
	<circle cx="239.00" cy="260.66" data-y="128177" data-x="2028" r="4" fill="#827B7A"><title>2028: 128177</title></circle>
	<circle cx="256.00" cy="258.55" data-y="157118" data-x="2029" r="4" fill="#827B7A"><title>2029: 157118</title></circle>
	<circle cx="273.00" cy="256.24" data-y="188885" data-x="2030" r="4" fill="#827B7A"><title>2030: 188885</title></circle>
	<circle cx="290.00" cy="253.21" data-y="230415" data-x="2031" r="4" fill="#827B7A"><title>2031: 230415</title></circle>
	<circle cx="307.00" cy="250.18" data-y="272029" data-x="2032" r="4" fill="#827B7A"><title>2032: 272029</title></circle>
	<circle cx="324.00" cy="246.99" data-y="315811" data-x="2033" r="4" fill="#827B7A"><title>2033: 315811</title></circle>
	<circle cx="341.00" cy="243.58" data-y="362622" data-x="2034" r="4" fill="#827B7A"><title>2034: 362622</title></circle>
	<circle cx="358.00" cy="239.90" data-y="413140" data-x="2035" r="4" fill="#827B7A"><title>2035: 413140</title></circle>
	<circle cx="375.00" cy="234.30" data-y="489992" data-x="2036" r="4" fill="#827B7A"><title>2036: 489992</title></circle>
	<circle cx="392.00" cy="229.38" data-y="557646" data-x="2037" r="4" fill="#827B7A"><title>2037: 557646</title></circle>
	<circle cx="409.00" cy="223.91" data-y="632642" data-x="2038" r="4" fill="#827B7A"><title>2038: 632642</title></circle>
	<circle cx="426.00" cy="217.73" data-y="717546" data-x="2039" r="4" fill="#827B7A"><title>2039: 717546</title></circle>
	<circle cx="443.00" cy="210.99" data-y="810031" data-x="2040" r="4" fill="#827B7A"><title>2040: 810031</title></circle>
	<circle cx="460.00" cy="202.80" data-y="922443" data-x="2041" r="4" fill="#827B7A"><title>2041: 922443</title></circle>
	<circle cx="477.00" cy="196.42" data-y="1010025" data-x="2042" r="4" fill="#827B7A"><title>2042: 1010025</title></circle>
	<circle cx="494.00" cy="190.25" data-y="1094710" data-x="2043" r="4" fill="#827B7A"><title>2043: 1094710</title></circle>
	<circle cx="511.00" cy="184.30" data-y="1176424" data-x="2044" r="4" fill="#827B7A"><title>2044: 1176424</title></circle>
	<circle cx="528.00" cy="178.55" data-y="1255360" data-x="2045" r="4" fill="#827B7A"><title>2045: 1255360</title></circle>
	<circle cx="545.00" cy="172.81" data-y="1334079" data-x="2046" r="4" fill="#827B7A"><title>2046: 1334079</title></circle>
	<circle cx="562.00" cy="166.97" data-y="1414269" data-x="2047" r="4" fill="#827B7A"><title>2047: 1414269</title></circle>
	<circle cx="579.00" cy="159.33" data-y="1519187" data-x="2048" r="4" fill="#827B7A"><title>2048: 1519187</title></circle>
	<circle cx="596.00" cy="150.97" data-y="1633855" data-x="2049" r="4" fill="#827B7A"><title>2049: 1633855</title></circle>
	<circle cx="613.00" cy="142.39" data-y="1751705" data-x="2050" r="4" fill="#827B7A"><title>2050: 1751705</title></circle>
</g>
</svg>
