<svg width="640" height="320" viewBox="0 0 640 320" xmlns="http://www.w3.org/2000/svg" style="overflow:display" preserveAspectRatio="xMinYMin meet" overflow="visible">
<defs>
	<style>
	.data-series path.line { fill-opacity: 0; }
	.data-series path.line.dotted { stroke-dasharray: 12 20 }
	.data-series circle { display: none; }
	.data-series:hover path.line, .data-series.on path.line { stroke-width: 5; }
	.data-series:hover circle, .data-series.on circle { display: inline; }
	.data-series circle:hover, .data-series circle.on { r: 6px!important; fill: black; }
	.grid { font-family: "Helvetica Neue",Helvetica,Arial,"Lucida Grande",sans-serif; }
	.grid line { stroke: rgb(0,0,0); stroke-width: 2; stroke-linecap: round; }
	.grid.grid-x text { text-anchor: middle; dominant-baseline: hanging; transform: translateY(10px); }
	.grid.grid-y text { text-anchor: end; dominant-baseline: middle; transform: translateX(-10px); }
	</style>
</defs>
<g class="grid grid-y">
	<line x1="60" y1="270" x2="630" y2="270" data-left="60"></line>
	<text x="60" y="270" text-anchor="end">0</text>
	<text x="60" y="218" text-anchor="end">20</text>
	<text x="60" y="166" text-anchor="end">40</text>
	<text x="60" y="114" text-anchor="end">60</text>
	<text x="60" y="62" text-anchor="end">80</text>
	<text x="60" y="10" text-anchor="end">100</text>
	<text style="text-anchor:middle;dominant-baseline:hanging;font-weight:bold;transform: translateY(140px) rotate(-90deg);">EVs (%)</text>
</g>
<g class="grid grid-x">
	<line class="tick" x1="231" y1="270" x2="231" y2="275"></line>
	<text x="231" y="270" text-anchor="middle">2030</text>
	<line class="tick" x1="421" y1="270" x2="421" y2="275"></line>
	<text x="421" y="270" text-anchor="middle">2040</text>
	<line class="tick" x1="611" y1="270" x2="611" y2="275"></line>
	<text x="611" y="270" text-anchor="middle">2050</text>
	<text style="text-anchor:middle;dominant-baseline:hanging;font-weight:bold;transform: translateY(140px) rotate(-90deg);"></text>
</g>
<g data-scenario="planning-scenario" class="data-series">	<path d="M 60.00,266.62L 79.00,263.53L 98.00,257.45L 117.00,249.71L 136.00,240.09L 155.00,229.52L 174.00,217.43L 193.00,203.85L 212.00,189.09L 231.00,169.93L 250.00,151.83L 269.00,134.66L 288.00,118.55L 307.00,103.65L 326.00,90.06L 345.00,77.79L 364.00,66.91L 383.00,57.45L 402.00,49.34L 421.00,42.56L 440.00,37.15L 459.00,32.80L 478.00,29.42L 497.00,26.86L 516.00,24.97L 535.00,23.65L 554.00,22.73L 573.00,22.14L 592.00,21.76L 611.00,21.52" id="NPg Planning Scenario" class="line" stroke="#ab1236" stroke-width="3" stroke-linecap="round"><title>NPg Planning Scenario</title></path>
	<circle cx="60.00" cy="266.62" data-y="1.3001366" data-x="2021" r="4" fill="#ab1236"><title>2021: 1.3001366</title></circle>
	<circle cx="79.00" cy="263.53" data-y="2.4884284" data-x="2022" r="4" fill="#ab1236"><title>2022: 2.4884284</title></circle>
	<circle cx="98.00" cy="257.45" data-y="4.8286267" data-x="2023" r="4" fill="#ab1236"><title>2023: 4.8286267</title></circle>
	<circle cx="117.00" cy="249.71" data-y="7.8057563" data-x="2024" r="4" fill="#ab1236"><title>2024: 7.8057563</title></circle>
	<circle cx="136.00" cy="240.09" data-y="11.5057467" data-x="2025" r="4" fill="#ab1236"><title>2025: 11.5057467</title></circle>
	<circle cx="155.00" cy="229.52" data-y="15.5684855" data-x="2026" r="4" fill="#ab1236"><title>2026: 15.5684855</title></circle>
	<circle cx="174.00" cy="217.43" data-y="20.217516" data-x="2027" r="4" fill="#ab1236"><title>2027: 20.217516</title></circle>
	<circle cx="193.00" cy="203.85" data-y="25.443375" data-x="2028" r="4" fill="#ab1236"><title>2028: 25.443375</title></circle>
	<circle cx="212.00" cy="189.09" data-y="31.1198366" data-x="2029" r="4" fill="#ab1236"><title>2029: 31.1198366</title></circle>
	<circle cx="231.00" cy="169.93" data-y="38.4871641" data-x="2030" r="4" fill="#ab1236"><title>2030: 38.4871641</title></circle>
	<circle cx="250.00" cy="151.83" data-y="45.4493762" data-x="2031" r="4" fill="#ab1236"><title>2031: 45.4493762</title></circle>
	<circle cx="269.00" cy="134.66" data-y="52.0550758" data-x="2032" r="4" fill="#ab1236"><title>2032: 52.0550758</title></circle>
	<circle cx="288.00" cy="118.55" data-y="58.2509361" data-x="2033" r="4" fill="#ab1236"><title>2033: 58.2509361</title></circle>
	<circle cx="307.00" cy="103.65" data-y="63.9801693" data-x="2034" r="4" fill="#ab1236"><title>2034: 63.9801693</title></circle>
	<circle cx="326.00" cy="90.06" data-y="69.2059408" data-x="2035" r="4" fill="#ab1236"><title>2035: 69.2059408</title></circle>
	<circle cx="345.00" cy="77.79" data-y="73.9264913" data-x="2036" r="4" fill="#ab1236"><title>2036: 73.9264913</title></circle>
	<circle cx="364.00" cy="66.91" data-y="78.1105423" data-x="2037" r="4" fill="#ab1236"><title>2037: 78.1105423</title></circle>
	<circle cx="383.00" cy="57.45" data-y="81.7513667" data-x="2038" r="4" fill="#ab1236"><title>2038: 81.7513667</title></circle>
	<circle cx="402.00" cy="49.34" data-y="84.8703159" data-x="2039" r="4" fill="#ab1236"><title>2039: 84.8703159</title></circle>
	<circle cx="421.00" cy="42.56" data-y="87.477623" data-x="2040" r="4" fill="#ab1236"><title>2040: 87.477623</title></circle>
	<circle cx="440.00" cy="37.15" data-y="89.5590865" data-x="2041" r="4" fill="#ab1236"><title>2041: 89.5590865</title></circle>
	<circle cx="459.00" cy="32.80" data-y="91.2321032" data-x="2042" r="4" fill="#ab1236"><title>2042: 91.2321032</title></circle>
	<circle cx="478.00" cy="29.42" data-y="92.5302229" data-x="2043" r="4" fill="#ab1236"><title>2043: 92.5302229</title></circle>
	<circle cx="497.00" cy="26.86" data-y="93.5144828" data-x="2044" r="4" fill="#ab1236"><title>2044: 93.5144828</title></circle>
	<circle cx="516.00" cy="24.97" data-y="94.2435182" data-x="2045" r="4" fill="#ab1236"><title>2045: 94.2435182</title></circle>
	<circle cx="535.00" cy="23.65" data-y="94.7511076" data-x="2046" r="4" fill="#ab1236"><title>2046: 94.7511076</title></circle>
	<circle cx="554.00" cy="22.73" data-y="95.1036257" data-x="2047" r="4" fill="#ab1236"><title>2047: 95.1036257</title></circle>
	<circle cx="573.00" cy="22.14" data-y="95.3301232" data-x="2048" r="4" fill="#ab1236"><title>2048: 95.3301232</title></circle>
	<circle cx="592.00" cy="21.76" data-y="95.4772266" data-x="2049" r="4" fill="#ab1236"><title>2049: 95.4772266</title></circle>
	<circle cx="611.00" cy="21.52" data-y="95.5675054" data-x="2050" r="4" fill="#ab1236"><title>2050: 95.5675054</title></circle>
</g>
</svg>
