<svg width="640" height="320" viewBox="0 0 640 320" xmlns="http://www.w3.org/2000/svg" style="overflow:display" preserveAspectRatio="xMinYMin meet" overflow="visible">
<defs>
	<style>
	.data-series path.line { fill-opacity: 0; }
	.data-series path.line.dotted { stroke-dasharray: 12 20 }
	.data-series circle { display: none; }
	.data-series:hover path.line, .data-series.on path.line { stroke-width: 5; }
	.data-series:hover circle, .data-series.on circle { display: inline; }
	.data-series circle:hover, .data-series circle.on { r: 6px!important; fill: black; }
	.grid { font-family: "Helvetica Neue",Helvetica,Arial,"Lucida Grande",sans-serif; }
	.grid line { stroke: rgb(0,0,0); stroke-width: 2; stroke-linecap: round; }
	.grid.grid-x text { text-anchor: middle; dominant-baseline: hanging; transform: translateY(10px); }
	.grid.grid-y text { text-anchor: end; dominant-baseline: middle; transform: translateX(-10px); }
	</style>
</defs>
<g class="grid grid-y">
	<line x1="100" y1="270" x2="630" y2="270" data-left="100"></line>
	<text x="100" y="270" text-anchor="end">0</text>
	<text x="100" y="167.981186905298" text-anchor="end">5</text>
	<text x="100" y="65.9623738105954" text-anchor="end">10</text>
	<text style="text-anchor:middle;dominant-baseline:hanging;font-weight:bold;transform: translateY(140px) rotate(-90deg);">Annual peak demand (GW)</text>
</g>
<g class="grid grid-x">
	<line class="tick" x1="259" y1="270" x2="259" y2="275"></line>
	<text x="259" y="270" text-anchor="middle">2030</text>
	<line class="tick" x1="435.666666666667" y1="270" x2="435.666666666667" y2="275"></line>
	<text x="435.666666666667" y="270" text-anchor="middle">2040</text>
	<line class="tick" x1="612.333333333333" y1="270" x2="612.333333333333" y2="275"></line>
	<text x="612.333333333333" y="270" text-anchor="middle">2050</text>
	<text style="text-anchor:middle;dominant-baseline:hanging;font-weight:bold;transform: translateY(140px) rotate(-90deg);"></text>
</g>
<g data-scenario="consumer-transformation" class="data-series">	<path d="M 100.00,147.85L 117.67,138.53L 135.33,139.14L 153.00,139.16L 170.67,138.61L 188.33,136.87L 206.00,134.51L 223.67,131.34L 241.33,126.94L 259.00,120.49L 276.67,113.35L 294.33,105.75L 312.00,98.14L 329.67,90.96L 347.33,80.59L 365.00,73.90L 382.67,68.39L 400.33,63.60L 418.00,59.32L 435.67,55.27L 453.33,52.02L 471.00,49.83L 488.67,48.60L 506.33,47.93L 524.00,47.48L 541.67,47.17L 559.33,46.95L 577.00,46.79L 594.67,46.84L 612.33,47.28" id="Consumer Transformation" class="line" stroke="#cc0935" stroke-width="3" stroke-linecap="round"><title>Consumer Transformation</title></path>
	<circle cx="100.00" cy="147.85" data-y="5.986805647" data-x="2021" r="4" fill="#cc0935"><title>2021: 5.986805647</title></circle>
	<circle cx="117.67" cy="138.53" data-y="6.443320388" data-x="2022" r="4" fill="#cc0935"><title>2022: 6.443320388</title></circle>
	<circle cx="135.33" cy="139.14" data-y="6.413478686" data-x="2023" r="4" fill="#cc0935"><title>2023: 6.413478686</title></circle>
	<circle cx="153.00" cy="139.16" data-y="6.412530845" data-x="2024" r="4" fill="#cc0935"><title>2024: 6.412530845</title></circle>
	<circle cx="170.67" cy="138.61" data-y="6.439425158" data-x="2025" r="4" fill="#cc0935"><title>2025: 6.439425158</title></circle>
	<circle cx="188.33" cy="136.87" data-y="6.524668399" data-x="2026" r="4" fill="#cc0935"><title>2026: 6.524668399</title></circle>
	<circle cx="206.00" cy="134.51" data-y="6.640457613" data-x="2027" r="4" fill="#cc0935"><title>2027: 6.640457613</title></circle>
	<circle cx="223.67" cy="131.34" data-y="6.795809895" data-x="2028" r="4" fill="#cc0935"><title>2028: 6.795809895</title></circle>
	<circle cx="241.33" cy="126.94" data-y="7.011469151" data-x="2029" r="4" fill="#cc0935"><title>2029: 7.011469151</title></circle>
	<circle cx="259.00" cy="120.49" data-y="7.327515215" data-x="2030" r="4" fill="#cc0935"><title>2030: 7.327515215</title></circle>
	<circle cx="276.67" cy="113.35" data-y="7.677471209" data-x="2031" r="4" fill="#cc0935"><title>2031: 7.677471209</title></circle>
	<circle cx="294.33" cy="105.75" data-y="8.05017194" data-x="2032" r="4" fill="#cc0935"><title>2032: 8.05017194</title></circle>
	<circle cx="312.00" cy="98.14" data-y="8.423106636" data-x="2033" r="4" fill="#cc0935"><title>2033: 8.423106636</title></circle>
	<circle cx="329.67" cy="90.96" data-y="8.774956104" data-x="2034" r="4" fill="#cc0935"><title>2034: 8.774956104</title></circle>
	<circle cx="347.33" cy="80.59" data-y="9.283153009" data-x="2035" r="4" fill="#cc0935"><title>2035: 9.283153009</title></circle>
	<circle cx="365.00" cy="73.90" data-y="9.610745674" data-x="2036" r="4" fill="#cc0935"><title>2036: 9.610745674</title></circle>
	<circle cx="382.67" cy="68.39" data-y="9.880978823" data-x="2037" r="4" fill="#cc0935"><title>2037: 9.880978823</title></circle>
	<circle cx="400.33" cy="63.60" data-y="10.11582279" data-x="2038" r="4" fill="#cc0935"><title>2038: 10.11582279</title></circle>
	<circle cx="418.00" cy="59.32" data-y="10.32545727" data-x="2039" r="4" fill="#cc0935"><title>2039: 10.32545727</title></circle>
	<circle cx="435.67" cy="55.27" data-y="10.52420548" data-x="2040" r="4" fill="#cc0935"><title>2040: 10.52420548</title></circle>
	<circle cx="453.33" cy="52.02" data-y="10.68327069" data-x="2041" r="4" fill="#cc0935"><title>2041: 10.68327069</title></circle>
	<circle cx="471.00" cy="49.83" data-y="10.79077209" data-x="2042" r="4" fill="#cc0935"><title>2042: 10.79077209</title></circle>
	<circle cx="488.67" cy="48.60" data-y="10.85072888" data-x="2043" r="4" fill="#cc0935"><title>2043: 10.85072888</title></circle>
	<circle cx="506.33" cy="47.93" data-y="10.88371259" data-x="2044" r="4" fill="#cc0935"><title>2044: 10.88371259</title></circle>
	<circle cx="524.00" cy="47.48" data-y="10.90572498" data-x="2045" r="4" fill="#cc0935"><title>2045: 10.90572498</title></circle>
	<circle cx="541.67" cy="47.17" data-y="10.92089958" data-x="2046" r="4" fill="#cc0935"><title>2046: 10.92089958</title></circle>
	<circle cx="559.33" cy="46.95" data-y="10.9320075" data-x="2047" r="4" fill="#cc0935"><title>2047: 10.9320075</title></circle>
	<circle cx="577.00" cy="46.79" data-y="10.93955945" data-x="2048" r="4" fill="#cc0935"><title>2048: 10.93955945</title></circle>
	<circle cx="594.67" cy="46.84" data-y="10.93706496" data-x="2049" r="4" fill="#cc0935"><title>2049: 10.93706496</title></circle>
	<circle cx="612.33" cy="47.28" data-y="10.91550803" data-x="2050" r="4" fill="#cc0935"><title>2050: 10.91550803</title></circle>
</g>
<g data-scenario="system-transformation" class="data-series">	<path d="M 100.00,147.50L 117.67,135.87L 135.33,136.14L 153.00,136.67L 170.67,136.53L 188.33,135.51L 206.00,133.92L 223.67,131.91L 241.33,129.43L 259.00,125.47L 276.67,122.04L 294.33,118.25L 312.00,113.95L 329.67,109.25L 347.33,100.86L 365.00,93.85L 382.67,87.30L 400.33,81.22L 418.00,75.77L 435.67,70.88L 453.33,66.09L 471.00,62.17L 488.67,58.93L 506.33,56.20L 524.00,53.41L 541.67,50.07L 559.33,47.33L 577.00,44.44L 594.67,41.59L 612.33,38.98" id="System Transformation" class="line" stroke="#cc0935" stroke-width="3" stroke-linecap="round"><title>System Transformation</title></path>
	<circle cx="100.00" cy="147.50" data-y="6.003826146" data-x="2021" r="4" fill="#cc0935"><title>2021: 6.003826146</title></circle>
	<circle cx="117.67" cy="135.87" data-y="6.573592377" data-x="2022" r="4" fill="#cc0935"><title>2022: 6.573592377</title></circle>
	<circle cx="135.33" cy="136.14" data-y="6.560536283" data-x="2023" r="4" fill="#cc0935"><title>2023: 6.560536283</title></circle>
	<circle cx="153.00" cy="136.67" data-y="6.534749593" data-x="2024" r="4" fill="#cc0935"><title>2024: 6.534749593</title></circle>
	<circle cx="170.67" cy="136.53" data-y="6.541368585" data-x="2025" r="4" fill="#cc0935"><title>2025: 6.541368585</title></circle>
	<circle cx="188.33" cy="135.51" data-y="6.591646392" data-x="2026" r="4" fill="#cc0935"><title>2026: 6.591646392</title></circle>
	<circle cx="206.00" cy="133.92" data-y="6.669236535" data-x="2027" r="4" fill="#cc0935"><title>2027: 6.669236535</title></circle>
	<circle cx="223.67" cy="131.91" data-y="6.767944148" data-x="2028" r="4" fill="#cc0935"><title>2028: 6.767944148</title></circle>
	<circle cx="241.33" cy="129.43" data-y="6.889303553" data-x="2029" r="4" fill="#cc0935"><title>2029: 6.889303553</title></circle>
	<circle cx="259.00" cy="125.47" data-y="7.083622716" data-x="2030" r="4" fill="#cc0935"><title>2030: 7.083622716</title></circle>
	<circle cx="276.67" cy="122.04" data-y="7.251646995" data-x="2031" r="4" fill="#cc0935"><title>2031: 7.251646995</title></circle>
	<circle cx="294.33" cy="118.25" data-y="7.437330269" data-x="2032" r="4" fill="#cc0935"><title>2032: 7.437330269</title></circle>
	<circle cx="312.00" cy="113.95" data-y="7.648165036" data-x="2033" r="4" fill="#cc0935"><title>2033: 7.648165036</title></circle>
	<circle cx="329.67" cy="109.25" data-y="7.878513967" data-x="2034" r="4" fill="#cc0935"><title>2034: 7.878513967</title></circle>
	<circle cx="347.33" cy="100.86" data-y="8.289743528" data-x="2035" r="4" fill="#cc0935"><title>2035: 8.289743528</title></circle>
	<circle cx="365.00" cy="93.85" data-y="8.63345416" data-x="2036" r="4" fill="#cc0935"><title>2036: 8.63345416</title></circle>
	<circle cx="382.67" cy="87.30" data-y="8.954074667" data-x="2037" r="4" fill="#cc0935"><title>2037: 8.954074667</title></circle>
	<circle cx="400.33" cy="81.22" data-y="9.252283116" data-x="2038" r="4" fill="#cc0935"><title>2038: 9.252283116</title></circle>
	<circle cx="418.00" cy="75.77" data-y="9.519505769" data-x="2039" r="4" fill="#cc0935"><title>2039: 9.519505769</title></circle>
	<circle cx="435.67" cy="70.88" data-y="9.759121063" data-x="2040" r="4" fill="#cc0935"><title>2040: 9.759121063</title></circle>
	<circle cx="453.33" cy="66.09" data-y="9.993651255" data-x="2041" r="4" fill="#cc0935"><title>2041: 9.993651255</title></circle>
	<circle cx="471.00" cy="62.17" data-y="10.18592316" data-x="2042" r="4" fill="#cc0935"><title>2042: 10.18592316</title></circle>
	<circle cx="488.67" cy="58.93" data-y="10.34485" data-x="2043" r="4" fill="#cc0935"><title>2043: 10.34485</title></circle>
	<circle cx="506.33" cy="56.20" data-y="10.47833145" data-x="2044" r="4" fill="#cc0935"><title>2044: 10.47833145</title></circle>
	<circle cx="524.00" cy="53.41" data-y="10.61527331" data-x="2045" r="4" fill="#cc0935"><title>2045: 10.61527331</title></circle>
	<circle cx="541.67" cy="50.07" data-y="10.77869834" data-x="2046" r="4" fill="#cc0935"><title>2046: 10.77869834</title></circle>
	<circle cx="559.33" cy="47.33" data-y="10.91328715" data-x="2047" r="4" fill="#cc0935"><title>2047: 10.91328715</title></circle>
	<circle cx="577.00" cy="44.44" data-y="11.05474549" data-x="2048" r="4" fill="#cc0935"><title>2048: 11.05474549</title></circle>
	<circle cx="594.67" cy="41.59" data-y="11.19449867" data-x="2049" r="4" fill="#cc0935"><title>2049: 11.19449867</title></circle>
	<circle cx="612.33" cy="38.98" data-y="11.32225044" data-x="2050" r="4" fill="#cc0935"><title>2050: 11.32225044</title></circle>
</g>
<g data-scenario="leading-the-way" class="data-series">	<path d="M 100.00,147.85L 117.67,140.39L 135.33,142.03L 153.00,142.64L 170.67,142.37L 188.33,140.89L 206.00,138.31L 223.67,134.54L 241.33,130.28L 259.00,123.96L 276.67,116.08L 294.33,109.00L 312.00,102.00L 329.67,95.51L 347.33,86.32L 365.00,79.92L 382.67,75.75L 400.33,72.91L 418.00,70.67L 435.67,69.50L 453.33,67.76L 471.00,67.73L 488.67,68.11L 506.33,68.47L 524.00,69.03L 541.67,69.38L 559.33,69.89L 577.00,70.63L 594.67,71.43L 612.33,72.53" id="Leading The Way" class="line" stroke="#cc0935" stroke-width="3" stroke-linecap="round"><title>Leading The Way</title></path>
	<circle cx="100.00" cy="147.85" data-y="5.98654234" data-x="2021" r="4" fill="#cc0935"><title>2021: 5.98654234</title></circle>
	<circle cx="117.67" cy="140.39" data-y="6.352269558" data-x="2022" r="4" fill="#cc0935"><title>2022: 6.352269558</title></circle>
	<circle cx="135.33" cy="142.03" data-y="6.271905459" data-x="2023" r="4" fill="#cc0935"><title>2023: 6.271905459</title></circle>
	<circle cx="153.00" cy="142.64" data-y="6.241979631" data-x="2024" r="4" fill="#cc0935"><title>2024: 6.241979631</title></circle>
	<circle cx="170.67" cy="142.37" data-y="6.255064597" data-x="2025" r="4" fill="#cc0935"><title>2025: 6.255064597</title></circle>
	<circle cx="188.33" cy="140.89" data-y="6.327752799" data-x="2026" r="4" fill="#cc0935"><title>2026: 6.327752799</title></circle>
	<circle cx="206.00" cy="138.31" data-y="6.454056255" data-x="2027" r="4" fill="#cc0935"><title>2027: 6.454056255</title></circle>
	<circle cx="223.67" cy="134.54" data-y="6.63888329" data-x="2028" r="4" fill="#cc0935"><title>2028: 6.63888329</title></circle>
	<circle cx="241.33" cy="130.28" data-y="6.847997323" data-x="2029" r="4" fill="#cc0935"><title>2029: 6.847997323</title></circle>
	<circle cx="259.00" cy="123.96" data-y="7.157733943" data-x="2030" r="4" fill="#cc0935"><title>2030: 7.157733943</title></circle>
	<circle cx="276.67" cy="116.08" data-y="7.543521279" data-x="2031" r="4" fill="#cc0935"><title>2031: 7.543521279</title></circle>
	<circle cx="294.33" cy="109.00" data-y="7.890694231" data-x="2032" r="4" fill="#cc0935"><title>2032: 7.890694231</title></circle>
	<circle cx="312.00" cy="102.00" data-y="8.23366803" data-x="2033" r="4" fill="#cc0935"><title>2033: 8.23366803</title></circle>
	<circle cx="329.67" cy="95.51" data-y="8.551881211" data-x="2034" r="4" fill="#cc0935"><title>2034: 8.551881211</title></circle>
	<circle cx="347.33" cy="86.32" data-y="9.002390966" data-x="2035" r="4" fill="#cc0935"><title>2035: 9.002390966</title></circle>
	<circle cx="365.00" cy="79.92" data-y="9.315933458" data-x="2036" r="4" fill="#cc0935"><title>2036: 9.315933458</title></circle>
	<circle cx="382.67" cy="75.75" data-y="9.520159362" data-x="2037" r="4" fill="#cc0935"><title>2037: 9.520159362</title></circle>
	<circle cx="400.33" cy="72.91" data-y="9.659287742" data-x="2038" r="4" fill="#cc0935"><title>2038: 9.659287742</title></circle>
	<circle cx="418.00" cy="70.67" data-y="9.769314247" data-x="2039" r="4" fill="#cc0935"><title>2039: 9.769314247</title></circle>
	<circle cx="435.67" cy="69.50" data-y="9.826600444" data-x="2040" r="4" fill="#cc0935"><title>2040: 9.826600444</title></circle>
	<circle cx="453.33" cy="67.76" data-y="9.912128342" data-x="2041" r="4" fill="#cc0935"><title>2041: 9.912128342</title></circle>
	<circle cx="471.00" cy="67.73" data-y="9.913343439" data-x="2042" r="4" fill="#cc0935"><title>2042: 9.913343439</title></circle>
	<circle cx="488.67" cy="68.11" data-y="9.89470869" data-x="2043" r="4" fill="#cc0935"><title>2043: 9.89470869</title></circle>
	<circle cx="506.33" cy="68.47" data-y="9.87688902" data-x="2044" r="4" fill="#cc0935"><title>2044: 9.87688902</title></circle>
	<circle cx="524.00" cy="69.03" data-y="9.849806677" data-x="2045" r="4" fill="#cc0935"><title>2045: 9.849806677</title></circle>
	<circle cx="541.67" cy="69.38" data-y="9.832369347" data-x="2046" r="4" fill="#cc0935"><title>2046: 9.832369347</title></circle>
	<circle cx="559.33" cy="69.89" data-y="9.807699267" data-x="2047" r="4" fill="#cc0935"><title>2047: 9.807699267</title></circle>
	<circle cx="577.00" cy="70.63" data-y="9.771163802" data-x="2048" r="4" fill="#cc0935"><title>2048: 9.771163802</title></circle>
	<circle cx="594.67" cy="71.43" data-y="9.731866594" data-x="2049" r="4" fill="#cc0935"><title>2049: 9.731866594</title></circle>
	<circle cx="612.33" cy="72.53" data-y="9.678162076" data-x="2050" r="4" fill="#cc0935"><title>2050: 9.678162076</title></circle>
</g>
<g data-scenario="npg-planning-scenario-no-customer-flexibility-customer-flexibility" class="data-series">	<path d="M 100.00,148.10L 117.67,136.35L 135.33,135.12L 153.00,134.12L 170.67,132.39L 188.33,129.91L 206.00,126.50L 223.67,121.95L 241.33,116.28L 259.00,107.58L 276.67,100.90L 294.33,94.49L 312.00,87.40L 329.67,80.37L 347.33,68.89L 365.00,61.28L 382.67,54.60L 400.33,48.21L 418.00,42.28L 435.67,37.32L 453.33,33.08L 471.00,29.02L 488.67,25.22L 506.33,21.96L 524.00,18.94L 541.67,16.11L 559.33,13.27L 577.00,10.55L 594.67,10.15L 612.33,10.00" id="NPg Planning Scenario no customer flexibility" class="line dotted" stroke="#cc0935" stroke-width="3" stroke-linecap="round"><title>NPg Planning Scenario no customer flexibility</title></path>
	<circle cx="100.00" cy="148.10" data-y="5.97446741" data-x="2021" r="4" fill="#cc0935"><title>2021: 5.97446741</title></circle>
	<circle cx="117.67" cy="136.35" data-y="6.550347841" data-x="2022" r="4" fill="#cc0935"><title>2022: 6.550347841</title></circle>
	<circle cx="135.33" cy="135.12" data-y="6.610404709" data-x="2023" r="4" fill="#cc0935"><title>2023: 6.610404709</title></circle>
	<circle cx="153.00" cy="134.12" data-y="6.659772545" data-x="2024" r="4" fill="#cc0935"><title>2024: 6.659772545</title></circle>
	<circle cx="170.67" cy="132.39" data-y="6.744214469" data-x="2025" r="4" fill="#cc0935"><title>2025: 6.744214469</title></circle>
	<circle cx="188.33" cy="129.91" data-y="6.865795718" data-x="2026" r="4" fill="#cc0935"><title>2026: 6.865795718</title></circle>
	<circle cx="206.00" cy="126.50" data-y="7.033066331" data-x="2027" r="4" fill="#cc0935"><title>2027: 7.033066331</title></circle>
	<circle cx="223.67" cy="121.95" data-y="7.255989124" data-x="2028" r="4" fill="#cc0935"><title>2028: 7.255989124</title></circle>
	<circle cx="241.33" cy="116.28" data-y="7.533729478" data-x="2029" r="4" fill="#cc0935"><title>2029: 7.533729478</title></circle>
	<circle cx="259.00" cy="107.58" data-y="7.960311949" data-x="2030" r="4" fill="#cc0935"><title>2030: 7.960311949</title></circle>
	<circle cx="276.67" cy="100.90" data-y="8.287769807" data-x="2031" r="4" fill="#cc0935"><title>2031: 8.287769807</title></circle>
	<circle cx="294.33" cy="94.49" data-y="8.601690381" data-x="2032" r="4" fill="#cc0935"><title>2032: 8.601690381</title></circle>
	<circle cx="312.00" cy="87.40" data-y="8.949517356" data-x="2033" r="4" fill="#cc0935"><title>2033: 8.949517356</title></circle>
	<circle cx="329.67" cy="80.37" data-y="9.294016855" data-x="2034" r="4" fill="#cc0935"><title>2034: 9.294016855</title></circle>
	<circle cx="347.33" cy="68.89" data-y="9.856308625" data-x="2035" r="4" fill="#cc0935"><title>2035: 9.856308625</title></circle>
	<circle cx="365.00" cy="61.28" data-y="10.22956746" data-x="2036" r="4" fill="#cc0935"><title>2036: 10.22956746</title></circle>
	<circle cx="382.67" cy="54.60" data-y="10.55671558" data-x="2037" r="4" fill="#cc0935"><title>2037: 10.55671558</title></circle>
	<circle cx="400.33" cy="48.21" data-y="10.86983089" data-x="2038" r="4" fill="#cc0935"><title>2038: 10.86983089</title></circle>
	<circle cx="418.00" cy="42.28" data-y="11.16076592" data-x="2039" r="4" fill="#cc0935"><title>2039: 11.16076592</title></circle>
	<circle cx="435.67" cy="37.32" data-y="11.40363146" data-x="2040" r="4" fill="#cc0935"><title>2040: 11.40363146</title></circle>
	<circle cx="453.33" cy="33.08" data-y="11.61182286" data-x="2041" r="4" fill="#cc0935"><title>2041: 11.61182286</title></circle>
	<circle cx="471.00" cy="29.02" data-y="11.81064179" data-x="2042" r="4" fill="#cc0935"><title>2042: 11.81064179</title></circle>
	<circle cx="488.67" cy="25.22" data-y="11.99697571" data-x="2043" r="4" fill="#cc0935"><title>2043: 11.99697571</title></circle>
	<circle cx="506.33" cy="21.96" data-y="12.15650857" data-x="2044" r="4" fill="#cc0935"><title>2044: 12.15650857</title></circle>
	<circle cx="524.00" cy="18.94" data-y="12.30477686" data-x="2045" r="4" fill="#cc0935"><title>2045: 12.30477686</title></circle>
	<circle cx="541.67" cy="16.11" data-y="12.44332471" data-x="2046" r="4" fill="#cc0935"><title>2046: 12.44332471</title></circle>
	<circle cx="559.33" cy="13.27" data-y="12.58230194" data-x="2047" r="4" fill="#cc0935"><title>2047: 12.58230194</title></circle>
	<circle cx="577.00" cy="10.55" data-y="12.71579503" data-x="2048" r="4" fill="#cc0935"><title>2048: 12.71579503</title></circle>
	<circle cx="594.67" cy="10.15" data-y="12.73536654" data-x="2049" r="4" fill="#cc0935"><title>2049: 12.73536654</title></circle>
	<circle cx="612.33" cy="10.00" data-y="12.74274774" data-x="2050" r="4" fill="#cc0935"><title>2050: 12.74274774</title></circle>
</g>
<g data-scenario="falling-short" class="data-series">	<path d="M 100.00,147.49L 117.67,131.50L 135.33,129.68L 153.00,128.92L 170.67,128.26L 188.33,127.85L 206.00,126.87L 223.67,125.39L 241.33,123.51L 259.00,120.00L 276.67,117.25L 294.33,114.28L 312.00,110.95L 329.67,107.30L 347.33,99.64L 365.00,94.07L 382.67,88.50L 400.33,82.53L 418.00,76.17L 435.67,69.73L 453.33,62.75L 471.00,56.89L 488.67,51.36L 506.33,46.20L 524.00,41.36L 541.67,37.45L 559.33,33.71L 577.00,29.65L 594.67,25.28L 612.33,20.70" id="Falling Short" class="line" stroke="#cc0935" stroke-width="3" stroke-linecap="round"><title>Falling Short</title></path>
	<circle cx="100.00" cy="147.49" data-y="6.004237499" data-x="2021" r="4" fill="#cc0935"><title>2021: 6.004237499</title></circle>
	<circle cx="117.67" cy="131.50" data-y="6.787883478" data-x="2022" r="4" fill="#cc0935"><title>2022: 6.787883478</title></circle>
	<circle cx="135.33" cy="129.68" data-y="6.877307554" data-x="2023" r="4" fill="#cc0935"><title>2023: 6.877307554</title></circle>
	<circle cx="153.00" cy="128.92" data-y="6.914595862" data-x="2024" r="4" fill="#cc0935"><title>2024: 6.914595862</title></circle>
	<circle cx="170.67" cy="128.26" data-y="6.946691894" data-x="2025" r="4" fill="#cc0935"><title>2025: 6.946691894</title></circle>
	<circle cx="188.33" cy="127.85" data-y="6.96698956" data-x="2026" r="4" fill="#cc0935"><title>2026: 6.96698956</title></circle>
	<circle cx="206.00" cy="126.87" data-y="7.014689726" data-x="2027" r="4" fill="#cc0935"><title>2027: 7.014689726</title></circle>
	<circle cx="223.67" cy="125.39" data-y="7.087384714" data-x="2028" r="4" fill="#cc0935"><title>2028: 7.087384714</title></circle>
	<circle cx="241.33" cy="123.51" data-y="7.179699302" data-x="2029" r="4" fill="#cc0935"><title>2029: 7.179699302</title></circle>
	<circle cx="259.00" cy="120.00" data-y="7.351733022" data-x="2030" r="4" fill="#cc0935"><title>2030: 7.351733022</title></circle>
	<circle cx="276.67" cy="117.25" data-y="7.486263669" data-x="2031" r="4" fill="#cc0935"><title>2031: 7.486263669</title></circle>
	<circle cx="294.33" cy="114.28" data-y="7.632058221" data-x="2032" r="4" fill="#cc0935"><title>2032: 7.632058221</title></circle>
	<circle cx="312.00" cy="110.95" data-y="7.795232514" data-x="2033" r="4" fill="#cc0935"><title>2033: 7.795232514</title></circle>
	<circle cx="329.67" cy="107.30" data-y="7.97425339" data-x="2034" r="4" fill="#cc0935"><title>2034: 7.97425339</title></circle>
	<circle cx="347.33" cy="99.64" data-y="8.349377288" data-x="2035" r="4" fill="#cc0935"><title>2035: 8.349377288</title></circle>
	<circle cx="365.00" cy="94.07" data-y="8.622649519" data-x="2036" r="4" fill="#cc0935"><title>2036: 8.622649519</title></circle>
	<circle cx="382.67" cy="88.50" data-y="8.895174306" data-x="2037" r="4" fill="#cc0935"><title>2037: 8.895174306</title></circle>
	<circle cx="400.33" cy="82.53" data-y="9.188153329" data-x="2038" r="4" fill="#cc0935"><title>2038: 9.188153329</title></circle>
	<circle cx="418.00" cy="76.17" data-y="9.499498827" data-x="2039" r="4" fill="#cc0935"><title>2039: 9.499498827</title></circle>
	<circle cx="435.67" cy="69.73" data-y="9.815153581" data-x="2040" r="4" fill="#cc0935"><title>2040: 9.815153581</title></circle>
	<circle cx="453.33" cy="62.75" data-y="10.15728728" data-x="2041" r="4" fill="#cc0935"><title>2041: 10.15728728</title></circle>
	<circle cx="471.00" cy="56.89" data-y="10.44475807" data-x="2042" r="4" fill="#cc0935"><title>2042: 10.44475807</title></circle>
	<circle cx="488.67" cy="51.36" data-y="10.71573195" data-x="2043" r="4" fill="#cc0935"><title>2043: 10.71573195</title></circle>
	<circle cx="506.33" cy="46.20" data-y="10.96867491" data-x="2044" r="4" fill="#cc0935"><title>2044: 10.96867491</title></circle>
	<circle cx="524.00" cy="41.36" data-y="11.2058214" data-x="2045" r="4" fill="#cc0935"><title>2045: 11.2058214</title></circle>
	<circle cx="541.67" cy="37.45" data-y="11.39728926" data-x="2046" r="4" fill="#cc0935"><title>2046: 11.39728926</title></circle>
	<circle cx="559.33" cy="33.71" data-y="11.58078599" data-x="2047" r="4" fill="#cc0935"><title>2047: 11.58078599</title></circle>
	<circle cx="577.00" cy="29.65" data-y="11.77958485" data-x="2048" r="4" fill="#cc0935"><title>2048: 11.77958485</title></circle>
	<circle cx="594.67" cy="25.28" data-y="11.99391158" data-x="2049" r="4" fill="#cc0935"><title>2049: 11.99391158</title></circle>
	<circle cx="612.33" cy="20.70" data-y="12.21856536" data-x="2050" r="4" fill="#cc0935"><title>2050: 12.21856536</title></circle>
</g>
<g data-scenario="planning-scenario" class="data-series">	<path d="M 100.00,148.20L 117.67,136.56L 135.33,135.48L 153.00,134.69L 170.67,133.32L 188.33,131.24L 206.00,128.35L 223.67,124.55L 241.33,119.69L 259.00,111.95L 276.67,106.22L 294.33,100.68L 312.00,94.29L 329.67,87.94L 347.33,77.33L 365.00,70.51L 382.67,64.40L 400.33,58.43L 418.00,52.82L 435.67,48.15L 453.33,44.07L 471.00,40.14L 488.67,36.42L 506.33,33.23L 524.00,30.22L 541.67,27.39L 559.33,24.54L 577.00,21.79L 594.67,21.34L 612.33,21.15" id="NPg Planning Scenario" class="line" stroke="#ab1236" stroke-width="3" stroke-linecap="round"><title>NPg Planning Scenario</title></path>
	<circle cx="100.00" cy="148.20" data-y="5.969345854" data-x="2021" r="4" fill="#ab1236"><title>2021: 5.969345854</title></circle>
	<circle cx="117.67" cy="136.56" data-y="6.539902741" data-x="2022" r="4" fill="#ab1236"><title>2022: 6.539902741</title></circle>
	<circle cx="135.33" cy="135.48" data-y="6.593133939" data-x="2023" r="4" fill="#ab1236"><title>2023: 6.593133939</title></circle>
	<circle cx="153.00" cy="134.69" data-y="6.631402589" data-x="2024" r="4" fill="#ab1236"><title>2024: 6.631402589</title></circle>
	<circle cx="170.67" cy="133.32" data-y="6.698548432" data-x="2025" r="4" fill="#ab1236"><title>2025: 6.698548432</title></circle>
	<circle cx="188.33" cy="131.24" data-y="6.800633682" data-x="2026" r="4" fill="#ab1236"><title>2026: 6.800633682</title></circle>
	<circle cx="206.00" cy="128.35" data-y="6.9422274" data-x="2027" r="4" fill="#ab1236"><title>2027: 6.9422274</title></circle>
	<circle cx="223.67" cy="124.55" data-y="7.128464925" data-x="2028" r="4" fill="#ab1236"><title>2028: 7.128464925</title></circle>
	<circle cx="241.33" cy="119.69" data-y="7.366552236" data-x="2029" r="4" fill="#ab1236"><title>2029: 7.366552236</title></circle>
	<circle cx="259.00" cy="111.95" data-y="7.746006251" data-x="2030" r="4" fill="#ab1236"><title>2030: 7.746006251</title></circle>
	<circle cx="276.67" cy="106.22" data-y="8.026759613" data-x="2031" r="4" fill="#ab1236"><title>2031: 8.026759613</title></circle>
	<circle cx="294.33" cy="100.68" data-y="8.298471786" data-x="2032" r="4" fill="#ab1236"><title>2032: 8.298471786</title></circle>
	<circle cx="312.00" cy="94.29" data-y="8.611801059" data-x="2033" r="4" fill="#ab1236"><title>2033: 8.611801059</title></circle>
	<circle cx="329.67" cy="87.94" data-y="8.922868195" data-x="2034" r="4" fill="#ab1236"><title>2034: 8.922868195</title></circle>
	<circle cx="347.33" cy="77.33" data-y="9.442773932" data-x="2035" r="4" fill="#ab1236"><title>2035: 9.442773932</title></circle>
	<circle cx="365.00" cy="70.51" data-y="9.777352253" data-x="2036" r="4" fill="#ab1236"><title>2036: 9.777352253</title></circle>
	<circle cx="382.67" cy="64.40" data-y="10.07674483" data-x="2037" r="4" fill="#ab1236"><title>2037: 10.07674483</title></circle>
	<circle cx="400.33" cy="58.43" data-y="10.36909878" data-x="2038" r="4" fill="#ab1236"><title>2038: 10.36909878</title></circle>
	<circle cx="418.00" cy="52.82" data-y="10.64393491" data-x="2039" r="4" fill="#ab1236"><title>2039: 10.64393491</title></circle>
	<circle cx="435.67" cy="48.15" data-y="10.8730149" data-x="2040" r="4" fill="#ab1236"><title>2040: 10.8730149</title></circle>
	<circle cx="453.33" cy="44.07" data-y="11.0730983" data-x="2041" r="4" fill="#ab1236"><title>2041: 11.0730983</title></circle>
	<circle cx="471.00" cy="40.14" data-y="11.26565803" data-x="2042" r="4" fill="#ab1236"><title>2042: 11.26565803</title></circle>
	<circle cx="488.67" cy="36.42" data-y="11.44772865" data-x="2043" r="4" fill="#ab1236"><title>2043: 11.44772865</title></circle>
	<circle cx="506.33" cy="33.23" data-y="11.60444508" data-x="2044" r="4" fill="#ab1236"><title>2044: 11.60444508</title></circle>
	<circle cx="524.00" cy="30.22" data-y="11.75156343" data-x="2045" r="4" fill="#ab1236"><title>2045: 11.75156343</title></circle>
	<circle cx="541.67" cy="27.39" data-y="11.89032587" data-x="2046" r="4" fill="#ab1236"><title>2046: 11.89032587</title></circle>
	<circle cx="559.33" cy="24.54" data-y="12.03013433" data-x="2047" r="4" fill="#ab1236"><title>2047: 12.03013433</title></circle>
	<circle cx="577.00" cy="21.79" data-y="12.16511665" data-x="2048" r="4" fill="#ab1236"><title>2048: 12.16511665</title></circle>
	<circle cx="594.67" cy="21.34" data-y="12.1867239" data-x="2049" r="4" fill="#ab1236"><title>2049: 12.1867239</title></circle>
	<circle cx="612.33" cy="21.15" data-y="12.19631847" data-x="2050" r="4" fill="#ab1236"><title>2050: 12.19631847</title></circle>
</g>
</svg>
