<svg width="640" height="320" viewBox="0 0 640 320" xmlns="http://www.w3.org/2000/svg" style="overflow:display" preserveAspectRatio="xMinYMin meet" overflow="visible">
<defs>
	<style>
	.data-series path.line { fill-opacity: 0; }
	.data-series path.line.dotted { stroke-dasharray: 12 20 }
	.data-series circle { display: none; }
	.data-series:hover path.line, .data-series.on path.line { stroke-width: 5; }
	.data-series:hover circle, .data-series.on circle { display: inline; }
	.data-series circle:hover, .data-series circle.on { r: 6px!important; fill: black; }
	.grid { font-family: "Helvetica Neue",Helvetica,Arial,"Lucida Grande",sans-serif; }
	.grid line { stroke: rgb(0,0,0); stroke-width: 2; stroke-linecap: round; }
	.grid.grid-x text { text-anchor: middle; dominant-baseline: hanging; transform: translateY(10px); }
	.grid.grid-y text { text-anchor: end; dominant-baseline: middle; transform: translateX(-10px); }
	</style>
</defs>
<g class="grid grid-y">
	<line x1="70" y1="270" x2="630" y2="270" data-left="70"></line>
	<text x="70" y="270" text-anchor="end">0</text>
	<text x="70" y="211.830027339887" text-anchor="end">100</text>
	<text x="70" y="153.660054679774" text-anchor="end">200</text>
	<text x="70" y="95.4900820196614" text-anchor="end">300</text>
	<text x="70" y="37.3201093595486" text-anchor="end">400</text>
	<text style="text-anchor:middle;dominant-baseline:hanging;font-weight:bold;transform: translateY(140px) rotate(-90deg);">Cumulative emissions (MtCO2)</text>
</g>
<g class="grid grid-x">
	<line class="tick" x1="70" y1="270" x2="70" y2="275"></line>
	<text x="70" y="270" text-anchor="middle">2020</text>
	<line class="tick" x1="250.645161290323" y1="270" x2="250.645161290323" y2="275"></line>
	<text x="250.645161290323" y="270" text-anchor="middle">2030</text>
	<line class="tick" x1="431.290322580645" y1="270" x2="431.290322580645" y2="275"></line>
	<text x="431.290322580645" y="270" text-anchor="middle">2040</text>
	<line class="tick" x1="611.935483870968" y1="270" x2="611.935483870968" y2="275"></line>
	<text x="611.935483870968" y="270" text-anchor="middle">2050</text>
	<text style="text-anchor:middle;dominant-baseline:hanging;font-weight:bold;transform: translateY(140px) rotate(-90deg);"></text>
</g>
<g data-scenario="planning-scenario" class="data-series">	<path d="M 70.00,249.54L 88.06,229.24L 106.13,209.24L 124.19,189.97L 142.26,171.17L 160.32,153.20L 178.39,136.72L 196.45,121.49L 214.52,107.42L 232.58,94.45L 250.65,82.69L 268.71,72.02L 286.77,62.57L 304.84,54.22L 322.90,46.91L 340.97,40.58L 359.03,35.00L 377.10,30.14L 395.16,25.92L 413.23,22.32L 431.29,19.31L 449.35,16.92L 467.42,15.01L 485.48,13.51L 503.55,12.35L 521.61,11.51L 539.68,10.90L 557.74,10.52L 575.81,10.29L 593.87,10.13L 611.94,10.00" id="NPg Planning Scenario" class="line" stroke="#ab1236" stroke-width="3" stroke-linecap="round"><title>NPg Planning Scenario</title></path>
	<circle cx="70.00" cy="249.54" data-y="35.179" data-x="2020" r="4" fill="#ab1236"><title>2020: 35.179</title></circle>
	<circle cx="88.06" cy="229.24" data-y="70.065" data-x="2021" r="4" fill="#ab1236"><title>2021: 70.065</title></circle>
	<circle cx="106.13" cy="209.24" data-y="104.460" data-x="2022" r="4" fill="#ab1236"><title>2022: 104.460</title></circle>
	<circle cx="124.19" cy="189.97" data-y="137.581" data-x="2023" r="4" fill="#ab1236"><title>2023: 137.581</title></circle>
	<circle cx="142.26" cy="171.17" data-y="169.903" data-x="2024" r="4" fill="#ab1236"><title>2024: 169.903</title></circle>
	<circle cx="160.32" cy="153.20" data-y="200.792" data-x="2025" r="4" fill="#ab1236"><title>2025: 200.792</title></circle>
	<circle cx="178.39" cy="136.72" data-y="229.124" data-x="2026" r="4" fill="#ab1236"><title>2026: 229.124</title></circle>
	<circle cx="196.45" cy="121.49" data-y="255.308" data-x="2027" r="4" fill="#ab1236"><title>2027: 255.308</title></circle>
	<circle cx="214.52" cy="107.42" data-y="279.489" data-x="2028" r="4" fill="#ab1236"><title>2028: 279.489</title></circle>
	<circle cx="232.58" cy="94.45" data-y="301.789" data-x="2029" r="4" fill="#ab1236"><title>2029: 301.789</title></circle>
	<circle cx="250.65" cy="82.69" data-y="322.012" data-x="2030" r="4" fill="#ab1236"><title>2030: 322.012</title></circle>
	<circle cx="268.71" cy="72.02" data-y="340.349" data-x="2031" r="4" fill="#ab1236"><title>2031: 340.349</title></circle>
	<circle cx="286.77" cy="62.57" data-y="356.596" data-x="2032" r="4" fill="#ab1236"><title>2032: 356.596</title></circle>
	<circle cx="304.84" cy="54.22" data-y="370.947" data-x="2033" r="4" fill="#ab1236"><title>2033: 370.947</title></circle>
	<circle cx="322.90" cy="46.91" data-y="383.506" data-x="2034" r="4" fill="#ab1236"><title>2034: 383.506</title></circle>
	<circle cx="340.97" cy="40.58" data-y="394.398" data-x="2035" r="4" fill="#ab1236"><title>2035: 394.398</title></circle>
	<circle cx="359.03" cy="35.00" data-y="403.980" data-x="2036" r="4" fill="#ab1236"><title>2036: 403.980</title></circle>
	<circle cx="377.10" cy="30.14" data-y="412.348" data-x="2037" r="4" fill="#ab1236"><title>2037: 412.348</title></circle>
	<circle cx="395.16" cy="25.92" data-y="419.602" data-x="2038" r="4" fill="#ab1236"><title>2038: 419.602</title></circle>
	<circle cx="413.23" cy="22.32" data-y="425.794" data-x="2039" r="4" fill="#ab1236"><title>2039: 425.794</title></circle>
	<circle cx="431.29" cy="19.31" data-y="430.967" data-x="2040" r="4" fill="#ab1236"><title>2040: 430.967</title></circle>
	<circle cx="449.35" cy="16.92" data-y="435.075" data-x="2041" r="4" fill="#ab1236"><title>2041: 435.075</title></circle>
	<circle cx="467.42" cy="15.01" data-y="438.355" data-x="2042" r="4" fill="#ab1236"><title>2042: 438.355</title></circle>
	<circle cx="485.48" cy="13.51" data-y="440.934" data-x="2043" r="4" fill="#ab1236"><title>2043: 440.934</title></circle>
	<circle cx="503.55" cy="12.35" data-y="442.929" data-x="2044" r="4" fill="#ab1236"><title>2044: 442.929</title></circle>
	<circle cx="521.61" cy="11.51" data-y="444.377" data-x="2045" r="4" fill="#ab1236"><title>2045: 444.377</title></circle>
	<circle cx="539.68" cy="10.90" data-y="445.426" data-x="2046" r="4" fill="#ab1236"><title>2046: 445.426</title></circle>
	<circle cx="557.74" cy="10.52" data-y="446.080" data-x="2047" r="4" fill="#ab1236"><title>2047: 446.080</title></circle>
	<circle cx="575.81" cy="10.29" data-y="446.461" data-x="2048" r="4" fill="#ab1236"><title>2048: 446.461</title></circle>
	<circle cx="593.87" cy="10.13" data-y="446.746" data-x="2049" r="4" fill="#ab1236"><title>2049: 446.746</title></circle>
	<circle cx="611.94" cy="10.00" data-y="446.966" data-x="2050" r="4" fill="#ab1236"><title>2050: 446.966</title></circle>
</g>
</svg>
