<svg width="640" height="320" viewBox="0 0 640 320" xmlns="http://www.w3.org/2000/svg" style="overflow:display" preserveAspectRatio="xMinYMin meet" overflow="visible">
<defs>
	<style>
	.data-series path.line { fill-opacity: 0; }
	.data-series path.line.dotted { stroke-dasharray: 12 20 }
	.data-series circle { display: none; }
	.data-series:hover path.line, .data-series.on path.line { stroke-width: 5; }
	.data-series:hover circle, .data-series.on circle { display: inline; }
	.data-series circle:hover, .data-series circle.on { r: 6px!important; fill: black; }
	.grid { font-family: "Helvetica Neue",Helvetica,Arial,"Lucida Grande",sans-serif; }
	.grid line { stroke: rgb(0,0,0); stroke-width: 2; stroke-linecap: round; }
	.grid.grid-x text { text-anchor: middle; dominant-baseline: hanging; transform: translateY(10px); }
	.grid.grid-y text { text-anchor: end; dominant-baseline: middle; transform: translateX(-10px); }
	</style>
</defs>
<g class="grid grid-y">
	<line x1="50" y1="270" x2="630" y2="270" data-left="50"></line>
	<text x="50" y="270" text-anchor="end">0</text>
	<text x="50" y="167.304525333601" text-anchor="end">1</text>
	<text x="50" y="64.6090506672013" text-anchor="end">2</text>
	<text style="text-anchor:middle;dominant-baseline:hanging;font-weight:bold;transform: translateY(140px) rotate(-90deg);">Installed capacity (GW)</text>
</g>
<g class="grid grid-x">
	<line class="tick" x1="224" y1="270" x2="224" y2="275"></line>
	<text x="224" y="270" text-anchor="middle">2030</text>
	<line class="tick" x1="417.333333333333" y1="270" x2="417.333333333333" y2="275"></line>
	<text x="417.333333333333" y="270" text-anchor="middle">2040</text>
	<line class="tick" x1="610.666666666667" y1="270" x2="610.666666666667" y2="275"></line>
	<text x="610.666666666667" y="270" text-anchor="middle">2050</text>
	<text style="text-anchor:middle;dominant-baseline:hanging;font-weight:bold;transform: translateY(140px) rotate(-90deg);"></text>
</g>
<g data-scenario="consumer-transformation" class="data-series">	<path d="M 50.00,251.88L 69.33,242.66L 88.67,233.52L 108.00,212.04L 127.33,209.33L 146.67,207.39L 166.00,205.40L 185.33,202.99L 204.67,200.85L 224.00,184.00L 243.33,181.19L 262.67,177.66L 282.00,171.46L 301.33,166.81L 320.67,154.59L 340.00,148.06L 359.33,138.85L 378.67,124.21L 398.00,112.02L 417.33,98.78L 436.67,90.99L 456.00,80.55L 475.33,74.94L 494.67,68.11L 514.00,62.29L 533.33,47.60L 552.67,41.19L 572.00,34.62L 591.33,23.79L 610.67,16.74" id="Consumer Transformation" class="line" stroke="#cc0935" stroke-width="3" stroke-linecap="round"><title>Consumer Transformation</title></path>
	<circle cx="50.00" cy="251.88" data-y="0.176486037" data-x="2021" r="4" fill="#cc0935"><title>2021: 0.176486037</title></circle>
	<circle cx="69.33" cy="242.66" data-y="0.266229847" data-x="2022" r="4" fill="#cc0935"><title>2022: 0.266229847</title></circle>
	<circle cx="88.67" cy="233.52" data-y="0.355204655" data-x="2023" r="4" fill="#cc0935"><title>2023: 0.355204655</title></circle>
	<circle cx="108.00" cy="212.04" data-y="0.564379614" data-x="2024" r="4" fill="#cc0935"><title>2024: 0.564379614</title></circle>
	<circle cx="127.33" cy="209.33" data-y="0.590742318" data-x="2025" r="4" fill="#cc0935"><title>2025: 0.590742318</title></circle>
	<circle cx="146.67" cy="207.39" data-y="0.609640915" data-x="2026" r="4" fill="#cc0935"><title>2026: 0.609640915</title></circle>
	<circle cx="166.00" cy="205.40" data-y="0.629022271" data-x="2027" r="4" fill="#cc0935"><title>2027: 0.629022271</title></circle>
	<circle cx="185.33" cy="202.99" data-y="0.652518353" data-x="2028" r="4" fill="#cc0935"><title>2028: 0.652518353</title></circle>
	<circle cx="204.67" cy="200.85" data-y="0.673349399" data-x="2029" r="4" fill="#cc0935"><title>2029: 0.673349399</title></circle>
	<circle cx="224.00" cy="184.00" data-y="0.837408937" data-x="2030" r="4" fill="#cc0935"><title>2030: 0.837408937</title></circle>
	<circle cx="243.33" cy="181.19" data-y="0.864796668" data-x="2031" r="4" fill="#cc0935"><title>2031: 0.864796668</title></circle>
	<circle cx="262.67" cy="177.66" data-y="0.899205723" data-x="2032" r="4" fill="#cc0935"><title>2032: 0.899205723</title></circle>
	<circle cx="282.00" cy="171.46" data-y="0.959533798" data-x="2033" r="4" fill="#cc0935"><title>2033: 0.959533798</title></circle>
	<circle cx="301.33" cy="166.81" data-y="1.00485877" data-x="2034" r="4" fill="#cc0935"><title>2034: 1.00485877</title></circle>
	<circle cx="320.67" cy="154.59" data-y="1.123846656" data-x="2035" r="4" fill="#cc0935"><title>2035: 1.123846656</title></circle>
	<circle cx="340.00" cy="148.06" data-y="1.187387324" data-x="2036" r="4" fill="#cc0935"><title>2036: 1.187387324</title></circle>
	<circle cx="359.33" cy="138.85" data-y="1.277064054" data-x="2037" r="4" fill="#cc0935"><title>2037: 1.277064054</title></circle>
	<circle cx="378.67" cy="124.21" data-y="1.419668554" data-x="2038" r="4" fill="#cc0935"><title>2038: 1.419668554</title></circle>
	<circle cx="398.00" cy="112.02" data-y="1.538326817" data-x="2039" r="4" fill="#cc0935"><title>2039: 1.538326817</title></circle>
	<circle cx="417.33" cy="98.78" data-y="1.667240294" data-x="2040" r="4" fill="#cc0935"><title>2040: 1.667240294</title></circle>
	<circle cx="436.67" cy="90.99" data-y="1.743134823" data-x="2041" r="4" fill="#cc0935"><title>2041: 1.743134823</title></circle>
	<circle cx="456.00" cy="80.55" data-y="1.844748879" data-x="2042" r="4" fill="#cc0935"><title>2042: 1.844748879</title></circle>
	<circle cx="475.33" cy="74.94" data-y="1.899406431" data-x="2043" r="4" fill="#cc0935"><title>2043: 1.899406431</title></circle>
	<circle cx="494.67" cy="68.11" data-y="1.96588005" data-x="2044" r="4" fill="#cc0935"><title>2044: 1.96588005</title></circle>
	<circle cx="514.00" cy="62.29" data-y="2.02257269" data-x="2045" r="4" fill="#cc0935"><title>2045: 2.02257269</title></circle>
	<circle cx="533.33" cy="47.60" data-y="2.165602836" data-x="2046" r="4" fill="#cc0935"><title>2046: 2.165602836</title></circle>
	<circle cx="552.67" cy="41.19" data-y="2.228066158" data-x="2047" r="4" fill="#cc0935"><title>2047: 2.228066158</title></circle>
	<circle cx="572.00" cy="34.62" data-y="2.292002824" data-x="2048" r="4" fill="#cc0935"><title>2048: 2.292002824</title></circle>
	<circle cx="591.33" cy="23.79" data-y="2.397502665" data-x="2049" r="4" fill="#cc0935"><title>2049: 2.397502665</title></circle>
	<circle cx="610.67" cy="16.74" data-y="2.466123474" data-x="2050" r="4" fill="#cc0935"><title>2050: 2.466123474</title></circle>
</g>
<g data-scenario="system-transformation" class="data-series">	<path d="M 50.00,252.06L 69.33,245.54L 88.67,245.00L 108.00,241.06L 127.33,216.09L 146.67,215.52L 166.00,214.93L 185.33,214.21L 204.67,213.58L 224.00,212.84L 243.33,212.05L 262.67,210.81L 282.00,208.13L 301.33,199.23L 320.67,198.08L 340.00,184.57L 359.33,182.78L 378.67,181.26L 398.00,179.89L 417.33,178.52L 436.67,168.94L 456.00,160.49L 475.33,159.07L 494.67,153.61L 514.00,152.16L 533.33,150.65L 552.67,149.09L 572.00,147.47L 591.33,145.79L 610.67,144.05" id="System Transformation" class="line" stroke="#cc0935" stroke-width="3" stroke-linecap="round"><title>System Transformation</title></path>
	<circle cx="50.00" cy="252.06" data-y="0.17465433" data-x="2021" r="4" fill="#cc0935"><title>2021: 0.17465433</title></circle>
	<circle cx="69.33" cy="245.54" data-y="0.238141808" data-x="2022" r="4" fill="#cc0935"><title>2022: 0.238141808</title></circle>
	<circle cx="88.67" cy="245.00" data-y="0.243430888" data-x="2023" r="4" fill="#cc0935"><title>2023: 0.243430888</title></circle>
	<circle cx="108.00" cy="241.06" data-y="0.281781699" data-x="2024" r="4" fill="#cc0935"><title>2024: 0.281781699</title></circle>
	<circle cx="127.33" cy="216.09" data-y="0.524944676" data-x="2025" r="4" fill="#cc0935"><title>2025: 0.524944676</title></circle>
	<circle cx="146.67" cy="215.52" data-y="0.530548064" data-x="2026" r="4" fill="#cc0935"><title>2026: 0.530548064</title></circle>
	<circle cx="166.00" cy="214.93" data-y="0.536261032" data-x="2027" r="4" fill="#cc0935"><title>2027: 0.536261032</title></circle>
	<circle cx="185.33" cy="214.21" data-y="0.543278288" data-x="2028" r="4" fill="#cc0935"><title>2028: 0.543278288</title></circle>
	<circle cx="204.67" cy="213.58" data-y="0.549383496" data-x="2029" r="4" fill="#cc0935"><title>2029: 0.549383496</title></circle>
	<circle cx="224.00" cy="212.84" data-y="0.556557894" data-x="2030" r="4" fill="#cc0935"><title>2030: 0.556557894</title></circle>
	<circle cx="243.33" cy="212.05" data-y="0.564258477" data-x="2031" r="4" fill="#cc0935"><title>2031: 0.564258477</title></circle>
	<circle cx="262.67" cy="210.81" data-y="0.576332809" data-x="2032" r="4" fill="#cc0935"><title>2032: 0.576332809</title></circle>
	<circle cx="282.00" cy="208.13" data-y="0.602481624" data-x="2033" r="4" fill="#cc0935"><title>2033: 0.602481624</title></circle>
	<circle cx="301.33" cy="199.23" data-y="0.689135625" data-x="2034" r="4" fill="#cc0935"><title>2034: 0.689135625</title></circle>
	<circle cx="320.67" cy="198.08" data-y="0.700349342" data-x="2035" r="4" fill="#cc0935"><title>2035: 0.700349342</title></circle>
	<circle cx="340.00" cy="184.57" data-y="0.831833035" data-x="2036" r="4" fill="#cc0935"><title>2036: 0.831833035</title></circle>
	<circle cx="359.33" cy="182.78" data-y="0.849319605" data-x="2037" r="4" fill="#cc0935"><title>2037: 0.849319605</title></circle>
	<circle cx="378.67" cy="181.26" data-y="0.864125919" data-x="2038" r="4" fill="#cc0935"><title>2038: 0.864125919</title></circle>
	<circle cx="398.00" cy="179.89" data-y="0.877462788" data-x="2039" r="4" fill="#cc0935"><title>2039: 0.877462788</title></circle>
	<circle cx="417.33" cy="178.52" data-y="0.890776488" data-x="2040" r="4" fill="#cc0935"><title>2040: 0.890776488</title></circle>
	<circle cx="436.67" cy="168.94" data-y="0.984076675" data-x="2041" r="4" fill="#cc0935"><title>2041: 0.984076675</title></circle>
	<circle cx="456.00" cy="160.49" data-y="1.066322647" data-x="2042" r="4" fill="#cc0935"><title>2042: 1.066322647</title></circle>
	<circle cx="475.33" cy="159.07" data-y="1.080168137" data-x="2043" r="4" fill="#cc0935"><title>2043: 1.080168137</title></circle>
	<circle cx="494.67" cy="153.61" data-y="1.133330671" data-x="2044" r="4" fill="#cc0935"><title>2044: 1.133330671</title></circle>
	<circle cx="514.00" cy="152.16" data-y="1.147435742" data-x="2045" r="4" fill="#cc0935"><title>2045: 1.147435742</title></circle>
	<circle cx="533.33" cy="150.65" data-y="1.162178389" data-x="2046" r="4" fill="#cc0935"><title>2046: 1.162178389</title></circle>
	<circle cx="552.67" cy="149.09" data-y="1.177392394" data-x="2047" r="4" fill="#cc0935"><title>2047: 1.177392394</title></circle>
	<circle cx="572.00" cy="147.47" data-y="1.193186909" data-x="2048" r="4" fill="#cc0935"><title>2048: 1.193186909</title></circle>
	<circle cx="591.33" cy="145.79" data-y="1.209535431" data-x="2049" r="4" fill="#cc0935"><title>2049: 1.209535431</title></circle>
	<circle cx="610.67" cy="144.05" data-y="1.226409824" data-x="2050" r="4" fill="#cc0935"><title>2050: 1.226409824</title></circle>
</g>
<g data-scenario="leading-the-way" class="data-series">	<path d="M 50.00,251.91L 69.33,226.80L 88.67,218.74L 108.00,206.57L 127.33,205.18L 146.67,203.13L 166.00,193.17L 185.33,190.58L 204.67,186.51L 224.00,182.85L 243.33,178.98L 262.67,175.24L 282.00,167.04L 301.33,149.44L 320.67,136.77L 340.00,127.59L 359.33,122.06L 378.67,116.06L 398.00,103.25L 417.33,97.38L 436.67,91.09L 456.00,80.95L 475.33,74.49L 494.67,67.85L 514.00,57.60L 533.33,45.35L 552.67,37.87L 572.00,30.21L 591.33,18.24L 610.67,10.00" id="Leading The Way" class="line" stroke="#cc0935" stroke-width="3" stroke-linecap="round"><title>Leading The Way</title></path>
	<circle cx="50.00" cy="251.91" data-y="0.176172921" data-x="2021" r="4" fill="#cc0935"><title>2021: 0.176172921</title></circle>
	<circle cx="69.33" cy="226.80" data-y="0.420699059" data-x="2022" r="4" fill="#cc0935"><title>2022: 0.420699059</title></circle>
	<circle cx="88.67" cy="218.74" data-y="0.499134735" data-x="2023" r="4" fill="#cc0935"><title>2023: 0.499134735</title></circle>
	<circle cx="108.00" cy="206.57" data-y="0.617693335" data-x="2024" r="4" fill="#cc0935"><title>2024: 0.617693335</title></circle>
	<circle cx="127.33" cy="205.18" data-y="0.6311569" data-x="2025" r="4" fill="#cc0935"><title>2025: 0.6311569</title></circle>
	<circle cx="146.67" cy="203.13" data-y="0.651174201" data-x="2026" r="4" fill="#cc0935"><title>2026: 0.651174201</title></circle>
	<circle cx="166.00" cy="193.17" data-y="0.7481435" data-x="2027" r="4" fill="#cc0935"><title>2027: 0.7481435</title></circle>
	<circle cx="185.33" cy="190.58" data-y="0.773389956" data-x="2028" r="4" fill="#cc0935"><title>2028: 0.773389956</title></circle>
	<circle cx="204.67" cy="186.51" data-y="0.812993818" data-x="2029" r="4" fill="#cc0935"><title>2029: 0.812993818</title></circle>
	<circle cx="224.00" cy="182.85" data-y="0.848669887" data-x="2030" r="4" fill="#cc0935"><title>2030: 0.848669887</title></circle>
	<circle cx="243.33" cy="178.98" data-y="0.886334611" data-x="2031" r="4" fill="#cc0935"><title>2031: 0.886334611</title></circle>
	<circle cx="262.67" cy="175.24" data-y="0.922754017" data-x="2032" r="4" fill="#cc0935"><title>2032: 0.922754017</title></circle>
	<circle cx="282.00" cy="167.04" data-y="1.002598507" data-x="2033" r="4" fill="#cc0935"><title>2033: 1.002598507</title></circle>
	<circle cx="301.33" cy="149.44" data-y="1.173943646" data-x="2034" r="4" fill="#cc0935"><title>2034: 1.173943646</title></circle>
	<circle cx="320.67" cy="136.77" data-y="1.297315745" data-x="2035" r="4" fill="#cc0935"><title>2035: 1.297315745</title></circle>
	<circle cx="340.00" cy="127.59" data-y="1.386683937" data-x="2036" r="4" fill="#cc0935"><title>2036: 1.386683937</title></circle>
	<circle cx="359.33" cy="122.06" data-y="1.440568088" data-x="2037" r="4" fill="#cc0935"><title>2037: 1.440568088</title></circle>
	<circle cx="378.67" cy="116.06" data-y="1.499011941" data-x="2038" r="4" fill="#cc0935"><title>2038: 1.499011941</title></circle>
	<circle cx="398.00" cy="103.25" data-y="1.623689659" data-x="2039" r="4" fill="#cc0935"><title>2039: 1.623689659</title></circle>
	<circle cx="417.33" cy="97.38" data-y="1.680865897" data-x="2040" r="4" fill="#cc0935"><title>2040: 1.680865897</title></circle>
	<circle cx="436.67" cy="91.09" data-y="1.742154567" data-x="2041" r="4" fill="#cc0935"><title>2041: 1.742154567</title></circle>
	<circle cx="456.00" cy="80.95" data-y="1.840905499" data-x="2042" r="4" fill="#cc0935"><title>2042: 1.840905499</title></circle>
	<circle cx="475.33" cy="74.49" data-y="1.903806026" data-x="2043" r="4" fill="#cc0935"><title>2043: 1.903806026</title></circle>
	<circle cx="494.67" cy="67.85" data-y="1.968423739" data-x="2044" r="4" fill="#cc0935"><title>2044: 1.968423739</title></circle>
	<circle cx="514.00" cy="57.60" data-y="2.06825787" data-x="2045" r="4" fill="#cc0935"><title>2045: 2.06825787</title></circle>
	<circle cx="533.33" cy="45.35" data-y="2.187518549" data-x="2046" r="4" fill="#cc0935"><title>2046: 2.187518549</title></circle>
	<circle cx="552.67" cy="37.87" data-y="2.260353256" data-x="2047" r="4" fill="#cc0935"><title>2047: 2.260353256</title></circle>
	<circle cx="572.00" cy="30.21" data-y="2.334921227" data-x="2048" r="4" fill="#cc0935"><title>2048: 2.334921227</title></circle>
	<circle cx="591.33" cy="18.24" data-y="2.451556521" data-x="2049" r="4" fill="#cc0935"><title>2049: 2.451556521</title></circle>
	<circle cx="610.67" cy="10.00" data-y="2.531757128" data-x="2050" r="4" fill="#cc0935"><title>2050: 2.531757128</title></circle>
</g>
<g data-scenario="planning-scenario" class="data-series">	<path d="M 50.00,251.91L 69.33,226.80L 88.67,218.74L 108.00,206.57L 127.33,205.18L 146.67,203.13L 166.00,193.17L 185.33,190.58L 204.67,186.51L 224.00,182.85L 243.33,178.98L 262.67,175.24L 282.00,167.04L 301.33,149.44L 320.67,136.77L 340.00,127.59L 359.33,122.06L 378.67,116.06L 398.00,103.25L 417.33,97.38L 436.67,91.09L 456.00,80.95L 475.33,74.49L 494.67,67.85L 514.00,57.60L 533.33,45.35L 552.67,37.87L 572.00,30.21L 591.33,18.24L 610.67,10.00" id="NPg Planning Scenario" class="line" stroke="#ab1236" stroke-width="3" stroke-linecap="round"><title>NPg Planning Scenario</title></path>
	<circle cx="50.00" cy="251.91" data-y="0.176172921" data-x="2021" r="4" fill="#ab1236"><title>2021: 0.176172921</title></circle>
	<circle cx="69.33" cy="226.80" data-y="0.420699059" data-x="2022" r="4" fill="#ab1236"><title>2022: 0.420699059</title></circle>
	<circle cx="88.67" cy="218.74" data-y="0.499134735" data-x="2023" r="4" fill="#ab1236"><title>2023: 0.499134735</title></circle>
	<circle cx="108.00" cy="206.57" data-y="0.617693335" data-x="2024" r="4" fill="#ab1236"><title>2024: 0.617693335</title></circle>
	<circle cx="127.33" cy="205.18" data-y="0.6311569" data-x="2025" r="4" fill="#ab1236"><title>2025: 0.6311569</title></circle>
	<circle cx="146.67" cy="203.13" data-y="0.651174201" data-x="2026" r="4" fill="#ab1236"><title>2026: 0.651174201</title></circle>
	<circle cx="166.00" cy="193.17" data-y="0.7481435" data-x="2027" r="4" fill="#ab1236"><title>2027: 0.7481435</title></circle>
	<circle cx="185.33" cy="190.58" data-y="0.773389956" data-x="2028" r="4" fill="#ab1236"><title>2028: 0.773389956</title></circle>
	<circle cx="204.67" cy="186.51" data-y="0.812993818" data-x="2029" r="4" fill="#ab1236"><title>2029: 0.812993818</title></circle>
	<circle cx="224.00" cy="182.85" data-y="0.848669887" data-x="2030" r="4" fill="#ab1236"><title>2030: 0.848669887</title></circle>
	<circle cx="243.33" cy="178.98" data-y="0.886334611" data-x="2031" r="4" fill="#ab1236"><title>2031: 0.886334611</title></circle>
	<circle cx="262.67" cy="175.24" data-y="0.922754017" data-x="2032" r="4" fill="#ab1236"><title>2032: 0.922754017</title></circle>
	<circle cx="282.00" cy="167.04" data-y="1.002598507" data-x="2033" r="4" fill="#ab1236"><title>2033: 1.002598507</title></circle>
	<circle cx="301.33" cy="149.44" data-y="1.173943646" data-x="2034" r="4" fill="#ab1236"><title>2034: 1.173943646</title></circle>
	<circle cx="320.67" cy="136.77" data-y="1.297315745" data-x="2035" r="4" fill="#ab1236"><title>2035: 1.297315745</title></circle>
	<circle cx="340.00" cy="127.59" data-y="1.386683937" data-x="2036" r="4" fill="#ab1236"><title>2036: 1.386683937</title></circle>
	<circle cx="359.33" cy="122.06" data-y="1.440568088" data-x="2037" r="4" fill="#ab1236"><title>2037: 1.440568088</title></circle>
	<circle cx="378.67" cy="116.06" data-y="1.499011941" data-x="2038" r="4" fill="#ab1236"><title>2038: 1.499011941</title></circle>
	<circle cx="398.00" cy="103.25" data-y="1.623689659" data-x="2039" r="4" fill="#ab1236"><title>2039: 1.623689659</title></circle>
	<circle cx="417.33" cy="97.38" data-y="1.680865897" data-x="2040" r="4" fill="#ab1236"><title>2040: 1.680865897</title></circle>
	<circle cx="436.67" cy="91.09" data-y="1.742154567" data-x="2041" r="4" fill="#ab1236"><title>2041: 1.742154567</title></circle>
	<circle cx="456.00" cy="80.95" data-y="1.840905499" data-x="2042" r="4" fill="#ab1236"><title>2042: 1.840905499</title></circle>
	<circle cx="475.33" cy="74.49" data-y="1.903806026" data-x="2043" r="4" fill="#ab1236"><title>2043: 1.903806026</title></circle>
	<circle cx="494.67" cy="67.85" data-y="1.968423739" data-x="2044" r="4" fill="#ab1236"><title>2044: 1.968423739</title></circle>
	<circle cx="514.00" cy="57.60" data-y="2.06825787" data-x="2045" r="4" fill="#ab1236"><title>2045: 2.06825787</title></circle>
	<circle cx="533.33" cy="45.35" data-y="2.187518549" data-x="2046" r="4" fill="#ab1236"><title>2046: 2.187518549</title></circle>
	<circle cx="552.67" cy="37.87" data-y="2.260353256" data-x="2047" r="4" fill="#ab1236"><title>2047: 2.260353256</title></circle>
	<circle cx="572.00" cy="30.21" data-y="2.334921227" data-x="2048" r="4" fill="#ab1236"><title>2048: 2.334921227</title></circle>
	<circle cx="591.33" cy="18.24" data-y="2.451556521" data-x="2049" r="4" fill="#ab1236"><title>2049: 2.451556521</title></circle>
	<circle cx="610.67" cy="10.00" data-y="2.531757128" data-x="2050" r="4" fill="#ab1236"><title>2050: 2.531757128</title></circle>
</g>
<g data-scenario="falling-short" class="data-series">	<path d="M 50.00,252.01L 69.33,247.41L 88.67,244.69L 108.00,244.31L 127.33,240.30L 146.67,219.17L 166.00,218.63L 185.33,217.97L 204.67,217.51L 224.00,212.93L 243.33,212.33L 262.67,211.76L 282.00,210.87L 301.33,208.41L 320.67,207.54L 340.00,206.51L 359.33,205.39L 378.67,204.14L 398.00,203.19L 417.33,197.18L 436.67,196.23L 456.00,195.54L 475.33,194.78L 494.67,194.05L 514.00,185.35L 533.33,179.50L 552.67,178.68L 572.00,163.89L 591.33,159.12L 610.67,157.87" id="Falling Short" class="line" stroke="#cc0935" stroke-width="3" stroke-linecap="round"><title>Falling Short</title></path>
	<circle cx="50.00" cy="252.01" data-y="0.175168927" data-x="2021" r="4" fill="#cc0935"><title>2021: 0.175168927</title></circle>
	<circle cx="69.33" cy="247.41" data-y="0.219938852" data-x="2022" r="4" fill="#cc0935"><title>2022: 0.219938852</title></circle>
	<circle cx="88.67" cy="244.69" data-y="0.246505446" data-x="2023" r="4" fill="#cc0935"><title>2023: 0.246505446</title></circle>
	<circle cx="108.00" cy="244.31" data-y="0.250128672" data-x="2024" r="4" fill="#cc0935"><title>2024: 0.250128672</title></circle>
	<circle cx="127.33" cy="240.30" data-y="0.289166264" data-x="2025" r="4" fill="#cc0935"><title>2025: 0.289166264</title></circle>
	<circle cx="146.67" cy="219.17" data-y="0.494955994" data-x="2026" r="4" fill="#cc0935"><title>2026: 0.494955994</title></circle>
	<circle cx="166.00" cy="218.63" data-y="0.500206693" data-x="2027" r="4" fill="#cc0935"><title>2027: 0.500206693</title></circle>
	<circle cx="185.33" cy="217.97" data-y="0.506669722" data-x="2028" r="4" fill="#cc0935"><title>2028: 0.506669722</title></circle>
	<circle cx="204.67" cy="217.51" data-y="0.511075049" data-x="2029" r="4" fill="#cc0935"><title>2029: 0.511075049</title></circle>
	<circle cx="224.00" cy="212.93" data-y="0.555744275" data-x="2030" r="4" fill="#cc0935"><title>2030: 0.555744275</title></circle>
	<circle cx="243.33" cy="212.33" data-y="0.561532655" data-x="2031" r="4" fill="#cc0935"><title>2031: 0.561532655</title></circle>
	<circle cx="262.67" cy="211.76" data-y="0.567137882" data-x="2032" r="4" fill="#cc0935"><title>2032: 0.567137882</title></circle>
	<circle cx="282.00" cy="210.87" data-y="0.575801414" data-x="2033" r="4" fill="#cc0935"><title>2033: 0.575801414</title></circle>
	<circle cx="301.33" cy="208.41" data-y="0.599715913" data-x="2034" r="4" fill="#cc0935"><title>2034: 0.599715913</title></circle>
	<circle cx="320.67" cy="207.54" data-y="0.608179949" data-x="2035" r="4" fill="#cc0935"><title>2035: 0.608179949</title></circle>
	<circle cx="340.00" cy="206.51" data-y="0.618254654" data-x="2036" r="4" fill="#cc0935"><title>2036: 0.618254654</title></circle>
	<circle cx="359.33" cy="205.39" data-y="0.629128891" data-x="2037" r="4" fill="#cc0935"><title>2037: 0.629128891</title></circle>
	<circle cx="378.67" cy="204.14" data-y="0.641303699" data-x="2038" r="4" fill="#cc0935"><title>2038: 0.641303699</title></circle>
	<circle cx="398.00" cy="203.19" data-y="0.650543029" data-x="2039" r="4" fill="#cc0935"><title>2039: 0.650543029</title></circle>
	<circle cx="417.33" cy="197.18" data-y="0.70912084" data-x="2040" r="4" fill="#cc0935"><title>2040: 0.70912084</title></circle>
	<circle cx="436.67" cy="196.23" data-y="0.718294933" data-x="2041" r="4" fill="#cc0935"><title>2041: 0.718294933</title></circle>
	<circle cx="456.00" cy="195.54" data-y="0.725102488" data-x="2042" r="4" fill="#cc0935"><title>2042: 0.725102488</title></circle>
	<circle cx="475.33" cy="194.78" data-y="0.732479046" data-x="2043" r="4" fill="#cc0935"><title>2043: 0.732479046</title></circle>
	<circle cx="494.67" cy="194.05" data-y="0.739517311" data-x="2044" r="4" fill="#cc0935"><title>2044: 0.739517311</title></circle>
	<circle cx="514.00" cy="185.35" data-y="0.82424904" data-x="2045" r="4" fill="#cc0935"><title>2045: 0.82424904</title></circle>
	<circle cx="533.33" cy="179.50" data-y="0.881275415" data-x="2046" r="4" fill="#cc0935"><title>2046: 0.881275415</title></circle>
	<circle cx="552.67" cy="178.68" data-y="0.889212783" data-x="2047" r="4" fill="#cc0935"><title>2047: 0.889212783</title></circle>
	<circle cx="572.00" cy="163.89" data-y="1.0332461" data-x="2048" r="4" fill="#cc0935"><title>2048: 1.0332461</title></circle>
	<circle cx="591.33" cy="159.12" data-y="1.07970313" data-x="2049" r="4" fill="#cc0935"><title>2049: 1.07970313</title></circle>
	<circle cx="610.67" cy="157.87" data-y="1.091853179" data-x="2050" r="4" fill="#cc0935"><title>2050: 1.091853179</title></circle>
</g>
</svg>
