<svg width="640" height="320" viewBox="0 0 640 320" xmlns="http://www.w3.org/2000/svg" style="overflow:display" preserveAspectRatio="xMinYMin meet" overflow="visible">
<defs>
	<style>
	.data-series path.line { fill-opacity: 0; }
	.data-series path.line.dotted { stroke-dasharray: 12 20 }
	.data-series circle { display: none; }
	.data-series:hover path.line, .data-series.on path.line { stroke-width: 5; }
	.data-series:hover circle, .data-series.on circle { display: inline; }
	.data-series circle:hover, .data-series circle.on { r: 6px!important; fill: black; }
	.grid { font-family: "Helvetica Neue",Helvetica,Arial,"Lucida Grande",sans-serif; }
	.grid line { stroke: rgb(0,0,0); stroke-width: 2; stroke-linecap: round; }
	.grid.grid-x text { text-anchor: middle; dominant-baseline: hanging; transform: translateY(10px); }
	.grid.grid-y text { text-anchor: end; dominant-baseline: middle; transform: translateX(-10px); }
	</style>
</defs>
<g class="grid grid-y">
	<line x1="120" y1="270" x2="630" y2="270" data-left="120"></line>
	<text x="120" y="270" text-anchor="end">0</text>
	<text x="120" y="218.218909737195" text-anchor="end">1,000,000</text>
	<text x="120" y="166.43781947439" text-anchor="end">2,000,000</text>
	<text x="120" y="114.656729211585" text-anchor="end">3,000,000</text>
	<text x="120" y="62.8756389487801" text-anchor="end">4,000,000</text>
	<text x="120" y="11.0945486859752" text-anchor="end">5,000,000</text>
	<text style="text-anchor:middle;dominant-baseline:hanging;font-weight:bold;transform: translateY(140px) rotate(-90deg);">Number</text>
</g>
<g class="grid grid-x">
	<line class="tick" x1="135.9375" y1="270" x2="135.9375" y2="275"></line>
	<text x="135.9375" y="270" text-anchor="middle">2020</text>
	<line class="tick" x1="295.3125" y1="270" x2="295.3125" y2="275"></line>
	<text x="295.3125" y="270" text-anchor="middle">2030</text>
	<line class="tick" x1="454.6875" y1="270" x2="454.6875" y2="275"></line>
	<text x="454.6875" y="270" text-anchor="middle">2040</text>
	<line class="tick" x1="614.0625" y1="270" x2="614.0625" y2="275"></line>
	<text x="614.0625" y="270" text-anchor="middle">2050</text>
	<text style="text-anchor:middle;dominant-baseline:hanging;font-weight:bold;transform: translateY(140px) rotate(-90deg);"></text>
</g>
<g data-scenario="consumer-transformation" class="data-series">	<path d="M 120.00,268.64L 135.94,268.07L 151.88,266.15L 167.81,263.19L 183.75,259.47L 199.69,254.27L 215.62,247.40L 231.56,238.74L 247.50,228.28L 263.44,215.82L 279.38,201.06L 295.31,184.28L 311.25,164.67L 327.19,143.90L 343.12,123.17L 359.06,103.58L 375.00,86.26L 390.94,71.65L 406.88,60.04L 422.81,51.31L 438.75,44.87L 454.69,40.55L 470.62,38.92L 486.56,39.04L 502.50,39.71L 518.44,40.86L 534.38,42.48L 550.31,44.56L 566.25,47.16L 582.19,50.20L 598.12,54.00L 614.06,58.42" id="Consumer transformation" class="line" stroke="#FFBF22" stroke-width="3" stroke-linecap="round"><title>Consumer transformation</title></path>
	<circle cx="120.00" cy="268.64" data-y="26353" data-x="2019" r="4" fill="#FFBF22"><title>2019: 26353</title></circle>
	<circle cx="135.94" cy="268.07" data-y="37328" data-x="2020" r="4" fill="#FFBF22"><title>2020: 37328</title></circle>
	<circle cx="151.88" cy="266.15" data-y="74278" data-x="2021" r="4" fill="#FFBF22"><title>2021: 74278</title></circle>
	<circle cx="167.81" cy="263.19" data-y="131596" data-x="2022" r="4" fill="#FFBF22"><title>2022: 131596</title></circle>
	<circle cx="183.75" cy="259.47" data-y="203332" data-x="2023" r="4" fill="#FFBF22"><title>2023: 203332</title></circle>
	<circle cx="199.69" cy="254.27" data-y="303722" data-x="2024" r="4" fill="#FFBF22"><title>2024: 303722</title></circle>
	<circle cx="215.62" cy="247.40" data-y="436413" data-x="2025" r="4" fill="#FFBF22"><title>2025: 436413</title></circle>
	<circle cx="231.56" cy="238.74" data-y="603754" data-x="2026" r="4" fill="#FFBF22"><title>2026: 603754</title></circle>
	<circle cx="247.50" cy="228.28" data-y="805616" data-x="2027" r="4" fill="#FFBF22"><title>2027: 805616</title></circle>
	<circle cx="263.44" cy="215.82" data-y="1046385" data-x="2028" r="4" fill="#FFBF22"><title>2028: 1046385</title></circle>
	<circle cx="279.38" cy="201.06" data-y="1331375" data-x="2029" r="4" fill="#FFBF22"><title>2029: 1331375</title></circle>
	<circle cx="295.31" cy="184.28" data-y="1655344" data-x="2030" r="4" fill="#FFBF22"><title>2030: 1655344</title></circle>
	<circle cx="311.25" cy="164.67" data-y="2034198" data-x="2031" r="4" fill="#FFBF22"><title>2031: 2034198</title></circle>
	<circle cx="327.19" cy="143.90" data-y="2435229" data-x="2032" r="4" fill="#FFBF22"><title>2032: 2435229</title></circle>
	<circle cx="343.12" cy="123.17" data-y="2835593" data-x="2033" r="4" fill="#FFBF22"><title>2033: 2835593</title></circle>
	<circle cx="359.06" cy="103.58" data-y="3213844" data-x="2034" r="4" fill="#FFBF22"><title>2034: 3213844</title></circle>
	<circle cx="375.00" cy="86.26" data-y="3548423" data-x="2035" r="4" fill="#FFBF22"><title>2035: 3548423</title></circle>
	<circle cx="390.94" cy="71.65" data-y="3830519" data-x="2036" r="4" fill="#FFBF22"><title>2036: 3830519</title></circle>
	<circle cx="406.88" cy="60.04" data-y="4054689" data-x="2037" r="4" fill="#FFBF22"><title>2037: 4054689</title></circle>
	<circle cx="422.81" cy="51.31" data-y="4223447" data-x="2038" r="4" fill="#FFBF22"><title>2038: 4223447</title></circle>
	<circle cx="438.75" cy="44.87" data-y="4347769" data-x="2039" r="4" fill="#FFBF22"><title>2039: 4347769</title></circle>
	<circle cx="454.69" cy="40.55" data-y="4431205" data-x="2040" r="4" fill="#FFBF22"><title>2040: 4431205</title></circle>
	<circle cx="470.62" cy="38.92" data-y="4462658" data-x="2041" r="4" fill="#FFBF22"><title>2041: 4462658</title></circle>
	<circle cx="486.56" cy="39.04" data-y="4460380" data-x="2042" r="4" fill="#FFBF22"><title>2042: 4460380</title></circle>
	<circle cx="502.50" cy="39.71" data-y="4447469" data-x="2043" r="4" fill="#FFBF22"><title>2043: 4447469</title></circle>
	<circle cx="518.44" cy="40.86" data-y="4425086" data-x="2044" r="4" fill="#FFBF22"><title>2044: 4425086</title></circle>
	<circle cx="534.38" cy="42.48" data-y="4393799" data-x="2045" r="4" fill="#FFBF22"><title>2045: 4393799</title></circle>
	<circle cx="550.31" cy="44.56" data-y="4353742" data-x="2046" r="4" fill="#FFBF22"><title>2046: 4353742</title></circle>
	<circle cx="566.25" cy="47.16" data-y="4303533" data-x="2047" r="4" fill="#FFBF22"><title>2047: 4303533</title></circle>
	<circle cx="582.19" cy="50.20" data-y="4244713" data-x="2048" r="4" fill="#FFBF22"><title>2048: 4244713</title></circle>
	<circle cx="598.12" cy="54.00" data-y="4171426" data-x="2049" r="4" fill="#FFBF22"><title>2049: 4171426</title></circle>
	<circle cx="614.06" cy="58.42" data-y="4086045" data-x="2050" r="4" fill="#FFBF22"><title>2050: 4086045</title></circle>
</g>
<g data-scenario="system-transformation" class="data-series">	<path d="M 120.00,268.64L 135.94,268.07L 151.88,267.00L 167.81,265.59L 183.75,263.68L 199.69,261.16L 215.62,257.83L 231.56,253.48L 247.50,247.89L 263.44,240.75L 279.38,231.77L 295.31,220.72L 311.25,206.79L 327.19,191.10L 343.12,173.10L 359.06,153.21L 375.00,133.04L 390.94,112.75L 406.88,93.51L 422.81,76.61L 438.75,62.38L 454.69,51.16L 470.62,42.80L 486.56,36.84L 502.50,36.78L 518.44,38.07L 534.38,39.95L 550.31,42.57L 566.25,46.05L 582.19,49.02L 598.12,52.36L 614.06,55.95" id="System transformation" class="line" stroke="#5BCBF5" stroke-width="3" stroke-linecap="round"><title>System transformation</title></path>
	<circle cx="120.00" cy="268.64" data-y="26353" data-x="2019" r="4" fill="#5BCBF5"><title>2019: 26353</title></circle>
	<circle cx="135.94" cy="268.07" data-y="37328" data-x="2020" r="4" fill="#5BCBF5"><title>2020: 37328</title></circle>
	<circle cx="151.88" cy="267.00" data-y="58015" data-x="2021" r="4" fill="#5BCBF5"><title>2021: 58015</title></circle>
	<circle cx="167.81" cy="265.59" data-y="85178" data-x="2022" r="4" fill="#5BCBF5"><title>2022: 85178</title></circle>
	<circle cx="183.75" cy="263.68" data-y="122114" data-x="2023" r="4" fill="#5BCBF5"><title>2023: 122114</title></circle>
	<circle cx="199.69" cy="261.16" data-y="170653" data-x="2024" r="4" fill="#5BCBF5"><title>2024: 170653</title></circle>
	<circle cx="215.62" cy="257.83" data-y="234986" data-x="2025" r="4" fill="#5BCBF5"><title>2025: 234986</title></circle>
	<circle cx="231.56" cy="253.48" data-y="318999" data-x="2026" r="4" fill="#5BCBF5"><title>2026: 318999</title></circle>
	<circle cx="247.50" cy="247.89" data-y="427076" data-x="2027" r="4" fill="#5BCBF5"><title>2027: 427076</title></circle>
	<circle cx="263.44" cy="240.75" data-y="564934" data-x="2028" r="4" fill="#5BCBF5"><title>2028: 564934</title></circle>
	<circle cx="279.38" cy="231.77" data-y="738256" data-x="2029" r="4" fill="#5BCBF5"><title>2029: 738256</title></circle>
	<circle cx="295.31" cy="220.72" data-y="951624" data-x="2030" r="4" fill="#5BCBF5"><title>2030: 951624</title></circle>
	<circle cx="311.25" cy="206.79" data-y="1220735" data-x="2031" r="4" fill="#5BCBF5"><title>2031: 1220735</title></circle>
	<circle cx="327.19" cy="191.10" data-y="1523686" data-x="2032" r="4" fill="#5BCBF5"><title>2032: 1523686</title></circle>
	<circle cx="343.12" cy="173.10" data-y="1871251" data-x="2033" r="4" fill="#5BCBF5"><title>2033: 1871251</title></circle>
	<circle cx="359.06" cy="153.21" data-y="2255453" data-x="2034" r="4" fill="#5BCBF5"><title>2034: 2255453</title></circle>
	<circle cx="375.00" cy="133.04" data-y="2644902" data-x="2035" r="4" fill="#5BCBF5"><title>2035: 2644902</title></circle>
	<circle cx="390.94" cy="112.75" data-y="3036877" data-x="2036" r="4" fill="#5BCBF5"><title>2036: 3036877</title></circle>
	<circle cx="406.88" cy="93.51" data-y="3408369" data-x="2037" r="4" fill="#5BCBF5"><title>2037: 3408369</title></circle>
	<circle cx="422.81" cy="76.61" data-y="3734852" data-x="2038" r="4" fill="#5BCBF5"><title>2038: 3734852</title></circle>
	<circle cx="438.75" cy="62.38" data-y="4009521" data-x="2039" r="4" fill="#5BCBF5"><title>2039: 4009521</title></circle>
	<circle cx="454.69" cy="51.16" data-y="4226193" data-x="2040" r="4" fill="#5BCBF5"><title>2040: 4226193</title></circle>
	<circle cx="470.62" cy="42.80" data-y="4387647" data-x="2041" r="4" fill="#5BCBF5"><title>2041: 4387647</title></circle>
	<circle cx="486.56" cy="36.84" data-y="4502783" data-x="2042" r="4" fill="#5BCBF5"><title>2042: 4502783</title></circle>
	<circle cx="502.50" cy="36.78" data-y="4503922" data-x="2043" r="4" fill="#5BCBF5"><title>2043: 4503922</title></circle>
	<circle cx="518.44" cy="38.07" data-y="4479049" data-x="2044" r="4" fill="#5BCBF5"><title>2044: 4479049</title></circle>
	<circle cx="534.38" cy="39.95" data-y="4442678" data-x="2045" r="4" fill="#5BCBF5"><title>2045: 4442678</title></circle>
	<circle cx="550.31" cy="42.57" data-y="4392217" data-x="2046" r="4" fill="#5BCBF5"><title>2046: 4392217</title></circle>
	<circle cx="566.25" cy="46.05" data-y="4324916" data-x="2047" r="4" fill="#5BCBF5"><title>2047: 4324916</title></circle>
	<circle cx="582.19" cy="49.02" data-y="4267504" data-x="2048" r="4" fill="#5BCBF5"><title>2048: 4267504</title></circle>
	<circle cx="598.12" cy="52.36" data-y="4203068" data-x="2049" r="4" fill="#5BCBF5"><title>2049: 4203068</title></circle>
	<circle cx="614.06" cy="55.95" data-y="4133725" data-x="2050" r="4" fill="#5BCBF5"><title>2050: 4133725</title></circle>
</g>
<g data-scenario="steady-progression" class="data-series">	<path d="M 120.00,268.64L 135.94,268.07L 151.88,267.01L 167.81,265.66L 183.75,263.98L 199.69,261.77L 215.62,258.96L 231.56,255.42L 247.50,251.05L 263.44,245.67L 279.38,239.13L 295.31,231.29L 311.25,221.83L 327.19,211.51L 343.12,199.75L 359.06,186.59L 375.00,172.23L 390.94,155.71L 406.88,138.33L 422.81,120.66L 438.75,103.15L 454.69,87.85L 470.62,74.04L 486.56,61.89L 502.50,51.59L 518.44,43.05L 534.38,36.67L 550.31,34.97L 566.25,33.49L 582.19,32.18L 598.12,31.00L 614.06,29.91" id="Steady progression" class="line" stroke="#827B7A" stroke-width="3" stroke-linecap="round"><title>Steady progression</title></path>
	<circle cx="120.00" cy="268.64" data-y="26353" data-x="2019" r="4" fill="#827B7A"><title>2019: 26353</title></circle>
	<circle cx="135.94" cy="268.07" data-y="37328" data-x="2020" r="4" fill="#827B7A"><title>2020: 37328</title></circle>
	<circle cx="151.88" cy="267.01" data-y="57745" data-x="2021" r="4" fill="#827B7A"><title>2021: 57745</title></circle>
	<circle cx="167.81" cy="265.66" data-y="83805" data-x="2022" r="4" fill="#827B7A"><title>2022: 83805</title></circle>
	<circle cx="183.75" cy="263.98" data-y="116239" data-x="2023" r="4" fill="#827B7A"><title>2023: 116239</title></circle>
	<circle cx="199.69" cy="261.77" data-y="158885" data-x="2024" r="4" fill="#827B7A"><title>2024: 158885</title></circle>
	<circle cx="215.62" cy="258.96" data-y="213262" data-x="2025" r="4" fill="#827B7A"><title>2025: 213262</title></circle>
	<circle cx="231.56" cy="255.42" data-y="281557" data-x="2026" r="4" fill="#827B7A"><title>2026: 281557</title></circle>
	<circle cx="247.50" cy="251.05" data-y="365938" data-x="2027" r="4" fill="#827B7A"><title>2027: 365938</title></circle>
	<circle cx="263.44" cy="245.67" data-y="469787" data-x="2028" r="4" fill="#827B7A"><title>2028: 469787</title></circle>
	<circle cx="279.38" cy="239.13" data-y="596128" data-x="2029" r="4" fill="#827B7A"><title>2029: 596128</title></circle>
	<circle cx="295.31" cy="231.29" data-y="747496" data-x="2030" r="4" fill="#827B7A"><title>2030: 747496</title></circle>
	<circle cx="311.25" cy="221.83" data-y="930295" data-x="2031" r="4" fill="#827B7A"><title>2031: 930295</title></circle>
	<circle cx="327.19" cy="211.51" data-y="1129496" data-x="2032" r="4" fill="#827B7A"><title>2032: 1129496</title></circle>
	<circle cx="343.12" cy="199.75" data-y="1356716" data-x="2033" r="4" fill="#827B7A"><title>2033: 1356716</title></circle>
	<circle cx="359.06" cy="186.59" data-y="1610789" data-x="2034" r="4" fill="#827B7A"><title>2034: 1610789</title></circle>
	<circle cx="375.00" cy="172.23" data-y="1888053" data-x="2035" r="4" fill="#827B7A"><title>2035: 1888053</title></circle>
	<circle cx="390.94" cy="155.71" data-y="2207186" data-x="2036" r="4" fill="#827B7A"><title>2036: 2207186</title></circle>
	<circle cx="406.88" cy="138.33" data-y="2542826" data-x="2037" r="4" fill="#827B7A"><title>2037: 2542826</title></circle>
	<circle cx="422.81" cy="120.66" data-y="2884130" data-x="2038" r="4" fill="#827B7A"><title>2038: 2884130</title></circle>
	<circle cx="438.75" cy="103.15" data-y="3222142" data-x="2039" r="4" fill="#827B7A"><title>2039: 3222142</title></circle>
	<circle cx="454.69" cy="87.85" data-y="3517763" data-x="2040" r="4" fill="#827B7A"><title>2040: 3517763</title></circle>
	<circle cx="470.62" cy="74.04" data-y="3784338" data-x="2041" r="4" fill="#827B7A"><title>2041: 3784338</title></circle>
	<circle cx="486.56" cy="61.89" data-y="4018993" data-x="2042" r="4" fill="#827B7A"><title>2042: 4018993</title></circle>
	<circle cx="502.50" cy="51.59" data-y="4217923" data-x="2043" r="4" fill="#827B7A"><title>2043: 4217923</title></circle>
	<circle cx="518.44" cy="43.05" data-y="4382969" data-x="2044" r="4" fill="#827B7A"><title>2044: 4382969</title></circle>
	<circle cx="534.38" cy="36.67" data-y="4506090" data-x="2045" r="4" fill="#827B7A"><title>2045: 4506090</title></circle>
	<circle cx="550.31" cy="34.97" data-y="4538842" data-x="2046" r="4" fill="#827B7A"><title>2046: 4538842</title></circle>
	<circle cx="566.25" cy="33.49" data-y="4567487" data-x="2047" r="4" fill="#827B7A"><title>2047: 4567487</title></circle>
	<circle cx="582.19" cy="32.18" data-y="4592842" data-x="2048" r="4" fill="#827B7A"><title>2048: 4592842</title></circle>
	<circle cx="598.12" cy="31.00" data-y="4615677" data-x="2049" r="4" fill="#827B7A"><title>2049: 4615677</title></circle>
	<circle cx="614.06" cy="29.91" data-y="4636643" data-x="2050" r="4" fill="#827B7A"><title>2050: 4636643</title></circle>
</g>
<g data-scenario="leading-the-way" class="data-series">	<path d="M 120.00,268.64L 135.94,268.07L 151.88,266.27L 167.81,263.53L 183.75,259.55L 199.69,254.39L 215.62,247.47L 231.56,238.54L 247.50,227.49L 263.44,213.40L 279.38,196.23L 295.31,176.15L 311.25,153.97L 327.19,131.24L 343.12,109.18L 359.06,89.35L 375.00,73.14L 390.94,60.73L 406.88,52.06L 422.81,46.63L 438.75,43.38L 454.69,44.04L 470.62,45.94L 486.56,48.76L 502.50,52.39L 518.44,57.05L 534.38,62.64L 550.31,69.16L 566.25,76.70L 582.19,85.34L 598.12,95.18L 614.06,106.34" id="Leading the way" class="line" stroke="#C2CD23" stroke-width="3" stroke-linecap="round"><title>Leading the way</title></path>
	<circle cx="120.00" cy="268.64" data-y="26353" data-x="2019" r="4" fill="#C2CD23"><title>2019: 26353</title></circle>
	<circle cx="135.94" cy="268.07" data-y="37328" data-x="2020" r="4" fill="#C2CD23"><title>2020: 37328</title></circle>
	<circle cx="151.88" cy="266.27" data-y="72016" data-x="2021" r="4" fill="#C2CD23"><title>2021: 72016</title></circle>
	<circle cx="167.81" cy="263.53" data-y="124935" data-x="2022" r="4" fill="#C2CD23"><title>2022: 124935</title></circle>
	<circle cx="183.75" cy="259.55" data-y="201814" data-x="2023" r="4" fill="#C2CD23"><title>2023: 201814</title></circle>
	<circle cx="199.69" cy="254.39" data-y="301414" data-x="2024" r="4" fill="#C2CD23"><title>2024: 301414</title></circle>
	<circle cx="215.62" cy="247.47" data-y="435065" data-x="2025" r="4" fill="#C2CD23"><title>2025: 435065</title></circle>
	<circle cx="231.56" cy="238.54" data-y="607515" data-x="2026" r="4" fill="#C2CD23"><title>2026: 607515</title></circle>
	<circle cx="247.50" cy="227.49" data-y="821021" data-x="2027" r="4" fill="#C2CD23"><title>2027: 821021</title></circle>
	<circle cx="263.44" cy="213.40" data-y="1093022" data-x="2028" r="4" fill="#C2CD23"><title>2028: 1093022</title></circle>
	<circle cx="279.38" cy="196.23" data-y="1424698" data-x="2029" r="4" fill="#C2CD23"><title>2029: 1424698</title></circle>
	<circle cx="295.31" cy="176.15" data-y="1812382" data-x="2030" r="4" fill="#C2CD23"><title>2030: 1812382</title></circle>
	<circle cx="311.25" cy="153.97" data-y="2240703" data-x="2031" r="4" fill="#C2CD23"><title>2031: 2240703</title></circle>
	<circle cx="327.19" cy="131.24" data-y="2679791" data-x="2032" r="4" fill="#C2CD23"><title>2032: 2679791</title></circle>
	<circle cx="343.12" cy="109.18" data-y="3105675" data-x="2033" r="4" fill="#C2CD23"><title>2033: 3105675</title></circle>
	<circle cx="359.06" cy="89.35" data-y="3488656" data-x="2034" r="4" fill="#C2CD23"><title>2034: 3488656</title></circle>
	<circle cx="375.00" cy="73.14" data-y="3801724" data-x="2035" r="4" fill="#C2CD23"><title>2035: 3801724</title></circle>
	<circle cx="390.94" cy="60.73" data-y="4041478" data-x="2036" r="4" fill="#C2CD23"><title>2036: 4041478</title></circle>
	<circle cx="406.88" cy="52.06" data-y="4208832" data-x="2037" r="4" fill="#C2CD23"><title>2037: 4208832</title></circle>
	<circle cx="422.81" cy="46.63" data-y="4313677" data-x="2038" r="4" fill="#C2CD23"><title>2038: 4313677</title></circle>
	<circle cx="438.75" cy="43.38" data-y="4376483" data-x="2039" r="4" fill="#C2CD23"><title>2039: 4376483</title></circle>
	<circle cx="454.69" cy="44.04" data-y="4363767" data-x="2040" r="4" fill="#C2CD23"><title>2040: 4363767</title></circle>
	<circle cx="470.62" cy="45.94" data-y="4327009" data-x="2041" r="4" fill="#C2CD23"><title>2041: 4327009</title></circle>
	<circle cx="486.56" cy="48.76" data-y="4272531" data-x="2042" r="4" fill="#C2CD23"><title>2042: 4272531</title></circle>
	<circle cx="502.50" cy="52.39" data-y="4202514" data-x="2043" r="4" fill="#C2CD23"><title>2043: 4202514</title></circle>
	<circle cx="518.44" cy="57.05" data-y="4112528" data-x="2044" r="4" fill="#C2CD23"><title>2044: 4112528</title></circle>
	<circle cx="534.38" cy="62.64" data-y="4004466" data-x="2045" r="4" fill="#C2CD23"><title>2045: 4004466</title></circle>
	<circle cx="550.31" cy="69.16" data-y="3878557" data-x="2046" r="4" fill="#C2CD23"><title>2046: 3878557</title></circle>
	<circle cx="566.25" cy="76.70" data-y="3733090" data-x="2047" r="4" fill="#C2CD23"><title>2047: 3733090</title></circle>
	<circle cx="582.19" cy="85.34" data-y="3566248" data-x="2048" r="4" fill="#C2CD23"><title>2048: 3566248</title></circle>
	<circle cx="598.12" cy="95.18" data-y="3376065" data-x="2049" r="4" fill="#C2CD23"><title>2049: 3376065</title></circle>
	<circle cx="614.06" cy="106.34" data-y="3160521" data-x="2050" r="4" fill="#C2CD23"><title>2050: 3160521</title></circle>
</g>
<g data-scenario="planning-scenario" class="data-series">	<path d="M 120.00,268.64L 135.94,268.07L 151.88,266.70L 167.81,263.98L 183.75,258.53L 199.69,251.45L 215.62,242.48L 231.56,232.52L 247.50,220.95L 263.44,207.75L 279.38,193.19L 295.31,174.15L 311.25,155.76L 327.19,137.93L 343.12,120.82L 359.06,104.61L 375.00,89.42L 390.94,75.46L 406.88,62.71L 422.81,51.22L 438.75,40.97L 454.69,31.98L 470.62,26.32L 486.56,21.78L 502.50,18.25L 518.44,15.58L 534.38,13.60L 550.31,12.22L 566.25,11.26L 582.19,10.64L 598.12,10.25L 614.06,10.00" id="NPg Planning Scenario" class="line" stroke="#ab1236" stroke-width="3" stroke-linecap="round"><title>NPg Planning Scenario</title></path>
	<circle cx="120.00" cy="268.64" data-y="26353" data-x="2019" r="4" fill="#ab1236"><title>2019: 26353</title></circle>
	<circle cx="135.94" cy="268.07" data-y="37328" data-x="2020" r="4" fill="#ab1236"><title>2020: 37328</title></circle>
	<circle cx="151.88" cy="266.70" data-y="63649" data-x="2021" r="4" fill="#ab1236"><title>2021: 63649</title></circle>
	<circle cx="167.81" cy="263.98" data-y="116333" data-x="2022" r="4" fill="#ab1236"><title>2022: 116333</title></circle>
	<circle cx="183.75" cy="258.53" data-y="221493" data-x="2023" r="4" fill="#ab1236"><title>2023: 221493</title></circle>
	<circle cx="199.69" cy="251.45" data-y="358149" data-x="2024" r="4" fill="#ab1236"><title>2024: 358149</title></circle>
	<circle cx="215.62" cy="242.48" data-y="531397" data-x="2025" r="4" fill="#ab1236"><title>2025: 531397</title></circle>
	<circle cx="231.56" cy="232.52" data-y="723729" data-x="2026" r="4" fill="#ab1236"><title>2026: 723729</title></circle>
	<circle cx="247.50" cy="220.95" data-y="947174" data-x="2027" r="4" fill="#ab1236"><title>2027: 947174</title></circle>
	<circle cx="263.44" cy="207.75" data-y="1202124" data-x="2028" r="4" fill="#ab1236"><title>2028: 1202124</title></circle>
	<circle cx="279.38" cy="193.19" data-y="1483417" data-x="2029" r="4" fill="#ab1236"><title>2029: 1483417</title></circle>
	<circle cx="295.31" cy="174.15" data-y="1851101" data-x="2030" r="4" fill="#ab1236"><title>2030: 1851101</title></circle>
	<circle cx="311.25" cy="155.76" data-y="2206223" data-x="2031" r="4" fill="#ab1236"><title>2031: 2206223</title></circle>
	<circle cx="327.19" cy="137.93" data-y="2550564" data-x="2032" r="4" fill="#ab1236"><title>2032: 2550564</title></circle>
	<circle cx="343.12" cy="120.82" data-y="2880984" data-x="2033" r="4" fill="#ab1236"><title>2033: 2880984</title></circle>
	<circle cx="359.06" cy="104.61" data-y="3194069" data-x="2034" r="4" fill="#ab1236"><title>2034: 3194069</title></circle>
	<circle cx="375.00" cy="89.42" data-y="3487300" data-x="2035" r="4" fill="#ab1236"><title>2035: 3487300</title></circle>
	<circle cx="390.94" cy="75.46" data-y="3756887" data-x="2036" r="4" fill="#ab1236"><title>2036: 3756887</title></circle>
	<circle cx="406.88" cy="62.71" data-y="4003149" data-x="2037" r="4" fill="#ab1236"><title>2037: 4003149</title></circle>
	<circle cx="422.81" cy="51.22" data-y="4225037" data-x="2038" r="4" fill="#ab1236"><title>2038: 4225037</title></circle>
	<circle cx="438.75" cy="40.97" data-y="4422951" data-x="2039" r="4" fill="#ab1236"><title>2039: 4422951</title></circle>
	<circle cx="454.69" cy="31.98" data-y="4596745" data-x="2040" r="4" fill="#ab1236"><title>2040: 4596745</title></circle>
	<circle cx="470.62" cy="26.32" data-y="4705938" data-x="2041" r="4" fill="#ab1236"><title>2041: 4705938</title></circle>
	<circle cx="486.56" cy="21.78" data-y="4793704" data-x="2042" r="4" fill="#ab1236"><title>2042: 4793704</title></circle>
	<circle cx="502.50" cy="18.25" data-y="4861803" data-x="2043" r="4" fill="#ab1236"><title>2043: 4861803</title></circle>
	<circle cx="518.44" cy="15.58" data-y="4913437" data-x="2044" r="4" fill="#ab1236"><title>2044: 4913437</title></circle>
	<circle cx="534.38" cy="13.60" data-y="4951683" data-x="2045" r="4" fill="#ab1236"><title>2045: 4951683</title></circle>
	<circle cx="550.31" cy="12.22" data-y="4978310" data-x="2046" r="4" fill="#ab1236"><title>2046: 4978310</title></circle>
	<circle cx="566.25" cy="11.26" data-y="4996803" data-x="2047" r="4" fill="#ab1236"><title>2047: 4996803</title></circle>
	<circle cx="582.19" cy="10.64" data-y="5008685" data-x="2048" r="4" fill="#ab1236"><title>2048: 5008685</title></circle>
	<circle cx="598.12" cy="10.25" data-y="5016402" data-x="2049" r="4" fill="#ab1236"><title>2049: 5016402</title></circle>
	<circle cx="614.06" cy="10.00" data-y="5021138" data-x="2050" r="4" fill="#ab1236"><title>2050: 5021138</title></circle>
</g>
</svg>
