<svg width="640" height="320" viewBox="0 0 640 320" xmlns="http://www.w3.org/2000/svg" style="overflow:display" preserveAspectRatio="xMinYMin meet" overflow="visible">
<defs>
	<style>
	.data-series path.line { fill-opacity: 0; }
	.data-series path.line.dotted { stroke-dasharray: 12 20 }
	.data-series circle { display: none; }
	.data-series:hover path.line, .data-series.on path.line { stroke-width: 5; }
	.data-series:hover circle, .data-series.on circle { display: inline; }
	.data-series circle:hover, .data-series circle.on { r: 6px!important; fill: black; }
	.grid { font-family: "Helvetica Neue",Helvetica,Arial,"Lucida Grande",sans-serif; }
	.grid line { stroke: rgb(0,0,0); stroke-width: 2; stroke-linecap: round; }
	.grid.grid-x text { text-anchor: middle; dominant-baseline: hanging; transform: translateY(10px); }
	.grid.grid-y text { text-anchor: end; dominant-baseline: middle; transform: translateX(-10px); }
	</style>
</defs>
<g class="grid grid-y">
	<line x1="70" y1="270" x2="630" y2="270" data-left="70"></line>
	<text x="70" y="270" text-anchor="end">0</text>
	<text x="70" y="211.173580667185" text-anchor="end">5</text>
	<text x="70" y="152.347161334371" text-anchor="end">10</text>
	<text x="70" y="93.5207420015558" text-anchor="end">15</text>
	<text x="70" y="34.6943226687411" text-anchor="end">20</text>
	<text style="text-anchor:middle;dominant-baseline:hanging;font-weight:bold;transform: translateY(140px) rotate(-90deg);">Network energy consumption (TWh)</text>
</g>
<g class="grid grid-x">
	<line class="tick" x1="238" y1="270" x2="238" y2="275"></line>
	<text x="238" y="270" text-anchor="middle">2030</text>
	<line class="tick" x1="424.666666666667" y1="270" x2="424.666666666667" y2="275"></line>
	<text x="424.666666666667" y="270" text-anchor="middle">2040</text>
	<line class="tick" x1="611.333333333333" y1="270" x2="611.333333333333" y2="275"></line>
	<text x="611.333333333333" y="270" text-anchor="middle">2050</text>
	<text style="text-anchor:middle;dominant-baseline:hanging;font-weight:bold;transform: translateY(140px) rotate(-90deg);"></text>
</g>
<g data-scenario="domestic" class="data-series">	<path d="M 70.00,130.82L 88.67,139.23L 107.33,140.23L 126.00,140.82L 144.67,141.45L 163.33,141.82L 182.00,141.63L 200.67,141.35L 219.33,141.08L 238.00,140.81L 256.67,140.76L 275.33,140.70L 294.00,140.70L 312.67,140.73L 331.33,140.71L 350.00,140.61L 368.67,140.39L 387.33,140.10L 406.00,139.89L 424.67,139.62L 443.33,139.25L 462.00,138.89L 480.67,138.54L 499.33,138.18L 518.00,137.81L 536.67,137.46L 555.33,137.01L 574.00,136.41L 592.67,135.80L 611.33,134.93" id="Domestic" class="line" stroke="#F1060E" stroke-width="3" stroke-linecap="round"><title>Domestic</title></path>
	<circle cx="70.00" cy="130.82" data-y="11.82940951" data-x="2021" r="4" fill="#F1060E"><title>2021: 11.82940951</title></circle>
	<circle cx="88.67" cy="139.23" data-y="11.11480695" data-x="2022" r="4" fill="#F1060E"><title>2022: 11.11480695</title></circle>
	<circle cx="107.33" cy="140.23" data-y="11.02975752" data-x="2023" r="4" fill="#F1060E"><title>2023: 11.02975752</title></circle>
	<circle cx="126.00" cy="140.82" data-y="10.98005756" data-x="2024" r="4" fill="#F1060E"><title>2024: 10.98005756</title></circle>
	<circle cx="144.67" cy="141.45" data-y="10.92662177" data-x="2025" r="4" fill="#F1060E"><title>2025: 10.92662177</title></circle>
	<circle cx="163.33" cy="141.82" data-y="10.89493499" data-x="2026" r="4" fill="#F1060E"><title>2026: 10.89493499</title></circle>
	<circle cx="182.00" cy="141.63" data-y="10.91112065" data-x="2027" r="4" fill="#F1060E"><title>2027: 10.91112065</title></circle>
	<circle cx="200.67" cy="141.35" data-y="10.9346987" data-x="2028" r="4" fill="#F1060E"><title>2028: 10.9346987</title></circle>
	<circle cx="219.33" cy="141.08" data-y="10.95770474" data-x="2029" r="4" fill="#F1060E"><title>2029: 10.95770474</title></circle>
	<circle cx="238.00" cy="140.81" data-y="10.98095388" data-x="2030" r="4" fill="#F1060E"><title>2030: 10.98095388</title></circle>
	<circle cx="256.67" cy="140.76" data-y="10.98524333" data-x="2031" r="4" fill="#F1060E"><title>2031: 10.98524333</title></circle>
	<circle cx="275.33" cy="140.70" data-y="10.9897383" data-x="2032" r="4" fill="#F1060E"><title>2032: 10.9897383</title></circle>
	<circle cx="294.00" cy="140.70" data-y="10.99016539" data-x="2033" r="4" fill="#F1060E"><title>2033: 10.99016539</title></circle>
	<circle cx="312.67" cy="140.73" data-y="10.98757967" data-x="2034" r="4" fill="#F1060E"><title>2034: 10.98757967</title></circle>
	<circle cx="331.33" cy="140.71" data-y="10.98874016" data-x="2035" r="4" fill="#F1060E"><title>2035: 10.98874016</title></circle>
	<circle cx="350.00" cy="140.61" data-y="10.99720128" data-x="2036" r="4" fill="#F1060E"><title>2036: 10.99720128</title></circle>
	<circle cx="368.67" cy="140.39" data-y="11.01632818" data-x="2037" r="4" fill="#F1060E"><title>2037: 11.01632818</title></circle>
	<circle cx="387.33" cy="140.10" data-y="11.04057705" data-x="2038" r="4" fill="#F1060E"><title>2038: 11.04057705</title></circle>
	<circle cx="406.00" cy="139.89" data-y="11.05874631" data-x="2039" r="4" fill="#F1060E"><title>2039: 11.05874631</title></circle>
	<circle cx="424.67" cy="139.62" data-y="11.08205457" data-x="2040" r="4" fill="#F1060E"><title>2040: 11.08205457</title></circle>
	<circle cx="443.33" cy="139.25" data-y="11.11332474" data-x="2041" r="4" fill="#F1060E"><title>2041: 11.11332474</title></circle>
	<circle cx="462.00" cy="138.89" data-y="11.14345154" data-x="2042" r="4" fill="#F1060E"><title>2042: 11.14345154</title></circle>
	<circle cx="480.67" cy="138.54" data-y="11.17374368" data-x="2043" r="4" fill="#F1060E"><title>2043: 11.17374368</title></circle>
	<circle cx="499.33" cy="138.18" data-y="11.20420571" data-x="2044" r="4" fill="#F1060E"><title>2044: 11.20420571</title></circle>
	<circle cx="518.00" cy="137.81" data-y="11.23522164" data-x="2045" r="4" fill="#F1060E"><title>2045: 11.23522164</title></circle>
	<circle cx="536.67" cy="137.46" data-y="11.26565763" data-x="2046" r="4" fill="#F1060E"><title>2046: 11.26565763</title></circle>
	<circle cx="555.33" cy="137.01" data-y="11.30391832" data-x="2047" r="4" fill="#F1060E"><title>2047: 11.30391832</title></circle>
	<circle cx="574.00" cy="136.41" data-y="11.35488494" data-x="2048" r="4" fill="#F1060E"><title>2048: 11.35488494</title></circle>
	<circle cx="592.67" cy="135.80" data-y="11.40642849" data-x="2049" r="4" fill="#F1060E"><title>2049: 11.40642849</title></circle>
	<circle cx="611.33" cy="134.93" data-y="11.48031471" data-x="2050" r="4" fill="#F1060E"><title>2050: 11.48031471</title></circle>
</g>
<g data-scenario="i-and-c" class="data-series">	<path d="M 70.00,20.96L 88.67,10.00L 107.33,11.05L 126.00,13.07L 144.67,14.98L 163.33,16.78L 182.00,18.49L 200.67,20.09L 219.33,21.61L 238.00,22.62L 256.67,23.95L 275.33,25.20L 294.00,26.37L 312.67,27.45L 331.33,25.40L 350.00,26.35L 368.67,27.22L 387.33,28.03L 406.00,28.79L 424.67,29.49L 443.33,30.14L 462.00,30.75L 480.67,31.31L 499.33,31.84L 518.00,32.34L 536.67,32.81L 555.33,33.26L 574.00,33.69L 592.67,34.10L 611.33,34.51" id="I &amp; C" class="line" stroke="#6DC2C7" stroke-width="3" stroke-linecap="round"><title>I &amp; C</title></path>
	<circle cx="70.00" cy="20.96" data-y="21.16740887" data-x="2021" r="4" fill="#6DC2C7"><title>2021: 21.16740887</title></circle>
	<circle cx="88.67" cy="10.00" data-y="22.09891431" data-x="2022" r="4" fill="#6DC2C7"><title>2022: 22.09891431</title></circle>
	<circle cx="107.33" cy="11.05" data-y="22.00995133" data-x="2023" r="4" fill="#6DC2C7"><title>2023: 22.00995133</title></circle>
	<circle cx="126.00" cy="13.07" data-y="21.83823637" data-x="2024" r="4" fill="#6DC2C7"><title>2024: 21.83823637</title></circle>
	<circle cx="144.67" cy="14.98" data-y="21.67577545" data-x="2025" r="4" fill="#6DC2C7"><title>2025: 21.67577545</title></circle>
	<circle cx="163.33" cy="16.78" data-y="21.52235062" data-x="2026" r="4" fill="#6DC2C7"><title>2026: 21.52235062</title></circle>
	<circle cx="182.00" cy="18.49" data-y="21.37751431" data-x="2027" r="4" fill="#6DC2C7"><title>2027: 21.37751431</title></circle>
	<circle cx="200.67" cy="20.09" data-y="21.2410094" data-x="2028" r="4" fill="#6DC2C7"><title>2028: 21.2410094</title></circle>
	<circle cx="219.33" cy="21.61" data-y="21.11242531" data-x="2029" r="4" fill="#6DC2C7"><title>2029: 21.11242531</title></circle>
	<circle cx="238.00" cy="22.62" data-y="21.02625855" data-x="2030" r="4" fill="#6DC2C7"><title>2030: 21.02625855</title></circle>
	<circle cx="256.67" cy="23.95" data-y="20.91286899" data-x="2031" r="4" fill="#6DC2C7"><title>2031: 20.91286899</title></circle>
	<circle cx="275.33" cy="25.20" data-y="20.80686522" data-x="2032" r="4" fill="#6DC2C7"><title>2032: 20.80686522</title></circle>
	<circle cx="294.00" cy="26.37" data-y="20.70792406" data-x="2033" r="4" fill="#6DC2C7"><title>2033: 20.70792406</title></circle>
	<circle cx="312.67" cy="27.45" data-y="20.61562311" data-x="2034" r="4" fill="#6DC2C7"><title>2034: 20.61562311</title></circle>
	<circle cx="331.33" cy="25.40" data-y="20.78974067" data-x="2035" r="4" fill="#6DC2C7"><title>2035: 20.78974067</title></circle>
	<circle cx="350.00" cy="26.35" data-y="20.70962723" data-x="2036" r="4" fill="#6DC2C7"><title>2036: 20.70962723</title></circle>
	<circle cx="368.67" cy="27.22" data-y="20.6352283" data-x="2037" r="4" fill="#6DC2C7"><title>2037: 20.6352283</title></circle>
	<circle cx="387.33" cy="28.03" data-y="20.56622504" data-x="2038" r="4" fill="#6DC2C7"><title>2038: 20.56622504</title></circle>
	<circle cx="406.00" cy="28.79" data-y="20.50214489" data-x="2039" r="4" fill="#6DC2C7"><title>2039: 20.50214489</title></circle>
	<circle cx="424.67" cy="29.49" data-y="20.44258337" data-x="2040" r="4" fill="#6DC2C7"><title>2040: 20.44258337</title></circle>
	<circle cx="443.33" cy="30.14" data-y="20.38719753" data-x="2041" r="4" fill="#6DC2C7"><title>2041: 20.38719753</title></circle>
	<circle cx="462.00" cy="30.75" data-y="20.33563029" data-x="2042" r="4" fill="#6DC2C7"><title>2042: 20.33563029</title></circle>
	<circle cx="480.67" cy="31.31" data-y="20.28747518" data-x="2043" r="4" fill="#6DC2C7"><title>2043: 20.28747518</title></circle>
	<circle cx="499.33" cy="31.84" data-y="20.24255093" data-x="2044" r="4" fill="#6DC2C7"><title>2044: 20.24255093</title></circle>
	<circle cx="518.00" cy="32.34" data-y="20.20022447" data-x="2045" r="4" fill="#6DC2C7"><title>2045: 20.20022447</title></circle>
	<circle cx="536.67" cy="32.81" data-y="20.16020957" data-x="2046" r="4" fill="#6DC2C7"><title>2046: 20.16020957</title></circle>
	<circle cx="555.33" cy="33.26" data-y="20.12212018" data-x="2047" r="4" fill="#6DC2C7"><title>2047: 20.12212018</title></circle>
	<circle cx="574.00" cy="33.69" data-y="20.08556638" data-x="2048" r="4" fill="#6DC2C7"><title>2048: 20.08556638</title></circle>
	<circle cx="592.67" cy="34.10" data-y="20.05015413" data-x="2049" r="4" fill="#6DC2C7"><title>2049: 20.05015413</title></circle>
	<circle cx="611.33" cy="34.51" data-y="20.01548504" data-x="2050" r="4" fill="#6DC2C7"><title>2050: 20.01548504</title></circle>
</g>
<g data-scenario="heat-pumps---domestic" class="data-series">	<path d="M 70.00,268.81L 88.67,268.30L 107.33,267.72L 126.00,267.10L 144.67,265.53L 163.33,262.94L 182.00,259.45L 200.67,254.48L 219.33,248.22L 238.00,239.92L 256.67,233.10L 275.33,225.85L 294.00,217.36L 312.67,208.33L 331.33,198.17L 350.00,188.72L 368.67,179.59L 387.33,170.31L 406.00,160.96L 424.67,152.33L 443.33,143.64L 462.00,135.63L 480.67,128.50L 499.33,122.32L 518.00,116.69L 536.67,111.53L 555.33,106.21L 574.00,101.02L 592.67,100.99L 611.33,101.48" id="Heat pumps - domestic" class="line" stroke="#2D137F" stroke-width="3" stroke-linecap="round"><title>Heat pumps - domestic</title></path>
	<circle cx="70.00" cy="268.81" data-y="0.101524589" data-x="2021" r="4" fill="#2D137F"><title>2021: 0.101524589</title></circle>
	<circle cx="88.67" cy="268.30" data-y="0.144439742" data-x="2022" r="4" fill="#2D137F"><title>2022: 0.144439742</title></circle>
	<circle cx="107.33" cy="267.72" data-y="0.193901169" data-x="2023" r="4" fill="#2D137F"><title>2023: 0.193901169</title></circle>
	<circle cx="126.00" cy="267.10" data-y="0.246640844" data-x="2024" r="4" fill="#2D137F"><title>2024: 0.246640844</title></circle>
	<circle cx="144.67" cy="265.53" data-y="0.379577879" data-x="2025" r="4" fill="#2D137F"><title>2025: 0.379577879</title></circle>
	<circle cx="163.33" cy="262.94" data-y="0.600250199" data-x="2026" r="4" fill="#2D137F"><title>2026: 0.600250199</title></circle>
	<circle cx="182.00" cy="259.45" data-y="0.896798633" data-x="2027" r="4" fill="#2D137F"><title>2027: 0.896798633</title></circle>
	<circle cx="200.67" cy="254.48" data-y="1.318921888" data-x="2028" r="4" fill="#2D137F"><title>2028: 1.318921888</title></circle>
	<circle cx="219.33" cy="248.22" data-y="1.850997185" data-x="2029" r="4" fill="#2D137F"><title>2029: 1.850997185</title></circle>
	<circle cx="238.00" cy="239.92" data-y="2.556874936" data-x="2030" r="4" fill="#2D137F"><title>2030: 2.556874936</title></circle>
	<circle cx="256.67" cy="233.10" data-y="3.136454622" data-x="2031" r="4" fill="#2D137F"><title>2031: 3.136454622</title></circle>
	<circle cx="275.33" cy="225.85" data-y="3.752770884" data-x="2032" r="4" fill="#2D137F"><title>2032: 3.752770884</title></circle>
	<circle cx="294.00" cy="217.36" data-y="4.474534343" data-x="2033" r="4" fill="#2D137F"><title>2033: 4.474534343</title></circle>
	<circle cx="312.67" cy="208.33" data-y="5.242070119" data-x="2034" r="4" fill="#2D137F"><title>2034: 5.242070119</title></circle>
	<circle cx="331.33" cy="198.17" data-y="6.10560216" data-x="2035" r="4" fill="#2D137F"><title>2035: 6.10560216</title></circle>
	<circle cx="350.00" cy="188.72" data-y="6.908478464" data-x="2036" r="4" fill="#2D137F"><title>2036: 6.908478464</title></circle>
	<circle cx="368.67" cy="179.59" data-y="7.684725688" data-x="2037" r="4" fill="#2D137F"><title>2037: 7.684725688</title></circle>
	<circle cx="387.33" cy="170.31" data-y="8.473586885" data-x="2038" r="4" fill="#2D137F"><title>2038: 8.473586885</title></circle>
	<circle cx="406.00" cy="160.96" data-y="9.267835422" data-x="2039" r="4" fill="#2D137F"><title>2039: 9.267835422</title></circle>
	<circle cx="424.67" cy="152.33" data-y="10.00155652" data-x="2040" r="4" fill="#2D137F"><title>2040: 10.00155652</title></circle>
	<circle cx="443.33" cy="143.64" data-y="10.74029941" data-x="2041" r="4" fill="#2D137F"><title>2041: 10.74029941</title></circle>
	<circle cx="462.00" cy="135.63" data-y="11.42085812" data-x="2042" r="4" fill="#2D137F"><title>2042: 11.42085812</title></circle>
	<circle cx="480.67" cy="128.50" data-y="12.02731078" data-x="2043" r="4" fill="#2D137F"><title>2043: 12.02731078</title></circle>
	<circle cx="499.33" cy="122.32" data-y="12.55216823" data-x="2044" r="4" fill="#2D137F"><title>2044: 12.55216823</title></circle>
	<circle cx="518.00" cy="116.69" data-y="13.03066511" data-x="2045" r="4" fill="#2D137F"><title>2045: 13.03066511</title></circle>
	<circle cx="536.67" cy="111.53" data-y="13.46912779" data-x="2046" r="4" fill="#2D137F"><title>2046: 13.46912779</title></circle>
	<circle cx="555.33" cy="106.21" data-y="13.9214698" data-x="2047" r="4" fill="#2D137F"><title>2047: 13.9214698</title></circle>
	<circle cx="574.00" cy="101.02" data-y="14.36223076" data-x="2048" r="4" fill="#2D137F"><title>2048: 14.36223076</title></circle>
	<circle cx="592.67" cy="100.99" data-y="14.36500733" data-x="2049" r="4" fill="#2D137F"><title>2049: 14.36500733</title></circle>
	<circle cx="611.33" cy="101.48" data-y="14.32339795" data-x="2050" r="4" fill="#2D137F"><title>2050: 14.32339795</title></circle>
</g>
<g data-scenario="heat-pumps---i-and-c" class="data-series">	<path d="M 70.00,268.15L 88.67,268.02L 107.33,267.80L 126.00,267.50L 144.67,267.16L 163.33,266.78L 182.00,266.37L 200.67,265.94L 219.33,265.24L 238.00,264.41L 256.67,263.45L 275.33,262.56L 294.00,261.57L 312.67,260.54L 331.33,259.50L 350.00,258.43L 368.67,257.03L 387.33,255.42L 406.00,253.59L 424.67,251.86L 443.33,250.13L 462.00,248.35L 480.67,246.55L 499.33,244.76L 518.00,242.95L 536.67,241.13L 555.33,239.38L 574.00,237.72L 592.67,236.55L 611.33,236.00" id="Heat pumps - I &amp; C" class="line" stroke="#cc0935" stroke-width="3" stroke-linecap="round"><title>Heat pumps - I &amp; C</title></path>
	<circle cx="70.00" cy="268.15" data-y="0.157095627" data-x="2021" r="4" fill="#cc0935"><title>2021: 0.157095627</title></circle>
	<circle cx="88.67" cy="268.02" data-y="0.168029617" data-x="2022" r="4" fill="#cc0935"><title>2022: 0.168029617</title></circle>
	<circle cx="107.33" cy="267.80" data-y="0.18721429" data-x="2023" r="4" fill="#cc0935"><title>2023: 0.18721429</title></circle>
	<circle cx="126.00" cy="267.50" data-y="0.212369321" data-x="2024" r="4" fill="#cc0935"><title>2024: 0.212369321</title></circle>
	<circle cx="144.67" cy="267.16" data-y="0.241500745" data-x="2025" r="4" fill="#cc0935"><title>2025: 0.241500745</title></circle>
	<circle cx="163.33" cy="266.78" data-y="0.273817238" data-x="2026" r="4" fill="#cc0935"><title>2026: 0.273817238</title></circle>
	<circle cx="182.00" cy="266.37" data-y="0.308790663" data-x="2027" r="4" fill="#cc0935"><title>2027: 0.308790663</title></circle>
	<circle cx="200.67" cy="265.94" data-y="0.34502116" data-x="2028" r="4" fill="#cc0935"><title>2028: 0.34502116</title></circle>
	<circle cx="219.33" cy="265.24" data-y="0.404314607" data-x="2029" r="4" fill="#cc0935"><title>2029: 0.404314607</title></circle>
	<circle cx="238.00" cy="264.41" data-y="0.474726148" data-x="2030" r="4" fill="#cc0935"><title>2030: 0.474726148</title></circle>
	<circle cx="256.67" cy="263.45" data-y="0.556748732" data-x="2031" r="4" fill="#cc0935"><title>2031: 0.556748732</title></circle>
	<circle cx="275.33" cy="262.56" data-y="0.632311365" data-x="2032" r="4" fill="#cc0935"><title>2032: 0.632311365</title></circle>
	<circle cx="294.00" cy="261.57" data-y="0.716452522" data-x="2033" r="4" fill="#cc0935"><title>2033: 0.716452522</title></circle>
	<circle cx="312.67" cy="260.54" data-y="0.803857694" data-x="2034" r="4" fill="#cc0935"><title>2034: 0.803857694</title></circle>
	<circle cx="331.33" cy="259.50" data-y="0.892530732" data-x="2035" r="4" fill="#cc0935"><title>2035: 0.892530732</title></circle>
	<circle cx="350.00" cy="258.43" data-y="0.983598678" data-x="2036" r="4" fill="#cc0935"><title>2036: 0.983598678</title></circle>
	<circle cx="368.67" cy="257.03" data-y="1.102289978" data-x="2037" r="4" fill="#cc0935"><title>2037: 1.102289978</title></circle>
	<circle cx="387.33" cy="255.42" data-y="1.239213152" data-x="2038" r="4" fill="#cc0935"><title>2038: 1.239213152</title></circle>
	<circle cx="406.00" cy="253.59" data-y="1.394676107" data-x="2039" r="4" fill="#cc0935"><title>2039: 1.394676107</title></circle>
	<circle cx="424.67" cy="251.86" data-y="1.541778411" data-x="2040" r="4" fill="#cc0935"><title>2040: 1.541778411</title></circle>
	<circle cx="443.33" cy="250.13" data-y="1.688763089" data-x="2041" r="4" fill="#cc0935"><title>2041: 1.688763089</title></circle>
	<circle cx="462.00" cy="248.35" data-y="1.839928561" data-x="2042" r="4" fill="#cc0935"><title>2042: 1.839928561</title></circle>
	<circle cx="480.67" cy="246.55" data-y="1.992905991" data-x="2043" r="4" fill="#cc0935"><title>2043: 1.992905991</title></circle>
	<circle cx="499.33" cy="244.76" data-y="2.14525653" data-x="2044" r="4" fill="#cc0935"><title>2044: 2.14525653</title></circle>
	<circle cx="518.00" cy="242.95" data-y="2.299022946" data-x="2045" r="4" fill="#cc0935"><title>2045: 2.299022946</title></circle>
	<circle cx="536.67" cy="241.13" data-y="2.453884996" data-x="2046" r="4" fill="#cc0935"><title>2046: 2.453884996</title></circle>
	<circle cx="555.33" cy="239.38" data-y="2.602729916" data-x="2047" r="4" fill="#cc0935"><title>2047: 2.602729916</title></circle>
	<circle cx="574.00" cy="237.72" data-y="2.743632963" data-x="2048" r="4" fill="#cc0935"><title>2048: 2.743632963</title></circle>
	<circle cx="592.67" cy="236.55" data-y="2.842714398" data-x="2049" r="4" fill="#cc0935"><title>2049: 2.842714398</title></circle>
	<circle cx="611.33" cy="236.00" data-y="2.889564175" data-x="2050" r="4" fill="#cc0935"><title>2050: 2.889564175</title></circle>
</g>
<g data-scenario="ev" class="data-series">	<path d="M 70.00,268.51L 88.67,267.15L 107.33,263.98L 126.00,259.65L 144.67,254.51L 163.33,249.09L 182.00,242.93L 200.67,235.63L 219.33,227.62L 238.00,216.94L 256.67,207.18L 275.33,198.11L 294.00,188.90L 312.67,180.16L 331.33,168.57L 350.00,158.36L 368.67,151.35L 387.33,145.22L 406.00,140.41L 424.67,136.27L 443.33,133.78L 462.00,131.91L 480.67,130.63L 499.33,129.78L 518.00,129.40L 536.67,129.44L 555.33,129.68L 574.00,130.13L 592.67,130.75L 611.33,131.45" id="EV" class="line" stroke="#45D526" stroke-width="3" stroke-linecap="round"><title>EV</title></path>
	<circle cx="70.00" cy="268.51" data-y="0.126970777" data-x="2021" r="4" fill="#45D526"><title>2021: 0.126970777</title></circle>
	<circle cx="88.67" cy="267.15" data-y="0.242051376" data-x="2022" r="4" fill="#45D526"><title>2022: 0.242051376</title></circle>
	<circle cx="107.33" cy="263.98" data-y="0.512078037" data-x="2023" r="4" fill="#45D526"><title>2023: 0.512078037</title></circle>
	<circle cx="126.00" cy="259.65" data-y="0.879890438" data-x="2024" r="4" fill="#45D526"><title>2024: 0.879890438</title></circle>
	<circle cx="144.67" cy="254.51" data-y="1.316415547" data-x="2025" r="4" fill="#45D526"><title>2025: 1.316415547</title></circle>
	<circle cx="163.33" cy="249.09" data-y="1.777499309" data-x="2026" r="4" fill="#45D526"><title>2026: 1.777499309</title></circle>
	<circle cx="182.00" cy="242.93" data-y="2.3007752" data-x="2027" r="4" fill="#45D526"><title>2027: 2.3007752</title></circle>
	<circle cx="200.67" cy="235.63" data-y="2.921536659" data-x="2028" r="4" fill="#45D526"><title>2028: 2.921536659</title></circle>
	<circle cx="219.33" cy="227.62" data-y="3.602497926" data-x="2029" r="4" fill="#45D526"><title>2029: 3.602497926</title></circle>
	<circle cx="238.00" cy="216.94" data-y="4.509905886" data-x="2030" r="4" fill="#45D526"><title>2030: 4.509905886</title></circle>
	<circle cx="256.67" cy="207.18" data-y="5.339484476" data-x="2031" r="4" fill="#45D526"><title>2031: 5.339484476</title></circle>
	<circle cx="275.33" cy="198.11" data-y="6.110125706" data-x="2032" r="4" fill="#45D526"><title>2032: 6.110125706</title></circle>
	<circle cx="294.00" cy="188.90" data-y="6.89353383" data-x="2033" r="4" fill="#45D526"><title>2033: 6.89353383</title></circle>
	<circle cx="312.67" cy="180.16" data-y="7.63616107" data-x="2034" r="4" fill="#45D526"><title>2034: 7.63616107</title></circle>
	<circle cx="331.33" cy="168.57" data-y="8.621538503" data-x="2035" r="4" fill="#45D526"><title>2035: 8.621538503</title></circle>
	<circle cx="350.00" cy="158.36" data-y="9.48901029" data-x="2036" r="4" fill="#45D526"><title>2036: 9.48901029</title></circle>
	<circle cx="368.67" cy="151.35" data-y="10.08517445" data-x="2037" r="4" fill="#45D526"><title>2037: 10.08517445</title></circle>
	<circle cx="387.33" cy="145.22" data-y="10.60550166" data-x="2038" r="4" fill="#45D526"><title>2038: 10.60550166</title></circle>
	<circle cx="406.00" cy="140.41" data-y="11.01482914" data-x="2039" r="4" fill="#45D526"><title>2039: 11.01482914</title></circle>
	<circle cx="424.67" cy="136.27" data-y="11.36683294" data-x="2040" r="4" fill="#45D526"><title>2040: 11.36683294</title></circle>
	<circle cx="443.33" cy="133.78" data-y="11.57773407" data-x="2041" r="4" fill="#45D526"><title>2041: 11.57773407</title></circle>
	<circle cx="462.00" cy="131.91" data-y="11.7370646" data-x="2042" r="4" fill="#45D526"><title>2042: 11.7370646</title></circle>
	<circle cx="480.67" cy="130.63" data-y="11.84564189" data-x="2043" r="4" fill="#45D526"><title>2043: 11.84564189</title></circle>
	<circle cx="499.33" cy="129.78" data-y="11.91835768" data-x="2044" r="4" fill="#45D526"><title>2044: 11.91835768</title></circle>
	<circle cx="518.00" cy="129.40" data-y="11.95001337" data-x="2045" r="4" fill="#45D526"><title>2045: 11.95001337</title></circle>
	<circle cx="536.67" cy="129.44" data-y="11.94681927" data-x="2046" r="4" fill="#45D526"><title>2046: 11.94681927</title></circle>
	<circle cx="555.33" cy="129.68" data-y="11.92653725" data-x="2047" r="4" fill="#45D526"><title>2047: 11.92653725</title></circle>
	<circle cx="574.00" cy="130.13" data-y="11.88796692" data-x="2048" r="4" fill="#45D526"><title>2048: 11.88796692</title></circle>
	<circle cx="592.67" cy="130.75" data-y="11.83530022" data-x="2049" r="4" fill="#45D526"><title>2049: 11.83530022</title></circle>
	<circle cx="611.33" cy="131.45" data-y="11.77576029" data-x="2050" r="4" fill="#45D526"><title>2050: 11.77576029</title></circle>
</g>
</svg>
