<svg width="640" height="320" viewBox="0 0 640 320" xmlns="http://www.w3.org/2000/svg" style="overflow:display" preserveAspectRatio="xMinYMin meet" overflow="visible">
<defs>
	<style>
	.data-series path.line { fill-opacity: 0; }
	.data-series path.line.dotted { stroke-dasharray: 12 20 }
	.data-series circle { display: none; }
	.data-series:hover path.line, .data-series.on path.line { stroke-width: 5; }
	.data-series:hover circle, .data-series.on circle { display: inline; }
	.data-series circle:hover, .data-series circle.on { r: 6px!important; fill: black; }
	.grid { font-family: "Helvetica Neue",Helvetica,Arial,"Lucida Grande",sans-serif; }
	.grid line { stroke: rgb(0,0,0); stroke-width: 2; stroke-linecap: round; }
	.grid.grid-x text { text-anchor: middle; dominant-baseline: hanging; transform: translateY(10px); }
	.grid.grid-y text { text-anchor: end; dominant-baseline: middle; transform: translateX(-10px); }
	</style>
</defs>
<g class="grid grid-y">
	<line x1="70" y1="270" x2="630" y2="270" data-left="70"></line>
	<text x="70" y="270" text-anchor="end">0</text>
	<text x="70" y="185.383166217443" text-anchor="end">200</text>
	<text x="70" y="100.766332434887" text-anchor="end">400</text>
	<text x="70" y="16.1494986523302" text-anchor="end">600</text>
	<text style="text-anchor:middle;dominant-baseline:hanging;font-weight:bold;transform: translateY(140px) rotate(-90deg);">Peak demand (MW)</text>
</g>
<g class="grid grid-x">
	<line class="tick" x1="238" y1="270" x2="238" y2="275"></line>
	<text x="238" y="270" text-anchor="middle">2030</text>
	<line class="tick" x1="424.666666666667" y1="270" x2="424.666666666667" y2="275"></line>
	<text x="424.666666666667" y="270" text-anchor="middle">2040</text>
	<line class="tick" x1="611.333333333333" y1="270" x2="611.333333333333" y2="275"></line>
	<text x="611.333333333333" y="270" text-anchor="middle">2050</text>
	<text style="text-anchor:middle;dominant-baseline:hanging;font-weight:bold;transform: translateY(140px) rotate(-90deg);"></text>
</g>
<g data-scenario="electric-hgvs" class="data-series">	<path d="M 70.00,269.59L 88.67,269.03L 107.33,268.23L 126.00,267.20L 144.67,265.92L 163.33,261.99L 182.00,255.59L 200.67,246.84L 219.33,235.85L 238.00,222.74L 256.67,207.65L 275.33,192.72L 294.00,177.97L 312.67,163.42L 331.33,149.07L 350.00,134.08L 368.67,120.16L 387.33,107.31L 406.00,95.52L 424.67,84.80L 443.33,76.31L 462.00,69.34L 480.67,63.89L 499.33,59.95L 518.00,57.52L 536.67,56.18L 555.33,54.84L 574.00,53.51L 592.67,52.18L 611.33,50.85" id="Electric HGVs" class="line" stroke="#FF9966" stroke-width="3" stroke-linecap="round"><title>Electric HGVs</title></path>
	<circle cx="70.00" cy="269.59" data-y="0.970320408" data-x="2021" r="4" fill="#FF9966"><title>2021: 0.970320408</title></circle>
	<circle cx="88.67" cy="269.03" data-y="2.296133119" data-x="2022" r="4" fill="#FF9966"><title>2022: 2.296133119</title></circle>
	<circle cx="107.33" cy="268.23" data-y="4.182380833" data-x="2023" r="4" fill="#FF9966"><title>2023: 4.182380833</title></circle>
	<circle cx="126.00" cy="267.20" data-y="6.629063552" data-x="2024" r="4" fill="#FF9966"><title>2024: 6.629063552</title></circle>
	<circle cx="144.67" cy="265.92" data-y="9.636181274" data-x="2025" r="4" fill="#FF9966"><title>2025: 9.636181274</title></circle>
	<circle cx="163.33" cy="261.99" data-y="18.92724577" data-x="2026" r="4" fill="#FF9966"><title>2026: 18.92724577</title></circle>
	<circle cx="182.00" cy="255.59" data-y="34.05411233" data-x="2027" r="4" fill="#FF9966"><title>2027: 34.05411233</title></circle>
	<circle cx="200.67" cy="246.84" data-y="54.74241404" data-x="2028" r="4" fill="#FF9966"><title>2028: 54.74241404</title></circle>
	<circle cx="219.33" cy="235.85" data-y="80.71777098" data-x="2029" r="4" fill="#FF9966"><title>2029: 80.71777098</title></circle>
	<circle cx="238.00" cy="222.74" data-y="111.7057902" data-x="2030" r="4" fill="#FF9966"><title>2030: 111.7057902</title></circle>
	<circle cx="256.67" cy="207.65" data-y="147.3735931" data-x="2031" r="4" fill="#FF9966"><title>2031: 147.3735931</title></circle>
	<circle cx="275.33" cy="192.72" data-y="182.6555328" data-x="2032" r="4" fill="#FF9966"><title>2032: 182.6555328</title></circle>
	<circle cx="294.00" cy="177.97" data-y="217.5159147" data-x="2033" r="4" fill="#FF9966"><title>2033: 217.5159147</title></circle>
	<circle cx="312.67" cy="163.42" data-y="251.9188192" data-x="2034" r="4" fill="#FF9966"><title>2034: 251.9188192</title></circle>
	<circle cx="331.33" cy="149.07" data-y="285.8281016" data-x="2035" r="4" fill="#FF9966"><title>2035: 285.8281016</title></circle>
	<circle cx="350.00" cy="134.08" data-y="321.2535062" data-x="2036" r="4" fill="#FF9966"><title>2036: 321.2535062</title></circle>
	<circle cx="368.67" cy="120.16" data-y="354.1588592" data-x="2037" r="4" fill="#FF9966"><title>2037: 354.1588592</title></circle>
	<circle cx="387.33" cy="107.31" data-y="384.5426737" data-x="2038" r="4" fill="#FF9966"><title>2038: 384.5426737</title></circle>
	<circle cx="406.00" cy="95.52" data-y="412.4034634" data-x="2039" r="4" fill="#FF9966"><title>2039: 412.4034634</title></circle>
	<circle cx="424.67" cy="84.80" data-y="437.7397414" data-x="2040" r="4" fill="#FF9966"><title>2040: 437.7397414</title></circle>
	<circle cx="443.33" cy="76.31" data-y="457.8022398" data-x="2041" r="4" fill="#FF9966"><title>2041: 457.8022398</title></circle>
	<circle cx="462.00" cy="69.34" data-y="474.2792513" data-x="2042" r="4" fill="#FF9966"><title>2042: 474.2792513</title></circle>
	<circle cx="480.67" cy="63.89" data-y="487.1715774" data-x="2043" r="4" fill="#FF9966"><title>2043: 487.1715774</title></circle>
	<circle cx="499.33" cy="59.95" data-y="496.4800197" data-x="2044" r="4" fill="#FF9966"><title>2044: 496.4800197</title></circle>
	<circle cx="518.00" cy="57.52" data-y="502.2053798" data-x="2045" r="4" fill="#FF9966"><title>2045: 502.2053798</title></circle>
	<circle cx="536.67" cy="56.18" data-y="505.3774884" data-x="2046" r="4" fill="#FF9966"><title>2046: 505.3774884</title></circle>
	<circle cx="555.33" cy="54.84" data-y="508.5418463" data-x="2047" r="4" fill="#FF9966"><title>2047: 508.5418463</title></circle>
	<circle cx="574.00" cy="53.51" data-y="511.6984852" data-x="2048" r="4" fill="#FF9966"><title>2048: 511.6984852</title></circle>
	<circle cx="592.67" cy="52.18" data-y="514.8474371" data-x="2049" r="4" fill="#FF9966"><title>2049: 514.8474371</title></circle>
	<circle cx="611.33" cy="50.85" data-y="517.9887337" data-x="2050" r="4" fill="#FF9966"><title>2050: 517.9887337</title></circle>
</g>
<g data-scenario="electric-buses" class="data-series">	<path d="M 70.00,269.86L 88.67,269.67L 107.33,269.41L 126.00,269.06L 144.67,268.64L 163.33,268.11L 182.00,267.46L 200.67,266.70L 219.33,265.84L 238.00,264.89L 256.67,263.90L 275.33,262.89L 294.00,261.88L 312.67,260.91L 331.33,259.97L 350.00,258.81L 368.67,257.68L 387.33,256.60L 406.00,255.62L 424.67,254.75L 443.33,254.00L 462.00,253.38L 480.67,252.89L 499.33,252.48L 518.00,252.15L 536.67,251.90L 555.33,251.73L 574.00,251.64L 592.67,251.56L 611.33,251.51" id="Electric Buses" class="line" stroke="#466228" stroke-width="3" stroke-linecap="round"><title>Electric Buses</title></path>
	<circle cx="70.00" cy="269.86" data-y="0.327798974" data-x="2021" r="4" fill="#466228"><title>2021: 0.327798974</title></circle>
	<circle cx="88.67" cy="269.67" data-y="0.771129884" data-x="2022" r="4" fill="#466228"><title>2022: 0.771129884</title></circle>
	<circle cx="107.33" cy="269.41" data-y="1.400748411" data-x="2023" r="4" fill="#466228"><title>2023: 1.400748411</title></circle>
	<circle cx="126.00" cy="269.06" data-y="2.216654553" data-x="2024" r="4" fill="#466228"><title>2024: 2.216654553</title></circle>
	<circle cx="144.67" cy="268.64" data-y="3.218848311" data-x="2025" r="4" fill="#466228"><title>2025: 3.218848311</title></circle>
	<circle cx="163.33" cy="268.11" data-y="4.465626763" data-x="2026" r="4" fill="#466228"><title>2026: 4.465626763</title></circle>
	<circle cx="182.00" cy="267.46" data-y="5.998214747" data-x="2027" r="4" fill="#466228"><title>2027: 5.998214747</title></circle>
	<circle cx="200.67" cy="266.70" data-y="7.794343412" data-x="2028" r="4" fill="#466228"><title>2028: 7.794343412</title></circle>
	<circle cx="219.33" cy="265.84" data-y="9.831741621" data-x="2029" r="4" fill="#466228"><title>2029: 9.831741621</title></circle>
	<circle cx="238.00" cy="264.89" data-y="12.08813595" data-x="2030" r="4" fill="#466228"><title>2030: 12.08813595</title></circle>
	<circle cx="256.67" cy="263.90" data-y="14.4155647" data-x="2031" r="4" fill="#466228"><title>2031: 14.4155647</title></circle>
	<circle cx="275.33" cy="262.89" data-y="16.80463947" data-x="2032" r="4" fill="#466228"><title>2032: 16.80463947</title></circle>
	<circle cx="294.00" cy="261.88" data-y="19.19234813" data-x="2033" r="4" fill="#466228"><title>2033: 19.19234813</title></circle>
	<circle cx="312.67" cy="260.91" data-y="21.48864095" data-x="2034" r="4" fill="#466228"><title>2034: 21.48864095</title></circle>
	<circle cx="331.33" cy="259.97" data-y="23.70003585" data-x="2035" r="4" fill="#466228"><title>2035: 23.70003585</title></circle>
	<circle cx="350.00" cy="258.81" data-y="26.45154739" data-x="2036" r="4" fill="#466228"><title>2036: 26.45154739</title></circle>
	<circle cx="368.67" cy="257.68" data-y="29.11244531" data-x="2037" r="4" fill="#466228"><title>2037: 29.11244531</title></circle>
	<circle cx="387.33" cy="256.60" data-y="31.68262295" data-x="2038" r="4" fill="#466228"><title>2038: 31.68262295</title></circle>
	<circle cx="406.00" cy="255.62" data-y="33.99700861" data-x="2039" r="4" fill="#466228"><title>2039: 33.99700861</title></circle>
	<circle cx="424.67" cy="254.75" data-y="36.05550882" data-x="2040" r="4" fill="#466228"><title>2040: 36.05550882</title></circle>
	<circle cx="443.33" cy="254.00" data-y="37.81562735" data-x="2041" r="4" fill="#466228"><title>2041: 37.81562735</title></circle>
	<circle cx="462.00" cy="253.38" data-y="39.27728117" data-x="2042" r="4" fill="#466228"><title>2042: 39.27728117</title></circle>
	<circle cx="480.67" cy="252.89" data-y="40.4404544" data-x="2043" r="4" fill="#466228"><title>2043: 40.4404544</title></circle>
	<circle cx="499.33" cy="252.48" data-y="41.4135138" data-x="2044" r="4" fill="#466228"><title>2044: 41.4135138</title></circle>
	<circle cx="518.00" cy="252.15" data-y="42.19637389" data-x="2045" r="4" fill="#466228"><title>2045: 42.19637389</title></circle>
	<circle cx="536.67" cy="251.90" data-y="42.7897778" data-x="2046" r="4" fill="#466228"><title>2046: 42.7897778</title></circle>
	<circle cx="555.33" cy="251.73" data-y="43.19242992" data-x="2047" r="4" fill="#466228"><title>2047: 43.19242992</title></circle>
	<circle cx="574.00" cy="251.64" data-y="43.40417925" data-x="2048" r="4" fill="#466228"><title>2048: 43.40417925</title></circle>
	<circle cx="592.67" cy="251.56" data-y="43.5731192" data-x="2049" r="4" fill="#466228"><title>2049: 43.5731192</title></circle>
	<circle cx="611.33" cy="251.51" data-y="43.69947954" data-x="2050" r="4" fill="#466228"><title>2050: 43.69947954</title></circle>
</g>
<g data-scenario="electrolysers" class="data-series">	<path d="L 163.33,269.96L 182.00,269.93L 200.67,269.91L 219.33,269.90L 238.00,269.82L 256.67,269.60L 275.33,269.22L 294.00,268.71L 312.67,268.07L 331.33,267.60L 350.00,267.01L 368.67,266.43L 387.33,265.89L 406.00,265.41L 424.67,264.95L 443.33,264.63L 462.00,264.43L 480.67,264.34L 499.33,264.33L 518.00,264.39L 536.67,264.50L 555.33,264.62L 574.00,264.72L 592.67,264.81L 611.33,264.88" id="Electrolysers" class="line" stroke="#4BACC6" stroke-width="3" stroke-linecap="round"><title>Electrolysers</title></path>
	<circle cx="163.33" cy="269.96" data-y="0.087711001" data-x="2026" r="4" fill="#4BACC6"><title>2026: 0.087711001</title></circle>
	<circle cx="182.00" cy="269.93" data-y="0.161402428" data-x="2027" r="4" fill="#4BACC6"><title>2027: 0.161402428</title></circle>
	<circle cx="200.67" cy="269.91" data-y="0.211527202" data-x="2028" r="4" fill="#4BACC6"><title>2028: 0.211527202</title></circle>
	<circle cx="219.33" cy="269.90" data-y="0.24415294" data-x="2029" r="4" fill="#4BACC6"><title>2029: 0.24415294</title></circle>
	<circle cx="238.00" cy="269.82" data-y="0.424504076" data-x="2030" r="4" fill="#4BACC6"><title>2030: 0.424504076</title></circle>
	<circle cx="256.67" cy="269.60" data-y="0.951395745" data-x="2031" r="4" fill="#4BACC6"><title>2031: 0.951395745</title></circle>
	<circle cx="275.33" cy="269.22" data-y="1.839858871" data-x="2032" r="4" fill="#4BACC6"><title>2032: 1.839858871</title></circle>
	<circle cx="294.00" cy="268.71" data-y="3.058117336" data-x="2033" r="4" fill="#4BACC6"><title>2033: 3.058117336</title></circle>
	<circle cx="312.67" cy="268.07" data-y="4.562311338" data-x="2034" r="4" fill="#4BACC6"><title>2034: 4.562311338</title></circle>
	<circle cx="331.33" cy="267.60" data-y="5.678149616" data-x="2035" r="4" fill="#4BACC6"><title>2035: 5.678149616</title></circle>
	<circle cx="350.00" cy="267.01" data-y="7.06511481" data-x="2036" r="4" fill="#4BACC6"><title>2036: 7.06511481</title></circle>
	<circle cx="368.67" cy="266.43" data-y="8.445586965" data-x="2037" r="4" fill="#4BACC6"><title>2037: 8.445586965</title></circle>
	<circle cx="387.33" cy="265.89" data-y="9.714584031" data-x="2038" r="4" fill="#4BACC6"><title>2038: 9.714584031</title></circle>
	<circle cx="406.00" cy="265.41" data-y="10.84977326" data-x="2039" r="4" fill="#4BACC6"><title>2039: 10.84977326</title></circle>
	<circle cx="424.67" cy="264.95" data-y="11.92517287" data-x="2040" r="4" fill="#4BACC6"><title>2040: 11.92517287</title></circle>
	<circle cx="443.33" cy="264.63" data-y="12.69693608" data-x="2041" r="4" fill="#4BACC6"><title>2041: 12.69693608</title></circle>
	<circle cx="462.00" cy="264.43" data-y="13.15832224" data-x="2042" r="4" fill="#4BACC6"><title>2042: 13.15832224</title></circle>
	<circle cx="480.67" cy="264.34" data-y="13.37366598" data-x="2043" r="4" fill="#4BACC6"><title>2043: 13.37366598</title></circle>
	<circle cx="499.33" cy="264.33" data-y="13.39245849" data-x="2044" r="4" fill="#4BACC6"><title>2044: 13.39245849</title></circle>
	<circle cx="518.00" cy="264.39" data-y="13.26772675" data-x="2045" r="4" fill="#4BACC6"><title>2045: 13.26772675</title></circle>
	<circle cx="536.67" cy="264.50" data-y="12.99508948" data-x="2046" r="4" fill="#4BACC6"><title>2046: 12.99508948</title></circle>
	<circle cx="555.33" cy="264.62" data-y="12.7263799" data-x="2047" r="4" fill="#4BACC6"><title>2047: 12.7263799</title></circle>
	<circle cx="574.00" cy="264.72" data-y="12.46875204" data-x="2048" r="4" fill="#4BACC6"><title>2048: 12.46875204</title></circle>
	<circle cx="592.67" cy="264.81" data-y="12.2605963" data-x="2049" r="4" fill="#4BACC6"><title>2049: 12.2605963</title></circle>
	<circle cx="611.33" cy="264.88" data-y="12.11122672" data-x="2050" r="4" fill="#4BACC6"><title>2050: 12.11122672</title></circle>
</g>
<g data-scenario="large-industry-fuel-switching" class="data-series">	<path d="M 70.00,264.01L 88.67,258.01L 107.33,252.02L 126.00,246.02L 144.67,240.03L 163.33,229.74L 182.00,219.44L 200.67,209.15L 219.33,198.86L 238.00,188.56L 256.67,179.49L 275.33,170.42L 294.00,161.34L 312.67,152.27L 331.33,143.19L 350.00,132.41L 368.67,121.63L 387.33,110.85L 406.00,100.07L 424.67,89.29L 443.33,73.44L 462.00,57.58L 480.67,41.72L 499.33,25.86L 518.00,10.00L 536.67,10.00L 555.33,10.00L 574.00,10.00L 592.67,10.00L 611.33,10.00" id="Large industry Fuel Switching" class="line" stroke="#808080" stroke-width="3" stroke-linecap="round"><title>Large industry Fuel Switching</title></path>
	<circle cx="70.00" cy="264.01" data-y="14.16801382" data-x="2021" r="4" fill="#808080"><title>2021: 14.16801382</title></circle>
	<circle cx="88.67" cy="258.01" data-y="28.33602763" data-x="2022" r="4" fill="#808080"><title>2022: 28.33602763</title></circle>
	<circle cx="107.33" cy="252.02" data-y="42.50404145" data-x="2023" r="4" fill="#808080"><title>2023: 42.50404145</title></circle>
	<circle cx="126.00" cy="246.02" data-y="56.67205527" data-x="2024" r="4" fill="#808080"><title>2024: 56.67205527</title></circle>
	<circle cx="144.67" cy="240.03" data-y="70.84006909" data-x="2025" r="4" fill="#808080"><title>2025: 70.84006909</title></circle>
	<circle cx="163.33" cy="229.74" data-y="95.16807558" data-x="2026" r="4" fill="#808080"><title>2026: 95.16807558</title></circle>
	<circle cx="182.00" cy="219.44" data-y="119.4960821" data-x="2027" r="4" fill="#808080"><title>2027: 119.4960821</title></circle>
	<circle cx="200.67" cy="209.15" data-y="143.8240886" data-x="2028" r="4" fill="#808080"><title>2028: 143.8240886</title></circle>
	<circle cx="219.33" cy="198.86" data-y="168.1520951" data-x="2029" r="4" fill="#808080"><title>2029: 168.1520951</title></circle>
	<circle cx="238.00" cy="188.56" data-y="192.4801016" data-x="2030" r="4" fill="#808080"><title>2030: 192.4801016</title></circle>
	<circle cx="256.67" cy="179.49" data-y="213.9288287" data-x="2031" r="4" fill="#808080"><title>2031: 213.9288287</title></circle>
	<circle cx="275.33" cy="170.42" data-y="235.3775559" data-x="2032" r="4" fill="#808080"><title>2032: 235.3775559</title></circle>
	<circle cx="294.00" cy="161.34" data-y="256.8262831" data-x="2033" r="4" fill="#808080"><title>2033: 256.8262831</title></circle>
	<circle cx="312.67" cy="152.27" data-y="278.2750102" data-x="2034" r="4" fill="#808080"><title>2034: 278.2750102</title></circle>
	<circle cx="331.33" cy="143.19" data-y="299.7237374" data-x="2035" r="4" fill="#808080"><title>2035: 299.7237374</title></circle>
	<circle cx="350.00" cy="132.41" data-y="325.2018162" data-x="2036" r="4" fill="#808080"><title>2036: 325.2018162</title></circle>
	<circle cx="368.67" cy="121.63" data-y="350.679895" data-x="2037" r="4" fill="#808080"><title>2037: 350.679895</title></circle>
	<circle cx="387.33" cy="110.85" data-y="376.1579739" data-x="2038" r="4" fill="#808080"><title>2038: 376.1579739</title></circle>
	<circle cx="406.00" cy="100.07" data-y="401.6360527" data-x="2039" r="4" fill="#808080"><title>2039: 401.6360527</title></circle>
	<circle cx="424.67" cy="89.29" data-y="427.1141316" data-x="2040" r="4" fill="#808080"><title>2040: 427.1141316</title></circle>
	<circle cx="443.33" cy="73.44" data-y="464.5982912" data-x="2041" r="4" fill="#808080"><title>2041: 464.5982912</title></circle>
	<circle cx="462.00" cy="57.58" data-y="502.0824508" data-x="2042" r="4" fill="#808080"><title>2042: 502.0824508</title></circle>
	<circle cx="480.67" cy="41.72" data-y="539.5666105" data-x="2043" r="4" fill="#808080"><title>2043: 539.5666105</title></circle>
	<circle cx="499.33" cy="25.86" data-y="577.0507701" data-x="2044" r="4" fill="#808080"><title>2044: 577.0507701</title></circle>
	<circle cx="518.00" cy="10.00" data-y="614.5349297" data-x="2045" r="4" fill="#808080"><title>2045: 614.5349297</title></circle>
	<circle cx="536.67" cy="10.00" data-y="614.5349297" data-x="2046" r="4" fill="#808080"><title>2046: 614.5349297</title></circle>
	<circle cx="555.33" cy="10.00" data-y="614.5349297" data-x="2047" r="4" fill="#808080"><title>2047: 614.5349297</title></circle>
	<circle cx="574.00" cy="10.00" data-y="614.5349297" data-x="2048" r="4" fill="#808080"><title>2048: 614.5349297</title></circle>
	<circle cx="592.67" cy="10.00" data-y="614.5349297" data-x="2049" r="4" fill="#808080"><title>2049: 614.5349297</title></circle>
	<circle cx="611.33" cy="10.00" data-y="614.5349297" data-x="2050" r="4" fill="#808080"><title>2050: 614.5349297</title></circle>
</g>
</svg>
