<svg width="120" height="47" viewBox="0 0 120 47" fill="none" xmlns="http://www.w3.org/2000/svg">
<g clip-path="url(#clip0_836_2735)">
<path d="M69.2112 11.0303V13.7078H57.2086V21.8092H66.933V24.4868H57.2086V33.2613H69.2112V35.9388H53.416V11.0303H69.2112Z" fill="white"/>
<path d="M114.626 11.0303L108.532 22.3822L102.094 11.0303H96.875V35.9388H100.668V15.97L108.611 29.6415L116.21 15.97V35.9388H120.001V11.0303H114.626Z" fill="white"/>
<path d="M77.7145 22.1277H82.4742C86.0849 22.1277 87.9928 20.4336 87.9928 17.7413C87.9928 15.6383 85.9741 13.7029 82.8263 13.7029H77.7145V22.1294V22.1277ZM77.7145 24.2225V35.9388H73.9004V11.0303L83.6298 11.0483C88.535 11.0303 91.8068 13.6569 91.8068 17.4917C91.8068 21.8109 88.8144 23.9696 84.3605 24.2454C87.5794 26.8885 90.3272 30.9302 93.0931 35.9404H88.2738C85.1161 30.1241 81.9964 24.2257 77.7359 24.2257H77.7145V24.2225Z" fill="white"/>
<path d="M17.3972 22.6661L0.266174 19.9606L0.322385 19.6077L17.4534 22.3131L17.3972 22.6661ZM26.8092 0.196996L26.1545 0.119839L24.9228 10.3932C25.156 10.2487 25.394 10.1092 25.6354 9.97621L26.8076 0.196996H26.8092ZM23.4895 11.3995L23.0348 0L22.4066 0.0246245L22.8794 11.9051C23.0778 11.7311 23.2812 11.562 23.4878 11.3995H23.4895ZM17.7113 21.3692L1.21184 16.0552L1.09115 16.4229L17.5907 21.7369L17.7113 21.3692ZM24.6137 36.3967L25.8718 46.9015L27.0886 46.757L25.9396 37.1732C25.4833 36.9351 25.0402 36.6758 24.612 36.3967H24.6137ZM23.215 29.7628L22.5835 29.689L22.033 34.2855C21.742 33.99 21.4642 33.6831 21.1981 33.3662L22.2595 29.6266L21.6213 29.4476L20.6889 32.7276C20.502 32.4797 20.3235 32.2286 20.1516 31.9692L21.3568 29.3524L20.7285 29.0668L19.7151 31.2699C19.5977 31.0712 19.4853 30.8709 19.3778 30.6657L20.512 28.9486L19.9118 28.5579L19.0125 29.9204C18.9414 29.7661 18.8736 29.6102 18.8075 29.4542L19.7366 28.4233L19.1794 27.9291L18.5033 28.6794C18.4619 28.5644 18.4222 28.4479 18.3826 28.333L19.0406 27.7912L18.5462 27.2002L18.1395 27.5351C18.118 27.4531 18.0966 27.371 18.0751 27.2889L18.4487 27.0656L18.0354 26.3844L17.8915 26.4697C17.8816 26.4155 17.8701 26.3614 17.8601 26.3072L17.9726 26.2612L17.7692 25.772C17.7924 25.9296 17.4997 24.9775 17.4997 24.9775L17.3443 24.004V22.7219H0V24.265H14.0444L0.175245 26.4566L0.414968 27.9521L14.1486 25.7819L0.920864 30.0419L1.38212 31.4537L14.6346 27.1855L2.19387 33.4122L2.85352 34.7107L15.41 28.4265L3.94632 36.5116L4.77791 37.6739L16.3887 29.4854L6.13358 39.2958L7.109 40.3005L17.508 30.3522L8.71266 41.7238L9.80381 42.5561L18.7264 31.0203L11.6439 43.7512L12.821 44.398L19.9284 31.6228L19.9465 31.6524L14.8826 45.3337L16.1176 45.7852L20.8641 32.9607C20.8509 32.9427 21.0608 33.207 21.0443 33.1873L18.3859 46.4189L19.6473 46.6684L22.1173 34.3758C22.0958 34.3545 22.5785 34.8174 22.5736 34.8141L22.0892 46.9557L23.344 47.0049L23.7887 35.827C23.3771 35.5184 22.9819 35.1901 22.6033 34.8421L23.2117 29.7661L23.215 29.7628ZM23.6217 29.7776L23.8648 35.8779C24.0698 36.029 24.2781 36.1751 24.4897 36.3179L24.2285 29.7546L23.6217 29.7793V29.7776ZM34.2571 8.09818L36.9404 4.03185L36.3138 3.62473L33.3859 8.06043C33.6785 8.06535 33.9678 8.07684 34.2555 8.09654L34.2571 8.09818ZM42.1481 8.80901L41.6323 8.19176L39.9228 9.60028C40.1857 9.72669 40.4453 9.8613 40.6999 10.0025L42.1481 8.81065V8.80901ZM44.1618 11.7295L43.7286 11.017L42.9268 11.4964C43.155 11.6802 43.3798 11.8707 43.598 12.066L44.1618 11.7278V11.7295ZM37.5223 8.67932L39.7278 6.23L39.1475 5.71453L36.6759 8.45934C36.9602 8.52501 37.2429 8.59888 37.5207 8.67932H37.5223ZM30.4298 0.966923L29.7669 0.781418L27.3895 9.15211C27.6524 9.04869 27.9186 8.95019 28.188 8.8599L30.4298 0.966923ZM31.0945 8.19176L33.824 2.26217L33.1709 1.96504L30.2414 8.32801C30.5224 8.27548 30.8068 8.22952 31.0945 8.19176ZM28.0558 28.0145L38.4862 37.994C38.6482 37.9349 38.8086 37.8725 38.9673 37.8085L28.3798 27.6796L28.0541 28.0145H28.0558ZM29.6214 25.6161L46.1209 30.93L46.2399 30.5656L29.7404 25.2516L29.6214 25.6161ZM42.8392 35.5594L43.6741 36.0585L44.2147 35.1687L43.6757 34.847C43.4063 35.0949 43.1269 35.3313 42.8392 35.5594ZM33.1561 38.9281L36.1518 43.4672L37.1024 42.8483L34.477 38.8706C34.0406 38.9067 33.6008 38.9264 33.1561 38.9281ZM36.4923 38.5686L39.0251 41.3807L39.8501 40.6485L37.6959 38.255C37.3008 38.3749 36.9007 38.4783 36.4923 38.5669V38.5686ZM42.0308 36.1603L28.9568 26.9392L28.7022 27.2971L41.6422 36.4229C41.7745 36.3376 41.9035 36.2506 42.0324 36.1603H42.0308ZM47.3344 22.7645V24.2223H29.9884V22.9845L29.833 22.0127L29.5371 21.1049L29.1072 20.2578L28.5551 19.4846L27.8904 18.8L27.1316 18.2221L26.2967 17.7641L25.3973 17.4358L24.4351 17.2454L23.4118 17.206L22.4165 17.3242L21.4857 17.5852L20.6161 17.9792L19.8176 18.4979L19.1034 19.1316L18.4933 19.8621L18.0007 20.6747L17.7742 21.2198C17.799 21.049 17.8453 20.788 17.8386 20.8258L2.43029 13.1117L2.61876 12.7391L17.9163 20.394C17.9048 20.4515 18.0536 19.7915 18.047 19.8178L4.23234 10.078L4.4919 9.71355L18.166 19.3582C18.1561 19.3943 18.3594 18.7196 18.3512 18.7442L6.45597 7.36109L6.78827 7.01799L18.5247 18.2451C18.5099 18.2862 18.7992 17.5442 18.786 17.5786L9.05654 5.0037L9.45994 4.69508L19.0174 17.0517C19.0108 17.0664 19.2456 16.5739 19.3811 16.3179L11.996 3.04523L12.4672 2.78585L19.6886 15.7646C19.6622 15.8089 20.2094 14.934 20.2011 14.9471L15.2364 1.53L15.7704 1.33465L20.5996 14.384C20.5913 14.3955 21.0675 13.7733 21.332 13.4647C21.332 13.4647 21.332 13.4663 21.3303 13.468L18.7248 0.507265L19.3117 0.390709L21.828 12.9147C21.828 12.9147 22.4843 12.2532 22.8464 11.9347L23.3671 16.2834L23.5639 11.3404C23.9573 11.0334 24.3657 10.7461 24.7889 10.4786L24.5691 15.983L25.7925 9.89413C26.2372 9.6561 26.6951 9.4394 27.1647 9.24569L25.8487 15.7975L28.4459 8.77946C28.9254 8.62843 29.4164 8.50038 29.9157 8.39532L27.1184 15.9534L31.4598 8.15072C31.9542 8.09818 32.4567 8.06863 32.9643 8.06207L28.3385 16.3753L34.7118 8.13758C35.2094 8.18683 35.7004 8.26071 36.1832 8.35592L29.4858 17.0139L38.0299 8.8402C38.4961 8.99288 38.9524 9.16853 39.3988 9.36224L30.5423 17.8347L41.2207 10.3045C41.634 10.5541 42.0357 10.8233 42.4226 11.1089L31.4697 18.8345L44.0791 12.524C44.4197 12.8589 44.7454 13.2102 45.0546 13.5747L32.2038 20.005L45.9638 15.5742L46.4003 16.9072L32.6634 21.3314L46.926 19.0791L47.1525 20.4909L32.7444 22.7662H47.3327L47.3344 22.7645ZM18.7066 18.7573L18.4487 18.4717C18.4421 18.4914 18.4355 18.5094 18.4289 18.5291L18.7066 18.7573ZM19.3629 17.9201L18.9281 17.2601C18.91 17.2995 18.8934 17.3389 18.8769 17.3783L19.3646 17.9201H19.3629ZM20.1631 17.1764L19.5927 15.9386C19.5547 16.0059 19.5167 16.0732 19.4803 16.1422L20.1631 17.1764ZM21.1137 16.5969L20.5186 14.5006C20.4425 14.6056 20.3681 14.7107 20.2954 14.8174L21.1154 16.5969H21.1137ZM22.2016 16.2735L21.8032 12.9476C21.661 13.0986 21.5238 13.2513 21.3882 13.4072L22.2032 16.2752L22.2016 16.2735ZM29.8843 24.6738L47.0153 27.3792L47.0715 27.0279L29.9405 24.3225L29.8843 24.6738ZM29.2312 26.4927L44.4412 34.105C44.5404 34.0015 44.6363 33.8965 44.7322 33.7914L29.4181 26.1266L29.2312 26.4927ZM39.7939 37.4523L41.5513 38.9002L42.2391 38.0777L40.8305 36.9187C40.4932 37.1092 40.146 37.2881 39.7939 37.4539V37.4523ZM25.5924 29.4838L28.8692 38.3355C29.0841 38.3962 29.3007 38.452 29.5206 38.5045L26.1115 29.295L25.5941 29.4838H25.5924ZM29.9769 38.6063L32.9726 45.1138L34.034 44.6328L31.3606 38.8263C30.8928 38.7738 30.4315 38.6999 29.9769 38.6063ZM27.3151 28.6285L35.1813 38.7984C35.3698 38.7738 35.5566 38.7459 35.7434 38.7147L27.7102 28.328L27.3168 28.6285H27.3151ZM26.4868 29.1226L31.9161 38.8805C32.1211 38.8969 32.3278 38.9084 32.5344 38.915L26.9448 28.8698L26.4852 29.121L26.4868 29.1226ZM24.6385 29.7054L26.1611 37.2848C26.3761 37.3932 26.5943 37.4949 26.8142 37.5934L25.2072 29.5938L24.6385 29.707V29.7054ZM27.0952 37.7149L29.5272 46.2744L30.6778 45.9526L28.4823 38.2205C28.0095 38.0728 27.5466 37.9037 27.0952 37.7149Z" fill="#ffffff"/>
</g>
<defs>
<clipPath id="clip0_836_2735">
<rect width="120" height="47" fill="white"/>
</clipPath>
</defs>
</svg>
