<svg width="640" height="320" viewBox="0 0 640 320" xmlns="http://www.w3.org/2000/svg" style="overflow:display" preserveAspectRatio="xMinYMin meet" overflow="visible">
<defs>
	<style>
	.data-series path.line { fill-opacity: 0; }
	.data-series path.line.dotted { stroke-dasharray: 12 20 }
	.data-series circle { display: none; }
	.data-series:hover path.line, .data-series.on path.line { stroke-width: 5; }
	.data-series:hover circle, .data-series.on circle { display: inline; }
	.data-series circle:hover, .data-series circle.on { r: 6px!important; fill: black; }
	.grid { font-family: "Helvetica Neue",Helvetica,Arial,"Lucida Grande",sans-serif; }
	.grid line { stroke: rgb(0,0,0); stroke-width: 2; stroke-linecap: round; }
	.grid.grid-x text { text-anchor: middle; dominant-baseline: hanging; transform: translateY(10px); }
	.grid.grid-y text { text-anchor: end; dominant-baseline: middle; transform: translateX(-10px); }
	</style>
</defs>
<g class="grid grid-y">
	<line x1="70" y1="270" x2="630" y2="270" data-left="70"></line>
	<text x="70" y="270" text-anchor="end">0</text>
	<text x="70" y="161.576313594662" text-anchor="end">1</text>
	<text x="70" y="53.1526271893245" text-anchor="end">2</text>
	<text style="text-anchor:middle;dominant-baseline:hanging;font-weight:bold;transform: translateY(140px) rotate(-90deg);">Installed capacity (GW)</text>
</g>
<g class="grid grid-x">
	<line class="tick" x1="87.5" y1="270" x2="87.5" y2="275"></line>
	<text x="87.5" y="270" text-anchor="middle">2020</text>
	<line class="tick" x1="262.5" y1="270" x2="262.5" y2="275"></line>
	<text x="262.5" y="270" text-anchor="middle">2030</text>
	<line class="tick" x1="437.5" y1="270" x2="437.5" y2="275"></line>
	<text x="437.5" y="270" text-anchor="middle">2040</text>
	<line class="tick" x1="612.5" y1="270" x2="612.5" y2="275"></line>
	<text x="612.5" y="270" text-anchor="middle">2050</text>
	<text style="text-anchor:middle;dominant-baseline:hanging;font-weight:bold;transform: translateY(140px) rotate(-90deg);"></text>
</g>
<g data-scenario="consumer-transformation" class="data-series">	<path d="M 70.00,251.57L 87.50,251.35L 105.00,239.42L 122.50,227.39L 140.00,215.25L 157.50,214.27L 175.00,212.86L 192.50,204.95L 210.00,202.78L 227.50,200.28L 245.00,198.01L 262.50,189.33L 280.00,186.41L 297.50,172.85L 315.00,168.73L 332.50,164.61L 350.00,151.71L 367.50,146.72L 385.00,137.18L 402.50,126.88L 420.00,107.91L 437.50,98.47L 455.00,84.92L 472.50,73.64L 490.00,67.68L 507.50,61.72L 525.00,55.54L 542.50,44.48L 560.00,37.86L 577.50,30.93L 595.00,18.46L 612.50,11.08" id="Consumer transformation" class="line" stroke="#FFBF22" stroke-width="3" stroke-linecap="round"><title>Consumer transformation</title></path>
	<circle cx="70.00" cy="251.57" data-y="0.170" data-x="2019" r="4" fill="#FFBF22"><title>2019: 0.170</title></circle>
	<circle cx="87.50" cy="251.35" data-y="0.172" data-x="2020" r="4" fill="#FFBF22"><title>2020: 0.172</title></circle>
	<circle cx="105.00" cy="239.42" data-y="0.282" data-x="2021" r="4" fill="#FFBF22"><title>2021: 0.282</title></circle>
	<circle cx="122.50" cy="227.39" data-y="0.393" data-x="2022" r="4" fill="#FFBF22"><title>2022: 0.393</title></circle>
	<circle cx="140.00" cy="215.25" data-y="0.505" data-x="2023" r="4" fill="#FFBF22"><title>2023: 0.505</title></circle>
	<circle cx="157.50" cy="214.27" data-y="0.514" data-x="2024" r="4" fill="#FFBF22"><title>2024: 0.514</title></circle>
	<circle cx="175.00" cy="212.86" data-y="0.527" data-x="2025" r="4" fill="#FFBF22"><title>2025: 0.527</title></circle>
	<circle cx="192.50" cy="204.95" data-y="0.600" data-x="2026" r="4" fill="#FFBF22"><title>2026: 0.600</title></circle>
	<circle cx="210.00" cy="202.78" data-y="0.620" data-x="2027" r="4" fill="#FFBF22"><title>2027: 0.620</title></circle>
	<circle cx="227.50" cy="200.28" data-y="0.643" data-x="2028" r="4" fill="#FFBF22"><title>2028: 0.643</title></circle>
	<circle cx="245.00" cy="198.01" data-y="0.664" data-x="2029" r="4" fill="#FFBF22"><title>2029: 0.664</title></circle>
	<circle cx="262.50" cy="189.33" data-y="0.744" data-x="2030" r="4" fill="#FFBF22"><title>2030: 0.744</title></circle>
	<circle cx="280.00" cy="186.41" data-y="0.771" data-x="2031" r="4" fill="#FFBF22"><title>2031: 0.771</title></circle>
	<circle cx="297.50" cy="172.85" data-y="0.896" data-x="2032" r="4" fill="#FFBF22"><title>2032: 0.896</title></circle>
	<circle cx="315.00" cy="168.73" data-y="0.934" data-x="2033" r="4" fill="#FFBF22"><title>2033: 0.934</title></circle>
	<circle cx="332.50" cy="164.61" data-y="0.972" data-x="2034" r="4" fill="#FFBF22"><title>2034: 0.972</title></circle>
	<circle cx="350.00" cy="151.71" data-y="1.091" data-x="2035" r="4" fill="#FFBF22"><title>2035: 1.091</title></circle>
	<circle cx="367.50" cy="146.72" data-y="1.137" data-x="2036" r="4" fill="#FFBF22"><title>2036: 1.137</title></circle>
	<circle cx="385.00" cy="137.18" data-y="1.225" data-x="2037" r="4" fill="#FFBF22"><title>2037: 1.225</title></circle>
	<circle cx="402.50" cy="126.88" data-y="1.320" data-x="2038" r="4" fill="#FFBF22"><title>2038: 1.320</title></circle>
	<circle cx="420.00" cy="107.91" data-y="1.495" data-x="2039" r="4" fill="#FFBF22"><title>2039: 1.495</title></circle>
	<circle cx="437.50" cy="98.47" data-y="1.582" data-x="2040" r="4" fill="#FFBF22"><title>2040: 1.582</title></circle>
	<circle cx="455.00" cy="84.92" data-y="1.707" data-x="2041" r="4" fill="#FFBF22"><title>2041: 1.707</title></circle>
	<circle cx="472.50" cy="73.64" data-y="1.811" data-x="2042" r="4" fill="#FFBF22"><title>2042: 1.811</title></circle>
	<circle cx="490.00" cy="67.68" data-y="1.866" data-x="2043" r="4" fill="#FFBF22"><title>2043: 1.866</title></circle>
	<circle cx="507.50" cy="61.72" data-y="1.921" data-x="2044" r="4" fill="#FFBF22"><title>2044: 1.921</title></circle>
	<circle cx="525.00" cy="55.54" data-y="1.978" data-x="2045" r="4" fill="#FFBF22"><title>2045: 1.978</title></circle>
	<circle cx="542.50" cy="44.48" data-y="2.080" data-x="2046" r="4" fill="#FFBF22"><title>2046: 2.080</title></circle>
	<circle cx="560.00" cy="37.86" data-y="2.141" data-x="2047" r="4" fill="#FFBF22"><title>2047: 2.141</title></circle>
	<circle cx="577.50" cy="30.93" data-y="2.205" data-x="2048" r="4" fill="#FFBF22"><title>2048: 2.205</title></circle>
	<circle cx="595.00" cy="18.46" data-y="2.320" data-x="2049" r="4" fill="#FFBF22"><title>2049: 2.320</title></circle>
	<circle cx="612.50" cy="11.08" data-y="2.388" data-x="2050" r="4" fill="#FFBF22"><title>2050: 2.388</title></circle>
</g>
<g data-scenario="system-transformation" class="data-series">	<path d="M 70.00,251.57L 87.50,251.35L 105.00,244.52L 122.50,237.69L 140.00,230.86L 157.50,230.53L 175.00,230.10L 192.50,226.09L 210.00,225.55L 227.50,224.79L 245.00,224.14L 262.50,223.27L 280.00,222.51L 297.50,221.64L 315.00,220.45L 332.50,211.78L 350.00,205.27L 367.50,203.32L 385.00,197.68L 402.50,196.06L 420.00,189.55L 437.50,182.83L 455.00,181.20L 472.50,171.33L 490.00,169.82L 507.50,164.07L 525.00,162.55L 542.50,160.93L 560.00,159.30L 577.50,157.56L 595.00,155.83L 612.50,153.99" id="System transformation" class="line" stroke="#5BCBF5" stroke-width="3" stroke-linecap="round"><title>System transformation</title></path>
	<circle cx="70.00" cy="251.57" data-y="0.170" data-x="2019" r="4" fill="#5BCBF5"><title>2019: 0.170</title></circle>
	<circle cx="87.50" cy="251.35" data-y="0.172" data-x="2020" r="4" fill="#5BCBF5"><title>2020: 0.172</title></circle>
	<circle cx="105.00" cy="244.52" data-y="0.235" data-x="2021" r="4" fill="#5BCBF5"><title>2021: 0.235</title></circle>
	<circle cx="122.50" cy="237.69" data-y="0.298" data-x="2022" r="4" fill="#5BCBF5"><title>2022: 0.298</title></circle>
	<circle cx="140.00" cy="230.86" data-y="0.361" data-x="2023" r="4" fill="#5BCBF5"><title>2023: 0.361</title></circle>
	<circle cx="157.50" cy="230.53" data-y="0.364" data-x="2024" r="4" fill="#5BCBF5"><title>2024: 0.364</title></circle>
	<circle cx="175.00" cy="230.10" data-y="0.368" data-x="2025" r="4" fill="#5BCBF5"><title>2025: 0.368</title></circle>
	<circle cx="192.50" cy="226.09" data-y="0.405" data-x="2026" r="4" fill="#5BCBF5"><title>2026: 0.405</title></circle>
	<circle cx="210.00" cy="225.55" data-y="0.410" data-x="2027" r="4" fill="#5BCBF5"><title>2027: 0.410</title></circle>
	<circle cx="227.50" cy="224.79" data-y="0.417" data-x="2028" r="4" fill="#5BCBF5"><title>2028: 0.417</title></circle>
	<circle cx="245.00" cy="224.14" data-y="0.423" data-x="2029" r="4" fill="#5BCBF5"><title>2029: 0.423</title></circle>
	<circle cx="262.50" cy="223.27" data-y="0.431" data-x="2030" r="4" fill="#5BCBF5"><title>2030: 0.431</title></circle>
	<circle cx="280.00" cy="222.51" data-y="0.438" data-x="2031" r="4" fill="#5BCBF5"><title>2031: 0.438</title></circle>
	<circle cx="297.50" cy="221.64" data-y="0.446" data-x="2032" r="4" fill="#5BCBF5"><title>2032: 0.446</title></circle>
	<circle cx="315.00" cy="220.45" data-y="0.457" data-x="2033" r="4" fill="#5BCBF5"><title>2033: 0.457</title></circle>
	<circle cx="332.50" cy="211.78" data-y="0.537" data-x="2034" r="4" fill="#5BCBF5"><title>2034: 0.537</title></circle>
	<circle cx="350.00" cy="205.27" data-y="0.597" data-x="2035" r="4" fill="#5BCBF5"><title>2035: 0.597</title></circle>
	<circle cx="367.50" cy="203.32" data-y="0.615" data-x="2036" r="4" fill="#5BCBF5"><title>2036: 0.615</title></circle>
	<circle cx="385.00" cy="197.68" data-y="0.667" data-x="2037" r="4" fill="#5BCBF5"><title>2037: 0.667</title></circle>
	<circle cx="402.50" cy="196.06" data-y="0.682" data-x="2038" r="4" fill="#5BCBF5"><title>2038: 0.682</title></circle>
	<circle cx="420.00" cy="189.55" data-y="0.742" data-x="2039" r="4" fill="#5BCBF5"><title>2039: 0.742</title></circle>
	<circle cx="437.50" cy="182.83" data-y="0.804" data-x="2040" r="4" fill="#5BCBF5"><title>2040: 0.804</title></circle>
	<circle cx="455.00" cy="181.20" data-y="0.819" data-x="2041" r="4" fill="#5BCBF5"><title>2041: 0.819</title></circle>
	<circle cx="472.50" cy="171.33" data-y="0.910" data-x="2042" r="4" fill="#5BCBF5"><title>2042: 0.910</title></circle>
	<circle cx="490.00" cy="169.82" data-y="0.924" data-x="2043" r="4" fill="#5BCBF5"><title>2043: 0.924</title></circle>
	<circle cx="507.50" cy="164.07" data-y="0.977" data-x="2044" r="4" fill="#5BCBF5"><title>2044: 0.977</title></circle>
	<circle cx="525.00" cy="162.55" data-y="0.991" data-x="2045" r="4" fill="#5BCBF5"><title>2045: 0.991</title></circle>
	<circle cx="542.50" cy="160.93" data-y="1.006" data-x="2046" r="4" fill="#5BCBF5"><title>2046: 1.006</title></circle>
	<circle cx="560.00" cy="159.30" data-y="1.021" data-x="2047" r="4" fill="#5BCBF5"><title>2047: 1.021</title></circle>
	<circle cx="577.50" cy="157.56" data-y="1.037" data-x="2048" r="4" fill="#5BCBF5"><title>2048: 1.037</title></circle>
	<circle cx="595.00" cy="155.83" data-y="1.053" data-x="2049" r="4" fill="#5BCBF5"><title>2049: 1.053</title></circle>
	<circle cx="612.50" cy="153.99" data-y="1.070" data-x="2050" r="4" fill="#5BCBF5"><title>2050: 1.070</title></circle>
</g>
<g data-scenario="steady-progression" class="data-series">	<path d="M 70.00,251.57L 87.50,251.35L 105.00,249.51L 122.50,247.66L 140.00,245.82L 157.50,243.11L 175.00,242.68L 192.50,240.51L 210.00,232.38L 227.50,231.73L 245.00,231.29L 262.50,230.64L 280.00,229.99L 297.50,224.79L 315.00,198.22L 332.50,197.36L 350.00,186.51L 367.50,185.43L 385.00,184.24L 402.50,178.82L 420.00,177.73L 437.50,176.86L 455.00,175.89L 472.50,175.13L 490.00,174.37L 507.50,173.61L 525.00,172.85L 542.50,167.65L 560.00,166.89L 577.50,166.13L 595.00,161.36L 612.50,160.60" id="Steady progression" class="line" stroke="#827B7A" stroke-width="3" stroke-linecap="round"><title>Steady progression</title></path>
	<circle cx="70.00" cy="251.57" data-y="0.170" data-x="2019" r="4" fill="#827B7A"><title>2019: 0.170</title></circle>
	<circle cx="87.50" cy="251.35" data-y="0.172" data-x="2020" r="4" fill="#827B7A"><title>2020: 0.172</title></circle>
	<circle cx="105.00" cy="249.51" data-y="0.189" data-x="2021" r="4" fill="#827B7A"><title>2021: 0.189</title></circle>
	<circle cx="122.50" cy="247.66" data-y="0.206" data-x="2022" r="4" fill="#827B7A"><title>2022: 0.206</title></circle>
	<circle cx="140.00" cy="245.82" data-y="0.223" data-x="2023" r="4" fill="#827B7A"><title>2023: 0.223</title></circle>
	<circle cx="157.50" cy="243.11" data-y="0.248" data-x="2024" r="4" fill="#827B7A"><title>2024: 0.248</title></circle>
	<circle cx="175.00" cy="242.68" data-y="0.252" data-x="2025" r="4" fill="#827B7A"><title>2025: 0.252</title></circle>
	<circle cx="192.50" cy="240.51" data-y="0.272" data-x="2026" r="4" fill="#827B7A"><title>2026: 0.272</title></circle>
	<circle cx="210.00" cy="232.38" data-y="0.347" data-x="2027" r="4" fill="#827B7A"><title>2027: 0.347</title></circle>
	<circle cx="227.50" cy="231.73" data-y="0.353" data-x="2028" r="4" fill="#827B7A"><title>2028: 0.353</title></circle>
	<circle cx="245.00" cy="231.29" data-y="0.357" data-x="2029" r="4" fill="#827B7A"><title>2029: 0.357</title></circle>
	<circle cx="262.50" cy="230.64" data-y="0.363" data-x="2030" r="4" fill="#827B7A"><title>2030: 0.363</title></circle>
	<circle cx="280.00" cy="229.99" data-y="0.369" data-x="2031" r="4" fill="#827B7A"><title>2031: 0.369</title></circle>
	<circle cx="297.50" cy="224.79" data-y="0.417" data-x="2032" r="4" fill="#827B7A"><title>2032: 0.417</title></circle>
	<circle cx="315.00" cy="198.22" data-y="0.662" data-x="2033" r="4" fill="#827B7A"><title>2033: 0.662</title></circle>
	<circle cx="332.50" cy="197.36" data-y="0.670" data-x="2034" r="4" fill="#827B7A"><title>2034: 0.670</title></circle>
	<circle cx="350.00" cy="186.51" data-y="0.770" data-x="2035" r="4" fill="#827B7A"><title>2035: 0.770</title></circle>
	<circle cx="367.50" cy="185.43" data-y="0.780" data-x="2036" r="4" fill="#827B7A"><title>2036: 0.780</title></circle>
	<circle cx="385.00" cy="184.24" data-y="0.791" data-x="2037" r="4" fill="#827B7A"><title>2037: 0.791</title></circle>
	<circle cx="402.50" cy="178.82" data-y="0.841" data-x="2038" r="4" fill="#827B7A"><title>2038: 0.841</title></circle>
	<circle cx="420.00" cy="177.73" data-y="0.851" data-x="2039" r="4" fill="#827B7A"><title>2039: 0.851</title></circle>
	<circle cx="437.50" cy="176.86" data-y="0.859" data-x="2040" r="4" fill="#827B7A"><title>2040: 0.859</title></circle>
	<circle cx="455.00" cy="175.89" data-y="0.868" data-x="2041" r="4" fill="#827B7A"><title>2041: 0.868</title></circle>
	<circle cx="472.50" cy="175.13" data-y="0.875" data-x="2042" r="4" fill="#827B7A"><title>2042: 0.875</title></circle>
	<circle cx="490.00" cy="174.37" data-y="0.882" data-x="2043" r="4" fill="#827B7A"><title>2043: 0.882</title></circle>
	<circle cx="507.50" cy="173.61" data-y="0.889" data-x="2044" r="4" fill="#827B7A"><title>2044: 0.889</title></circle>
	<circle cx="525.00" cy="172.85" data-y="0.896" data-x="2045" r="4" fill="#827B7A"><title>2045: 0.896</title></circle>
	<circle cx="542.50" cy="167.65" data-y="0.944" data-x="2046" r="4" fill="#827B7A"><title>2046: 0.944</title></circle>
	<circle cx="560.00" cy="166.89" data-y="0.951" data-x="2047" r="4" fill="#827B7A"><title>2047: 0.951</title></circle>
	<circle cx="577.50" cy="166.13" data-y="0.958" data-x="2048" r="4" fill="#827B7A"><title>2048: 0.958</title></circle>
	<circle cx="595.00" cy="161.36" data-y="1.002" data-x="2049" r="4" fill="#827B7A"><title>2049: 1.002</title></circle>
	<circle cx="612.50" cy="160.60" data-y="1.009" data-x="2050" r="4" fill="#827B7A"><title>2050: 1.009</title></circle>
</g>
<g data-scenario="leading-the-way" class="data-series">	<path d="M 70.00,251.57L 87.50,251.35L 105.00,244.30L 122.50,237.15L 140.00,229.88L 157.50,228.80L 175.00,227.39L 192.50,221.86L 210.00,212.54L 227.50,209.72L 245.00,207.11L 262.50,204.19L 280.00,200.83L 297.50,186.30L 315.00,151.60L 332.50,147.05L 350.00,137.61L 367.50,132.19L 385.00,126.34L 402.50,112.14L 420.00,103.35L 437.50,97.17L 455.00,90.45L 472.50,81.13L 490.00,74.30L 507.50,67.25L 525.00,60.09L 542.50,48.27L 560.00,40.47L 577.50,32.44L 595.00,18.78L 612.50,10.00" id="Leading the way" class="line" stroke="#C2CD23" stroke-width="3" stroke-linecap="round"><title>Leading the way</title></path>
	<circle cx="70.00" cy="251.57" data-y="0.170" data-x="2019" r="4" fill="#C2CD23"><title>2019: 0.170</title></circle>
	<circle cx="87.50" cy="251.35" data-y="0.172" data-x="2020" r="4" fill="#C2CD23"><title>2020: 0.172</title></circle>
	<circle cx="105.00" cy="244.30" data-y="0.237" data-x="2021" r="4" fill="#C2CD23"><title>2021: 0.237</title></circle>
	<circle cx="122.50" cy="237.15" data-y="0.303" data-x="2022" r="4" fill="#C2CD23"><title>2022: 0.303</title></circle>
	<circle cx="140.00" cy="229.88" data-y="0.370" data-x="2023" r="4" fill="#C2CD23"><title>2023: 0.370</title></circle>
	<circle cx="157.50" cy="228.80" data-y="0.380" data-x="2024" r="4" fill="#C2CD23"><title>2024: 0.380</title></circle>
	<circle cx="175.00" cy="227.39" data-y="0.393" data-x="2025" r="4" fill="#C2CD23"><title>2025: 0.393</title></circle>
	<circle cx="192.50" cy="221.86" data-y="0.444" data-x="2026" r="4" fill="#C2CD23"><title>2026: 0.444</title></circle>
	<circle cx="210.00" cy="212.54" data-y="0.530" data-x="2027" r="4" fill="#C2CD23"><title>2027: 0.530</title></circle>
	<circle cx="227.50" cy="209.72" data-y="0.556" data-x="2028" r="4" fill="#C2CD23"><title>2028: 0.556</title></circle>
	<circle cx="245.00" cy="207.11" data-y="0.580" data-x="2029" r="4" fill="#C2CD23"><title>2029: 0.580</title></circle>
	<circle cx="262.50" cy="204.19" data-y="0.607" data-x="2030" r="4" fill="#C2CD23"><title>2030: 0.607</title></circle>
	<circle cx="280.00" cy="200.83" data-y="0.638" data-x="2031" r="4" fill="#C2CD23"><title>2031: 0.638</title></circle>
	<circle cx="297.50" cy="186.30" data-y="0.772" data-x="2032" r="4" fill="#C2CD23"><title>2032: 0.772</title></circle>
	<circle cx="315.00" cy="151.60" data-y="1.092" data-x="2033" r="4" fill="#C2CD23"><title>2033: 1.092</title></circle>
	<circle cx="332.50" cy="147.05" data-y="1.134" data-x="2034" r="4" fill="#C2CD23"><title>2034: 1.134</title></circle>
	<circle cx="350.00" cy="137.61" data-y="1.221" data-x="2035" r="4" fill="#C2CD23"><title>2035: 1.221</title></circle>
	<circle cx="367.50" cy="132.19" data-y="1.271" data-x="2036" r="4" fill="#C2CD23"><title>2036: 1.271</title></circle>
	<circle cx="385.00" cy="126.34" data-y="1.325" data-x="2037" r="4" fill="#C2CD23"><title>2037: 1.325</title></circle>
	<circle cx="402.50" cy="112.14" data-y="1.456" data-x="2038" r="4" fill="#C2CD23"><title>2038: 1.456</title></circle>
	<circle cx="420.00" cy="103.35" data-y="1.537" data-x="2039" r="4" fill="#C2CD23"><title>2039: 1.537</title></circle>
	<circle cx="437.50" cy="97.17" data-y="1.594" data-x="2040" r="4" fill="#C2CD23"><title>2040: 1.594</title></circle>
	<circle cx="455.00" cy="90.45" data-y="1.656" data-x="2041" r="4" fill="#C2CD23"><title>2041: 1.656</title></circle>
	<circle cx="472.50" cy="81.13" data-y="1.742" data-x="2042" r="4" fill="#C2CD23"><title>2042: 1.742</title></circle>
	<circle cx="490.00" cy="74.30" data-y="1.805" data-x="2043" r="4" fill="#C2CD23"><title>2043: 1.805</title></circle>
	<circle cx="507.50" cy="67.25" data-y="1.870" data-x="2044" r="4" fill="#C2CD23"><title>2044: 1.870</title></circle>
	<circle cx="525.00" cy="60.09" data-y="1.936" data-x="2045" r="4" fill="#C2CD23"><title>2045: 1.936</title></circle>
	<circle cx="542.50" cy="48.27" data-y="2.045" data-x="2046" r="4" fill="#C2CD23"><title>2046: 2.045</title></circle>
	<circle cx="560.00" cy="40.47" data-y="2.117" data-x="2047" r="4" fill="#C2CD23"><title>2047: 2.117</title></circle>
	<circle cx="577.50" cy="32.44" data-y="2.191" data-x="2048" r="4" fill="#C2CD23"><title>2048: 2.191</title></circle>
	<circle cx="595.00" cy="18.78" data-y="2.317" data-x="2049" r="4" fill="#C2CD23"><title>2049: 2.317</title></circle>
	<circle cx="612.50" cy="10.00" data-y="2.398" data-x="2050" r="4" fill="#C2CD23"><title>2050: 2.398</title></circle>
</g>
<g data-scenario="planning-scenario" class="data-series">	<path d="M 70.00,251.57L 87.50,251.35L 105.00,244.30L 122.50,237.15L 140.00,229.88L 157.50,228.80L 175.00,227.39L 192.50,221.86L 210.00,212.54L 227.50,209.72L 245.00,207.11L 262.50,204.19L 280.00,200.83L 297.50,186.30L 315.00,151.60L 332.50,147.05L 350.00,137.61L 367.50,132.19L 385.00,126.34L 402.50,112.14L 420.00,103.35L 437.50,97.17L 455.00,90.45L 472.50,81.13L 490.00,74.30L 507.50,67.25L 525.00,60.09L 542.50,48.27L 560.00,40.47L 577.50,32.44L 595.00,18.78L 612.50,10.00" id="NPg Planning Scenario" class="line" stroke="#ab1236" stroke-width="3" stroke-linecap="round"><title>NPg Planning Scenario</title></path>
	<circle cx="70.00" cy="251.57" data-y="0.170" data-x="2019" r="4" fill="#ab1236"><title>2019: 0.170</title></circle>
	<circle cx="87.50" cy="251.35" data-y="0.172" data-x="2020" r="4" fill="#ab1236"><title>2020: 0.172</title></circle>
	<circle cx="105.00" cy="244.30" data-y="0.237" data-x="2021" r="4" fill="#ab1236"><title>2021: 0.237</title></circle>
	<circle cx="122.50" cy="237.15" data-y="0.303" data-x="2022" r="4" fill="#ab1236"><title>2022: 0.303</title></circle>
	<circle cx="140.00" cy="229.88" data-y="0.370" data-x="2023" r="4" fill="#ab1236"><title>2023: 0.370</title></circle>
	<circle cx="157.50" cy="228.80" data-y="0.380" data-x="2024" r="4" fill="#ab1236"><title>2024: 0.380</title></circle>
	<circle cx="175.00" cy="227.39" data-y="0.393" data-x="2025" r="4" fill="#ab1236"><title>2025: 0.393</title></circle>
	<circle cx="192.50" cy="221.86" data-y="0.444" data-x="2026" r="4" fill="#ab1236"><title>2026: 0.444</title></circle>
	<circle cx="210.00" cy="212.54" data-y="0.530" data-x="2027" r="4" fill="#ab1236"><title>2027: 0.530</title></circle>
	<circle cx="227.50" cy="209.72" data-y="0.556" data-x="2028" r="4" fill="#ab1236"><title>2028: 0.556</title></circle>
	<circle cx="245.00" cy="207.11" data-y="0.580" data-x="2029" r="4" fill="#ab1236"><title>2029: 0.580</title></circle>
	<circle cx="262.50" cy="204.19" data-y="0.607" data-x="2030" r="4" fill="#ab1236"><title>2030: 0.607</title></circle>
	<circle cx="280.00" cy="200.83" data-y="0.638" data-x="2031" r="4" fill="#ab1236"><title>2031: 0.638</title></circle>
	<circle cx="297.50" cy="186.30" data-y="0.772" data-x="2032" r="4" fill="#ab1236"><title>2032: 0.772</title></circle>
	<circle cx="315.00" cy="151.60" data-y="1.092" data-x="2033" r="4" fill="#ab1236"><title>2033: 1.092</title></circle>
	<circle cx="332.50" cy="147.05" data-y="1.134" data-x="2034" r="4" fill="#ab1236"><title>2034: 1.134</title></circle>
	<circle cx="350.00" cy="137.61" data-y="1.221" data-x="2035" r="4" fill="#ab1236"><title>2035: 1.221</title></circle>
	<circle cx="367.50" cy="132.19" data-y="1.271" data-x="2036" r="4" fill="#ab1236"><title>2036: 1.271</title></circle>
	<circle cx="385.00" cy="126.34" data-y="1.325" data-x="2037" r="4" fill="#ab1236"><title>2037: 1.325</title></circle>
	<circle cx="402.50" cy="112.14" data-y="1.456" data-x="2038" r="4" fill="#ab1236"><title>2038: 1.456</title></circle>
	<circle cx="420.00" cy="103.35" data-y="1.537" data-x="2039" r="4" fill="#ab1236"><title>2039: 1.537</title></circle>
	<circle cx="437.50" cy="97.17" data-y="1.594" data-x="2040" r="4" fill="#ab1236"><title>2040: 1.594</title></circle>
	<circle cx="455.00" cy="90.45" data-y="1.656" data-x="2041" r="4" fill="#ab1236"><title>2041: 1.656</title></circle>
	<circle cx="472.50" cy="81.13" data-y="1.742" data-x="2042" r="4" fill="#ab1236"><title>2042: 1.742</title></circle>
	<circle cx="490.00" cy="74.30" data-y="1.805" data-x="2043" r="4" fill="#ab1236"><title>2043: 1.805</title></circle>
	<circle cx="507.50" cy="67.25" data-y="1.870" data-x="2044" r="4" fill="#ab1236"><title>2044: 1.870</title></circle>
	<circle cx="525.00" cy="60.09" data-y="1.936" data-x="2045" r="4" fill="#ab1236"><title>2045: 1.936</title></circle>
	<circle cx="542.50" cy="48.27" data-y="2.045" data-x="2046" r="4" fill="#ab1236"><title>2046: 2.045</title></circle>
	<circle cx="560.00" cy="40.47" data-y="2.117" data-x="2047" r="4" fill="#ab1236"><title>2047: 2.117</title></circle>
	<circle cx="577.50" cy="32.44" data-y="2.191" data-x="2048" r="4" fill="#ab1236"><title>2048: 2.191</title></circle>
	<circle cx="595.00" cy="18.78" data-y="2.317" data-x="2049" r="4" fill="#ab1236"><title>2049: 2.317</title></circle>
	<circle cx="612.50" cy="10.00" data-y="2.398" data-x="2050" r="4" fill="#ab1236"><title>2050: 2.398</title></circle>
</g>
</svg>
