<svg width="640" height="320" viewBox="0 0 640 320" xmlns="http://www.w3.org/2000/svg" style="overflow:display" preserveAspectRatio="xMinYMin meet" overflow="visible">
<defs>
	<style>
	.data-series path.line { fill-opacity: 0; }
	.data-series path.line.dotted { stroke-dasharray: 12 20 }
	.data-series circle { display: none; }
	.data-series:hover path.line, .data-series.on path.line { stroke-width: 5; }
	.data-series:hover circle, .data-series.on circle { display: inline; }
	.data-series circle:hover, .data-series circle.on { r: 6px!important; fill: black; }
	.grid { font-family: "Helvetica Neue",Helvetica,Arial,"Lucida Grande",sans-serif; }
	.grid line { stroke: rgb(0,0,0); stroke-width: 2; stroke-linecap: round; }
	.grid.grid-x text { text-anchor: middle; dominant-baseline: hanging; transform: translateY(10px); }
	.grid.grid-y text { text-anchor: end; dominant-baseline: middle; transform: translateX(-10px); }
	</style>
</defs>
<g class="grid grid-y">
	<line x1="50" y1="270" x2="630" y2="270" data-left="50"></line>
	<text x="50" y="270" text-anchor="end">0</text>
	<text x="50" y="196.092270957105" text-anchor="end">10</text>
	<text x="50" y="122.18454191421" text-anchor="end">20</text>
	<text x="50" y="48.2768128713153" text-anchor="end">30</text>
	<text style="text-anchor:middle;dominant-baseline:hanging;font-weight:bold;transform: translateY(140px) rotate(-90deg);">Mt CO2(e)</text>
</g>
<g class="grid grid-x">
	<line class="tick" x1="50" y1="270" x2="50" y2="275"></line>
	<text x="50" y="270" text-anchor="middle">2020</text>
	<line class="tick" x1="237.096774193548" y1="270" x2="237.096774193548" y2="275"></line>
	<text x="237.096774193548" y="270" text-anchor="middle">2030</text>
	<line class="tick" x1="424.193548387097" y1="270" x2="424.193548387097" y2="275"></line>
	<text x="424.193548387097" y="270" text-anchor="middle">2040</text>
	<line class="tick" x1="611.290322580645" y1="270" x2="611.290322580645" y2="275"></line>
	<text x="611.290322580645" y="270" text-anchor="middle">2050</text>
	<text style="text-anchor:middle;dominant-baseline:hanging;font-weight:bold;transform: translateY(140px) rotate(-90deg);"></text>
</g>
<g data-scenario="planning-scenario" class="data-series">	<path d="M 50.00,10.00L 68.71,12.17L 87.42,15.80L 106.13,25.21L 124.84,31.12L 143.55,41.71L 162.26,60.60L 180.97,76.47L 199.68,91.28L 218.39,105.19L 237.10,120.53L 255.81,134.48L 274.52,149.93L 293.23,163.93L 311.94,177.19L 330.65,189.49L 349.35,199.18L 368.06,208.15L 386.77,216.39L 405.48,224.24L 424.19,231.77L 442.90,239.64L 461.61,245.77L 480.32,250.94L 499.03,255.26L 517.74,259.30L 536.45,262.25L 555.16,265.16L 573.87,267.18L 592.58,267.89L 611.29,268.37" id="NPg Planning Scenario" class="line" stroke="#ab1236" stroke-width="3" stroke-linecap="round"><title>NPg Planning Scenario</title></path>
	<circle cx="50.00" cy="10.00" data-y="35.179" data-x="2020" r="4" fill="#ab1236"><title>2020: 35.179</title></circle>
	<circle cx="68.71" cy="12.17" data-y="34.886" data-x="2021" r="4" fill="#ab1236"><title>2021: 34.886</title></circle>
	<circle cx="87.42" cy="15.80" data-y="34.394" data-x="2022" r="4" fill="#ab1236"><title>2022: 34.394</title></circle>
	<circle cx="106.13" cy="25.21" data-y="33.121" data-x="2023" r="4" fill="#ab1236"><title>2023: 33.121</title></circle>
	<circle cx="124.84" cy="31.12" data-y="32.322" data-x="2024" r="4" fill="#ab1236"><title>2024: 32.322</title></circle>
	<circle cx="143.55" cy="41.71" data-y="30.889" data-x="2025" r="4" fill="#ab1236"><title>2025: 30.889</title></circle>
	<circle cx="162.26" cy="60.60" data-y="28.332" data-x="2026" r="4" fill="#ab1236"><title>2026: 28.332</title></circle>
	<circle cx="180.97" cy="76.47" data-y="26.185" data-x="2027" r="4" fill="#ab1236"><title>2027: 26.185</title></circle>
	<circle cx="199.68" cy="91.28" data-y="24.181" data-x="2028" r="4" fill="#ab1236"><title>2028: 24.181</title></circle>
	<circle cx="218.39" cy="105.19" data-y="22.299" data-x="2029" r="4" fill="#ab1236"><title>2029: 22.299</title></circle>
	<circle cx="237.10" cy="120.53" data-y="20.224" data-x="2030" r="4" fill="#ab1236"><title>2030: 20.224</title></circle>
	<circle cx="255.81" cy="134.48" data-y="18.337" data-x="2031" r="4" fill="#ab1236"><title>2031: 18.337</title></circle>
	<circle cx="274.52" cy="149.93" data-y="16.246" data-x="2032" r="4" fill="#ab1236"><title>2032: 16.246</title></circle>
	<circle cx="293.23" cy="163.93" data-y="14.352" data-x="2033" r="4" fill="#ab1236"><title>2033: 14.352</title></circle>
	<circle cx="311.94" cy="177.19" data-y="12.558" data-x="2034" r="4" fill="#ab1236"><title>2034: 12.558</title></circle>
	<circle cx="330.65" cy="189.49" data-y="10.893" data-x="2035" r="4" fill="#ab1236"><title>2035: 10.893</title></circle>
	<circle cx="349.35" cy="199.18" data-y="9.582" data-x="2036" r="4" fill="#ab1236"><title>2036: 9.582</title></circle>
	<circle cx="368.06" cy="208.15" data-y="8.368" data-x="2037" r="4" fill="#ab1236"><title>2037: 8.368</title></circle>
	<circle cx="386.77" cy="216.39" data-y="7.254" data-x="2038" r="4" fill="#ab1236"><title>2038: 7.254</title></circle>
	<circle cx="405.48" cy="224.24" data-y="6.191" data-x="2039" r="4" fill="#ab1236"><title>2039: 6.191</title></circle>
	<circle cx="424.19" cy="231.77" data-y="5.173" data-x="2040" r="4" fill="#ab1236"><title>2040: 5.173</title></circle>
	<circle cx="442.90" cy="239.64" data-y="4.108" data-x="2041" r="4" fill="#ab1236"><title>2041: 4.108</title></circle>
	<circle cx="461.61" cy="245.77" data-y="3.279" data-x="2042" r="4" fill="#ab1236"><title>2042: 3.279</title></circle>
	<circle cx="480.32" cy="250.94" data-y="2.579" data-x="2043" r="4" fill="#ab1236"><title>2043: 2.579</title></circle>
	<circle cx="499.03" cy="255.26" data-y="1.995" data-x="2044" r="4" fill="#ab1236"><title>2044: 1.995</title></circle>
	<circle cx="517.74" cy="259.30" data-y="1.448" data-x="2045" r="4" fill="#ab1236"><title>2045: 1.448</title></circle>
	<circle cx="536.45" cy="262.25" data-y="1.049" data-x="2046" r="4" fill="#ab1236"><title>2046: 1.049</title></circle>
	<circle cx="555.16" cy="265.16" data-y="0.655" data-x="2047" r="4" fill="#ab1236"><title>2047: 0.655</title></circle>
	<circle cx="573.87" cy="267.18" data-y="0.381" data-x="2048" r="4" fill="#ab1236"><title>2048: 0.381</title></circle>
	<circle cx="592.58" cy="267.89" data-y="0.285" data-x="2049" r="4" fill="#ab1236"><title>2049: 0.285</title></circle>
	<circle cx="611.29" cy="268.37" data-y="0.220" data-x="2050" r="4" fill="#ab1236"><title>2050: 0.220</title></circle>
</g>
</svg>
