<svg width="640" height="320" viewBox="0 0 640 320" xmlns="http://www.w3.org/2000/svg" style="overflow:display" preserveAspectRatio="xMinYMin meet" overflow="visible">
<defs>
	<style>
	.data-series path.line { fill-opacity: 0; }
	.data-series path.line.dotted { stroke-dasharray: 12 20 }
	.data-series circle { display: none; }
	.data-series:hover path.line, .data-series.on path.line { stroke-width: 5; }
	.data-series:hover circle, .data-series.on circle { display: inline; }
	.data-series circle:hover, .data-series circle.on { r: 6px!important; fill: black; }
	.grid { font-family: "Helvetica Neue",Helvetica,Arial,"Lucida Grande",sans-serif; }
	.grid line { stroke: rgb(0,0,0); stroke-width: 2; stroke-linecap: round; }
	.grid.grid-x text { text-anchor: middle; dominant-baseline: hanging; transform: translateY(10px); }
	.grid.grid-y text { text-anchor: end; dominant-baseline: middle; transform: translateX(-10px); }
	</style>
</defs>
<g class="grid grid-y">
	<line x1="50" y1="270" x2="630" y2="270" data-left="50"></line>
	<text x="50" y="270" text-anchor="end">0</text>
	<text x="50" y="194.963924963925" text-anchor="end">10</text>
	<text x="50" y="119.92784992785" text-anchor="end">20</text>
	<text x="50" y="44.8917748917749" text-anchor="end">30</text>
	<text style="text-anchor:middle;dominant-baseline:hanging;font-weight:bold;transform: translateY(140px) rotate(-90deg);">Mt CO2(e)</text>
</g>
<g class="grid grid-x">
	<line class="tick" x1="50" y1="270" x2="50" y2="275"></line>
	<text x="50" y="270" text-anchor="middle">2020</text>
	<line class="tick" x1="237.096774193548" y1="270" x2="237.096774193548" y2="275"></line>
	<text x="237.096774193548" y="270" text-anchor="middle">2030</text>
	<line class="tick" x1="424.193548387097" y1="270" x2="424.193548387097" y2="275"></line>
	<text x="424.193548387097" y="270" text-anchor="middle">2040</text>
	<line class="tick" x1="611.290322580645" y1="270" x2="611.290322580645" y2="275"></line>
	<text x="611.290322580645" y="270" text-anchor="middle">2050</text>
	<text style="text-anchor:middle;dominant-baseline:hanging;font-weight:bold;transform: translateY(140px) rotate(-90deg);"></text>
</g>
<g data-scenario="net-zero-early" class="data-series">	<path d="M 50.00,10.00L 68.71,19.24L 87.42,25.43L 106.13,32.41L 124.84,40.95L 143.55,50.50L 162.26,62.67L 180.97,73.45L 199.68,82.10L 218.39,93.22L 237.10,108.23L 255.81,124.44L 274.52,140.89L 293.23,156.42L 311.94,170.84L 330.65,184.46L 349.35,201.51L 368.06,216.87L 386.77,230.34L 405.48,242.25L 424.19,251.85L 442.90,257.68L 461.61,259.89L 480.32,261.54L 499.03,263.04L 517.74,263.72L 536.45,264.08L 555.16,264.72L 573.87,264.95L 592.58,265.36L 611.29,265.75" id="Net Zero Early" class="line" stroke="#cc0935" stroke-width="3" stroke-linecap="round"><title>Net Zero Early</title></path>
	<circle cx="50.00" cy="10.00" data-y="34.65" data-x="2020" r="4" fill="#cc0935"><title>2020: 34.65</title></circle>
	<circle cx="68.71" cy="19.24" data-y="33.419" data-x="2021" r="4" fill="#cc0935"><title>2021: 33.419</title></circle>
	<circle cx="87.42" cy="25.43" data-y="32.594" data-x="2022" r="4" fill="#cc0935"><title>2022: 32.594</title></circle>
	<circle cx="106.13" cy="32.41" data-y="31.664" data-x="2023" r="4" fill="#cc0935"><title>2023: 31.664</title></circle>
	<circle cx="124.84" cy="40.95" data-y="30.525" data-x="2024" r="4" fill="#cc0935"><title>2024: 30.525</title></circle>
	<circle cx="143.55" cy="50.50" data-y="29.253" data-x="2025" r="4" fill="#cc0935"><title>2025: 29.253</title></circle>
	<circle cx="162.26" cy="62.67" data-y="27.631" data-x="2026" r="4" fill="#cc0935"><title>2026: 27.631</title></circle>
	<circle cx="180.97" cy="73.45" data-y="26.194" data-x="2027" r="4" fill="#cc0935"><title>2027: 26.194</title></circle>
	<circle cx="199.68" cy="82.10" data-y="25.041" data-x="2028" r="4" fill="#cc0935"><title>2028: 25.041</title></circle>
	<circle cx="218.39" cy="93.22" data-y="23.559" data-x="2029" r="4" fill="#cc0935"><title>2029: 23.559</title></circle>
	<circle cx="237.10" cy="108.23" data-y="21.559" data-x="2030" r="4" fill="#cc0935"><title>2030: 21.559</title></circle>
	<circle cx="255.81" cy="124.44" data-y="19.399" data-x="2031" r="4" fill="#cc0935"><title>2031: 19.399</title></circle>
	<circle cx="274.52" cy="140.89" data-y="17.206" data-x="2032" r="4" fill="#cc0935"><title>2032: 17.206</title></circle>
	<circle cx="293.23" cy="156.42" data-y="15.137" data-x="2033" r="4" fill="#cc0935"><title>2033: 15.137</title></circle>
	<circle cx="311.94" cy="170.84" data-y="13.215" data-x="2034" r="4" fill="#cc0935"><title>2034: 13.215</title></circle>
	<circle cx="330.65" cy="184.46" data-y="11.4" data-x="2035" r="4" fill="#cc0935"><title>2035: 11.4</title></circle>
	<circle cx="349.35" cy="201.51" data-y="9.127" data-x="2036" r="4" fill="#cc0935"><title>2036: 9.127</title></circle>
	<circle cx="368.06" cy="216.87" data-y="7.08" data-x="2037" r="4" fill="#cc0935"><title>2037: 7.08</title></circle>
	<circle cx="386.77" cy="230.34" data-y="5.286" data-x="2038" r="4" fill="#cc0935"><title>2038: 5.286</title></circle>
	<circle cx="405.48" cy="242.25" data-y="3.698" data-x="2039" r="4" fill="#cc0935"><title>2039: 3.698</title></circle>
	<circle cx="424.19" cy="251.85" data-y="2.419" data-x="2040" r="4" fill="#cc0935"><title>2040: 2.419</title></circle>
	<circle cx="442.90" cy="257.68" data-y="1.642" data-x="2041" r="4" fill="#cc0935"><title>2041: 1.642</title></circle>
	<circle cx="461.61" cy="259.89" data-y="1.348" data-x="2042" r="4" fill="#cc0935"><title>2042: 1.348</title></circle>
	<circle cx="480.32" cy="261.54" data-y="1.128" data-x="2043" r="4" fill="#cc0935"><title>2043: 1.128</title></circle>
	<circle cx="499.03" cy="263.04" data-y="0.928" data-x="2044" r="4" fill="#cc0935"><title>2044: 0.928</title></circle>
	<circle cx="517.74" cy="263.72" data-y="0.837" data-x="2045" r="4" fill="#cc0935"><title>2045: 0.837</title></circle>
	<circle cx="536.45" cy="264.08" data-y="0.789" data-x="2046" r="4" fill="#cc0935"><title>2046: 0.789</title></circle>
	<circle cx="555.16" cy="264.72" data-y="0.704" data-x="2047" r="4" fill="#cc0935"><title>2047: 0.704</title></circle>
	<circle cx="573.87" cy="264.95" data-y="0.673" data-x="2048" r="4" fill="#cc0935"><title>2048: 0.673</title></circle>
	<circle cx="592.58" cy="265.36" data-y="0.618" data-x="2049" r="4" fill="#cc0935"><title>2049: 0.618</title></circle>
	<circle cx="611.29" cy="265.75" data-y="0.566" data-x="2050" r="4" fill="#cc0935"><title>2050: 0.566</title></circle>
</g>
</svg>
