<svg width="640" height="320" viewBox="0 0 640 320" xmlns="http://www.w3.org/2000/svg" style="overflow:display" preserveAspectRatio="xMinYMin meet" overflow="visible">
<defs>
	<style>
	.data-series path.line { fill-opacity: 0; }
	.data-series path.line.dotted { stroke-dasharray: 12 20 }
	.data-series circle { display: none; }
	.data-series:hover path.line, .data-series.on path.line { stroke-width: 5; }
	.data-series:hover circle, .data-series.on circle { display: inline; }
	.data-series circle:hover, .data-series circle.on { r: 6px!important; fill: black; }
	.grid { font-family: "Helvetica Neue",Helvetica,Arial,"Lucida Grande",sans-serif; }
	.grid line { stroke: rgb(0,0,0); stroke-width: 2; stroke-linecap: round; }
	.grid.grid-x text { text-anchor: middle; dominant-baseline: hanging; transform: translateY(10px); }
	.grid.grid-y text { text-anchor: end; dominant-baseline: middle; transform: translateX(-10px); }
	</style>
</defs>
<g class="grid grid-y">
	<line x1="70" y1="270" x2="630" y2="270" data-left="70"></line>
	<text x="70" y="270" text-anchor="end">0</text>
	<text x="70" y="196.092270957105" text-anchor="end">10</text>
	<text x="70" y="122.18454191421" text-anchor="end">20</text>
	<text x="70" y="48.2768128713153" text-anchor="end">30</text>
	<text style="text-anchor:middle;dominant-baseline:hanging;font-weight:bold;transform: translateY(140px) rotate(-90deg);">Annual emissions (MtCO2)</text>
</g>
<g class="grid grid-x">
	<line class="tick" x1="70" y1="270" x2="70" y2="275"></line>
	<text x="70" y="270" text-anchor="middle">2020</text>
	<line class="tick" x1="250.645161290323" y1="270" x2="250.645161290323" y2="275"></line>
	<text x="250.645161290323" y="270" text-anchor="middle">2030</text>
	<line class="tick" x1="431.290322580645" y1="270" x2="431.290322580645" y2="275"></line>
	<text x="431.290322580645" y="270" text-anchor="middle">2040</text>
	<line class="tick" x1="611.935483870968" y1="270" x2="611.935483870968" y2="275"></line>
	<text x="611.935483870968" y="270" text-anchor="middle">2050</text>
	<text style="text-anchor:middle;dominant-baseline:hanging;font-weight:bold;transform: translateY(140px) rotate(-90deg);"></text>
</g>
<g data-scenario="natural-gas" class="data-series">	<path d="M 70.00,187.87L 88.06,188.83L 106.13,189.78L 124.19,190.99L 142.26,192.26L 160.32,194.03L 178.39,196.19L 196.45,198.77L 214.52,202.15L 232.58,205.62L 250.65,209.19L 268.71,212.06L 286.77,215.12L 304.84,218.60L 322.90,222.57L 340.97,226.56L 359.03,230.34L 377.10,233.97L 395.16,237.64L 413.23,241.41L 431.29,245.30L 449.35,249.45L 467.42,253.16L 485.48,256.45L 503.55,259.59L 521.61,262.28L 539.68,264.72L 557.74,267.10L 575.81,268.99L 593.87,269.48L 611.94,269.87" id="Natural gas" class="line" stroke="#B8BFF9" stroke-width="3" stroke-linecap="round"><title>Natural gas</title></path>
	<circle cx="70.00" cy="187.87" data-y="11.112" data-x="2020" r="4" fill="#B8BFF9"><title>2020: 11.112</title></circle>
	<circle cx="88.06" cy="188.83" data-y="10.983" data-x="2021" r="4" fill="#B8BFF9"><title>2021: 10.983</title></circle>
	<circle cx="106.13" cy="189.78" data-y="10.854" data-x="2022" r="4" fill="#B8BFF9"><title>2022: 10.854</title></circle>
	<circle cx="124.19" cy="190.99" data-y="10.690" data-x="2023" r="4" fill="#B8BFF9"><title>2023: 10.690</title></circle>
	<circle cx="142.26" cy="192.26" data-y="10.518" data-x="2024" r="4" fill="#B8BFF9"><title>2024: 10.518</title></circle>
	<circle cx="160.32" cy="194.03" data-y="10.279" data-x="2025" r="4" fill="#B8BFF9"><title>2025: 10.279</title></circle>
	<circle cx="178.39" cy="196.19" data-y="9.987" data-x="2026" r="4" fill="#B8BFF9"><title>2026: 9.987</title></circle>
	<circle cx="196.45" cy="198.77" data-y="9.638" data-x="2027" r="4" fill="#B8BFF9"><title>2027: 9.638</title></circle>
	<circle cx="214.52" cy="202.15" data-y="9.181" data-x="2028" r="4" fill="#B8BFF9"><title>2028: 9.181</title></circle>
	<circle cx="232.58" cy="205.62" data-y="8.711" data-x="2029" r="4" fill="#B8BFF9"><title>2029: 8.711</title></circle>
	<circle cx="250.65" cy="209.19" data-y="8.228" data-x="2030" r="4" fill="#B8BFF9"><title>2030: 8.228</title></circle>
	<circle cx="268.71" cy="212.06" data-y="7.840" data-x="2031" r="4" fill="#B8BFF9"><title>2031: 7.840</title></circle>
	<circle cx="286.77" cy="215.12" data-y="7.426" data-x="2032" r="4" fill="#B8BFF9"><title>2032: 7.426</title></circle>
	<circle cx="304.84" cy="218.60" data-y="6.955" data-x="2033" r="4" fill="#B8BFF9"><title>2033: 6.955</title></circle>
	<circle cx="322.90" cy="222.57" data-y="6.418" data-x="2034" r="4" fill="#B8BFF9"><title>2034: 6.418</title></circle>
	<circle cx="340.97" cy="226.56" data-y="5.878" data-x="2035" r="4" fill="#B8BFF9"><title>2035: 5.878</title></circle>
	<circle cx="359.03" cy="230.34" data-y="5.366" data-x="2036" r="4" fill="#B8BFF9"><title>2036: 5.366</title></circle>
	<circle cx="377.10" cy="233.97" data-y="4.875" data-x="2037" r="4" fill="#B8BFF9"><title>2037: 4.875</title></circle>
	<circle cx="395.16" cy="237.64" data-y="4.379" data-x="2038" r="4" fill="#B8BFF9"><title>2038: 4.379</title></circle>
	<circle cx="413.23" cy="241.41" data-y="3.869" data-x="2039" r="4" fill="#B8BFF9"><title>2039: 3.869</title></circle>
	<circle cx="431.29" cy="245.30" data-y="3.342" data-x="2040" r="4" fill="#B8BFF9"><title>2040: 3.342</title></circle>
	<circle cx="449.35" cy="249.45" data-y="2.781" data-x="2041" r="4" fill="#B8BFF9"><title>2041: 2.781</title></circle>
	<circle cx="467.42" cy="253.16" data-y="2.278" data-x="2042" r="4" fill="#B8BFF9"><title>2042: 2.278</title></circle>
	<circle cx="485.48" cy="256.45" data-y="1.834" data-x="2043" r="4" fill="#B8BFF9"><title>2043: 1.834</title></circle>
	<circle cx="503.55" cy="259.59" data-y="1.408" data-x="2044" r="4" fill="#B8BFF9"><title>2044: 1.408</title></circle>
	<circle cx="521.61" cy="262.28" data-y="1.044" data-x="2045" r="4" fill="#B8BFF9"><title>2045: 1.044</title></circle>
	<circle cx="539.68" cy="264.72" data-y="0.714" data-x="2046" r="4" fill="#B8BFF9"><title>2046: 0.714</title></circle>
	<circle cx="557.74" cy="267.10" data-y="0.392" data-x="2047" r="4" fill="#B8BFF9"><title>2047: 0.392</title></circle>
	<circle cx="575.81" cy="268.99" data-y="0.136" data-x="2048" r="4" fill="#B8BFF9"><title>2048: 0.136</title></circle>
	<circle cx="593.87" cy="269.48" data-y="0.071" data-x="2049" r="4" fill="#B8BFF9"><title>2049: 0.071</title></circle>
	<circle cx="611.94" cy="269.87" data-y="0.017" data-x="2050" r="4" fill="#B8BFF9"><title>2050: 0.017</title></circle>
</g>
<g data-scenario="hydrogen" class="data-series">	<path d="M 70.00,270.00L 88.06,269.99L 106.13,269.99L 124.19,269.99L 142.26,269.99L 160.32,269.99L 178.39,269.99L 196.45,269.99L 214.52,269.99L 232.58,269.99L 250.65,269.97L 268.71,269.96L 286.77,269.95L 304.84,269.93L 322.90,269.91L 340.97,269.90L 359.03,269.87L 377.10,269.86L 395.16,269.84L 413.23,269.82L 431.29,269.80L 449.35,269.74L 467.42,269.70L 485.48,269.67L 503.55,269.63L 521.61,269.61L 539.68,269.59L 557.74,269.59L 575.81,269.58L 593.87,269.57L 611.94,269.57" id="Hydrogen" class="line" stroke="#0279FA" stroke-width="3" stroke-linecap="round"><title>Hydrogen</title></path>
	<circle cx="70.00" cy="270.00" data-y="0.000" data-x="2020" r="4" fill="#0279FA"><title>2020: 0.000</title></circle>
	<circle cx="88.06" cy="269.99" data-y="0.001" data-x="2021" r="4" fill="#0279FA"><title>2021: 0.001</title></circle>
	<circle cx="106.13" cy="269.99" data-y="0.001" data-x="2022" r="4" fill="#0279FA"><title>2022: 0.001</title></circle>
	<circle cx="124.19" cy="269.99" data-y="0.001" data-x="2023" r="4" fill="#0279FA"><title>2023: 0.001</title></circle>
	<circle cx="142.26" cy="269.99" data-y="0.001" data-x="2024" r="4" fill="#0279FA"><title>2024: 0.001</title></circle>
	<circle cx="160.32" cy="269.99" data-y="0.001" data-x="2025" r="4" fill="#0279FA"><title>2025: 0.001</title></circle>
	<circle cx="178.39" cy="269.99" data-y="0.001" data-x="2026" r="4" fill="#0279FA"><title>2026: 0.001</title></circle>
	<circle cx="196.45" cy="269.99" data-y="0.001" data-x="2027" r="4" fill="#0279FA"><title>2027: 0.001</title></circle>
	<circle cx="214.52" cy="269.99" data-y="0.001" data-x="2028" r="4" fill="#0279FA"><title>2028: 0.001</title></circle>
	<circle cx="232.58" cy="269.99" data-y="0.001" data-x="2029" r="4" fill="#0279FA"><title>2029: 0.001</title></circle>
	<circle cx="250.65" cy="269.97" data-y="0.004" data-x="2030" r="4" fill="#0279FA"><title>2030: 0.004</title></circle>
	<circle cx="268.71" cy="269.96" data-y="0.006" data-x="2031" r="4" fill="#0279FA"><title>2031: 0.006</title></circle>
	<circle cx="286.77" cy="269.95" data-y="0.007" data-x="2032" r="4" fill="#0279FA"><title>2032: 0.007</title></circle>
	<circle cx="304.84" cy="269.93" data-y="0.009" data-x="2033" r="4" fill="#0279FA"><title>2033: 0.009</title></circle>
	<circle cx="322.90" cy="269.91" data-y="0.012" data-x="2034" r="4" fill="#0279FA"><title>2034: 0.012</title></circle>
	<circle cx="340.97" cy="269.90" data-y="0.014" data-x="2035" r="4" fill="#0279FA"><title>2035: 0.014</title></circle>
	<circle cx="359.03" cy="269.87" data-y="0.017" data-x="2036" r="4" fill="#0279FA"><title>2036: 0.017</title></circle>
	<circle cx="377.10" cy="269.86" data-y="0.019" data-x="2037" r="4" fill="#0279FA"><title>2037: 0.019</title></circle>
	<circle cx="395.16" cy="269.84" data-y="0.021" data-x="2038" r="4" fill="#0279FA"><title>2038: 0.021</title></circle>
	<circle cx="413.23" cy="269.82" data-y="0.024" data-x="2039" r="4" fill="#0279FA"><title>2039: 0.024</title></circle>
	<circle cx="431.29" cy="269.80" data-y="0.027" data-x="2040" r="4" fill="#0279FA"><title>2040: 0.027</title></circle>
	<circle cx="449.35" cy="269.74" data-y="0.035" data-x="2041" r="4" fill="#0279FA"><title>2041: 0.035</title></circle>
	<circle cx="467.42" cy="269.70" data-y="0.041" data-x="2042" r="4" fill="#0279FA"><title>2042: 0.041</title></circle>
	<circle cx="485.48" cy="269.67" data-y="0.045" data-x="2043" r="4" fill="#0279FA"><title>2043: 0.045</title></circle>
	<circle cx="503.55" cy="269.63" data-y="0.050" data-x="2044" r="4" fill="#0279FA"><title>2044: 0.050</title></circle>
	<circle cx="521.61" cy="269.61" data-y="0.053" data-x="2045" r="4" fill="#0279FA"><title>2045: 0.053</title></circle>
	<circle cx="539.68" cy="269.59" data-y="0.055" data-x="2046" r="4" fill="#0279FA"><title>2046: 0.055</title></circle>
	<circle cx="557.74" cy="269.59" data-y="0.056" data-x="2047" r="4" fill="#0279FA"><title>2047: 0.056</title></circle>
	<circle cx="575.81" cy="269.58" data-y="0.057" data-x="2048" r="4" fill="#0279FA"><title>2048: 0.057</title></circle>
	<circle cx="593.87" cy="269.57" data-y="0.058" data-x="2049" r="4" fill="#0279FA"><title>2049: 0.058</title></circle>
	<circle cx="611.94" cy="269.57" data-y="0.058" data-x="2050" r="4" fill="#0279FA"><title>2050: 0.058</title></circle>
</g>
<g data-scenario="bioenergy" class="data-series">	<path d="M 70.00,269.57L 88.06,269.58L 106.13,269.59L 124.19,269.61L 142.26,269.62L 160.32,269.64L 178.39,269.66L 196.45,269.68L 214.52,269.71L 232.58,269.73L 250.65,269.75L 268.71,269.76L 286.77,269.78L 304.84,269.79L 322.90,269.81L 340.97,269.82L 359.03,269.84L 377.10,269.85L 395.16,269.86L 413.23,269.87L 431.29,269.89L 449.35,269.90L 467.42,269.91L 485.48,269.93L 503.55,269.93L 521.61,269.93L 539.68,269.93L 557.74,269.93L 575.81,269.93L 593.87,269.93L 611.94,269.93" id="Bioenergy" class="line" stroke="#019303" stroke-width="3" stroke-linecap="round"><title>Bioenergy</title></path>
	<circle cx="70.00" cy="269.57" data-y="0.058" data-x="2020" r="4" fill="#019303"><title>2020: 0.058</title></circle>
	<circle cx="88.06" cy="269.58" data-y="0.057" data-x="2021" r="4" fill="#019303"><title>2021: 0.057</title></circle>
	<circle cx="106.13" cy="269.59" data-y="0.055" data-x="2022" r="4" fill="#019303"><title>2022: 0.055</title></circle>
	<circle cx="124.19" cy="269.61" data-y="0.053" data-x="2023" r="4" fill="#019303"><title>2023: 0.053</title></circle>
	<circle cx="142.26" cy="269.62" data-y="0.051" data-x="2024" r="4" fill="#019303"><title>2024: 0.051</title></circle>
	<circle cx="160.32" cy="269.64" data-y="0.049" data-x="2025" r="4" fill="#019303"><title>2025: 0.049</title></circle>
	<circle cx="178.39" cy="269.66" data-y="0.046" data-x="2026" r="4" fill="#019303"><title>2026: 0.046</title></circle>
	<circle cx="196.45" cy="269.68" data-y="0.043" data-x="2027" r="4" fill="#019303"><title>2027: 0.043</title></circle>
	<circle cx="214.52" cy="269.71" data-y="0.039" data-x="2028" r="4" fill="#019303"><title>2028: 0.039</title></circle>
	<circle cx="232.58" cy="269.73" data-y="0.037" data-x="2029" r="4" fill="#019303"><title>2029: 0.037</title></circle>
	<circle cx="250.65" cy="269.75" data-y="0.034" data-x="2030" r="4" fill="#019303"><title>2030: 0.034</title></circle>
	<circle cx="268.71" cy="269.76" data-y="0.032" data-x="2031" r="4" fill="#019303"><title>2031: 0.032</title></circle>
	<circle cx="286.77" cy="269.78" data-y="0.030" data-x="2032" r="4" fill="#019303"><title>2032: 0.030</title></circle>
	<circle cx="304.84" cy="269.79" data-y="0.028" data-x="2033" r="4" fill="#019303"><title>2033: 0.028</title></circle>
	<circle cx="322.90" cy="269.81" data-y="0.026" data-x="2034" r="4" fill="#019303"><title>2034: 0.026</title></circle>
	<circle cx="340.97" cy="269.82" data-y="0.024" data-x="2035" r="4" fill="#019303"><title>2035: 0.024</title></circle>
	<circle cx="359.03" cy="269.84" data-y="0.022" data-x="2036" r="4" fill="#019303"><title>2036: 0.022</title></circle>
	<circle cx="377.10" cy="269.85" data-y="0.020" data-x="2037" r="4" fill="#019303"><title>2037: 0.020</title></circle>
	<circle cx="395.16" cy="269.86" data-y="0.019" data-x="2038" r="4" fill="#019303"><title>2038: 0.019</title></circle>
	<circle cx="413.23" cy="269.87" data-y="0.017" data-x="2039" r="4" fill="#019303"><title>2039: 0.017</title></circle>
	<circle cx="431.29" cy="269.89" data-y="0.015" data-x="2040" r="4" fill="#019303"><title>2040: 0.015</title></circle>
	<circle cx="449.35" cy="269.90" data-y="0.013" data-x="2041" r="4" fill="#019303"><title>2041: 0.013</title></circle>
	<circle cx="467.42" cy="269.91" data-y="0.012" data-x="2042" r="4" fill="#019303"><title>2042: 0.012</title></circle>
	<circle cx="485.48" cy="269.93" data-y="0.010" data-x="2043" r="4" fill="#019303"><title>2043: 0.010</title></circle>
	<circle cx="503.55" cy="269.93" data-y="0.010" data-x="2044" r="4" fill="#019303"><title>2044: 0.010</title></circle>
	<circle cx="521.61" cy="269.93" data-y="0.010" data-x="2045" r="4" fill="#019303"><title>2045: 0.010</title></circle>
	<circle cx="539.68" cy="269.93" data-y="0.010" data-x="2046" r="4" fill="#019303"><title>2046: 0.010</title></circle>
	<circle cx="557.74" cy="269.93" data-y="0.010" data-x="2047" r="4" fill="#019303"><title>2047: 0.010</title></circle>
	<circle cx="575.81" cy="269.93" data-y="0.010" data-x="2048" r="4" fill="#019303"><title>2048: 0.010</title></circle>
	<circle cx="593.87" cy="269.93" data-y="0.010" data-x="2049" r="4" fill="#019303"><title>2049: 0.010</title></circle>
	<circle cx="611.94" cy="269.93" data-y="0.009" data-x="2050" r="4" fill="#019303"><title>2050: 0.009</title></circle>
</g>
<g data-scenario="petrol" class="data-series">	<path d="M 70.00,135.92L 88.06,135.96L 106.13,137.81L 124.19,142.29L 142.26,147.31L 160.32,153.71L 178.39,162.13L 196.45,170.68L 214.52,179.63L 232.58,188.65L 250.65,197.34L 268.71,205.94L 286.77,215.11L 304.84,223.53L 322.90,231.14L 340.97,237.95L 359.03,243.67L 377.10,248.70L 395.16,253.12L 413.23,256.97L 431.29,260.29L 449.35,262.99L 467.42,265.18L 485.48,266.93L 503.55,268.04L 521.61,268.79L 539.68,269.20L 557.74,269.50L 575.81,269.65L 593.87,269.73L 611.94,269.80" id="Petrol" class="line" stroke="#FFC300" stroke-width="3" stroke-linecap="round"><title>Petrol</title></path>
	<circle cx="70.00" cy="135.92" data-y="18.142" data-x="2020" r="4" fill="#FFC300"><title>2020: 18.142</title></circle>
	<circle cx="88.06" cy="135.96" data-y="18.136" data-x="2021" r="4" fill="#FFC300"><title>2021: 18.136</title></circle>
	<circle cx="106.13" cy="137.81" data-y="17.886" data-x="2022" r="4" fill="#FFC300"><title>2022: 17.886</title></circle>
	<circle cx="124.19" cy="142.29" data-y="17.279" data-x="2023" r="4" fill="#FFC300"><title>2023: 17.279</title></circle>
	<circle cx="142.26" cy="147.31" data-y="16.601" data-x="2024" r="4" fill="#FFC300"><title>2024: 16.601</title></circle>
	<circle cx="160.32" cy="153.71" data-y="15.734" data-x="2025" r="4" fill="#FFC300"><title>2025: 15.734</title></circle>
	<circle cx="178.39" cy="162.13" data-y="14.595" data-x="2026" r="4" fill="#FFC300"><title>2026: 14.595</title></circle>
	<circle cx="196.45" cy="170.68" data-y="13.438" data-x="2027" r="4" fill="#FFC300"><title>2027: 13.438</title></circle>
	<circle cx="214.52" cy="179.63" data-y="12.228" data-x="2028" r="4" fill="#FFC300"><title>2028: 12.228</title></circle>
	<circle cx="232.58" cy="188.65" data-y="11.007" data-x="2029" r="4" fill="#FFC300"><title>2029: 11.007</title></circle>
	<circle cx="250.65" cy="197.34" data-y="9.831" data-x="2030" r="4" fill="#FFC300"><title>2030: 9.831</title></circle>
	<circle cx="268.71" cy="205.94" data-y="8.668" data-x="2031" r="4" fill="#FFC300"><title>2031: 8.668</title></circle>
	<circle cx="286.77" cy="215.11" data-y="7.427" data-x="2032" r="4" fill="#FFC300"><title>2032: 7.427</title></circle>
	<circle cx="304.84" cy="223.53" data-y="6.288" data-x="2033" r="4" fill="#FFC300"><title>2033: 6.288</title></circle>
	<circle cx="322.90" cy="231.14" data-y="5.258" data-x="2034" r="4" fill="#FFC300"><title>2034: 5.258</title></circle>
	<circle cx="340.97" cy="237.95" data-y="4.336" data-x="2035" r="4" fill="#FFC300"><title>2035: 4.336</title></circle>
	<circle cx="359.03" cy="243.67" data-y="3.563" data-x="2036" r="4" fill="#FFC300"><title>2036: 3.563</title></circle>
	<circle cx="377.10" cy="248.70" data-y="2.882" data-x="2037" r="4" fill="#FFC300"><title>2037: 2.882</title></circle>
	<circle cx="395.16" cy="253.12" data-y="2.284" data-x="2038" r="4" fill="#FFC300"><title>2038: 2.284</title></circle>
	<circle cx="413.23" cy="256.97" data-y="1.763" data-x="2039" r="4" fill="#FFC300"><title>2039: 1.763</title></circle>
	<circle cx="431.29" cy="260.29" data-y="1.314" data-x="2040" r="4" fill="#FFC300"><title>2040: 1.314</title></circle>
	<circle cx="449.35" cy="262.99" data-y="0.948" data-x="2041" r="4" fill="#FFC300"><title>2041: 0.948</title></circle>
	<circle cx="467.42" cy="265.18" data-y="0.652" data-x="2042" r="4" fill="#FFC300"><title>2042: 0.652</title></circle>
	<circle cx="485.48" cy="266.93" data-y="0.416" data-x="2043" r="4" fill="#FFC300"><title>2043: 0.416</title></circle>
	<circle cx="503.55" cy="268.04" data-y="0.265" data-x="2044" r="4" fill="#FFC300"><title>2044: 0.265</title></circle>
	<circle cx="521.61" cy="268.79" data-y="0.164" data-x="2045" r="4" fill="#FFC300"><title>2045: 0.164</title></circle>
	<circle cx="539.68" cy="269.20" data-y="0.108" data-x="2046" r="4" fill="#FFC300"><title>2046: 0.108</title></circle>
	<circle cx="557.74" cy="269.50" data-y="0.067" data-x="2047" r="4" fill="#FFC300"><title>2047: 0.067</title></circle>
	<circle cx="575.81" cy="269.65" data-y="0.048" data-x="2048" r="4" fill="#FFC300"><title>2048: 0.048</title></circle>
	<circle cx="593.87" cy="269.73" data-y="0.036" data-x="2049" r="4" fill="#FFC300"><title>2049: 0.036</title></circle>
	<circle cx="611.94" cy="269.80" data-y="0.027" data-x="2050" r="4" fill="#FFC300"><title>2050: 0.027</title></circle>
</g>
<g data-scenario="solid-fuel" class="data-series">	<path d="M 70.00,267.91L 88.06,267.95L 106.13,268.04L 124.19,268.14L 142.26,268.25L 160.32,268.34L 178.39,268.46L 196.45,268.60L 214.52,268.77L 232.58,268.86L 250.65,268.96L 268.71,269.04L 286.77,269.13L 304.84,269.21L 322.90,269.28L 340.97,269.36L 359.03,269.43L 377.10,269.50L 395.16,269.58L 413.23,269.66L 431.29,269.73L 449.35,269.81L 467.42,269.88L 485.48,269.96L 503.55,269.96L 521.61,269.97L 539.68,269.97L 557.74,269.97L 575.81,269.98L 593.87,269.98L 611.94,269.98" id="Solid fuel" class="line" stroke="#505050" stroke-width="3" stroke-linecap="round"><title>Solid fuel</title></path>
	<circle cx="70.00" cy="267.91" data-y="0.283" data-x="2020" r="4" fill="#505050"><title>2020: 0.283</title></circle>
	<circle cx="88.06" cy="267.95" data-y="0.277" data-x="2021" r="4" fill="#505050"><title>2021: 0.277</title></circle>
	<circle cx="106.13" cy="268.04" data-y="0.265" data-x="2022" r="4" fill="#505050"><title>2022: 0.265</title></circle>
	<circle cx="124.19" cy="268.14" data-y="0.251" data-x="2023" r="4" fill="#505050"><title>2023: 0.251</title></circle>
	<circle cx="142.26" cy="268.25" data-y="0.237" data-x="2024" r="4" fill="#505050"><title>2024: 0.237</title></circle>
	<circle cx="160.32" cy="268.34" data-y="0.225" data-x="2025" r="4" fill="#505050"><title>2025: 0.225</title></circle>
	<circle cx="178.39" cy="268.46" data-y="0.208" data-x="2026" r="4" fill="#505050"><title>2026: 0.208</title></circle>
	<circle cx="196.45" cy="268.60" data-y="0.189" data-x="2027" r="4" fill="#505050"><title>2027: 0.189</title></circle>
	<circle cx="214.52" cy="268.77" data-y="0.167" data-x="2028" r="4" fill="#505050"><title>2028: 0.167</title></circle>
	<circle cx="232.58" cy="268.86" data-y="0.154" data-x="2029" r="4" fill="#505050"><title>2029: 0.154</title></circle>
	<circle cx="250.65" cy="268.96" data-y="0.141" data-x="2030" r="4" fill="#505050"><title>2030: 0.141</title></circle>
	<circle cx="268.71" cy="269.04" data-y="0.130" data-x="2031" r="4" fill="#505050"><title>2031: 0.130</title></circle>
	<circle cx="286.77" cy="269.13" data-y="0.118" data-x="2032" r="4" fill="#505050"><title>2032: 0.118</title></circle>
	<circle cx="304.84" cy="269.21" data-y="0.107" data-x="2033" r="4" fill="#505050"><title>2033: 0.107</title></circle>
	<circle cx="322.90" cy="269.28" data-y="0.097" data-x="2034" r="4" fill="#505050"><title>2034: 0.097</title></circle>
	<circle cx="340.97" cy="269.36" data-y="0.086" data-x="2035" r="4" fill="#505050"><title>2035: 0.086</title></circle>
	<circle cx="359.03" cy="269.43" data-y="0.077" data-x="2036" r="4" fill="#505050"><title>2036: 0.077</title></circle>
	<circle cx="377.10" cy="269.50" data-y="0.067" data-x="2037" r="4" fill="#505050"><title>2037: 0.067</title></circle>
	<circle cx="395.16" cy="269.58" data-y="0.057" data-x="2038" r="4" fill="#505050"><title>2038: 0.057</title></circle>
	<circle cx="413.23" cy="269.66" data-y="0.046" data-x="2039" r="4" fill="#505050"><title>2039: 0.046</title></circle>
	<circle cx="431.29" cy="269.73" data-y="0.036" data-x="2040" r="4" fill="#505050"><title>2040: 0.036</title></circle>
	<circle cx="449.35" cy="269.81" data-y="0.026" data-x="2041" r="4" fill="#505050"><title>2041: 0.026</title></circle>
	<circle cx="467.42" cy="269.88" data-y="0.016" data-x="2042" r="4" fill="#505050"><title>2042: 0.016</title></circle>
	<circle cx="485.48" cy="269.96" data-y="0.006" data-x="2043" r="4" fill="#505050"><title>2043: 0.006</title></circle>
	<circle cx="503.55" cy="269.96" data-y="0.005" data-x="2044" r="4" fill="#505050"><title>2044: 0.005</title></circle>
	<circle cx="521.61" cy="269.97" data-y="0.004" data-x="2045" r="4" fill="#505050"><title>2045: 0.004</title></circle>
	<circle cx="539.68" cy="269.97" data-y="0.004" data-x="2046" r="4" fill="#505050"><title>2046: 0.004</title></circle>
	<circle cx="557.74" cy="269.97" data-y="0.004" data-x="2047" r="4" fill="#505050"><title>2047: 0.004</title></circle>
	<circle cx="575.81" cy="269.98" data-y="0.003" data-x="2048" r="4" fill="#505050"><title>2048: 0.003</title></circle>
	<circle cx="593.87" cy="269.98" data-y="0.003" data-x="2049" r="4" fill="#505050"><title>2049: 0.003</title></circle>
	<circle cx="611.94" cy="269.98" data-y="0.003" data-x="2050" r="4" fill="#505050"><title>2050: 0.003</title></circle>
</g>
<g data-scenario="electricity" class="data-series">	<path d="M 70.00,228.73L 88.06,229.85L 106.13,230.58L 124.19,234.17L 142.26,233.67L 160.32,235.99L 178.39,244.17L 196.45,248.74L 214.52,251.04L 232.58,252.34L 250.65,255.33L 268.71,257.72L 286.77,260.86L 304.84,262.88L 322.90,264.47L 340.97,265.91L 359.03,266.02L 377.10,266.26L 395.16,266.34L 413.23,266.51L 431.29,266.75L 449.35,267.74L 467.42,267.92L 485.48,268.03L 503.55,268.09L 521.61,268.72L 539.68,268.83L 557.74,269.07L 575.81,269.07L 593.87,269.21L 611.94,269.22" id="Electricity" class="line" stroke="#cc0935" stroke-width="3" stroke-linecap="round"><title>Electricity</title></path>
	<circle cx="70.00" cy="228.73" data-y="5.584" data-x="2020" r="4" fill="#cc0935"><title>2020: 5.584</title></circle>
	<circle cx="88.06" cy="229.85" data-y="5.433" data-x="2021" r="4" fill="#cc0935"><title>2021: 5.433</title></circle>
	<circle cx="106.13" cy="230.58" data-y="5.334" data-x="2022" r="4" fill="#cc0935"><title>2022: 5.334</title></circle>
	<circle cx="124.19" cy="234.17" data-y="4.848" data-x="2023" r="4" fill="#cc0935"><title>2023: 4.848</title></circle>
	<circle cx="142.26" cy="233.67" data-y="4.915" data-x="2024" r="4" fill="#cc0935"><title>2024: 4.915</title></circle>
	<circle cx="160.32" cy="235.99" data-y="4.602" data-x="2025" r="4" fill="#cc0935"><title>2025: 4.602</title></circle>
	<circle cx="178.39" cy="244.17" data-y="3.495" data-x="2026" r="4" fill="#cc0935"><title>2026: 3.495</title></circle>
	<circle cx="196.45" cy="248.74" data-y="2.876" data-x="2027" r="4" fill="#cc0935"><title>2027: 2.876</title></circle>
	<circle cx="214.52" cy="251.04" data-y="2.565" data-x="2028" r="4" fill="#cc0935"><title>2028: 2.565</title></circle>
	<circle cx="232.58" cy="252.34" data-y="2.390" data-x="2029" r="4" fill="#cc0935"><title>2029: 2.390</title></circle>
	<circle cx="250.65" cy="255.33" data-y="1.985" data-x="2030" r="4" fill="#cc0935"><title>2030: 1.985</title></circle>
	<circle cx="268.71" cy="257.72" data-y="1.662" data-x="2031" r="4" fill="#cc0935"><title>2031: 1.662</title></circle>
	<circle cx="286.77" cy="260.86" data-y="1.237" data-x="2032" r="4" fill="#cc0935"><title>2032: 1.237</title></circle>
	<circle cx="304.84" cy="262.88" data-y="0.963" data-x="2033" r="4" fill="#cc0935"><title>2033: 0.963</title></circle>
	<circle cx="322.90" cy="264.47" data-y="0.748" data-x="2034" r="4" fill="#cc0935"><title>2034: 0.748</title></circle>
	<circle cx="340.97" cy="265.91" data-y="0.554" data-x="2035" r="4" fill="#cc0935"><title>2035: 0.554</title></circle>
	<circle cx="359.03" cy="266.02" data-y="0.538" data-x="2036" r="4" fill="#cc0935"><title>2036: 0.538</title></circle>
	<circle cx="377.10" cy="266.26" data-y="0.506" data-x="2037" r="4" fill="#cc0935"><title>2037: 0.506</title></circle>
	<circle cx="395.16" cy="266.34" data-y="0.495" data-x="2038" r="4" fill="#cc0935"><title>2038: 0.495</title></circle>
	<circle cx="413.23" cy="266.51" data-y="0.472" data-x="2039" r="4" fill="#cc0935"><title>2039: 0.472</title></circle>
	<circle cx="431.29" cy="266.75" data-y="0.440" data-x="2040" r="4" fill="#cc0935"><title>2040: 0.440</title></circle>
	<circle cx="449.35" cy="267.74" data-y="0.306" data-x="2041" r="4" fill="#cc0935"><title>2041: 0.306</title></circle>
	<circle cx="467.42" cy="267.92" data-y="0.282" data-x="2042" r="4" fill="#cc0935"><title>2042: 0.282</title></circle>
	<circle cx="485.48" cy="268.03" data-y="0.267" data-x="2043" r="4" fill="#cc0935"><title>2043: 0.267</title></circle>
	<circle cx="503.55" cy="268.09" data-y="0.258" data-x="2044" r="4" fill="#cc0935"><title>2044: 0.258</title></circle>
	<circle cx="521.61" cy="268.72" data-y="0.173" data-x="2045" r="4" fill="#cc0935"><title>2045: 0.173</title></circle>
	<circle cx="539.68" cy="268.83" data-y="0.158" data-x="2046" r="4" fill="#cc0935"><title>2046: 0.158</title></circle>
	<circle cx="557.74" cy="269.07" data-y="0.126" data-x="2047" r="4" fill="#cc0935"><title>2047: 0.126</title></circle>
	<circle cx="575.81" cy="269.07" data-y="0.126" data-x="2048" r="4" fill="#cc0935"><title>2048: 0.126</title></circle>
	<circle cx="593.87" cy="269.21" data-y="0.107" data-x="2049" r="4" fill="#cc0935"><title>2049: 0.107</title></circle>
	<circle cx="611.94" cy="269.22" data-y="0.105" data-x="2050" r="4" fill="#cc0935"><title>2050: 0.105</title></circle>
</g>
<g data-scenario="total-emissions" class="data-series">	<path d="M 70.00,10.00L 88.06,12.17L 106.13,15.80L 124.19,25.21L 142.26,31.12L 160.32,41.71L 178.39,60.60L 196.45,76.47L 214.52,91.28L 232.58,105.19L 250.65,120.53L 268.71,134.48L 286.77,149.93L 304.84,163.93L 322.90,177.19L 340.97,189.49L 359.03,199.18L 377.10,208.15L 395.16,216.39L 413.23,224.24L 431.29,231.77L 449.35,239.64L 467.42,245.77L 485.48,250.94L 503.55,255.26L 521.61,259.30L 539.68,262.25L 557.74,265.16L 575.81,267.18L 593.87,267.89L 611.94,268.37" id="Total emissions" class="line" stroke="#cc0935" stroke-width="3" stroke-linecap="round"><title>Total emissions</title></path>
	<circle cx="70.00" cy="10.00" data-y="35.179" data-x="2020" r="4" fill="#cc0935"><title>2020: 35.179</title></circle>
	<circle cx="88.06" cy="12.17" data-y="34.886" data-x="2021" r="4" fill="#cc0935"><title>2021: 34.886</title></circle>
	<circle cx="106.13" cy="15.80" data-y="34.394" data-x="2022" r="4" fill="#cc0935"><title>2022: 34.394</title></circle>
	<circle cx="124.19" cy="25.21" data-y="33.121" data-x="2023" r="4" fill="#cc0935"><title>2023: 33.121</title></circle>
	<circle cx="142.26" cy="31.12" data-y="32.322" data-x="2024" r="4" fill="#cc0935"><title>2024: 32.322</title></circle>
	<circle cx="160.32" cy="41.71" data-y="30.889" data-x="2025" r="4" fill="#cc0935"><title>2025: 30.889</title></circle>
	<circle cx="178.39" cy="60.60" data-y="28.332" data-x="2026" r="4" fill="#cc0935"><title>2026: 28.332</title></circle>
	<circle cx="196.45" cy="76.47" data-y="26.185" data-x="2027" r="4" fill="#cc0935"><title>2027: 26.185</title></circle>
	<circle cx="214.52" cy="91.28" data-y="24.181" data-x="2028" r="4" fill="#cc0935"><title>2028: 24.181</title></circle>
	<circle cx="232.58" cy="105.19" data-y="22.299" data-x="2029" r="4" fill="#cc0935"><title>2029: 22.299</title></circle>
	<circle cx="250.65" cy="120.53" data-y="20.224" data-x="2030" r="4" fill="#cc0935"><title>2030: 20.224</title></circle>
	<circle cx="268.71" cy="134.48" data-y="18.337" data-x="2031" r="4" fill="#cc0935"><title>2031: 18.337</title></circle>
	<circle cx="286.77" cy="149.93" data-y="16.246" data-x="2032" r="4" fill="#cc0935"><title>2032: 16.246</title></circle>
	<circle cx="304.84" cy="163.93" data-y="14.352" data-x="2033" r="4" fill="#cc0935"><title>2033: 14.352</title></circle>
	<circle cx="322.90" cy="177.19" data-y="12.558" data-x="2034" r="4" fill="#cc0935"><title>2034: 12.558</title></circle>
	<circle cx="340.97" cy="189.49" data-y="10.893" data-x="2035" r="4" fill="#cc0935"><title>2035: 10.893</title></circle>
	<circle cx="359.03" cy="199.18" data-y="9.582" data-x="2036" r="4" fill="#cc0935"><title>2036: 9.582</title></circle>
	<circle cx="377.10" cy="208.15" data-y="8.368" data-x="2037" r="4" fill="#cc0935"><title>2037: 8.368</title></circle>
	<circle cx="395.16" cy="216.39" data-y="7.254" data-x="2038" r="4" fill="#cc0935"><title>2038: 7.254</title></circle>
	<circle cx="413.23" cy="224.24" data-y="6.191" data-x="2039" r="4" fill="#cc0935"><title>2039: 6.191</title></circle>
	<circle cx="431.29" cy="231.77" data-y="5.173" data-x="2040" r="4" fill="#cc0935"><title>2040: 5.173</title></circle>
	<circle cx="449.35" cy="239.64" data-y="4.108" data-x="2041" r="4" fill="#cc0935"><title>2041: 4.108</title></circle>
	<circle cx="467.42" cy="245.77" data-y="3.279" data-x="2042" r="4" fill="#cc0935"><title>2042: 3.279</title></circle>
	<circle cx="485.48" cy="250.94" data-y="2.579" data-x="2043" r="4" fill="#cc0935"><title>2043: 2.579</title></circle>
	<circle cx="503.55" cy="255.26" data-y="1.995" data-x="2044" r="4" fill="#cc0935"><title>2044: 1.995</title></circle>
	<circle cx="521.61" cy="259.30" data-y="1.448" data-x="2045" r="4" fill="#cc0935"><title>2045: 1.448</title></circle>
	<circle cx="539.68" cy="262.25" data-y="1.049" data-x="2046" r="4" fill="#cc0935"><title>2046: 1.049</title></circle>
	<circle cx="557.74" cy="265.16" data-y="0.655" data-x="2047" r="4" fill="#cc0935"><title>2047: 0.655</title></circle>
	<circle cx="575.81" cy="267.18" data-y="0.381" data-x="2048" r="4" fill="#cc0935"><title>2048: 0.381</title></circle>
	<circle cx="593.87" cy="267.89" data-y="0.285" data-x="2049" r="4" fill="#cc0935"><title>2049: 0.285</title></circle>
	<circle cx="611.94" cy="268.37" data-y="0.220" data-x="2050" r="4" fill="#cc0935"><title>2050: 0.220</title></circle>
</g>
</svg>
