<svg width="640" height="320" viewBox="0 0 640 320" xmlns="http://www.w3.org/2000/svg" style="overflow:display" preserveAspectRatio="xMinYMin meet" overflow="visible">
<defs>
	<style>
	.data-series path.line { fill-opacity: 0; }
	.data-series path.line.dotted { stroke-dasharray: 12 20 }
	.data-series circle { display: none; }
	.data-series:hover path.line, .data-series.on path.line { stroke-width: 5; }
	.data-series:hover circle, .data-series.on circle { display: inline; }
	.data-series circle:hover, .data-series circle.on { r: 6px!important; fill: black; }
	.grid { font-family: "Helvetica Neue",Helvetica,Arial,"Lucida Grande",sans-serif; }
	.grid line { stroke: rgb(0,0,0); stroke-width: 2; stroke-linecap: round; }
	.grid.grid-x text { text-anchor: middle; dominant-baseline: hanging; transform: translateY(10px); }
	.grid.grid-y text { text-anchor: end; dominant-baseline: middle; transform: translateX(-10px); }
	</style>
</defs>
<g class="grid grid-y">
	<line x1="100" y1="270" x2="630" y2="270" data-left="100"></line>
	<text x="100" y="270" text-anchor="end">0</text>
	<text x="100" y="225.203308063405" text-anchor="end">20,000</text>
	<text x="100" y="180.406616126809" text-anchor="end">40,000</text>
	<text x="100" y="135.609924190214" text-anchor="end">60,000</text>
	<text x="100" y="90.8132322536182" text-anchor="end">80,000</text>
	<text x="100" y="46.0165403170228" text-anchor="end">100,000</text>
	<text x="100" y="1.21984838042728" text-anchor="end">120,000</text>
	<text style="text-anchor:middle;dominant-baseline:hanging;font-weight:bold;transform: translateY(140px) rotate(-90deg);">Fuel consumption (GWh-yr)</text>
</g>
<g class="grid grid-x">
	<line class="tick" x1="100" y1="270" x2="100" y2="275"></line>
	<text x="100" y="270" text-anchor="middle">2020</text>
	<line class="tick" x1="270.967741935484" y1="270" x2="270.967741935484" y2="275"></line>
	<text x="270.967741935484" y="270" text-anchor="middle">2030</text>
	<line class="tick" x1="441.935483870968" y1="270" x2="441.935483870968" y2="275"></line>
	<text x="441.935483870968" y="270" text-anchor="middle">2040</text>
	<line class="tick" x1="612.903225806452" y1="270" x2="612.903225806452" y2="275"></line>
	<text x="612.903225806452" y="270" text-anchor="middle">2050</text>
	<text style="text-anchor:middle;dominant-baseline:hanging;font-weight:bold;transform: translateY(140px) rotate(-90deg);"></text>
</g>
<g data-scenario="natural-gas" class="data-series">	<path d="M 100.00,120.63L 117.10,122.59L 134.19,124.60L 151.29,126.70L 168.39,128.59L 185.48,130.90L 202.58,133.09L 219.68,135.20L 236.77,137.26L 253.87,139.27L 270.97,149.20L 288.06,159.12L 305.16,168.74L 322.26,178.36L 339.35,187.92L 356.45,197.35L 373.55,214.54L 390.65,229.90L 407.74,243.46L 424.84,255.32L 441.94,264.60" id="Natural gas" class="line" stroke="#B8BFF9" stroke-width="3" stroke-linecap="round"><title>Natural gas</title></path>
	<circle cx="100.00" cy="120.63" data-y="66686" data-x="2020" r="4" fill="#B8BFF9"><title>2020: 66686</title></circle>
	<circle cx="117.10" cy="122.59" data-y="65814" data-x="2021" r="4" fill="#B8BFF9"><title>2021: 65814</title></circle>
	<circle cx="134.19" cy="124.60" data-y="64914" data-x="2022" r="4" fill="#B8BFF9"><title>2022: 64914</title></circle>
	<circle cx="151.29" cy="126.70" data-y="63976" data-x="2023" r="4" fill="#B8BFF9"><title>2023: 63976</title></circle>
	<circle cx="168.39" cy="128.59" data-y="63132" data-x="2024" r="4" fill="#B8BFF9"><title>2024: 63132</title></circle>
	<circle cx="185.48" cy="130.90" data-y="62103" data-x="2025" r="4" fill="#B8BFF9"><title>2025: 62103</title></circle>
	<circle cx="202.58" cy="133.09" data-y="61127" data-x="2026" r="4" fill="#B8BFF9"><title>2026: 61127</title></circle>
	<circle cx="219.68" cy="135.20" data-y="60181" data-x="2027" r="4" fill="#B8BFF9"><title>2027: 60181</title></circle>
	<circle cx="236.77" cy="137.26" data-y="59263" data-x="2028" r="4" fill="#B8BFF9"><title>2028: 59263</title></circle>
	<circle cx="253.87" cy="139.27" data-y="58364" data-x="2029" r="4" fill="#B8BFF9"><title>2029: 58364</title></circle>
	<circle cx="270.97" cy="149.20" data-y="53934" data-x="2030" r="4" fill="#B8BFF9"><title>2030: 53934</title></circle>
	<circle cx="288.06" cy="159.12" data-y="49503" data-x="2031" r="4" fill="#B8BFF9"><title>2031: 49503</title></circle>
	<circle cx="305.16" cy="168.74" data-y="45208" data-x="2032" r="4" fill="#B8BFF9"><title>2032: 45208</title></circle>
	<circle cx="322.26" cy="178.36" data-y="40915" data-x="2033" r="4" fill="#B8BFF9"><title>2033: 40915</title></circle>
	<circle cx="339.35" cy="187.92" data-y="36645" data-x="2034" r="4" fill="#B8BFF9"><title>2034: 36645</title></circle>
	<circle cx="356.45" cy="197.35" data-y="32436" data-x="2035" r="4" fill="#B8BFF9"><title>2035: 32436</title></circle>
	<circle cx="373.55" cy="214.54" data-y="24759" data-x="2036" r="4" fill="#B8BFF9"><title>2036: 24759</title></circle>
	<circle cx="390.65" cy="229.90" data-y="17903" data-x="2037" r="4" fill="#B8BFF9"><title>2037: 17903</title></circle>
	<circle cx="407.74" cy="243.46" data-y="11851" data-x="2038" r="4" fill="#B8BFF9"><title>2038: 11851</title></circle>
	<circle cx="424.84" cy="255.32" data-y="6553" data-x="2039" r="4" fill="#B8BFF9"><title>2039: 6553</title></circle>
	<circle cx="441.94" cy="264.60" data-y="2411" data-x="2040" r="4" fill="#B8BFF9"><title>2040: 2411</title></circle>
</g>
<g data-scenario="hydrogen" class="data-series">	<path d="M 100.00,270.00L 117.10,269.99L 134.19,269.98L 151.29,269.98L 168.39,269.97L 185.48,269.96L 202.58,269.96L 219.68,269.95L 236.77,269.94L 253.87,269.93L 270.97,269.70L 288.06,269.48L 305.16,269.25L 322.26,269.04L 339.35,268.83L 356.45,268.61L 373.55,260.57L 390.65,254.22L 407.74,249.51L 424.84,246.41L 441.94,244.82L 459.03,244.84L 476.13,246.41L 493.23,249.50L 510.32,254.10L 527.42,252.93L 544.52,253.21L 561.61,253.62L 578.71,253.94L 595.81,254.22L 612.90,254.51" id="Hydrogen" class="line" stroke="#0279FA" stroke-width="3" stroke-linecap="round"><title>Hydrogen</title></path>
	<circle cx="100.00" cy="270.00" data-y="2" data-x="2020" r="4" fill="#0279FA"><title>2020: 2</title></circle>
	<circle cx="117.10" cy="269.99" data-y="6" data-x="2021" r="4" fill="#0279FA"><title>2021: 6</title></circle>
	<circle cx="134.19" cy="269.98" data-y="9" data-x="2022" r="4" fill="#0279FA"><title>2022: 9</title></circle>
	<circle cx="151.29" cy="269.98" data-y="10" data-x="2023" r="4" fill="#0279FA"><title>2023: 10</title></circle>
	<circle cx="168.39" cy="269.97" data-y="13" data-x="2024" r="4" fill="#0279FA"><title>2024: 13</title></circle>
	<circle cx="185.48" cy="269.96" data-y="16" data-x="2025" r="4" fill="#0279FA"><title>2025: 16</title></circle>
	<circle cx="202.58" cy="269.96" data-y="18" data-x="2026" r="4" fill="#0279FA"><title>2026: 18</title></circle>
	<circle cx="219.68" cy="269.95" data-y="22" data-x="2027" r="4" fill="#0279FA"><title>2027: 22</title></circle>
	<circle cx="236.77" cy="269.94" data-y="27" data-x="2028" r="4" fill="#0279FA"><title>2028: 27</title></circle>
	<circle cx="253.87" cy="269.93" data-y="32" data-x="2029" r="4" fill="#0279FA"><title>2029: 32</title></circle>
	<circle cx="270.97" cy="269.70" data-y="132" data-x="2030" r="4" fill="#0279FA"><title>2030: 132</title></circle>
	<circle cx="288.06" cy="269.48" data-y="234" data-x="2031" r="4" fill="#0279FA"><title>2031: 234</title></circle>
	<circle cx="305.16" cy="269.25" data-y="333" data-x="2032" r="4" fill="#0279FA"><title>2032: 333</title></circle>
	<circle cx="322.26" cy="269.04" data-y="430" data-x="2033" r="4" fill="#0279FA"><title>2033: 430</title></circle>
	<circle cx="339.35" cy="268.83" data-y="523" data-x="2034" r="4" fill="#0279FA"><title>2034: 523</title></circle>
	<circle cx="356.45" cy="268.61" data-y="619" data-x="2035" r="4" fill="#0279FA"><title>2035: 619</title></circle>
	<circle cx="373.55" cy="260.57" data-y="4208" data-x="2036" r="4" fill="#0279FA"><title>2036: 4208</title></circle>
	<circle cx="390.65" cy="254.22" data-y="7044" data-x="2037" r="4" fill="#0279FA"><title>2037: 7044</title></circle>
	<circle cx="407.74" cy="249.51" data-y="9150" data-x="2038" r="4" fill="#0279FA"><title>2038: 9150</title></circle>
	<circle cx="424.84" cy="246.41" data-y="10532" data-x="2039" r="4" fill="#0279FA"><title>2039: 10532</title></circle>
	<circle cx="441.94" cy="244.82" data-y="11242" data-x="2040" r="4" fill="#0279FA"><title>2040: 11242</title></circle>
	<circle cx="459.03" cy="244.84" data-y="11234" data-x="2041" r="4" fill="#0279FA"><title>2041: 11234</title></circle>
	<circle cx="476.13" cy="246.41" data-y="10534" data-x="2042" r="4" fill="#0279FA"><title>2042: 10534</title></circle>
	<circle cx="493.23" cy="249.50" data-y="9153" data-x="2043" r="4" fill="#0279FA"><title>2043: 9153</title></circle>
	<circle cx="510.32" cy="254.10" data-y="7099" data-x="2044" r="4" fill="#0279FA"><title>2044: 7099</title></circle>
	<circle cx="527.42" cy="252.93" data-y="7622" data-x="2045" r="4" fill="#0279FA"><title>2045: 7622</title></circle>
	<circle cx="544.52" cy="253.21" data-y="7495" data-x="2046" r="4" fill="#0279FA"><title>2046: 7495</title></circle>
	<circle cx="561.61" cy="253.62" data-y="7312" data-x="2047" r="4" fill="#0279FA"><title>2047: 7312</title></circle>
	<circle cx="578.71" cy="253.94" data-y="7170" data-x="2048" r="4" fill="#0279FA"><title>2048: 7170</title></circle>
	<circle cx="595.81" cy="254.22" data-y="7045" data-x="2049" r="4" fill="#0279FA"><title>2049: 7045</title></circle>
	<circle cx="612.90" cy="254.51" data-y="6917" data-x="2050" r="4" fill="#0279FA"><title>2050: 6917</title></circle>
</g>
<g data-scenario="bioenergy" class="data-series">	<path d="M 100.00,266.69L 117.10,265.81L 134.19,264.99L 151.29,264.16L 168.39,263.33L 185.48,262.51L 202.58,261.71L 219.68,261.06L 236.77,260.40L 253.87,259.75L 270.97,258.87L 288.06,258.02L 305.16,257.13L 322.26,256.12L 339.35,255.14L 356.45,254.36L 373.55,253.41L 390.65,252.41L 407.74,251.42L 424.84,250.44L 441.94,250.33L 459.03,252.55L 476.13,258.61L 493.23,263.14L 510.32,266.15L 527.42,267.81L 544.52,267.92L 561.61,268.02L 578.71,268.12L 595.81,268.19L 612.90,268.28" id="Bioenergy" class="line" stroke="#019303" stroke-width="3" stroke-linecap="round"><title>Bioenergy</title></path>
	<circle cx="100.00" cy="266.69" data-y="1478" data-x="2020" r="4" fill="#019303"><title>2020: 1478</title></circle>
	<circle cx="117.10" cy="265.81" data-y="1869" data-x="2021" r="4" fill="#019303"><title>2021: 1869</title></circle>
	<circle cx="134.19" cy="264.99" data-y="2238" data-x="2022" r="4" fill="#019303"><title>2022: 2238</title></circle>
	<circle cx="151.29" cy="264.16" data-y="2607" data-x="2023" r="4" fill="#019303"><title>2023: 2607</title></circle>
	<circle cx="168.39" cy="263.33" data-y="2976" data-x="2024" r="4" fill="#019303"><title>2024: 2976</title></circle>
	<circle cx="185.48" cy="262.51" data-y="3346" data-x="2025" r="4" fill="#019303"><title>2025: 3346</title></circle>
	<circle cx="202.58" cy="261.71" data-y="3700" data-x="2026" r="4" fill="#019303"><title>2026: 3700</title></circle>
	<circle cx="219.68" cy="261.06" data-y="3991" data-x="2027" r="4" fill="#019303"><title>2027: 3991</title></circle>
	<circle cx="236.77" cy="260.40" data-y="4285" data-x="2028" r="4" fill="#019303"><title>2028: 4285</title></circle>
	<circle cx="253.87" cy="259.75" data-y="4577" data-x="2029" r="4" fill="#019303"><title>2029: 4577</title></circle>
	<circle cx="270.97" cy="258.87" data-y="4970" data-x="2030" r="4" fill="#019303"><title>2030: 4970</title></circle>
	<circle cx="288.06" cy="258.02" data-y="5349" data-x="2031" r="4" fill="#019303"><title>2031: 5349</title></circle>
	<circle cx="305.16" cy="257.13" data-y="5744" data-x="2032" r="4" fill="#019303"><title>2032: 5744</title></circle>
	<circle cx="322.26" cy="256.12" data-y="6198" data-x="2033" r="4" fill="#019303"><title>2033: 6198</title></circle>
	<circle cx="339.35" cy="255.14" data-y="6636" data-x="2034" r="4" fill="#019303"><title>2034: 6636</title></circle>
	<circle cx="356.45" cy="254.36" data-y="6981" data-x="2035" r="4" fill="#019303"><title>2035: 6981</title></circle>
	<circle cx="373.55" cy="253.41" data-y="7409" data-x="2036" r="4" fill="#019303"><title>2036: 7409</title></circle>
	<circle cx="390.65" cy="252.41" data-y="7854" data-x="2037" r="4" fill="#019303"><title>2037: 7854</title></circle>
	<circle cx="407.74" cy="251.42" data-y="8295" data-x="2038" r="4" fill="#019303"><title>2038: 8295</title></circle>
	<circle cx="424.84" cy="250.44" data-y="8733" data-x="2039" r="4" fill="#019303"><title>2039: 8733</title></circle>
	<circle cx="441.94" cy="250.33" data-y="8782" data-x="2040" r="4" fill="#019303"><title>2040: 8782</title></circle>
	<circle cx="459.03" cy="252.55" data-y="7791" data-x="2041" r="4" fill="#019303"><title>2041: 7791</title></circle>
	<circle cx="476.13" cy="258.61" data-y="5085" data-x="2042" r="4" fill="#019303"><title>2042: 5085</title></circle>
	<circle cx="493.23" cy="263.14" data-y="3063" data-x="2043" r="4" fill="#019303"><title>2043: 3063</title></circle>
	<circle cx="510.32" cy="266.15" data-y="1720" data-x="2044" r="4" fill="#019303"><title>2044: 1720</title></circle>
	<circle cx="527.42" cy="267.81" data-y="979" data-x="2045" r="4" fill="#019303"><title>2045: 979</title></circle>
	<circle cx="544.52" cy="267.92" data-y="929" data-x="2046" r="4" fill="#019303"><title>2046: 929</title></circle>
	<circle cx="561.61" cy="268.02" data-y="883" data-x="2047" r="4" fill="#019303"><title>2047: 883</title></circle>
	<circle cx="578.71" cy="268.12" data-y="841" data-x="2048" r="4" fill="#019303"><title>2048: 841</title></circle>
	<circle cx="595.81" cy="268.19" data-y="807" data-x="2049" r="4" fill="#019303"><title>2049: 807</title></circle>
	<circle cx="612.90" cy="268.28" data-y="770" data-x="2050" r="4" fill="#019303"><title>2050: 770</title></circle>
</g>
<g data-scenario="petrol" class="data-series">	<path d="M 100.00,219.39L 117.10,219.57L 134.19,221.01L 151.29,224.43L 168.39,228.04L 185.48,231.89L 202.58,235.94L 219.68,239.56L 236.77,242.90L 253.87,246.10L 270.97,248.78L 288.06,251.51L 305.16,254.73L 322.26,257.53L 339.35,259.80L 356.45,261.72L 373.55,263.36L 390.65,264.74L 407.74,265.89L 424.84,266.83L 441.94,267.60L 459.03,268.21L 476.13,268.70L 493.23,269.07L 510.32,269.34L 527.42,269.55L 544.52,269.70L 561.61,269.80L 578.71,269.87L 595.81,269.91L 612.90,269.94" id="Petrol" class="line" stroke="#FFC300" stroke-width="3" stroke-linecap="round"><title>Petrol</title></path>
	<circle cx="100.00" cy="219.39" data-y="22594" data-x="2020" r="4" fill="#FFC300"><title>2020: 22594</title></circle>
	<circle cx="117.10" cy="219.57" data-y="22514" data-x="2021" r="4" fill="#FFC300"><title>2021: 22514</title></circle>
	<circle cx="134.19" cy="221.01" data-y="21872" data-x="2022" r="4" fill="#FFC300"><title>2022: 21872</title></circle>
	<circle cx="151.29" cy="224.43" data-y="20345" data-x="2023" r="4" fill="#FFC300"><title>2023: 20345</title></circle>
	<circle cx="168.39" cy="228.04" data-y="18734" data-x="2024" r="4" fill="#FFC300"><title>2024: 18734</title></circle>
	<circle cx="185.48" cy="231.89" data-y="17015" data-x="2025" r="4" fill="#FFC300"><title>2025: 17015</title></circle>
	<circle cx="202.58" cy="235.94" data-y="15206" data-x="2026" r="4" fill="#FFC300"><title>2026: 15206</title></circle>
	<circle cx="219.68" cy="239.56" data-y="13592" data-x="2027" r="4" fill="#FFC300"><title>2027: 13592</title></circle>
	<circle cx="236.77" cy="242.90" data-y="12101" data-x="2028" r="4" fill="#FFC300"><title>2028: 12101</title></circle>
	<circle cx="253.87" cy="246.10" data-y="10670" data-x="2029" r="4" fill="#FFC300"><title>2029: 10670</title></circle>
	<circle cx="270.97" cy="248.78" data-y="9475" data-x="2030" r="4" fill="#FFC300"><title>2030: 9475</title></circle>
	<circle cx="288.06" cy="251.51" data-y="8255" data-x="2031" r="4" fill="#FFC300"><title>2031: 8255</title></circle>
	<circle cx="305.16" cy="254.73" data-y="6818" data-x="2032" r="4" fill="#FFC300"><title>2032: 6818</title></circle>
	<circle cx="322.26" cy="257.53" data-y="5569" data-x="2033" r="4" fill="#FFC300"><title>2033: 5569</title></circle>
	<circle cx="339.35" cy="259.80" data-y="4556" data-x="2034" r="4" fill="#FFC300"><title>2034: 4556</title></circle>
	<circle cx="356.45" cy="261.72" data-y="3698" data-x="2035" r="4" fill="#FFC300"><title>2035: 3698</title></circle>
	<circle cx="373.55" cy="263.36" data-y="2964" data-x="2036" r="4" fill="#FFC300"><title>2036: 2964</title></circle>
	<circle cx="390.65" cy="264.74" data-y="2348" data-x="2037" r="4" fill="#FFC300"><title>2037: 2348</title></circle>
	<circle cx="407.74" cy="265.89" data-y="1836" data-x="2038" r="4" fill="#FFC300"><title>2038: 1836</title></circle>
	<circle cx="424.84" cy="266.83" data-y="1414" data-x="2039" r="4" fill="#FFC300"><title>2039: 1414</title></circle>
	<circle cx="441.94" cy="267.60" data-y="1070" data-x="2040" r="4" fill="#FFC300"><title>2040: 1070</title></circle>
	<circle cx="459.03" cy="268.21" data-y="797" data-x="2041" r="4" fill="#FFC300"><title>2041: 797</title></circle>
	<circle cx="476.13" cy="268.70" data-y="582" data-x="2042" r="4" fill="#FFC300"><title>2042: 582</title></circle>
	<circle cx="493.23" cy="269.07" data-y="417" data-x="2043" r="4" fill="#FFC300"><title>2043: 417</title></circle>
	<circle cx="510.32" cy="269.34" data-y="294" data-x="2044" r="4" fill="#FFC300"><title>2044: 294</title></circle>
	<circle cx="527.42" cy="269.55" data-y="201" data-x="2045" r="4" fill="#FFC300"><title>2045: 201</title></circle>
	<circle cx="544.52" cy="269.70" data-y="136" data-x="2046" r="4" fill="#FFC300"><title>2046: 136</title></circle>
	<circle cx="561.61" cy="269.80" data-y="91" data-x="2047" r="4" fill="#FFC300"><title>2047: 91</title></circle>
	<circle cx="578.71" cy="269.87" data-y="60" data-x="2048" r="4" fill="#FFC300"><title>2048: 60</title></circle>
	<circle cx="595.81" cy="269.91" data-y="40" data-x="2049" r="4" fill="#FFC300"><title>2049: 40</title></circle>
	<circle cx="612.90" cy="269.94" data-y="26" data-x="2050" r="4" fill="#FFC300"><title>2050: 26</title></circle>
</g>
<g data-scenario="electricity" class="data-series">	<path d="M 100.00,187.16L 117.10,187.45L 134.19,187.47L 151.29,186.92L 168.39,186.05L 185.48,184.83L 202.58,183.32L 219.68,181.41L 236.77,179.06L 253.87,176.34L 270.97,170.02L 288.06,163.81L 305.16,157.85L 322.26,151.88L 339.35,146.00L 356.45,139.58L 373.55,133.40L 390.65,128.01L 407.74,122.95L 424.84,118.32L 441.94,114.01L 459.03,110.20L 476.13,106.64L 493.23,103.31L 510.32,100.31L 527.42,100.05L 544.52,100.05L 561.61,100.07L 578.71,100.18L 595.81,100.34L 612.90,100.52" id="Electricity" class="line" stroke="#cc0935" stroke-width="3" stroke-linecap="round"><title>Electricity</title></path>
	<circle cx="100.00" cy="187.16" data-y="36987" data-x="2020" r="4" fill="#cc0935"><title>2020: 36987</title></circle>
	<circle cx="117.10" cy="187.45" data-y="36856" data-x="2021" r="4" fill="#cc0935"><title>2021: 36856</title></circle>
	<circle cx="134.19" cy="187.47" data-y="36847" data-x="2022" r="4" fill="#cc0935"><title>2022: 36847</title></circle>
	<circle cx="151.29" cy="186.92" data-y="37092" data-x="2023" r="4" fill="#cc0935"><title>2023: 37092</title></circle>
	<circle cx="168.39" cy="186.05" data-y="37479" data-x="2024" r="4" fill="#cc0935"><title>2024: 37479</title></circle>
	<circle cx="185.48" cy="184.83" data-y="38023" data-x="2025" r="4" fill="#cc0935"><title>2025: 38023</title></circle>
	<circle cx="202.58" cy="183.32" data-y="38699" data-x="2026" r="4" fill="#cc0935"><title>2026: 38699</title></circle>
	<circle cx="219.68" cy="181.41" data-y="39551" data-x="2027" r="4" fill="#cc0935"><title>2027: 39551</title></circle>
	<circle cx="236.77" cy="179.06" data-y="40602" data-x="2028" r="4" fill="#cc0935"><title>2028: 40602</title></circle>
	<circle cx="253.87" cy="176.34" data-y="41814" data-x="2029" r="4" fill="#cc0935"><title>2029: 41814</title></circle>
	<circle cx="270.97" cy="170.02" data-y="44635" data-x="2030" r="4" fill="#cc0935"><title>2030: 44635</title></circle>
	<circle cx="288.06" cy="163.81" data-y="47409" data-x="2031" r="4" fill="#cc0935"><title>2031: 47409</title></circle>
	<circle cx="305.16" cy="157.85" data-y="50071" data-x="2032" r="4" fill="#cc0935"><title>2032: 50071</title></circle>
	<circle cx="322.26" cy="151.88" data-y="52737" data-x="2033" r="4" fill="#cc0935"><title>2033: 52737</title></circle>
	<circle cx="339.35" cy="146.00" data-y="55362" data-x="2034" r="4" fill="#cc0935"><title>2034: 55362</title></circle>
	<circle cx="356.45" cy="139.58" data-y="58228" data-x="2035" r="4" fill="#cc0935"><title>2035: 58228</title></circle>
	<circle cx="373.55" cy="133.40" data-y="60988" data-x="2036" r="4" fill="#cc0935"><title>2036: 60988</title></circle>
	<circle cx="390.65" cy="128.01" data-y="63394" data-x="2037" r="4" fill="#cc0935"><title>2037: 63394</title></circle>
	<circle cx="407.74" cy="122.95" data-y="65651" data-x="2038" r="4" fill="#cc0935"><title>2038: 65651</title></circle>
	<circle cx="424.84" cy="118.32" data-y="67721" data-x="2039" r="4" fill="#cc0935"><title>2039: 67721</title></circle>
	<circle cx="441.94" cy="114.01" data-y="69642" data-x="2040" r="4" fill="#cc0935"><title>2040: 69642</title></circle>
	<circle cx="459.03" cy="110.20" data-y="71344" data-x="2041" r="4" fill="#cc0935"><title>2041: 71344</title></circle>
	<circle cx="476.13" cy="106.64" data-y="72936" data-x="2042" r="4" fill="#cc0935"><title>2042: 72936</title></circle>
	<circle cx="493.23" cy="103.31" data-y="74420" data-x="2043" r="4" fill="#cc0935"><title>2043: 74420</title></circle>
	<circle cx="510.32" cy="100.31" data-y="75762" data-x="2044" r="4" fill="#cc0935"><title>2044: 75762</title></circle>
	<circle cx="527.42" cy="100.05" data-y="75875" data-x="2045" r="4" fill="#cc0935"><title>2045: 75875</title></circle>
	<circle cx="544.52" cy="100.05" data-y="75874" data-x="2046" r="4" fill="#cc0935"><title>2046: 75874</title></circle>
	<circle cx="561.61" cy="100.07" data-y="75867" data-x="2047" r="4" fill="#cc0935"><title>2047: 75867</title></circle>
	<circle cx="578.71" cy="100.18" data-y="75818" data-x="2048" r="4" fill="#cc0935"><title>2048: 75818</title></circle>
	<circle cx="595.81" cy="100.34" data-y="75747" data-x="2049" r="4" fill="#cc0935"><title>2049: 75747</title></circle>
	<circle cx="612.90" cy="100.52" data-y="75667" data-x="2050" r="4" fill="#cc0935"><title>2050: 75667</title></circle>
</g>
<g data-scenario="total-emissions" class="data-series">	<path d="M 100.00,10.00L 117.10,11.00L 134.19,14.01L 151.29,19.84L 168.39,25.94L 185.48,33.36L 202.58,42.83L 219.68,51.83L 236.77,60.58L 253.87,68.59L 270.97,74.73L 288.06,81.04L 305.16,88.12L 322.26,93.84L 339.35,98.52L 356.45,101.40L 373.55,103.00L 390.65,104.46L 407.74,105.26L 424.84,105.61L 441.94,105.43L 459.03,104.75L 476.13,103.95L 493.23,103.24L 510.32,101.90L 527.42,100.59L 544.52,99.31L 561.61,97.91L 578.71,96.46L 595.81,96.14L 612.90,96.15" id="Total Emissions" class="line" stroke="#000000" stroke-width="3" stroke-linecap="round"><title>Total Emissions</title></path>
	<circle cx="100.00" cy="10.00" data-y="116080" data-x="2020" r="4" fill="#000000"><title>2020: 116080</title></circle>
	<circle cx="117.10" cy="11.00" data-y="115633" data-x="2021" r="4" fill="#000000"><title>2021: 115633</title></circle>
	<circle cx="134.19" cy="14.01" data-y="114289" data-x="2022" r="4" fill="#000000"><title>2022: 114289</title></circle>
	<circle cx="151.29" cy="19.84" data-y="111687" data-x="2023" r="4" fill="#000000"><title>2023: 111687</title></circle>
	<circle cx="168.39" cy="25.94" data-y="108963" data-x="2024" r="4" fill="#000000"><title>2024: 108963</title></circle>
	<circle cx="185.48" cy="33.36" data-y="105651" data-x="2025" r="4" fill="#000000"><title>2025: 105651</title></circle>
	<circle cx="202.58" cy="42.83" data-y="101422" data-x="2026" r="4" fill="#000000"><title>2026: 101422</title></circle>
	<circle cx="219.68" cy="51.83" data-y="97403" data-x="2027" r="4" fill="#000000"><title>2027: 97403</title></circle>
	<circle cx="236.77" cy="60.58" data-y="93500" data-x="2028" r="4" fill="#000000"><title>2028: 93500</title></circle>
	<circle cx="253.87" cy="68.59" data-y="89922" data-x="2029" r="4" fill="#000000"><title>2029: 89922</title></circle>
	<circle cx="270.97" cy="74.73" data-y="87180" data-x="2030" r="4" fill="#000000"><title>2030: 87180</title></circle>
	<circle cx="288.06" cy="81.04" data-y="84363" data-x="2031" r="4" fill="#000000"><title>2031: 84363</title></circle>
	<circle cx="305.16" cy="88.12" data-y="81203" data-x="2032" r="4" fill="#000000"><title>2032: 81203</title></circle>
	<circle cx="322.26" cy="93.84" data-y="78647" data-x="2033" r="4" fill="#000000"><title>2033: 78647</title></circle>
	<circle cx="339.35" cy="98.52" data-y="76558" data-x="2034" r="4" fill="#000000"><title>2034: 76558</title></circle>
	<circle cx="356.45" cy="101.40" data-y="75272" data-x="2035" r="4" fill="#000000"><title>2035: 75272</title></circle>
	<circle cx="373.55" cy="103.00" data-y="74560" data-x="2036" r="4" fill="#000000"><title>2036: 74560</title></circle>
	<circle cx="390.65" cy="104.46" data-y="73906" data-x="2037" r="4" fill="#000000"><title>2037: 73906</title></circle>
	<circle cx="407.74" cy="105.26" data-y="73549" data-x="2038" r="4" fill="#000000"><title>2038: 73549</title></circle>
	<circle cx="424.84" cy="105.61" data-y="73394" data-x="2039" r="4" fill="#000000"><title>2039: 73394</title></circle>
	<circle cx="441.94" cy="105.43" data-y="73476" data-x="2040" r="4" fill="#000000"><title>2040: 73476</title></circle>
	<circle cx="459.03" cy="104.75" data-y="73776" data-x="2041" r="4" fill="#000000"><title>2041: 73776</title></circle>
	<circle cx="476.13" cy="103.95" data-y="74136" data-x="2042" r="4" fill="#000000"><title>2042: 74136</title></circle>
	<circle cx="493.23" cy="103.24" data-y="74453" data-x="2043" r="4" fill="#000000"><title>2043: 74453</title></circle>
	<circle cx="510.32" cy="101.90" data-y="75052" data-x="2044" r="4" fill="#000000"><title>2044: 75052</title></circle>
	<circle cx="527.42" cy="100.59" data-y="75636" data-x="2045" r="4" fill="#000000"><title>2045: 75636</title></circle>
	<circle cx="544.52" cy="99.31" data-y="76208" data-x="2046" r="4" fill="#000000"><title>2046: 76208</title></circle>
	<circle cx="561.61" cy="97.91" data-y="76832" data-x="2047" r="4" fill="#000000"><title>2047: 76832</title></circle>
	<circle cx="578.71" cy="96.46" data-y="77480" data-x="2048" r="4" fill="#000000"><title>2048: 77480</title></circle>
	<circle cx="595.81" cy="96.14" data-y="77622" data-x="2049" r="4" fill="#000000"><title>2049: 77622</title></circle>
	<circle cx="612.90" cy="96.15" data-y="77618" data-x="2050" r="4" fill="#000000"><title>2050: 77618</title></circle>
</g>
</svg>
