<svg width="640" height="320" viewBox="0 0 640 320" xmlns="http://www.w3.org/2000/svg" style="overflow:display" preserveAspectRatio="xMinYMin meet" overflow="visible">
<defs>
	<style>
	.data-series path.line { fill-opacity: 0; }
	.data-series path.line.dotted { stroke-dasharray: 12 20 }
	.data-series circle { display: none; }
	.data-series:hover path.line, .data-series.on path.line { stroke-width: 5; }
	.data-series:hover circle, .data-series.on circle { display: inline; }
	.data-series circle:hover, .data-series circle.on { r: 6px!important; fill: black; }
	.grid { font-family: "Helvetica Neue",Helvetica,Arial,"Lucida Grande",sans-serif; }
	.grid line { stroke: rgb(0,0,0); stroke-width: 2; stroke-linecap: round; }
	.grid.grid-x text { text-anchor: middle; dominant-baseline: hanging; transform: translateY(10px); }
	.grid.grid-y text { text-anchor: end; dominant-baseline: middle; transform: translateX(-10px); }
	</style>
</defs>
<g class="grid grid-y">
	<line x1="110" y1="270" x2="630" y2="270" data-left="110"></line>
	<text x="110" y="270" text-anchor="end">0</text>
	<text x="110" y="212.271612065233" text-anchor="end">20,000</text>
	<text x="110" y="154.543224130466" text-anchor="end">40,000</text>
	<text x="110" y="96.8148361956992" text-anchor="end">60,000</text>
	<text x="110" y="39.0864482609323" text-anchor="end">80,000</text>
	<text style="text-anchor:middle;dominant-baseline:hanging;font-weight:bold;transform: translateY(140px) rotate(-90deg);">Number</text>
</g>
<g class="grid grid-x">
	<line class="tick" x1="110" y1="270" x2="110" y2="275"></line>
	<text x="110" y="270" text-anchor="middle">2020</text>
	<line class="tick" x1="277.741935483871" y1="270" x2="277.741935483871" y2="275"></line>
	<text x="277.741935483871" y="270" text-anchor="middle">2030</text>
	<line class="tick" x1="445.483870967742" y1="270" x2="445.483870967742" y2="275"></line>
	<text x="445.483870967742" y="270" text-anchor="middle">2040</text>
	<line class="tick" x1="613.225806451613" y1="270" x2="613.225806451613" y2="275"></line>
	<text x="613.225806451613" y="270" text-anchor="middle">2050</text>
	<text style="text-anchor:middle;dominant-baseline:hanging;font-weight:bold;transform: translateY(140px) rotate(-90deg);"></text>
</g>
<g data-scenario="consumer-transformation" class="data-series">	<path d="M 110.00,269.43L 126.77,268.43L 143.55,267.47L 160.32,266.33L 177.10,265.01L 193.87,263.49L 210.65,261.82L 227.42,259.97L 244.19,257.91L 260.97,255.56L 277.74,252.90L 294.52,249.86L 311.29,246.44L 328.06,242.56L 344.84,238.23L 361.61,233.44L 378.39,228.19L 395.16,222.52L 411.94,216.46L 428.71,210.12L 445.48,203.56L 462.26,196.86L 479.03,190.06L 495.81,183.32L 512.58,176.52L 529.35,169.83L 546.13,163.33L 562.90,156.85L 579.68,152.11L 596.45,148.26L 613.23,144.67" id="Consumer transformation" class="line" stroke="#FFBF22" stroke-width="3" stroke-linecap="round"><title>Consumer transformation</title></path>
	<circle cx="110.00" cy="269.43" data-y="197" data-x="2020" r="4" fill="#FFBF22"><title>2020: 197</title></circle>
	<circle cx="126.77" cy="268.43" data-y="545" data-x="2021" r="4" fill="#FFBF22"><title>2021: 545</title></circle>
	<circle cx="143.55" cy="267.47" data-y="876" data-x="2022" r="4" fill="#FFBF22"><title>2022: 876</title></circle>
	<circle cx="160.32" cy="266.33" data-y="1270" data-x="2023" r="4" fill="#FFBF22"><title>2023: 1270</title></circle>
	<circle cx="177.10" cy="265.01" data-y="1730" data-x="2024" r="4" fill="#FFBF22"><title>2024: 1730</title></circle>
	<circle cx="193.87" cy="263.49" data-y="2257" data-x="2025" r="4" fill="#FFBF22"><title>2025: 2257</title></circle>
	<circle cx="210.65" cy="261.82" data-y="2833" data-x="2026" r="4" fill="#FFBF22"><title>2026: 2833</title></circle>
	<circle cx="227.42" cy="259.97" data-y="3476" data-x="2027" r="4" fill="#FFBF22"><title>2027: 3476</title></circle>
	<circle cx="244.19" cy="257.91" data-y="4189" data-x="2028" r="4" fill="#FFBF22"><title>2028: 4189</title></circle>
	<circle cx="260.97" cy="255.56" data-y="5004" data-x="2029" r="4" fill="#FFBF22"><title>2029: 5004</title></circle>
	<circle cx="277.74" cy="252.90" data-y="5926" data-x="2030" r="4" fill="#FFBF22"><title>2030: 5926</title></circle>
	<circle cx="294.52" cy="249.86" data-y="6977" data-x="2031" r="4" fill="#FFBF22"><title>2031: 6977</title></circle>
	<circle cx="311.29" cy="246.44" data-y="8162" data-x="2032" r="4" fill="#FFBF22"><title>2032: 8162</title></circle>
	<circle cx="328.06" cy="242.56" data-y="9507" data-x="2033" r="4" fill="#FFBF22"><title>2033: 9507</title></circle>
	<circle cx="344.84" cy="238.23" data-y="11005" data-x="2034" r="4" fill="#FFBF22"><title>2034: 11005</title></circle>
	<circle cx="361.61" cy="233.44" data-y="12666" data-x="2035" r="4" fill="#FFBF22"><title>2035: 12666</title></circle>
	<circle cx="378.39" cy="228.19" data-y="14486" data-x="2036" r="4" fill="#FFBF22"><title>2036: 14486</title></circle>
	<circle cx="395.16" cy="222.52" data-y="16448" data-x="2037" r="4" fill="#FFBF22"><title>2037: 16448</title></circle>
	<circle cx="411.94" cy="216.46" data-y="18549" data-x="2038" r="4" fill="#FFBF22"><title>2038: 18549</title></circle>
	<circle cx="428.71" cy="210.12" data-y="20747" data-x="2039" r="4" fill="#FFBF22"><title>2039: 20747</title></circle>
	<circle cx="445.48" cy="203.56" data-y="23018" data-x="2040" r="4" fill="#FFBF22"><title>2040: 23018</title></circle>
	<circle cx="462.26" cy="196.86" data-y="25340" data-x="2041" r="4" fill="#FFBF22"><title>2041: 25340</title></circle>
	<circle cx="479.03" cy="190.06" data-y="27694" data-x="2042" r="4" fill="#FFBF22"><title>2042: 27694</title></circle>
	<circle cx="495.81" cy="183.32" data-y="30030" data-x="2043" r="4" fill="#FFBF22"><title>2043: 30030</title></circle>
	<circle cx="512.58" cy="176.52" data-y="32386" data-x="2044" r="4" fill="#FFBF22"><title>2044: 32386</title></circle>
	<circle cx="529.35" cy="169.83" data-y="34704" data-x="2045" r="4" fill="#FFBF22"><title>2045: 34704</title></circle>
	<circle cx="546.13" cy="163.33" data-y="36956" data-x="2046" r="4" fill="#FFBF22"><title>2046: 36956</title></circle>
	<circle cx="562.90" cy="156.85" data-y="39201" data-x="2047" r="4" fill="#FFBF22"><title>2047: 39201</title></circle>
	<circle cx="579.68" cy="152.11" data-y="40844" data-x="2048" r="4" fill="#FFBF22"><title>2048: 40844</title></circle>
	<circle cx="596.45" cy="148.26" data-y="42176" data-x="2049" r="4" fill="#FFBF22"><title>2049: 42176</title></circle>
	<circle cx="613.23" cy="144.67" data-y="43422" data-x="2050" r="4" fill="#FFBF22"><title>2050: 43422</title></circle>
</g>
<g data-scenario="system-transformation" class="data-series">	<path d="M 110.00,269.43L 126.77,269.05L 143.55,268.59L 160.32,268.02L 177.10,267.37L 193.87,266.61L 210.65,265.74L 227.42,264.72L 244.19,263.55L 260.97,262.25L 277.74,260.75L 294.52,258.99L 311.29,257.11L 328.06,254.98L 344.84,252.54L 361.61,249.77L 378.39,246.67L 395.16,243.19L 411.94,239.32L 428.71,235.07L 445.48,230.49L 462.26,225.60L 479.03,220.43L 495.81,215.12L 512.58,209.68L 529.35,204.19L 546.13,198.79L 562.90,194.81L 579.68,193.01L 596.45,192.67L 613.23,193.69" id="System transformation" class="line" stroke="#5BCBF5" stroke-width="3" stroke-linecap="round"><title>System transformation</title></path>
	<circle cx="110.00" cy="269.43" data-y="197" data-x="2020" r="4" fill="#5BCBF5"><title>2020: 197</title></circle>
	<circle cx="126.77" cy="269.05" data-y="330" data-x="2021" r="4" fill="#5BCBF5"><title>2021: 330</title></circle>
	<circle cx="143.55" cy="268.59" data-y="487" data-x="2022" r="4" fill="#5BCBF5"><title>2022: 487</title></circle>
	<circle cx="160.32" cy="268.02" data-y="685" data-x="2023" r="4" fill="#5BCBF5"><title>2023: 685</title></circle>
	<circle cx="177.10" cy="267.37" data-y="910" data-x="2024" r="4" fill="#5BCBF5"><title>2024: 910</title></circle>
	<circle cx="193.87" cy="266.61" data-y="1173" data-x="2025" r="4" fill="#5BCBF5"><title>2025: 1173</title></circle>
	<circle cx="210.65" cy="265.74" data-y="1476" data-x="2026" r="4" fill="#5BCBF5"><title>2026: 1476</title></circle>
	<circle cx="227.42" cy="264.72" data-y="1828" data-x="2027" r="4" fill="#5BCBF5"><title>2027: 1828</title></circle>
	<circle cx="244.19" cy="263.55" data-y="2233" data-x="2028" r="4" fill="#5BCBF5"><title>2028: 2233</title></circle>
	<circle cx="260.97" cy="262.25" data-y="2686" data-x="2029" r="4" fill="#5BCBF5"><title>2029: 2686</title></circle>
	<circle cx="277.74" cy="260.75" data-y="3204" data-x="2030" r="4" fill="#5BCBF5"><title>2030: 3204</title></circle>
	<circle cx="294.52" cy="258.99" data-y="3816" data-x="2031" r="4" fill="#5BCBF5"><title>2031: 3816</title></circle>
	<circle cx="311.29" cy="257.11" data-y="4467" data-x="2032" r="4" fill="#5BCBF5"><title>2032: 4467</title></circle>
	<circle cx="328.06" cy="254.98" data-y="5204" data-x="2033" r="4" fill="#5BCBF5"><title>2033: 5204</title></circle>
	<circle cx="344.84" cy="252.54" data-y="6049" data-x="2034" r="4" fill="#5BCBF5"><title>2034: 6049</title></circle>
	<circle cx="361.61" cy="249.77" data-y="7007" data-x="2035" r="4" fill="#5BCBF5"><title>2035: 7007</title></circle>
	<circle cx="378.39" cy="246.67" data-y="8083" data-x="2036" r="4" fill="#5BCBF5"><title>2036: 8083</title></circle>
	<circle cx="395.16" cy="243.19" data-y="9289" data-x="2037" r="4" fill="#5BCBF5"><title>2037: 9289</title></circle>
	<circle cx="411.94" cy="239.32" data-y="10629" data-x="2038" r="4" fill="#5BCBF5"><title>2038: 10629</title></circle>
	<circle cx="428.71" cy="235.07" data-y="12102" data-x="2039" r="4" fill="#5BCBF5"><title>2039: 12102</title></circle>
	<circle cx="445.48" cy="230.49" data-y="13688" data-x="2040" r="4" fill="#5BCBF5"><title>2040: 13688</title></circle>
	<circle cx="462.26" cy="225.60" data-y="15384" data-x="2041" r="4" fill="#5BCBF5"><title>2041: 15384</title></circle>
	<circle cx="479.03" cy="220.43" data-y="17172" data-x="2042" r="4" fill="#5BCBF5"><title>2042: 17172</title></circle>
	<circle cx="495.81" cy="215.12" data-y="19014" data-x="2043" r="4" fill="#5BCBF5"><title>2043: 19014</title></circle>
	<circle cx="512.58" cy="209.68" data-y="20898" data-x="2044" r="4" fill="#5BCBF5"><title>2044: 20898</title></circle>
	<circle cx="529.35" cy="204.19" data-y="22801" data-x="2045" r="4" fill="#5BCBF5"><title>2045: 22801</title></circle>
	<circle cx="546.13" cy="198.79" data-y="24672" data-x="2046" r="4" fill="#5BCBF5"><title>2046: 24672</title></circle>
	<circle cx="562.90" cy="194.81" data-y="26051" data-x="2047" r="4" fill="#5BCBF5"><title>2047: 26051</title></circle>
	<circle cx="579.68" cy="193.01" data-y="26672" data-x="2048" r="4" fill="#5BCBF5"><title>2048: 26672</title></circle>
	<circle cx="596.45" cy="192.67" data-y="26791" data-x="2049" r="4" fill="#5BCBF5"><title>2049: 26791</title></circle>
	<circle cx="613.23" cy="193.69" data-y="26438" data-x="2050" r="4" fill="#5BCBF5"><title>2050: 26438</title></circle>
</g>
<g data-scenario="steady-progression" class="data-series">	<path d="M 110.00,269.43L 126.77,269.39L 143.55,269.16L 160.32,268.92L 177.10,268.63L 193.87,268.33L 210.65,268.01L 227.42,267.67L 244.19,267.27L 260.97,266.86L 277.74,266.42L 294.52,265.93L 311.29,265.45L 328.06,264.92L 344.84,264.33L 361.61,263.67L 378.39,262.95L 395.16,262.13L 411.94,261.25L 428.71,260.26L 445.48,259.14L 462.26,257.92L 479.03,256.54L 495.81,255.03L 512.58,253.37L 529.35,251.57L 546.13,249.59L 562.90,247.47L 579.68,245.21L 596.45,242.82L 613.23,240.36" id="Steady progression" class="line" stroke="#827B7A" stroke-width="3" stroke-linecap="round"><title>Steady progression</title></path>
	<circle cx="110.00" cy="269.43" data-y="197" data-x="2020" r="4" fill="#827B7A"><title>2020: 197</title></circle>
	<circle cx="126.77" cy="269.39" data-y="213" data-x="2021" r="4" fill="#827B7A"><title>2021: 213</title></circle>
	<circle cx="143.55" cy="269.16" data-y="290" data-x="2022" r="4" fill="#827B7A"><title>2022: 290</title></circle>
	<circle cx="160.32" cy="268.92" data-y="375" data-x="2023" r="4" fill="#827B7A"><title>2023: 375</title></circle>
	<circle cx="177.10" cy="268.63" data-y="476" data-x="2024" r="4" fill="#827B7A"><title>2024: 476</title></circle>
	<circle cx="193.87" cy="268.33" data-y="577" data-x="2025" r="4" fill="#827B7A"><title>2025: 577</title></circle>
	<circle cx="210.65" cy="268.01" data-y="690" data-x="2026" r="4" fill="#827B7A"><title>2026: 690</title></circle>
	<circle cx="227.42" cy="267.67" data-y="808" data-x="2027" r="4" fill="#827B7A"><title>2027: 808</title></circle>
	<circle cx="244.19" cy="267.27" data-y="946" data-x="2028" r="4" fill="#827B7A"><title>2028: 946</title></circle>
	<circle cx="260.97" cy="266.86" data-y="1088" data-x="2029" r="4" fill="#827B7A"><title>2029: 1088</title></circle>
	<circle cx="277.74" cy="266.42" data-y="1240" data-x="2030" r="4" fill="#827B7A"><title>2030: 1240</title></circle>
	<circle cx="294.52" cy="265.93" data-y="1410" data-x="2031" r="4" fill="#827B7A"><title>2031: 1410</title></circle>
	<circle cx="311.29" cy="265.45" data-y="1578" data-x="2032" r="4" fill="#827B7A"><title>2032: 1578</title></circle>
	<circle cx="328.06" cy="264.92" data-y="1759" data-x="2033" r="4" fill="#827B7A"><title>2033: 1759</title></circle>
	<circle cx="344.84" cy="264.33" data-y="1966" data-x="2034" r="4" fill="#827B7A"><title>2034: 1966</title></circle>
	<circle cx="361.61" cy="263.67" data-y="2192" data-x="2035" r="4" fill="#827B7A"><title>2035: 2192</title></circle>
	<circle cx="378.39" cy="262.95" data-y="2441" data-x="2036" r="4" fill="#827B7A"><title>2036: 2441</title></circle>
	<circle cx="395.16" cy="262.13" data-y="2725" data-x="2037" r="4" fill="#827B7A"><title>2037: 2725</title></circle>
	<circle cx="411.94" cy="261.25" data-y="3033" data-x="2038" r="4" fill="#827B7A"><title>2038: 3033</title></circle>
	<circle cx="428.71" cy="260.26" data-y="3374" data-x="2039" r="4" fill="#827B7A"><title>2039: 3374</title></circle>
	<circle cx="445.48" cy="259.14" data-y="3763" data-x="2040" r="4" fill="#827B7A"><title>2040: 3763</title></circle>
	<circle cx="462.26" cy="257.92" data-y="4186" data-x="2041" r="4" fill="#827B7A"><title>2041: 4186</title></circle>
	<circle cx="479.03" cy="256.54" data-y="4662" data-x="2042" r="4" fill="#827B7A"><title>2042: 4662</title></circle>
	<circle cx="495.81" cy="255.03" data-y="5188" data-x="2043" r="4" fill="#827B7A"><title>2043: 5188</title></circle>
	<circle cx="512.58" cy="253.37" data-y="5760" data-x="2044" r="4" fill="#827B7A"><title>2044: 5760</title></circle>
	<circle cx="529.35" cy="251.57" data-y="6386" data-x="2045" r="4" fill="#827B7A"><title>2045: 6386</title></circle>
	<circle cx="546.13" cy="249.59" data-y="7071" data-x="2046" r="4" fill="#827B7A"><title>2046: 7071</title></circle>
	<circle cx="562.90" cy="247.47" data-y="7807" data-x="2047" r="4" fill="#827B7A"><title>2047: 7807</title></circle>
	<circle cx="579.68" cy="245.21" data-y="8588" data-x="2048" r="4" fill="#827B7A"><title>2048: 8588</title></circle>
	<circle cx="596.45" cy="242.82" data-y="9415" data-x="2049" r="4" fill="#827B7A"><title>2049: 9415</title></circle>
	<circle cx="613.23" cy="240.36" data-y="10270" data-x="2050" r="4" fill="#827B7A"><title>2050: 10270</title></circle>
</g>
<g data-scenario="leading-the-way" class="data-series">	<path d="M 110.00,269.43L 126.77,268.94L 143.55,268.34L 160.32,267.64L 177.10,266.81L 193.87,265.85L 210.65,264.77L 227.42,263.56L 244.19,262.18L 260.97,260.59L 277.74,258.73L 294.52,256.58L 311.29,254.11L 328.06,251.27L 344.84,248.06L 361.61,244.48L 378.39,240.52L 395.16,236.23L 411.94,231.62L 428.71,226.80L 445.48,221.86L 462.26,216.83L 479.03,211.75L 495.81,206.79L 512.58,201.81L 529.35,196.94L 546.13,192.26L 562.90,187.57L 579.68,184.68L 596.45,184.44L 613.23,185.10" id="Leading the way" class="line" stroke="#C2CD23" stroke-width="3" stroke-linecap="round"><title>Leading the way</title></path>
	<circle cx="110.00" cy="269.43" data-y="197" data-x="2020" r="4" fill="#C2CD23"><title>2020: 197</title></circle>
	<circle cx="126.77" cy="268.94" data-y="368" data-x="2021" r="4" fill="#C2CD23"><title>2021: 368</title></circle>
	<circle cx="143.55" cy="268.34" data-y="576" data-x="2022" r="4" fill="#C2CD23"><title>2022: 576</title></circle>
	<circle cx="160.32" cy="267.64" data-y="817" data-x="2023" r="4" fill="#C2CD23"><title>2023: 817</title></circle>
	<circle cx="177.10" cy="266.81" data-y="1106" data-x="2024" r="4" fill="#C2CD23"><title>2024: 1106</title></circle>
	<circle cx="193.87" cy="265.85" data-y="1439" data-x="2025" r="4" fill="#C2CD23"><title>2025: 1439</title></circle>
	<circle cx="210.65" cy="264.77" data-y="1813" data-x="2026" r="4" fill="#C2CD23"><title>2026: 1813</title></circle>
	<circle cx="227.42" cy="263.56" data-y="2231" data-x="2027" r="4" fill="#C2CD23"><title>2027: 2231</title></circle>
	<circle cx="244.19" cy="262.18" data-y="2709" data-x="2028" r="4" fill="#C2CD23"><title>2028: 2709</title></circle>
	<circle cx="260.97" cy="260.59" data-y="3260" data-x="2029" r="4" fill="#C2CD23"><title>2029: 3260</title></circle>
	<circle cx="277.74" cy="258.73" data-y="3905" data-x="2030" r="4" fill="#C2CD23"><title>2030: 3905</title></circle>
	<circle cx="294.52" cy="256.58" data-y="4648" data-x="2031" r="4" fill="#C2CD23"><title>2031: 4648</title></circle>
	<circle cx="311.29" cy="254.11" data-y="5504" data-x="2032" r="4" fill="#C2CD23"><title>2032: 5504</title></circle>
	<circle cx="328.06" cy="251.27" data-y="6488" data-x="2033" r="4" fill="#C2CD23"><title>2033: 6488</title></circle>
	<circle cx="344.84" cy="248.06" data-y="7600" data-x="2034" r="4" fill="#C2CD23"><title>2034: 7600</title></circle>
	<circle cx="361.61" cy="244.48" data-y="8842" data-x="2035" r="4" fill="#C2CD23"><title>2035: 8842</title></circle>
	<circle cx="378.39" cy="240.52" data-y="10213" data-x="2036" r="4" fill="#C2CD23"><title>2036: 10213</title></circle>
	<circle cx="395.16" cy="236.23" data-y="11701" data-x="2037" r="4" fill="#C2CD23"><title>2037: 11701</title></circle>
	<circle cx="411.94" cy="231.62" data-y="13298" data-x="2038" r="4" fill="#C2CD23"><title>2038: 13298</title></circle>
	<circle cx="428.71" cy="226.80" data-y="14967" data-x="2039" r="4" fill="#C2CD23"><title>2039: 14967</title></circle>
	<circle cx="445.48" cy="221.86" data-y="16678" data-x="2040" r="4" fill="#C2CD23"><title>2040: 16678</title></circle>
	<circle cx="462.26" cy="216.83" data-y="18422" data-x="2041" r="4" fill="#C2CD23"><title>2041: 18422</title></circle>
	<circle cx="479.03" cy="211.75" data-y="20180" data-x="2042" r="4" fill="#C2CD23"><title>2042: 20180</title></circle>
	<circle cx="495.81" cy="206.79" data-y="21899" data-x="2043" r="4" fill="#C2CD23"><title>2043: 21899</title></circle>
	<circle cx="512.58" cy="201.81" data-y="23623" data-x="2044" r="4" fill="#C2CD23"><title>2044: 23623</title></circle>
	<circle cx="529.35" cy="196.94" data-y="25311" data-x="2045" r="4" fill="#C2CD23"><title>2045: 25311</title></circle>
	<circle cx="546.13" cy="192.26" data-y="26933" data-x="2046" r="4" fill="#C2CD23"><title>2046: 26933</title></circle>
	<circle cx="562.90" cy="187.57" data-y="28559" data-x="2047" r="4" fill="#C2CD23"><title>2047: 28559</title></circle>
	<circle cx="579.68" cy="184.68" data-y="29559" data-x="2048" r="4" fill="#C2CD23"><title>2048: 29559</title></circle>
	<circle cx="596.45" cy="184.44" data-y="29643" data-x="2049" r="4" fill="#C2CD23"><title>2049: 29643</title></circle>
	<circle cx="613.23" cy="185.10" data-y="29413" data-x="2050" r="4" fill="#C2CD23"><title>2050: 29413</title></circle>
</g>
<g data-scenario="planning-scenario" class="data-series">	<path d="M 110.00,269.91L 126.77,269.45L 143.55,268.63L 160.32,267.47L 177.10,265.96L 193.87,264.11L 210.65,259.74L 227.42,252.95L 244.19,243.68L 260.97,231.97L 277.74,217.81L 294.52,201.27L 311.29,183.56L 328.06,164.73L 344.84,144.84L 361.61,123.95L 378.39,104.65L 395.16,86.93L 411.94,70.81L 428.71,56.45L 445.48,43.89L 462.26,33.86L 479.03,25.92L 495.81,20.00L 512.58,16.04L 529.35,14.01L 546.13,12.85L 562.90,11.93L 579.68,11.27L 596.45,10.63L 613.23,10.00" id="NPg Planning Scenario" class="line" stroke="#ab1236" stroke-width="3" stroke-linecap="round"><title>NPg Planning Scenario</title></path>
	<circle cx="110.00" cy="269.91" data-y="32" data-x="2020" r="4" fill="#ab1236"><title>2020: 32</title></circle>
	<circle cx="126.77" cy="269.45" data-y="189" data-x="2021" r="4" fill="#ab1236"><title>2021: 189</title></circle>
	<circle cx="143.55" cy="268.63" data-y="475" data-x="2022" r="4" fill="#ab1236"><title>2022: 475</title></circle>
	<circle cx="160.32" cy="267.47" data-y="875" data-x="2023" r="4" fill="#ab1236"><title>2023: 875</title></circle>
	<circle cx="177.10" cy="265.96" data-y="1398" data-x="2024" r="4" fill="#ab1236"><title>2024: 1398</title></circle>
	<circle cx="193.87" cy="264.11" data-y="2041" data-x="2025" r="4" fill="#ab1236"><title>2025: 2041</title></circle>
	<circle cx="210.65" cy="259.74" data-y="3553" data-x="2026" r="4" fill="#ab1236"><title>2026: 3553</title></circle>
	<circle cx="227.42" cy="252.95" data-y="5907" data-x="2027" r="4" fill="#ab1236"><title>2027: 5907</title></circle>
	<circle cx="244.19" cy="243.68" data-y="9118" data-x="2028" r="4" fill="#ab1236"><title>2028: 9118</title></circle>
	<circle cx="260.97" cy="231.97" data-y="13177" data-x="2029" r="4" fill="#ab1236"><title>2029: 13177</title></circle>
	<circle cx="277.74" cy="217.81" data-y="18082" data-x="2030" r="4" fill="#ab1236"><title>2030: 18082</title></circle>
	<circle cx="294.52" cy="201.27" data-y="23811" data-x="2031" r="4" fill="#ab1236"><title>2031: 23811</title></circle>
	<circle cx="311.29" cy="183.56" data-y="29946" data-x="2032" r="4" fill="#ab1236"><title>2032: 29946</title></circle>
	<circle cx="328.06" cy="164.73" data-y="36471" data-x="2033" r="4" fill="#ab1236"><title>2033: 36471</title></circle>
	<circle cx="344.84" cy="144.84" data-y="43360" data-x="2034" r="4" fill="#ab1236"><title>2034: 43360</title></circle>
	<circle cx="361.61" cy="123.95" data-y="50598" data-x="2035" r="4" fill="#ab1236"><title>2035: 50598</title></circle>
	<circle cx="378.39" cy="104.65" data-y="57286" data-x="2036" r="4" fill="#ab1236"><title>2036: 57286</title></circle>
	<circle cx="395.16" cy="86.93" data-y="63424" data-x="2037" r="4" fill="#ab1236"><title>2037: 63424</title></circle>
	<circle cx="411.94" cy="70.81" data-y="69010" data-x="2038" r="4" fill="#ab1236"><title>2038: 69010</title></circle>
	<circle cx="428.71" cy="56.45" data-y="73984" data-x="2039" r="4" fill="#ab1236"><title>2039: 73984</title></circle>
	<circle cx="445.48" cy="43.89" data-y="78337" data-x="2040" r="4" fill="#ab1236"><title>2040: 78337</title></circle>
	<circle cx="462.26" cy="33.86" data-y="81809" data-x="2041" r="4" fill="#ab1236"><title>2041: 81809</title></circle>
	<circle cx="479.03" cy="25.92" data-y="84562" data-x="2042" r="4" fill="#ab1236"><title>2042: 84562</title></circle>
	<circle cx="495.81" cy="20.00" data-y="86611" data-x="2043" r="4" fill="#ab1236"><title>2043: 86611</title></circle>
	<circle cx="512.58" cy="16.04" data-y="87985" data-x="2044" r="4" fill="#ab1236"><title>2044: 87985</title></circle>
	<circle cx="529.35" cy="14.01" data-y="88688" data-x="2045" r="4" fill="#ab1236"><title>2045: 88688</title></circle>
	<circle cx="546.13" cy="12.85" data-y="89089" data-x="2046" r="4" fill="#ab1236"><title>2046: 89089</title></circle>
	<circle cx="562.90" cy="11.93" data-y="89407" data-x="2047" r="4" fill="#ab1236"><title>2047: 89407</title></circle>
	<circle cx="579.68" cy="11.27" data-y="89638" data-x="2048" r="4" fill="#ab1236"><title>2048: 89638</title></circle>
	<circle cx="596.45" cy="10.63" data-y="89860" data-x="2049" r="4" fill="#ab1236"><title>2049: 89860</title></circle>
	<circle cx="613.23" cy="10.00" data-y="90077" data-x="2050" r="4" fill="#ab1236"><title>2050: 90077</title></circle>
</g>
</svg>
