<svg width="640" height="320" viewBox="0 0 640 320" xmlns="http://www.w3.org/2000/svg" style="overflow:display" preserveAspectRatio="xMinYMin meet" overflow="visible">
<defs>
	<style>
	.data-series path.line { fill-opacity: 0; }
	.data-series path.line.dotted { stroke-dasharray: 12 20 }
	.data-series circle { display: none; }
	.data-series:hover path.line, .data-series.on path.line { stroke-width: 5; }
	.data-series:hover circle, .data-series.on circle { display: inline; }
	.data-series circle:hover, .data-series circle.on { r: 6px!important; fill: black; }
	.grid { font-family: "Helvetica Neue",Helvetica,Arial,"Lucida Grande",sans-serif; }
	.grid line { stroke: rgb(0,0,0); stroke-width: 2; stroke-linecap: round; }
	.grid.grid-x text { text-anchor: middle; dominant-baseline: hanging; transform: translateY(10px); }
	.grid.grid-y text { text-anchor: end; dominant-baseline: middle; transform: translateX(-10px); }
	</style>
</defs>
<g class="grid grid-y">
	<line x1="100" y1="270" x2="630" y2="270" data-left="100"></line>
	<text x="100" y="270" text-anchor="end">0</text>
	<text x="100" y="191.297977963434" text-anchor="end">200</text>
	<text x="100" y="112.595955926868" text-anchor="end">400</text>
	<text x="100" y="33.8939338903015" text-anchor="end">600</text>
	<text style="text-anchor:middle;dominant-baseline:hanging;font-weight:bold;transform: translateY(140px) rotate(-90deg);">Peak demand (MW)</text>
</g>
<g class="grid grid-x">
	<line class="tick" x1="116.5625" y1="270" x2="116.5625" y2="275"></line>
	<text x="116.5625" y="270" text-anchor="middle">2020</text>
	<line class="tick" x1="282.1875" y1="270" x2="282.1875" y2="275"></line>
	<text x="282.1875" y="270" text-anchor="middle">2030</text>
	<line class="tick" x1="447.8125" y1="270" x2="447.8125" y2="275"></line>
	<text x="447.8125" y="270" text-anchor="middle">2040</text>
	<line class="tick" x1="613.4375" y1="270" x2="613.4375" y2="275"></line>
	<text x="613.4375" y="270" text-anchor="middle">2050</text>
	<text style="text-anchor:middle;dominant-baseline:hanging;font-weight:bold;transform: translateY(140px) rotate(-90deg);"></text>
</g>
<g data-scenario="electric-hgvs" class="data-series">	<path d="M 100.00,270.00L 116.56,269.91L 133.12,269.60L 149.69,269.04L 166.25,268.26L 182.81,267.24L 199.38,265.99L 215.94,262.11L 232.50,255.81L 249.06,247.19L 265.62,236.37L 282.19,223.46L 298.75,208.60L 315.31,193.90L 331.88,179.37L 348.44,165.04L 365.00,150.91L 381.56,136.15L 398.12,122.44L 414.69,109.78L 431.25,98.17L 447.81,87.61L 464.38,79.26L 480.94,72.39L 497.50,67.02L 514.06,63.14L 530.62,60.75L 547.19,59.43L 563.75,58.11L 580.31,56.80L 596.88,55.49L 613.44,54.18" id="Electric HGVs" class="line" stroke="#FF9966" stroke-width="3" stroke-linecap="round"><title>Electric HGVs</title></path>
	<circle cx="100.00" cy="270.00" data-y="0.000" data-x="2019" r="4" fill="#FF9966"><title>2019: 0.000</title></circle>
	<circle cx="116.56" cy="269.91" data-y="0.217" data-x="2020" r="4" fill="#FF9966"><title>2020: 0.217</title></circle>
	<circle cx="133.12" cy="269.60" data-y="1.027" data-x="2021" r="4" fill="#FF9966"><title>2021: 1.027</title></circle>
	<circle cx="149.69" cy="269.04" data-y="2.431" data-x="2022" r="4" fill="#FF9966"><title>2022: 2.431</title></circle>
	<circle cx="166.25" cy="268.26" data-y="4.428" data-x="2023" r="4" fill="#FF9966"><title>2023: 4.428</title></circle>
	<circle cx="182.81" cy="267.24" data-y="7.019" data-x="2024" r="4" fill="#FF9966"><title>2024: 7.019</title></circle>
	<circle cx="199.38" cy="265.99" data-y="10.203" data-x="2025" r="4" fill="#FF9966"><title>2025: 10.203</title></circle>
	<circle cx="215.94" cy="262.11" data-y="20.040" data-x="2026" r="4" fill="#FF9966"><title>2026: 20.040</title></circle>
	<circle cx="232.50" cy="255.81" data-y="36.057" data-x="2027" r="4" fill="#FF9966"><title>2027: 36.057</title></circle>
	<circle cx="249.06" cy="247.19" data-y="57.962" data-x="2028" r="4" fill="#FF9966"><title>2028: 57.962</title></circle>
	<circle cx="265.62" cy="236.37" data-y="85.465" data-x="2029" r="4" fill="#FF9966"><title>2029: 85.465</title></circle>
	<circle cx="282.19" cy="223.46" data-y="118.275" data-x="2030" r="4" fill="#FF9966"><title>2030: 118.275</title></circle>
	<circle cx="298.75" cy="208.60" data-y="156.041" data-x="2031" r="4" fill="#FF9966"><title>2031: 156.041</title></circle>
	<circle cx="315.31" cy="193.90" data-y="193.398" data-x="2032" r="4" fill="#FF9966"><title>2032: 193.398</title></circle>
	<circle cx="331.88" cy="179.37" data-y="230.308" data-x="2033" r="4" fill="#FF9966"><title>2033: 230.308</title></circle>
	<circle cx="348.44" cy="165.04" data-y="266.735" data-x="2034" r="4" fill="#FF9966"><title>2034: 266.735</title></circle>
	<circle cx="365.00" cy="150.91" data-y="302.638" data-x="2035" r="4" fill="#FF9966"><title>2035: 302.638</title></circle>
	<circle cx="381.56" cy="136.15" data-y="340.147" data-x="2036" r="4" fill="#FF9966"><title>2036: 340.147</title></circle>
	<circle cx="398.12" cy="122.44" data-y="374.988" data-x="2037" r="4" fill="#FF9966"><title>2037: 374.988</title></circle>
	<circle cx="414.69" cy="109.78" data-y="407.158" data-x="2038" r="4" fill="#FF9966"><title>2038: 407.158</title></circle>
	<circle cx="431.25" cy="98.17" data-y="436.658" data-x="2039" r="4" fill="#FF9966"><title>2039: 436.658</title></circle>
	<circle cx="447.81" cy="87.61" data-y="463.484" data-x="2040" r="4" fill="#FF9966"><title>2040: 463.484</title></circle>
	<circle cx="464.38" cy="79.26" data-y="484.726" data-x="2041" r="4" fill="#FF9966"><title>2041: 484.726</title></circle>
	<circle cx="480.94" cy="72.39" data-y="502.172" data-x="2042" r="4" fill="#FF9966"><title>2042: 502.172</title></circle>
	<circle cx="497.50" cy="67.02" data-y="515.823" data-x="2043" r="4" fill="#FF9966"><title>2043: 515.823</title></circle>
	<circle cx="514.06" cy="63.14" data-y="525.679" data-x="2044" r="4" fill="#FF9966"><title>2044: 525.679</title></circle>
	<circle cx="530.62" cy="60.75" data-y="531.741" data-x="2045" r="4" fill="#FF9966"><title>2045: 531.741</title></circle>
	<circle cx="547.19" cy="59.43" data-y="535.100" data-x="2046" r="4" fill="#FF9966"><title>2046: 535.100</title></circle>
	<circle cx="563.75" cy="58.11" data-y="538.450" data-x="2047" r="4" fill="#FF9966"><title>2047: 538.450</title></circle>
	<circle cx="580.31" cy="56.80" data-y="541.792" data-x="2048" r="4" fill="#FF9966"><title>2048: 541.792</title></circle>
	<circle cx="596.88" cy="55.49" data-y="545.127" data-x="2049" r="4" fill="#FF9966"><title>2049: 545.127</title></circle>
	<circle cx="613.44" cy="54.18" data-y="548.453" data-x="2050" r="4" fill="#FF9966"><title>2050: 548.453</title></circle>
</g>
<g data-scenario="electric-buses" class="data-series">	<path d="M 100.00,270.00L 116.56,269.96L 133.12,269.82L 149.69,269.57L 166.25,269.21L 182.81,268.75L 199.38,268.19L 215.94,267.49L 232.50,266.62L 249.06,265.61L 265.62,264.47L 282.19,263.20L 298.75,261.89L 315.31,260.54L 331.88,259.20L 348.44,257.91L 365.00,256.66L 381.56,255.11L 398.12,253.62L 414.69,252.17L 431.25,250.87L 447.81,249.71L 464.38,248.72L 480.94,247.90L 497.50,247.24L 514.06,246.69L 530.62,246.25L 547.19,245.92L 563.75,245.69L 580.31,245.57L 596.88,245.48L 613.44,245.41" id="Electric Buses" class="line" stroke="#466228" stroke-width="3" stroke-linecap="round"><title>Electric Buses</title></path>
	<circle cx="100.00" cy="270.00" data-y="0.000" data-x="2019" r="4" fill="#466228"><title>2019: 0.000</title></circle>
	<circle cx="116.56" cy="269.96" data-y="0.101" data-x="2020" r="4" fill="#466228"><title>2020: 0.101</title></circle>
	<circle cx="133.12" cy="269.82" data-y="0.469" data-x="2021" r="4" fill="#466228"><title>2021: 0.469</title></circle>
	<circle cx="149.69" cy="269.57" data-y="1.103" data-x="2022" r="4" fill="#466228"><title>2022: 1.103</title></circle>
	<circle cx="166.25" cy="269.21" data-y="2.003" data-x="2023" r="4" fill="#466228"><title>2023: 2.003</title></circle>
	<circle cx="182.81" cy="268.75" data-y="3.170" data-x="2024" r="4" fill="#466228"><title>2024: 3.170</title></circle>
	<circle cx="199.38" cy="268.19" data-y="4.603" data-x="2025" r="4" fill="#466228"><title>2025: 4.603</title></circle>
	<circle cx="215.94" cy="267.49" data-y="6.386" data-x="2026" r="4" fill="#466228"><title>2026: 6.386</title></circle>
	<circle cx="232.50" cy="266.62" data-y="8.578" data-x="2027" r="4" fill="#466228"><title>2027: 8.578</title></circle>
	<circle cx="249.06" cy="265.61" data-y="11.147" data-x="2028" r="4" fill="#466228"><title>2028: 11.147</title></circle>
	<circle cx="265.62" cy="264.47" data-y="14.060" data-x="2029" r="4" fill="#466228"><title>2029: 14.060</title></circle>
	<circle cx="282.19" cy="263.20" data-y="17.287" data-x="2030" r="4" fill="#466228"><title>2030: 17.287</title></circle>
	<circle cx="298.75" cy="261.89" data-y="20.615" data-x="2031" r="4" fill="#466228"><title>2031: 20.615</title></circle>
	<circle cx="315.31" cy="260.54" data-y="24.032" data-x="2032" r="4" fill="#466228"><title>2032: 24.032</title></circle>
	<circle cx="331.88" cy="259.20" data-y="27.447" data-x="2033" r="4" fill="#466228"><title>2033: 27.447</title></circle>
	<circle cx="348.44" cy="257.91" data-y="30.731" data-x="2034" r="4" fill="#466228"><title>2034: 30.731</title></circle>
	<circle cx="365.00" cy="256.66" data-y="33.893" data-x="2035" r="4" fill="#466228"><title>2035: 33.893</title></circle>
	<circle cx="381.56" cy="255.11" data-y="37.828" data-x="2036" r="4" fill="#466228"><title>2036: 37.828</title></circle>
	<circle cx="398.12" cy="253.62" data-y="41.633" data-x="2037" r="4" fill="#466228"><title>2037: 41.633</title></circle>
	<circle cx="414.69" cy="252.17" data-y="45.309" data-x="2038" r="4" fill="#466228"><title>2038: 45.309</title></circle>
	<circle cx="431.25" cy="250.87" data-y="48.619" data-x="2039" r="4" fill="#466228"><title>2039: 48.619</title></circle>
	<circle cx="447.81" cy="249.71" data-y="51.562" data-x="2040" r="4" fill="#466228"><title>2040: 51.562</title></circle>
	<circle cx="464.38" cy="248.72" data-y="54.080" data-x="2041" r="4" fill="#466228"><title>2041: 54.080</title></circle>
	<circle cx="480.94" cy="247.90" data-y="56.170" data-x="2042" r="4" fill="#466228"><title>2042: 56.170</title></circle>
	<circle cx="497.50" cy="247.24" data-y="57.833" data-x="2043" r="4" fill="#466228"><title>2043: 57.833</title></circle>
	<circle cx="514.06" cy="246.69" data-y="59.225" data-x="2044" r="4" fill="#466228"><title>2044: 59.225</title></circle>
	<circle cx="530.62" cy="246.25" data-y="60.344" data-x="2045" r="4" fill="#466228"><title>2045: 60.344</title></circle>
	<circle cx="547.19" cy="245.92" data-y="61.193" data-x="2046" r="4" fill="#466228"><title>2046: 61.193</title></circle>
	<circle cx="563.75" cy="245.69" data-y="61.769" data-x="2047" r="4" fill="#466228"><title>2047: 61.769</title></circle>
	<circle cx="580.31" cy="245.57" data-y="62.072" data-x="2048" r="4" fill="#466228"><title>2048: 62.072</title></circle>
	<circle cx="596.88" cy="245.48" data-y="62.313" data-x="2049" r="4" fill="#466228"><title>2049: 62.313</title></circle>
	<circle cx="613.44" cy="245.41" data-y="62.494" data-x="2050" r="4" fill="#466228"><title>2050: 62.494</title></circle>
</g>
<g data-scenario="electrolysers" class="data-series">	<path d="M 100.00,270.00L 116.56,269.98L 133.12,269.95L 149.69,269.93L 166.25,269.92L 182.81,269.90L 199.38,269.88L 215.94,269.86L 232.50,269.83L 249.06,269.79L 265.62,269.75L 282.19,268.97L 298.75,268.17L 315.31,267.40L 331.88,266.65L 348.44,265.92L 365.00,265.17L 381.56,264.46L 398.12,263.83L 414.69,263.27L 431.25,262.82L 447.81,262.46L 464.38,262.28L 480.94,262.15L 497.50,262.04L 514.06,261.97L 530.62,261.92L 547.19,261.88L 563.75,261.89L 580.31,261.91L 596.88,261.94L 613.44,261.97" id="Electrolysers" class="line" stroke="#4BACC6" stroke-width="3" stroke-linecap="round"><title>Electrolysers</title></path>
	<circle cx="100.00" cy="270.00" data-y="0.000" data-x="2019" r="4" fill="#4BACC6"><title>2019: 0.000</title></circle>
	<circle cx="116.56" cy="269.98" data-y="0.047" data-x="2020" r="4" fill="#4BACC6"><title>2020: 0.047</title></circle>
	<circle cx="133.12" cy="269.95" data-y="0.115" data-x="2021" r="4" fill="#4BACC6"><title>2021: 0.115</title></circle>
	<circle cx="149.69" cy="269.93" data-y="0.172" data-x="2022" r="4" fill="#4BACC6"><title>2022: 0.172</title></circle>
	<circle cx="166.25" cy="269.92" data-y="0.203" data-x="2023" r="4" fill="#4BACC6"><title>2023: 0.203</title></circle>
	<circle cx="182.81" cy="269.90" data-y="0.250" data-x="2024" r="4" fill="#4BACC6"><title>2024: 0.250</title></circle>
	<circle cx="199.38" cy="269.88" data-y="0.317" data-x="2025" r="4" fill="#4BACC6"><title>2025: 0.317</title></circle>
	<circle cx="215.94" cy="269.86" data-y="0.366" data-x="2026" r="4" fill="#4BACC6"><title>2026: 0.366</title></circle>
	<circle cx="232.50" cy="269.83" data-y="0.434" data-x="2027" r="4" fill="#4BACC6"><title>2027: 0.434</title></circle>
	<circle cx="249.06" cy="269.79" data-y="0.532" data-x="2028" r="4" fill="#4BACC6"><title>2028: 0.532</title></circle>
	<circle cx="265.62" cy="269.75" data-y="0.631" data-x="2029" r="4" fill="#4BACC6"><title>2029: 0.631</title></circle>
	<circle cx="282.19" cy="268.97" data-y="2.621" data-x="2030" r="4" fill="#4BACC6"><title>2030: 2.621</title></circle>
	<circle cx="298.75" cy="268.17" data-y="4.649" data-x="2031" r="4" fill="#4BACC6"><title>2031: 4.649</title></circle>
	<circle cx="315.31" cy="267.40" data-y="6.597" data-x="2032" r="4" fill="#4BACC6"><title>2032: 6.597</title></circle>
	<circle cx="331.88" cy="266.65" data-y="8.521" data-x="2033" r="4" fill="#4BACC6"><title>2033: 8.521</title></circle>
	<circle cx="348.44" cy="265.92" data-y="10.379" data-x="2034" r="4" fill="#4BACC6"><title>2034: 10.379</title></circle>
	<circle cx="365.00" cy="265.17" data-y="12.271" data-x="2035" r="4" fill="#4BACC6"><title>2035: 12.271</title></circle>
	<circle cx="381.56" cy="264.46" data-y="14.068" data-x="2036" r="4" fill="#4BACC6"><title>2036: 14.068</title></circle>
	<circle cx="398.12" cy="263.83" data-y="15.681" data-x="2037" r="4" fill="#4BACC6"><title>2037: 15.681</title></circle>
	<circle cx="414.69" cy="263.27" data-y="17.097" data-x="2038" r="4" fill="#4BACC6"><title>2038: 17.097</title></circle>
	<circle cx="431.25" cy="262.82" data-y="18.256" data-x="2039" r="4" fill="#4BACC6"><title>2039: 18.256</title></circle>
	<circle cx="447.81" cy="262.46" data-y="19.152" data-x="2040" r="4" fill="#4BACC6"><title>2040: 19.152</title></circle>
	<circle cx="464.38" cy="262.28" data-y="19.613" data-x="2041" r="4" fill="#4BACC6"><title>2041: 19.613</title></circle>
	<circle cx="480.94" cy="262.15" data-y="19.956" data-x="2042" r="4" fill="#4BACC6"><title>2042: 19.956</title></circle>
	<circle cx="497.50" cy="262.04" data-y="20.234" data-x="2043" r="4" fill="#4BACC6"><title>2043: 20.234</title></circle>
	<circle cx="514.06" cy="261.97" data-y="20.401" data-x="2044" r="4" fill="#4BACC6"><title>2044: 20.401</title></circle>
	<circle cx="530.62" cy="261.92" data-y="20.522" data-x="2045" r="4" fill="#4BACC6"><title>2045: 20.522</title></circle>
	<circle cx="547.19" cy="261.88" data-y="20.637" data-x="2046" r="4" fill="#4BACC6"><title>2046: 20.637</title></circle>
	<circle cx="563.75" cy="261.89" data-y="20.620" data-x="2047" r="4" fill="#4BACC6"><title>2047: 20.620</title></circle>
	<circle cx="580.31" cy="261.91" data-y="20.565" data-x="2048" r="4" fill="#4BACC6"><title>2048: 20.565</title></circle>
	<circle cx="596.88" cy="261.94" data-y="20.486" data-x="2049" r="4" fill="#4BACC6"><title>2049: 20.486</title></circle>
	<circle cx="613.44" cy="261.97" data-y="20.417" data-x="2050" r="4" fill="#4BACC6"><title>2050: 20.417</title></circle>
</g>
<g data-scenario="large-industry-fuel-switching" class="data-series">	<path d="M 100.00,270.00L 116.56,270.00L 133.12,263.99L 149.69,257.97L 166.25,251.96L 182.81,245.94L 199.38,239.93L 215.94,229.61L 232.50,219.29L 249.06,208.98L 265.62,198.66L 282.19,188.35L 298.75,179.27L 315.31,170.20L 331.88,161.13L 348.44,152.06L 365.00,142.98L 381.56,132.21L 398.12,121.44L 414.69,110.66L 431.25,99.89L 447.81,89.11L 464.38,73.29L 480.94,57.47L 497.50,41.65L 514.06,25.82L 530.62,10.00L 547.19,10.00L 563.75,10.00L 580.31,10.00L 596.88,10.00L 613.44,10.00" id="Large industry Fuel Switching" class="line" stroke="#808080" stroke-width="3" stroke-linecap="round"><title>Large industry Fuel Switching</title></path>
	<circle cx="100.00" cy="270.00" data-y="0.000" data-x="2019" r="4" fill="#808080"><title>2019: 0.000</title></circle>
	<circle cx="116.56" cy="270.00" data-y="0.000" data-x="2020" r="4" fill="#808080"><title>2020: 0.000</title></circle>
	<circle cx="133.12" cy="263.99" data-y="15.285" data-x="2021" r="4" fill="#808080"><title>2021: 15.285</title></circle>
	<circle cx="149.69" cy="257.97" data-y="30.570" data-x="2022" r="4" fill="#808080"><title>2022: 30.570</title></circle>
	<circle cx="166.25" cy="251.96" data-y="45.855" data-x="2023" r="4" fill="#808080"><title>2023: 45.855</title></circle>
	<circle cx="182.81" cy="245.94" data-y="61.140" data-x="2024" r="4" fill="#808080"><title>2024: 61.140</title></circle>
	<circle cx="199.38" cy="239.93" data-y="76.426" data-x="2025" r="4" fill="#808080"><title>2025: 76.426</title></circle>
	<circle cx="215.94" cy="229.61" data-y="102.640" data-x="2026" r="4" fill="#808080"><title>2026: 102.640</title></circle>
	<circle cx="232.50" cy="219.29" data-y="128.855" data-x="2027" r="4" fill="#808080"><title>2027: 128.855</title></circle>
	<circle cx="249.06" cy="208.98" data-y="155.069" data-x="2028" r="4" fill="#808080"><title>2028: 155.069</title></circle>
	<circle cx="265.62" cy="198.66" data-y="181.284" data-x="2029" r="4" fill="#808080"><title>2029: 181.284</title></circle>
	<circle cx="282.19" cy="188.35" data-y="207.499" data-x="2030" r="4" fill="#808080"><title>2030: 207.499</title></circle>
	<circle cx="298.75" cy="179.27" data-y="230.555" data-x="2031" r="4" fill="#808080"><title>2031: 230.555</title></circle>
	<circle cx="315.31" cy="170.20" data-y="253.611" data-x="2032" r="4" fill="#808080"><title>2032: 253.611</title></circle>
	<circle cx="331.88" cy="161.13" data-y="276.668" data-x="2033" r="4" fill="#808080"><title>2033: 276.668</title></circle>
	<circle cx="348.44" cy="152.06" data-y="299.724" data-x="2034" r="4" fill="#808080"><title>2034: 299.724</title></circle>
	<circle cx="365.00" cy="142.98" data-y="322.780" data-x="2035" r="4" fill="#808080"><title>2035: 322.780</title></circle>
	<circle cx="381.56" cy="132.21" data-y="350.159" data-x="2036" r="4" fill="#808080"><title>2036: 350.159</title></circle>
	<circle cx="398.12" cy="121.44" data-y="377.537" data-x="2037" r="4" fill="#808080"><title>2037: 377.537</title></circle>
	<circle cx="414.69" cy="110.66" data-y="404.916" data-x="2038" r="4" fill="#808080"><title>2038: 404.916</title></circle>
	<circle cx="431.25" cy="99.89" data-y="432.294" data-x="2039" r="4" fill="#808080"><title>2039: 432.294</title></circle>
	<circle cx="447.81" cy="89.11" data-y="459.672" data-x="2040" r="4" fill="#808080"><title>2040: 459.672</title></circle>
	<circle cx="464.38" cy="73.29" data-y="499.882" data-x="2041" r="4" fill="#808080"><title>2041: 499.882</title></circle>
	<circle cx="480.94" cy="57.47" data-y="540.091" data-x="2042" r="4" fill="#808080"><title>2042: 540.091</title></circle>
	<circle cx="497.50" cy="41.65" data-y="580.301" data-x="2043" r="4" fill="#808080"><title>2043: 580.301</title></circle>
	<circle cx="514.06" cy="25.82" data-y="620.511" data-x="2044" r="4" fill="#808080"><title>2044: 620.511</title></circle>
	<circle cx="530.62" cy="10.00" data-y="660.720" data-x="2045" r="4" fill="#808080"><title>2045: 660.720</title></circle>
	<circle cx="547.19" cy="10.00" data-y="660.720" data-x="2046" r="4" fill="#808080"><title>2046: 660.720</title></circle>
	<circle cx="563.75" cy="10.00" data-y="660.720" data-x="2047" r="4" fill="#808080"><title>2047: 660.720</title></circle>
	<circle cx="580.31" cy="10.00" data-y="660.720" data-x="2048" r="4" fill="#808080"><title>2048: 660.720</title></circle>
	<circle cx="596.88" cy="10.00" data-y="660.720" data-x="2049" r="4" fill="#808080"><title>2049: 660.720</title></circle>
	<circle cx="613.44" cy="10.00" data-y="660.720" data-x="2050" r="4" fill="#808080"><title>2050: 660.720</title></circle>
</g>
</svg>
