<svg width="640" height="320" viewBox="0 0 640 320" xmlns="http://www.w3.org/2000/svg" style="overflow:display" preserveAspectRatio="xMinYMin meet" overflow="visible">
<defs>
	<style>
	.data-series path.line { fill-opacity: 0; }
	.data-series path.line.dotted { stroke-dasharray: 12 20 }
	.data-series circle { display: none; }
	.data-series:hover path.line, .data-series.on path.line { stroke-width: 5; }
	.data-series:hover circle, .data-series.on circle { display: inline; }
	.data-series circle:hover, .data-series circle.on { r: 6px!important; fill: black; }
	.grid { font-family: "Helvetica Neue",Helvetica,Arial,"Lucida Grande",sans-serif; }
	.grid line { stroke: rgb(0,0,0); stroke-width: 2; stroke-linecap: round; }
	.grid.grid-x text { text-anchor: middle; dominant-baseline: hanging; transform: translateY(10px); }
	.grid.grid-y text { text-anchor: end; dominant-baseline: middle; transform: translateX(-10px); }
	</style>
</defs>
<g class="grid grid-y">
	<line x1="70" y1="270" x2="630" y2="270" data-left="70"></line>
	<text x="70" y="270" text-anchor="end">0</text>
	<text x="70" y="183.197342503255" text-anchor="end">20</text>
	<text x="70" y="96.3946850065102" text-anchor="end">40</text>
	<text x="70" y="9.59202750976528" text-anchor="end">60</text>
	<text style="text-anchor:middle;dominant-baseline:hanging;font-weight:bold;transform: translateY(140px) rotate(-90deg);">Energy consumption (TWh)</text>
</g>
<g class="grid grid-x">
	<line class="tick" x1="87.5" y1="270" x2="87.5" y2="275"></line>
	<text x="87.5" y="270" text-anchor="middle">2020</text>
	<line class="tick" x1="262.5" y1="270" x2="262.5" y2="275"></line>
	<text x="262.5" y="270" text-anchor="middle">2030</text>
	<line class="tick" x1="437.5" y1="270" x2="437.5" y2="275"></line>
	<text x="437.5" y="270" text-anchor="middle">2040</text>
	<line class="tick" x1="612.5" y1="270" x2="612.5" y2="275"></line>
	<text x="612.5" y="270" text-anchor="middle">2050</text>
	<text style="text-anchor:middle;dominant-baseline:hanging;font-weight:bold;transform: translateY(140px) rotate(-90deg);"></text>
</g>
<g data-scenario="consumer-transformation" class="data-series">	<path d="M 70.00,109.92L 87.50,111.58L 105.00,113.36L 122.50,114.40L 140.00,114.04L 157.50,113.68L 175.00,113.18L 192.50,112.31L 210.00,110.06L 227.50,106.31L 245.00,103.47L 262.50,99.89L 280.00,95.54L 297.50,91.12L 315.00,84.55L 332.50,78.41L 350.00,73.21L 367.50,67.53L 385.00,62.94L 402.50,58.30L 420.00,53.80L 437.50,50.19L 455.00,47.48L 472.50,45.39L 490.00,43.78L 507.50,42.31L 525.00,38.53L 542.50,35.84L 560.00,34.35L 577.50,33.46L 595.00,30.37L 612.50,29.28" id="Consumer transformation" class="line" stroke="#FFBF22" stroke-width="3" stroke-linecap="round"><title>Consumer transformation</title></path>
	<circle cx="70.00" cy="109.92" data-y="36.883" data-x="2019" r="4" fill="#FFBF22"><title>2019: 36.883</title></circle>
	<circle cx="87.50" cy="111.58" data-y="36.501" data-x="2020" r="4" fill="#FFBF22"><title>2020: 36.501</title></circle>
	<circle cx="105.00" cy="113.36" data-y="36.091" data-x="2021" r="4" fill="#FFBF22"><title>2021: 36.091</title></circle>
	<circle cx="122.50" cy="114.40" data-y="35.852" data-x="2022" r="4" fill="#FFBF22"><title>2022: 35.852</title></circle>
	<circle cx="140.00" cy="114.04" data-y="35.934" data-x="2023" r="4" fill="#FFBF22"><title>2023: 35.934</title></circle>
	<circle cx="157.50" cy="113.68" data-y="36.018" data-x="2024" r="4" fill="#FFBF22"><title>2024: 36.018</title></circle>
	<circle cx="175.00" cy="113.18" data-y="36.132" data-x="2025" r="4" fill="#FFBF22"><title>2025: 36.132</title></circle>
	<circle cx="192.50" cy="112.31" data-y="36.334" data-x="2026" r="4" fill="#FFBF22"><title>2026: 36.334</title></circle>
	<circle cx="210.00" cy="110.06" data-y="36.852" data-x="2027" r="4" fill="#FFBF22"><title>2027: 36.852</title></circle>
	<circle cx="227.50" cy="106.31" data-y="37.715" data-x="2028" r="4" fill="#FFBF22"><title>2028: 37.715</title></circle>
	<circle cx="245.00" cy="103.47" data-y="38.369" data-x="2029" r="4" fill="#FFBF22"><title>2029: 38.369</title></circle>
	<circle cx="262.50" cy="99.89" data-y="39.194" data-x="2030" r="4" fill="#FFBF22"><title>2030: 39.194</title></circle>
	<circle cx="280.00" cy="95.54" data-y="40.198" data-x="2031" r="4" fill="#FFBF22"><title>2031: 40.198</title></circle>
	<circle cx="297.50" cy="91.12" data-y="41.216" data-x="2032" r="4" fill="#FFBF22"><title>2032: 41.216</title></circle>
	<circle cx="315.00" cy="84.55" data-y="42.729" data-x="2033" r="4" fill="#FFBF22"><title>2033: 42.729</title></circle>
	<circle cx="332.50" cy="78.41" data-y="44.144" data-x="2034" r="4" fill="#FFBF22"><title>2034: 44.144</title></circle>
	<circle cx="350.00" cy="73.21" data-y="45.342" data-x="2035" r="4" fill="#FFBF22"><title>2035: 45.342</title></circle>
	<circle cx="367.50" cy="67.53" data-y="46.651" data-x="2036" r="4" fill="#FFBF22"><title>2036: 46.651</title></circle>
	<circle cx="385.00" cy="62.94" data-y="47.708" data-x="2037" r="4" fill="#FFBF22"><title>2037: 47.708</title></circle>
	<circle cx="402.50" cy="58.30" data-y="48.777" data-x="2038" r="4" fill="#FFBF22"><title>2038: 48.777</title></circle>
	<circle cx="420.00" cy="53.80" data-y="49.815" data-x="2039" r="4" fill="#FFBF22"><title>2039: 49.815</title></circle>
	<circle cx="437.50" cy="50.19" data-y="50.647" data-x="2040" r="4" fill="#FFBF22"><title>2040: 50.647</title></circle>
	<circle cx="455.00" cy="47.48" data-y="51.271" data-x="2041" r="4" fill="#FFBF22"><title>2041: 51.271</title></circle>
	<circle cx="472.50" cy="45.39" data-y="51.753" data-x="2042" r="4" fill="#FFBF22"><title>2042: 51.753</title></circle>
	<circle cx="490.00" cy="43.78" data-y="52.122" data-x="2043" r="4" fill="#FFBF22"><title>2043: 52.122</title></circle>
	<circle cx="507.50" cy="42.31" data-y="52.461" data-x="2044" r="4" fill="#FFBF22"><title>2044: 52.461</title></circle>
	<circle cx="525.00" cy="38.53" data-y="53.333" data-x="2045" r="4" fill="#FFBF22"><title>2045: 53.333</title></circle>
	<circle cx="542.50" cy="35.84" data-y="53.953" data-x="2046" r="4" fill="#FFBF22"><title>2046: 53.953</title></circle>
	<circle cx="560.00" cy="34.35" data-y="54.296" data-x="2047" r="4" fill="#FFBF22"><title>2047: 54.296</title></circle>
	<circle cx="577.50" cy="33.46" data-y="54.501" data-x="2048" r="4" fill="#FFBF22"><title>2048: 54.501</title></circle>
	<circle cx="595.00" cy="30.37" data-y="55.213" data-x="2049" r="4" fill="#FFBF22"><title>2049: 55.213</title></circle>
	<circle cx="612.50" cy="29.28" data-y="55.463" data-x="2050" r="4" fill="#FFBF22"><title>2050: 55.463</title></circle>
</g>
<g data-scenario="system-transformation" class="data-series">	<path d="M 70.00,109.92L 87.50,111.19L 105.00,112.20L 122.50,112.81L 140.00,112.78L 157.50,112.69L 175.00,112.44L 192.50,111.92L 210.00,111.06L 227.50,110.04L 245.00,108.86L 262.50,107.35L 280.00,105.23L 297.50,102.25L 315.00,98.92L 332.50,95.28L 350.00,91.24L 367.50,86.96L 385.00,82.72L 402.50,78.67L 420.00,74.96L 437.50,71.61L 455.00,67.69L 472.50,64.35L 490.00,62.35L 507.50,61.07L 525.00,60.14L 542.50,57.75L 560.00,56.59L 577.50,56.01L 595.00,55.84L 612.50,55.11" id="System transformation" class="line" stroke="#5BCBF5" stroke-width="3" stroke-linecap="round"><title>System transformation</title></path>
	<circle cx="70.00" cy="109.92" data-y="36.884" data-x="2019" r="4" fill="#5BCBF5"><title>2019: 36.884</title></circle>
	<circle cx="87.50" cy="111.19" data-y="36.591" data-x="2020" r="4" fill="#5BCBF5"><title>2020: 36.591</title></circle>
	<circle cx="105.00" cy="112.20" data-y="36.358" data-x="2021" r="4" fill="#5BCBF5"><title>2021: 36.358</title></circle>
	<circle cx="122.50" cy="112.81" data-y="36.217" data-x="2022" r="4" fill="#5BCBF5"><title>2022: 36.217</title></circle>
	<circle cx="140.00" cy="112.78" data-y="36.224" data-x="2023" r="4" fill="#5BCBF5"><title>2023: 36.224</title></circle>
	<circle cx="157.50" cy="112.69" data-y="36.246" data-x="2024" r="4" fill="#5BCBF5"><title>2024: 36.246</title></circle>
	<circle cx="175.00" cy="112.44" data-y="36.302" data-x="2025" r="4" fill="#5BCBF5"><title>2025: 36.302</title></circle>
	<circle cx="192.50" cy="111.92" data-y="36.423" data-x="2026" r="4" fill="#5BCBF5"><title>2026: 36.423</title></circle>
	<circle cx="210.00" cy="111.06" data-y="36.620" data-x="2027" r="4" fill="#5BCBF5"><title>2027: 36.620</title></circle>
	<circle cx="227.50" cy="110.04" data-y="36.857" data-x="2028" r="4" fill="#5BCBF5"><title>2028: 36.857</title></circle>
	<circle cx="245.00" cy="108.86" data-y="37.128" data-x="2029" r="4" fill="#5BCBF5"><title>2029: 37.128</title></circle>
	<circle cx="262.50" cy="107.35" data-y="37.476" data-x="2030" r="4" fill="#5BCBF5"><title>2030: 37.476</title></circle>
	<circle cx="280.00" cy="105.23" data-y="37.964" data-x="2031" r="4" fill="#5BCBF5"><title>2031: 37.964</title></circle>
	<circle cx="297.50" cy="102.25" data-y="38.650" data-x="2032" r="4" fill="#5BCBF5"><title>2032: 38.650</title></circle>
	<circle cx="315.00" cy="98.92" data-y="39.418" data-x="2033" r="4" fill="#5BCBF5"><title>2033: 39.418</title></circle>
	<circle cx="332.50" cy="95.28" data-y="40.257" data-x="2034" r="4" fill="#5BCBF5"><title>2034: 40.257</title></circle>
	<circle cx="350.00" cy="91.24" data-y="41.188" data-x="2035" r="4" fill="#5BCBF5"><title>2035: 41.188</title></circle>
	<circle cx="367.50" cy="86.96" data-y="42.174" data-x="2036" r="4" fill="#5BCBF5"><title>2036: 42.174</title></circle>
	<circle cx="385.00" cy="82.72" data-y="43.150" data-x="2037" r="4" fill="#5BCBF5"><title>2037: 43.150</title></circle>
	<circle cx="402.50" cy="78.67" data-y="44.083" data-x="2038" r="4" fill="#5BCBF5"><title>2038: 44.083</title></circle>
	<circle cx="420.00" cy="74.96" data-y="44.939" data-x="2039" r="4" fill="#5BCBF5"><title>2039: 44.939</title></circle>
	<circle cx="437.50" cy="71.61" data-y="45.710" data-x="2040" r="4" fill="#5BCBF5"><title>2040: 45.710</title></circle>
	<circle cx="455.00" cy="67.69" data-y="46.614" data-x="2041" r="4" fill="#5BCBF5"><title>2041: 46.614</title></circle>
	<circle cx="472.50" cy="64.35" data-y="47.383" data-x="2042" r="4" fill="#5BCBF5"><title>2042: 47.383</title></circle>
	<circle cx="490.00" cy="62.35" data-y="47.844" data-x="2043" r="4" fill="#5BCBF5"><title>2043: 47.844</title></circle>
	<circle cx="507.50" cy="61.07" data-y="48.140" data-x="2044" r="4" fill="#5BCBF5"><title>2044: 48.140</title></circle>
	<circle cx="525.00" cy="60.14" data-y="48.353" data-x="2045" r="4" fill="#5BCBF5"><title>2045: 48.353</title></circle>
	<circle cx="542.50" cy="57.75" data-y="48.905" data-x="2046" r="4" fill="#5BCBF5"><title>2046: 48.905</title></circle>
	<circle cx="560.00" cy="56.59" data-y="49.172" data-x="2047" r="4" fill="#5BCBF5"><title>2047: 49.172</title></circle>
	<circle cx="577.50" cy="56.01" data-y="49.304" data-x="2048" r="4" fill="#5BCBF5"><title>2048: 49.304</title></circle>
	<circle cx="595.00" cy="55.84" data-y="49.345" data-x="2049" r="4" fill="#5BCBF5"><title>2049: 49.345</title></circle>
	<circle cx="612.50" cy="55.11" data-y="49.512" data-x="2050" r="4" fill="#5BCBF5"><title>2050: 49.512</title></circle>
</g>
<g data-scenario="steady-progression" class="data-series">	<path d="M 70.00,109.91L 87.50,110.56L 105.00,110.14L 122.50,109.81L 140.00,109.25L 157.50,108.50L 175.00,107.67L 192.50,106.72L 210.00,105.43L 227.50,103.86L 245.00,102.15L 262.50,100.27L 280.00,98.52L 297.50,96.51L 315.00,94.25L 332.50,91.83L 350.00,89.15L 367.50,86.02L 385.00,82.76L 402.50,79.20L 420.00,75.56L 437.50,71.83L 455.00,68.12L 472.50,64.45L 490.00,60.96L 507.50,57.75L 525.00,55.24L 542.50,53.44L 560.00,51.83L 577.50,50.28L 595.00,48.85L 612.50,47.49" id="Steady progression" class="line" stroke="#827B7A" stroke-width="3" stroke-linecap="round"><title>Steady progression</title></path>
	<circle cx="70.00" cy="109.91" data-y="36.885" data-x="2019" r="4" fill="#827B7A"><title>2019: 36.885</title></circle>
	<circle cx="87.50" cy="110.56" data-y="36.737" data-x="2020" r="4" fill="#827B7A"><title>2020: 36.737</title></circle>
	<circle cx="105.00" cy="110.14" data-y="36.833" data-x="2021" r="4" fill="#827B7A"><title>2021: 36.833</title></circle>
	<circle cx="122.50" cy="109.81" data-y="36.908" data-x="2022" r="4" fill="#827B7A"><title>2022: 36.908</title></circle>
	<circle cx="140.00" cy="109.25" data-y="37.038" data-x="2023" r="4" fill="#827B7A"><title>2023: 37.038</title></circle>
	<circle cx="157.50" cy="108.50" data-y="37.211" data-x="2024" r="4" fill="#827B7A"><title>2024: 37.211</title></circle>
	<circle cx="175.00" cy="107.67" data-y="37.401" data-x="2025" r="4" fill="#827B7A"><title>2025: 37.401</title></circle>
	<circle cx="192.50" cy="106.72" data-y="37.622" data-x="2026" r="4" fill="#827B7A"><title>2026: 37.622</title></circle>
	<circle cx="210.00" cy="105.43" data-y="37.918" data-x="2027" r="4" fill="#827B7A"><title>2027: 37.918</title></circle>
	<circle cx="227.50" cy="103.86" data-y="38.279" data-x="2028" r="4" fill="#827B7A"><title>2028: 38.279</title></circle>
	<circle cx="245.00" cy="102.15" data-y="38.675" data-x="2029" r="4" fill="#827B7A"><title>2029: 38.675</title></circle>
	<circle cx="262.50" cy="100.27" data-y="39.106" data-x="2030" r="4" fill="#827B7A"><title>2030: 39.106</title></circle>
	<circle cx="280.00" cy="98.52" data-y="39.510" data-x="2031" r="4" fill="#827B7A"><title>2031: 39.510</title></circle>
	<circle cx="297.50" cy="96.51" data-y="39.973" data-x="2032" r="4" fill="#827B7A"><title>2032: 39.973</title></circle>
	<circle cx="315.00" cy="94.25" data-y="40.495" data-x="2033" r="4" fill="#827B7A"><title>2033: 40.495</title></circle>
	<circle cx="332.50" cy="91.83" data-y="41.051" data-x="2034" r="4" fill="#827B7A"><title>2034: 41.051</title></circle>
	<circle cx="350.00" cy="89.15" data-y="41.669" data-x="2035" r="4" fill="#827B7A"><title>2035: 41.669</title></circle>
	<circle cx="367.50" cy="86.02" data-y="42.390" data-x="2036" r="4" fill="#827B7A"><title>2036: 42.390</title></circle>
	<circle cx="385.00" cy="82.76" data-y="43.141" data-x="2037" r="4" fill="#827B7A"><title>2037: 43.141</title></circle>
	<circle cx="402.50" cy="79.20" data-y="43.962" data-x="2038" r="4" fill="#827B7A"><title>2038: 43.962</title></circle>
	<circle cx="420.00" cy="75.56" data-y="44.801" data-x="2039" r="4" fill="#827B7A"><title>2039: 44.801</title></circle>
	<circle cx="437.50" cy="71.83" data-y="45.659" data-x="2040" r="4" fill="#827B7A"><title>2040: 45.659</title></circle>
	<circle cx="455.00" cy="68.12" data-y="46.514" data-x="2041" r="4" fill="#827B7A"><title>2041: 46.514</title></circle>
	<circle cx="472.50" cy="64.45" data-y="47.361" data-x="2042" r="4" fill="#827B7A"><title>2042: 47.361</title></circle>
	<circle cx="490.00" cy="60.96" data-y="48.164" data-x="2043" r="4" fill="#827B7A"><title>2043: 48.164</title></circle>
	<circle cx="507.50" cy="57.75" data-y="48.904" data-x="2044" r="4" fill="#827B7A"><title>2044: 48.904</title></circle>
	<circle cx="525.00" cy="55.24" data-y="49.482" data-x="2045" r="4" fill="#827B7A"><title>2045: 49.482</title></circle>
	<circle cx="542.50" cy="53.44" data-y="49.896" data-x="2046" r="4" fill="#827B7A"><title>2046: 49.896</title></circle>
	<circle cx="560.00" cy="51.83" data-y="50.267" data-x="2047" r="4" fill="#827B7A"><title>2047: 50.267</title></circle>
	<circle cx="577.50" cy="50.28" data-y="50.625" data-x="2048" r="4" fill="#827B7A"><title>2048: 50.625</title></circle>
	<circle cx="595.00" cy="48.85" data-y="50.955" data-x="2049" r="4" fill="#827B7A"><title>2049: 50.955</title></circle>
	<circle cx="612.50" cy="47.49" data-y="51.269" data-x="2050" r="4" fill="#827B7A"><title>2050: 51.269</title></circle>
</g>
<g data-scenario="leading-the-way" class="data-series">	<path d="M 70.00,109.92L 87.50,112.26L 105.00,114.83L 122.50,116.18L 140.00,117.98L 157.50,119.01L 175.00,119.67L 192.50,119.89L 210.00,118.52L 227.50,115.58L 245.00,113.12L 262.50,109.44L 280.00,103.83L 297.50,98.19L 315.00,91.95L 332.50,86.31L 350.00,81.09L 367.50,76.45L 385.00,72.98L 402.50,70.10L 420.00,65.60L 437.50,61.59L 455.00,58.45L 472.50,56.41L 490.00,53.22L 507.50,51.70L 525.00,49.41L 542.50,49.43L 560.00,49.53L 577.50,49.99L 595.00,50.87L 612.50,51.55" id="Leading the way" class="line" stroke="#C2CD23" stroke-width="3" stroke-linecap="round"><title>Leading the way</title></path>
	<circle cx="70.00" cy="109.92" data-y="36.883" data-x="2019" r="4" fill="#C2CD23"><title>2019: 36.883</title></circle>
	<circle cx="87.50" cy="112.26" data-y="36.345" data-x="2020" r="4" fill="#C2CD23"><title>2020: 36.345</title></circle>
	<circle cx="105.00" cy="114.83" data-y="35.753" data-x="2021" r="4" fill="#C2CD23"><title>2021: 35.753</title></circle>
	<circle cx="122.50" cy="116.18" data-y="35.442" data-x="2022" r="4" fill="#C2CD23"><title>2022: 35.442</title></circle>
	<circle cx="140.00" cy="117.98" data-y="35.026" data-x="2023" r="4" fill="#C2CD23"><title>2023: 35.026</title></circle>
	<circle cx="157.50" cy="119.01" data-y="34.790" data-x="2024" r="4" fill="#C2CD23"><title>2024: 34.790</title></circle>
	<circle cx="175.00" cy="119.67" data-y="34.637" data-x="2025" r="4" fill="#C2CD23"><title>2025: 34.637</title></circle>
	<circle cx="192.50" cy="119.89" data-y="34.587" data-x="2026" r="4" fill="#C2CD23"><title>2026: 34.587</title></circle>
	<circle cx="210.00" cy="118.52" data-y="34.902" data-x="2027" r="4" fill="#C2CD23"><title>2027: 34.902</title></circle>
	<circle cx="227.50" cy="115.58" data-y="35.580" data-x="2028" r="4" fill="#C2CD23"><title>2028: 35.580</title></circle>
	<circle cx="245.00" cy="113.12" data-y="36.147" data-x="2029" r="4" fill="#C2CD23"><title>2029: 36.147</title></circle>
	<circle cx="262.50" cy="109.44" data-y="36.995" data-x="2030" r="4" fill="#C2CD23"><title>2030: 36.995</title></circle>
	<circle cx="280.00" cy="103.83" data-y="38.286" data-x="2031" r="4" fill="#C2CD23"><title>2031: 38.286</title></circle>
	<circle cx="297.50" cy="98.19" data-y="39.587" data-x="2032" r="4" fill="#C2CD23"><title>2032: 39.587</title></circle>
	<circle cx="315.00" cy="91.95" data-y="41.025" data-x="2033" r="4" fill="#C2CD23"><title>2033: 41.025</title></circle>
	<circle cx="332.50" cy="86.31" data-y="42.323" data-x="2034" r="4" fill="#C2CD23"><title>2034: 42.323</title></circle>
	<circle cx="350.00" cy="81.09" data-y="43.526" data-x="2035" r="4" fill="#C2CD23"><title>2035: 43.526</title></circle>
	<circle cx="367.50" cy="76.45" data-y="44.596" data-x="2036" r="4" fill="#C2CD23"><title>2036: 44.596</title></circle>
	<circle cx="385.00" cy="72.98" data-y="45.394" data-x="2037" r="4" fill="#C2CD23"><title>2037: 45.394</title></circle>
	<circle cx="402.50" cy="70.10" data-y="46.059" data-x="2038" r="4" fill="#C2CD23"><title>2038: 46.059</title></circle>
	<circle cx="420.00" cy="65.60" data-y="47.096" data-x="2039" r="4" fill="#C2CD23"><title>2039: 47.096</title></circle>
	<circle cx="437.50" cy="61.59" data-y="48.020" data-x="2040" r="4" fill="#C2CD23"><title>2040: 48.020</title></circle>
	<circle cx="455.00" cy="58.45" data-y="48.743" data-x="2041" r="4" fill="#C2CD23"><title>2041: 48.743</title></circle>
	<circle cx="472.50" cy="56.41" data-y="49.212" data-x="2042" r="4" fill="#C2CD23"><title>2042: 49.212</title></circle>
	<circle cx="490.00" cy="53.22" data-y="49.947" data-x="2043" r="4" fill="#C2CD23"><title>2043: 49.947</title></circle>
	<circle cx="507.50" cy="51.70" data-y="50.298" data-x="2044" r="4" fill="#C2CD23"><title>2044: 50.298</title></circle>
	<circle cx="525.00" cy="49.41" data-y="50.826" data-x="2045" r="4" fill="#C2CD23"><title>2045: 50.826</title></circle>
	<circle cx="542.50" cy="49.43" data-y="50.822" data-x="2046" r="4" fill="#C2CD23"><title>2046: 50.822</title></circle>
	<circle cx="560.00" cy="49.53" data-y="50.798" data-x="2047" r="4" fill="#C2CD23"><title>2047: 50.798</title></circle>
	<circle cx="577.50" cy="49.99" data-y="50.692" data-x="2048" r="4" fill="#C2CD23"><title>2048: 50.692</title></circle>
	<circle cx="595.00" cy="50.87" data-y="50.489" data-x="2049" r="4" fill="#C2CD23"><title>2049: 50.489</title></circle>
	<circle cx="612.50" cy="51.55" data-y="50.332" data-x="2050" r="4" fill="#C2CD23"><title>2050: 50.332</title></circle>
</g>
<g data-scenario="early-net-zero" class="data-series">	<path d="M 70.00,109.83L 87.50,112.04L 105.00,114.41L 122.50,115.99L 140.00,117.02L 157.50,117.08L 175.00,116.53L 192.50,115.76L 210.00,114.54L 227.50,112.65L 245.00,110.24L 262.50,102.01L 280.00,93.62L 297.50,85.70L 315.00,77.74L 332.50,69.89L 350.00,60.94L 367.50,52.59L 385.00,45.65L 402.50,39.17L 420.00,33.31L 437.50,27.86L 455.00,22.99L 472.50,18.38L 490.00,14.01L 507.50,10.00L 525.00,10.12L 542.50,10.54L 560.00,10.94L 577.50,11.51L 595.00,12.20L 612.50,12.88" id="Net Zero Early" class="line" stroke="#00AB84" stroke-width="3" stroke-linecap="round"><title>Net Zero Early</title></path>
	<circle cx="70.00" cy="109.83" data-y="36.904" data-x="2019" r="4" fill="#00AB84"><title>2019: 36.904</title></circle>
	<circle cx="87.50" cy="112.04" data-y="36.396" data-x="2020" r="4" fill="#00AB84"><title>2020: 36.396</title></circle>
	<circle cx="105.00" cy="114.41" data-y="35.848" data-x="2021" r="4" fill="#00AB84"><title>2021: 35.848</title></circle>
	<circle cx="122.50" cy="115.99" data-y="35.484" data-x="2022" r="4" fill="#00AB84"><title>2022: 35.484</title></circle>
	<circle cx="140.00" cy="117.02" data-y="35.248" data-x="2023" r="4" fill="#00AB84"><title>2023: 35.248</title></circle>
	<circle cx="157.50" cy="117.08" data-y="35.235" data-x="2024" r="4" fill="#00AB84"><title>2024: 35.235</title></circle>
	<circle cx="175.00" cy="116.53" data-y="35.361" data-x="2025" r="4" fill="#00AB84"><title>2025: 35.361</title></circle>
	<circle cx="192.50" cy="115.76" data-y="35.539" data-x="2026" r="4" fill="#00AB84"><title>2026: 35.539</title></circle>
	<circle cx="210.00" cy="114.54" data-y="35.820" data-x="2027" r="4" fill="#00AB84"><title>2027: 35.820</title></circle>
	<circle cx="227.50" cy="112.65" data-y="36.255" data-x="2028" r="4" fill="#00AB84"><title>2028: 36.255</title></circle>
	<circle cx="245.00" cy="110.24" data-y="36.809" data-x="2029" r="4" fill="#00AB84"><title>2029: 36.809</title></circle>
	<circle cx="262.50" cy="102.01" data-y="38.707" data-x="2030" r="4" fill="#00AB84"><title>2030: 38.707</title></circle>
	<circle cx="280.00" cy="93.62" data-y="40.640" data-x="2031" r="4" fill="#00AB84"><title>2031: 40.640</title></circle>
	<circle cx="297.50" cy="85.70" data-y="42.464" data-x="2032" r="4" fill="#00AB84"><title>2032: 42.464</title></circle>
	<circle cx="315.00" cy="77.74" data-y="44.298" data-x="2033" r="4" fill="#00AB84"><title>2033: 44.298</title></circle>
	<circle cx="332.50" cy="69.89" data-y="46.107" data-x="2034" r="4" fill="#00AB84"><title>2034: 46.107</title></circle>
	<circle cx="350.00" cy="60.94" data-y="48.169" data-x="2035" r="4" fill="#00AB84"><title>2035: 48.169</title></circle>
	<circle cx="367.50" cy="52.59" data-y="50.092" data-x="2036" r="4" fill="#00AB84"><title>2036: 50.092</title></circle>
	<circle cx="385.00" cy="45.65" data-y="51.693" data-x="2037" r="4" fill="#00AB84"><title>2037: 51.693</title></circle>
	<circle cx="402.50" cy="39.17" data-y="53.185" data-x="2038" r="4" fill="#00AB84"><title>2038: 53.185</title></circle>
	<circle cx="420.00" cy="33.31" data-y="54.535" data-x="2039" r="4" fill="#00AB84"><title>2039: 54.535</title></circle>
	<circle cx="437.50" cy="27.86" data-y="55.791" data-x="2040" r="4" fill="#00AB84"><title>2040: 55.791</title></circle>
	<circle cx="455.00" cy="22.99" data-y="56.912" data-x="2041" r="4" fill="#00AB84"><title>2041: 56.912</title></circle>
	<circle cx="472.50" cy="18.38" data-y="57.976" data-x="2042" r="4" fill="#00AB84"><title>2042: 57.976</title></circle>
	<circle cx="490.00" cy="14.01" data-y="58.982" data-x="2043" r="4" fill="#00AB84"><title>2043: 58.982</title></circle>
	<circle cx="507.50" cy="10.00" data-y="59.906" data-x="2044" r="4" fill="#00AB84"><title>2044: 59.906</title></circle>
	<circle cx="525.00" cy="10.12" data-y="59.879" data-x="2045" r="4" fill="#00AB84"><title>2045: 59.879</title></circle>
	<circle cx="542.50" cy="10.54" data-y="59.781" data-x="2046" r="4" fill="#00AB84"><title>2046: 59.781</title></circle>
	<circle cx="560.00" cy="10.94" data-y="59.690" data-x="2047" r="4" fill="#00AB84"><title>2047: 59.690</title></circle>
	<circle cx="577.50" cy="11.51" data-y="59.559" data-x="2048" r="4" fill="#00AB84"><title>2048: 59.559</title></circle>
	<circle cx="595.00" cy="12.20" data-y="59.399" data-x="2049" r="4" fill="#00AB84"><title>2049: 59.399</title></circle>
	<circle cx="612.50" cy="12.88" data-y="59.242" data-x="2050" r="4" fill="#00AB84"><title>2050: 59.242</title></circle>
</g>
</svg>
