<svg width="640" height="320" viewBox="0 0 640 320" xmlns="http://www.w3.org/2000/svg" style="overflow:display" preserveAspectRatio="xMinYMin meet" overflow="visible">
<defs>
	<style>
	.data-series path.line { fill-opacity: 0; }
	.data-series path.line.dotted { stroke-dasharray: 12 20 }
	.data-series circle { display: none; }
	.data-series:hover path.line, .data-series.on path.line { stroke-width: 5; }
	.data-series:hover circle, .data-series.on circle { display: inline; }
	.data-series circle:hover, .data-series circle.on { r: 6px!important; fill: black; }
	.grid { font-family: "Helvetica Neue",Helvetica,Arial,"Lucida Grande",sans-serif; }
	.grid line { stroke: rgb(0,0,0); stroke-width: 2; stroke-linecap: round; }
	.grid.grid-x text { text-anchor: middle; dominant-baseline: hanging; transform: translateY(10px); }
	.grid.grid-y text { text-anchor: end; dominant-baseline: middle; transform: translateX(-10px); }
	</style>
</defs>
<g class="grid grid-y">
	<line x1="80" y1="270" x2="630" y2="270" data-left="80"></line>
	<text x="80" y="270" text-anchor="end">0</text>
	<text x="80" y="198.512510310696" text-anchor="end">1</text>
	<text x="80" y="127.025020621391" text-anchor="end">2</text>
	<text x="80" y="55.5375309320869" text-anchor="end">3</text>
	<text style="text-anchor:middle;dominant-baseline:hanging;font-weight:bold;transform: translateY(140px) rotate(-90deg);">Annual gross peak demand (GW)</text>
</g>
<g class="grid grid-x">
	<line class="tick" x1="80" y1="270" x2="80" y2="275"></line>
	<text x="80" y="270" text-anchor="middle">2020</text>
	<line class="tick" x1="257.41935483871" y1="270" x2="257.41935483871" y2="275"></line>
	<text x="257.41935483871" y="270" text-anchor="middle">2030</text>
	<line class="tick" x1="434.838709677419" y1="270" x2="434.838709677419" y2="275"></line>
	<text x="434.838709677419" y="270" text-anchor="middle">2040</text>
	<line class="tick" x1="612.258064516129" y1="270" x2="612.258064516129" y2="275"></line>
	<text x="612.258064516129" y="270" text-anchor="middle">2050</text>
	<text style="text-anchor:middle;dominant-baseline:hanging;font-weight:bold;transform: translateY(140px) rotate(-90deg);"></text>
</g>
<g data-scenario="domestic" class="data-series">	<path d="M 80.00,77.27L 97.74,85.63L 115.48,87.92L 133.23,89.28L 150.97,90.14L 168.71,91.00L 186.45,91.50L 204.19,91.21L 221.94,90.85L 239.68,90.42L 257.42,90.07L 275.16,89.99L 292.90,89.92L 310.65,89.92L 328.39,89.92L 346.13,89.92L 363.87,89.78L 381.61,89.42L 399.35,89.07L 417.10,88.78L 434.84,88.35L 452.58,87.85L 470.32,87.35L 488.06,86.85L 505.81,86.35L 523.55,85.85L 541.29,85.35L 559.03,84.70L 576.77,83.85L 594.52,82.99L 612.26,81.77" id="Domestic" class="line" stroke="#F1060E" stroke-width="3" stroke-linecap="round"><title>Domestic</title></path>
	<circle cx="80.00" cy="77.27" data-y="2.696 " data-x="2020" r="4" fill="#F1060E"><title>2020: 2.696 </title></circle>
	<circle cx="97.74" cy="85.63" data-y="2.579 " data-x="2021" r="4" fill="#F1060E"><title>2021: 2.579 </title></circle>
	<circle cx="115.48" cy="87.92" data-y="2.547 " data-x="2022" r="4" fill="#F1060E"><title>2022: 2.547 </title></circle>
	<circle cx="133.23" cy="89.28" data-y="2.528 " data-x="2023" r="4" fill="#F1060E"><title>2023: 2.528 </title></circle>
	<circle cx="150.97" cy="90.14" data-y="2.516 " data-x="2024" r="4" fill="#F1060E"><title>2024: 2.516 </title></circle>
	<circle cx="168.71" cy="91.00" data-y="2.504 " data-x="2025" r="4" fill="#F1060E"><title>2025: 2.504 </title></circle>
	<circle cx="186.45" cy="91.50" data-y="2.497 " data-x="2026" r="4" fill="#F1060E"><title>2026: 2.497 </title></circle>
	<circle cx="204.19" cy="91.21" data-y="2.501 " data-x="2027" r="4" fill="#F1060E"><title>2027: 2.501 </title></circle>
	<circle cx="221.94" cy="90.85" data-y="2.506 " data-x="2028" r="4" fill="#F1060E"><title>2028: 2.506 </title></circle>
	<circle cx="239.68" cy="90.42" data-y="2.512 " data-x="2029" r="4" fill="#F1060E"><title>2029: 2.512 </title></circle>
	<circle cx="257.42" cy="90.07" data-y="2.517 " data-x="2030" r="4" fill="#F1060E"><title>2030: 2.517 </title></circle>
	<circle cx="275.16" cy="89.99" data-y="2.518 " data-x="2031" r="4" fill="#F1060E"><title>2031: 2.518 </title></circle>
	<circle cx="292.90" cy="89.92" data-y="2.519 " data-x="2032" r="4" fill="#F1060E"><title>2032: 2.519 </title></circle>
	<circle cx="310.65" cy="89.92" data-y="2.519 " data-x="2033" r="4" fill="#F1060E"><title>2033: 2.519 </title></circle>
	<circle cx="328.39" cy="89.92" data-y="2.519 " data-x="2034" r="4" fill="#F1060E"><title>2034: 2.519 </title></circle>
	<circle cx="346.13" cy="89.92" data-y="2.519 " data-x="2035" r="4" fill="#F1060E"><title>2035: 2.519 </title></circle>
	<circle cx="363.87" cy="89.78" data-y="2.521 " data-x="2036" r="4" fill="#F1060E"><title>2036: 2.521 </title></circle>
	<circle cx="381.61" cy="89.42" data-y="2.526 " data-x="2037" r="4" fill="#F1060E"><title>2037: 2.526 </title></circle>
	<circle cx="399.35" cy="89.07" data-y="2.531 " data-x="2038" r="4" fill="#F1060E"><title>2038: 2.531 </title></circle>
	<circle cx="417.10" cy="88.78" data-y="2.535 " data-x="2039" r="4" fill="#F1060E"><title>2039: 2.535 </title></circle>
	<circle cx="434.84" cy="88.35" data-y="2.541 " data-x="2040" r="4" fill="#F1060E"><title>2040: 2.541 </title></circle>
	<circle cx="452.58" cy="87.85" data-y="2.548 " data-x="2041" r="4" fill="#F1060E"><title>2041: 2.548 </title></circle>
	<circle cx="470.32" cy="87.35" data-y="2.555 " data-x="2042" r="4" fill="#F1060E"><title>2042: 2.555 </title></circle>
	<circle cx="488.06" cy="86.85" data-y="2.562 " data-x="2043" r="4" fill="#F1060E"><title>2043: 2.562 </title></circle>
	<circle cx="505.81" cy="86.35" data-y="2.569 " data-x="2044" r="4" fill="#F1060E"><title>2044: 2.569 </title></circle>
	<circle cx="523.55" cy="85.85" data-y="2.576 " data-x="2045" r="4" fill="#F1060E"><title>2045: 2.576 </title></circle>
	<circle cx="541.29" cy="85.35" data-y="2.583 " data-x="2046" r="4" fill="#F1060E"><title>2046: 2.583 </title></circle>
	<circle cx="559.03" cy="84.70" data-y="2.592 " data-x="2047" r="4" fill="#F1060E"><title>2047: 2.592 </title></circle>
	<circle cx="576.77" cy="83.85" data-y="2.604 " data-x="2048" r="4" fill="#F1060E"><title>2048: 2.604 </title></circle>
	<circle cx="594.52" cy="82.99" data-y="2.616 " data-x="2049" r="4" fill="#F1060E"><title>2049: 2.616 </title></circle>
	<circle cx="612.26" cy="81.77" data-y="2.633 " data-x="2050" r="4" fill="#F1060E"><title>2050: 2.633 </title></circle>
</g>
<g data-scenario="i-and-c" class="data-series">	<path d="M 80.00,10.00L 97.74,12.50L 115.48,14.86L 133.23,17.08L 150.97,19.15L 168.71,21.15L 186.45,23.08L 204.19,24.80L 221.94,26.51L 239.68,28.09L 257.42,29.59L 275.16,30.95L 292.90,32.23L 310.65,33.45L 328.39,34.59L 346.13,35.66L 363.87,36.59L 381.61,37.52L 399.35,38.38L 417.10,39.17L 434.84,39.88L 452.58,40.53L 470.32,41.17L 488.06,41.74L 505.81,42.31L 523.55,42.81L 541.29,43.31L 559.03,43.81L 576.77,44.24L 594.52,44.67L 612.26,45.10" id="I &amp; C" class="line" stroke="#6DC2C7" stroke-width="3" stroke-linecap="round"><title>I &amp; C</title></path>
	<circle cx="80.00" cy="10.00" data-y="3.637 " data-x="2020" r="4" fill="#6DC2C7"><title>2020: 3.637 </title></circle>
	<circle cx="97.74" cy="12.50" data-y="3.602 " data-x="2021" r="4" fill="#6DC2C7"><title>2021: 3.602 </title></circle>
	<circle cx="115.48" cy="14.86" data-y="3.569 " data-x="2022" r="4" fill="#6DC2C7"><title>2022: 3.569 </title></circle>
	<circle cx="133.23" cy="17.08" data-y="3.538 " data-x="2023" r="4" fill="#6DC2C7"><title>2023: 3.538 </title></circle>
	<circle cx="150.97" cy="19.15" data-y="3.509 " data-x="2024" r="4" fill="#6DC2C7"><title>2024: 3.509 </title></circle>
	<circle cx="168.71" cy="21.15" data-y="3.481 " data-x="2025" r="4" fill="#6DC2C7"><title>2025: 3.481 </title></circle>
	<circle cx="186.45" cy="23.08" data-y="3.454 " data-x="2026" r="4" fill="#6DC2C7"><title>2026: 3.454 </title></circle>
	<circle cx="204.19" cy="24.80" data-y="3.430 " data-x="2027" r="4" fill="#6DC2C7"><title>2027: 3.430 </title></circle>
	<circle cx="221.94" cy="26.51" data-y="3.406 " data-x="2028" r="4" fill="#6DC2C7"><title>2028: 3.406 </title></circle>
	<circle cx="239.68" cy="28.09" data-y="3.384 " data-x="2029" r="4" fill="#6DC2C7"><title>2029: 3.384 </title></circle>
	<circle cx="257.42" cy="29.59" data-y="3.363 " data-x="2030" r="4" fill="#6DC2C7"><title>2030: 3.363 </title></circle>
	<circle cx="275.16" cy="30.95" data-y="3.344 " data-x="2031" r="4" fill="#6DC2C7"><title>2031: 3.344 </title></circle>
	<circle cx="292.90" cy="32.23" data-y="3.326 " data-x="2032" r="4" fill="#6DC2C7"><title>2032: 3.326 </title></circle>
	<circle cx="310.65" cy="33.45" data-y="3.309 " data-x="2033" r="4" fill="#6DC2C7"><title>2033: 3.309 </title></circle>
	<circle cx="328.39" cy="34.59" data-y="3.293 " data-x="2034" r="4" fill="#6DC2C7"><title>2034: 3.293 </title></circle>
	<circle cx="346.13" cy="35.66" data-y="3.278 " data-x="2035" r="4" fill="#6DC2C7"><title>2035: 3.278 </title></circle>
	<circle cx="363.87" cy="36.59" data-y="3.265 " data-x="2036" r="4" fill="#6DC2C7"><title>2036: 3.265 </title></circle>
	<circle cx="381.61" cy="37.52" data-y="3.252 " data-x="2037" r="4" fill="#6DC2C7"><title>2037: 3.252 </title></circle>
	<circle cx="399.35" cy="38.38" data-y="3.240 " data-x="2038" r="4" fill="#6DC2C7"><title>2038: 3.240 </title></circle>
	<circle cx="417.10" cy="39.17" data-y="3.229 " data-x="2039" r="4" fill="#6DC2C7"><title>2039: 3.229 </title></circle>
	<circle cx="434.84" cy="39.88" data-y="3.219 " data-x="2040" r="4" fill="#6DC2C7"><title>2040: 3.219 </title></circle>
	<circle cx="452.58" cy="40.53" data-y="3.210 " data-x="2041" r="4" fill="#6DC2C7"><title>2041: 3.210 </title></circle>
	<circle cx="470.32" cy="41.17" data-y="3.201 " data-x="2042" r="4" fill="#6DC2C7"><title>2042: 3.201 </title></circle>
	<circle cx="488.06" cy="41.74" data-y="3.193 " data-x="2043" r="4" fill="#6DC2C7"><title>2043: 3.193 </title></circle>
	<circle cx="505.81" cy="42.31" data-y="3.185 " data-x="2044" r="4" fill="#6DC2C7"><title>2044: 3.185 </title></circle>
	<circle cx="523.55" cy="42.81" data-y="3.178 " data-x="2045" r="4" fill="#6DC2C7"><title>2045: 3.178 </title></circle>
	<circle cx="541.29" cy="43.31" data-y="3.171 " data-x="2046" r="4" fill="#6DC2C7"><title>2046: 3.171 </title></circle>
	<circle cx="559.03" cy="43.81" data-y="3.164 " data-x="2047" r="4" fill="#6DC2C7"><title>2047: 3.164 </title></circle>
	<circle cx="576.77" cy="44.24" data-y="3.158 " data-x="2048" r="4" fill="#6DC2C7"><title>2048: 3.158 </title></circle>
	<circle cx="594.52" cy="44.67" data-y="3.152 " data-x="2049" r="4" fill="#6DC2C7"><title>2049: 3.152 </title></circle>
	<circle cx="612.26" cy="45.10" data-y="3.146 " data-x="2050" r="4" fill="#6DC2C7"><title>2050: 3.146 </title></circle>
</g>
<g data-scenario="heat-pumps---domestic" class="data-series">	<path d="M 80.00,268.50L 97.74,268.14L 115.48,267.71L 133.23,267.14L 150.97,266.50L 168.71,264.35L 186.45,260.78L 204.19,255.92L 221.94,248.84L 239.68,239.47L 257.42,227.39L 275.16,217.46L 292.90,207.59L 310.65,195.51L 328.39,183.07L 346.13,170.20L 363.87,157.84L 381.61,145.68L 399.35,133.60L 417.10,121.66L 434.84,112.23L 452.58,103.01L 470.32,93.71L 488.06,84.56L 505.81,76.77L 523.55,69.12L 541.29,61.61L 559.03,53.82L 576.77,46.32L 594.52,46.60L 612.26,47.17" id="Heat pumps - domestic" class="line" stroke="#2D137F" stroke-width="3" stroke-linecap="round"><title>Heat pumps - domestic</title></path>
	<circle cx="80.00" cy="268.50" data-y="0.021 " data-x="2020" r="4" fill="#2D137F"><title>2020: 0.021 </title></circle>
	<circle cx="97.74" cy="268.14" data-y="0.026 " data-x="2021" r="4" fill="#2D137F"><title>2021: 0.026 </title></circle>
	<circle cx="115.48" cy="267.71" data-y="0.032 " data-x="2022" r="4" fill="#2D137F"><title>2022: 0.032 </title></circle>
	<circle cx="133.23" cy="267.14" data-y="0.040 " data-x="2023" r="4" fill="#2D137F"><title>2023: 0.040 </title></circle>
	<circle cx="150.97" cy="266.50" data-y="0.049 " data-x="2024" r="4" fill="#2D137F"><title>2024: 0.049 </title></circle>
	<circle cx="168.71" cy="264.35" data-y="0.079 " data-x="2025" r="4" fill="#2D137F"><title>2025: 0.079 </title></circle>
	<circle cx="186.45" cy="260.78" data-y="0.129 " data-x="2026" r="4" fill="#2D137F"><title>2026: 0.129 </title></circle>
	<circle cx="204.19" cy="255.92" data-y="0.197 " data-x="2027" r="4" fill="#2D137F"><title>2027: 0.197 </title></circle>
	<circle cx="221.94" cy="248.84" data-y="0.296 " data-x="2028" r="4" fill="#2D137F"><title>2028: 0.296 </title></circle>
	<circle cx="239.68" cy="239.47" data-y="0.427 " data-x="2029" r="4" fill="#2D137F"><title>2029: 0.427 </title></circle>
	<circle cx="257.42" cy="227.39" data-y="0.596 " data-x="2030" r="4" fill="#2D137F"><title>2030: 0.596 </title></circle>
	<circle cx="275.16" cy="217.46" data-y="0.735 " data-x="2031" r="4" fill="#2D137F"><title>2031: 0.735 </title></circle>
	<circle cx="292.90" cy="207.59" data-y="0.873 " data-x="2032" r="4" fill="#2D137F"><title>2032: 0.873 </title></circle>
	<circle cx="310.65" cy="195.51" data-y="1.042 " data-x="2033" r="4" fill="#2D137F"><title>2033: 1.042 </title></circle>
	<circle cx="328.39" cy="183.07" data-y="1.216 " data-x="2034" r="4" fill="#2D137F"><title>2034: 1.216 </title></circle>
	<circle cx="346.13" cy="170.20" data-y="1.396 " data-x="2035" r="4" fill="#2D137F"><title>2035: 1.396 </title></circle>
	<circle cx="363.87" cy="157.84" data-y="1.569 " data-x="2036" r="4" fill="#2D137F"><title>2036: 1.569 </title></circle>
	<circle cx="381.61" cy="145.68" data-y="1.739 " data-x="2037" r="4" fill="#2D137F"><title>2037: 1.739 </title></circle>
	<circle cx="399.35" cy="133.60" data-y="1.908 " data-x="2038" r="4" fill="#2D137F"><title>2038: 1.908 </title></circle>
	<circle cx="417.10" cy="121.66" data-y="2.075 " data-x="2039" r="4" fill="#2D137F"><title>2039: 2.075 </title></circle>
	<circle cx="434.84" cy="112.23" data-y="2.207 " data-x="2040" r="4" fill="#2D137F"><title>2040: 2.207 </title></circle>
	<circle cx="452.58" cy="103.01" data-y="2.336 " data-x="2041" r="4" fill="#2D137F"><title>2041: 2.336 </title></circle>
	<circle cx="470.32" cy="93.71" data-y="2.466 " data-x="2042" r="4" fill="#2D137F"><title>2042: 2.466 </title></circle>
	<circle cx="488.06" cy="84.56" data-y="2.594 " data-x="2043" r="4" fill="#2D137F"><title>2043: 2.594 </title></circle>
	<circle cx="505.81" cy="76.77" data-y="2.703 " data-x="2044" r="4" fill="#2D137F"><title>2044: 2.703 </title></circle>
	<circle cx="523.55" cy="69.12" data-y="2.810 " data-x="2045" r="4" fill="#2D137F"><title>2045: 2.810 </title></circle>
	<circle cx="541.29" cy="61.61" data-y="2.915 " data-x="2046" r="4" fill="#2D137F"><title>2046: 2.915 </title></circle>
	<circle cx="559.03" cy="53.82" data-y="3.024 " data-x="2047" r="4" fill="#2D137F"><title>2047: 3.024 </title></circle>
	<circle cx="576.77" cy="46.32" data-y="3.129 " data-x="2048" r="4" fill="#2D137F"><title>2048: 3.129 </title></circle>
	<circle cx="594.52" cy="46.60" data-y="3.125 " data-x="2049" r="4" fill="#2D137F"><title>2049: 3.125 </title></circle>
	<circle cx="612.26" cy="47.17" data-y="3.117 " data-x="2050" r="4" fill="#2D137F"><title>2050: 3.117 </title></circle>
</g>
<g data-scenario="heat-pumps---i-and-c" class="data-series">	<path d="M 80.00,266.71L 97.74,266.71L 115.48,266.71L 133.23,266.43L 150.97,265.85L 168.71,265.28L 186.45,264.57L 204.19,263.78L 221.94,262.99L 239.68,261.64L 257.42,260.21L 275.16,258.42L 292.90,256.99L 310.65,255.20L 328.39,253.56L 346.13,251.84L 363.87,250.13L 381.61,247.84L 399.35,245.19L 417.10,242.26L 434.84,239.69L 452.58,237.26L 470.32,234.54L 488.06,231.68L 505.81,228.82L 523.55,225.82L 541.29,222.75L 559.03,219.67L 576.77,216.88L 594.52,215.03L 612.26,214.10" id="Heat pumps - I &amp; C" class="line" stroke="#cc0935" stroke-width="3" stroke-linecap="round"><title>Heat pumps - I &amp; C</title></path>
	<circle cx="80.00" cy="266.71" data-y="0.046 " data-x="2020" r="4" fill="#cc0935"><title>2020: 0.046 </title></circle>
	<circle cx="97.74" cy="266.71" data-y="0.046 " data-x="2021" r="4" fill="#cc0935"><title>2021: 0.046 </title></circle>
	<circle cx="115.48" cy="266.71" data-y="0.046 " data-x="2022" r="4" fill="#cc0935"><title>2022: 0.046 </title></circle>
	<circle cx="133.23" cy="266.43" data-y="0.050 " data-x="2023" r="4" fill="#cc0935"><title>2023: 0.050 </title></circle>
	<circle cx="150.97" cy="265.85" data-y="0.058 " data-x="2024" r="4" fill="#cc0935"><title>2024: 0.058 </title></circle>
	<circle cx="168.71" cy="265.28" data-y="0.066 " data-x="2025" r="4" fill="#cc0935"><title>2025: 0.066 </title></circle>
	<circle cx="186.45" cy="264.57" data-y="0.076 " data-x="2026" r="4" fill="#cc0935"><title>2026: 0.076 </title></circle>
	<circle cx="204.19" cy="263.78" data-y="0.087 " data-x="2027" r="4" fill="#cc0935"><title>2027: 0.087 </title></circle>
	<circle cx="221.94" cy="262.99" data-y="0.098 " data-x="2028" r="4" fill="#cc0935"><title>2028: 0.098 </title></circle>
	<circle cx="239.68" cy="261.64" data-y="0.117 " data-x="2029" r="4" fill="#cc0935"><title>2029: 0.117 </title></circle>
	<circle cx="257.42" cy="260.21" data-y="0.137 " data-x="2030" r="4" fill="#cc0935"><title>2030: 0.137 </title></circle>
	<circle cx="275.16" cy="258.42" data-y="0.162 " data-x="2031" r="4" fill="#cc0935"><title>2031: 0.162 </title></circle>
	<circle cx="292.90" cy="256.99" data-y="0.182 " data-x="2032" r="4" fill="#cc0935"><title>2032: 0.182 </title></circle>
	<circle cx="310.65" cy="255.20" data-y="0.207 " data-x="2033" r="4" fill="#cc0935"><title>2033: 0.207 </title></circle>
	<circle cx="328.39" cy="253.56" data-y="0.230 " data-x="2034" r="4" fill="#cc0935"><title>2034: 0.230 </title></circle>
	<circle cx="346.13" cy="251.84" data-y="0.254 " data-x="2035" r="4" fill="#cc0935"><title>2035: 0.254 </title></circle>
	<circle cx="363.87" cy="250.13" data-y="0.278 " data-x="2036" r="4" fill="#cc0935"><title>2036: 0.278 </title></circle>
	<circle cx="381.61" cy="247.84" data-y="0.310 " data-x="2037" r="4" fill="#cc0935"><title>2037: 0.310 </title></circle>
	<circle cx="399.35" cy="245.19" data-y="0.347 " data-x="2038" r="4" fill="#cc0935"><title>2038: 0.347 </title></circle>
	<circle cx="417.10" cy="242.26" data-y="0.388 " data-x="2039" r="4" fill="#cc0935"><title>2039: 0.388 </title></circle>
	<circle cx="434.84" cy="239.69" data-y="0.424 " data-x="2040" r="4" fill="#cc0935"><title>2040: 0.424 </title></circle>
	<circle cx="452.58" cy="237.26" data-y="0.458 " data-x="2041" r="4" fill="#cc0935"><title>2041: 0.458 </title></circle>
	<circle cx="470.32" cy="234.54" data-y="0.496 " data-x="2042" r="4" fill="#cc0935"><title>2042: 0.496 </title></circle>
	<circle cx="488.06" cy="231.68" data-y="0.536 " data-x="2043" r="4" fill="#cc0935"><title>2043: 0.536 </title></circle>
	<circle cx="505.81" cy="228.82" data-y="0.576 " data-x="2044" r="4" fill="#cc0935"><title>2044: 0.576 </title></circle>
	<circle cx="523.55" cy="225.82" data-y="0.618 " data-x="2045" r="4" fill="#cc0935"><title>2045: 0.618 </title></circle>
	<circle cx="541.29" cy="222.75" data-y="0.661 " data-x="2046" r="4" fill="#cc0935"><title>2046: 0.661 </title></circle>
	<circle cx="559.03" cy="219.67" data-y="0.704 " data-x="2047" r="4" fill="#cc0935"><title>2047: 0.704 </title></circle>
	<circle cx="576.77" cy="216.88" data-y="0.743 " data-x="2048" r="4" fill="#cc0935"><title>2048: 0.743 </title></circle>
	<circle cx="594.52" cy="215.03" data-y="0.769 " data-x="2049" r="4" fill="#cc0935"><title>2049: 0.769 </title></circle>
	<circle cx="612.26" cy="214.10" data-y="0.782 " data-x="2050" r="4" fill="#cc0935"><title>2050: 0.782 </title></circle>
</g>
<g data-scenario="ev" class="data-series">	<path d="M 80.00,268.50L 97.74,267.57L 115.48,265.64L 133.23,261.14L 150.97,254.99L 168.71,247.77L 186.45,240.12L 204.19,231.40L 221.94,221.03L 239.68,209.66L 257.42,194.51L 275.16,180.64L 292.90,167.63L 310.65,154.33L 328.39,141.68L 346.13,124.81L 363.87,109.80L 381.61,99.43L 399.35,90.28L 417.10,83.13L 434.84,76.98L 452.58,73.27L 470.32,70.41L 488.06,68.48L 505.81,67.19L 523.55,66.62L 541.29,66.62L 559.03,66.90L 576.77,67.48L 594.52,68.33L 612.26,69.26" id="EV" class="line" stroke="#45D526" stroke-width="3" stroke-linecap="round"><title>EV</title></path>
	<circle cx="80.00" cy="268.50" data-y="0.021 " data-x="2020" r="4" fill="#45D526"><title>2020: 0.021 </title></circle>
	<circle cx="97.74" cy="267.57" data-y="0.034 " data-x="2021" r="4" fill="#45D526"><title>2021: 0.034 </title></circle>
	<circle cx="115.48" cy="265.64" data-y="0.061 " data-x="2022" r="4" fill="#45D526"><title>2022: 0.061 </title></circle>
	<circle cx="133.23" cy="261.14" data-y="0.124 " data-x="2023" r="4" fill="#45D526"><title>2023: 0.124 </title></circle>
	<circle cx="150.97" cy="254.99" data-y="0.210 " data-x="2024" r="4" fill="#45D526"><title>2024: 0.210 </title></circle>
	<circle cx="168.71" cy="247.77" data-y="0.311 " data-x="2025" r="4" fill="#45D526"><title>2025: 0.311 </title></circle>
	<circle cx="186.45" cy="240.12" data-y="0.418 " data-x="2026" r="4" fill="#45D526"><title>2026: 0.418 </title></circle>
	<circle cx="204.19" cy="231.40" data-y="0.540 " data-x="2027" r="4" fill="#45D526"><title>2027: 0.540 </title></circle>
	<circle cx="221.94" cy="221.03" data-y="0.685 " data-x="2028" r="4" fill="#45D526"><title>2028: 0.685 </title></circle>
	<circle cx="239.68" cy="209.66" data-y="0.844 " data-x="2029" r="4" fill="#45D526"><title>2029: 0.844 </title></circle>
	<circle cx="257.42" cy="194.51" data-y="1.056 " data-x="2030" r="4" fill="#45D526"><title>2030: 1.056 </title></circle>
	<circle cx="275.16" cy="180.64" data-y="1.250 " data-x="2031" r="4" fill="#45D526"><title>2031: 1.250 </title></circle>
	<circle cx="292.90" cy="167.63" data-y="1.432 " data-x="2032" r="4" fill="#45D526"><title>2032: 1.432 </title></circle>
	<circle cx="310.65" cy="154.33" data-y="1.618 " data-x="2033" r="4" fill="#45D526"><title>2033: 1.618 </title></circle>
	<circle cx="328.39" cy="141.68" data-y="1.795 " data-x="2034" r="4" fill="#45D526"><title>2034: 1.795 </title></circle>
	<circle cx="346.13" cy="124.81" data-y="2.031 " data-x="2035" r="4" fill="#45D526"><title>2035: 2.031 </title></circle>
	<circle cx="363.87" cy="109.80" data-y="2.241 " data-x="2036" r="4" fill="#45D526"><title>2036: 2.241 </title></circle>
	<circle cx="381.61" cy="99.43" data-y="2.386 " data-x="2037" r="4" fill="#45D526"><title>2037: 2.386 </title></circle>
	<circle cx="399.35" cy="90.28" data-y="2.514 " data-x="2038" r="4" fill="#45D526"><title>2038: 2.514 </title></circle>
	<circle cx="417.10" cy="83.13" data-y="2.614 " data-x="2039" r="4" fill="#45D526"><title>2039: 2.614 </title></circle>
	<circle cx="434.84" cy="76.98" data-y="2.700 " data-x="2040" r="4" fill="#45D526"><title>2040: 2.700 </title></circle>
	<circle cx="452.58" cy="73.27" data-y="2.752 " data-x="2041" r="4" fill="#45D526"><title>2041: 2.752 </title></circle>
	<circle cx="470.32" cy="70.41" data-y="2.792 " data-x="2042" r="4" fill="#45D526"><title>2042: 2.792 </title></circle>
	<circle cx="488.06" cy="68.48" data-y="2.819 " data-x="2043" r="4" fill="#45D526"><title>2043: 2.819 </title></circle>
	<circle cx="505.81" cy="67.19" data-y="2.837 " data-x="2044" r="4" fill="#45D526"><title>2044: 2.837 </title></circle>
	<circle cx="523.55" cy="66.62" data-y="2.845 " data-x="2045" r="4" fill="#45D526"><title>2045: 2.845 </title></circle>
	<circle cx="541.29" cy="66.62" data-y="2.845 " data-x="2046" r="4" fill="#45D526"><title>2046: 2.845 </title></circle>
	<circle cx="559.03" cy="66.90" data-y="2.841 " data-x="2047" r="4" fill="#45D526"><title>2047: 2.841 </title></circle>
	<circle cx="576.77" cy="67.48" data-y="2.833 " data-x="2048" r="4" fill="#45D526"><title>2048: 2.833 </title></circle>
	<circle cx="594.52" cy="68.33" data-y="2.821 " data-x="2049" r="4" fill="#45D526"><title>2049: 2.821 </title></circle>
	<circle cx="612.26" cy="69.26" data-y="2.808 " data-x="2050" r="4" fill="#45D526"><title>2050: 2.808 </title></circle>
</g>
</svg>
