<svg width="640" height="320" viewBox="0 0 640 320" xmlns="http://www.w3.org/2000/svg" style="overflow:display" preserveAspectRatio="xMinYMin meet" overflow="visible">
<defs>
	<style>
	.data-series path.line { fill-opacity: 0; }
	.data-series path.line.dotted { stroke-dasharray: 12 20 }
	.data-series circle { display: none; }
	.data-series:hover path.line, .data-series.on path.line { stroke-width: 5; }
	.data-series:hover circle, .data-series.on circle { display: inline; }
	.data-series circle:hover, .data-series circle.on { r: 6px!important; fill: black; }
	.grid { font-family: "Helvetica Neue",Helvetica,Arial,"Lucida Grande",sans-serif; }
	.grid line { stroke: rgb(0,0,0); stroke-width: 2; stroke-linecap: round; }
	.grid.grid-x text { text-anchor: middle; dominant-baseline: hanging; transform: translateY(10px); }
	.grid.grid-y text { text-anchor: end; dominant-baseline: middle; transform: translateX(-10px); }
	</style>
</defs>
<g class="grid grid-y">
	<line x1="70" y1="270" x2="630" y2="270" data-left="70"></line>
	<text x="70" y="270" text-anchor="end">0</text>
	<text x="70" y="194.963924963925" text-anchor="end">10</text>
	<text x="70" y="119.92784992785" text-anchor="end">20</text>
	<text x="70" y="44.8917748917749" text-anchor="end">30</text>
	<text style="text-anchor:middle;dominant-baseline:hanging;font-weight:bold;transform: translateY(140px) rotate(-90deg);">Annual emissions (MtCO2)</text>
</g>
<g class="grid grid-x">
	<line class="tick" x1="70" y1="270" x2="70" y2="275"></line>
	<text x="70" y="270" text-anchor="middle">2020</text>
	<line class="tick" x1="250.645161290323" y1="270" x2="250.645161290323" y2="275"></line>
	<text x="250.645161290323" y="270" text-anchor="middle">2030</text>
	<line class="tick" x1="431.290322580645" y1="270" x2="431.290322580645" y2="275"></line>
	<text x="431.290322580645" y="270" text-anchor="middle">2040</text>
	<line class="tick" x1="611.935483870968" y1="270" x2="611.935483870968" y2="275"></line>
	<text x="611.935483870968" y="270" text-anchor="middle">2050</text>
	<text style="text-anchor:middle;dominant-baseline:hanging;font-weight:bold;transform: translateY(140px) rotate(-90deg);"></text>
</g>
<g data-scenario="heating-oil" class="data-series">	<path d="" id="Heating oil" class="line" stroke="#420A0C" stroke-width="3" stroke-linecap="round"><title>Heating oil</title></path>
</g>
<g data-scenario="natural-gas" class="data-series">	<path d="M 70.00,186.62L 88.06,187.59L 106.13,188.56L 124.19,189.79L 142.26,191.08L 160.32,192.87L 178.39,195.06L 196.45,197.68L 214.52,201.11L 232.58,204.64L 250.65,208.26L 268.71,211.17L 286.77,214.28L 304.84,217.81L 322.90,221.84L 340.97,225.89L 359.03,229.74L 377.10,233.42L 395.16,237.14L 413.23,240.97L 431.29,244.92L 449.35,249.13L 467.42,252.91L 485.48,256.24L 503.55,259.43L 521.61,262.17L 539.68,264.64L 557.74,267.06L 575.81,268.98L 593.87,269.47L 611.94,269.87" id="Natural gas" class="line" stroke="#B8BFF9" stroke-width="3" stroke-linecap="round"><title>Natural gas</title></path>
	<circle cx="70.00" cy="186.62" data-y="11.112" data-x="2020" r="4" fill="#B8BFF9"><title>2020: 11.112</title></circle>
	<circle cx="88.06" cy="187.59" data-y="10.983" data-x="2021" r="4" fill="#B8BFF9"><title>2021: 10.983</title></circle>
	<circle cx="106.13" cy="188.56" data-y="10.854" data-x="2022" r="4" fill="#B8BFF9"><title>2022: 10.854</title></circle>
	<circle cx="124.19" cy="189.79" data-y="10.690" data-x="2023" r="4" fill="#B8BFF9"><title>2023: 10.690</title></circle>
	<circle cx="142.26" cy="191.08" data-y="10.518" data-x="2024" r="4" fill="#B8BFF9"><title>2024: 10.518</title></circle>
	<circle cx="160.32" cy="192.87" data-y="10.279" data-x="2025" r="4" fill="#B8BFF9"><title>2025: 10.279</title></circle>
	<circle cx="178.39" cy="195.06" data-y="9.987" data-x="2026" r="4" fill="#B8BFF9"><title>2026: 9.987</title></circle>
	<circle cx="196.45" cy="197.68" data-y="9.638" data-x="2027" r="4" fill="#B8BFF9"><title>2027: 9.638</title></circle>
	<circle cx="214.52" cy="201.11" data-y="9.181" data-x="2028" r="4" fill="#B8BFF9"><title>2028: 9.181</title></circle>
	<circle cx="232.58" cy="204.64" data-y="8.711" data-x="2029" r="4" fill="#B8BFF9"><title>2029: 8.711</title></circle>
	<circle cx="250.65" cy="208.26" data-y="8.228" data-x="2030" r="4" fill="#B8BFF9"><title>2030: 8.228</title></circle>
	<circle cx="268.71" cy="211.17" data-y="7.840" data-x="2031" r="4" fill="#B8BFF9"><title>2031: 7.840</title></circle>
	<circle cx="286.77" cy="214.28" data-y="7.426" data-x="2032" r="4" fill="#B8BFF9"><title>2032: 7.426</title></circle>
	<circle cx="304.84" cy="217.81" data-y="6.955" data-x="2033" r="4" fill="#B8BFF9"><title>2033: 6.955</title></circle>
	<circle cx="322.90" cy="221.84" data-y="6.418" data-x="2034" r="4" fill="#B8BFF9"><title>2034: 6.418</title></circle>
	<circle cx="340.97" cy="225.89" data-y="5.878" data-x="2035" r="4" fill="#B8BFF9"><title>2035: 5.878</title></circle>
	<circle cx="359.03" cy="229.74" data-y="5.366" data-x="2036" r="4" fill="#B8BFF9"><title>2036: 5.366</title></circle>
	<circle cx="377.10" cy="233.42" data-y="4.875" data-x="2037" r="4" fill="#B8BFF9"><title>2037: 4.875</title></circle>
	<circle cx="395.16" cy="237.14" data-y="4.379" data-x="2038" r="4" fill="#B8BFF9"><title>2038: 4.379</title></circle>
	<circle cx="413.23" cy="240.97" data-y="3.869" data-x="2039" r="4" fill="#B8BFF9"><title>2039: 3.869</title></circle>
	<circle cx="431.29" cy="244.92" data-y="3.342" data-x="2040" r="4" fill="#B8BFF9"><title>2040: 3.342</title></circle>
	<circle cx="449.35" cy="249.13" data-y="2.781" data-x="2041" r="4" fill="#B8BFF9"><title>2041: 2.781</title></circle>
	<circle cx="467.42" cy="252.91" data-y="2.278" data-x="2042" r="4" fill="#B8BFF9"><title>2042: 2.278</title></circle>
	<circle cx="485.48" cy="256.24" data-y="1.834" data-x="2043" r="4" fill="#B8BFF9"><title>2043: 1.834</title></circle>
	<circle cx="503.55" cy="259.43" data-y="1.408" data-x="2044" r="4" fill="#B8BFF9"><title>2044: 1.408</title></circle>
	<circle cx="521.61" cy="262.17" data-y="1.044" data-x="2045" r="4" fill="#B8BFF9"><title>2045: 1.044</title></circle>
	<circle cx="539.68" cy="264.64" data-y="0.714" data-x="2046" r="4" fill="#B8BFF9"><title>2046: 0.714</title></circle>
	<circle cx="557.74" cy="267.06" data-y="0.392" data-x="2047" r="4" fill="#B8BFF9"><title>2047: 0.392</title></circle>
	<circle cx="575.81" cy="268.98" data-y="0.136" data-x="2048" r="4" fill="#B8BFF9"><title>2048: 0.136</title></circle>
	<circle cx="593.87" cy="269.47" data-y="0.071" data-x="2049" r="4" fill="#B8BFF9"><title>2049: 0.071</title></circle>
	<circle cx="611.94" cy="269.87" data-y="0.017" data-x="2050" r="4" fill="#B8BFF9"><title>2050: 0.017</title></circle>
</g>
<g data-scenario="hydrogen" class="data-series">	<path d="L 88.06,269.99L 106.13,269.99L 124.19,269.99L 142.26,269.99L 160.32,269.99L 178.39,269.99L 196.45,269.99L 214.52,269.99L 232.58,269.99L 250.65,269.97L 268.71,269.95L 286.77,269.95L 304.84,269.94L 322.90,269.94L 340.97,269.94L 359.03,269.26L 377.10,268.83L 395.16,268.59L 413.23,268.51L 431.29,268.57L 449.35,268.57L 467.42,268.66L 485.48,268.85L 503.55,269.13L 521.61,269.06L 539.68,269.08L 557.74,269.11L 575.81,269.13L 593.87,269.15L 611.94,269.17" id="Hydrogen" class="line" stroke="#0279FA" stroke-width="3" stroke-linecap="round"><title>Hydrogen</title></path>
	<circle cx="88.06" cy="269.99" data-y="0.001" data-x="2021" r="4" fill="#0279FA"><title>2021: 0.001</title></circle>
	<circle cx="106.13" cy="269.99" data-y="0.001" data-x="2022" r="4" fill="#0279FA"><title>2022: 0.001</title></circle>
	<circle cx="124.19" cy="269.99" data-y="0.001" data-x="2023" r="4" fill="#0279FA"><title>2023: 0.001</title></circle>
	<circle cx="142.26" cy="269.99" data-y="0.001" data-x="2024" r="4" fill="#0279FA"><title>2024: 0.001</title></circle>
	<circle cx="160.32" cy="269.99" data-y="0.001" data-x="2025" r="4" fill="#0279FA"><title>2025: 0.001</title></circle>
	<circle cx="178.39" cy="269.99" data-y="0.001" data-x="2026" r="4" fill="#0279FA"><title>2026: 0.001</title></circle>
	<circle cx="196.45" cy="269.99" data-y="0.001" data-x="2027" r="4" fill="#0279FA"><title>2027: 0.001</title></circle>
	<circle cx="214.52" cy="269.99" data-y="0.001" data-x="2028" r="4" fill="#0279FA"><title>2028: 0.001</title></circle>
	<circle cx="232.58" cy="269.99" data-y="0.001" data-x="2029" r="4" fill="#0279FA"><title>2029: 0.001</title></circle>
	<circle cx="250.65" cy="269.97" data-y="0.004" data-x="2030" r="4" fill="#0279FA"><title>2030: 0.004</title></circle>
	<circle cx="268.71" cy="269.95" data-y="0.006" data-x="2031" r="4" fill="#0279FA"><title>2031: 0.006</title></circle>
	<circle cx="286.77" cy="269.95" data-y="0.007" data-x="2032" r="4" fill="#0279FA"><title>2032: 0.007</title></circle>
	<circle cx="304.84" cy="269.94" data-y="0.008" data-x="2033" r="4" fill="#0279FA"><title>2033: 0.008</title></circle>
	<circle cx="322.90" cy="269.94" data-y="0.008" data-x="2034" r="4" fill="#0279FA"><title>2034: 0.008</title></circle>
	<circle cx="340.97" cy="269.94" data-y="0.008" data-x="2035" r="4" fill="#0279FA"><title>2035: 0.008</title></circle>
	<circle cx="359.03" cy="269.26" data-y="0.098" data-x="2036" r="4" fill="#0279FA"><title>2036: 0.098</title></circle>
	<circle cx="377.10" cy="268.83" data-y="0.156" data-x="2037" r="4" fill="#0279FA"><title>2037: 0.156</title></circle>
	<circle cx="395.16" cy="268.59" data-y="0.188" data-x="2038" r="4" fill="#0279FA"><title>2038: 0.188</title></circle>
	<circle cx="413.23" cy="268.51" data-y="0.198" data-x="2039" r="4" fill="#0279FA"><title>2039: 0.198</title></circle>
	<circle cx="431.29" cy="268.57" data-y="0.191" data-x="2040" r="4" fill="#0279FA"><title>2040: 0.191</title></circle>
	<circle cx="449.35" cy="268.57" data-y="0.191" data-x="2041" r="4" fill="#0279FA"><title>2041: 0.191</title></circle>
	<circle cx="467.42" cy="268.66" data-y="0.178" data-x="2042" r="4" fill="#0279FA"><title>2042: 0.178</title></circle>
	<circle cx="485.48" cy="268.85" data-y="0.153" data-x="2043" r="4" fill="#0279FA"><title>2043: 0.153</title></circle>
	<circle cx="503.55" cy="269.13" data-y="0.116" data-x="2044" r="4" fill="#0279FA"><title>2044: 0.116</title></circle>
	<circle cx="521.61" cy="269.06" data-y="0.125" data-x="2045" r="4" fill="#0279FA"><title>2045: 0.125</title></circle>
	<circle cx="539.68" cy="269.08" data-y="0.123" data-x="2046" r="4" fill="#0279FA"><title>2046: 0.123</title></circle>
	<circle cx="557.74" cy="269.11" data-y="0.119" data-x="2047" r="4" fill="#0279FA"><title>2047: 0.119</title></circle>
	<circle cx="575.81" cy="269.13" data-y="0.116" data-x="2048" r="4" fill="#0279FA"><title>2048: 0.116</title></circle>
	<circle cx="593.87" cy="269.15" data-y="0.113" data-x="2049" r="4" fill="#0279FA"><title>2049: 0.113</title></circle>
	<circle cx="611.94" cy="269.17" data-y="0.11" data-x="2050" r="4" fill="#0279FA"><title>2050: 0.11</title></circle>
</g>
<g data-scenario="bioenergy" class="data-series">	<path d="M 70.00,269.56L 88.06,269.57L 106.13,269.59L 124.19,269.60L 142.26,269.62L 160.32,269.63L 178.39,269.65L 196.45,269.68L 214.52,269.71L 232.58,269.72L 250.65,269.74L 268.71,269.76L 286.77,269.77L 304.84,269.79L 322.90,269.80L 340.97,269.82L 359.03,269.83L 377.10,269.85L 395.16,269.86L 413.23,269.87L 431.29,269.89L 449.35,269.90L 467.42,269.91L 485.48,269.92L 503.55,269.92L 521.61,269.92L 539.68,269.92L 557.74,269.92L 575.81,269.92L 593.87,269.92L 611.94,269.93" id="Bioenergy" class="line" stroke="#019303" stroke-width="3" stroke-linecap="round"><title>Bioenergy</title></path>
	<circle cx="70.00" cy="269.56" data-y="0.058" data-x="2020" r="4" fill="#019303"><title>2020: 0.058</title></circle>
	<circle cx="88.06" cy="269.57" data-y="0.057" data-x="2021" r="4" fill="#019303"><title>2021: 0.057</title></circle>
	<circle cx="106.13" cy="269.59" data-y="0.055" data-x="2022" r="4" fill="#019303"><title>2022: 0.055</title></circle>
	<circle cx="124.19" cy="269.60" data-y="0.053" data-x="2023" r="4" fill="#019303"><title>2023: 0.053</title></circle>
	<circle cx="142.26" cy="269.62" data-y="0.051" data-x="2024" r="4" fill="#019303"><title>2024: 0.051</title></circle>
	<circle cx="160.32" cy="269.63" data-y="0.049" data-x="2025" r="4" fill="#019303"><title>2025: 0.049</title></circle>
	<circle cx="178.39" cy="269.65" data-y="0.046" data-x="2026" r="4" fill="#019303"><title>2026: 0.046</title></circle>
	<circle cx="196.45" cy="269.68" data-y="0.043" data-x="2027" r="4" fill="#019303"><title>2027: 0.043</title></circle>
	<circle cx="214.52" cy="269.71" data-y="0.039" data-x="2028" r="4" fill="#019303"><title>2028: 0.039</title></circle>
	<circle cx="232.58" cy="269.72" data-y="0.037" data-x="2029" r="4" fill="#019303"><title>2029: 0.037</title></circle>
	<circle cx="250.65" cy="269.74" data-y="0.034" data-x="2030" r="4" fill="#019303"><title>2030: 0.034</title></circle>
	<circle cx="268.71" cy="269.76" data-y="0.032" data-x="2031" r="4" fill="#019303"><title>2031: 0.032</title></circle>
	<circle cx="286.77" cy="269.77" data-y="0.030" data-x="2032" r="4" fill="#019303"><title>2032: 0.030</title></circle>
	<circle cx="304.84" cy="269.79" data-y="0.028" data-x="2033" r="4" fill="#019303"><title>2033: 0.028</title></circle>
	<circle cx="322.90" cy="269.80" data-y="0.026" data-x="2034" r="4" fill="#019303"><title>2034: 0.026</title></circle>
	<circle cx="340.97" cy="269.82" data-y="0.024" data-x="2035" r="4" fill="#019303"><title>2035: 0.024</title></circle>
	<circle cx="359.03" cy="269.83" data-y="0.022" data-x="2036" r="4" fill="#019303"><title>2036: 0.022</title></circle>
	<circle cx="377.10" cy="269.85" data-y="0.020" data-x="2037" r="4" fill="#019303"><title>2037: 0.020</title></circle>
	<circle cx="395.16" cy="269.86" data-y="0.019" data-x="2038" r="4" fill="#019303"><title>2038: 0.019</title></circle>
	<circle cx="413.23" cy="269.87" data-y="0.017" data-x="2039" r="4" fill="#019303"><title>2039: 0.017</title></circle>
	<circle cx="431.29" cy="269.89" data-y="0.015" data-x="2040" r="4" fill="#019303"><title>2040: 0.015</title></circle>
	<circle cx="449.35" cy="269.90" data-y="0.013" data-x="2041" r="4" fill="#019303"><title>2041: 0.013</title></circle>
	<circle cx="467.42" cy="269.91" data-y="0.012" data-x="2042" r="4" fill="#019303"><title>2042: 0.012</title></circle>
	<circle cx="485.48" cy="269.92" data-y="0.010" data-x="2043" r="4" fill="#019303"><title>2043: 0.010</title></circle>
	<circle cx="503.55" cy="269.92" data-y="0.010" data-x="2044" r="4" fill="#019303"><title>2044: 0.010</title></circle>
	<circle cx="521.61" cy="269.92" data-y="0.010" data-x="2045" r="4" fill="#019303"><title>2045: 0.010</title></circle>
	<circle cx="539.68" cy="269.92" data-y="0.010" data-x="2046" r="4" fill="#019303"><title>2046: 0.010</title></circle>
	<circle cx="557.74" cy="269.92" data-y="0.010" data-x="2047" r="4" fill="#019303"><title>2047: 0.010</title></circle>
	<circle cx="575.81" cy="269.92" data-y="0.010" data-x="2048" r="4" fill="#019303"><title>2048: 0.010</title></circle>
	<circle cx="593.87" cy="269.92" data-y="0.010" data-x="2049" r="4" fill="#019303"><title>2049: 0.010</title></circle>
	<circle cx="611.94" cy="269.93" data-y="0.009" data-x="2050" r="4" fill="#019303"><title>2050: 0.009</title></circle>
</g>
<g data-scenario="petrol" class="data-series">	<path d="M 70.00,133.87L 88.06,133.91L 106.13,135.79L 124.19,140.35L 142.26,145.43L 160.32,151.94L 178.39,160.48L 196.45,169.17L 214.52,178.25L 232.58,187.41L 250.65,196.23L 268.71,204.96L 286.77,214.27L 304.84,222.82L 322.90,230.55L 340.97,237.46L 359.03,243.26L 377.10,248.37L 395.16,252.86L 413.23,256.77L 431.29,260.14L 449.35,262.89L 467.42,265.11L 485.48,266.88L 503.55,268.01L 521.61,268.77L 539.68,269.19L 557.74,269.50L 575.81,269.64L 593.87,269.73L 611.94,269.80" id="Petrol" class="line" stroke="#FFC300" stroke-width="3" stroke-linecap="round"><title>Petrol</title></path>
	<circle cx="70.00" cy="133.87" data-y="18.142" data-x="2020" r="4" fill="#FFC300"><title>2020: 18.142</title></circle>
	<circle cx="88.06" cy="133.91" data-y="18.136" data-x="2021" r="4" fill="#FFC300"><title>2021: 18.136</title></circle>
	<circle cx="106.13" cy="135.79" data-y="17.886" data-x="2022" r="4" fill="#FFC300"><title>2022: 17.886</title></circle>
	<circle cx="124.19" cy="140.35" data-y="17.279" data-x="2023" r="4" fill="#FFC300"><title>2023: 17.279</title></circle>
	<circle cx="142.26" cy="145.43" data-y="16.601" data-x="2024" r="4" fill="#FFC300"><title>2024: 16.601</title></circle>
	<circle cx="160.32" cy="151.94" data-y="15.734" data-x="2025" r="4" fill="#FFC300"><title>2025: 15.734</title></circle>
	<circle cx="178.39" cy="160.48" data-y="14.595" data-x="2026" r="4" fill="#FFC300"><title>2026: 14.595</title></circle>
	<circle cx="196.45" cy="169.17" data-y="13.438" data-x="2027" r="4" fill="#FFC300"><title>2027: 13.438</title></circle>
	<circle cx="214.52" cy="178.25" data-y="12.228" data-x="2028" r="4" fill="#FFC300"><title>2028: 12.228</title></circle>
	<circle cx="232.58" cy="187.41" data-y="11.007" data-x="2029" r="4" fill="#FFC300"><title>2029: 11.007</title></circle>
	<circle cx="250.65" cy="196.23" data-y="9.831" data-x="2030" r="4" fill="#FFC300"><title>2030: 9.831</title></circle>
	<circle cx="268.71" cy="204.96" data-y="8.668" data-x="2031" r="4" fill="#FFC300"><title>2031: 8.668</title></circle>
	<circle cx="286.77" cy="214.27" data-y="7.427" data-x="2032" r="4" fill="#FFC300"><title>2032: 7.427</title></circle>
	<circle cx="304.84" cy="222.82" data-y="6.288" data-x="2033" r="4" fill="#FFC300"><title>2033: 6.288</title></circle>
	<circle cx="322.90" cy="230.55" data-y="5.258" data-x="2034" r="4" fill="#FFC300"><title>2034: 5.258</title></circle>
	<circle cx="340.97" cy="237.46" data-y="4.336" data-x="2035" r="4" fill="#FFC300"><title>2035: 4.336</title></circle>
	<circle cx="359.03" cy="243.26" data-y="3.563" data-x="2036" r="4" fill="#FFC300"><title>2036: 3.563</title></circle>
	<circle cx="377.10" cy="248.37" data-y="2.882" data-x="2037" r="4" fill="#FFC300"><title>2037: 2.882</title></circle>
	<circle cx="395.16" cy="252.86" data-y="2.284" data-x="2038" r="4" fill="#FFC300"><title>2038: 2.284</title></circle>
	<circle cx="413.23" cy="256.77" data-y="1.763" data-x="2039" r="4" fill="#FFC300"><title>2039: 1.763</title></circle>
	<circle cx="431.29" cy="260.14" data-y="1.314" data-x="2040" r="4" fill="#FFC300"><title>2040: 1.314</title></circle>
	<circle cx="449.35" cy="262.89" data-y="0.948" data-x="2041" r="4" fill="#FFC300"><title>2041: 0.948</title></circle>
	<circle cx="467.42" cy="265.11" data-y="0.652" data-x="2042" r="4" fill="#FFC300"><title>2042: 0.652</title></circle>
	<circle cx="485.48" cy="266.88" data-y="0.416" data-x="2043" r="4" fill="#FFC300"><title>2043: 0.416</title></circle>
	<circle cx="503.55" cy="268.01" data-y="0.265" data-x="2044" r="4" fill="#FFC300"><title>2044: 0.265</title></circle>
	<circle cx="521.61" cy="268.77" data-y="0.164" data-x="2045" r="4" fill="#FFC300"><title>2045: 0.164</title></circle>
	<circle cx="539.68" cy="269.19" data-y="0.108" data-x="2046" r="4" fill="#FFC300"><title>2046: 0.108</title></circle>
	<circle cx="557.74" cy="269.50" data-y="0.067" data-x="2047" r="4" fill="#FFC300"><title>2047: 0.067</title></circle>
	<circle cx="575.81" cy="269.64" data-y="0.048" data-x="2048" r="4" fill="#FFC300"><title>2048: 0.048</title></circle>
	<circle cx="593.87" cy="269.73" data-y="0.036" data-x="2049" r="4" fill="#FFC300"><title>2049: 0.036</title></circle>
	<circle cx="611.94" cy="269.80" data-y="0.027" data-x="2050" r="4" fill="#FFC300"><title>2050: 0.027</title></circle>
</g>
<g data-scenario="diesel" class="data-series">	<path d="M 70.00,270.00" id="Diesel" class="line" stroke="#846F3F" stroke-width="3" stroke-linecap="round"><title>Diesel</title></path>
	<circle cx="70.00" cy="270.00" data-y="0.000" data-x="2020" r="4" fill="#846F3F"><title>2020: 0.000</title></circle>
</g>
<g data-scenario="electricity" class="data-series">	<path d="M 70.00,228.10L 88.06,229.23L 106.13,229.98L 124.19,233.62L 142.26,233.12L 160.32,235.47L 178.39,243.77L 196.45,248.42L 214.52,250.75L 232.58,252.07L 250.65,255.11L 268.71,257.53L 286.77,260.72L 304.84,262.77L 322.90,264.39L 340.97,265.84L 359.03,265.96L 377.10,266.20L 395.16,266.29L 413.23,266.46L 431.29,266.70L 449.35,267.70L 467.42,267.88L 485.48,268.00L 503.55,268.06L 521.61,268.70L 539.68,268.81L 557.74,269.05L 575.81,269.05L 593.87,269.20L 611.94,269.21" id="Electricity" class="line" stroke="#cc0935" stroke-width="3" stroke-linecap="round"><title>Electricity</title></path>
	<circle cx="70.00" cy="228.10" data-y="5.584" data-x="2020" r="4" fill="#cc0935"><title>2020: 5.584</title></circle>
	<circle cx="88.06" cy="229.23" data-y="5.433" data-x="2021" r="4" fill="#cc0935"><title>2021: 5.433</title></circle>
	<circle cx="106.13" cy="229.98" data-y="5.334" data-x="2022" r="4" fill="#cc0935"><title>2022: 5.334</title></circle>
	<circle cx="124.19" cy="233.62" data-y="4.848" data-x="2023" r="4" fill="#cc0935"><title>2023: 4.848</title></circle>
	<circle cx="142.26" cy="233.12" data-y="4.915" data-x="2024" r="4" fill="#cc0935"><title>2024: 4.915</title></circle>
	<circle cx="160.32" cy="235.47" data-y="4.602" data-x="2025" r="4" fill="#cc0935"><title>2025: 4.602</title></circle>
	<circle cx="178.39" cy="243.77" data-y="3.495" data-x="2026" r="4" fill="#cc0935"><title>2026: 3.495</title></circle>
	<circle cx="196.45" cy="248.42" data-y="2.876" data-x="2027" r="4" fill="#cc0935"><title>2027: 2.876</title></circle>
	<circle cx="214.52" cy="250.75" data-y="2.565" data-x="2028" r="4" fill="#cc0935"><title>2028: 2.565</title></circle>
	<circle cx="232.58" cy="252.07" data-y="2.390" data-x="2029" r="4" fill="#cc0935"><title>2029: 2.390</title></circle>
	<circle cx="250.65" cy="255.11" data-y="1.985" data-x="2030" r="4" fill="#cc0935"><title>2030: 1.985</title></circle>
	<circle cx="268.71" cy="257.53" data-y="1.662" data-x="2031" r="4" fill="#cc0935"><title>2031: 1.662</title></circle>
	<circle cx="286.77" cy="260.72" data-y="1.237" data-x="2032" r="4" fill="#cc0935"><title>2032: 1.237</title></circle>
	<circle cx="304.84" cy="262.77" data-y="0.963" data-x="2033" r="4" fill="#cc0935"><title>2033: 0.963</title></circle>
	<circle cx="322.90" cy="264.39" data-y="0.748" data-x="2034" r="4" fill="#cc0935"><title>2034: 0.748</title></circle>
	<circle cx="340.97" cy="265.84" data-y="0.554" data-x="2035" r="4" fill="#cc0935"><title>2035: 0.554</title></circle>
	<circle cx="359.03" cy="265.96" data-y="0.538" data-x="2036" r="4" fill="#cc0935"><title>2036: 0.538</title></circle>
	<circle cx="377.10" cy="266.20" data-y="0.506" data-x="2037" r="4" fill="#cc0935"><title>2037: 0.506</title></circle>
	<circle cx="395.16" cy="266.29" data-y="0.495" data-x="2038" r="4" fill="#cc0935"><title>2038: 0.495</title></circle>
	<circle cx="413.23" cy="266.46" data-y="0.472" data-x="2039" r="4" fill="#cc0935"><title>2039: 0.472</title></circle>
	<circle cx="431.29" cy="266.70" data-y="0.440" data-x="2040" r="4" fill="#cc0935"><title>2040: 0.440</title></circle>
	<circle cx="449.35" cy="267.70" data-y="0.306" data-x="2041" r="4" fill="#cc0935"><title>2041: 0.306</title></circle>
	<circle cx="467.42" cy="267.88" data-y="0.282" data-x="2042" r="4" fill="#cc0935"><title>2042: 0.282</title></circle>
	<circle cx="485.48" cy="268.00" data-y="0.267" data-x="2043" r="4" fill="#cc0935"><title>2043: 0.267</title></circle>
	<circle cx="503.55" cy="268.06" data-y="0.258" data-x="2044" r="4" fill="#cc0935"><title>2044: 0.258</title></circle>
	<circle cx="521.61" cy="268.70" data-y="0.173" data-x="2045" r="4" fill="#cc0935"><title>2045: 0.173</title></circle>
	<circle cx="539.68" cy="268.81" data-y="0.158" data-x="2046" r="4" fill="#cc0935"><title>2046: 0.158</title></circle>
	<circle cx="557.74" cy="269.05" data-y="0.126" data-x="2047" r="4" fill="#cc0935"><title>2047: 0.126</title></circle>
	<circle cx="575.81" cy="269.05" data-y="0.126" data-x="2048" r="4" fill="#cc0935"><title>2048: 0.126</title></circle>
	<circle cx="593.87" cy="269.20" data-y="0.107" data-x="2049" r="4" fill="#cc0935"><title>2049: 0.107</title></circle>
	<circle cx="611.94" cy="269.21" data-y="0.105" data-x="2050" r="4" fill="#cc0935"><title>2050: 0.105</title></circle>
</g>
<g data-scenario="total-emissions" class="data-series">	<path d="M 70.00,10.00L 88.06,19.24L 106.13,25.43L 124.19,32.41L 142.26,40.95L 160.32,50.50L 178.39,62.67L 196.45,73.45L 214.52,82.10L 232.58,93.22L 250.65,108.23L 268.71,124.44L 286.77,140.89L 304.84,156.42L 322.90,170.84L 340.97,184.46L 359.03,201.51L 377.10,216.87L 395.16,230.34L 413.23,242.25L 431.29,251.85L 449.35,257.68L 467.42,259.89L 485.48,261.54L 503.55,263.04L 521.61,263.72L 539.68,264.08L 557.74,264.72L 575.81,264.95L 593.87,265.36L 611.94,265.75" id="Total Emissions" class="line" stroke="#000000" stroke-width="3" stroke-linecap="round"><title>Total Emissions</title></path>
	<circle cx="70.00" cy="10.00" data-y="34.65" data-x="2020" r="4" fill="#000000"><title>2020: 34.65</title></circle>
	<circle cx="88.06" cy="19.24" data-y="33.419" data-x="2021" r="4" fill="#000000"><title>2021: 33.419</title></circle>
	<circle cx="106.13" cy="25.43" data-y="32.594" data-x="2022" r="4" fill="#000000"><title>2022: 32.594</title></circle>
	<circle cx="124.19" cy="32.41" data-y="31.664" data-x="2023" r="4" fill="#000000"><title>2023: 31.664</title></circle>
	<circle cx="142.26" cy="40.95" data-y="30.525" data-x="2024" r="4" fill="#000000"><title>2024: 30.525</title></circle>
	<circle cx="160.32" cy="50.50" data-y="29.253" data-x="2025" r="4" fill="#000000"><title>2025: 29.253</title></circle>
	<circle cx="178.39" cy="62.67" data-y="27.631" data-x="2026" r="4" fill="#000000"><title>2026: 27.631</title></circle>
	<circle cx="196.45" cy="73.45" data-y="26.194" data-x="2027" r="4" fill="#000000"><title>2027: 26.194</title></circle>
	<circle cx="214.52" cy="82.10" data-y="25.041" data-x="2028" r="4" fill="#000000"><title>2028: 25.041</title></circle>
	<circle cx="232.58" cy="93.22" data-y="23.559" data-x="2029" r="4" fill="#000000"><title>2029: 23.559</title></circle>
	<circle cx="250.65" cy="108.23" data-y="21.559" data-x="2030" r="4" fill="#000000"><title>2030: 21.559</title></circle>
	<circle cx="268.71" cy="124.44" data-y="19.399" data-x="2031" r="4" fill="#000000"><title>2031: 19.399</title></circle>
	<circle cx="286.77" cy="140.89" data-y="17.206" data-x="2032" r="4" fill="#000000"><title>2032: 17.206</title></circle>
	<circle cx="304.84" cy="156.42" data-y="15.137" data-x="2033" r="4" fill="#000000"><title>2033: 15.137</title></circle>
	<circle cx="322.90" cy="170.84" data-y="13.215" data-x="2034" r="4" fill="#000000"><title>2034: 13.215</title></circle>
	<circle cx="340.97" cy="184.46" data-y="11.4" data-x="2035" r="4" fill="#000000"><title>2035: 11.4</title></circle>
	<circle cx="359.03" cy="201.51" data-y="9.127" data-x="2036" r="4" fill="#000000"><title>2036: 9.127</title></circle>
	<circle cx="377.10" cy="216.87" data-y="7.08" data-x="2037" r="4" fill="#000000"><title>2037: 7.08</title></circle>
	<circle cx="395.16" cy="230.34" data-y="5.286" data-x="2038" r="4" fill="#000000"><title>2038: 5.286</title></circle>
	<circle cx="413.23" cy="242.25" data-y="3.698" data-x="2039" r="4" fill="#000000"><title>2039: 3.698</title></circle>
	<circle cx="431.29" cy="251.85" data-y="2.419" data-x="2040" r="4" fill="#000000"><title>2040: 2.419</title></circle>
	<circle cx="449.35" cy="257.68" data-y="1.642" data-x="2041" r="4" fill="#000000"><title>2041: 1.642</title></circle>
	<circle cx="467.42" cy="259.89" data-y="1.348" data-x="2042" r="4" fill="#000000"><title>2042: 1.348</title></circle>
	<circle cx="485.48" cy="261.54" data-y="1.128" data-x="2043" r="4" fill="#000000"><title>2043: 1.128</title></circle>
	<circle cx="503.55" cy="263.04" data-y="0.928" data-x="2044" r="4" fill="#000000"><title>2044: 0.928</title></circle>
	<circle cx="521.61" cy="263.72" data-y="0.837" data-x="2045" r="4" fill="#000000"><title>2045: 0.837</title></circle>
	<circle cx="539.68" cy="264.08" data-y="0.789" data-x="2046" r="4" fill="#000000"><title>2046: 0.789</title></circle>
	<circle cx="557.74" cy="264.72" data-y="0.704" data-x="2047" r="4" fill="#000000"><title>2047: 0.704</title></circle>
	<circle cx="575.81" cy="264.95" data-y="0.673" data-x="2048" r="4" fill="#000000"><title>2048: 0.673</title></circle>
	<circle cx="593.87" cy="265.36" data-y="0.618" data-x="2049" r="4" fill="#000000"><title>2049: 0.618</title></circle>
	<circle cx="611.94" cy="265.75" data-y="0.566" data-x="2050" r="4" fill="#000000"><title>2050: 0.566</title></circle>
</g>
</svg>
