<svg width="640" height="320" viewBox="0 0 640 320" xmlns="http://www.w3.org/2000/svg" style="overflow:display" preserveAspectRatio="xMinYMin meet" overflow="visible">
<defs>
	<style>
	.data-series path.line { fill-opacity: 0; }
	.data-series path.line.dotted { stroke-dasharray: 12 20 }
	.data-series circle { display: none; }
	.data-series:hover path.line, .data-series.on path.line { stroke-width: 5; }
	.data-series:hover circle, .data-series.on circle { display: inline; }
	.data-series circle:hover, .data-series circle.on { r: 6px!important; fill: black; }
	.grid { font-family: "Helvetica Neue",Helvetica,Arial,"Lucida Grande",sans-serif; }
	.grid line { stroke: rgb(0,0,0); stroke-width: 2; stroke-linecap: round; }
	.grid.grid-x text { text-anchor: middle; dominant-baseline: hanging; transform: translateY(10px); }
	.grid.grid-y text { text-anchor: end; dominant-baseline: middle; transform: translateX(-10px); }
	</style>
</defs>
<g class="grid grid-y">
	<line x1="80" y1="270" x2="630" y2="270" data-left="80"></line>
	<text x="80" y="270" text-anchor="end">0</text>
	<text x="80" y="198.885640725334" text-anchor="end">2,000</text>
	<text x="80" y="127.771281450667" text-anchor="end">4,000</text>
	<text x="80" y="56.6569221760009" text-anchor="end">6,000</text>
	<text style="text-anchor:middle;dominant-baseline:hanging;font-weight:bold;transform: translateY(140px) rotate(-90deg);">Energy consumption (GWh)</text>
</g>
<g class="grid grid-x">
	<line class="tick" x1="80" y1="270" x2="80" y2="275"></line>
	<text x="80" y="270" text-anchor="middle">2020</text>
	<line class="tick" x1="257.41935483871" y1="270" x2="257.41935483871" y2="275"></line>
	<text x="257.41935483871" y="270" text-anchor="middle">2030</text>
	<line class="tick" x1="434.838709677419" y1="270" x2="434.838709677419" y2="275"></line>
	<text x="434.838709677419" y="270" text-anchor="middle">2040</text>
	<line class="tick" x1="612.258064516129" y1="270" x2="612.258064516129" y2="275"></line>
	<text x="612.258064516129" y="270" text-anchor="middle">2050</text>
	<text style="text-anchor:middle;dominant-baseline:hanging;font-weight:bold;transform: translateY(140px) rotate(-90deg);"></text>
</g>
<g data-scenario="electric-hgvs" class="data-series">	<path d="M 80.00,269.90L 97.74,269.51L 115.48,268.85L 133.23,267.90L 150.97,266.67L 168.71,265.16L 186.45,260.50L 204.19,252.91L 221.94,242.52L 239.68,229.48L 257.42,213.93L 275.16,196.03L 292.90,178.32L 310.65,160.82L 328.39,143.55L 346.13,126.53L 363.87,108.75L 381.61,92.23L 399.35,76.98L 417.10,63.00L 434.84,50.28L 452.58,40.21L 470.32,31.94L 488.06,25.47L 505.81,20.80L 523.55,17.92L 541.29,16.33L 559.03,14.74L 576.77,13.16L 594.52,11.58L 612.26,10.00" id="Electric HGVs" class="line" stroke="#FF9966" stroke-width="3" stroke-linecap="round"><title>Electric HGVs</title></path>
	<circle cx="80.00" cy="269.90" data-y="2.893" data-x="2020" r="4" fill="#FF9966"><title>2020: 2.893</title></circle>
	<circle cx="97.74" cy="269.51" data-y="13.697" data-x="2021" r="4" fill="#FF9966"><title>2021: 13.697</title></circle>
	<circle cx="115.48" cy="268.85" data-y="32.413" data-x="2022" r="4" fill="#FF9966"><title>2022: 32.413</title></circle>
	<circle cx="133.23" cy="267.90" data-y="59.040" data-x="2023" r="4" fill="#FF9966"><title>2023: 59.040</title></circle>
	<circle cx="150.97" cy="266.67" data-y="93.579" data-x="2024" r="4" fill="#FF9966"><title>2024: 93.579</title></circle>
	<circle cx="168.71" cy="265.16" data-y="136.029" data-x="2025" r="4" fill="#FF9966"><title>2025: 136.029</title></circle>
	<circle cx="186.45" cy="260.50" data-y="267.186" data-x="2026" r="4" fill="#FF9966"><title>2026: 267.186</title></circle>
	<circle cx="204.19" cy="252.91" data-y="480.723" data-x="2027" r="4" fill="#FF9966"><title>2027: 480.723</title></circle>
	<circle cx="221.94" cy="242.52" data-y="772.769" data-x="2028" r="4" fill="#FF9966"><title>2028: 772.769</title></circle>
	<circle cx="239.68" cy="229.48" data-y="1139.449" data-x="2029" r="4" fill="#FF9966"><title>2029: 1139.449</title></circle>
	<circle cx="257.42" cy="213.93" data-y="1576.890" data-x="2030" r="4" fill="#FF9966"><title>2030: 1576.890</title></circle>
	<circle cx="275.16" cy="196.03" data-y="2080.393" data-x="2031" r="4" fill="#FF9966"><title>2031: 2080.393</title></circle>
	<circle cx="292.90" cy="178.32" data-y="2578.449" data-x="2032" r="4" fill="#FF9966"><title>2032: 2578.449</title></circle>
	<circle cx="310.65" cy="160.82" data-y="3070.554" data-x="2033" r="4" fill="#FF9966"><title>2033: 3070.554</title></circle>
	<circle cx="328.39" cy="143.55" data-y="3556.201" data-x="2034" r="4" fill="#FF9966"><title>2034: 3556.201</title></circle>
	<circle cx="346.13" cy="126.53" data-y="4034.880" data-x="2035" r="4" fill="#FF9966"><title>2035: 4034.880</title></circle>
	<circle cx="363.87" cy="108.75" data-y="4534.961" data-x="2036" r="4" fill="#FF9966"><title>2036: 4534.961</title></circle>
	<circle cx="381.61" cy="92.23" data-y="4999.469" data-x="2037" r="4" fill="#FF9966"><title>2037: 4999.469</title></circle>
	<circle cx="399.35" cy="76.98" data-y="5428.380" data-x="2038" r="4" fill="#FF9966"><title>2038: 5428.380</title></circle>
	<circle cx="417.10" cy="63.00" data-y="5821.676" data-x="2039" r="4" fill="#FF9966"><title>2039: 5821.676</title></circle>
	<circle cx="434.84" cy="50.28" data-y="6179.334" data-x="2040" r="4" fill="#FF9966"><title>2040: 6179.334</title></circle>
	<circle cx="452.58" cy="40.21" data-y="6462.546" data-x="2041" r="4" fill="#FF9966"><title>2041: 6462.546</title></circle>
	<circle cx="470.32" cy="31.94" data-y="6695.143" data-x="2042" r="4" fill="#FF9966"><title>2042: 6695.143</title></circle>
	<circle cx="488.06" cy="25.47" data-y="6877.137" data-x="2043" r="4" fill="#FF9966"><title>2043: 6877.137</title></circle>
	<circle cx="505.81" cy="20.80" data-y="7008.539" data-x="2044" r="4" fill="#FF9966"><title>2044: 7008.539</title></circle>
	<circle cx="523.55" cy="17.92" data-y="7089.361" data-x="2045" r="4" fill="#FF9966"><title>2045: 7089.361</title></circle>
	<circle cx="541.29" cy="16.33" data-y="7134.140" data-x="2046" r="4" fill="#FF9966"><title>2046: 7134.140</title></circle>
	<circle cx="559.03" cy="14.74" data-y="7178.809" data-x="2047" r="4" fill="#FF9966"><title>2047: 7178.809</title></circle>
	<circle cx="576.77" cy="13.16" data-y="7223.370" data-x="2048" r="4" fill="#FF9966"><title>2048: 7223.370</title></circle>
	<circle cx="594.52" cy="11.58" data-y="7267.822" data-x="2049" r="4" fill="#FF9966"><title>2049: 7267.822</title></circle>
	<circle cx="612.26" cy="10.00" data-y="7312.166" data-x="2050" r="4" fill="#FF9966"><title>2050: 7312.166</title></circle>
</g>
<g data-scenario="electric-buses" class="data-series">	<path d="M 80.00,269.92L 97.74,269.62L 115.48,269.10L 133.23,268.37L 150.97,267.42L 168.71,266.26L 186.45,264.81L 204.19,263.02L 221.94,260.94L 239.68,258.57L 257.42,255.94L 275.16,253.23L 292.90,250.46L 310.65,247.68L 328.39,245.01L 346.13,242.44L 363.87,239.24L 381.61,236.14L 399.35,233.15L 417.10,230.46L 434.84,228.07L 452.58,226.02L 470.32,224.32L 488.06,222.97L 505.81,221.84L 523.55,220.93L 541.29,220.24L 559.03,219.77L 576.77,219.52L 594.52,219.32L 612.26,219.18" id="Electric Buses" class="line" stroke="#466228" stroke-width="3" stroke-linecap="round"><title>Electric Buses</title></path>
	<circle cx="80.00" cy="269.92" data-y="2.314" data-x="2020" r="4" fill="#466228"><title>2020: 2.314</title></circle>
	<circle cx="97.74" cy="269.62" data-y="10.722" data-x="2021" r="4" fill="#466228"><title>2021: 10.722</title></circle>
	<circle cx="115.48" cy="269.10" data-y="25.222" data-x="2022" r="4" fill="#466228"><title>2022: 25.222</title></circle>
	<circle cx="133.23" cy="268.37" data-y="45.816" data-x="2023" r="4" fill="#466228"><title>2023: 45.816</title></circle>
	<circle cx="150.97" cy="267.42" data-y="72.503" data-x="2024" r="4" fill="#466228"><title>2024: 72.503</title></circle>
	<circle cx="168.71" cy="266.26" data-y="105.282" data-x="2025" r="4" fill="#466228"><title>2025: 105.282</title></circle>
	<circle cx="186.45" cy="264.81" data-y="146.062" data-x="2026" r="4" fill="#466228"><title>2026: 146.062</title></circle>
	<circle cx="204.19" cy="263.02" data-y="196.190" data-x="2027" r="4" fill="#466228"><title>2027: 196.190</title></circle>
	<circle cx="221.94" cy="260.94" data-y="254.938" data-x="2028" r="4" fill="#466228"><title>2028: 254.938</title></circle>
	<circle cx="239.68" cy="258.57" data-y="321.578" data-x="2029" r="4" fill="#466228"><title>2029: 321.578</title></circle>
	<circle cx="257.42" cy="255.94" data-y="395.380" data-x="2030" r="4" fill="#466228"><title>2030: 395.380</title></circle>
	<circle cx="275.16" cy="253.23" data-y="471.506" data-x="2031" r="4" fill="#466228"><title>2031: 471.506</title></circle>
	<circle cx="292.90" cy="250.46" data-y="549.648" data-x="2032" r="4" fill="#466228"><title>2032: 549.648</title></circle>
	<circle cx="310.65" cy="247.68" data-y="627.745" data-x="2033" r="4" fill="#466228"><title>2033: 627.745</title></circle>
	<circle cx="328.39" cy="245.01" data-y="702.853" data-x="2034" r="4" fill="#466228"><title>2034: 702.853</title></circle>
	<circle cx="346.13" cy="242.44" data-y="775.183" data-x="2035" r="4" fill="#466228"><title>2035: 775.183</title></circle>
	<circle cx="363.87" cy="239.24" data-y="865.180" data-x="2036" r="4" fill="#466228"><title>2036: 865.180</title></circle>
	<circle cx="381.61" cy="236.14" data-y="952.213" data-x="2037" r="4" fill="#466228"><title>2037: 952.213</title></circle>
	<circle cx="399.35" cy="233.15" data-y="1036.278" data-x="2038" r="4" fill="#466228"><title>2038: 1036.278</title></circle>
	<circle cx="417.10" cy="230.46" data-y="1111.978" data-x="2039" r="4" fill="#466228"><title>2039: 1111.978</title></circle>
	<circle cx="434.84" cy="228.07" data-y="1179.307" data-x="2040" r="4" fill="#466228"><title>2040: 1179.307</title></circle>
	<circle cx="452.58" cy="226.02" data-y="1236.877" data-x="2041" r="4" fill="#466228"><title>2041: 1236.877</title></circle>
	<circle cx="470.32" cy="224.32" data-y="1284.685" data-x="2042" r="4" fill="#466228"><title>2042: 1284.685</title></circle>
	<circle cx="488.06" cy="222.97" data-y="1322.730" data-x="2043" r="4" fill="#466228"><title>2043: 1322.730</title></circle>
	<circle cx="505.81" cy="221.84" data-y="1354.557" data-x="2044" r="4" fill="#466228"><title>2044: 1354.557</title></circle>
	<circle cx="523.55" cy="220.93" data-y="1380.163" data-x="2045" r="4" fill="#466228"><title>2045: 1380.163</title></circle>
	<circle cx="541.29" cy="220.24" data-y="1399.572" data-x="2046" r="4" fill="#466228"><title>2046: 1399.572</title></circle>
	<circle cx="559.03" cy="219.77" data-y="1412.742" data-x="2047" r="4" fill="#466228"><title>2047: 1412.742</title></circle>
	<circle cx="576.77" cy="219.52" data-y="1419.668" data-x="2048" r="4" fill="#466228"><title>2048: 1419.668</title></circle>
	<circle cx="594.52" cy="219.32" data-y="1425.194" data-x="2049" r="4" fill="#466228"><title>2049: 1425.194</title></circle>
	<circle cx="612.26" cy="219.18" data-y="1429.327" data-x="2050" r="4" fill="#466228"><title>2050: 1429.327</title></circle>
</g>
<g data-scenario="electrolysers" class="data-series">	<path d="M 80.00,270.00L 97.74,270.00L 115.48,270.00L 133.23,270.00L 150.97,270.00L 168.71,270.00L 186.45,269.97L 204.19,269.95L 221.94,269.93L 239.68,269.92L 257.42,269.86L 275.16,269.68L 292.90,269.39L 310.65,268.98L 328.39,268.48L 346.13,268.10L 363.87,267.64L 381.61,267.18L 399.35,266.75L 417.10,266.37L 434.84,266.01L 452.58,265.76L 470.32,265.60L 488.06,265.53L 505.81,265.52L 523.55,265.57L 541.29,265.66L 559.03,265.75L 576.77,265.83L 594.52,265.90L 612.26,265.95" id="Electrolysers" class="line" stroke="#4BACC6" stroke-width="3" stroke-linecap="round"><title>Electrolysers</title></path>
	<circle cx="80.00" cy="270.00" data-y="0.000" data-x="2020" r="4" fill="#4BACC6"><title>2020: 0.000</title></circle>
	<circle cx="97.74" cy="270.00" data-y="0.000" data-x="2021" r="4" fill="#4BACC6"><title>2021: 0.000</title></circle>
	<circle cx="115.48" cy="270.00" data-y="0.000" data-x="2022" r="4" fill="#4BACC6"><title>2022: 0.000</title></circle>
	<circle cx="133.23" cy="270.00" data-y="0.000" data-x="2023" r="4" fill="#4BACC6"><title>2023: 0.000</title></circle>
	<circle cx="150.97" cy="270.00" data-y="0.000" data-x="2024" r="4" fill="#4BACC6"><title>2024: 0.000</title></circle>
	<circle cx="168.71" cy="270.00" data-y="0.000" data-x="2025" r="4" fill="#4BACC6"><title>2025: 0.000</title></circle>
	<circle cx="186.45" cy="269.97" data-y="0.824" data-x="2026" r="4" fill="#4BACC6"><title>2026: 0.824</title></circle>
	<circle cx="204.19" cy="269.95" data-y="1.517" data-x="2027" r="4" fill="#4BACC6"><title>2027: 1.517</title></circle>
	<circle cx="221.94" cy="269.93" data-y="1.988" data-x="2028" r="4" fill="#4BACC6"><title>2028: 1.988</title></circle>
	<circle cx="239.68" cy="269.92" data-y="2.295" data-x="2029" r="4" fill="#4BACC6"><title>2029: 2.295</title></circle>
	<circle cx="257.42" cy="269.86" data-y="3.990" data-x="2030" r="4" fill="#4BACC6"><title>2030: 3.990</title></circle>
	<circle cx="275.16" cy="269.68" data-y="8.942" data-x="2031" r="4" fill="#4BACC6"><title>2031: 8.942</title></circle>
	<circle cx="292.90" cy="269.39" data-y="17.293" data-x="2032" r="4" fill="#4BACC6"><title>2032: 17.293</title></circle>
	<circle cx="310.65" cy="268.98" data-y="28.744" data-x="2033" r="4" fill="#4BACC6"><title>2033: 28.744</title></circle>
	<circle cx="328.39" cy="268.48" data-y="42.883" data-x="2034" r="4" fill="#4BACC6"><title>2034: 42.883</title></circle>
	<circle cx="346.13" cy="268.10" data-y="53.371" data-x="2035" r="4" fill="#4BACC6"><title>2035: 53.371</title></circle>
	<circle cx="363.87" cy="267.64" data-y="66.407" data-x="2036" r="4" fill="#4BACC6"><title>2036: 66.407</title></circle>
	<circle cx="381.61" cy="267.18" data-y="79.383" data-x="2037" r="4" fill="#4BACC6"><title>2037: 79.383</title></circle>
	<circle cx="399.35" cy="266.75" data-y="91.311" data-x="2038" r="4" fill="#4BACC6"><title>2038: 91.311</title></circle>
	<circle cx="417.10" cy="266.37" data-y="101.981" data-x="2039" r="4" fill="#4BACC6"><title>2039: 101.981</title></circle>
	<circle cx="434.84" cy="266.01" data-y="112.089" data-x="2040" r="4" fill="#4BACC6"><title>2040: 112.089</title></circle>
	<circle cx="452.58" cy="265.76" data-y="119.343" data-x="2041" r="4" fill="#4BACC6"><title>2041: 119.343</title></circle>
	<circle cx="470.32" cy="265.60" data-y="123.680" data-x="2042" r="4" fill="#4BACC6"><title>2042: 123.680</title></circle>
	<circle cx="488.06" cy="265.53" data-y="125.704" data-x="2043" r="4" fill="#4BACC6"><title>2043: 125.704</title></circle>
	<circle cx="505.81" cy="265.52" data-y="125.880" data-x="2044" r="4" fill="#4BACC6"><title>2044: 125.880</title></circle>
	<circle cx="523.55" cy="265.57" data-y="124.708" data-x="2045" r="4" fill="#4BACC6"><title>2045: 124.708</title></circle>
	<circle cx="541.29" cy="265.66" data-y="122.145" data-x="2046" r="4" fill="#4BACC6"><title>2046: 122.145</title></circle>
	<circle cx="559.03" cy="265.75" data-y="119.620" data-x="2047" r="4" fill="#4BACC6"><title>2047: 119.620</title></circle>
	<circle cx="576.77" cy="265.83" data-y="117.198" data-x="2048" r="4" fill="#4BACC6"><title>2048: 117.198</title></circle>
	<circle cx="594.52" cy="265.90" data-y="115.242" data-x="2049" r="4" fill="#4BACC6"><title>2049: 115.242</title></circle>
	<circle cx="612.26" cy="265.95" data-y="113.838" data-x="2050" r="4" fill="#4BACC6"><title>2050: 113.838</title></circle>
</g>
<g data-scenario="large-industry-fuel-switching" class="data-series">	<path d="M 80.00,270.00L 97.74,265.24L 115.48,260.48L 133.23,255.72L 150.97,250.96L 168.71,246.19L 186.45,238.03L 204.19,229.86L 221.94,221.70L 239.68,213.53L 257.42,205.37L 275.16,198.19L 292.90,191.00L 310.65,183.82L 328.39,176.64L 346.13,169.46L 363.87,160.93L 381.61,152.40L 399.35,143.88L 417.10,135.35L 434.84,126.82L 452.58,114.30L 470.32,101.77L 488.06,89.25L 505.81,76.72L 523.55,64.20L 541.29,64.20L 559.03,64.20L 576.77,64.20L 594.52,64.20L 612.26,64.20" id="Large industry Fuel Switching" class="line" stroke="#808080" stroke-width="3" stroke-linecap="round"><title>Large industry Fuel Switching</title></path>
	<circle cx="80.00" cy="270.00" data-y="0.000" data-x="2020" r="4" fill="#808080"><title>2020: 0.000</title></circle>
	<circle cx="97.74" cy="265.24" data-y="133.898" data-x="2021" r="4" fill="#808080"><title>2021: 133.898</title></circle>
	<circle cx="115.48" cy="260.48" data-y="267.795" data-x="2022" r="4" fill="#808080"><title>2022: 267.795</title></circle>
	<circle cx="133.23" cy="255.72" data-y="401.693" data-x="2023" r="4" fill="#808080"><title>2023: 401.693</title></circle>
	<circle cx="150.97" cy="250.96" data-y="535.590" data-x="2024" r="4" fill="#808080"><title>2024: 535.590</title></circle>
	<circle cx="168.71" cy="246.19" data-y="669.488" data-x="2025" r="4" fill="#808080"><title>2025: 669.488</title></circle>
	<circle cx="186.45" cy="238.03" data-y="899.128" data-x="2026" r="4" fill="#808080"><title>2026: 899.128</title></circle>
	<circle cx="204.19" cy="229.86" data-y="1128.768" data-x="2027" r="4" fill="#808080"><title>2027: 1128.768</title></circle>
	<circle cx="221.94" cy="221.70" data-y="1358.408" data-x="2028" r="4" fill="#808080"><title>2028: 1358.408</title></circle>
	<circle cx="239.68" cy="213.53" data-y="1588.048" data-x="2029" r="4" fill="#808080"><title>2029: 1588.048</title></circle>
	<circle cx="257.42" cy="205.37" data-y="1817.689" data-x="2030" r="4" fill="#808080"><title>2030: 1817.689</title></circle>
	<circle cx="275.16" cy="198.19" data-y="2019.662" data-x="2031" r="4" fill="#808080"><title>2031: 2019.662</title></circle>
	<circle cx="292.90" cy="191.00" data-y="2221.636" data-x="2032" r="4" fill="#808080"><title>2032: 2221.636</title></circle>
	<circle cx="310.65" cy="183.82" data-y="2423.609" data-x="2033" r="4" fill="#808080"><title>2033: 2423.609</title></circle>
	<circle cx="328.39" cy="176.64" data-y="2625.582" data-x="2034" r="4" fill="#808080"><title>2034: 2625.582</title></circle>
	<circle cx="346.13" cy="169.46" data-y="2827.556" data-x="2035" r="4" fill="#808080"><title>2035: 2827.556</title></circle>
	<circle cx="363.87" cy="160.93" data-y="3067.390" data-x="2036" r="4" fill="#808080"><title>2036: 3067.390</title></circle>
	<circle cx="381.61" cy="152.40" data-y="3307.225" data-x="2037" r="4" fill="#808080"><title>2037: 3307.225</title></circle>
	<circle cx="399.35" cy="143.88" data-y="3547.060" data-x="2038" r="4" fill="#808080"><title>2038: 3547.060</title></circle>
	<circle cx="417.10" cy="135.35" data-y="3786.894" data-x="2039" r="4" fill="#808080"><title>2039: 3786.894</title></circle>
	<circle cx="434.84" cy="126.82" data-y="4026.729" data-x="2040" r="4" fill="#808080"><title>2040: 4026.729</title></circle>
	<circle cx="452.58" cy="114.30" data-y="4378.965" data-x="2041" r="4" fill="#808080"><title>2041: 4378.965</title></circle>
	<circle cx="470.32" cy="101.77" data-y="4731.201" data-x="2042" r="4" fill="#808080"><title>2042: 4731.201</title></circle>
	<circle cx="488.06" cy="89.25" data-y="5083.437" data-x="2043" r="4" fill="#808080"><title>2043: 5083.437</title></circle>
	<circle cx="505.81" cy="76.72" data-y="5435.672" data-x="2044" r="4" fill="#808080"><title>2044: 5435.672</title></circle>
	<circle cx="523.55" cy="64.20" data-y="5787.908" data-x="2045" r="4" fill="#808080"><title>2045: 5787.908</title></circle>
	<circle cx="541.29" cy="64.20" data-y="5787.908" data-x="2046" r="4" fill="#808080"><title>2046: 5787.908</title></circle>
	<circle cx="559.03" cy="64.20" data-y="5787.908" data-x="2047" r="4" fill="#808080"><title>2047: 5787.908</title></circle>
	<circle cx="576.77" cy="64.20" data-y="5787.908" data-x="2048" r="4" fill="#808080"><title>2048: 5787.908</title></circle>
	<circle cx="594.52" cy="64.20" data-y="5787.908" data-x="2049" r="4" fill="#808080"><title>2049: 5787.908</title></circle>
	<circle cx="612.26" cy="64.20" data-y="5787.908" data-x="2050" r="4" fill="#808080"><title>2050: 5787.908</title></circle>
</g>
</svg>
