<svg width="640" height="320" viewBox="0 0 640 320" xmlns="http://www.w3.org/2000/svg" style="overflow:display" preserveAspectRatio="xMinYMin meet" overflow="visible">
<defs>
	<style>
	.data-series path.line { fill-opacity: 0; }
	.data-series path.line.dotted { stroke-dasharray: 12 20 }
	.data-series circle { display: none; }
	.data-series:hover path.line, .data-series.on path.line { stroke-width: 5; }
	.data-series:hover circle, .data-series.on circle { display: inline; }
	.data-series circle:hover, .data-series circle.on { r: 6px!important; fill: black; }
	.grid { font-family: "Helvetica Neue",Helvetica,Arial,"Lucida Grande",sans-serif; }
	.grid line { stroke: rgb(0,0,0); stroke-width: 2; stroke-linecap: round; }
	.grid.grid-x text { text-anchor: middle; dominant-baseline: hanging; transform: translateY(10px); }
	.grid.grid-y text { text-anchor: end; dominant-baseline: middle; transform: translateX(-10px); }
	</style>
</defs>
<g class="grid grid-y">
	<line x1="100" y1="270" x2="630" y2="270" data-left="100"></line>
	<text x="100" y="270" text-anchor="end">0</text>
	<text x="100" y="200.754377788135" text-anchor="end">20,000</text>
	<text x="100" y="131.50875557627" text-anchor="end">40,000</text>
	<text x="100" y="62.2631333644051" text-anchor="end">60,000</text>
	<text style="text-anchor:middle;dominant-baseline:hanging;font-weight:bold;transform: translateY(140px) rotate(-90deg);">Peak demand (GWh)</text>
</g>
<g class="grid grid-x">
	<line class="tick" x1="100" y1="270" x2="100" y2="275"></line>
	<text x="100" y="270" text-anchor="middle">2020</text>
	<line class="tick" x1="270.967741935484" y1="270" x2="270.967741935484" y2="275"></line>
	<text x="270.967741935484" y="270" text-anchor="middle">2030</text>
	<line class="tick" x1="441.935483870968" y1="270" x2="441.935483870968" y2="275"></line>
	<text x="441.935483870968" y="270" text-anchor="middle">2040</text>
	<line class="tick" x1="612.903225806452" y1="270" x2="612.903225806452" y2="275"></line>
	<text x="612.903225806452" y="270" text-anchor="middle">2050</text>
	<text style="text-anchor:middle;dominant-baseline:hanging;font-weight:bold;transform: translateY(140px) rotate(-90deg);"></text>
</g>
<g data-scenario="natural-gas" class="data-series">	<path d="M 100.00,81.67L 117.10,83.86L 134.19,86.04L 151.29,88.83L 168.39,91.73L 185.48,95.78L 202.58,100.73L 219.68,106.64L 236.77,114.40L 253.87,122.35L 270.97,130.55L 288.06,137.12L 305.16,144.14L 322.26,152.12L 339.35,161.23L 356.45,170.37L 373.55,179.05L 390.65,187.38L 407.74,195.78L 424.84,204.42L 441.94,213.37L 459.03,222.87L 476.13,231.40L 493.23,238.92L 510.32,246.14L 527.42,252.31L 544.52,257.90L 561.61,263.36L 578.71,267.70L 595.81,268.79L 612.90,269.71" id="Natural gas" class="line" stroke="#B8BFF9" stroke-width="3" stroke-linecap="round"><title>Natural gas</title></path>
	<circle cx="100.00" cy="81.67" data-y="54394" data-x="2020" r="4" fill="#B8BFF9"><title>2020: 54394</title></circle>
	<circle cx="117.10" cy="83.86" data-y="53762" data-x="2021" r="4" fill="#B8BFF9"><title>2021: 53762</title></circle>
	<circle cx="134.19" cy="86.04" data-y="53133" data-x="2022" r="4" fill="#B8BFF9"><title>2022: 53133</title></circle>
	<circle cx="151.29" cy="88.83" data-y="52328" data-x="2023" r="4" fill="#B8BFF9"><title>2023: 52328</title></circle>
	<circle cx="168.39" cy="91.73" data-y="51489" data-x="2024" r="4" fill="#B8BFF9"><title>2024: 51489</title></circle>
	<circle cx="185.48" cy="95.78" data-y="50319" data-x="2025" r="4" fill="#B8BFF9"><title>2025: 50319</title></circle>
	<circle cx="202.58" cy="100.73" data-y="48890" data-x="2026" r="4" fill="#B8BFF9"><title>2026: 48890</title></circle>
	<circle cx="219.68" cy="106.64" data-y="47182" data-x="2027" r="4" fill="#B8BFF9"><title>2027: 47182</title></circle>
	<circle cx="236.77" cy="114.40" data-y="44942" data-x="2028" r="4" fill="#B8BFF9"><title>2028: 44942</title></circle>
	<circle cx="253.87" cy="122.35" data-y="42644" data-x="2029" r="4" fill="#B8BFF9"><title>2029: 42644</title></circle>
	<circle cx="270.97" cy="130.55" data-y="40278" data-x="2030" r="4" fill="#B8BFF9"><title>2030: 40278</title></circle>
	<circle cx="288.06" cy="137.12" data-y="38380" data-x="2031" r="4" fill="#B8BFF9"><title>2031: 38380</title></circle>
	<circle cx="305.16" cy="144.14" data-y="36353" data-x="2032" r="4" fill="#B8BFF9"><title>2032: 36353</title></circle>
	<circle cx="322.26" cy="152.12" data-y="34046" data-x="2033" r="4" fill="#B8BFF9"><title>2033: 34046</title></circle>
	<circle cx="339.35" cy="161.23" data-y="31416" data-x="2034" r="4" fill="#B8BFF9"><title>2034: 31416</title></circle>
	<circle cx="356.45" cy="170.37" data-y="28776" data-x="2035" r="4" fill="#B8BFF9"><title>2035: 28776</title></circle>
	<circle cx="373.55" cy="179.05" data-y="26268" data-x="2036" r="4" fill="#B8BFF9"><title>2036: 26268</title></circle>
	<circle cx="390.65" cy="187.38" data-y="23862" data-x="2037" r="4" fill="#B8BFF9"><title>2037: 23862</title></circle>
	<circle cx="407.74" cy="195.78" data-y="21438" data-x="2038" r="4" fill="#B8BFF9"><title>2038: 21438</title></circle>
	<circle cx="424.84" cy="204.42" data-y="18942" data-x="2039" r="4" fill="#B8BFF9"><title>2039: 18942</title></circle>
	<circle cx="441.94" cy="213.37" data-y="16357" data-x="2040" r="4" fill="#B8BFF9"><title>2040: 16357</title></circle>
	<circle cx="459.03" cy="222.87" data-y="13613" data-x="2041" r="4" fill="#B8BFF9"><title>2041: 13613</title></circle>
	<circle cx="476.13" cy="231.40" data-y="11150" data-x="2042" r="4" fill="#B8BFF9"><title>2042: 11150</title></circle>
	<circle cx="493.23" cy="238.92" data-y="8978" data-x="2043" r="4" fill="#B8BFF9"><title>2043: 8978</title></circle>
	<circle cx="510.32" cy="246.14" data-y="6891" data-x="2044" r="4" fill="#B8BFF9"><title>2044: 6891</title></circle>
	<circle cx="527.42" cy="252.31" data-y="5109" data-x="2045" r="4" fill="#B8BFF9"><title>2045: 5109</title></circle>
	<circle cx="544.52" cy="257.90" data-y="3496" data-x="2046" r="4" fill="#B8BFF9"><title>2046: 3496</title></circle>
	<circle cx="561.61" cy="263.36" data-y="1917" data-x="2047" r="4" fill="#B8BFF9"><title>2047: 1917</title></circle>
	<circle cx="578.71" cy="267.70" data-y="665" data-x="2048" r="4" fill="#B8BFF9"><title>2048: 665</title></circle>
	<circle cx="595.81" cy="268.79" data-y="349" data-x="2049" r="4" fill="#B8BFF9"><title>2049: 349</title></circle>
	<circle cx="612.90" cy="269.71" data-y="85" data-x="2050" r="4" fill="#B8BFF9"><title>2050: 85</title></circle>
</g>
<g data-scenario="hydrogen" class="data-series">	<path d="M 100.00,269.99L 117.10,269.98L 134.19,269.97L 151.29,269.97L 168.39,269.95L 185.48,269.94L 202.58,269.94L 219.68,269.92L 236.77,269.91L 253.87,269.89L 270.97,269.54L 288.06,269.18L 305.16,268.80L 322.26,268.31L 339.35,267.77L 356.45,267.13L 373.55,266.43L 390.65,265.77L 407.74,265.03L 424.84,264.20L 441.94,263.01L 459.03,261.51L 476.13,260.20L 493.23,259.29L 510.32,258.32L 527.42,257.65L 544.52,257.25L 561.61,256.87L 578.71,256.61L 595.81,256.34L 612.90,256.33" id="Hydrogen" class="line" stroke="#0279FA" stroke-width="3" stroke-linecap="round"><title>Hydrogen</title></path>
	<circle cx="100.00" cy="269.99" data-y="2" data-x="2020" r="4" fill="#0279FA"><title>2020: 2</title></circle>
	<circle cx="117.10" cy="269.98" data-y="6" data-x="2021" r="4" fill="#0279FA"><title>2021: 6</title></circle>
	<circle cx="134.19" cy="269.97" data-y="9" data-x="2022" r="4" fill="#0279FA"><title>2022: 9</title></circle>
	<circle cx="151.29" cy="269.97" data-y="10" data-x="2023" r="4" fill="#0279FA"><title>2023: 10</title></circle>
	<circle cx="168.39" cy="269.95" data-y="13" data-x="2024" r="4" fill="#0279FA"><title>2024: 13</title></circle>
	<circle cx="185.48" cy="269.94" data-y="16" data-x="2025" r="4" fill="#0279FA"><title>2025: 16</title></circle>
	<circle cx="202.58" cy="269.94" data-y="18" data-x="2026" r="4" fill="#0279FA"><title>2026: 18</title></circle>
	<circle cx="219.68" cy="269.92" data-y="22" data-x="2027" r="4" fill="#0279FA"><title>2027: 22</title></circle>
	<circle cx="236.77" cy="269.91" data-y="27" data-x="2028" r="4" fill="#0279FA"><title>2028: 27</title></circle>
	<circle cx="253.87" cy="269.89" data-y="32" data-x="2029" r="4" fill="#0279FA"><title>2029: 32</title></circle>
	<circle cx="270.97" cy="269.54" data-y="133" data-x="2030" r="4" fill="#0279FA"><title>2030: 133</title></circle>
	<circle cx="288.06" cy="269.18" data-y="238" data-x="2031" r="4" fill="#0279FA"><title>2031: 238</title></circle>
	<circle cx="305.16" cy="268.80" data-y="346" data-x="2032" r="4" fill="#0279FA"><title>2032: 346</title></circle>
	<circle cx="322.26" cy="268.31" data-y="487" data-x="2033" r="4" fill="#0279FA"><title>2033: 487</title></circle>
	<circle cx="339.35" cy="267.77" data-y="645" data-x="2034" r="4" fill="#0279FA"><title>2034: 645</title></circle>
	<circle cx="356.45" cy="267.13" data-y="829" data-x="2035" r="4" fill="#0279FA"><title>2035: 829</title></circle>
	<circle cx="373.55" cy="266.43" data-y="1032" data-x="2036" r="4" fill="#0279FA"><title>2036: 1032</title></circle>
	<circle cx="390.65" cy="265.77" data-y="1223" data-x="2037" r="4" fill="#0279FA"><title>2037: 1223</title></circle>
	<circle cx="407.74" cy="265.03" data-y="1436" data-x="2038" r="4" fill="#0279FA"><title>2038: 1436</title></circle>
	<circle cx="424.84" cy="264.20" data-y="1674" data-x="2039" r="4" fill="#0279FA"><title>2039: 1674</title></circle>
	<circle cx="441.94" cy="263.01" data-y="2019" data-x="2040" r="4" fill="#0279FA"><title>2040: 2019</title></circle>
	<circle cx="459.03" cy="261.51" data-y="2453" data-x="2041" r="4" fill="#0279FA"><title>2041: 2453</title></circle>
	<circle cx="476.13" cy="260.20" data-y="2830" data-x="2042" r="4" fill="#0279FA"><title>2042: 2830</title></circle>
	<circle cx="493.23" cy="259.29" data-y="3094" data-x="2043" r="4" fill="#0279FA"><title>2043: 3094</title></circle>
	<circle cx="510.32" cy="258.32" data-y="3374" data-x="2044" r="4" fill="#0279FA"><title>2044: 3374</title></circle>
	<circle cx="527.42" cy="257.65" data-y="3566" data-x="2045" r="4" fill="#0279FA"><title>2045: 3566</title></circle>
	<circle cx="544.52" cy="257.25" data-y="3682" data-x="2046" r="4" fill="#0279FA"><title>2046: 3682</title></circle>
	<circle cx="561.61" cy="256.87" data-y="3791" data-x="2047" r="4" fill="#0279FA"><title>2047: 3791</title></circle>
	<circle cx="578.71" cy="256.61" data-y="3867" data-x="2048" r="4" fill="#0279FA"><title>2048: 3867</title></circle>
	<circle cx="595.81" cy="256.34" data-y="3944" data-x="2049" r="4" fill="#0279FA"><title>2049: 3944</title></circle>
	<circle cx="612.90" cy="256.33" data-y="3948" data-x="2050" r="4" fill="#0279FA"><title>2050: 3948</title></circle>
</g>
<g data-scenario="bioenergy" class="data-series">	<path d="M 100.00,257.24L 117.10,257.41L 134.19,257.84L 151.29,258.30L 168.39,258.79L 185.48,259.24L 202.58,259.86L 219.68,260.57L 236.77,261.34L 253.87,261.90L 270.97,262.45L 288.06,262.89L 305.16,263.31L 322.26,263.72L 339.35,264.17L 356.45,264.79L 373.55,265.16L 390.65,265.52L 407.74,265.89L 424.84,266.27L 441.94,266.66L 459.03,267.04L 476.13,267.42L 493.23,267.78L 510.32,267.84L 527.42,267.86L 544.52,267.87L 561.61,267.88L 578.71,267.89L 595.81,267.89L 612.90,267.90" id="Bioenergy" class="line" stroke="#019303" stroke-width="3" stroke-linecap="round"><title>Bioenergy</title></path>
	<circle cx="100.00" cy="257.24" data-y="3686" data-x="2020" r="4" fill="#019303"><title>2020: 3686</title></circle>
	<circle cx="117.10" cy="257.41" data-y="3637" data-x="2021" r="4" fill="#019303"><title>2021: 3637</title></circle>
	<circle cx="134.19" cy="257.84" data-y="3513" data-x="2022" r="4" fill="#019303"><title>2022: 3513</title></circle>
	<circle cx="151.29" cy="258.30" data-y="3378" data-x="2023" r="4" fill="#019303"><title>2023: 3378</title></circle>
	<circle cx="168.39" cy="258.79" data-y="3239" data-x="2024" r="4" fill="#019303"><title>2024: 3239</title></circle>
	<circle cx="185.48" cy="259.24" data-y="3108" data-x="2025" r="4" fill="#019303"><title>2025: 3108</title></circle>
	<circle cx="202.58" cy="259.86" data-y="2929" data-x="2026" r="4" fill="#019303"><title>2026: 2929</title></circle>
	<circle cx="219.68" cy="260.57" data-y="2723" data-x="2027" r="4" fill="#019303"><title>2027: 2723</title></circle>
	<circle cx="236.77" cy="261.34" data-y="2501" data-x="2028" r="4" fill="#019303"><title>2028: 2501</title></circle>
	<circle cx="253.87" cy="261.90" data-y="2339" data-x="2029" r="4" fill="#019303"><title>2029: 2339</title></circle>
	<circle cx="270.97" cy="262.45" data-y="2180" data-x="2030" r="4" fill="#019303"><title>2030: 2180</title></circle>
	<circle cx="288.06" cy="262.89" data-y="2055" data-x="2031" r="4" fill="#019303"><title>2031: 2055</title></circle>
	<circle cx="305.16" cy="263.31" data-y="1931" data-x="2032" r="4" fill="#019303"><title>2032: 1931</title></circle>
	<circle cx="322.26" cy="263.72" data-y="1814" data-x="2033" r="4" fill="#019303"><title>2033: 1814</title></circle>
	<circle cx="339.35" cy="264.17" data-y="1683" data-x="2034" r="4" fill="#019303"><title>2034: 1683</title></circle>
	<circle cx="356.45" cy="264.79" data-y="1505" data-x="2035" r="4" fill="#019303"><title>2035: 1505</title></circle>
	<circle cx="373.55" cy="265.16" data-y="1399" data-x="2036" r="4" fill="#019303"><title>2036: 1399</title></circle>
	<circle cx="390.65" cy="265.52" data-y="1293" data-x="2037" r="4" fill="#019303"><title>2037: 1293</title></circle>
	<circle cx="407.74" cy="265.89" data-y="1186" data-x="2038" r="4" fill="#019303"><title>2038: 1186</title></circle>
	<circle cx="424.84" cy="266.27" data-y="1076" data-x="2039" r="4" fill="#019303"><title>2039: 1076</title></circle>
	<circle cx="441.94" cy="266.66" data-y="965" data-x="2040" r="4" fill="#019303"><title>2040: 965</title></circle>
	<circle cx="459.03" cy="267.04" data-y="855" data-x="2041" r="4" fill="#019303"><title>2041: 855</title></circle>
	<circle cx="476.13" cy="267.42" data-y="744" data-x="2042" r="4" fill="#019303"><title>2042: 744</title></circle>
	<circle cx="493.23" cy="267.78" data-y="640" data-x="2043" r="4" fill="#019303"><title>2043: 640</title></circle>
	<circle cx="510.32" cy="267.84" data-y="624" data-x="2044" r="4" fill="#019303"><title>2044: 624</title></circle>
	<circle cx="527.42" cy="267.86" data-y="617" data-x="2045" r="4" fill="#019303"><title>2045: 617</title></circle>
	<circle cx="544.52" cy="267.87" data-y="615" data-x="2046" r="4" fill="#019303"><title>2046: 615</title></circle>
	<circle cx="561.61" cy="267.88" data-y="612" data-x="2047" r="4" fill="#019303"><title>2047: 612</title></circle>
	<circle cx="578.71" cy="267.89" data-y="610" data-x="2048" r="4" fill="#019303"><title>2048: 610</title></circle>
	<circle cx="595.81" cy="267.89" data-y="608" data-x="2049" r="4" fill="#019303"><title>2049: 608</title></circle>
	<circle cx="612.90" cy="267.90" data-y="606" data-x="2050" r="4" fill="#019303"><title>2050: 606</title></circle>
</g>
<g data-scenario="petroleum" class="data-series">	<path d="M 100.00,10.00L 117.10,10.05L 134.19,13.64L 151.29,22.45L 168.39,32.29L 185.48,44.86L 202.58,61.28L 219.68,77.90L 236.77,95.26L 253.87,112.80L 270.97,129.65L 288.06,146.37L 305.16,164.21L 322.26,180.56L 339.35,195.32L 356.45,208.51L 373.55,219.55L 390.65,229.27L 407.74,237.78L 424.84,245.17L 441.94,251.53L 459.03,256.69L 476.13,260.84L 493.23,264.13L 510.32,266.27L 527.42,267.69L 544.52,268.48L 561.61,269.06L 578.71,269.32L 595.81,269.51L 612.90,269.63" id="Petroleum" class="line" stroke="#cc0935" stroke-width="3" stroke-linecap="round"><title>Petroleum</title></path>
	<circle cx="100.00" cy="10.00" data-y="75095" data-x="2020" r="4" fill="#cc0935"><title>2020: 75095</title></circle>
	<circle cx="117.10" cy="10.05" data-y="75081" data-x="2021" r="4" fill="#cc0935"><title>2021: 75081</title></circle>
	<circle cx="134.19" cy="13.64" data-y="74044" data-x="2022" r="4" fill="#cc0935"><title>2022: 74044</title></circle>
	<circle cx="151.29" cy="22.45" data-y="71499" data-x="2023" r="4" fill="#cc0935"><title>2023: 71499</title></circle>
	<circle cx="168.39" cy="32.29" data-y="68656" data-x="2024" r="4" fill="#cc0935"><title>2024: 68656</title></circle>
	<circle cx="185.48" cy="44.86" data-y="65027" data-x="2025" r="4" fill="#cc0935"><title>2025: 65027</title></circle>
	<circle cx="202.58" cy="61.28" data-y="60284" data-x="2026" r="4" fill="#cc0935"><title>2026: 60284</title></circle>
	<circle cx="219.68" cy="77.90" data-y="55483" data-x="2027" r="4" fill="#cc0935"><title>2027: 55483</title></circle>
	<circle cx="236.77" cy="95.26" data-y="50471" data-x="2028" r="4" fill="#cc0935"><title>2028: 50471</title></circle>
	<circle cx="253.87" cy="112.80" data-y="45404" data-x="2029" r="4" fill="#cc0935"><title>2029: 45404</title></circle>
	<circle cx="270.97" cy="129.65" data-y="40536" data-x="2030" r="4" fill="#cc0935"><title>2030: 40536</title></circle>
	<circle cx="288.06" cy="146.37" data-y="35708" data-x="2031" r="4" fill="#cc0935"><title>2031: 35708</title></circle>
	<circle cx="305.16" cy="164.21" data-y="30555" data-x="2032" r="4" fill="#cc0935"><title>2032: 30555</title></circle>
	<circle cx="322.26" cy="180.56" data-y="25834" data-x="2033" r="4" fill="#cc0935"><title>2033: 25834</title></circle>
	<circle cx="339.35" cy="195.32" data-y="21571" data-x="2034" r="4" fill="#cc0935"><title>2034: 21571</title></circle>
	<circle cx="356.45" cy="208.51" data-y="17761" data-x="2035" r="4" fill="#cc0935"><title>2035: 17761</title></circle>
	<circle cx="373.55" cy="219.55" data-y="14571" data-x="2036" r="4" fill="#cc0935"><title>2036: 14571</title></circle>
	<circle cx="390.65" cy="229.27" data-y="11765" data-x="2037" r="4" fill="#cc0935"><title>2037: 11765</title></circle>
	<circle cx="407.74" cy="237.78" data-y="9307" data-x="2038" r="4" fill="#cc0935"><title>2038: 9307</title></circle>
	<circle cx="424.84" cy="245.17" data-y="7172" data-x="2039" r="4" fill="#cc0935"><title>2039: 7172</title></circle>
	<circle cx="441.94" cy="251.53" data-y="5335" data-x="2040" r="4" fill="#cc0935"><title>2040: 5335</title></circle>
	<circle cx="459.03" cy="256.69" data-y="3845" data-x="2041" r="4" fill="#cc0935"><title>2041: 3845</title></circle>
	<circle cx="476.13" cy="260.84" data-y="2645" data-x="2042" r="4" fill="#cc0935"><title>2042: 2645</title></circle>
	<circle cx="493.23" cy="264.13" data-y="1694" data-x="2043" r="4" fill="#cc0935"><title>2043: 1694</title></circle>
	<circle cx="510.32" cy="266.27" data-y="1077" data-x="2044" r="4" fill="#cc0935"><title>2044: 1077</title></circle>
	<circle cx="527.42" cy="267.69" data-y="668" data-x="2045" r="4" fill="#cc0935"><title>2045: 668</title></circle>
	<circle cx="544.52" cy="268.48" data-y="439" data-x="2046" r="4" fill="#cc0935"><title>2046: 439</title></circle>
	<circle cx="561.61" cy="269.06" data-y="272" data-x="2047" r="4" fill="#cc0935"><title>2047: 272</title></circle>
	<circle cx="578.71" cy="269.32" data-y="195" data-x="2048" r="4" fill="#cc0935"><title>2048: 195</title></circle>
	<circle cx="595.81" cy="269.51" data-y="142" data-x="2049" r="4" fill="#cc0935"><title>2049: 142</title></circle>
	<circle cx="612.90" cy="269.63" data-y="106" data-x="2050" r="4" fill="#cc0935"><title>2050: 106</title></circle>
</g>
<g data-scenario="solid-fuel" class="data-series">	<path d="M 100.00,267.12L 117.10,267.18L 134.19,267.30L 151.29,267.44L 168.39,267.59L 185.48,267.71L 202.58,267.88L 219.68,268.08L 236.77,268.30L 253.87,268.43L 270.97,268.56L 288.06,268.68L 305.16,268.80L 322.26,268.91L 339.35,269.02L 356.45,269.12L 373.55,269.22L 390.65,269.32L 407.74,269.42L 424.84,269.53L 441.94,269.63L 459.03,269.74L 476.13,269.84L 493.23,269.94L 510.32,269.95L 527.42,269.95L 544.52,269.96L 561.61,269.96L 578.71,269.97L 595.81,269.97L 612.90,269.97" id="Solid fuel" class="line" stroke="#cc0935" stroke-width="3" stroke-linecap="round"><title>Solid fuel</title></path>
	<circle cx="100.00" cy="267.12" data-y="833" data-x="2020" r="4" fill="#cc0935"><title>2020: 833</title></circle>
	<circle cx="117.10" cy="267.18" data-y="815" data-x="2021" r="4" fill="#cc0935"><title>2021: 815</title></circle>
	<circle cx="134.19" cy="267.30" data-y="779" data-x="2022" r="4" fill="#cc0935"><title>2022: 779</title></circle>
	<circle cx="151.29" cy="267.44" data-y="738" data-x="2023" r="4" fill="#cc0935"><title>2023: 738</title></circle>
	<circle cx="168.39" cy="267.59" data-y="697" data-x="2024" r="4" fill="#cc0935"><title>2024: 697</title></circle>
	<circle cx="185.48" cy="267.71" data-y="661" data-x="2025" r="4" fill="#cc0935"><title>2025: 661</title></circle>
	<circle cx="202.58" cy="267.88" data-y="613" data-x="2026" r="4" fill="#cc0935"><title>2026: 613</title></circle>
	<circle cx="219.68" cy="268.08" data-y="555" data-x="2027" r="4" fill="#cc0935"><title>2027: 555</title></circle>
	<circle cx="236.77" cy="268.30" data-y="492" data-x="2028" r="4" fill="#cc0935"><title>2028: 492</title></circle>
	<circle cx="253.87" cy="268.43" data-y="453" data-x="2029" r="4" fill="#cc0935"><title>2029: 453</title></circle>
	<circle cx="270.97" cy="268.56" data-y="415" data-x="2030" r="4" fill="#cc0935"><title>2030: 415</title></circle>
	<circle cx="288.06" cy="268.68" data-y="381" data-x="2031" r="4" fill="#cc0935"><title>2031: 381</title></circle>
	<circle cx="305.16" cy="268.80" data-y="347" data-x="2032" r="4" fill="#cc0935"><title>2032: 347</title></circle>
	<circle cx="322.26" cy="268.91" data-y="316" data-x="2033" r="4" fill="#cc0935"><title>2033: 316</title></circle>
	<circle cx="339.35" cy="269.02" data-y="284" data-x="2034" r="4" fill="#cc0935"><title>2034: 284</title></circle>
	<circle cx="356.45" cy="269.12" data-y="254" data-x="2035" r="4" fill="#cc0935"><title>2035: 254</title></circle>
	<circle cx="373.55" cy="269.22" data-y="225" data-x="2036" r="4" fill="#cc0935"><title>2036: 225</title></circle>
	<circle cx="390.65" cy="269.32" data-y="196" data-x="2037" r="4" fill="#cc0935"><title>2037: 196</title></circle>
	<circle cx="407.74" cy="269.42" data-y="167" data-x="2038" r="4" fill="#cc0935"><title>2038: 167</title></circle>
	<circle cx="424.84" cy="269.53" data-y="137" data-x="2039" r="4" fill="#cc0935"><title>2039: 137</title></circle>
	<circle cx="441.94" cy="269.63" data-y="106" data-x="2040" r="4" fill="#cc0935"><title>2040: 106</title></circle>
	<circle cx="459.03" cy="269.74" data-y="76" data-x="2041" r="4" fill="#cc0935"><title>2041: 76</title></circle>
	<circle cx="476.13" cy="269.84" data-y="46" data-x="2042" r="4" fill="#cc0935"><title>2042: 46</title></circle>
	<circle cx="493.23" cy="269.94" data-y="17" data-x="2043" r="4" fill="#cc0935"><title>2043: 17</title></circle>
	<circle cx="510.32" cy="269.95" data-y="14" data-x="2044" r="4" fill="#cc0935"><title>2044: 14</title></circle>
	<circle cx="527.42" cy="269.95" data-y="13" data-x="2045" r="4" fill="#cc0935"><title>2045: 13</title></circle>
	<circle cx="544.52" cy="269.96" data-y="12" data-x="2046" r="4" fill="#cc0935"><title>2046: 12</title></circle>
	<circle cx="561.61" cy="269.96" data-y="11" data-x="2047" r="4" fill="#cc0935"><title>2047: 11</title></circle>
	<circle cx="578.71" cy="269.97" data-y="10" data-x="2048" r="4" fill="#cc0935"><title>2048: 10</title></circle>
	<circle cx="595.81" cy="269.97" data-y="9" data-x="2049" r="4" fill="#cc0935"><title>2049: 9</title></circle>
	<circle cx="612.90" cy="269.97" data-y="9" data-x="2050" r="4" fill="#cc0935"><title>2050: 9</title></circle>
</g>
<g data-scenario="electricity" class="data-series">	<path d="M 100.00,143.75L 117.10,145.03L 134.19,145.55L 151.29,145.14L 168.39,144.11L 185.48,142.45L 202.58,139.90L 219.68,136.29L 236.77,131.48L 253.87,125.64L 270.97,117.95L 288.06,110.80L 305.16,103.73L 322.26,96.20L 339.35,88.66L 356.45,79.84L 373.55,71.50L 390.65,64.23L 407.74,57.23L 424.84,50.71L 441.94,44.78L 459.03,39.60L 476.13,35.01L 493.23,31.08L 510.32,27.77L 527.42,24.97L 544.52,22.58L 561.61,20.21L 578.71,17.96L 595.81,17.54L 612.90,17.43" id="Electricity" class="line" stroke="#cc0935" stroke-width="3" stroke-linecap="round"><title>Electricity</title></path>
	<circle cx="100.00" cy="143.75" data-y="36463" data-x="2020" r="4" fill="#cc0935"><title>2020: 36463</title></circle>
	<circle cx="117.10" cy="145.03" data-y="36094" data-x="2021" r="4" fill="#cc0935"><title>2021: 36094</title></circle>
	<circle cx="134.19" cy="145.55" data-y="35944" data-x="2022" r="4" fill="#cc0935"><title>2022: 35944</title></circle>
	<circle cx="151.29" cy="145.14" data-y="36062" data-x="2023" r="4" fill="#cc0935"><title>2023: 36062</title></circle>
	<circle cx="168.39" cy="144.11" data-y="36359" data-x="2024" r="4" fill="#cc0935"><title>2024: 36359</title></circle>
	<circle cx="185.48" cy="142.45" data-y="36840" data-x="2025" r="4" fill="#cc0935"><title>2025: 36840</title></circle>
	<circle cx="202.58" cy="139.90" data-y="37577" data-x="2026" r="4" fill="#cc0935"><title>2026: 37577</title></circle>
	<circle cx="219.68" cy="136.29" data-y="38620" data-x="2027" r="4" fill="#cc0935"><title>2027: 38620</title></circle>
	<circle cx="236.77" cy="131.48" data-y="40009" data-x="2028" r="4" fill="#cc0935"><title>2028: 40009</title></circle>
	<circle cx="253.87" cy="125.64" data-y="41694" data-x="2029" r="4" fill="#cc0935"><title>2029: 41694</title></circle>
	<circle cx="270.97" cy="117.95" data-y="43916" data-x="2030" r="4" fill="#cc0935"><title>2030: 43916</title></circle>
	<circle cx="288.06" cy="110.80" data-y="45982" data-x="2031" r="4" fill="#cc0935"><title>2031: 45982</title></circle>
	<circle cx="305.16" cy="103.73" data-y="48022" data-x="2032" r="4" fill="#cc0935"><title>2032: 48022</title></circle>
	<circle cx="322.26" cy="96.20" data-y="50197" data-x="2033" r="4" fill="#cc0935"><title>2033: 50197</title></circle>
	<circle cx="339.35" cy="88.66" data-y="52375" data-x="2034" r="4" fill="#cc0935"><title>2034: 52375</title></circle>
	<circle cx="356.45" cy="79.84" data-y="54922" data-x="2035" r="4" fill="#cc0935"><title>2035: 54922</title></circle>
	<circle cx="373.55" cy="71.50" data-y="57333" data-x="2036" r="4" fill="#cc0935"><title>2036: 57333</title></circle>
	<circle cx="390.65" cy="64.23" data-y="59431" data-x="2037" r="4" fill="#cc0935"><title>2037: 59431</title></circle>
	<circle cx="407.74" cy="57.23" data-y="61453" data-x="2038" r="4" fill="#cc0935"><title>2038: 61453</title></circle>
	<circle cx="424.84" cy="50.71" data-y="63336" data-x="2039" r="4" fill="#cc0935"><title>2039: 63336</title></circle>
	<circle cx="441.94" cy="44.78" data-y="65050" data-x="2040" r="4" fill="#cc0935"><title>2040: 65050</title></circle>
	<circle cx="459.03" cy="39.60" data-y="66546" data-x="2041" r="4" fill="#cc0935"><title>2041: 66546</title></circle>
	<circle cx="476.13" cy="35.01" data-y="67871" data-x="2042" r="4" fill="#cc0935"><title>2042: 67871</title></circle>
	<circle cx="493.23" cy="31.08" data-y="69007" data-x="2043" r="4" fill="#cc0935"><title>2043: 69007</title></circle>
	<circle cx="510.32" cy="27.77" data-y="69963" data-x="2044" r="4" fill="#cc0935"><title>2044: 69963</title></circle>
	<circle cx="527.42" cy="24.97" data-y="70772" data-x="2045" r="4" fill="#cc0935"><title>2045: 70772</title></circle>
	<circle cx="544.52" cy="22.58" data-y="71461" data-x="2046" r="4" fill="#cc0935"><title>2046: 71461</title></circle>
	<circle cx="561.61" cy="20.21" data-y="72145" data-x="2047" r="4" fill="#cc0935"><title>2047: 72145</title></circle>
	<circle cx="578.71" cy="17.96" data-y="72797" data-x="2048" r="4" fill="#cc0935"><title>2048: 72797</title></circle>
	<circle cx="595.81" cy="17.54" data-y="72917" data-x="2049" r="4" fill="#cc0935"><title>2049: 72917</title></circle>
	<circle cx="612.90" cy="17.43" data-y="72949" data-x="2050" r="4" fill="#cc0935"><title>2050: 72949</title></circle>
</g>
</svg>
