<svg width="640" height="320" viewBox="0 0 640 320" xmlns="http://www.w3.org/2000/svg" style="overflow:display" preserveAspectRatio="xMinYMin meet" overflow="visible">
<defs>
	<style>
	.data-series path.line { fill-opacity: 0; }
	.data-series path.line.dotted { stroke-dasharray: 12 20 }
	.data-series circle { display: none; }
	.data-series:hover path.line, .data-series.on path.line { stroke-width: 5; }
	.data-series:hover circle, .data-series.on circle { display: inline; }
	.data-series circle:hover, .data-series circle.on { r: 6px!important; fill: black; }
	.grid { font-family: "Helvetica Neue",Helvetica,Arial,"Lucida Grande",sans-serif; }
	.grid line { stroke: rgb(0,0,0); stroke-width: 2; stroke-linecap: round; }
	.grid.grid-x text { text-anchor: middle; dominant-baseline: hanging; transform: translateY(10px); }
	.grid.grid-y text { text-anchor: end; dominant-baseline: middle; transform: translateX(-10px); }
	</style>
</defs>
<g class="grid grid-y">
	<line x1="100" y1="270" x2="630" y2="270" data-left="100"></line>
	<text x="100" y="270" text-anchor="end">0</text>
	<text x="100" y="198.885640725334" text-anchor="end">2,000</text>
	<text x="100" y="127.771281450667" text-anchor="end">4,000</text>
	<text x="100" y="56.6569221760009" text-anchor="end">6,000</text>
	<text style="text-anchor:middle;dominant-baseline:hanging;font-weight:bold;transform: translateY(140px) rotate(-90deg);">Energy consumption (GWh)</text>
</g>
<g class="grid grid-x">
	<line class="tick" x1="100" y1="270" x2="100" y2="275"></line>
	<text x="100" y="270" text-anchor="middle">2020</text>
	<line class="tick" x1="270.967741935484" y1="270" x2="270.967741935484" y2="275"></line>
	<text x="270.967741935484" y="270" text-anchor="middle">2030</text>
	<line class="tick" x1="441.935483870968" y1="270" x2="441.935483870968" y2="275"></line>
	<text x="441.935483870968" y="270" text-anchor="middle">2040</text>
	<line class="tick" x1="612.903225806452" y1="270" x2="612.903225806452" y2="275"></line>
	<text x="612.903225806452" y="270" text-anchor="middle">2050</text>
	<text style="text-anchor:middle;dominant-baseline:hanging;font-weight:bold;transform: translateY(140px) rotate(-90deg);"></text>
</g>
<g data-scenario="electric-hgvs" class="data-series">	<path d="M 100.00,269.90L 117.10,269.51L 134.19,268.85L 151.29,267.90L 168.39,266.67L 185.48,265.16L 202.58,260.50L 219.68,252.91L 236.77,242.52L 253.87,229.48L 270.97,213.93L 288.06,196.03L 305.16,178.32L 322.26,160.82L 339.35,143.55L 356.45,126.53L 373.55,108.75L 390.65,92.23L 407.74,76.98L 424.84,63.00L 441.94,50.28L 459.03,40.21L 476.13,31.94L 493.23,25.47L 510.32,20.80L 527.42,17.92L 544.52,16.33L 561.61,14.74L 578.71,13.16L 595.81,11.58L 612.90,10.00" id="Electric HGVs" class="line" stroke="#FF9966" stroke-width="3" stroke-linecap="round"><title>Electric HGVs</title></path>
	<circle cx="100.00" cy="269.90" data-y="2.893" data-x="2020" r="4" fill="#FF9966"><title>2020: 2.893</title></circle>
	<circle cx="117.10" cy="269.51" data-y="13.697" data-x="2021" r="4" fill="#FF9966"><title>2021: 13.697</title></circle>
	<circle cx="134.19" cy="268.85" data-y="32.413" data-x="2022" r="4" fill="#FF9966"><title>2022: 32.413</title></circle>
	<circle cx="151.29" cy="267.90" data-y="59.040" data-x="2023" r="4" fill="#FF9966"><title>2023: 59.040</title></circle>
	<circle cx="168.39" cy="266.67" data-y="93.579" data-x="2024" r="4" fill="#FF9966"><title>2024: 93.579</title></circle>
	<circle cx="185.48" cy="265.16" data-y="136.029" data-x="2025" r="4" fill="#FF9966"><title>2025: 136.029</title></circle>
	<circle cx="202.58" cy="260.50" data-y="267.186" data-x="2026" r="4" fill="#FF9966"><title>2026: 267.186</title></circle>
	<circle cx="219.68" cy="252.91" data-y="480.723" data-x="2027" r="4" fill="#FF9966"><title>2027: 480.723</title></circle>
	<circle cx="236.77" cy="242.52" data-y="772.769" data-x="2028" r="4" fill="#FF9966"><title>2028: 772.769</title></circle>
	<circle cx="253.87" cy="229.48" data-y="1139.449" data-x="2029" r="4" fill="#FF9966"><title>2029: 1139.449</title></circle>
	<circle cx="270.97" cy="213.93" data-y="1576.890" data-x="2030" r="4" fill="#FF9966"><title>2030: 1576.890</title></circle>
	<circle cx="288.06" cy="196.03" data-y="2080.393" data-x="2031" r="4" fill="#FF9966"><title>2031: 2080.393</title></circle>
	<circle cx="305.16" cy="178.32" data-y="2578.449" data-x="2032" r="4" fill="#FF9966"><title>2032: 2578.449</title></circle>
	<circle cx="322.26" cy="160.82" data-y="3070.554" data-x="2033" r="4" fill="#FF9966"><title>2033: 3070.554</title></circle>
	<circle cx="339.35" cy="143.55" data-y="3556.201" data-x="2034" r="4" fill="#FF9966"><title>2034: 3556.201</title></circle>
	<circle cx="356.45" cy="126.53" data-y="4034.880" data-x="2035" r="4" fill="#FF9966"><title>2035: 4034.880</title></circle>
	<circle cx="373.55" cy="108.75" data-y="4534.961" data-x="2036" r="4" fill="#FF9966"><title>2036: 4534.961</title></circle>
	<circle cx="390.65" cy="92.23" data-y="4999.469" data-x="2037" r="4" fill="#FF9966"><title>2037: 4999.469</title></circle>
	<circle cx="407.74" cy="76.98" data-y="5428.380" data-x="2038" r="4" fill="#FF9966"><title>2038: 5428.380</title></circle>
	<circle cx="424.84" cy="63.00" data-y="5821.676" data-x="2039" r="4" fill="#FF9966"><title>2039: 5821.676</title></circle>
	<circle cx="441.94" cy="50.28" data-y="6179.334" data-x="2040" r="4" fill="#FF9966"><title>2040: 6179.334</title></circle>
	<circle cx="459.03" cy="40.21" data-y="6462.546" data-x="2041" r="4" fill="#FF9966"><title>2041: 6462.546</title></circle>
	<circle cx="476.13" cy="31.94" data-y="6695.143" data-x="2042" r="4" fill="#FF9966"><title>2042: 6695.143</title></circle>
	<circle cx="493.23" cy="25.47" data-y="6877.137" data-x="2043" r="4" fill="#FF9966"><title>2043: 6877.137</title></circle>
	<circle cx="510.32" cy="20.80" data-y="7008.539" data-x="2044" r="4" fill="#FF9966"><title>2044: 7008.539</title></circle>
	<circle cx="527.42" cy="17.92" data-y="7089.361" data-x="2045" r="4" fill="#FF9966"><title>2045: 7089.361</title></circle>
	<circle cx="544.52" cy="16.33" data-y="7134.140" data-x="2046" r="4" fill="#FF9966"><title>2046: 7134.140</title></circle>
	<circle cx="561.61" cy="14.74" data-y="7178.809" data-x="2047" r="4" fill="#FF9966"><title>2047: 7178.809</title></circle>
	<circle cx="578.71" cy="13.16" data-y="7223.370" data-x="2048" r="4" fill="#FF9966"><title>2048: 7223.370</title></circle>
	<circle cx="595.81" cy="11.58" data-y="7267.822" data-x="2049" r="4" fill="#FF9966"><title>2049: 7267.822</title></circle>
	<circle cx="612.90" cy="10.00" data-y="7312.166" data-x="2050" r="4" fill="#FF9966"><title>2050: 7312.166</title></circle>
</g>
<g data-scenario="electric-buses" class="data-series">	<path d="M 100.00,269.92L 117.10,269.62L 134.19,269.10L 151.29,268.37L 168.39,267.42L 185.48,266.26L 202.58,264.81L 219.68,263.02L 236.77,260.94L 253.87,258.57L 270.97,255.94L 288.06,253.23L 305.16,250.46L 322.26,247.68L 339.35,245.01L 356.45,242.44L 373.55,239.24L 390.65,236.14L 407.74,233.15L 424.84,230.46L 441.94,228.07L 459.03,226.02L 476.13,224.32L 493.23,222.97L 510.32,221.84L 527.42,220.93L 544.52,220.24L 561.61,219.77L 578.71,219.52L 595.81,219.32L 612.90,219.18" id="Electric Buses" class="line" stroke="#466228" stroke-width="3" stroke-linecap="round"><title>Electric Buses</title></path>
	<circle cx="100.00" cy="269.92" data-y="2.314" data-x="2020" r="4" fill="#466228"><title>2020: 2.314</title></circle>
	<circle cx="117.10" cy="269.62" data-y="10.722" data-x="2021" r="4" fill="#466228"><title>2021: 10.722</title></circle>
	<circle cx="134.19" cy="269.10" data-y="25.222" data-x="2022" r="4" fill="#466228"><title>2022: 25.222</title></circle>
	<circle cx="151.29" cy="268.37" data-y="45.816" data-x="2023" r="4" fill="#466228"><title>2023: 45.816</title></circle>
	<circle cx="168.39" cy="267.42" data-y="72.503" data-x="2024" r="4" fill="#466228"><title>2024: 72.503</title></circle>
	<circle cx="185.48" cy="266.26" data-y="105.282" data-x="2025" r="4" fill="#466228"><title>2025: 105.282</title></circle>
	<circle cx="202.58" cy="264.81" data-y="146.062" data-x="2026" r="4" fill="#466228"><title>2026: 146.062</title></circle>
	<circle cx="219.68" cy="263.02" data-y="196.190" data-x="2027" r="4" fill="#466228"><title>2027: 196.190</title></circle>
	<circle cx="236.77" cy="260.94" data-y="254.938" data-x="2028" r="4" fill="#466228"><title>2028: 254.938</title></circle>
	<circle cx="253.87" cy="258.57" data-y="321.578" data-x="2029" r="4" fill="#466228"><title>2029: 321.578</title></circle>
	<circle cx="270.97" cy="255.94" data-y="395.380" data-x="2030" r="4" fill="#466228"><title>2030: 395.380</title></circle>
	<circle cx="288.06" cy="253.23" data-y="471.506" data-x="2031" r="4" fill="#466228"><title>2031: 471.506</title></circle>
	<circle cx="305.16" cy="250.46" data-y="549.648" data-x="2032" r="4" fill="#466228"><title>2032: 549.648</title></circle>
	<circle cx="322.26" cy="247.68" data-y="627.745" data-x="2033" r="4" fill="#466228"><title>2033: 627.745</title></circle>
	<circle cx="339.35" cy="245.01" data-y="702.853" data-x="2034" r="4" fill="#466228"><title>2034: 702.853</title></circle>
	<circle cx="356.45" cy="242.44" data-y="775.183" data-x="2035" r="4" fill="#466228"><title>2035: 775.183</title></circle>
	<circle cx="373.55" cy="239.24" data-y="865.180" data-x="2036" r="4" fill="#466228"><title>2036: 865.180</title></circle>
	<circle cx="390.65" cy="236.14" data-y="952.213" data-x="2037" r="4" fill="#466228"><title>2037: 952.213</title></circle>
	<circle cx="407.74" cy="233.15" data-y="1036.278" data-x="2038" r="4" fill="#466228"><title>2038: 1036.278</title></circle>
	<circle cx="424.84" cy="230.46" data-y="1111.978" data-x="2039" r="4" fill="#466228"><title>2039: 1111.978</title></circle>
	<circle cx="441.94" cy="228.07" data-y="1179.307" data-x="2040" r="4" fill="#466228"><title>2040: 1179.307</title></circle>
	<circle cx="459.03" cy="226.02" data-y="1236.877" data-x="2041" r="4" fill="#466228"><title>2041: 1236.877</title></circle>
	<circle cx="476.13" cy="224.32" data-y="1284.685" data-x="2042" r="4" fill="#466228"><title>2042: 1284.685</title></circle>
	<circle cx="493.23" cy="222.97" data-y="1322.730" data-x="2043" r="4" fill="#466228"><title>2043: 1322.730</title></circle>
	<circle cx="510.32" cy="221.84" data-y="1354.557" data-x="2044" r="4" fill="#466228"><title>2044: 1354.557</title></circle>
	<circle cx="527.42" cy="220.93" data-y="1380.163" data-x="2045" r="4" fill="#466228"><title>2045: 1380.163</title></circle>
	<circle cx="544.52" cy="220.24" data-y="1399.572" data-x="2046" r="4" fill="#466228"><title>2046: 1399.572</title></circle>
	<circle cx="561.61" cy="219.77" data-y="1412.742" data-x="2047" r="4" fill="#466228"><title>2047: 1412.742</title></circle>
	<circle cx="578.71" cy="219.52" data-y="1419.668" data-x="2048" r="4" fill="#466228"><title>2048: 1419.668</title></circle>
	<circle cx="595.81" cy="219.32" data-y="1425.194" data-x="2049" r="4" fill="#466228"><title>2049: 1425.194</title></circle>
	<circle cx="612.90" cy="219.18" data-y="1429.327" data-x="2050" r="4" fill="#466228"><title>2050: 1429.327</title></circle>
</g>
<g data-scenario="electrolysers" class="data-series">	<path d="M 100.00,270.00L 117.10,270.00L 134.19,270.00L 151.29,270.00L 168.39,270.00L 185.48,270.00L 202.58,269.97L 219.68,269.95L 236.77,269.93L 253.87,269.92L 270.97,269.86L 288.06,269.68L 305.16,269.39L 322.26,268.98L 339.35,268.48L 356.45,268.10L 373.55,267.64L 390.65,267.18L 407.74,266.75L 424.84,266.37L 441.94,266.01L 459.03,265.76L 476.13,265.60L 493.23,265.53L 510.32,265.52L 527.42,265.57L 544.52,265.66L 561.61,265.75L 578.71,265.83L 595.81,265.90L 612.90,265.95" id="Electrolysers" class="line" stroke="#4BACC6" stroke-width="3" stroke-linecap="round"><title>Electrolysers</title></path>
	<circle cx="100.00" cy="270.00" data-y="0.000" data-x="2020" r="4" fill="#4BACC6"><title>2020: 0.000</title></circle>
	<circle cx="117.10" cy="270.00" data-y="0.000" data-x="2021" r="4" fill="#4BACC6"><title>2021: 0.000</title></circle>
	<circle cx="134.19" cy="270.00" data-y="0.000" data-x="2022" r="4" fill="#4BACC6"><title>2022: 0.000</title></circle>
	<circle cx="151.29" cy="270.00" data-y="0.000" data-x="2023" r="4" fill="#4BACC6"><title>2023: 0.000</title></circle>
	<circle cx="168.39" cy="270.00" data-y="0.000" data-x="2024" r="4" fill="#4BACC6"><title>2024: 0.000</title></circle>
	<circle cx="185.48" cy="270.00" data-y="0.000" data-x="2025" r="4" fill="#4BACC6"><title>2025: 0.000</title></circle>
	<circle cx="202.58" cy="269.97" data-y="0.824" data-x="2026" r="4" fill="#4BACC6"><title>2026: 0.824</title></circle>
	<circle cx="219.68" cy="269.95" data-y="1.517" data-x="2027" r="4" fill="#4BACC6"><title>2027: 1.517</title></circle>
	<circle cx="236.77" cy="269.93" data-y="1.988" data-x="2028" r="4" fill="#4BACC6"><title>2028: 1.988</title></circle>
	<circle cx="253.87" cy="269.92" data-y="2.295" data-x="2029" r="4" fill="#4BACC6"><title>2029: 2.295</title></circle>
	<circle cx="270.97" cy="269.86" data-y="3.990" data-x="2030" r="4" fill="#4BACC6"><title>2030: 3.990</title></circle>
	<circle cx="288.06" cy="269.68" data-y="8.942" data-x="2031" r="4" fill="#4BACC6"><title>2031: 8.942</title></circle>
	<circle cx="305.16" cy="269.39" data-y="17.293" data-x="2032" r="4" fill="#4BACC6"><title>2032: 17.293</title></circle>
	<circle cx="322.26" cy="268.98" data-y="28.744" data-x="2033" r="4" fill="#4BACC6"><title>2033: 28.744</title></circle>
	<circle cx="339.35" cy="268.48" data-y="42.883" data-x="2034" r="4" fill="#4BACC6"><title>2034: 42.883</title></circle>
	<circle cx="356.45" cy="268.10" data-y="53.371" data-x="2035" r="4" fill="#4BACC6"><title>2035: 53.371</title></circle>
	<circle cx="373.55" cy="267.64" data-y="66.407" data-x="2036" r="4" fill="#4BACC6"><title>2036: 66.407</title></circle>
	<circle cx="390.65" cy="267.18" data-y="79.383" data-x="2037" r="4" fill="#4BACC6"><title>2037: 79.383</title></circle>
	<circle cx="407.74" cy="266.75" data-y="91.311" data-x="2038" r="4" fill="#4BACC6"><title>2038: 91.311</title></circle>
	<circle cx="424.84" cy="266.37" data-y="101.981" data-x="2039" r="4" fill="#4BACC6"><title>2039: 101.981</title></circle>
	<circle cx="441.94" cy="266.01" data-y="112.089" data-x="2040" r="4" fill="#4BACC6"><title>2040: 112.089</title></circle>
	<circle cx="459.03" cy="265.76" data-y="119.343" data-x="2041" r="4" fill="#4BACC6"><title>2041: 119.343</title></circle>
	<circle cx="476.13" cy="265.60" data-y="123.680" data-x="2042" r="4" fill="#4BACC6"><title>2042: 123.680</title></circle>
	<circle cx="493.23" cy="265.53" data-y="125.704" data-x="2043" r="4" fill="#4BACC6"><title>2043: 125.704</title></circle>
	<circle cx="510.32" cy="265.52" data-y="125.880" data-x="2044" r="4" fill="#4BACC6"><title>2044: 125.880</title></circle>
	<circle cx="527.42" cy="265.57" data-y="124.708" data-x="2045" r="4" fill="#4BACC6"><title>2045: 124.708</title></circle>
	<circle cx="544.52" cy="265.66" data-y="122.145" data-x="2046" r="4" fill="#4BACC6"><title>2046: 122.145</title></circle>
	<circle cx="561.61" cy="265.75" data-y="119.620" data-x="2047" r="4" fill="#4BACC6"><title>2047: 119.620</title></circle>
	<circle cx="578.71" cy="265.83" data-y="117.198" data-x="2048" r="4" fill="#4BACC6"><title>2048: 117.198</title></circle>
	<circle cx="595.81" cy="265.90" data-y="115.242" data-x="2049" r="4" fill="#4BACC6"><title>2049: 115.242</title></circle>
	<circle cx="612.90" cy="265.95" data-y="113.838" data-x="2050" r="4" fill="#4BACC6"><title>2050: 113.838</title></circle>
</g>
<g data-scenario="large-industry-fuel-switching" class="data-series">	<path d="M 100.00,270.00L 117.10,265.24L 134.19,260.48L 151.29,255.72L 168.39,250.96L 185.48,246.19L 202.58,238.03L 219.68,229.86L 236.77,221.70L 253.87,213.53L 270.97,205.37L 288.06,198.19L 305.16,191.00L 322.26,183.82L 339.35,176.64L 356.45,169.46L 373.55,160.93L 390.65,152.40L 407.74,143.88L 424.84,135.35L 441.94,126.82L 459.03,114.30L 476.13,101.77L 493.23,89.25L 510.32,76.72L 527.42,64.20L 544.52,64.20L 561.61,64.20L 578.71,64.20L 595.81,64.20L 612.90,64.20" id="Large industry Fuel Switching" class="line" stroke="#808080" stroke-width="3" stroke-linecap="round"><title>Large industry Fuel Switching</title></path>
	<circle cx="100.00" cy="270.00" data-y="0.000" data-x="2020" r="4" fill="#808080"><title>2020: 0.000</title></circle>
	<circle cx="117.10" cy="265.24" data-y="133.898" data-x="2021" r="4" fill="#808080"><title>2021: 133.898</title></circle>
	<circle cx="134.19" cy="260.48" data-y="267.795" data-x="2022" r="4" fill="#808080"><title>2022: 267.795</title></circle>
	<circle cx="151.29" cy="255.72" data-y="401.693" data-x="2023" r="4" fill="#808080"><title>2023: 401.693</title></circle>
	<circle cx="168.39" cy="250.96" data-y="535.590" data-x="2024" r="4" fill="#808080"><title>2024: 535.590</title></circle>
	<circle cx="185.48" cy="246.19" data-y="669.488" data-x="2025" r="4" fill="#808080"><title>2025: 669.488</title></circle>
	<circle cx="202.58" cy="238.03" data-y="899.128" data-x="2026" r="4" fill="#808080"><title>2026: 899.128</title></circle>
	<circle cx="219.68" cy="229.86" data-y="1128.768" data-x="2027" r="4" fill="#808080"><title>2027: 1128.768</title></circle>
	<circle cx="236.77" cy="221.70" data-y="1358.408" data-x="2028" r="4" fill="#808080"><title>2028: 1358.408</title></circle>
	<circle cx="253.87" cy="213.53" data-y="1588.048" data-x="2029" r="4" fill="#808080"><title>2029: 1588.048</title></circle>
	<circle cx="270.97" cy="205.37" data-y="1817.689" data-x="2030" r="4" fill="#808080"><title>2030: 1817.689</title></circle>
	<circle cx="288.06" cy="198.19" data-y="2019.662" data-x="2031" r="4" fill="#808080"><title>2031: 2019.662</title></circle>
	<circle cx="305.16" cy="191.00" data-y="2221.636" data-x="2032" r="4" fill="#808080"><title>2032: 2221.636</title></circle>
	<circle cx="322.26" cy="183.82" data-y="2423.609" data-x="2033" r="4" fill="#808080"><title>2033: 2423.609</title></circle>
	<circle cx="339.35" cy="176.64" data-y="2625.582" data-x="2034" r="4" fill="#808080"><title>2034: 2625.582</title></circle>
	<circle cx="356.45" cy="169.46" data-y="2827.556" data-x="2035" r="4" fill="#808080"><title>2035: 2827.556</title></circle>
	<circle cx="373.55" cy="160.93" data-y="3067.390" data-x="2036" r="4" fill="#808080"><title>2036: 3067.390</title></circle>
	<circle cx="390.65" cy="152.40" data-y="3307.225" data-x="2037" r="4" fill="#808080"><title>2037: 3307.225</title></circle>
	<circle cx="407.74" cy="143.88" data-y="3547.060" data-x="2038" r="4" fill="#808080"><title>2038: 3547.060</title></circle>
	<circle cx="424.84" cy="135.35" data-y="3786.894" data-x="2039" r="4" fill="#808080"><title>2039: 3786.894</title></circle>
	<circle cx="441.94" cy="126.82" data-y="4026.729" data-x="2040" r="4" fill="#808080"><title>2040: 4026.729</title></circle>
	<circle cx="459.03" cy="114.30" data-y="4378.965" data-x="2041" r="4" fill="#808080"><title>2041: 4378.965</title></circle>
	<circle cx="476.13" cy="101.77" data-y="4731.201" data-x="2042" r="4" fill="#808080"><title>2042: 4731.201</title></circle>
	<circle cx="493.23" cy="89.25" data-y="5083.437" data-x="2043" r="4" fill="#808080"><title>2043: 5083.437</title></circle>
	<circle cx="510.32" cy="76.72" data-y="5435.672" data-x="2044" r="4" fill="#808080"><title>2044: 5435.672</title></circle>
	<circle cx="527.42" cy="64.20" data-y="5787.908" data-x="2045" r="4" fill="#808080"><title>2045: 5787.908</title></circle>
	<circle cx="544.52" cy="64.20" data-y="5787.908" data-x="2046" r="4" fill="#808080"><title>2046: 5787.908</title></circle>
	<circle cx="561.61" cy="64.20" data-y="5787.908" data-x="2047" r="4" fill="#808080"><title>2047: 5787.908</title></circle>
	<circle cx="578.71" cy="64.20" data-y="5787.908" data-x="2048" r="4" fill="#808080"><title>2048: 5787.908</title></circle>
	<circle cx="595.81" cy="64.20" data-y="5787.908" data-x="2049" r="4" fill="#808080"><title>2049: 5787.908</title></circle>
	<circle cx="612.90" cy="64.20" data-y="5787.908" data-x="2050" r="4" fill="#808080"><title>2050: 5787.908</title></circle>
</g>
</svg>
