<svg width="640" height="320" viewBox="0 0 640 320" xmlns="http://www.w3.org/2000/svg" style="overflow:display" preserveAspectRatio="xMinYMin meet" overflow="visible">
<defs>
	<style>
	.data-series path.line { fill-opacity: 0; }
	.data-series path.line.dotted { stroke-dasharray: 12 20 }
	.data-series circle { display: none; }
	.data-series:hover path.line, .data-series.on path.line { stroke-width: 5; }
	.data-series:hover circle, .data-series.on circle { display: inline; }
	.data-series circle:hover, .data-series circle.on { r: 6px!important; fill: black; }
	.grid { font-family: "Helvetica Neue",Helvetica,Arial,"Lucida Grande",sans-serif; }
	.grid line { stroke: rgb(0,0,0); stroke-width: 2; stroke-linecap: round; }
	.grid.grid-x text { text-anchor: middle; dominant-baseline: hanging; transform: translateY(10px); }
	.grid.grid-y text { text-anchor: end; dominant-baseline: middle; transform: translateX(-10px); }
	</style>
</defs>
<g class="grid grid-y">
	<line x1="70" y1="270" x2="630" y2="270" data-left="70"></line>
	<text x="70" y="270" text-anchor="end">0</text>
	<text x="70" y="184.614121510673" text-anchor="end">1</text>
	<text x="70" y="99.2282430213465" text-anchor="end">2</text>
	<text x="70" y="13.8423645320197" text-anchor="end">3</text>
	<text style="text-anchor:middle;dominant-baseline:hanging;font-weight:bold;transform: translateY(140px) rotate(-90deg);">Installed capacity (GW)</text>
</g>
<g class="grid grid-x">
	<line class="tick" x1="87.5" y1="270" x2="87.5" y2="275"></line>
	<text x="87.5" y="270" text-anchor="middle">2020</text>
	<line class="tick" x1="262.5" y1="270" x2="262.5" y2="275"></line>
	<text x="262.5" y="270" text-anchor="middle">2030</text>
	<line class="tick" x1="437.5" y1="270" x2="437.5" y2="275"></line>
	<text x="437.5" y="270" text-anchor="middle">2040</text>
	<line class="tick" x1="612.5" y1="270" x2="612.5" y2="275"></line>
	<text x="612.5" y="270" text-anchor="middle">2050</text>
	<text style="text-anchor:middle;dominant-baseline:hanging;font-weight:bold;transform: translateY(140px) rotate(-90deg);"></text>
</g>
<g data-scenario="consumer-transformation" class="data-series">	<path d="M 70.00,254.03L 87.50,252.58L 105.00,251.04L 122.50,249.34L 140.00,243.87L 157.50,236.78L 175.00,227.65L 192.50,217.49L 210.00,198.19L 227.50,186.15L 245.00,176.16L 262.50,175.48L 280.00,166.94L 297.50,165.32L 315.00,163.27L 332.50,158.49L 350.00,151.91L 367.50,145.08L 385.00,136.37L 402.50,128.69L 420.00,124.84L 437.50,116.90L 455.00,106.74L 472.50,102.47L 490.00,92.65L 507.50,82.07L 525.00,67.89L 542.50,62.26L 560.00,59.44L 577.50,53.29L 595.00,51.16L 612.50,48.85" id="Consumer transformation" class="line" stroke="#FFBF22" stroke-width="3" stroke-linecap="round"><title>Consumer transformation</title></path>
	<circle cx="70.00" cy="254.03" data-y="0.187" data-x="2019" r="4" fill="#FFBF22"><title>2019: 0.187</title></circle>
	<circle cx="87.50" cy="252.58" data-y="0.204" data-x="2020" r="4" fill="#FFBF22"><title>2020: 0.204</title></circle>
	<circle cx="105.00" cy="251.04" data-y="0.222" data-x="2021" r="4" fill="#FFBF22"><title>2021: 0.222</title></circle>
	<circle cx="122.50" cy="249.34" data-y="0.242" data-x="2022" r="4" fill="#FFBF22"><title>2022: 0.242</title></circle>
	<circle cx="140.00" cy="243.87" data-y="0.306" data-x="2023" r="4" fill="#FFBF22"><title>2023: 0.306</title></circle>
	<circle cx="157.50" cy="236.78" data-y="0.389" data-x="2024" r="4" fill="#FFBF22"><title>2024: 0.389</title></circle>
	<circle cx="175.00" cy="227.65" data-y="0.496" data-x="2025" r="4" fill="#FFBF22"><title>2025: 0.496</title></circle>
	<circle cx="192.50" cy="217.49" data-y="0.615" data-x="2026" r="4" fill="#FFBF22"><title>2026: 0.615</title></circle>
	<circle cx="210.00" cy="198.19" data-y="0.841" data-x="2027" r="4" fill="#FFBF22"><title>2027: 0.841</title></circle>
	<circle cx="227.50" cy="186.15" data-y="0.982" data-x="2028" r="4" fill="#FFBF22"><title>2028: 0.982</title></circle>
	<circle cx="245.00" cy="176.16" data-y="1.099" data-x="2029" r="4" fill="#FFBF22"><title>2029: 1.099</title></circle>
	<circle cx="262.50" cy="175.48" data-y="1.107" data-x="2030" r="4" fill="#FFBF22"><title>2030: 1.107</title></circle>
	<circle cx="280.00" cy="166.94" data-y="1.207" data-x="2031" r="4" fill="#FFBF22"><title>2031: 1.207</title></circle>
	<circle cx="297.50" cy="165.32" data-y="1.226" data-x="2032" r="4" fill="#FFBF22"><title>2032: 1.226</title></circle>
	<circle cx="315.00" cy="163.27" data-y="1.250" data-x="2033" r="4" fill="#FFBF22"><title>2033: 1.250</title></circle>
	<circle cx="332.50" cy="158.49" data-y="1.306" data-x="2034" r="4" fill="#FFBF22"><title>2034: 1.306</title></circle>
	<circle cx="350.00" cy="151.91" data-y="1.383" data-x="2035" r="4" fill="#FFBF22"><title>2035: 1.383</title></circle>
	<circle cx="367.50" cy="145.08" data-y="1.463" data-x="2036" r="4" fill="#FFBF22"><title>2036: 1.463</title></circle>
	<circle cx="385.00" cy="136.37" data-y="1.565" data-x="2037" r="4" fill="#FFBF22"><title>2037: 1.565</title></circle>
	<circle cx="402.50" cy="128.69" data-y="1.655" data-x="2038" r="4" fill="#FFBF22"><title>2038: 1.655</title></circle>
	<circle cx="420.00" cy="124.84" data-y="1.700" data-x="2039" r="4" fill="#FFBF22"><title>2039: 1.700</title></circle>
	<circle cx="437.50" cy="116.90" data-y="1.793" data-x="2040" r="4" fill="#FFBF22"><title>2040: 1.793</title></circle>
	<circle cx="455.00" cy="106.74" data-y="1.912" data-x="2041" r="4" fill="#FFBF22"><title>2041: 1.912</title></circle>
	<circle cx="472.50" cy="102.47" data-y="1.962" data-x="2042" r="4" fill="#FFBF22"><title>2042: 1.962</title></circle>
	<circle cx="490.00" cy="92.65" data-y="2.077" data-x="2043" r="4" fill="#FFBF22"><title>2043: 2.077</title></circle>
	<circle cx="507.50" cy="82.07" data-y="2.201" data-x="2044" r="4" fill="#FFBF22"><title>2044: 2.201</title></circle>
	<circle cx="525.00" cy="67.89" data-y="2.367" data-x="2045" r="4" fill="#FFBF22"><title>2045: 2.367</title></circle>
	<circle cx="542.50" cy="62.26" data-y="2.433" data-x="2046" r="4" fill="#FFBF22"><title>2046: 2.433</title></circle>
	<circle cx="560.00" cy="59.44" data-y="2.466" data-x="2047" r="4" fill="#FFBF22"><title>2047: 2.466</title></circle>
	<circle cx="577.50" cy="53.29" data-y="2.538" data-x="2048" r="4" fill="#FFBF22"><title>2048: 2.538</title></circle>
	<circle cx="595.00" cy="51.16" data-y="2.563" data-x="2049" r="4" fill="#FFBF22"><title>2049: 2.563</title></circle>
	<circle cx="612.50" cy="48.85" data-y="2.590" data-x="2050" r="4" fill="#FFBF22"><title>2050: 2.590</title></circle>
</g>
<g data-scenario="system-transformation" class="data-series">	<path d="M 70.00,254.03L 87.50,253.78L 105.00,253.61L 122.50,253.18L 140.00,252.24L 157.50,251.98L 175.00,251.64L 192.50,249.42L 210.00,247.97L 227.50,246.60L 245.00,246.43L 262.50,245.67L 280.00,236.61L 297.50,230.55L 315.00,227.90L 332.50,225.94L 350.00,217.49L 367.50,210.40L 385.00,209.46L 402.50,206.30L 420.00,202.29L 437.50,200.84L 455.00,197.68L 472.50,193.24L 490.00,193.07L 507.50,189.22L 525.00,184.02L 542.50,181.11L 560.00,177.36L 577.50,177.36L 595.00,175.14L 612.50,175.14" id="System transformation" class="line" stroke="#5BCBF5" stroke-width="3" stroke-linecap="round"><title>System transformation</title></path>
	<circle cx="70.00" cy="254.03" data-y="0.187" data-x="2019" r="4" fill="#5BCBF5"><title>2019: 0.187</title></circle>
	<circle cx="87.50" cy="253.78" data-y="0.190" data-x="2020" r="4" fill="#5BCBF5"><title>2020: 0.190</title></circle>
	<circle cx="105.00" cy="253.61" data-y="0.192" data-x="2021" r="4" fill="#5BCBF5"><title>2021: 0.192</title></circle>
	<circle cx="122.50" cy="253.18" data-y="0.197" data-x="2022" r="4" fill="#5BCBF5"><title>2022: 0.197</title></circle>
	<circle cx="140.00" cy="252.24" data-y="0.208" data-x="2023" r="4" fill="#5BCBF5"><title>2023: 0.208</title></circle>
	<circle cx="157.50" cy="251.98" data-y="0.211" data-x="2024" r="4" fill="#5BCBF5"><title>2024: 0.211</title></circle>
	<circle cx="175.00" cy="251.64" data-y="0.215" data-x="2025" r="4" fill="#5BCBF5"><title>2025: 0.215</title></circle>
	<circle cx="192.50" cy="249.42" data-y="0.241" data-x="2026" r="4" fill="#5BCBF5"><title>2026: 0.241</title></circle>
	<circle cx="210.00" cy="247.97" data-y="0.258" data-x="2027" r="4" fill="#5BCBF5"><title>2027: 0.258</title></circle>
	<circle cx="227.50" cy="246.60" data-y="0.274" data-x="2028" r="4" fill="#5BCBF5"><title>2028: 0.274</title></circle>
	<circle cx="245.00" cy="246.43" data-y="0.276" data-x="2029" r="4" fill="#5BCBF5"><title>2029: 0.276</title></circle>
	<circle cx="262.50" cy="245.67" data-y="0.285" data-x="2030" r="4" fill="#5BCBF5"><title>2030: 0.285</title></circle>
	<circle cx="280.00" cy="236.61" data-y="0.391" data-x="2031" r="4" fill="#5BCBF5"><title>2031: 0.391</title></circle>
	<circle cx="297.50" cy="230.55" data-y="0.462" data-x="2032" r="4" fill="#5BCBF5"><title>2032: 0.462</title></circle>
	<circle cx="315.00" cy="227.90" data-y="0.493" data-x="2033" r="4" fill="#5BCBF5"><title>2033: 0.493</title></circle>
	<circle cx="332.50" cy="225.94" data-y="0.516" data-x="2034" r="4" fill="#5BCBF5"><title>2034: 0.516</title></circle>
	<circle cx="350.00" cy="217.49" data-y="0.615" data-x="2035" r="4" fill="#5BCBF5"><title>2035: 0.615</title></circle>
	<circle cx="367.50" cy="210.40" data-y="0.698" data-x="2036" r="4" fill="#5BCBF5"><title>2036: 0.698</title></circle>
	<circle cx="385.00" cy="209.46" data-y="0.709" data-x="2037" r="4" fill="#5BCBF5"><title>2037: 0.709</title></circle>
	<circle cx="402.50" cy="206.30" data-y="0.746" data-x="2038" r="4" fill="#5BCBF5"><title>2038: 0.746</title></circle>
	<circle cx="420.00" cy="202.29" data-y="0.793" data-x="2039" r="4" fill="#5BCBF5"><title>2039: 0.793</title></circle>
	<circle cx="437.50" cy="200.84" data-y="0.810" data-x="2040" r="4" fill="#5BCBF5"><title>2040: 0.810</title></circle>
	<circle cx="455.00" cy="197.68" data-y="0.847" data-x="2041" r="4" fill="#5BCBF5"><title>2041: 0.847</title></circle>
	<circle cx="472.50" cy="193.24" data-y="0.899" data-x="2042" r="4" fill="#5BCBF5"><title>2042: 0.899</title></circle>
	<circle cx="490.00" cy="193.07" data-y="0.901" data-x="2043" r="4" fill="#5BCBF5"><title>2043: 0.901</title></circle>
	<circle cx="507.50" cy="189.22" data-y="0.946" data-x="2044" r="4" fill="#5BCBF5"><title>2044: 0.946</title></circle>
	<circle cx="525.00" cy="184.02" data-y="1.007" data-x="2045" r="4" fill="#5BCBF5"><title>2045: 1.007</title></circle>
	<circle cx="542.50" cy="181.11" data-y="1.041" data-x="2046" r="4" fill="#5BCBF5"><title>2046: 1.041</title></circle>
	<circle cx="560.00" cy="177.36" data-y="1.085" data-x="2047" r="4" fill="#5BCBF5"><title>2047: 1.085</title></circle>
	<circle cx="577.50" cy="177.36" data-y="1.085" data-x="2048" r="4" fill="#5BCBF5"><title>2048: 1.085</title></circle>
	<circle cx="595.00" cy="175.14" data-y="1.111" data-x="2049" r="4" fill="#5BCBF5"><title>2049: 1.111</title></circle>
	<circle cx="612.50" cy="175.14" data-y="1.111" data-x="2050" r="4" fill="#5BCBF5"><title>2050: 1.111</title></circle>
</g>
<g data-scenario="steady-progression" class="data-series">	<path d="M 70.00,254.03L 87.50,253.18L 105.00,252.24L 122.50,251.22L 140.00,249.76L 157.50,249.42L 175.00,248.82L 192.50,248.06L 210.00,235.16L 227.50,230.89L 245.00,225.34L 262.50,222.35L 280.00,212.11L 297.50,208.69L 315.00,204.68L 332.50,200.58L 350.00,186.49L 367.50,181.28L 385.00,178.47L 402.50,176.33L 420.00,172.40L 437.50,170.61L 455.00,163.87L 472.50,154.64L 490.00,137.99L 507.50,128.52L 525.00,128.43L 542.50,123.05L 560.00,119.72L 577.50,116.48L 595.00,111.01L 612.50,110.07" id="Steady progression" class="line" stroke="#827B7A" stroke-width="3" stroke-linecap="round"><title>Steady progression</title></path>
	<circle cx="70.00" cy="254.03" data-y="0.187" data-x="2019" r="4" fill="#827B7A"><title>2019: 0.187</title></circle>
	<circle cx="87.50" cy="253.18" data-y="0.197" data-x="2020" r="4" fill="#827B7A"><title>2020: 0.197</title></circle>
	<circle cx="105.00" cy="252.24" data-y="0.208" data-x="2021" r="4" fill="#827B7A"><title>2021: 0.208</title></circle>
	<circle cx="122.50" cy="251.22" data-y="0.220" data-x="2022" r="4" fill="#827B7A"><title>2022: 0.220</title></circle>
	<circle cx="140.00" cy="249.76" data-y="0.237" data-x="2023" r="4" fill="#827B7A"><title>2023: 0.237</title></circle>
	<circle cx="157.50" cy="249.42" data-y="0.241" data-x="2024" r="4" fill="#827B7A"><title>2024: 0.241</title></circle>
	<circle cx="175.00" cy="248.82" data-y="0.248" data-x="2025" r="4" fill="#827B7A"><title>2025: 0.248</title></circle>
	<circle cx="192.50" cy="248.06" data-y="0.257" data-x="2026" r="4" fill="#827B7A"><title>2026: 0.257</title></circle>
	<circle cx="210.00" cy="235.16" data-y="0.408" data-x="2027" r="4" fill="#827B7A"><title>2027: 0.408</title></circle>
	<circle cx="227.50" cy="230.89" data-y="0.458" data-x="2028" r="4" fill="#827B7A"><title>2028: 0.458</title></circle>
	<circle cx="245.00" cy="225.34" data-y="0.523" data-x="2029" r="4" fill="#827B7A"><title>2029: 0.523</title></circle>
	<circle cx="262.50" cy="222.35" data-y="0.558" data-x="2030" r="4" fill="#827B7A"><title>2030: 0.558</title></circle>
	<circle cx="280.00" cy="212.11" data-y="0.678" data-x="2031" r="4" fill="#827B7A"><title>2031: 0.678</title></circle>
	<circle cx="297.50" cy="208.69" data-y="0.718" data-x="2032" r="4" fill="#827B7A"><title>2032: 0.718</title></circle>
	<circle cx="315.00" cy="204.68" data-y="0.765" data-x="2033" r="4" fill="#827B7A"><title>2033: 0.765</title></circle>
	<circle cx="332.50" cy="200.58" data-y="0.813" data-x="2034" r="4" fill="#827B7A"><title>2034: 0.813</title></circle>
	<circle cx="350.00" cy="186.49" data-y="0.978" data-x="2035" r="4" fill="#827B7A"><title>2035: 0.978</title></circle>
	<circle cx="367.50" cy="181.28" data-y="1.039" data-x="2036" r="4" fill="#827B7A"><title>2036: 1.039</title></circle>
	<circle cx="385.00" cy="178.47" data-y="1.072" data-x="2037" r="4" fill="#827B7A"><title>2037: 1.072</title></circle>
	<circle cx="402.50" cy="176.33" data-y="1.097" data-x="2038" r="4" fill="#827B7A"><title>2038: 1.097</title></circle>
	<circle cx="420.00" cy="172.40" data-y="1.143" data-x="2039" r="4" fill="#827B7A"><title>2039: 1.143</title></circle>
	<circle cx="437.50" cy="170.61" data-y="1.164" data-x="2040" r="4" fill="#827B7A"><title>2040: 1.164</title></circle>
	<circle cx="455.00" cy="163.87" data-y="1.243" data-x="2041" r="4" fill="#827B7A"><title>2041: 1.243</title></circle>
	<circle cx="472.50" cy="154.64" data-y="1.351" data-x="2042" r="4" fill="#827B7A"><title>2042: 1.351</title></circle>
	<circle cx="490.00" cy="137.99" data-y="1.546" data-x="2043" r="4" fill="#827B7A"><title>2043: 1.546</title></circle>
	<circle cx="507.50" cy="128.52" data-y="1.657" data-x="2044" r="4" fill="#827B7A"><title>2044: 1.657</title></circle>
	<circle cx="525.00" cy="128.43" data-y="1.658" data-x="2045" r="4" fill="#827B7A"><title>2045: 1.658</title></circle>
	<circle cx="542.50" cy="123.05" data-y="1.721" data-x="2046" r="4" fill="#827B7A"><title>2046: 1.721</title></circle>
	<circle cx="560.00" cy="119.72" data-y="1.760" data-x="2047" r="4" fill="#827B7A"><title>2047: 1.760</title></circle>
	<circle cx="577.50" cy="116.48" data-y="1.798" data-x="2048" r="4" fill="#827B7A"><title>2048: 1.798</title></circle>
	<circle cx="595.00" cy="111.01" data-y="1.862" data-x="2049" r="4" fill="#827B7A"><title>2049: 1.862</title></circle>
	<circle cx="612.50" cy="110.07" data-y="1.873" data-x="2050" r="4" fill="#827B7A"><title>2050: 1.873</title></circle>
</g>
<g data-scenario="leading-the-way" class="data-series">	<path d="M 70.00,254.03L 87.50,253.18L 105.00,252.24L 122.50,251.22L 140.00,246.69L 157.50,245.84L 175.00,244.56L 192.50,243.70L 210.00,243.02L 227.50,230.89L 245.00,219.79L 262.50,190.59L 280.00,163.44L 297.50,152.68L 315.00,140.98L 332.50,132.27L 350.00,118.61L 367.50,103.75L 385.00,79.08L 402.50,55.34L 420.00,47.31L 437.50,40.14L 455.00,33.22L 472.50,30.49L 490.00,24.26L 507.50,22.47L 525.00,22.47L 542.50,22.47L 560.00,22.38L 577.50,19.56L 595.00,18.11L 612.50,18.11" id="Leading the way" class="line" stroke="#C2CD23" stroke-width="3" stroke-linecap="round"><title>Leading the way</title></path>
	<circle cx="70.00" cy="254.03" data-y="0.187" data-x="2019" r="4" fill="#C2CD23"><title>2019: 0.187</title></circle>
	<circle cx="87.50" cy="253.18" data-y="0.197" data-x="2020" r="4" fill="#C2CD23"><title>2020: 0.197</title></circle>
	<circle cx="105.00" cy="252.24" data-y="0.208" data-x="2021" r="4" fill="#C2CD23"><title>2021: 0.208</title></circle>
	<circle cx="122.50" cy="251.22" data-y="0.220" data-x="2022" r="4" fill="#C2CD23"><title>2022: 0.220</title></circle>
	<circle cx="140.00" cy="246.69" data-y="0.273" data-x="2023" r="4" fill="#C2CD23"><title>2023: 0.273</title></circle>
	<circle cx="157.50" cy="245.84" data-y="0.283" data-x="2024" r="4" fill="#C2CD23"><title>2024: 0.283</title></circle>
	<circle cx="175.00" cy="244.56" data-y="0.298" data-x="2025" r="4" fill="#C2CD23"><title>2025: 0.298</title></circle>
	<circle cx="192.50" cy="243.70" data-y="0.308" data-x="2026" r="4" fill="#C2CD23"><title>2026: 0.308</title></circle>
	<circle cx="210.00" cy="243.02" data-y="0.316" data-x="2027" r="4" fill="#C2CD23"><title>2027: 0.316</title></circle>
	<circle cx="227.50" cy="230.89" data-y="0.458" data-x="2028" r="4" fill="#C2CD23"><title>2028: 0.458</title></circle>
	<circle cx="245.00" cy="219.79" data-y="0.588" data-x="2029" r="4" fill="#C2CD23"><title>2029: 0.588</title></circle>
	<circle cx="262.50" cy="190.59" data-y="0.930" data-x="2030" r="4" fill="#C2CD23"><title>2030: 0.930</title></circle>
	<circle cx="280.00" cy="163.44" data-y="1.248" data-x="2031" r="4" fill="#C2CD23"><title>2031: 1.248</title></circle>
	<circle cx="297.50" cy="152.68" data-y="1.374" data-x="2032" r="4" fill="#C2CD23"><title>2032: 1.374</title></circle>
	<circle cx="315.00" cy="140.98" data-y="1.511" data-x="2033" r="4" fill="#C2CD23"><title>2033: 1.511</title></circle>
	<circle cx="332.50" cy="132.27" data-y="1.613" data-x="2034" r="4" fill="#C2CD23"><title>2034: 1.613</title></circle>
	<circle cx="350.00" cy="118.61" data-y="1.773" data-x="2035" r="4" fill="#C2CD23"><title>2035: 1.773</title></circle>
	<circle cx="367.50" cy="103.75" data-y="1.947" data-x="2036" r="4" fill="#C2CD23"><title>2036: 1.947</title></circle>
	<circle cx="385.00" cy="79.08" data-y="2.236" data-x="2037" r="4" fill="#C2CD23"><title>2037: 2.236</title></circle>
	<circle cx="402.50" cy="55.34" data-y="2.514" data-x="2038" r="4" fill="#C2CD23"><title>2038: 2.514</title></circle>
	<circle cx="420.00" cy="47.31" data-y="2.608" data-x="2039" r="4" fill="#C2CD23"><title>2039: 2.608</title></circle>
	<circle cx="437.50" cy="40.14" data-y="2.692" data-x="2040" r="4" fill="#C2CD23"><title>2040: 2.692</title></circle>
	<circle cx="455.00" cy="33.22" data-y="2.773" data-x="2041" r="4" fill="#C2CD23"><title>2041: 2.773</title></circle>
	<circle cx="472.50" cy="30.49" data-y="2.805" data-x="2042" r="4" fill="#C2CD23"><title>2042: 2.805</title></circle>
	<circle cx="490.00" cy="24.26" data-y="2.878" data-x="2043" r="4" fill="#C2CD23"><title>2043: 2.878</title></circle>
	<circle cx="507.50" cy="22.47" data-y="2.899" data-x="2044" r="4" fill="#C2CD23"><title>2044: 2.899</title></circle>
	<circle cx="525.00" cy="22.47" data-y="2.899" data-x="2045" r="4" fill="#C2CD23"><title>2045: 2.899</title></circle>
	<circle cx="542.50" cy="22.47" data-y="2.899" data-x="2046" r="4" fill="#C2CD23"><title>2046: 2.899</title></circle>
	<circle cx="560.00" cy="22.38" data-y="2.900" data-x="2047" r="4" fill="#C2CD23"><title>2047: 2.900</title></circle>
	<circle cx="577.50" cy="19.56" data-y="2.933" data-x="2048" r="4" fill="#C2CD23"><title>2048: 2.933</title></circle>
	<circle cx="595.00" cy="18.11" data-y="2.950" data-x="2049" r="4" fill="#C2CD23"><title>2049: 2.950</title></circle>
	<circle cx="612.50" cy="18.11" data-y="2.950" data-x="2050" r="4" fill="#C2CD23"><title>2050: 2.950</title></circle>
</g>
<g data-scenario="early-net-zero" class="data-series">	<path d="M 70.00,254.20L 87.50,254.20L 105.00,252.33L 122.50,247.71L 140.00,239.94L 157.50,237.81L 175.00,232.09L 192.50,224.15L 210.00,217.83L 227.50,207.16L 245.00,201.35L 262.50,190.93L 280.00,181.63L 297.50,173.77L 315.00,155.92L 332.50,141.84L 350.00,128.00L 367.50,109.56L 385.00,91.20L 402.50,66.27L 420.00,54.91L 437.50,48.00L 455.00,34.33L 472.50,29.64L 490.00,23.15L 507.50,19.31L 525.00,18.11L 542.50,16.92L 560.00,15.89L 577.50,14.70L 595.00,12.39L 612.50,10.00" id="Net Zero Early" class="line" stroke="#00AB84" stroke-width="3" stroke-linecap="round"><title>Net Zero Early</title></path>
	<circle cx="70.00" cy="254.20" data-y="0.185" data-x="2019" r="4" fill="#00AB84"><title>2019: 0.185</title></circle>
	<circle cx="87.50" cy="254.20" data-y="0.185" data-x="2020" r="4" fill="#00AB84"><title>2020: 0.185</title></circle>
	<circle cx="105.00" cy="252.33" data-y="0.207" data-x="2021" r="4" fill="#00AB84"><title>2021: 0.207</title></circle>
	<circle cx="122.50" cy="247.71" data-y="0.261" data-x="2022" r="4" fill="#00AB84"><title>2022: 0.261</title></circle>
	<circle cx="140.00" cy="239.94" data-y="0.352" data-x="2023" r="4" fill="#00AB84"><title>2023: 0.352</title></circle>
	<circle cx="157.50" cy="237.81" data-y="0.377" data-x="2024" r="4" fill="#00AB84"><title>2024: 0.377</title></circle>
	<circle cx="175.00" cy="232.09" data-y="0.444" data-x="2025" r="4" fill="#00AB84"><title>2025: 0.444</title></circle>
	<circle cx="192.50" cy="224.15" data-y="0.537" data-x="2026" r="4" fill="#00AB84"><title>2026: 0.537</title></circle>
	<circle cx="210.00" cy="217.83" data-y="0.611" data-x="2027" r="4" fill="#00AB84"><title>2027: 0.611</title></circle>
	<circle cx="227.50" cy="207.16" data-y="0.736" data-x="2028" r="4" fill="#00AB84"><title>2028: 0.736</title></circle>
	<circle cx="245.00" cy="201.35" data-y="0.804" data-x="2029" r="4" fill="#00AB84"><title>2029: 0.804</title></circle>
	<circle cx="262.50" cy="190.93" data-y="0.926" data-x="2030" r="4" fill="#00AB84"><title>2030: 0.926</title></circle>
	<circle cx="280.00" cy="181.63" data-y="1.035" data-x="2031" r="4" fill="#00AB84"><title>2031: 1.035</title></circle>
	<circle cx="297.50" cy="173.77" data-y="1.127" data-x="2032" r="4" fill="#00AB84"><title>2032: 1.127</title></circle>
	<circle cx="315.00" cy="155.92" data-y="1.336" data-x="2033" r="4" fill="#00AB84"><title>2033: 1.336</title></circle>
	<circle cx="332.50" cy="141.84" data-y="1.501" data-x="2034" r="4" fill="#00AB84"><title>2034: 1.501</title></circle>
	<circle cx="350.00" cy="128.00" data-y="1.663" data-x="2035" r="4" fill="#00AB84"><title>2035: 1.663</title></circle>
	<circle cx="367.50" cy="109.56" data-y="1.879" data-x="2036" r="4" fill="#00AB84"><title>2036: 1.879</title></circle>
	<circle cx="385.00" cy="91.20" data-y="2.094" data-x="2037" r="4" fill="#00AB84"><title>2037: 2.094</title></circle>
	<circle cx="402.50" cy="66.27" data-y="2.386" data-x="2038" r="4" fill="#00AB84"><title>2038: 2.386</title></circle>
	<circle cx="420.00" cy="54.91" data-y="2.519" data-x="2039" r="4" fill="#00AB84"><title>2039: 2.519</title></circle>
	<circle cx="437.50" cy="48.00" data-y="2.600" data-x="2040" r="4" fill="#00AB84"><title>2040: 2.600</title></circle>
	<circle cx="455.00" cy="34.33" data-y="2.760" data-x="2041" r="4" fill="#00AB84"><title>2041: 2.760</title></circle>
	<circle cx="472.50" cy="29.64" data-y="2.815" data-x="2042" r="4" fill="#00AB84"><title>2042: 2.815</title></circle>
	<circle cx="490.00" cy="23.15" data-y="2.891" data-x="2043" r="4" fill="#00AB84"><title>2043: 2.891</title></circle>
	<circle cx="507.50" cy="19.31" data-y="2.936" data-x="2044" r="4" fill="#00AB84"><title>2044: 2.936</title></circle>
	<circle cx="525.00" cy="18.11" data-y="2.950" data-x="2045" r="4" fill="#00AB84"><title>2045: 2.950</title></circle>
	<circle cx="542.50" cy="16.92" data-y="2.964" data-x="2046" r="4" fill="#00AB84"><title>2046: 2.964</title></circle>
	<circle cx="560.00" cy="15.89" data-y="2.976" data-x="2047" r="4" fill="#00AB84"><title>2047: 2.976</title></circle>
	<circle cx="577.50" cy="14.70" data-y="2.990" data-x="2048" r="4" fill="#00AB84"><title>2048: 2.990</title></circle>
	<circle cx="595.00" cy="12.39" data-y="3.017" data-x="2049" r="4" fill="#00AB84"><title>2049: 3.017</title></circle>
	<circle cx="612.50" cy="10.00" data-y="3.045" data-x="2050" r="4" fill="#00AB84"><title>2050: 3.045</title></circle>
</g>
</svg>
