<svg width="640" height="320" viewBox="0 0 640 320" xmlns="http://www.w3.org/2000/svg" style="overflow:display" preserveAspectRatio="xMinYMin meet" overflow="visible">
<defs>
	<style>
	.data-series path.line { fill-opacity: 0; }
	.data-series path.line.dotted { stroke-dasharray: 12 20 }
	.data-series circle { display: none; }
	.data-series:hover path.line, .data-series.on path.line { stroke-width: 5; }
	.data-series:hover circle, .data-series.on circle { display: inline; }
	.data-series circle:hover, .data-series circle.on { r: 6px!important; fill: black; }
	.grid { font-family: "Helvetica Neue",Helvetica,Arial,"Lucida Grande",sans-serif; }
	.grid line { stroke: rgb(0,0,0); stroke-width: 2; stroke-linecap: round; }
	.grid.grid-x text { text-anchor: middle; dominant-baseline: hanging; transform: translateY(10px); }
	.grid.grid-y text { text-anchor: end; dominant-baseline: middle; transform: translateX(-10px); }
	</style>
</defs>
<g class="grid grid-y">
	<line x1="70" y1="270" x2="630" y2="270" data-left="70"></line>
	<text x="70" y="270" text-anchor="end">0</text>
	<text x="70" y="215.986371946153" text-anchor="end">5</text>
	<text x="70" y="161.972743892305" text-anchor="end">10</text>
	<text x="70" y="107.959115838458" text-anchor="end">15</text>
	<text x="70" y="53.9454877846103" text-anchor="end">20</text>
	<text style="text-anchor:middle;dominant-baseline:hanging;font-weight:bold;transform: translateY(140px) rotate(-90deg);">Annual emissions (MtCO2)</text>
</g>
<g class="grid grid-x">
	<line class="tick" x1="70" y1="270" x2="70" y2="275"></line>
	<text x="70" y="270" text-anchor="middle">2020</text>
	<line class="tick" x1="250.645161290323" y1="270" x2="250.645161290323" y2="275"></line>
	<text x="250.645161290323" y="270" text-anchor="middle">2030</text>
	<line class="tick" x1="431.290322580645" y1="270" x2="431.290322580645" y2="275"></line>
	<text x="431.290322580645" y="270" text-anchor="middle">2040</text>
	<line class="tick" x1="611.935483870968" y1="270" x2="611.935483870968" y2="275"></line>
	<text x="611.935483870968" y="270" text-anchor="middle">2050</text>
	<text style="text-anchor:middle;dominant-baseline:hanging;font-weight:bold;transform: translateY(140px) rotate(-90deg);"></text>
</g>
<g data-scenario="natural-gas" class="data-series">	<path d="M 70.00,149.96L 88.06,151.35L 106.13,152.75L 124.19,154.52L 142.26,156.38L 160.32,158.96L 178.39,162.11L 196.45,165.88L 214.52,170.82L 232.58,175.90L 250.65,181.12L 268.71,185.31L 286.77,189.78L 304.84,194.87L 322.90,200.67L 340.97,206.50L 359.03,212.03L 377.10,217.34L 395.16,222.69L 413.23,228.20L 431.29,233.90L 449.35,239.96L 467.42,245.39L 485.48,250.19L 503.55,254.79L 521.61,258.72L 539.68,262.29L 557.74,265.77L 575.81,268.53L 593.87,269.23L 611.94,269.82" id="Natural gas" class="line" stroke="#B8BFF9" stroke-width="3" stroke-linecap="round"><title>Natural gas</title></path>
	<circle cx="70.00" cy="149.96" data-y="11.112" data-x="2020" r="4" fill="#B8BFF9"><title>2020: 11.112</title></circle>
	<circle cx="88.06" cy="151.35" data-y="10.983" data-x="2021" r="4" fill="#B8BFF9"><title>2021: 10.983</title></circle>
	<circle cx="106.13" cy="152.75" data-y="10.854" data-x="2022" r="4" fill="#B8BFF9"><title>2022: 10.854</title></circle>
	<circle cx="124.19" cy="154.52" data-y="10.690" data-x="2023" r="4" fill="#B8BFF9"><title>2023: 10.690</title></circle>
	<circle cx="142.26" cy="156.38" data-y="10.518" data-x="2024" r="4" fill="#B8BFF9"><title>2024: 10.518</title></circle>
	<circle cx="160.32" cy="158.96" data-y="10.279" data-x="2025" r="4" fill="#B8BFF9"><title>2025: 10.279</title></circle>
	<circle cx="178.39" cy="162.11" data-y="9.987" data-x="2026" r="4" fill="#B8BFF9"><title>2026: 9.987</title></circle>
	<circle cx="196.45" cy="165.88" data-y="9.638" data-x="2027" r="4" fill="#B8BFF9"><title>2027: 9.638</title></circle>
	<circle cx="214.52" cy="170.82" data-y="9.181" data-x="2028" r="4" fill="#B8BFF9"><title>2028: 9.181</title></circle>
	<circle cx="232.58" cy="175.90" data-y="8.711" data-x="2029" r="4" fill="#B8BFF9"><title>2029: 8.711</title></circle>
	<circle cx="250.65" cy="181.12" data-y="8.228" data-x="2030" r="4" fill="#B8BFF9"><title>2030: 8.228</title></circle>
	<circle cx="268.71" cy="185.31" data-y="7.840" data-x="2031" r="4" fill="#B8BFF9"><title>2031: 7.840</title></circle>
	<circle cx="286.77" cy="189.78" data-y="7.426" data-x="2032" r="4" fill="#B8BFF9"><title>2032: 7.426</title></circle>
	<circle cx="304.84" cy="194.87" data-y="6.955" data-x="2033" r="4" fill="#B8BFF9"><title>2033: 6.955</title></circle>
	<circle cx="322.90" cy="200.67" data-y="6.418" data-x="2034" r="4" fill="#B8BFF9"><title>2034: 6.418</title></circle>
	<circle cx="340.97" cy="206.50" data-y="5.878" data-x="2035" r="4" fill="#B8BFF9"><title>2035: 5.878</title></circle>
	<circle cx="359.03" cy="212.03" data-y="5.366" data-x="2036" r="4" fill="#B8BFF9"><title>2036: 5.366</title></circle>
	<circle cx="377.10" cy="217.34" data-y="4.875" data-x="2037" r="4" fill="#B8BFF9"><title>2037: 4.875</title></circle>
	<circle cx="395.16" cy="222.69" data-y="4.379" data-x="2038" r="4" fill="#B8BFF9"><title>2038: 4.379</title></circle>
	<circle cx="413.23" cy="228.20" data-y="3.869" data-x="2039" r="4" fill="#B8BFF9"><title>2039: 3.869</title></circle>
	<circle cx="431.29" cy="233.90" data-y="3.342" data-x="2040" r="4" fill="#B8BFF9"><title>2040: 3.342</title></circle>
	<circle cx="449.35" cy="239.96" data-y="2.781" data-x="2041" r="4" fill="#B8BFF9"><title>2041: 2.781</title></circle>
	<circle cx="467.42" cy="245.39" data-y="2.278" data-x="2042" r="4" fill="#B8BFF9"><title>2042: 2.278</title></circle>
	<circle cx="485.48" cy="250.19" data-y="1.834" data-x="2043" r="4" fill="#B8BFF9"><title>2043: 1.834</title></circle>
	<circle cx="503.55" cy="254.79" data-y="1.408" data-x="2044" r="4" fill="#B8BFF9"><title>2044: 1.408</title></circle>
	<circle cx="521.61" cy="258.72" data-y="1.044" data-x="2045" r="4" fill="#B8BFF9"><title>2045: 1.044</title></circle>
	<circle cx="539.68" cy="262.29" data-y="0.714" data-x="2046" r="4" fill="#B8BFF9"><title>2046: 0.714</title></circle>
	<circle cx="557.74" cy="265.77" data-y="0.392" data-x="2047" r="4" fill="#B8BFF9"><title>2047: 0.392</title></circle>
	<circle cx="575.81" cy="268.53" data-y="0.136" data-x="2048" r="4" fill="#B8BFF9"><title>2048: 0.136</title></circle>
	<circle cx="593.87" cy="269.23" data-y="0.071" data-x="2049" r="4" fill="#B8BFF9"><title>2049: 0.071</title></circle>
	<circle cx="611.94" cy="269.82" data-y="0.017" data-x="2050" r="4" fill="#B8BFF9"><title>2050: 0.017</title></circle>
</g>
<g data-scenario="hydrogen" class="data-series">	<path d="M 70.00,270.00L 88.06,269.99L 106.13,269.99L 124.19,269.99L 142.26,269.99L 160.32,269.99L 178.39,269.99L 196.45,269.99L 214.52,269.99L 232.58,269.99L 250.65,269.96L 268.71,269.94L 286.77,269.92L 304.84,269.90L 322.90,269.87L 340.97,269.85L 359.03,269.82L 377.10,269.79L 395.16,269.77L 413.23,269.74L 431.29,269.71L 449.35,269.62L 467.42,269.56L 485.48,269.51L 503.55,269.46L 521.61,269.43L 539.68,269.41L 557.74,269.40L 575.81,269.38L 593.87,269.37L 611.94,269.37" id="Hydrogen" class="line" stroke="#0279FA" stroke-width="3" stroke-linecap="round"><title>Hydrogen</title></path>
	<circle cx="70.00" cy="270.00" data-y="0.000" data-x="2020" r="4" fill="#0279FA"><title>2020: 0.000</title></circle>
	<circle cx="88.06" cy="269.99" data-y="0.001" data-x="2021" r="4" fill="#0279FA"><title>2021: 0.001</title></circle>
	<circle cx="106.13" cy="269.99" data-y="0.001" data-x="2022" r="4" fill="#0279FA"><title>2022: 0.001</title></circle>
	<circle cx="124.19" cy="269.99" data-y="0.001" data-x="2023" r="4" fill="#0279FA"><title>2023: 0.001</title></circle>
	<circle cx="142.26" cy="269.99" data-y="0.001" data-x="2024" r="4" fill="#0279FA"><title>2024: 0.001</title></circle>
	<circle cx="160.32" cy="269.99" data-y="0.001" data-x="2025" r="4" fill="#0279FA"><title>2025: 0.001</title></circle>
	<circle cx="178.39" cy="269.99" data-y="0.001" data-x="2026" r="4" fill="#0279FA"><title>2026: 0.001</title></circle>
	<circle cx="196.45" cy="269.99" data-y="0.001" data-x="2027" r="4" fill="#0279FA"><title>2027: 0.001</title></circle>
	<circle cx="214.52" cy="269.99" data-y="0.001" data-x="2028" r="4" fill="#0279FA"><title>2028: 0.001</title></circle>
	<circle cx="232.58" cy="269.99" data-y="0.001" data-x="2029" r="4" fill="#0279FA"><title>2029: 0.001</title></circle>
	<circle cx="250.65" cy="269.96" data-y="0.004" data-x="2030" r="4" fill="#0279FA"><title>2030: 0.004</title></circle>
	<circle cx="268.71" cy="269.94" data-y="0.006" data-x="2031" r="4" fill="#0279FA"><title>2031: 0.006</title></circle>
	<circle cx="286.77" cy="269.92" data-y="0.007" data-x="2032" r="4" fill="#0279FA"><title>2032: 0.007</title></circle>
	<circle cx="304.84" cy="269.90" data-y="0.009" data-x="2033" r="4" fill="#0279FA"><title>2033: 0.009</title></circle>
	<circle cx="322.90" cy="269.87" data-y="0.012" data-x="2034" r="4" fill="#0279FA"><title>2034: 0.012</title></circle>
	<circle cx="340.97" cy="269.85" data-y="0.014" data-x="2035" r="4" fill="#0279FA"><title>2035: 0.014</title></circle>
	<circle cx="359.03" cy="269.82" data-y="0.017" data-x="2036" r="4" fill="#0279FA"><title>2036: 0.017</title></circle>
	<circle cx="377.10" cy="269.79" data-y="0.019" data-x="2037" r="4" fill="#0279FA"><title>2037: 0.019</title></circle>
	<circle cx="395.16" cy="269.77" data-y="0.021" data-x="2038" r="4" fill="#0279FA"><title>2038: 0.021</title></circle>
	<circle cx="413.23" cy="269.74" data-y="0.024" data-x="2039" r="4" fill="#0279FA"><title>2039: 0.024</title></circle>
	<circle cx="431.29" cy="269.71" data-y="0.027" data-x="2040" r="4" fill="#0279FA"><title>2040: 0.027</title></circle>
	<circle cx="449.35" cy="269.62" data-y="0.035" data-x="2041" r="4" fill="#0279FA"><title>2041: 0.035</title></circle>
	<circle cx="467.42" cy="269.56" data-y="0.041" data-x="2042" r="4" fill="#0279FA"><title>2042: 0.041</title></circle>
	<circle cx="485.48" cy="269.51" data-y="0.045" data-x="2043" r="4" fill="#0279FA"><title>2043: 0.045</title></circle>
	<circle cx="503.55" cy="269.46" data-y="0.050" data-x="2044" r="4" fill="#0279FA"><title>2044: 0.050</title></circle>
	<circle cx="521.61" cy="269.43" data-y="0.053" data-x="2045" r="4" fill="#0279FA"><title>2045: 0.053</title></circle>
	<circle cx="539.68" cy="269.41" data-y="0.055" data-x="2046" r="4" fill="#0279FA"><title>2046: 0.055</title></circle>
	<circle cx="557.74" cy="269.40" data-y="0.056" data-x="2047" r="4" fill="#0279FA"><title>2047: 0.056</title></circle>
	<circle cx="575.81" cy="269.38" data-y="0.057" data-x="2048" r="4" fill="#0279FA"><title>2048: 0.057</title></circle>
	<circle cx="593.87" cy="269.37" data-y="0.058" data-x="2049" r="4" fill="#0279FA"><title>2049: 0.058</title></circle>
	<circle cx="611.94" cy="269.37" data-y="0.058" data-x="2050" r="4" fill="#0279FA"><title>2050: 0.058</title></circle>
</g>
<g data-scenario="bioenergy" class="data-series">	<path d="M 70.00,269.37L 88.06,269.38L 106.13,269.41L 124.19,269.43L 142.26,269.45L 160.32,269.47L 178.39,269.50L 196.45,269.54L 214.52,269.58L 232.58,269.60L 250.65,269.63L 268.71,269.65L 286.77,269.68L 304.84,269.70L 322.90,269.72L 340.97,269.74L 359.03,269.76L 377.10,269.78L 395.16,269.79L 413.23,269.82L 431.29,269.84L 449.35,269.86L 467.42,269.87L 485.48,269.89L 503.55,269.89L 521.61,269.89L 539.68,269.89L 557.74,269.89L 575.81,269.89L 593.87,269.89L 611.94,269.90" id="Bioenergy" class="line" stroke="#019303" stroke-width="3" stroke-linecap="round"><title>Bioenergy</title></path>
	<circle cx="70.00" cy="269.37" data-y="0.058" data-x="2020" r="4" fill="#019303"><title>2020: 0.058</title></circle>
	<circle cx="88.06" cy="269.38" data-y="0.057" data-x="2021" r="4" fill="#019303"><title>2021: 0.057</title></circle>
	<circle cx="106.13" cy="269.41" data-y="0.055" data-x="2022" r="4" fill="#019303"><title>2022: 0.055</title></circle>
	<circle cx="124.19" cy="269.43" data-y="0.053" data-x="2023" r="4" fill="#019303"><title>2023: 0.053</title></circle>
	<circle cx="142.26" cy="269.45" data-y="0.051" data-x="2024" r="4" fill="#019303"><title>2024: 0.051</title></circle>
	<circle cx="160.32" cy="269.47" data-y="0.049" data-x="2025" r="4" fill="#019303"><title>2025: 0.049</title></circle>
	<circle cx="178.39" cy="269.50" data-y="0.046" data-x="2026" r="4" fill="#019303"><title>2026: 0.046</title></circle>
	<circle cx="196.45" cy="269.54" data-y="0.043" data-x="2027" r="4" fill="#019303"><title>2027: 0.043</title></circle>
	<circle cx="214.52" cy="269.58" data-y="0.039" data-x="2028" r="4" fill="#019303"><title>2028: 0.039</title></circle>
	<circle cx="232.58" cy="269.60" data-y="0.037" data-x="2029" r="4" fill="#019303"><title>2029: 0.037</title></circle>
	<circle cx="250.65" cy="269.63" data-y="0.034" data-x="2030" r="4" fill="#019303"><title>2030: 0.034</title></circle>
	<circle cx="268.71" cy="269.65" data-y="0.032" data-x="2031" r="4" fill="#019303"><title>2031: 0.032</title></circle>
	<circle cx="286.77" cy="269.68" data-y="0.030" data-x="2032" r="4" fill="#019303"><title>2032: 0.030</title></circle>
	<circle cx="304.84" cy="269.70" data-y="0.028" data-x="2033" r="4" fill="#019303"><title>2033: 0.028</title></circle>
	<circle cx="322.90" cy="269.72" data-y="0.026" data-x="2034" r="4" fill="#019303"><title>2034: 0.026</title></circle>
	<circle cx="340.97" cy="269.74" data-y="0.024" data-x="2035" r="4" fill="#019303"><title>2035: 0.024</title></circle>
	<circle cx="359.03" cy="269.76" data-y="0.022" data-x="2036" r="4" fill="#019303"><title>2036: 0.022</title></circle>
	<circle cx="377.10" cy="269.78" data-y="0.020" data-x="2037" r="4" fill="#019303"><title>2037: 0.020</title></circle>
	<circle cx="395.16" cy="269.79" data-y="0.019" data-x="2038" r="4" fill="#019303"><title>2038: 0.019</title></circle>
	<circle cx="413.23" cy="269.82" data-y="0.017" data-x="2039" r="4" fill="#019303"><title>2039: 0.017</title></circle>
	<circle cx="431.29" cy="269.84" data-y="0.015" data-x="2040" r="4" fill="#019303"><title>2040: 0.015</title></circle>
	<circle cx="449.35" cy="269.86" data-y="0.013" data-x="2041" r="4" fill="#019303"><title>2041: 0.013</title></circle>
	<circle cx="467.42" cy="269.87" data-y="0.012" data-x="2042" r="4" fill="#019303"><title>2042: 0.012</title></circle>
	<circle cx="485.48" cy="269.89" data-y="0.010" data-x="2043" r="4" fill="#019303"><title>2043: 0.010</title></circle>
	<circle cx="503.55" cy="269.89" data-y="0.010" data-x="2044" r="4" fill="#019303"><title>2044: 0.010</title></circle>
	<circle cx="521.61" cy="269.89" data-y="0.010" data-x="2045" r="4" fill="#019303"><title>2045: 0.010</title></circle>
	<circle cx="539.68" cy="269.89" data-y="0.010" data-x="2046" r="4" fill="#019303"><title>2046: 0.010</title></circle>
	<circle cx="557.74" cy="269.89" data-y="0.010" data-x="2047" r="4" fill="#019303"><title>2047: 0.010</title></circle>
	<circle cx="575.81" cy="269.89" data-y="0.010" data-x="2048" r="4" fill="#019303"><title>2048: 0.010</title></circle>
	<circle cx="593.87" cy="269.89" data-y="0.010" data-x="2049" r="4" fill="#019303"><title>2049: 0.010</title></circle>
	<circle cx="611.94" cy="269.90" data-y="0.009" data-x="2050" r="4" fill="#019303"><title>2050: 0.009</title></circle>
</g>
<g data-scenario="petrol" class="data-series">	<path d="M 70.00,70.96L 88.06,71.09L 106.13,73.92L 124.19,80.63L 142.26,88.10L 160.32,97.61L 178.39,110.08L 196.45,122.79L 214.52,136.10L 232.58,149.43L 250.65,162.28L 268.71,174.97L 286.77,188.49L 304.84,200.91L 322.90,212.15L 340.97,222.23L 359.03,230.69L 377.10,238.15L 395.16,244.71L 413.23,250.46L 431.29,255.42L 449.35,259.49L 467.42,262.79L 485.48,265.44L 503.55,267.08L 521.61,268.17L 539.68,268.79L 557.74,269.23L 575.81,269.44L 593.87,269.58L 611.94,269.68" id="Petrol" class="line" stroke="#FFC300" stroke-width="3" stroke-linecap="round"><title>Petrol</title></path>
	<circle cx="70.00" cy="70.96" data-y="18.425" data-x="2020" r="4" fill="#FFC300"><title>2020: 18.425</title></circle>
	<circle cx="88.06" cy="71.09" data-y="18.413" data-x="2021" r="4" fill="#FFC300"><title>2021: 18.413</title></circle>
	<circle cx="106.13" cy="73.92" data-y="18.151" data-x="2022" r="4" fill="#FFC300"><title>2022: 18.151</title></circle>
	<circle cx="124.19" cy="80.63" data-y="17.530" data-x="2023" r="4" fill="#FFC300"><title>2023: 17.530</title></circle>
	<circle cx="142.26" cy="88.10" data-y="16.838" data-x="2024" r="4" fill="#FFC300"><title>2024: 16.838</title></circle>
	<circle cx="160.32" cy="97.61" data-y="15.958" data-x="2025" r="4" fill="#FFC300"><title>2025: 15.958</title></circle>
	<circle cx="178.39" cy="110.08" data-y="14.804" data-x="2026" r="4" fill="#FFC300"><title>2026: 14.804</title></circle>
	<circle cx="196.45" cy="122.79" data-y="13.627" data-x="2027" r="4" fill="#FFC300"><title>2027: 13.627</title></circle>
	<circle cx="214.52" cy="136.10" data-y="12.395" data-x="2028" r="4" fill="#FFC300"><title>2028: 12.395</title></circle>
	<circle cx="232.58" cy="149.43" data-y="11.161" data-x="2029" r="4" fill="#FFC300"><title>2029: 11.161</title></circle>
	<circle cx="250.65" cy="162.28" data-y="9.972" data-x="2030" r="4" fill="#FFC300"><title>2030: 9.972</title></circle>
	<circle cx="268.71" cy="174.97" data-y="8.797" data-x="2031" r="4" fill="#FFC300"><title>2031: 8.797</title></circle>
	<circle cx="286.77" cy="188.49" data-y="7.545" data-x="2032" r="4" fill="#FFC300"><title>2032: 7.545</title></circle>
	<circle cx="304.84" cy="200.91" data-y="6.396" data-x="2033" r="4" fill="#FFC300"><title>2033: 6.396</title></circle>
	<circle cx="322.90" cy="212.15" data-y="5.355" data-x="2034" r="4" fill="#FFC300"><title>2034: 5.355</title></circle>
	<circle cx="340.97" cy="222.23" data-y="4.422" data-x="2035" r="4" fill="#FFC300"><title>2035: 4.422</title></circle>
	<circle cx="359.03" cy="230.69" data-y="3.639" data-x="2036" r="4" fill="#FFC300"><title>2036: 3.639</title></circle>
	<circle cx="377.10" cy="238.15" data-y="2.948" data-x="2037" r="4" fill="#FFC300"><title>2037: 2.948</title></circle>
	<circle cx="395.16" cy="244.71" data-y="2.341" data-x="2038" r="4" fill="#FFC300"><title>2038: 2.341</title></circle>
	<circle cx="413.23" cy="250.46" data-y="1.809" data-x="2039" r="4" fill="#FFC300"><title>2039: 1.809</title></circle>
	<circle cx="431.29" cy="255.42" data-y="1.350" data-x="2040" r="4" fill="#FFC300"><title>2040: 1.350</title></circle>
	<circle cx="449.35" cy="259.49" data-y="0.973" data-x="2041" r="4" fill="#FFC300"><title>2041: 0.973</title></circle>
	<circle cx="467.42" cy="262.79" data-y="0.667" data-x="2042" r="4" fill="#FFC300"><title>2042: 0.667</title></circle>
	<circle cx="485.48" cy="265.44" data-y="0.422" data-x="2043" r="4" fill="#FFC300"><title>2043: 0.422</title></circle>
	<circle cx="503.55" cy="267.08" data-y="0.270" data-x="2044" r="4" fill="#FFC300"><title>2044: 0.270</title></circle>
	<circle cx="521.61" cy="268.17" data-y="0.169" data-x="2045" r="4" fill="#FFC300"><title>2045: 0.169</title></circle>
	<circle cx="539.68" cy="268.79" data-y="0.112" data-x="2046" r="4" fill="#FFC300"><title>2046: 0.112</title></circle>
	<circle cx="557.74" cy="269.23" data-y="0.071" data-x="2047" r="4" fill="#FFC300"><title>2047: 0.071</title></circle>
	<circle cx="575.81" cy="269.44" data-y="0.052" data-x="2048" r="4" fill="#FFC300"><title>2048: 0.052</title></circle>
	<circle cx="593.87" cy="269.58" data-y="0.039" data-x="2049" r="4" fill="#FFC300"><title>2049: 0.039</title></circle>
	<circle cx="611.94" cy="269.68" data-y="0.030" data-x="2050" r="4" fill="#FFC300"><title>2050: 0.030</title></circle>
</g>
<g data-scenario="electricity" class="data-series">	<path d="M 70.00,209.68L 88.06,211.31L 106.13,212.38L 124.19,217.63L 142.26,216.90L 160.32,220.29L 178.39,232.24L 196.45,238.93L 214.52,242.29L 232.58,244.18L 250.65,248.56L 268.71,252.05L 286.77,256.64L 304.84,259.60L 322.90,261.92L 340.97,264.02L 359.03,264.19L 377.10,264.53L 395.16,264.65L 413.23,264.90L 431.29,265.25L 449.35,266.69L 467.42,266.95L 485.48,267.12L 503.55,267.21L 521.61,268.13L 539.68,268.29L 557.74,268.64L 575.81,268.64L 593.87,268.84L 611.94,268.87" id="Electricity" class="line" stroke="#cc0935" stroke-width="3" stroke-linecap="round"><title>Electricity</title></path>
	<circle cx="70.00" cy="209.68" data-y="5.584" data-x="2020" r="4" fill="#cc0935"><title>2020: 5.584</title></circle>
	<circle cx="88.06" cy="211.31" data-y="5.433" data-x="2021" r="4" fill="#cc0935"><title>2021: 5.433</title></circle>
	<circle cx="106.13" cy="212.38" data-y="5.334" data-x="2022" r="4" fill="#cc0935"><title>2022: 5.334</title></circle>
	<circle cx="124.19" cy="217.63" data-y="4.848" data-x="2023" r="4" fill="#cc0935"><title>2023: 4.848</title></circle>
	<circle cx="142.26" cy="216.90" data-y="4.915" data-x="2024" r="4" fill="#cc0935"><title>2024: 4.915</title></circle>
	<circle cx="160.32" cy="220.29" data-y="4.602" data-x="2025" r="4" fill="#cc0935"><title>2025: 4.602</title></circle>
	<circle cx="178.39" cy="232.24" data-y="3.495" data-x="2026" r="4" fill="#cc0935"><title>2026: 3.495</title></circle>
	<circle cx="196.45" cy="238.93" data-y="2.876" data-x="2027" r="4" fill="#cc0935"><title>2027: 2.876</title></circle>
	<circle cx="214.52" cy="242.29" data-y="2.565" data-x="2028" r="4" fill="#cc0935"><title>2028: 2.565</title></circle>
	<circle cx="232.58" cy="244.18" data-y="2.390" data-x="2029" r="4" fill="#cc0935"><title>2029: 2.390</title></circle>
	<circle cx="250.65" cy="248.56" data-y="1.985" data-x="2030" r="4" fill="#cc0935"><title>2030: 1.985</title></circle>
	<circle cx="268.71" cy="252.05" data-y="1.662" data-x="2031" r="4" fill="#cc0935"><title>2031: 1.662</title></circle>
	<circle cx="286.77" cy="256.64" data-y="1.237" data-x="2032" r="4" fill="#cc0935"><title>2032: 1.237</title></circle>
	<circle cx="304.84" cy="259.60" data-y="0.963" data-x="2033" r="4" fill="#cc0935"><title>2033: 0.963</title></circle>
	<circle cx="322.90" cy="261.92" data-y="0.748" data-x="2034" r="4" fill="#cc0935"><title>2034: 0.748</title></circle>
	<circle cx="340.97" cy="264.02" data-y="0.554" data-x="2035" r="4" fill="#cc0935"><title>2035: 0.554</title></circle>
	<circle cx="359.03" cy="264.19" data-y="0.538" data-x="2036" r="4" fill="#cc0935"><title>2036: 0.538</title></circle>
	<circle cx="377.10" cy="264.53" data-y="0.506" data-x="2037" r="4" fill="#cc0935"><title>2037: 0.506</title></circle>
	<circle cx="395.16" cy="264.65" data-y="0.495" data-x="2038" r="4" fill="#cc0935"><title>2038: 0.495</title></circle>
	<circle cx="413.23" cy="264.90" data-y="0.472" data-x="2039" r="4" fill="#cc0935"><title>2039: 0.472</title></circle>
	<circle cx="431.29" cy="265.25" data-y="0.440" data-x="2040" r="4" fill="#cc0935"><title>2040: 0.440</title></circle>
	<circle cx="449.35" cy="266.69" data-y="0.306" data-x="2041" r="4" fill="#cc0935"><title>2041: 0.306</title></circle>
	<circle cx="467.42" cy="266.95" data-y="0.282" data-x="2042" r="4" fill="#cc0935"><title>2042: 0.282</title></circle>
	<circle cx="485.48" cy="267.12" data-y="0.267" data-x="2043" r="4" fill="#cc0935"><title>2043: 0.267</title></circle>
	<circle cx="503.55" cy="267.21" data-y="0.258" data-x="2044" r="4" fill="#cc0935"><title>2044: 0.258</title></circle>
	<circle cx="521.61" cy="268.13" data-y="0.173" data-x="2045" r="4" fill="#cc0935"><title>2045: 0.173</title></circle>
	<circle cx="539.68" cy="268.29" data-y="0.158" data-x="2046" r="4" fill="#cc0935"><title>2046: 0.158</title></circle>
	<circle cx="557.74" cy="268.64" data-y="0.126" data-x="2047" r="4" fill="#cc0935"><title>2047: 0.126</title></circle>
	<circle cx="575.81" cy="268.64" data-y="0.126" data-x="2048" r="4" fill="#cc0935"><title>2048: 0.126</title></circle>
	<circle cx="593.87" cy="268.84" data-y="0.107" data-x="2049" r="4" fill="#cc0935"><title>2049: 0.107</title></circle>
	<circle cx="611.94" cy="268.87" data-y="0.105" data-x="2050" r="4" fill="#cc0935"><title>2050: 0.105</title></circle>
</g>
<g data-scenario="total-emissions" class="data-series">	<path d="M 70.00,10.00L 88.06,11.77L 106.13,15.70L 124.19,27.67L 142.26,34.46L 160.32,47.36L 178.39,71.82L 196.45,91.26L 214.52,107.96L 232.58,123.21L 250.65,140.41L 268.71,156.60L 286.77,174.72L 304.84,190.09L 322.90,203.66L 340.97,215.84L 359.03,224.46L 377.10,232.27L 395.16,238.94L 413.23,244.92L 431.29,250.21L 449.35,255.66L 467.42,259.18L 485.48,261.95L 503.55,263.66L 521.61,265.64L 539.68,266.38L 557.74,267.16L 575.81,267.35L 593.87,267.69L 611.94,267.81" id="Total Emissions" class="line" stroke="#000000" stroke-width="3" stroke-linecap="round"><title>Total Emissions</title></path>
	<circle cx="70.00" cy="10.00" data-y="24.068" data-x="2020" r="4" fill="#000000"><title>2020: 24.068</title></circle>
	<circle cx="88.06" cy="11.77" data-y="23.904" data-x="2021" r="4" fill="#000000"><title>2021: 23.904</title></circle>
	<circle cx="106.13" cy="15.70" data-y="23.540" data-x="2022" r="4" fill="#000000"><title>2022: 23.540</title></circle>
	<circle cx="124.19" cy="27.67" data-y="22.432" data-x="2023" r="4" fill="#000000"><title>2023: 22.432</title></circle>
	<circle cx="142.26" cy="34.46" data-y="21.804" data-x="2024" r="4" fill="#000000"><title>2024: 21.804</title></circle>
	<circle cx="160.32" cy="47.36" data-y="20.610" data-x="2025" r="4" fill="#000000"><title>2025: 20.610</title></circle>
	<circle cx="178.39" cy="71.82" data-y="18.345" data-x="2026" r="4" fill="#000000"><title>2026: 18.345</title></circle>
	<circle cx="196.45" cy="91.26" data-y="16.546" data-x="2027" r="4" fill="#000000"><title>2027: 16.546</title></circle>
	<circle cx="214.52" cy="107.96" data-y="15.000" data-x="2028" r="4" fill="#000000"><title>2028: 15.000</title></circle>
	<circle cx="232.58" cy="123.21" data-y="13.588" data-x="2029" r="4" fill="#000000"><title>2029: 13.588</title></circle>
	<circle cx="250.65" cy="140.41" data-y="11.996" data-x="2030" r="4" fill="#000000"><title>2030: 11.996</title></circle>
	<circle cx="268.71" cy="156.60" data-y="10.497" data-x="2031" r="4" fill="#000000"><title>2031: 10.497</title></circle>
	<circle cx="286.77" cy="174.72" data-y="8.820" data-x="2032" r="4" fill="#000000"><title>2032: 8.820</title></circle>
	<circle cx="304.84" cy="190.09" data-y="7.397" data-x="2033" r="4" fill="#000000"><title>2033: 7.397</title></circle>
	<circle cx="322.90" cy="203.66" data-y="6.141" data-x="2034" r="4" fill="#000000"><title>2034: 6.141</title></circle>
	<circle cx="340.97" cy="215.84" data-y="5.014" data-x="2035" r="4" fill="#000000"><title>2035: 5.014</title></circle>
	<circle cx="359.03" cy="224.46" data-y="4.216" data-x="2036" r="4" fill="#000000"><title>2036: 4.216</title></circle>
	<circle cx="377.10" cy="232.27" data-y="3.493" data-x="2037" r="4" fill="#000000"><title>2037: 3.493</title></circle>
	<circle cx="395.16" cy="238.94" data-y="2.875" data-x="2038" r="4" fill="#000000"><title>2038: 2.875</title></circle>
	<circle cx="413.23" cy="244.92" data-y="2.322" data-x="2039" r="4" fill="#000000"><title>2039: 2.322</title></circle>
	<circle cx="431.29" cy="250.21" data-y="1.832" data-x="2040" r="4" fill="#000000"><title>2040: 1.832</title></circle>
	<circle cx="449.35" cy="255.66" data-y="1.327" data-x="2041" r="4" fill="#000000"><title>2041: 1.327</title></circle>
	<circle cx="467.42" cy="259.18" data-y="1.002" data-x="2042" r="4" fill="#000000"><title>2042: 1.002</title></circle>
	<circle cx="485.48" cy="261.95" data-y="0.745" data-x="2043" r="4" fill="#000000"><title>2043: 0.745</title></circle>
	<circle cx="503.55" cy="263.66" data-y="0.587" data-x="2044" r="4" fill="#000000"><title>2044: 0.587</title></circle>
	<circle cx="521.61" cy="265.64" data-y="0.404" data-x="2045" r="4" fill="#000000"><title>2045: 0.404</title></circle>
	<circle cx="539.68" cy="266.38" data-y="0.335" data-x="2046" r="4" fill="#000000"><title>2046: 0.335</title></circle>
	<circle cx="557.74" cy="267.16" data-y="0.263" data-x="2047" r="4" fill="#000000"><title>2047: 0.263</title></circle>
	<circle cx="575.81" cy="267.35" data-y="0.245" data-x="2048" r="4" fill="#000000"><title>2048: 0.245</title></circle>
	<circle cx="593.87" cy="267.69" data-y="0.214" data-x="2049" r="4" fill="#000000"><title>2049: 0.214</title></circle>
	<circle cx="611.94" cy="267.81" data-y="0.203" data-x="2050" r="4" fill="#000000"><title>2050: 0.203</title></circle>
</g>
</svg>
