<svg width="640" height="320" viewBox="0 0 640 320" xmlns="http://www.w3.org/2000/svg" style="overflow:display" preserveAspectRatio="xMinYMin meet" overflow="visible">
<defs>
	<style>
	.data-series path.line { fill-opacity: 0; }
	.data-series path.line.dotted { stroke-dasharray: 12 20 }
	.data-series circle { display: none; }
	.data-series:hover path.line, .data-series.on path.line { stroke-width: 5; }
	.data-series:hover circle, .data-series.on circle { display: inline; }
	.data-series circle:hover, .data-series circle.on { r: 6px!important; fill: black; }
	.grid { font-family: "Helvetica Neue",Helvetica,Arial,"Lucida Grande",sans-serif; }
	.grid line { stroke: rgb(0,0,0); stroke-width: 2; stroke-linecap: round; }
	.grid.grid-x text { text-anchor: middle; dominant-baseline: hanging; transform: translateY(10px); }
	.grid.grid-y text { text-anchor: end; dominant-baseline: middle; transform: translateX(-10px); }
	</style>
</defs>
<g class="grid grid-y">
	<line x1="70" y1="270" x2="630" y2="270" data-left="70"></line>
	<text x="70" y="270" text-anchor="end">0</text>
	<text x="70" y="218" text-anchor="end">20</text>
	<text x="70" y="166" text-anchor="end">40</text>
	<text x="70" y="114" text-anchor="end">60</text>
	<text x="70" y="62" text-anchor="end">80</text>
	<text x="70" y="10" text-anchor="end">100</text>
	<text style="text-anchor:middle;dominant-baseline:hanging;font-weight:bold;transform: translateY(140px) rotate(-90deg);">EVs (%)</text>
</g>
<g class="grid grid-x">
	<line class="tick" x1="70" y1="270" x2="70" y2="275"></line>
	<text x="70" y="270" text-anchor="middle">2020</text>
	<line class="tick" x1="250.645161290323" y1="270" x2="250.645161290323" y2="275"></line>
	<text x="250.645161290323" y="270" text-anchor="middle">2030</text>
	<line class="tick" x1="431.290322580645" y1="270" x2="431.290322580645" y2="275"></line>
	<text x="431.290322580645" y="270" text-anchor="middle">2040</text>
	<line class="tick" x1="611.935483870968" y1="270" x2="611.935483870968" y2="275"></line>
	<text x="611.935483870968" y="270" text-anchor="middle">2050</text>
	<text style="text-anchor:middle;dominant-baseline:hanging;font-weight:bold;transform: translateY(140px) rotate(-90deg);"></text>
</g>
<g data-scenario="planning-scenario" class="data-series">	<path d="M 70.00,267.92L 88.06,266.36L 106.13,263.50L 124.19,257.52L 142.26,249.72L 160.32,240.36L 178.39,229.96L 196.45,218.00L 214.52,204.48L 232.58,189.92L 250.65,171.20L 268.71,153.26L 286.77,136.10L 304.84,120.24L 322.90,105.68L 340.97,92.16L 359.03,79.94L 377.10,69.28L 395.16,59.92L 413.23,51.86L 431.29,45.10L 449.35,39.90L 467.42,35.48L 485.48,32.10L 503.55,29.76L 521.61,27.68L 539.68,26.38L 557.74,25.60L 575.81,24.82L 593.87,24.56L 611.94,24.30" id="NPg Planning Scenario" class="line" stroke="#ab1236" stroke-width="3" stroke-linecap="round"><title>NPg Planning Scenario</title></path>
	<circle cx="70.00" cy="267.92" data-y="0.8" data-x="2020" r="4" fill="#ab1236"><title>2020: 0.8</title></circle>
	<circle cx="88.06" cy="266.36" data-y="1.4" data-x="2021" r="4" fill="#ab1236"><title>2021: 1.4</title></circle>
	<circle cx="106.13" cy="263.50" data-y="2.5" data-x="2022" r="4" fill="#ab1236"><title>2022: 2.5</title></circle>
	<circle cx="124.19" cy="257.52" data-y="4.8" data-x="2023" r="4" fill="#ab1236"><title>2023: 4.8</title></circle>
	<circle cx="142.26" cy="249.72" data-y="7.8" data-x="2024" r="4" fill="#ab1236"><title>2024: 7.8</title></circle>
	<circle cx="160.32" cy="240.36" data-y="11.4" data-x="2025" r="4" fill="#ab1236"><title>2025: 11.4</title></circle>
	<circle cx="178.39" cy="229.96" data-y="15.4" data-x="2026" r="4" fill="#ab1236"><title>2026: 15.4</title></circle>
	<circle cx="196.45" cy="218.00" data-y="20" data-x="2027" r="4" fill="#ab1236"><title>2027: 20</title></circle>
	<circle cx="214.52" cy="204.48" data-y="25.2" data-x="2028" r="4" fill="#ab1236"><title>2028: 25.2</title></circle>
	<circle cx="232.58" cy="189.92" data-y="30.8" data-x="2029" r="4" fill="#ab1236"><title>2029: 30.8</title></circle>
	<circle cx="250.65" cy="171.20" data-y="38" data-x="2030" r="4" fill="#ab1236"><title>2030: 38</title></circle>
	<circle cx="268.71" cy="153.26" data-y="44.9" data-x="2031" r="4" fill="#ab1236"><title>2031: 44.9</title></circle>
	<circle cx="286.77" cy="136.10" data-y="51.5" data-x="2032" r="4" fill="#ab1236"><title>2032: 51.5</title></circle>
	<circle cx="304.84" cy="120.24" data-y="57.6" data-x="2033" r="4" fill="#ab1236"><title>2033: 57.6</title></circle>
	<circle cx="322.90" cy="105.68" data-y="63.2" data-x="2034" r="4" fill="#ab1236"><title>2034: 63.2</title></circle>
	<circle cx="340.97" cy="92.16" data-y="68.4" data-x="2035" r="4" fill="#ab1236"><title>2035: 68.4</title></circle>
	<circle cx="359.03" cy="79.94" data-y="73.1" data-x="2036" r="4" fill="#ab1236"><title>2036: 73.1</title></circle>
	<circle cx="377.10" cy="69.28" data-y="77.2" data-x="2037" r="4" fill="#ab1236"><title>2037: 77.2</title></circle>
	<circle cx="395.16" cy="59.92" data-y="80.8" data-x="2038" r="4" fill="#ab1236"><title>2038: 80.8</title></circle>
	<circle cx="413.23" cy="51.86" data-y="83.9" data-x="2039" r="4" fill="#ab1236"><title>2039: 83.9</title></circle>
	<circle cx="431.29" cy="45.10" data-y="86.5" data-x="2040" r="4" fill="#ab1236"><title>2040: 86.5</title></circle>
	<circle cx="449.35" cy="39.90" data-y="88.5" data-x="2041" r="4" fill="#ab1236"><title>2041: 88.5</title></circle>
	<circle cx="467.42" cy="35.48" data-y="90.2" data-x="2042" r="4" fill="#ab1236"><title>2042: 90.2</title></circle>
	<circle cx="485.48" cy="32.10" data-y="91.5" data-x="2043" r="4" fill="#ab1236"><title>2043: 91.5</title></circle>
	<circle cx="503.55" cy="29.76" data-y="92.4" data-x="2044" r="4" fill="#ab1236"><title>2044: 92.4</title></circle>
	<circle cx="521.61" cy="27.68" data-y="93.2" data-x="2045" r="4" fill="#ab1236"><title>2045: 93.2</title></circle>
	<circle cx="539.68" cy="26.38" data-y="93.7" data-x="2046" r="4" fill="#ab1236"><title>2046: 93.7</title></circle>
	<circle cx="557.74" cy="25.60" data-y="94" data-x="2047" r="4" fill="#ab1236"><title>2047: 94</title></circle>
	<circle cx="575.81" cy="24.82" data-y="94.3" data-x="2048" r="4" fill="#ab1236"><title>2048: 94.3</title></circle>
	<circle cx="593.87" cy="24.56" data-y="94.4" data-x="2049" r="4" fill="#ab1236"><title>2049: 94.4</title></circle>
	<circle cx="611.94" cy="24.30" data-y="94.5" data-x="2050" r="4" fill="#ab1236"><title>2050: 94.5</title></circle>
</g>
</svg>
