<svg width="640" height="320" viewBox="0 0 640 320" xmlns="http://www.w3.org/2000/svg" style="overflow:display" preserveAspectRatio="xMinYMin meet" overflow="visible">
<defs><style>.data-series path.line { fill-opacity: 0; }.data-series path.line.dotted { stroke-dasharray: 12 20 }.data-series circle { display: none; }.data-series:hover path.line, .data-series.on path.line { stroke-width: 5; }.data-series:hover circle, .data-series.on circle { display: inline; }.data-series circle:hover, .data-series circle.on { r: 6px!important; fill: black; }.grid { font-family: "Helvetica Neue",Helvetica,Arial,"Lucida Grande",sans-serif; }.grid line { stroke: rgb(0,0,0); stroke-width: 2; stroke-linecap: round; }.grid.grid-x text { text-anchor: middle; dominant-baseline: hanging; transform: translateY(10px); }.grid.grid-y text { text-anchor: end; dominant-baseline: middle; transform: translateX(-10px); }</style>
</defs><g class="grid grid-y"><line x1="80" y1="270" x2="630" y2="270" data-left="80"></line><text x="80" y="270" text-anchor="end">0</text><text x="80" y="194.963924963925" text-anchor="end">10</text><text x="80" y="119.92784992785" text-anchor="end">20</text><text x="80" y="44.8917748917749" text-anchor="end">30</text><text style="text-anchor:middle;dominant-baseline:hanging;font-weight:bold;transform: translateY(140px) rotate(-90deg);">Annual emissions (MtCO2)</text></g><g class="grid grid-x"><line class="tick" x1="80" y1="270" x2="80" y2="275"></line><text x="80" y="270" text-anchor="middle">2020</text><line class="tick" x1="257.41935483871" y1="270" x2="257.41935483871" y2="275"></line><text x="257.41935483871" y="270" text-anchor="middle">2030</text><line class="tick" x1="434.838709677419" y1="270" x2="434.838709677419" y2="275"></line><text x="434.838709677419" y="270" text-anchor="middle">2040</text><line class="tick" x1="612.258064516129" y1="270" x2="612.258064516129" y2="275"></line><text x="612.258064516129" y="270" text-anchor="middle">2050</text><text style="text-anchor:middle;dominant-baseline:hanging;font-weight:bold;transform: translateY(140px) rotate(-90deg);"></text></g><g data-scenario="" class="data-series"><path d="M 80.00,261.29L 97.74,261.40L 115.48,261.48L 133.23,261.76L 150.97,262.05L 168.71,262.65L 186.45,263.19L 204.19,263.67L 221.94,264.13L 239.68,264.59L 257.42,265.06L 275.16,265.51L 292.90,265.97L 310.65,266.38L 328.39,266.96L 346.13,267.36L 363.87,267.92L 381.61,268.51L 399.35,268.90L 417.10,269.26L 434.84,269.25L 452.58,269.23L 470.32,269.22L 488.06,269.23L 505.81,269.25L 523.55,269.26L 541.29,269.26L 559.03,269.29L 576.77,269.30L 594.52,269.30L 612.26,269.32" id="Heating oil" class="line" stroke="#cc0935" stroke-width="3" stroke-linecap="round"><title>Heating oil</title></path>
<circle cx="80.00" cy="261.29" data-y="1.161" data-x="2020" r="4" fill="#cc0935"><title>2020: 1.161</title></circle>
<circle cx="97.74" cy="261.40" data-y="1.146" data-x="2021" r="4" fill="#cc0935"><title>2021: 1.146</title></circle>
<circle cx="115.48" cy="261.48" data-y="1.135" data-x="2022" r="4" fill="#cc0935"><title>2022: 1.135</title></circle>
<circle cx="133.23" cy="261.76" data-y="1.098" data-x="2023" r="4" fill="#cc0935"><title>2023: 1.098</title></circle>
<circle cx="150.97" cy="262.05" data-y="1.059" data-x="2024" r="4" fill="#cc0935"><title>2024: 1.059</title></circle>
<circle cx="168.71" cy="262.65" data-y="0.980" data-x="2025" r="4" fill="#cc0935"><title>2025: 0.980</title></circle>
<circle cx="186.45" cy="263.19" data-y="0.908" data-x="2026" r="4" fill="#cc0935"><title>2026: 0.908</title></circle>
<circle cx="204.19" cy="263.67" data-y="0.844" data-x="2027" r="4" fill="#cc0935"><title>2027: 0.844</title></circle>
<circle cx="221.94" cy="264.13" data-y="0.782" data-x="2028" r="4" fill="#cc0935"><title>2028: 0.782</title></circle>
<circle cx="239.68" cy="264.59" data-y="0.721" data-x="2029" r="4" fill="#cc0935"><title>2029: 0.721</title></circle>
<circle cx="257.42" cy="265.06" data-y="0.659" data-x="2030" r="4" fill="#cc0935"><title>2030: 0.659</title></circle>
<circle cx="275.16" cy="265.51" data-y="0.598" data-x="2031" r="4" fill="#cc0935"><title>2031: 0.598</title></circle>
<circle cx="292.90" cy="265.97" data-y="0.537" data-x="2032" r="4" fill="#cc0935"><title>2032: 0.537</title></circle>
<circle cx="310.65" cy="266.38" data-y="0.483" data-x="2033" r="4" fill="#cc0935"><title>2033: 0.483</title></circle>
<circle cx="328.39" cy="266.96" data-y="0.405" data-x="2034" r="4" fill="#cc0935"><title>2034: 0.405</title></circle>
<circle cx="346.13" cy="267.36" data-y="0.352" data-x="2035" r="4" fill="#cc0935"><title>2035: 0.352</title></circle>
<circle cx="363.87" cy="267.92" data-y="0.277" data-x="2036" r="4" fill="#cc0935"><title>2036: 0.277</title></circle>
<circle cx="381.61" cy="268.51" data-y="0.199" data-x="2037" r="4" fill="#cc0935"><title>2037: 0.199</title></circle>
<circle cx="399.35" cy="268.90" data-y="0.147" data-x="2038" r="4" fill="#cc0935"><title>2038: 0.147</title></circle>
<circle cx="417.10" cy="269.26" data-y="0.098" data-x="2039" r="4" fill="#cc0935"><title>2039: 0.098</title></circle>
<circle cx="434.84" cy="269.25" data-y="0.100" data-x="2040" r="4" fill="#cc0935"><title>2040: 0.100</title></circle>
<circle cx="452.58" cy="269.23" data-y="0.102" data-x="2041" r="4" fill="#cc0935"><title>2041: 0.102</title></circle>
<circle cx="470.32" cy="269.22" data-y="0.104" data-x="2042" r="4" fill="#cc0935"><title>2042: 0.104</title></circle>
<circle cx="488.06" cy="269.23" data-y="0.102" data-x="2043" r="4" fill="#cc0935"><title>2043: 0.102</title></circle>
<circle cx="505.81" cy="269.25" data-y="0.100" data-x="2044" r="4" fill="#cc0935"><title>2044: 0.100</title></circle>
<circle cx="523.55" cy="269.26" data-y="0.099" data-x="2045" r="4" fill="#cc0935"><title>2045: 0.099</title></circle>
<circle cx="541.29" cy="269.26" data-y="0.098" data-x="2046" r="4" fill="#cc0935"><title>2046: 0.098</title></circle>
<circle cx="559.03" cy="269.29" data-y="0.095" data-x="2047" r="4" fill="#cc0935"><title>2047: 0.095</title></circle>
<circle cx="576.77" cy="269.30" data-y="0.093" data-x="2048" r="4" fill="#cc0935"><title>2048: 0.093</title></circle>
<circle cx="594.52" cy="269.30" data-y="0.093" data-x="2049" r="4" fill="#cc0935"><title>2049: 0.093</title></circle>
<circle cx="612.26" cy="269.32" data-y="0.090" data-x="2050" r="4" fill="#cc0935"><title>2050: 0.090</title></circle>
</g>
<g data-scenario="" class="data-series"><path d="M 80.00,167.78L 97.74,169.12L 115.48,170.49L 133.23,171.94L 150.97,173.23L 168.71,174.81L 186.45,176.30L 204.19,177.75L 221.94,179.16L 239.68,180.53L 257.42,187.33L 275.16,194.12L 292.90,200.70L 310.65,207.28L 328.39,213.83L 346.13,220.28L 363.87,232.05L 381.61,242.56L 399.35,251.83L 417.10,259.95L 434.84,266.30L 452.58,270.00L 470.32,270.00L 488.06,270.00L 505.81,270.00L 523.55,270.00L 541.29,270.00L 559.03,270.00L 576.77,270.00L 594.52,270.00L 612.26,270.00" id="Natural gas" class="line" stroke="#cc0935" stroke-width="3" stroke-linecap="round"><title>Natural gas</title></path>
<circle cx="80.00" cy="167.78" data-y="13.623" data-x="2020" r="4" fill="#cc0935"><title>2020: 13.623</title></circle>
<circle cx="97.74" cy="169.12" data-y="13.444" data-x="2021" r="4" fill="#cc0935"><title>2021: 13.444</title></circle>
<circle cx="115.48" cy="170.49" data-y="13.261" data-x="2022" r="4" fill="#cc0935"><title>2022: 13.261</title></circle>
<circle cx="133.23" cy="171.94" data-y="13.069" data-x="2023" r="4" fill="#cc0935"><title>2023: 13.069</title></circle>
<circle cx="150.97" cy="173.23" data-y="12.897" data-x="2024" r="4" fill="#cc0935"><title>2024: 12.897</title></circle>
<circle cx="168.71" cy="174.81" data-y="12.686" data-x="2025" r="4" fill="#cc0935"><title>2025: 12.686</title></circle>
<circle cx="186.45" cy="176.30" data-y="12.487" data-x="2026" r="4" fill="#cc0935"><title>2026: 12.487</title></circle>
<circle cx="204.19" cy="177.75" data-y="12.294" data-x="2027" r="4" fill="#cc0935"><title>2027: 12.294</title></circle>
<circle cx="221.94" cy="179.16" data-y="12.106" data-x="2028" r="4" fill="#cc0935"><title>2028: 12.106</title></circle>
<circle cx="239.68" cy="180.53" data-y="11.923" data-x="2029" r="4" fill="#cc0935"><title>2029: 11.923</title></circle>
<circle cx="257.42" cy="187.33" data-y="11.018" data-x="2030" r="4" fill="#cc0935"><title>2030: 11.018</title></circle>
<circle cx="275.16" cy="194.12" data-y="10.113" data-x="2031" r="4" fill="#cc0935"><title>2031: 10.113</title></circle>
<circle cx="292.90" cy="200.70" data-y="9.235" data-x="2032" r="4" fill="#cc0935"><title>2032: 9.235</title></circle>
<circle cx="310.65" cy="207.28" data-y="8.358" data-x="2033" r="4" fill="#cc0935"><title>2033: 8.358</title></circle>
<circle cx="328.39" cy="213.83" data-y="7.486" data-x="2034" r="4" fill="#cc0935"><title>2034: 7.486</title></circle>
<circle cx="346.13" cy="220.28" data-y="6.626" data-x="2035" r="4" fill="#cc0935"><title>2035: 6.626</title></circle>
<circle cx="363.87" cy="232.05" data-y="5.058" data-x="2036" r="4" fill="#cc0935"><title>2036: 5.058</title></circle>
<circle cx="381.61" cy="242.56" data-y="3.657" data-x="2037" r="4" fill="#cc0935"><title>2037: 3.657</title></circle>
<circle cx="399.35" cy="251.83" data-y="2.421" data-x="2038" r="4" fill="#cc0935"><title>2038: 2.421</title></circle>
<circle cx="417.10" cy="259.95" data-y="1.339" data-x="2039" r="4" fill="#cc0935"><title>2039: 1.339</title></circle>
<circle cx="434.84" cy="266.30" data-y="0.493" data-x="2040" r="4" fill="#cc0935"><title>2040: 0.493</title></circle>
<circle cx="452.58" cy="270.00" data-y="0.000" data-x="2041" r="4" fill="#cc0935"><title>2041: 0.000</title></circle>
<circle cx="470.32" cy="270.00" data-y="0.000" data-x="2042" r="4" fill="#cc0935"><title>2042: 0.000</title></circle>
<circle cx="488.06" cy="270.00" data-y="0.000" data-x="2043" r="4" fill="#cc0935"><title>2043: 0.000</title></circle>
<circle cx="505.81" cy="270.00" data-y="0.000" data-x="2044" r="4" fill="#cc0935"><title>2044: 0.000</title></circle>
<circle cx="523.55" cy="270.00" data-y="0.000" data-x="2045" r="4" fill="#cc0935"><title>2045: 0.000</title></circle>
<circle cx="541.29" cy="270.00" data-y="0.000" data-x="2046" r="4" fill="#cc0935"><title>2046: 0.000</title></circle>
<circle cx="559.03" cy="270.00" data-y="0.000" data-x="2047" r="4" fill="#cc0935"><title>2047: 0.000</title></circle>
<circle cx="576.77" cy="270.00" data-y="0.000" data-x="2048" r="4" fill="#cc0935"><title>2048: 0.000</title></circle>
<circle cx="594.52" cy="270.00" data-y="0.000" data-x="2049" r="4" fill="#cc0935"><title>2049: 0.000</title></circle>
<circle cx="612.26" cy="270.00" data-y="0.000" data-x="2050" r="4" fill="#cc0935"><title>2050: 0.000</title></circle>
</g>
<g data-scenario="" class="data-series"><path d="M 80.00,270.00L 97.74,269.99L 115.48,269.99L 133.23,269.99L 150.97,269.99L 168.71,269.99L 186.45,269.99L 204.19,269.99L 221.94,269.99L 239.68,269.99L 257.42,269.97L 275.16,269.95L 292.90,269.95L 310.65,269.94L 328.39,269.94L 346.13,269.94L 363.87,269.26L 381.61,268.83L 399.35,268.59L 417.10,268.51L 434.84,268.57L 452.58,268.57L 470.32,268.66L 488.06,268.85L 505.81,269.13L 523.55,269.06L 541.29,269.08L 559.03,269.11L 576.77,269.13L 594.52,269.15L 612.26,269.17" id="Hydrogen" class="line" stroke="#cc0935" stroke-width="3" stroke-linecap="round"><title>Hydrogen</title></path>
<circle cx="80.00" cy="270.00" data-y="0.000" data-x="2020" r="4" fill="#cc0935"><title>2020: 0.000</title></circle>
<circle cx="97.74" cy="269.99" data-y="0.001" data-x="2021" r="4" fill="#cc0935"><title>2021: 0.001</title></circle>
<circle cx="115.48" cy="269.99" data-y="0.001" data-x="2022" r="4" fill="#cc0935"><title>2022: 0.001</title></circle>
<circle cx="133.23" cy="269.99" data-y="0.001" data-x="2023" r="4" fill="#cc0935"><title>2023: 0.001</title></circle>
<circle cx="150.97" cy="269.99" data-y="0.001" data-x="2024" r="4" fill="#cc0935"><title>2024: 0.001</title></circle>
<circle cx="168.71" cy="269.99" data-y="0.001" data-x="2025" r="4" fill="#cc0935"><title>2025: 0.001</title></circle>
<circle cx="186.45" cy="269.99" data-y="0.001" data-x="2026" r="4" fill="#cc0935"><title>2026: 0.001</title></circle>
<circle cx="204.19" cy="269.99" data-y="0.001" data-x="2027" r="4" fill="#cc0935"><title>2027: 0.001</title></circle>
<circle cx="221.94" cy="269.99" data-y="0.001" data-x="2028" r="4" fill="#cc0935"><title>2028: 0.001</title></circle>
<circle cx="239.68" cy="269.99" data-y="0.001" data-x="2029" r="4" fill="#cc0935"><title>2029: 0.001</title></circle>
<circle cx="257.42" cy="269.97" data-y="0.004" data-x="2030" r="4" fill="#cc0935"><title>2030: 0.004</title></circle>
<circle cx="275.16" cy="269.95" data-y="0.006" data-x="2031" r="4" fill="#cc0935"><title>2031: 0.006</title></circle>
<circle cx="292.90" cy="269.95" data-y="0.007" data-x="2032" r="4" fill="#cc0935"><title>2032: 0.007</title></circle>
<circle cx="310.65" cy="269.94" data-y="0.008" data-x="2033" r="4" fill="#cc0935"><title>2033: 0.008</title></circle>
<circle cx="328.39" cy="269.94" data-y="0.008" data-x="2034" r="4" fill="#cc0935"><title>2034: 0.008</title></circle>
<circle cx="346.13" cy="269.94" data-y="0.008" data-x="2035" r="4" fill="#cc0935"><title>2035: 0.008</title></circle>
<circle cx="363.87" cy="269.26" data-y="0.098" data-x="2036" r="4" fill="#cc0935"><title>2036: 0.098</title></circle>
<circle cx="381.61" cy="268.83" data-y="0.156" data-x="2037" r="4" fill="#cc0935"><title>2037: 0.156</title></circle>
<circle cx="399.35" cy="268.59" data-y="0.188" data-x="2038" r="4" fill="#cc0935"><title>2038: 0.188</title></circle>
<circle cx="417.10" cy="268.51" data-y="0.198" data-x="2039" r="4" fill="#cc0935"><title>2039: 0.198</title></circle>
<circle cx="434.84" cy="268.57" data-y="0.191" data-x="2040" r="4" fill="#cc0935"><title>2040: 0.191</title></circle>
<circle cx="452.58" cy="268.57" data-y="0.191" data-x="2041" r="4" fill="#cc0935"><title>2041: 0.191</title></circle>
<circle cx="470.32" cy="268.66" data-y="0.178" data-x="2042" r="4" fill="#cc0935"><title>2042: 0.178</title></circle>
<circle cx="488.06" cy="268.85" data-y="0.153" data-x="2043" r="4" fill="#cc0935"><title>2043: 0.153</title></circle>
<circle cx="505.81" cy="269.13" data-y="0.116" data-x="2044" r="4" fill="#cc0935"><title>2044: 0.116</title></circle>
<circle cx="523.55" cy="269.06" data-y="0.125" data-x="2045" r="4" fill="#cc0935"><title>2045: 0.125</title></circle>
<circle cx="541.29" cy="269.08" data-y="0.123" data-x="2046" r="4" fill="#cc0935"><title>2046: 0.123</title></circle>
<circle cx="559.03" cy="269.11" data-y="0.119" data-x="2047" r="4" fill="#cc0935"><title>2047: 0.119</title></circle>
<circle cx="576.77" cy="269.13" data-y="0.116" data-x="2048" r="4" fill="#cc0935"><title>2048: 0.116</title></circle>
<circle cx="594.52" cy="269.15" data-y="0.113" data-x="2049" r="4" fill="#cc0935"><title>2049: 0.113</title></circle>
<circle cx="612.26" cy="269.17" data-y="0.110" data-x="2050" r="4" fill="#cc0935"><title>2050: 0.110</title></circle>
</g>
<g data-scenario="" class="data-series"><path d="M 80.00,269.83L 97.74,269.78L 115.48,269.74L 133.23,269.69L 150.97,269.65L 168.71,269.61L 186.45,269.56L 204.19,269.53L 221.94,269.50L 239.68,269.46L 257.42,269.41L 275.16,269.37L 292.90,269.32L 310.65,269.27L 328.39,269.22L 346.13,269.18L 363.87,269.13L 381.61,269.08L 399.35,269.02L 417.10,268.97L 434.84,268.97L 452.58,269.08L 470.32,269.41L 488.06,269.64L 505.81,269.80L 523.55,269.89L 541.29,269.89L 559.03,269.89L 576.77,269.90L 594.52,269.90L 612.26,269.91" id="Bioenergy" class="line" stroke="#cc0935" stroke-width="3" stroke-linecap="round"><title>Bioenergy</title></path>
<circle cx="80.00" cy="269.83" data-y="0.023" data-x="2020" r="4" fill="#cc0935"><title>2020: 0.023</title></circle>
<circle cx="97.74" cy="269.78" data-y="0.029" data-x="2021" r="4" fill="#cc0935"><title>2021: 0.029</title></circle>
<circle cx="115.48" cy="269.74" data-y="0.035" data-x="2022" r="4" fill="#cc0935"><title>2022: 0.035</title></circle>
<circle cx="133.23" cy="269.69" data-y="0.041" data-x="2023" r="4" fill="#cc0935"><title>2023: 0.041</title></circle>
<circle cx="150.97" cy="269.65" data-y="0.047" data-x="2024" r="4" fill="#cc0935"><title>2024: 0.047</title></circle>
<circle cx="168.71" cy="269.61" data-y="0.052" data-x="2025" r="4" fill="#cc0935"><title>2025: 0.052</title></circle>
<circle cx="186.45" cy="269.56" data-y="0.058" data-x="2026" r="4" fill="#cc0935"><title>2026: 0.058</title></circle>
<circle cx="204.19" cy="269.53" data-y="0.062" data-x="2027" r="4" fill="#cc0935"><title>2027: 0.062</title></circle>
<circle cx="221.94" cy="269.50" data-y="0.067" data-x="2028" r="4" fill="#cc0935"><title>2028: 0.067</title></circle>
<circle cx="239.68" cy="269.46" data-y="0.072" data-x="2029" r="4" fill="#cc0935"><title>2029: 0.072</title></circle>
<circle cx="257.42" cy="269.41" data-y="0.078" data-x="2030" r="4" fill="#cc0935"><title>2030: 0.078</title></circle>
<circle cx="275.16" cy="269.37" data-y="0.084" data-x="2031" r="4" fill="#cc0935"><title>2031: 0.084</title></circle>
<circle cx="292.90" cy="269.32" data-y="0.090" data-x="2032" r="4" fill="#cc0935"><title>2032: 0.090</title></circle>
<circle cx="310.65" cy="269.27" data-y="0.097" data-x="2033" r="4" fill="#cc0935"><title>2033: 0.097</title></circle>
<circle cx="328.39" cy="269.22" data-y="0.104" data-x="2034" r="4" fill="#cc0935"><title>2034: 0.104</title></circle>
<circle cx="346.13" cy="269.18" data-y="0.109" data-x="2035" r="4" fill="#cc0935"><title>2035: 0.109</title></circle>
<circle cx="363.87" cy="269.13" data-y="0.116" data-x="2036" r="4" fill="#cc0935"><title>2036: 0.116</title></circle>
<circle cx="381.61" cy="269.08" data-y="0.123" data-x="2037" r="4" fill="#cc0935"><title>2037: 0.123</title></circle>
<circle cx="399.35" cy="269.02" data-y="0.130" data-x="2038" r="4" fill="#cc0935"><title>2038: 0.130</title></circle>
<circle cx="417.10" cy="268.97" data-y="0.137" data-x="2039" r="4" fill="#cc0935"><title>2039: 0.137</title></circle>
<circle cx="434.84" cy="268.97" data-y="0.137" data-x="2040" r="4" fill="#cc0935"><title>2040: 0.137</title></circle>
<circle cx="452.58" cy="269.08" data-y="0.122" data-x="2041" r="4" fill="#cc0935"><title>2041: 0.122</title></circle>
<circle cx="470.32" cy="269.41" data-y="0.079" data-x="2042" r="4" fill="#cc0935"><title>2042: 0.079</title></circle>
<circle cx="488.06" cy="269.64" data-y="0.048" data-x="2043" r="4" fill="#cc0935"><title>2043: 0.048</title></circle>
<circle cx="505.81" cy="269.80" data-y="0.027" data-x="2044" r="4" fill="#cc0935"><title>2044: 0.027</title></circle>
<circle cx="523.55" cy="269.89" data-y="0.015" data-x="2045" r="4" fill="#cc0935"><title>2045: 0.015</title></circle>
<circle cx="541.29" cy="269.89" data-y="0.015" data-x="2046" r="4" fill="#cc0935"><title>2046: 0.015</title></circle>
<circle cx="559.03" cy="269.89" data-y="0.014" data-x="2047" r="4" fill="#cc0935"><title>2047: 0.014</title></circle>
<circle cx="576.77" cy="269.90" data-y="0.013" data-x="2048" r="4" fill="#cc0935"><title>2048: 0.013</title></circle>
<circle cx="594.52" cy="269.90" data-y="0.013" data-x="2049" r="4" fill="#cc0935"><title>2049: 0.013</title></circle>
<circle cx="612.26" cy="269.91" data-y="0.012" data-x="2050" r="4" fill="#cc0935"><title>2050: 0.012</title></circle>
</g>
<g data-scenario="" class="data-series"><path d="M 80.00,230.90L 97.74,231.03L 115.48,232.14L 133.23,234.79L 150.97,237.58L 168.71,240.56L 186.45,243.68L 204.19,246.48L 221.94,249.06L 239.68,251.53L 257.42,253.60L 275.16,255.71L 292.90,258.20L 310.65,260.37L 328.39,262.11L 346.13,263.60L 363.87,264.87L 381.61,265.94L 399.35,266.83L 417.10,267.55L 434.84,268.15L 452.58,268.62L 470.32,268.99L 488.06,269.28L 505.81,269.49L 523.55,269.65L 541.29,269.77L 559.03,269.84L 576.77,269.89L 594.52,269.93L 612.26,269.95" id="Petrol" class="line" stroke="#cc0935" stroke-width="3" stroke-linecap="round"><title>Petrol</title></path>
<circle cx="80.00" cy="230.90" data-y="5.211" data-x="2020" r="4" fill="#cc0935"><title>2020: 5.211</title></circle>
<circle cx="97.74" cy="231.03" data-y="5.193" data-x="2021" r="4" fill="#cc0935"><title>2021: 5.193</title></circle>
<circle cx="115.48" cy="232.14" data-y="5.045" data-x="2022" r="4" fill="#cc0935"><title>2022: 5.045</title></circle>
<circle cx="133.23" cy="234.79" data-y="4.693" data-x="2023" r="4" fill="#cc0935"><title>2023: 4.693</title></circle>
<circle cx="150.97" cy="237.58" data-y="4.321" data-x="2024" r="4" fill="#cc0935"><title>2024: 4.321</title></circle>
<circle cx="168.71" cy="240.56" data-y="3.924" data-x="2025" r="4" fill="#cc0935"><title>2025: 3.924</title></circle>
<circle cx="186.45" cy="243.68" data-y="3.507" data-x="2026" r="4" fill="#cc0935"><title>2026: 3.507</title></circle>
<circle cx="204.19" cy="246.48" data-y="3.135" data-x="2027" r="4" fill="#cc0935"><title>2027: 3.135</title></circle>
<circle cx="221.94" cy="249.06" data-y="2.791" data-x="2028" r="4" fill="#cc0935"><title>2028: 2.791</title></circle>
<circle cx="239.68" cy="251.53" data-y="2.461" data-x="2029" r="4" fill="#cc0935"><title>2029: 2.461</title></circle>
<circle cx="257.42" cy="253.60" data-y="2.185" data-x="2030" r="4" fill="#cc0935"><title>2030: 2.185</title></circle>
<circle cx="275.16" cy="255.71" data-y="1.904" data-x="2031" r="4" fill="#cc0935"><title>2031: 1.904</title></circle>
<circle cx="292.90" cy="258.20" data-y="1.573" data-x="2032" r="4" fill="#cc0935"><title>2032: 1.573</title></circle>
<circle cx="310.65" cy="260.37" data-y="1.284" data-x="2033" r="4" fill="#cc0935"><title>2033: 1.284</title></circle>
<circle cx="328.39" cy="262.11" data-y="1.051" data-x="2034" r="4" fill="#cc0935"><title>2034: 1.051</title></circle>
<circle cx="346.13" cy="263.60" data-y="0.853" data-x="2035" r="4" fill="#cc0935"><title>2035: 0.853</title></circle>
<circle cx="363.87" cy="264.87" data-y="0.684" data-x="2036" r="4" fill="#cc0935"><title>2036: 0.684</title></circle>
<circle cx="381.61" cy="265.94" data-y="0.541" data-x="2037" r="4" fill="#cc0935"><title>2037: 0.541</title></circle>
<circle cx="399.35" cy="266.83" data-y="0.423" data-x="2038" r="4" fill="#cc0935"><title>2038: 0.423</title></circle>
<circle cx="417.10" cy="267.55" data-y="0.326" data-x="2039" r="4" fill="#cc0935"><title>2039: 0.326</title></circle>
<circle cx="434.84" cy="268.15" data-y="0.247" data-x="2040" r="4" fill="#cc0935"><title>2040: 0.247</title></circle>
<circle cx="452.58" cy="268.62" data-y="0.184" data-x="2041" r="4" fill="#cc0935"><title>2041: 0.184</title></circle>
<circle cx="470.32" cy="268.99" data-y="0.134" data-x="2042" r="4" fill="#cc0935"><title>2042: 0.134</title></circle>
<circle cx="488.06" cy="269.28" data-y="0.096" data-x="2043" r="4" fill="#cc0935"><title>2043: 0.096</title></circle>
<circle cx="505.81" cy="269.49" data-y="0.068" data-x="2044" r="4" fill="#cc0935"><title>2044: 0.068</title></circle>
<circle cx="523.55" cy="269.65" data-y="0.046" data-x="2045" r="4" fill="#cc0935"><title>2045: 0.046</title></circle>
<circle cx="541.29" cy="269.77" data-y="0.031" data-x="2046" r="4" fill="#cc0935"><title>2046: 0.031</title></circle>
<circle cx="559.03" cy="269.84" data-y="0.021" data-x="2047" r="4" fill="#cc0935"><title>2047: 0.021</title></circle>
<circle cx="576.77" cy="269.89" data-y="0.014" data-x="2048" r="4" fill="#cc0935"><title>2048: 0.014</title></circle>
<circle cx="594.52" cy="269.93" data-y="0.009" data-x="2049" r="4" fill="#cc0935"><title>2049: 0.009</title></circle>
<circle cx="612.26" cy="269.95" data-y="0.006" data-x="2050" r="4" fill="#cc0935"><title>2050: 0.006</title></circle>
</g>
<g data-scenario="" class="data-series"><path d="M 80.00,185.46L 97.74,185.11L 115.48,185.44L 133.23,186.86L 150.97,188.66L 168.71,191.74L 186.45,196.54L 204.19,201.67L 221.94,207.38L 239.68,213.51L 257.42,219.71L 275.16,225.91L 292.90,232.26L 310.65,238.12L 328.39,243.57L 346.13,248.50L 363.87,252.53L 381.61,256.07L 399.35,259.17L 417.10,261.84L 434.84,264.11L 452.58,265.87L 470.32,267.25L 488.06,268.27L 505.81,268.99L 523.55,269.42L 541.29,269.64L 559.03,269.78L 576.77,269.86L 594.52,269.92L 612.26,269.95" id="Diesel" class="line" stroke="#cc0935" stroke-width="3" stroke-linecap="round"><title>Diesel</title></path>
<circle cx="80.00" cy="185.46" data-y="11.267" data-x="2020" r="4" fill="#cc0935"><title>2020: 11.267</title></circle>
<circle cx="97.74" cy="185.11" data-y="11.313" data-x="2021" r="4" fill="#cc0935"><title>2021: 11.313</title></circle>
<circle cx="115.48" cy="185.44" data-y="11.269" data-x="2022" r="4" fill="#cc0935"><title>2022: 11.269</title></circle>
<circle cx="133.23" cy="186.86" data-y="11.080" data-x="2023" r="4" fill="#cc0935"><title>2023: 11.080</title></circle>
<circle cx="150.97" cy="188.66" data-y="10.840" data-x="2024" r="4" fill="#cc0935"><title>2024: 10.840</title></circle>
<circle cx="168.71" cy="191.74" data-y="10.430" data-x="2025" r="4" fill="#cc0935"><title>2025: 10.430</title></circle>
<circle cx="186.45" cy="196.54" data-y="9.790" data-x="2026" r="4" fill="#cc0935"><title>2026: 9.790</title></circle>
<circle cx="204.19" cy="201.67" data-y="9.106" data-x="2027" r="4" fill="#cc0935"><title>2027: 9.106</title></circle>
<circle cx="221.94" cy="207.38" data-y="8.345" data-x="2028" r="4" fill="#cc0935"><title>2028: 8.345</title></circle>
<circle cx="239.68" cy="213.51" data-y="7.529" data-x="2029" r="4" fill="#cc0935"><title>2029: 7.529</title></circle>
<circle cx="257.42" cy="219.71" data-y="6.702" data-x="2030" r="4" fill="#cc0935"><title>2030: 6.702</title></circle>
<circle cx="275.16" cy="225.91" data-y="5.876" data-x="2031" r="4" fill="#cc0935"><title>2031: 5.876</title></circle>
<circle cx="292.90" cy="232.26" data-y="5.030" data-x="2032" r="4" fill="#cc0935"><title>2032: 5.030</title></circle>
<circle cx="310.65" cy="238.12" data-y="4.249" data-x="2033" r="4" fill="#cc0935"><title>2033: 4.249</title></circle>
<circle cx="328.39" cy="243.57" data-y="3.522" data-x="2034" r="4" fill="#cc0935"><title>2034: 3.522</title></circle>
<circle cx="346.13" cy="248.50" data-y="2.865" data-x="2035" r="4" fill="#cc0935"><title>2035: 2.865</title></circle>
<circle cx="363.87" cy="252.53" data-y="2.328" data-x="2036" r="4" fill="#cc0935"><title>2036: 2.328</title></circle>
<circle cx="381.61" cy="256.07" data-y="1.856" data-x="2037" r="4" fill="#cc0935"><title>2037: 1.856</title></circle>
<circle cx="399.35" cy="259.17" data-y="1.443" data-x="2038" r="4" fill="#cc0935"><title>2038: 1.443</title></circle>
<circle cx="417.10" cy="261.84" data-y="1.087" data-x="2039" r="4" fill="#cc0935"><title>2039: 1.087</title></circle>
<circle cx="434.84" cy="264.11" data-y="0.785" data-x="2040" r="4" fill="#cc0935"><title>2040: 0.785</title></circle>
<circle cx="452.58" cy="265.87" data-y="0.551" data-x="2041" r="4" fill="#cc0935"><title>2041: 0.551</title></circle>
<circle cx="470.32" cy="267.25" data-y="0.367" data-x="2042" r="4" fill="#cc0935"><title>2042: 0.367</title></circle>
<circle cx="488.06" cy="268.27" data-y="0.230" data-x="2043" r="4" fill="#cc0935"><title>2043: 0.230</title></circle>
<circle cx="505.81" cy="268.99" data-y="0.134" data-x="2044" r="4" fill="#cc0935"><title>2044: 0.134</title></circle>
<circle cx="523.55" cy="269.42" data-y="0.077" data-x="2045" r="4" fill="#cc0935"><title>2045: 0.077</title></circle>
<circle cx="541.29" cy="269.64" data-y="0.048" data-x="2046" r="4" fill="#cc0935"><title>2046: 0.048</title></circle>
<circle cx="559.03" cy="269.78" data-y="0.029" data-x="2047" r="4" fill="#cc0935"><title>2047: 0.029</title></circle>
<circle cx="576.77" cy="269.86" data-y="0.018" data-x="2048" r="4" fill="#cc0935"><title>2048: 0.018</title></circle>
<circle cx="594.52" cy="269.92" data-y="0.011" data-x="2049" r="4" fill="#cc0935"><title>2049: 0.011</title></circle>
<circle cx="612.26" cy="269.95" data-y="0.006" data-x="2050" r="4" fill="#cc0935"><title>2050: 0.006</title></circle>
</g>
<g data-scenario="" class="data-series"><path d="M 80.00,244.75L 97.74,252.79L 115.48,256.13L 133.23,257.36L 150.97,259.79L 168.71,261.16L 186.45,263.39L 204.19,264.36L 221.94,262.88L 239.68,263.60L 257.42,263.15L 275.16,263.85L 292.90,264.48L 310.65,265.06L 328.39,265.20L 346.13,265.60L 363.87,265.75L 381.61,265.90L 399.35,265.99L 417.10,266.14L 434.84,266.50L 452.58,266.30L 470.32,266.35L 488.06,266.26L 505.81,266.38L 523.55,266.44L 541.29,266.44L 559.03,266.80L 576.77,266.86L 594.52,267.16L 612.26,267.44" id="Electricity" class="line" stroke="#cc0935" stroke-width="3" stroke-linecap="round"><title>Electricity</title></path>
<circle cx="80.00" cy="244.75" data-y="3.365" data-x="2020" r="4" fill="#cc0935"><title>2020: 3.365</title></circle>
<circle cx="97.74" cy="252.79" data-y="2.293" data-x="2021" r="4" fill="#cc0935"><title>2021: 2.293</title></circle>
<circle cx="115.48" cy="256.13" data-y="1.849" data-x="2022" r="4" fill="#cc0935"><title>2022: 1.849</title></circle>
<circle cx="133.23" cy="257.36" data-y="1.684" data-x="2023" r="4" fill="#cc0935"><title>2023: 1.684</title></circle>
<circle cx="150.97" cy="259.79" data-y="1.361" data-x="2024" r="4" fill="#cc0935"><title>2024: 1.361</title></circle>
<circle cx="168.71" cy="261.16" data-y="1.178" data-x="2025" r="4" fill="#cc0935"><title>2025: 1.178</title></circle>
<circle cx="186.45" cy="263.39" data-y="0.881" data-x="2026" r="4" fill="#cc0935"><title>2026: 0.881</title></circle>
<circle cx="204.19" cy="264.36" data-y="0.752" data-x="2027" r="4" fill="#cc0935"><title>2027: 0.752</title></circle>
<circle cx="221.94" cy="262.88" data-y="0.949" data-x="2028" r="4" fill="#cc0935"><title>2028: 0.949</title></circle>
<circle cx="239.68" cy="263.60" data-y="0.853" data-x="2029" r="4" fill="#cc0935"><title>2029: 0.853</title></circle>
<circle cx="257.42" cy="263.15" data-y="0.913" data-x="2030" r="4" fill="#cc0935"><title>2030: 0.913</title></circle>
<circle cx="275.16" cy="263.85" data-y="0.819" data-x="2031" r="4" fill="#cc0935"><title>2031: 0.819</title></circle>
<circle cx="292.90" cy="264.48" data-y="0.735" data-x="2032" r="4" fill="#cc0935"><title>2032: 0.735</title></circle>
<circle cx="310.65" cy="265.06" data-y="0.659" data-x="2033" r="4" fill="#cc0935"><title>2033: 0.659</title></circle>
<circle cx="328.39" cy="265.20" data-y="0.640" data-x="2034" r="4" fill="#cc0935"><title>2034: 0.640</title></circle>
<circle cx="346.13" cy="265.60" data-y="0.587" data-x="2035" r="4" fill="#cc0935"><title>2035: 0.587</title></circle>
<circle cx="363.87" cy="265.75" data-y="0.567" data-x="2036" r="4" fill="#cc0935"><title>2036: 0.567</title></circle>
<circle cx="381.61" cy="265.90" data-y="0.547" data-x="2037" r="4" fill="#cc0935"><title>2037: 0.547</title></circle>
<circle cx="399.35" cy="265.99" data-y="0.535" data-x="2038" r="4" fill="#cc0935"><title>2038: 0.535</title></circle>
<circle cx="417.10" cy="266.14" data-y="0.514" data-x="2039" r="4" fill="#cc0935"><title>2039: 0.514</title></circle>
<circle cx="434.84" cy="266.50" data-y="0.467" data-x="2040" r="4" fill="#cc0935"><title>2040: 0.467</title></circle>
<circle cx="452.58" cy="266.30" data-y="0.493" data-x="2041" r="4" fill="#cc0935"><title>2041: 0.493</title></circle>
<circle cx="470.32" cy="266.35" data-y="0.487" data-x="2042" r="4" fill="#cc0935"><title>2042: 0.487</title></circle>
<circle cx="488.06" cy="266.26" data-y="0.499" data-x="2043" r="4" fill="#cc0935"><title>2043: 0.499</title></circle>
<circle cx="505.81" cy="266.38" data-y="0.483" data-x="2044" r="4" fill="#cc0935"><title>2044: 0.483</title></circle>
<circle cx="523.55" cy="266.44" data-y="0.474" data-x="2045" r="4" fill="#cc0935"><title>2045: 0.474</title></circle>
<circle cx="541.29" cy="266.44" data-y="0.475" data-x="2046" r="4" fill="#cc0935"><title>2046: 0.475</title></circle>
<circle cx="559.03" cy="266.80" data-y="0.426" data-x="2047" r="4" fill="#cc0935"><title>2047: 0.426</title></circle>
<circle cx="576.77" cy="266.86" data-y="0.418" data-x="2048" r="4" fill="#cc0935"><title>2048: 0.418</title></circle>
<circle cx="594.52" cy="267.16" data-y="0.379" data-x="2049" r="4" fill="#cc0935"><title>2049: 0.379</title></circle>
<circle cx="612.26" cy="267.44" data-y="0.341" data-x="2050" r="4" fill="#cc0935"><title>2050: 0.341</title></circle>
</g>
<g data-scenario="" class="data-series"><path d="M 80.00,10.00L 97.74,19.24L 115.48,25.43L 133.23,32.41L 150.97,40.95L 168.71,50.50L 186.45,62.67L 204.19,73.45L 221.94,82.10L 239.68,93.22L 257.42,108.23L 275.16,124.44L 292.90,140.89L 310.65,156.42L 328.39,170.84L 346.13,184.46L 363.87,201.51L 381.61,216.87L 399.35,230.34L 417.10,242.25L 434.84,251.85L 452.58,257.68L 470.32,259.89L 488.06,261.54L 505.81,263.04L 523.55,263.72L 541.29,264.08L 559.03,264.72L 576.77,264.95L 594.52,265.36L 612.26,265.75" id="Total Emissions" class="line" stroke="#cc0935" stroke-width="3" stroke-linecap="round"><title>Total Emissions</title></path>
<circle cx="80.00" cy="10.00" data-y="34.650" data-x="2020" r="4" fill="#cc0935"><title>2020: 34.650</title></circle>
<circle cx="97.74" cy="19.24" data-y="33.419" data-x="2021" r="4" fill="#cc0935"><title>2021: 33.419</title></circle>
<circle cx="115.48" cy="25.43" data-y="32.594" data-x="2022" r="4" fill="#cc0935"><title>2022: 32.594</title></circle>
<circle cx="133.23" cy="32.41" data-y="31.664" data-x="2023" r="4" fill="#cc0935"><title>2023: 31.664</title></circle>
<circle cx="150.97" cy="40.95" data-y="30.525" data-x="2024" r="4" fill="#cc0935"><title>2024: 30.525</title></circle>
<circle cx="168.71" cy="50.50" data-y="29.253" data-x="2025" r="4" fill="#cc0935"><title>2025: 29.253</title></circle>
<circle cx="186.45" cy="62.67" data-y="27.631" data-x="2026" r="4" fill="#cc0935"><title>2026: 27.631</title></circle>
<circle cx="204.19" cy="73.45" data-y="26.194" data-x="2027" r="4" fill="#cc0935"><title>2027: 26.194</title></circle>
<circle cx="221.94" cy="82.10" data-y="25.041" data-x="2028" r="4" fill="#cc0935"><title>2028: 25.041</title></circle>
<circle cx="239.68" cy="93.22" data-y="23.559" data-x="2029" r="4" fill="#cc0935"><title>2029: 23.559</title></circle>
<circle cx="257.42" cy="108.23" data-y="21.559" data-x="2030" r="4" fill="#cc0935"><title>2030: 21.559</title></circle>
<circle cx="275.16" cy="124.44" data-y="19.399" data-x="2031" r="4" fill="#cc0935"><title>2031: 19.399</title></circle>
<circle cx="292.90" cy="140.89" data-y="17.206" data-x="2032" r="4" fill="#cc0935"><title>2032: 17.206</title></circle>
<circle cx="310.65" cy="156.42" data-y="15.137" data-x="2033" r="4" fill="#cc0935"><title>2033: 15.137</title></circle>
<circle cx="328.39" cy="170.84" data-y="13.215" data-x="2034" r="4" fill="#cc0935"><title>2034: 13.215</title></circle>
<circle cx="346.13" cy="184.46" data-y="11.400" data-x="2035" r="4" fill="#cc0935"><title>2035: 11.400</title></circle>
<circle cx="363.87" cy="201.51" data-y="9.127" data-x="2036" r="4" fill="#cc0935"><title>2036: 9.127</title></circle>
<circle cx="381.61" cy="216.87" data-y="7.080" data-x="2037" r="4" fill="#cc0935"><title>2037: 7.080</title></circle>
<circle cx="399.35" cy="230.34" data-y="5.286" data-x="2038" r="4" fill="#cc0935"><title>2038: 5.286</title></circle>
<circle cx="417.10" cy="242.25" data-y="3.698" data-x="2039" r="4" fill="#cc0935"><title>2039: 3.698</title></circle>
<circle cx="434.84" cy="251.85" data-y="2.419" data-x="2040" r="4" fill="#cc0935"><title>2040: 2.419</title></circle>
<circle cx="452.58" cy="257.68" data-y="1.642" data-x="2041" r="4" fill="#cc0935"><title>2041: 1.642</title></circle>
<circle cx="470.32" cy="259.89" data-y="1.348" data-x="2042" r="4" fill="#cc0935"><title>2042: 1.348</title></circle>
<circle cx="488.06" cy="261.54" data-y="1.128" data-x="2043" r="4" fill="#cc0935"><title>2043: 1.128</title></circle>
<circle cx="505.81" cy="263.04" data-y="0.928" data-x="2044" r="4" fill="#cc0935"><title>2044: 0.928</title></circle>
<circle cx="523.55" cy="263.72" data-y="0.837" data-x="2045" r="4" fill="#cc0935"><title>2045: 0.837</title></circle>
<circle cx="541.29" cy="264.08" data-y="0.789" data-x="2046" r="4" fill="#cc0935"><title>2046: 0.789</title></circle>
<circle cx="559.03" cy="264.72" data-y="0.704" data-x="2047" r="4" fill="#cc0935"><title>2047: 0.704</title></circle>
<circle cx="576.77" cy="264.95" data-y="0.673" data-x="2048" r="4" fill="#cc0935"><title>2048: 0.673</title></circle>
<circle cx="594.52" cy="265.36" data-y="0.618" data-x="2049" r="4" fill="#cc0935"><title>2049: 0.618</title></circle>
<circle cx="612.26" cy="265.75" data-y="0.566" data-x="2050" r="4" fill="#cc0935"><title>2050: 0.566</title></circle>
</g>
</svg>
