<svg width="640" height="320" viewBox="0 0 640 320" xmlns="http://www.w3.org/2000/svg" style="overflow:display" preserveAspectRatio="xMinYMin meet" overflow="visible">
<defs><style>.data-series path.line { fill-opacity: 0; }.data-series path.line.dotted { stroke-dasharray: 12 20 }.data-series circle { display: none; }.data-series:hover path.line, .data-series.on path.line { stroke-width: 5; }.data-series:hover circle, .data-series.on circle { display: inline; }.data-series circle:hover, .data-series circle.on { r: 6px!important; fill: black; }.grid { font-family: "Helvetica Neue",Helvetica,Arial,"Lucida Grande",sans-serif; }.grid line { stroke: rgb(0,0,0); stroke-width: 2; stroke-linecap: round; }.grid.grid-x text { text-anchor: middle; dominant-baseline: hanging; transform: translateY(10px); }.grid.grid-y text { text-anchor: end; dominant-baseline: middle; transform: translateX(-10px); }</style>
</defs><g class="grid grid-y"><line x1="80" y1="270" x2="630" y2="270" data-left="80"></line><text x="80" y="270" text-anchor="end">0</text><text x="80" y="194.22696937021" text-anchor="end">10</text><text x="80" y="118.453938740419" text-anchor="end">20</text><text x="80" y="42.6809081106286" text-anchor="end">30</text><text style="text-anchor:middle;dominant-baseline:hanging;font-weight:bold;transform: translateY(140px) rotate(-90deg);">Annual emissions (MtCO2)</text></g><g class="grid grid-x"><line class="tick" x1="80" y1="270" x2="80" y2="275"></line><text x="80" y="270" text-anchor="middle">2020</text><line class="tick" x1="257.41935483871" y1="270" x2="257.41935483871" y2="275"></line><text x="257.41935483871" y="270" text-anchor="middle">2030</text><line class="tick" x1="434.838709677419" y1="270" x2="434.838709677419" y2="275"></line><text x="434.838709677419" y="270" text-anchor="middle">2040</text><line class="tick" x1="612.258064516129" y1="270" x2="612.258064516129" y2="275"></line><text x="612.258064516129" y="270" text-anchor="middle">2050</text><text style="text-anchor:middle;dominant-baseline:hanging;font-weight:bold;transform: translateY(140px) rotate(-90deg);"></text></g><g data-scenario="" class="data-series"><path d="M 80.00,261.20L 97.74,261.32L 115.48,261.58L 133.23,261.90L 150.97,262.20L 168.71,262.39L 186.45,262.54L 204.19,263.07L 221.94,263.60L 239.68,264.10L 257.42,264.62L 275.16,265.13L 292.90,265.64L 310.65,266.11L 328.39,266.73L 346.13,267.18L 363.87,267.81L 381.61,268.30L 399.35,268.73L 417.10,269.15L 434.84,269.58L 452.58,270.00L 470.32,270.00L 488.06,270.00L 505.81,270.00L 523.55,270.00L 541.29,270.00L 559.03,270.00L 576.77,270.00L 594.52,270.00L 612.26,270.00" id="Heating oil" class="line" stroke="#cc0935" stroke-width="3" stroke-linecap="round"><title>Heating oil</title></path><circle cx="80.00" cy="261.20" data-y="1.161" data-x="2020" r="4" fill="#cc0935"><title>2020: 1.161</title></circle><circle cx="97.74" cy="261.32" data-y="1.146" data-x="2021" r="4" fill="#cc0935"><title>2021: 1.146</title></circle><circle cx="115.48" cy="261.58" data-y="1.111" data-x="2022" r="4" fill="#cc0935"><title>2022: 1.111</title></circle><circle cx="133.23" cy="261.90" data-y="1.069" data-x="2023" r="4" fill="#cc0935"><title>2023: 1.069</title></circle><circle cx="150.97" cy="262.20" data-y="1.030" data-x="2024" r="4" fill="#cc0935"><title>2024: 1.030</title></circle><circle cx="168.71" cy="262.39" data-y="1.004" data-x="2025" r="4" fill="#cc0935"><title>2025: 1.004</title></circle><circle cx="186.45" cy="262.54" data-y="0.984" data-x="2026" r="4" fill="#cc0935"><title>2026: 0.984</title></circle><circle cx="204.19" cy="263.07" data-y="0.914" data-x="2027" r="4" fill="#cc0935"><title>2027: 0.914</title></circle><circle cx="221.94" cy="263.60" data-y="0.845" data-x="2028" r="4" fill="#cc0935"><title>2028: 0.845</title></circle><circle cx="239.68" cy="264.10" data-y="0.778" data-x="2029" r="4" fill="#cc0935"><title>2029: 0.778</title></circle><circle cx="257.42" cy="264.62" data-y="0.710" data-x="2030" r="4" fill="#cc0935"><title>2030: 0.710</title></circle><circle cx="275.16" cy="265.13" data-y="0.643" data-x="2031" r="4" fill="#cc0935"><title>2031: 0.643</title></circle><circle cx="292.90" cy="265.64" data-y="0.575" data-x="2032" r="4" fill="#cc0935"><title>2032: 0.575</title></circle><circle cx="310.65" cy="266.11" data-y="0.514" data-x="2033" r="4" fill="#cc0935"><title>2033: 0.514</title></circle><circle cx="328.39" cy="266.73" data-y="0.431" data-x="2034" r="4" fill="#cc0935"><title>2034: 0.431</title></circle><circle cx="346.13" cy="267.18" data-y="0.372" data-x="2035" r="4" fill="#cc0935"><title>2035: 0.372</title></circle><circle cx="363.87" cy="267.81" data-y="0.289" data-x="2036" r="4" fill="#cc0935"><title>2036: 0.289</title></circle><circle cx="381.61" cy="268.30" data-y="0.224" data-x="2037" r="4" fill="#cc0935"><title>2037: 0.224</title></circle><circle cx="399.35" cy="268.73" data-y="0.168" data-x="2038" r="4" fill="#cc0935"><title>2038: 0.168</title></circle><circle cx="417.10" cy="269.15" data-y="0.112" data-x="2039" r="4" fill="#cc0935"><title>2039: 0.112</title></circle><circle cx="434.84" cy="269.58" data-y="0.056" data-x="2040" r="4" fill="#cc0935"><title>2040: 0.056</title></circle><circle cx="452.58" cy="270.00" data-y="0.000" data-x="2041" r="4" fill="#cc0935"><title>2041: 0.000</title></circle><circle cx="470.32" cy="270.00" data-y="0.000" data-x="2042" r="4" fill="#cc0935"><title>2042: 0.000</title></circle><circle cx="488.06" cy="270.00" data-y="0.000" data-x="2043" r="4" fill="#cc0935"><title>2043: 0.000</title></circle><circle cx="505.81" cy="270.00" data-y="0.000" data-x="2044" r="4" fill="#cc0935"><title>2044: 0.000</title></circle><circle cx="523.55" cy="270.00" data-y="0.000" data-x="2045" r="4" fill="#cc0935"><title>2045: 0.000</title></circle><circle cx="541.29" cy="270.00" data-y="0.000" data-x="2046" r="4" fill="#cc0935"><title>2046: 0.000</title></circle><circle cx="559.03" cy="270.00" data-y="0.000" data-x="2047" r="4" fill="#cc0935"><title>2047: 0.000</title></circle><circle cx="576.77" cy="270.00" data-y="0.000" data-x="2048" r="4" fill="#cc0935"><title>2048: 0.000</title></circle><circle cx="594.52" cy="270.00" data-y="0.000" data-x="2049" r="4" fill="#cc0935"><title>2049: 0.000</title></circle><circle cx="612.26" cy="270.00" data-y="0.000" data-x="2050" r="4" fill="#cc0935"><title>2050: 0.000</title></circle></g>
<g data-scenario="" class="data-series"><path d="M 80.00,166.77L 97.74,168.13L 115.48,169.55L 133.23,170.99L 150.97,172.30L 168.71,173.83L 186.45,175.28L 204.19,176.72L 221.94,178.13L 239.68,179.51L 257.42,180.94L 275.16,182.38L 292.90,183.77L 310.65,185.14L 328.39,186.50L 346.13,193.90L 363.87,201.24L 381.61,208.40L 399.35,215.44L 417.10,222.39L 434.84,228.61L 452.58,234.81L 470.32,240.94L 488.06,247.01L 505.81,253.02L 523.55,258.99L 541.29,264.91L 559.03,270.00L 576.77,270.00L 594.52,270.00L 612.26,270.00" id="Natural gas" class="line" stroke="#cc0935" stroke-width="3" stroke-linecap="round"><title>Natural gas</title></path><circle cx="80.00" cy="166.77" data-y="13.623" data-x="2020" r="4" fill="#cc0935"><title>2020: 13.623</title></circle><circle cx="97.74" cy="168.13" data-y="13.444" data-x="2021" r="4" fill="#cc0935"><title>2021: 13.444</title></circle><circle cx="115.48" cy="169.55" data-y="13.257" data-x="2022" r="4" fill="#cc0935"><title>2022: 13.257</title></circle><circle cx="133.23" cy="170.99" data-y="13.066" data-x="2023" r="4" fill="#cc0935"><title>2023: 13.066</title></circle><circle cx="150.97" cy="172.30" data-y="12.894" data-x="2024" r="4" fill="#cc0935"><title>2024: 12.894</title></circle><circle cx="168.71" cy="173.83" data-y="12.692" data-x="2025" r="4" fill="#cc0935"><title>2025: 12.692</title></circle><circle cx="186.45" cy="175.28" data-y="12.500" data-x="2026" r="4" fill="#cc0935"><title>2026: 12.500</title></circle><circle cx="204.19" cy="176.72" data-y="12.311" data-x="2027" r="4" fill="#cc0935"><title>2027: 12.311</title></circle><circle cx="221.94" cy="178.13" data-y="12.125" data-x="2028" r="4" fill="#cc0935"><title>2028: 12.125</title></circle><circle cx="239.68" cy="179.51" data-y="11.942" data-x="2029" r="4" fill="#cc0935"><title>2029: 11.942</title></circle><circle cx="257.42" cy="180.94" data-y="11.753" data-x="2030" r="4" fill="#cc0935"><title>2030: 11.753</title></circle><circle cx="275.16" cy="182.38" data-y="11.563" data-x="2031" r="4" fill="#cc0935"><title>2031: 11.563</title></circle><circle cx="292.90" cy="183.77" data-y="11.380" data-x="2032" r="4" fill="#cc0935"><title>2032: 11.380</title></circle><circle cx="310.65" cy="185.14" data-y="11.199" data-x="2033" r="4" fill="#cc0935"><title>2033: 11.199</title></circle><circle cx="328.39" cy="186.50" data-y="11.020" data-x="2034" r="4" fill="#cc0935"><title>2034: 11.020</title></circle><circle cx="346.13" cy="193.90" data-y="10.043" data-x="2035" r="4" fill="#cc0935"><title>2035: 10.043</title></circle><circle cx="363.87" cy="201.24" data-y="9.075" data-x="2036" r="4" fill="#cc0935"><title>2036: 9.075</title></circle><circle cx="381.61" cy="208.40" data-y="8.129" data-x="2037" r="4" fill="#cc0935"><title>2037: 8.129</title></circle><circle cx="399.35" cy="215.44" data-y="7.200" data-x="2038" r="4" fill="#cc0935"><title>2038: 7.200</title></circle><circle cx="417.10" cy="222.39" data-y="6.283" data-x="2039" r="4" fill="#cc0935"><title>2039: 6.283</title></circle><circle cx="434.84" cy="228.61" data-y="5.462" data-x="2040" r="4" fill="#cc0935"><title>2040: 5.462</title></circle><circle cx="452.58" cy="234.81" data-y="4.644" data-x="2041" r="4" fill="#cc0935"><title>2041: 4.644</title></circle><circle cx="470.32" cy="240.94" data-y="3.835" data-x="2042" r="4" fill="#cc0935"><title>2042: 3.835</title></circle><circle cx="488.06" cy="247.01" data-y="3.034" data-x="2043" r="4" fill="#cc0935"><title>2043: 3.034</title></circle><circle cx="505.81" cy="253.02" data-y="2.241" data-x="2044" r="4" fill="#cc0935"><title>2044: 2.241</title></circle><circle cx="523.55" cy="258.99" data-y="1.453" data-x="2045" r="4" fill="#cc0935"><title>2045: 1.453</title></circle><circle cx="541.29" cy="264.91" data-y="0.672" data-x="2046" r="4" fill="#cc0935"><title>2046: 0.672</title></circle><circle cx="559.03" cy="270.00" data-y="0.000" data-x="2047" r="4" fill="#cc0935"><title>2047: 0.000</title></circle><circle cx="576.77" cy="270.00" data-y="0.000" data-x="2048" r="4" fill="#cc0935"><title>2048: 0.000</title></circle><circle cx="594.52" cy="270.00" data-y="0.000" data-x="2049" r="4" fill="#cc0935"><title>2049: 0.000</title></circle><circle cx="612.26" cy="270.00" data-y="0.000" data-x="2050" r="4" fill="#cc0935"><title>2050: 0.000</title></circle></g>
<g data-scenario="" class="data-series"><path d="M 80.00,270.00L 97.74,269.99L 115.48,269.99L 133.23,269.99L 150.97,269.99L 168.71,269.99L 186.45,269.99L 204.19,269.99L 221.94,269.99L 239.68,269.99L 257.42,269.98L 275.16,269.98L 292.90,269.98L 310.65,269.97L 328.39,269.96L 346.13,269.94L 363.87,269.92L 381.61,269.91L 399.35,269.90L 417.10,269.89L 434.84,269.88L 452.58,269.88L 470.32,269.88L 488.06,269.88L 505.81,269.89L 523.55,269.89L 541.29,269.89L 559.03,269.90L 576.77,269.90L 594.52,269.91L 612.26,269.92" id="Hydrogen" class="line" stroke="#cc0935" stroke-width="3" stroke-linecap="round"><title>Hydrogen</title></path><circle cx="80.00" cy="270.00" data-y="0.000" data-x="2020" r="4" fill="#cc0935"><title>2020: 0.000</title></circle><circle cx="97.74" cy="269.99" data-y="0.001" data-x="2021" r="4" fill="#cc0935"><title>2021: 0.001</title></circle><circle cx="115.48" cy="269.99" data-y="0.001" data-x="2022" r="4" fill="#cc0935"><title>2022: 0.001</title></circle><circle cx="133.23" cy="269.99" data-y="0.001" data-x="2023" r="4" fill="#cc0935"><title>2023: 0.001</title></circle><circle cx="150.97" cy="269.99" data-y="0.001" data-x="2024" r="4" fill="#cc0935"><title>2024: 0.001</title></circle><circle cx="168.71" cy="269.99" data-y="0.001" data-x="2025" r="4" fill="#cc0935"><title>2025: 0.001</title></circle><circle cx="186.45" cy="269.99" data-y="0.001" data-x="2026" r="4" fill="#cc0935"><title>2026: 0.001</title></circle><circle cx="204.19" cy="269.99" data-y="0.001" data-x="2027" r="4" fill="#cc0935"><title>2027: 0.001</title></circle><circle cx="221.94" cy="269.99" data-y="0.001" data-x="2028" r="4" fill="#cc0935"><title>2028: 0.001</title></circle><circle cx="239.68" cy="269.99" data-y="0.001" data-x="2029" r="4" fill="#cc0935"><title>2029: 0.001</title></circle><circle cx="257.42" cy="269.98" data-y="0.002" data-x="2030" r="4" fill="#cc0935"><title>2030: 0.002</title></circle><circle cx="275.16" cy="269.98" data-y="0.003" data-x="2031" r="4" fill="#cc0935"><title>2031: 0.003</title></circle><circle cx="292.90" cy="269.98" data-y="0.003" data-x="2032" r="4" fill="#cc0935"><title>2032: 0.003</title></circle><circle cx="310.65" cy="269.97" data-y="0.004" data-x="2033" r="4" fill="#cc0935"><title>2033: 0.004</title></circle><circle cx="328.39" cy="269.96" data-y="0.005" data-x="2034" r="4" fill="#cc0935"><title>2034: 0.005</title></circle><circle cx="346.13" cy="269.94" data-y="0.008" data-x="2035" r="4" fill="#cc0935"><title>2035: 0.008</title></circle><circle cx="363.87" cy="269.92" data-y="0.011" data-x="2036" r="4" fill="#cc0935"><title>2036: 0.011</title></circle><circle cx="381.61" cy="269.91" data-y="0.012" data-x="2037" r="4" fill="#cc0935"><title>2037: 0.012</title></circle><circle cx="399.35" cy="269.90" data-y="0.013" data-x="2038" r="4" fill="#cc0935"><title>2038: 0.013</title></circle><circle cx="417.10" cy="269.89" data-y="0.015" data-x="2039" r="4" fill="#cc0935"><title>2039: 0.015</title></circle><circle cx="434.84" cy="269.88" data-y="0.016" data-x="2040" r="4" fill="#cc0935"><title>2040: 0.016</title></circle><circle cx="452.58" cy="269.88" data-y="0.016" data-x="2041" r="4" fill="#cc0935"><title>2041: 0.016</title></circle><circle cx="470.32" cy="269.88" data-y="0.016" data-x="2042" r="4" fill="#cc0935"><title>2042: 0.016</title></circle><circle cx="488.06" cy="269.88" data-y="0.016" data-x="2043" r="4" fill="#cc0935"><title>2043: 0.016</title></circle><circle cx="505.81" cy="269.89" data-y="0.015" data-x="2044" r="4" fill="#cc0935"><title>2044: 0.015</title></circle><circle cx="523.55" cy="269.89" data-y="0.015" data-x="2045" r="4" fill="#cc0935"><title>2045: 0.015</title></circle><circle cx="541.29" cy="269.89" data-y="0.014" data-x="2046" r="4" fill="#cc0935"><title>2046: 0.014</title></circle><circle cx="559.03" cy="269.90" data-y="0.013" data-x="2047" r="4" fill="#cc0935"><title>2047: 0.013</title></circle><circle cx="576.77" cy="269.90" data-y="0.013" data-x="2048" r="4" fill="#cc0935"><title>2048: 0.013</title></circle><circle cx="594.52" cy="269.91" data-y="0.012" data-x="2049" r="4" fill="#cc0935"><title>2049: 0.012</title></circle><circle cx="612.26" cy="269.92" data-y="0.011" data-x="2050" r="4" fill="#cc0935"><title>2050: 0.011</title></circle></g>
<g data-scenario="" class="data-series"><path d="M 80.00,269.83L 97.74,269.78L 115.48,269.73L 133.23,269.69L 150.97,269.64L 168.71,269.61L 186.45,269.57L 204.19,269.52L 221.94,269.48L 239.68,269.45L 257.42,269.41L 275.16,269.36L 292.90,269.32L 310.65,269.27L 328.39,269.21L 346.13,269.17L 363.87,269.10L 381.61,269.03L 399.35,268.97L 417.10,268.90L 434.84,268.88L 452.58,268.86L 470.32,268.85L 488.06,268.85L 505.81,268.85L 523.55,268.85L 541.29,268.85L 559.03,268.91L 576.77,269.36L 594.52,269.79L 612.26,269.80" id="Bioenergy" class="line" stroke="#cc0935" stroke-width="3" stroke-linecap="round"><title>Bioenergy</title></path><circle cx="80.00" cy="269.83" data-y="0.023" data-x="2020" r="4" fill="#cc0935"><title>2020: 0.023</title></circle><circle cx="97.74" cy="269.78" data-y="0.029" data-x="2021" r="4" fill="#cc0935"><title>2021: 0.029</title></circle><circle cx="115.48" cy="269.73" data-y="0.035" data-x="2022" r="4" fill="#cc0935"><title>2022: 0.035</title></circle><circle cx="133.23" cy="269.69" data-y="0.041" data-x="2023" r="4" fill="#cc0935"><title>2023: 0.041</title></circle><circle cx="150.97" cy="269.64" data-y="0.047" data-x="2024" r="4" fill="#cc0935"><title>2024: 0.047</title></circle><circle cx="168.71" cy="269.61" data-y="0.052" data-x="2025" r="4" fill="#cc0935"><title>2025: 0.052</title></circle><circle cx="186.45" cy="269.57" data-y="0.057" data-x="2026" r="4" fill="#cc0935"><title>2026: 0.057</title></circle><circle cx="204.19" cy="269.52" data-y="0.063" data-x="2027" r="4" fill="#cc0935"><title>2027: 0.063</title></circle><circle cx="221.94" cy="269.48" data-y="0.068" data-x="2028" r="4" fill="#cc0935"><title>2028: 0.068</title></circle><circle cx="239.68" cy="269.45" data-y="0.073" data-x="2029" r="4" fill="#cc0935"><title>2029: 0.073</title></circle><circle cx="257.42" cy="269.41" data-y="0.078" data-x="2030" r="4" fill="#cc0935"><title>2030: 0.078</title></circle><circle cx="275.16" cy="269.36" data-y="0.084" data-x="2031" r="4" fill="#cc0935"><title>2031: 0.084</title></circle><circle cx="292.90" cy="269.32" data-y="0.090" data-x="2032" r="4" fill="#cc0935"><title>2032: 0.090</title></circle><circle cx="310.65" cy="269.27" data-y="0.097" data-x="2033" r="4" fill="#cc0935"><title>2033: 0.097</title></circle><circle cx="328.39" cy="269.21" data-y="0.104" data-x="2034" r="4" fill="#cc0935"><title>2034: 0.104</title></circle><circle cx="346.13" cy="269.17" data-y="0.110" data-x="2035" r="4" fill="#cc0935"><title>2035: 0.110</title></circle><circle cx="363.87" cy="269.10" data-y="0.119" data-x="2036" r="4" fill="#cc0935"><title>2036: 0.119</title></circle><circle cx="381.61" cy="269.03" data-y="0.128" data-x="2037" r="4" fill="#cc0935"><title>2037: 0.128</title></circle><circle cx="399.35" cy="268.97" data-y="0.136" data-x="2038" r="4" fill="#cc0935"><title>2038: 0.136</title></circle><circle cx="417.10" cy="268.90" data-y="0.145" data-x="2039" r="4" fill="#cc0935"><title>2039: 0.145</title></circle><circle cx="434.84" cy="268.88" data-y="0.148" data-x="2040" r="4" fill="#cc0935"><title>2040: 0.148</title></circle><circle cx="452.58" cy="268.86" data-y="0.150" data-x="2041" r="4" fill="#cc0935"><title>2041: 0.150</title></circle><circle cx="470.32" cy="268.85" data-y="0.152" data-x="2042" r="4" fill="#cc0935"><title>2042: 0.152</title></circle><circle cx="488.06" cy="268.85" data-y="0.152" data-x="2043" r="4" fill="#cc0935"><title>2043: 0.152</title></circle><circle cx="505.81" cy="268.85" data-y="0.152" data-x="2044" r="4" fill="#cc0935"><title>2044: 0.152</title></circle><circle cx="523.55" cy="268.85" data-y="0.152" data-x="2045" r="4" fill="#cc0935"><title>2045: 0.152</title></circle><circle cx="541.29" cy="268.85" data-y="0.152" data-x="2046" r="4" fill="#cc0935"><title>2046: 0.152</title></circle><circle cx="559.03" cy="268.91" data-y="0.144" data-x="2047" r="4" fill="#cc0935"><title>2047: 0.144</title></circle><circle cx="576.77" cy="269.36" data-y="0.085" data-x="2048" r="4" fill="#cc0935"><title>2048: 0.085</title></circle><circle cx="594.52" cy="269.79" data-y="0.028" data-x="2049" r="4" fill="#cc0935"><title>2049: 0.028</title></circle><circle cx="612.26" cy="269.80" data-y="0.027" data-x="2050" r="4" fill="#cc0935"><title>2050: 0.027</title></circle></g>
<g data-scenario="" class="data-series"><path d="M 80.00,231.51L 97.74,231.95L 115.48,232.64L 133.23,234.41L 150.97,236.71L 168.71,239.58L 186.45,242.83L 204.19,245.72L 221.94,248.33L 239.68,250.79L 257.42,253.13L 275.16,255.20L 292.90,257.06L 310.65,258.61L 328.39,259.99L 346.13,261.32L 363.87,262.61L 381.61,263.94L 399.35,265.08L 417.10,265.97L 434.84,266.72L 452.58,267.35L 470.32,267.88L 488.06,268.33L 505.81,268.70L 523.55,269.01L 541.29,269.27L 559.03,269.47L 576.77,269.62L 594.52,269.73L 612.26,269.82" id="Petrol" class="line" stroke="#cc0935" stroke-width="3" stroke-linecap="round"><title>Petrol</title></path><circle cx="80.00" cy="231.51" data-y="5.079" data-x="2020" r="4" fill="#cc0935"><title>2020: 5.079</title></circle><circle cx="97.74" cy="231.95" data-y="5.022" data-x="2021" r="4" fill="#cc0935"><title>2021: 5.022</title></circle><circle cx="115.48" cy="232.64" data-y="4.931" data-x="2022" r="4" fill="#cc0935"><title>2022: 4.931</title></circle><circle cx="133.23" cy="234.41" data-y="4.697" data-x="2023" r="4" fill="#cc0935"><title>2023: 4.697</title></circle><circle cx="150.97" cy="236.71" data-y="4.394" data-x="2024" r="4" fill="#cc0935"><title>2024: 4.394</title></circle><circle cx="168.71" cy="239.58" data-y="4.015" data-x="2025" r="4" fill="#cc0935"><title>2025: 4.015</title></circle><circle cx="186.45" cy="242.83" data-y="3.586" data-x="2026" r="4" fill="#cc0935"><title>2026: 3.586</title></circle><circle cx="204.19" cy="245.72" data-y="3.204" data-x="2027" r="4" fill="#cc0935"><title>2027: 3.204</title></circle><circle cx="221.94" cy="248.33" data-y="2.860" data-x="2028" r="4" fill="#cc0935"><title>2028: 2.860</title></circle><circle cx="239.68" cy="250.79" data-y="2.535" data-x="2029" r="4" fill="#cc0935"><title>2029: 2.535</title></circle><circle cx="257.42" cy="253.13" data-y="2.226" data-x="2030" r="4" fill="#cc0935"><title>2030: 2.226</title></circle><circle cx="275.16" cy="255.20" data-y="1.953" data-x="2031" r="4" fill="#cc0935"><title>2031: 1.953</title></circle><circle cx="292.90" cy="257.06" data-y="1.708" data-x="2032" r="4" fill="#cc0935"><title>2032: 1.708</title></circle><circle cx="310.65" cy="258.61" data-y="1.503" data-x="2033" r="4" fill="#cc0935"><title>2033: 1.503</title></circle><circle cx="328.39" cy="259.99" data-y="1.321" data-x="2034" r="4" fill="#cc0935"><title>2034: 1.321</title></circle><circle cx="346.13" cy="261.32" data-y="1.146" data-x="2035" r="4" fill="#cc0935"><title>2035: 1.146</title></circle><circle cx="363.87" cy="262.61" data-y="0.975" data-x="2036" r="4" fill="#cc0935"><title>2036: 0.975</title></circle><circle cx="381.61" cy="263.94" data-y="0.800" data-x="2037" r="4" fill="#cc0935"><title>2037: 0.800</title></circle><circle cx="399.35" cy="265.08" data-y="0.649" data-x="2038" r="4" fill="#cc0935"><title>2038: 0.649</title></circle><circle cx="417.10" cy="265.97" data-y="0.532" data-x="2039" r="4" fill="#cc0935"><title>2039: 0.532</title></circle><circle cx="434.84" cy="266.72" data-y="0.433" data-x="2040" r="4" fill="#cc0935"><title>2040: 0.433</title></circle><circle cx="452.58" cy="267.35" data-y="0.350" data-x="2041" r="4" fill="#cc0935"><title>2041: 0.350</title></circle><circle cx="470.32" cy="267.88" data-y="0.280" data-x="2042" r="4" fill="#cc0935"><title>2042: 0.280</title></circle><circle cx="488.06" cy="268.33" data-y="0.221" data-x="2043" r="4" fill="#cc0935"><title>2043: 0.221</title></circle><circle cx="505.81" cy="268.70" data-y="0.172" data-x="2044" r="4" fill="#cc0935"><title>2044: 0.172</title></circle><circle cx="523.55" cy="269.01" data-y="0.130" data-x="2045" r="4" fill="#cc0935"><title>2045: 0.130</title></circle><circle cx="541.29" cy="269.27" data-y="0.097" data-x="2046" r="4" fill="#cc0935"><title>2046: 0.097</title></circle><circle cx="559.03" cy="269.47" data-y="0.070" data-x="2047" r="4" fill="#cc0935"><title>2047: 0.070</title></circle><circle cx="576.77" cy="269.62" data-y="0.050" data-x="2048" r="4" fill="#cc0935"><title>2048: 0.050</title></circle><circle cx="594.52" cy="269.73" data-y="0.035" data-x="2049" r="4" fill="#cc0935"><title>2049: 0.035</title></circle><circle cx="612.26" cy="269.82" data-y="0.024" data-x="2050" r="4" fill="#cc0935"><title>2050: 0.024</title></circle></g>
<g data-scenario="" class="data-series"><path d="M 80.00,186.45L 97.74,185.98L 115.48,185.64L 133.23,186.23L 150.97,187.71L 168.71,190.37L 186.45,194.76L 204.19,199.11L 221.94,203.77L 239.68,208.63L 257.42,213.61L 275.16,218.70L 292.90,223.82L 310.65,228.79L 328.39,233.58L 346.13,238.24L 363.87,242.26L 381.61,246.12L 399.35,249.63L 417.10,252.86L 434.84,255.73L 452.58,258.19L 470.32,260.44L 488.06,262.48L 505.81,264.30L 523.55,265.95L 541.29,267.26L 559.03,268.27L 576.77,268.98L 594.52,269.45L 612.26,269.71" id="Diesel" class="line" stroke="#cc0935" stroke-width="3" stroke-linecap="round"><title>Diesel</title></path><circle cx="80.00" cy="186.45" data-y="11.027" data-x="2020" r="4" fill="#cc0935"><title>2020: 11.027</title></circle><circle cx="97.74" cy="185.98" data-y="11.088" data-x="2021" r="4" fill="#cc0935"><title>2021: 11.088</title></circle><circle cx="115.48" cy="185.64" data-y="11.133" data-x="2022" r="4" fill="#cc0935"><title>2022: 11.133</title></circle><circle cx="133.23" cy="186.23" data-y="11.055" data-x="2023" r="4" fill="#cc0935"><title>2023: 11.055</title></circle><circle cx="150.97" cy="187.71" data-y="10.860" data-x="2024" r="4" fill="#cc0935"><title>2024: 10.860</title></circle><circle cx="168.71" cy="190.37" data-y="10.509" data-x="2025" r="4" fill="#cc0935"><title>2025: 10.509</title></circle><circle cx="186.45" cy="194.76" data-y="9.929" data-x="2026" r="4" fill="#cc0935"><title>2026: 9.929</title></circle><circle cx="204.19" cy="199.11" data-y="9.356" data-x="2027" r="4" fill="#cc0935"><title>2027: 9.356</title></circle><circle cx="221.94" cy="203.77" data-y="8.741" data-x="2028" r="4" fill="#cc0935"><title>2028: 8.741</title></circle><circle cx="239.68" cy="208.63" data-y="8.099" data-x="2029" r="4" fill="#cc0935"><title>2029: 8.099</title></circle><circle cx="257.42" cy="213.61" data-y="7.442" data-x="2030" r="4" fill="#cc0935"><title>2030: 7.442</title></circle><circle cx="275.16" cy="218.70" data-y="6.770" data-x="2031" r="4" fill="#cc0935"><title>2031: 6.770</title></circle><circle cx="292.90" cy="223.82" data-y="6.094" data-x="2032" r="4" fill="#cc0935"><title>2032: 6.094</title></circle><circle cx="310.65" cy="228.79" data-y="5.439" data-x="2033" r="4" fill="#cc0935"><title>2033: 5.439</title></circle><circle cx="328.39" cy="233.58" data-y="4.806" data-x="2034" r="4" fill="#cc0935"><title>2034: 4.806</title></circle><circle cx="346.13" cy="238.24" data-y="4.192" data-x="2035" r="4" fill="#cc0935"><title>2035: 4.192</title></circle><circle cx="363.87" cy="242.26" data-y="3.661" data-x="2036" r="4" fill="#cc0935"><title>2036: 3.661</title></circle><circle cx="381.61" cy="246.12" data-y="3.151" data-x="2037" r="4" fill="#cc0935"><title>2037: 3.151</title></circle><circle cx="399.35" cy="249.63" data-y="2.688" data-x="2038" r="4" fill="#cc0935"><title>2038: 2.688</title></circle><circle cx="417.10" cy="252.86" data-y="2.262" data-x="2039" r="4" fill="#cc0935"><title>2039: 2.262</title></circle><circle cx="434.84" cy="255.73" data-y="1.883" data-x="2040" r="4" fill="#cc0935"><title>2040: 1.883</title></circle><circle cx="452.58" cy="258.19" data-y="1.558" data-x="2041" r="4" fill="#cc0935"><title>2041: 1.558</title></circle><circle cx="470.32" cy="260.44" data-y="1.262" data-x="2042" r="4" fill="#cc0935"><title>2042: 1.262</title></circle><circle cx="488.06" cy="262.48" data-y="0.993" data-x="2043" r="4" fill="#cc0935"><title>2043: 0.993</title></circle><circle cx="505.81" cy="264.30" data-y="0.752" data-x="2044" r="4" fill="#cc0935"><title>2044: 0.752</title></circle><circle cx="523.55" cy="265.95" data-y="0.534" data-x="2045" r="4" fill="#cc0935"><title>2045: 0.534</title></circle><circle cx="541.29" cy="267.26" data-y="0.361" data-x="2046" r="4" fill="#cc0935"><title>2046: 0.361</title></circle><circle cx="559.03" cy="268.27" data-y="0.228" data-x="2047" r="4" fill="#cc0935"><title>2047: 0.228</title></circle><circle cx="576.77" cy="268.98" data-y="0.134" data-x="2048" r="4" fill="#cc0935"><title>2048: 0.134</title></circle><circle cx="594.52" cy="269.45" data-y="0.072" data-x="2049" r="4" fill="#cc0935"><title>2049: 0.072</title></circle><circle cx="612.26" cy="269.71" data-y="0.038" data-x="2050" r="4" fill="#cc0935"><title>2050: 0.038</title></circle></g>
<g data-scenario="" class="data-series"><path d="M 80.00,244.24L 97.74,249.16L 115.48,254.38L 133.23,255.31L 150.97,255.64L 168.71,258.11L 186.45,260.81L 204.19,261.82L 221.94,262.00L 239.68,263.60L 257.42,263.42L 275.16,263.81L 292.90,264.23L 310.65,264.60L 328.39,264.79L 346.13,264.71L 363.87,264.65L 381.61,265.07L 399.35,265.36L 417.10,265.20L 434.84,265.34L 452.58,265.46L 470.32,265.63L 488.06,266.03L 505.81,266.21L 523.55,266.42L 541.29,266.64L 559.03,266.81L 576.77,266.94L 594.52,267.16L 612.26,267.42" id="Electricity" class="line" stroke="#cc0935" stroke-width="3" stroke-linecap="round"><title>Electricity</title></path><circle cx="80.00" cy="244.24" data-y="3.399" data-x="2020" r="4" fill="#cc0935"><title>2020: 3.399</title></circle><circle cx="97.74" cy="249.16" data-y="2.750" data-x="2021" r="4" fill="#cc0935"><title>2021: 2.750</title></circle><circle cx="115.48" cy="254.38" data-y="2.062" data-x="2022" r="4" fill="#cc0935"><title>2022: 2.062</title></circle><circle cx="133.23" cy="255.31" data-y="1.939" data-x="2023" r="4" fill="#cc0935"><title>2023: 1.939</title></circle><circle cx="150.97" cy="255.64" data-y="1.895" data-x="2024" r="4" fill="#cc0935"><title>2024: 1.895</title></circle><circle cx="168.71" cy="258.11" data-y="1.569" data-x="2025" r="4" fill="#cc0935"><title>2025: 1.569</title></circle><circle cx="186.45" cy="260.81" data-y="1.213" data-x="2026" r="4" fill="#cc0935"><title>2026: 1.213</title></circle><circle cx="204.19" cy="261.82" data-y="1.079" data-x="2027" r="4" fill="#cc0935"><title>2027: 1.079</title></circle><circle cx="221.94" cy="262.00" data-y="1.056" data-x="2028" r="4" fill="#cc0935"><title>2028: 1.056</title></circle><circle cx="239.68" cy="263.60" data-y="0.844" data-x="2029" r="4" fill="#cc0935"><title>2029: 0.844</title></circle><circle cx="257.42" cy="263.42" data-y="0.868" data-x="2030" r="4" fill="#cc0935"><title>2030: 0.868</title></circle><circle cx="275.16" cy="263.81" data-y="0.817" data-x="2031" r="4" fill="#cc0935"><title>2031: 0.817</title></circle><circle cx="292.90" cy="264.23" data-y="0.761" data-x="2032" r="4" fill="#cc0935"><title>2032: 0.761</title></circle><circle cx="310.65" cy="264.60" data-y="0.712" data-x="2033" r="4" fill="#cc0935"><title>2033: 0.712</title></circle><circle cx="328.39" cy="264.79" data-y="0.688" data-x="2034" r="4" fill="#cc0935"><title>2034: 0.688</title></circle><circle cx="346.13" cy="264.71" data-y="0.698" data-x="2035" r="4" fill="#cc0935"><title>2035: 0.698</title></circle><circle cx="363.87" cy="264.65" data-y="0.706" data-x="2036" r="4" fill="#cc0935"><title>2036: 0.706</title></circle><circle cx="381.61" cy="265.07" data-y="0.650" data-x="2037" r="4" fill="#cc0935"><title>2037: 0.650</title></circle><circle cx="399.35" cy="265.36" data-y="0.613" data-x="2038" r="4" fill="#cc0935"><title>2038: 0.613</title></circle><circle cx="417.10" cy="265.20" data-y="0.633" data-x="2039" r="4" fill="#cc0935"><title>2039: 0.633</title></circle><circle cx="434.84" cy="265.34" data-y="0.615" data-x="2040" r="4" fill="#cc0935"><title>2040: 0.615</title></circle><circle cx="452.58" cy="265.46" data-y="0.599" data-x="2041" r="4" fill="#cc0935"><title>2041: 0.599</title></circle><circle cx="470.32" cy="265.63" data-y="0.577" data-x="2042" r="4" fill="#cc0935"><title>2042: 0.577</title></circle><circle cx="488.06" cy="266.03" data-y="0.524" data-x="2043" r="4" fill="#cc0935"><title>2043: 0.524</title></circle><circle cx="505.81" cy="266.21" data-y="0.500" data-x="2044" r="4" fill="#cc0935"><title>2044: 0.500</title></circle><circle cx="523.55" cy="266.42" data-y="0.472" data-x="2045" r="4" fill="#cc0935"><title>2045: 0.472</title></circle><circle cx="541.29" cy="266.64" data-y="0.444" data-x="2046" r="4" fill="#cc0935"><title>2046: 0.444</title></circle><circle cx="559.03" cy="266.81" data-y="0.421" data-x="2047" r="4" fill="#cc0935"><title>2047: 0.421</title></circle><circle cx="576.77" cy="266.94" data-y="0.404" data-x="2048" r="4" fill="#cc0935"><title>2048: 0.404</title></circle><circle cx="594.52" cy="267.16" data-y="0.375" data-x="2049" r="4" fill="#cc0935"><title>2049: 0.375</title></circle><circle cx="612.26" cy="267.42" data-y="0.341" data-x="2050" r="4" fill="#cc0935"><title>2050: 0.341</title></circle></g>
<g data-scenario="" class="data-series"><path d="M 80.00,10.00L 97.74,16.30L 115.48,23.51L 133.23,28.53L 150.97,34.20L 168.71,43.88L 186.45,55.79L 204.19,65.97L 221.94,75.29L 239.68,86.08L 257.42,95.12L 275.16,104.57L 292.90,113.82L 310.65,122.48L 328.39,130.77L 346.13,144.45L 363.87,157.59L 381.61,170.78L 399.35,183.11L 417.10,194.37L 434.84,204.75L 452.58,214.55L 470.32,223.60L 488.06,232.57L 505.81,240.96L 523.55,249.12L 541.29,256.82L 559.03,263.36L 576.77,264.79L 594.52,266.04L 612.26,266.66" id="Total Emissions" class="line" stroke="#cc0935" stroke-width="3" stroke-linecap="round"><title>Total Emissions</title></path><circle cx="80.00" cy="10.00" data-y="34.313" data-x="2020" r="4" fill="#cc0935"><title>2020: 34.313</title></circle><circle cx="97.74" cy="16.30" data-y="33.481" data-x="2021" r="4" fill="#cc0935"><title>2021: 33.481</title></circle><circle cx="115.48" cy="23.51" data-y="32.530" data-x="2022" r="4" fill="#cc0935"><title>2022: 32.530</title></circle><circle cx="133.23" cy="28.53" data-y="31.868" data-x="2023" r="4" fill="#cc0935"><title>2023: 31.868</title></circle><circle cx="150.97" cy="34.20" data-y="31.119" data-x="2024" r="4" fill="#cc0935"><title>2024: 31.119</title></circle><circle cx="168.71" cy="43.88" data-y="29.842" data-x="2025" r="4" fill="#cc0935"><title>2025: 29.842</title></circle><circle cx="186.45" cy="55.79" data-y="28.270" data-x="2026" r="4" fill="#cc0935"><title>2026: 28.270</title></circle><circle cx="204.19" cy="65.97" data-y="26.927" data-x="2027" r="4" fill="#cc0935"><title>2027: 26.927</title></circle><circle cx="221.94" cy="75.29" data-y="25.696" data-x="2028" r="4" fill="#cc0935"><title>2028: 25.696</title></circle><circle cx="239.68" cy="86.08" data-y="24.272" data-x="2029" r="4" fill="#cc0935"><title>2029: 24.272</title></circle><circle cx="257.42" cy="95.12" data-y="23.080" data-x="2030" r="4" fill="#cc0935"><title>2030: 23.080</title></circle><circle cx="275.16" cy="104.57" data-y="21.832" data-x="2031" r="4" fill="#cc0935"><title>2031: 21.832</title></circle><circle cx="292.90" cy="113.82" data-y="20.611" data-x="2032" r="4" fill="#cc0935"><title>2032: 20.611</title></circle><circle cx="310.65" cy="122.48" data-y="19.469" data-x="2033" r="4" fill="#cc0935"><title>2033: 19.469</title></circle><circle cx="328.39" cy="130.77" data-y="18.374" data-x="2034" r="4" fill="#cc0935"><title>2034: 18.374</title></circle><circle cx="346.13" cy="144.45" data-y="16.569" data-x="2035" r="4" fill="#cc0935"><title>2035: 16.569</title></circle><circle cx="363.87" cy="157.59" data-y="14.835" data-x="2036" r="4" fill="#cc0935"><title>2036: 14.835</title></circle><circle cx="381.61" cy="170.78" data-y="13.094" data-x="2037" r="4" fill="#cc0935"><title>2037: 13.094</title></circle><circle cx="399.35" cy="183.11" data-y="11.467" data-x="2038" r="4" fill="#cc0935"><title>2038: 11.467</title></circle><circle cx="417.10" cy="194.37" data-y="9.981" data-x="2039" r="4" fill="#cc0935"><title>2039: 9.981</title></circle><circle cx="434.84" cy="204.75" data-y="8.611" data-x="2040" r="4" fill="#cc0935"><title>2040: 8.611</title></circle><circle cx="452.58" cy="214.55" data-y="7.318" data-x="2041" r="4" fill="#cc0935"><title>2041: 7.318</title></circle><circle cx="470.32" cy="223.60" data-y="6.123" data-x="2042" r="4" fill="#cc0935"><title>2042: 6.123</title></circle><circle cx="488.06" cy="232.57" data-y="4.940" data-x="2043" r="4" fill="#cc0935"><title>2043: 4.940</title></circle><circle cx="505.81" cy="240.96" data-y="3.832" data-x="2044" r="4" fill="#cc0935"><title>2044: 3.832</title></circle><circle cx="523.55" cy="249.12" data-y="2.756" data-x="2045" r="4" fill="#cc0935"><title>2045: 2.756</title></circle><circle cx="541.29" cy="256.82" data-y="1.739" data-x="2046" r="4" fill="#cc0935"><title>2046: 1.739</title></circle><circle cx="559.03" cy="263.36" data-y="0.876" data-x="2047" r="4" fill="#cc0935"><title>2047: 0.876</title></circle><circle cx="576.77" cy="264.79" data-y="0.687" data-x="2048" r="4" fill="#cc0935"><title>2048: 0.687</title></circle><circle cx="594.52" cy="266.04" data-y="0.522" data-x="2049" r="4" fill="#cc0935"><title>2049: 0.522</title></circle><circle cx="612.26" cy="266.66" data-y="0.441" data-x="2050" r="4" fill="#cc0935"><title>2050: 0.441</title></circle></g>
</svg>
