<svg width="640" height="320" viewBox="0 0 640 320" xmlns="http://www.w3.org/2000/svg" style="overflow:display" preserveAspectRatio="xMinYMin meet" overflow="visible">
<defs>
	<style>
	.data-series path.line { fill-opacity: 0; }
	.data-series path.line.dotted { stroke-dasharray: 12 20 }
	.data-series circle { display: none; }
	.data-series:hover path.line, .data-series.on path.line { stroke-width: 5; }
	.data-series:hover circle, .data-series.on circle { display: inline; }
	.data-series circle:hover, .data-series circle.on { r: 6px!important; fill: black; }
	.grid { font-family: "Helvetica Neue",Helvetica,Arial,"Lucida Grande",sans-serif; }
	.grid line { stroke: rgb(0,0,0); stroke-width: 2; stroke-linecap: round; }
	.grid.grid-x text { text-anchor: middle; dominant-baseline: hanging; transform: translateY(10px); }
	.grid.grid-y text { text-anchor: end; dominant-baseline: middle; transform: translateX(-10px); }
	</style>
</defs>
<g class="grid grid-y">
	<line x1="100" y1="270" x2="630" y2="270" data-left="100"></line>
	<text x="100" y="270" text-anchor="end">0</text>
	<text x="100" y="194.642049736247" text-anchor="end">20,000</text>
	<text x="100" y="119.284099472494" text-anchor="end">40,000</text>
	<text x="100" y="43.9261492087415" text-anchor="end">60,000</text>
	<text style="text-anchor:middle;dominant-baseline:hanging;font-weight:bold;transform: translateY(140px) rotate(-90deg);">Fuel consumption (GWh-yr)</text>
</g>
<g class="grid grid-x">
	<line class="tick" x1="100" y1="270" x2="100" y2="275"></line>
	<text x="100" y="270" text-anchor="middle">2020</text>
	<line class="tick" x1="270.967741935484" y1="270" x2="270.967741935484" y2="275"></line>
	<text x="270.967741935484" y="270" text-anchor="middle">2030</text>
	<line class="tick" x1="441.935483870968" y1="270" x2="441.935483870968" y2="275"></line>
	<text x="441.935483870968" y="270" text-anchor="middle">2040</text>
	<line class="tick" x1="612.903225806452" y1="270" x2="612.903225806452" y2="275"></line>
	<text x="612.903225806452" y="270" text-anchor="middle">2050</text>
	<text style="text-anchor:middle;dominant-baseline:hanging;font-weight:bold;transform: translateY(140px) rotate(-90deg);"></text>
</g>
<g data-scenario="heating-oil" class="data-series">	<path d="M 100.00,253.46L 117.10,253.56L 134.19,253.65L 151.29,253.73L 168.39,253.78L 185.48,253.65L 202.58,253.45L 219.68,253.13L 236.77,252.81L 253.87,252.48L 270.97,253.43L 288.06,254.37L 305.16,255.33L 322.26,256.19L 339.35,257.37L 356.45,258.65L 373.55,259.92L 390.65,261.19L 407.74,262.45L 424.84,263.71L 441.94,264.97L 459.03,266.23L 476.13,267.49L 493.23,268.75" id="Heating oil" class="line" stroke="#420A0C" stroke-width="3" stroke-linecap="round"><title>Heating oil</title></path>
	<circle cx="100.00" cy="253.46" data-y="4389" data-x="2020" r="4" fill="#420A0C"><title>2020: 4389</title></circle>
	<circle cx="117.10" cy="253.56" data-y="4364" data-x="2021" r="4" fill="#420A0C"><title>2021: 4364</title></circle>
	<circle cx="134.19" cy="253.65" data-y="4340" data-x="2022" r="4" fill="#420A0C"><title>2022: 4340</title></circle>
	<circle cx="151.29" cy="253.73" data-y="4318" data-x="2023" r="4" fill="#420A0C"><title>2023: 4318</title></circle>
	<circle cx="168.39" cy="253.78" data-y="4304" data-x="2024" r="4" fill="#420A0C"><title>2024: 4304</title></circle>
	<circle cx="185.48" cy="253.65" data-y="4339" data-x="2025" r="4" fill="#420A0C"><title>2025: 4339</title></circle>
	<circle cx="202.58" cy="253.45" data-y="4393" data-x="2026" r="4" fill="#420A0C"><title>2026: 4393</title></circle>
	<circle cx="219.68" cy="253.13" data-y="4477" data-x="2027" r="4" fill="#420A0C"><title>2027: 4477</title></circle>
	<circle cx="236.77" cy="252.81" data-y="4563" data-x="2028" r="4" fill="#420A0C"><title>2028: 4563</title></circle>
	<circle cx="253.87" cy="252.48" data-y="4650" data-x="2029" r="4" fill="#420A0C"><title>2029: 4650</title></circle>
	<circle cx="270.97" cy="253.43" data-y="4399" data-x="2030" r="4" fill="#420A0C"><title>2030: 4399</title></circle>
	<circle cx="288.06" cy="254.37" data-y="4147" data-x="2031" r="4" fill="#420A0C"><title>2031: 4147</title></circle>
	<circle cx="305.16" cy="255.33" data-y="3893" data-x="2032" r="4" fill="#420A0C"><title>2032: 3893</title></circle>
	<circle cx="322.26" cy="256.19" data-y="3666" data-x="2033" r="4" fill="#420A0C"><title>2033: 3666</title></circle>
	<circle cx="339.35" cy="257.37" data-y="3351" data-x="2034" r="4" fill="#420A0C"><title>2034: 3351</title></circle>
	<circle cx="356.45" cy="258.65" data-y="3013" data-x="2035" r="4" fill="#420A0C"><title>2035: 3013</title></circle>
	<circle cx="373.55" cy="259.92" data-y="2675" data-x="2036" r="4" fill="#420A0C"><title>2036: 2675</title></circle>
	<circle cx="390.65" cy="261.19" data-y="2339" data-x="2037" r="4" fill="#420A0C"><title>2037: 2339</title></circle>
	<circle cx="407.74" cy="262.45" data-y="2003" data-x="2038" r="4" fill="#420A0C"><title>2038: 2003</title></circle>
	<circle cx="424.84" cy="263.71" data-y="1669" data-x="2039" r="4" fill="#420A0C"><title>2039: 1669</title></circle>
	<circle cx="441.94" cy="264.97" data-y="1334" data-x="2040" r="4" fill="#420A0C"><title>2040: 1334</title></circle>
	<circle cx="459.03" cy="266.23" data-y="1000" data-x="2041" r="4" fill="#420A0C"><title>2041: 1000</title></circle>
	<circle cx="476.13" cy="267.49" data-y="667" data-x="2042" r="4" fill="#420A0C"><title>2042: 667</title></circle>
	<circle cx="493.23" cy="268.75" data-y="333" data-x="2043" r="4" fill="#420A0C"><title>2043: 333</title></circle>
</g>
<g data-scenario="natural-gas" class="data-series">	<path d="M 100.00,17.02L 117.10,19.49L 134.19,22.02L 151.29,24.53L 168.39,26.41L 185.48,29.14L 202.58,31.79L 219.68,34.39L 236.77,36.91L 253.87,39.36L 270.97,41.91L 288.06,44.49L 305.16,46.91L 322.26,49.27L 339.35,51.59L 356.45,53.83L 373.55,80.01L 390.65,105.90L 407.74,131.59L 424.84,157.28L 441.94,181.15L 459.03,204.95L 476.13,228.71L 493.23,252.40" id="Natural gas" class="line" stroke="#B8BFF9" stroke-width="3" stroke-linecap="round"><title>Natural gas</title></path>
	<circle cx="100.00" cy="17.02" data-y="67140" data-x="2020" r="4" fill="#B8BFF9"><title>2020: 67140</title></circle>
	<circle cx="117.10" cy="19.49" data-y="66485" data-x="2021" r="4" fill="#B8BFF9"><title>2021: 66485</title></circle>
	<circle cx="134.19" cy="22.02" data-y="65815" data-x="2022" r="4" fill="#B8BFF9"><title>2022: 65815</title></circle>
	<circle cx="151.29" cy="24.53" data-y="65147" data-x="2023" r="4" fill="#B8BFF9"><title>2023: 65147</title></circle>
	<circle cx="168.39" cy="26.41" data-y="64650" data-x="2024" r="4" fill="#B8BFF9"><title>2024: 64650</title></circle>
	<circle cx="185.48" cy="29.14" data-y="63924" data-x="2025" r="4" fill="#B8BFF9"><title>2025: 63924</title></circle>
	<circle cx="202.58" cy="31.79" data-y="63220" data-x="2026" r="4" fill="#B8BFF9"><title>2026: 63220</title></circle>
	<circle cx="219.68" cy="34.39" data-y="62531" data-x="2027" r="4" fill="#B8BFF9"><title>2027: 62531</title></circle>
	<circle cx="236.77" cy="36.91" data-y="61862" data-x="2028" r="4" fill="#B8BFF9"><title>2028: 61862</title></circle>
	<circle cx="253.87" cy="39.36" data-y="61211" data-x="2029" r="4" fill="#B8BFF9"><title>2029: 61211</title></circle>
	<circle cx="270.97" cy="41.91" data-y="60535" data-x="2030" r="4" fill="#B8BFF9"><title>2030: 60535</title></circle>
	<circle cx="288.06" cy="44.49" data-y="59851" data-x="2031" r="4" fill="#B8BFF9"><title>2031: 59851</title></circle>
	<circle cx="305.16" cy="46.91" data-y="59208" data-x="2032" r="4" fill="#B8BFF9"><title>2032: 59208</title></circle>
	<circle cx="322.26" cy="49.27" data-y="58583" data-x="2033" r="4" fill="#B8BFF9"><title>2033: 58583</title></circle>
	<circle cx="339.35" cy="51.59" data-y="57967" data-x="2034" r="4" fill="#B8BFF9"><title>2034: 57967</title></circle>
	<circle cx="356.45" cy="53.83" data-y="57372" data-x="2035" r="4" fill="#B8BFF9"><title>2035: 57372</title></circle>
	<circle cx="373.55" cy="80.01" data-y="50424" data-x="2036" r="4" fill="#B8BFF9"><title>2036: 50424</title></circle>
	<circle cx="390.65" cy="105.90" data-y="43553" data-x="2037" r="4" fill="#B8BFF9"><title>2037: 43553</title></circle>
	<circle cx="407.74" cy="131.59" data-y="36735" data-x="2038" r="4" fill="#B8BFF9"><title>2038: 36735</title></circle>
	<circle cx="424.84" cy="157.28" data-y="29916" data-x="2039" r="4" fill="#B8BFF9"><title>2039: 29916</title></circle>
	<circle cx="441.94" cy="181.15" data-y="23581" data-x="2040" r="4" fill="#B8BFF9"><title>2040: 23581</title></circle>
	<circle cx="459.03" cy="204.95" data-y="17263" data-x="2041" r="4" fill="#B8BFF9"><title>2041: 17263</title></circle>
	<circle cx="476.13" cy="228.71" data-y="10959" data-x="2042" r="4" fill="#B8BFF9"><title>2042: 10959</title></circle>
	<circle cx="493.23" cy="252.40" data-y="4670" data-x="2043" r="4" fill="#B8BFF9"><title>2043: 4670</title></circle>
</g>
<g data-scenario="hydrogen" class="data-series">	<path d="M 100.00,269.99L 117.10,269.98L 134.19,269.97L 151.29,269.96L 168.39,269.95L 185.48,269.94L 202.58,269.91L 219.68,269.85L 236.77,269.77L 253.87,269.68L 270.97,269.53L 288.06,269.24L 305.16,268.84L 322.26,268.32L 339.35,267.70L 356.45,266.59L 373.55,241.12L 390.65,215.54L 407.74,189.79L 424.84,164.02L 441.94,137.91L 459.03,112.00L 476.13,86.44L 493.23,61.24L 510.32,36.41L 527.42,11.92L 544.52,11.39L 561.61,10.94L 578.71,10.56L 595.81,10.24L 612.90,10.00" id="Hydrogen" class="line" stroke="#0279FA" stroke-width="3" stroke-linecap="round"><title>Hydrogen</title></path>
	<circle cx="100.00" cy="269.99" data-y="2" data-x="2020" r="4" fill="#0279FA"><title>2020: 2</title></circle>
	<circle cx="117.10" cy="269.98" data-y="5" data-x="2021" r="4" fill="#0279FA"><title>2021: 5</title></circle>
	<circle cx="134.19" cy="269.97" data-y="9" data-x="2022" r="4" fill="#0279FA"><title>2022: 9</title></circle>
	<circle cx="151.29" cy="269.96" data-y="11" data-x="2023" r="4" fill="#0279FA"><title>2023: 11</title></circle>
	<circle cx="168.39" cy="269.95" data-y="13" data-x="2024" r="4" fill="#0279FA"><title>2024: 13</title></circle>
	<circle cx="185.48" cy="269.94" data-y="16" data-x="2025" r="4" fill="#0279FA"><title>2025: 16</title></circle>
	<circle cx="202.58" cy="269.91" data-y="25" data-x="2026" r="4" fill="#0279FA"><title>2026: 25</title></circle>
	<circle cx="219.68" cy="269.85" data-y="40" data-x="2027" r="4" fill="#0279FA"><title>2027: 40</title></circle>
	<circle cx="236.77" cy="269.77" data-y="60" data-x="2028" r="4" fill="#0279FA"><title>2028: 60</title></circle>
	<circle cx="253.87" cy="269.68" data-y="84" data-x="2029" r="4" fill="#0279FA"><title>2029: 84</title></circle>
	<circle cx="270.97" cy="269.53" data-y="126" data-x="2030" r="4" fill="#0279FA"><title>2030: 126</title></circle>
	<circle cx="288.06" cy="269.24" data-y="201" data-x="2031" r="4" fill="#0279FA"><title>2031: 201</title></circle>
	<circle cx="305.16" cy="268.84" data-y="308" data-x="2032" r="4" fill="#0279FA"><title>2032: 308</title></circle>
	<circle cx="322.26" cy="268.32" data-y="445" data-x="2033" r="4" fill="#0279FA"><title>2033: 445</title></circle>
	<circle cx="339.35" cy="267.70" data-y="611" data-x="2034" r="4" fill="#0279FA"><title>2034: 611</title></circle>
	<circle cx="356.45" cy="266.59" data-y="906" data-x="2035" r="4" fill="#0279FA"><title>2035: 906</title></circle>
	<circle cx="373.55" cy="241.12" data-y="7664" data-x="2036" r="4" fill="#0279FA"><title>2036: 7664</title></circle>
	<circle cx="390.65" cy="215.54" data-y="14454" data-x="2037" r="4" fill="#0279FA"><title>2037: 14454</title></circle>
	<circle cx="407.74" cy="189.79" data-y="21287" data-x="2038" r="4" fill="#0279FA"><title>2038: 21287</title></circle>
	<circle cx="424.84" cy="164.02" data-y="28128" data-x="2039" r="4" fill="#0279FA"><title>2039: 28128</title></circle>
	<circle cx="441.94" cy="137.91" data-y="35058" data-x="2040" r="4" fill="#0279FA"><title>2040: 35058</title></circle>
	<circle cx="459.03" cy="112.00" data-y="41934" data-x="2041" r="4" fill="#0279FA"><title>2041: 41934</title></circle>
	<circle cx="476.13" cy="86.44" data-y="48717" data-x="2042" r="4" fill="#0279FA"><title>2042: 48717</title></circle>
	<circle cx="493.23" cy="61.24" data-y="55405" data-x="2043" r="4" fill="#0279FA"><title>2043: 55405</title></circle>
	<circle cx="510.32" cy="36.41" data-y="61996" data-x="2044" r="4" fill="#0279FA"><title>2044: 61996</title></circle>
	<circle cx="527.42" cy="11.92" data-y="68494" data-x="2045" r="4" fill="#0279FA"><title>2045: 68494</title></circle>
	<circle cx="544.52" cy="11.39" data-y="68636" data-x="2046" r="4" fill="#0279FA"><title>2046: 68636</title></circle>
	<circle cx="561.61" cy="10.94" data-y="68755" data-x="2047" r="4" fill="#0279FA"><title>2047: 68755</title></circle>
	<circle cx="578.71" cy="10.56" data-y="68855" data-x="2048" r="4" fill="#0279FA"><title>2048: 68855</title></circle>
	<circle cx="595.81" cy="10.24" data-y="68939" data-x="2049" r="4" fill="#0279FA"><title>2049: 68939</title></circle>
	<circle cx="612.90" cy="10.00" data-y="69004" data-x="2050" r="4" fill="#0279FA"><title>2050: 69004</title></circle>
</g>
<g data-scenario="bioenergy" class="data-series">	<path d="M 100.00,264.84L 117.10,263.43L 134.19,262.03L 151.29,260.63L 168.39,259.22L 185.48,257.86L 202.58,256.56L 219.68,255.51L 236.77,254.47L 253.87,253.48L 270.97,251.98L 288.06,250.46L 305.16,248.86L 322.26,247.03L 339.35,245.23L 356.45,243.42L 373.55,241.61L 390.65,239.82L 407.74,238.04L 424.84,236.27L 441.94,235.95L 459.03,235.64L 476.13,235.34L 493.23,235.06L 510.32,240.84L 527.42,264.61L 544.52,264.82L 561.61,265.02L 578.71,265.22L 595.81,265.43L 612.90,265.63" id="Bioenergy" class="line" stroke="#019303" stroke-width="3" stroke-linecap="round"><title>Bioenergy</title></path>
	<circle cx="100.00" cy="264.84" data-y="1369" data-x="2020" r="4" fill="#019303"><title>2020: 1369</title></circle>
	<circle cx="117.10" cy="263.43" data-y="1743" data-x="2021" r="4" fill="#019303"><title>2021: 1743</title></circle>
	<circle cx="134.19" cy="262.03" data-y="2115" data-x="2022" r="4" fill="#019303"><title>2022: 2115</title></circle>
	<circle cx="151.29" cy="260.63" data-y="2487" data-x="2023" r="4" fill="#019303"><title>2023: 2487</title></circle>
	<circle cx="168.39" cy="259.22" data-y="2860" data-x="2024" r="4" fill="#019303"><title>2024: 2860</title></circle>
	<circle cx="185.48" cy="257.86" data-y="3222" data-x="2025" r="4" fill="#019303"><title>2025: 3222</title></circle>
	<circle cx="202.58" cy="256.56" data-y="3567" data-x="2026" r="4" fill="#019303"><title>2026: 3567</title></circle>
	<circle cx="219.68" cy="255.51" data-y="3845" data-x="2027" r="4" fill="#019303"><title>2027: 3845</title></circle>
	<circle cx="236.77" cy="254.47" data-y="4122" data-x="2028" r="4" fill="#019303"><title>2028: 4122</title></circle>
	<circle cx="253.87" cy="253.48" data-y="4385" data-x="2029" r="4" fill="#019303"><title>2029: 4385</title></circle>
	<circle cx="270.97" cy="251.98" data-y="4783" data-x="2030" r="4" fill="#019303"><title>2030: 4783</title></circle>
	<circle cx="288.06" cy="250.46" data-y="5187" data-x="2031" r="4" fill="#019303"><title>2031: 5187</title></circle>
	<circle cx="305.16" cy="248.86" data-y="5611" data-x="2032" r="4" fill="#019303"><title>2032: 5611</title></circle>
	<circle cx="322.26" cy="247.03" data-y="6095" data-x="2033" r="4" fill="#019303"><title>2033: 6095</title></circle>
	<circle cx="339.35" cy="245.23" data-y="6574" data-x="2034" r="4" fill="#019303"><title>2034: 6574</title></circle>
	<circle cx="356.45" cy="243.42" data-y="7055" data-x="2035" r="4" fill="#019303"><title>2035: 7055</title></circle>
	<circle cx="373.55" cy="241.61" data-y="7534" data-x="2036" r="4" fill="#019303"><title>2036: 7534</title></circle>
	<circle cx="390.65" cy="239.82" data-y="8010" data-x="2037" r="4" fill="#019303"><title>2037: 8010</title></circle>
	<circle cx="407.74" cy="238.04" data-y="8483" data-x="2038" r="4" fill="#019303"><title>2038: 8483</title></circle>
	<circle cx="424.84" cy="236.27" data-y="8951" data-x="2039" r="4" fill="#019303"><title>2039: 8951</title></circle>
	<circle cx="441.94" cy="235.95" data-y="9038" data-x="2040" r="4" fill="#019303"><title>2040: 9038</title></circle>
	<circle cx="459.03" cy="235.64" data-y="9120" data-x="2041" r="4" fill="#019303"><title>2041: 9120</title></circle>
	<circle cx="476.13" cy="235.34" data-y="9199" data-x="2042" r="4" fill="#019303"><title>2042: 9199</title></circle>
	<circle cx="493.23" cy="235.06" data-y="9274" data-x="2043" r="4" fill="#019303"><title>2043: 9274</title></circle>
	<circle cx="510.32" cy="240.84" data-y="7740" data-x="2044" r="4" fill="#019303"><title>2044: 7740</title></circle>
	<circle cx="527.42" cy="264.61" data-y="1430" data-x="2045" r="4" fill="#019303"><title>2045: 1430</title></circle>
	<circle cx="544.52" cy="264.82" data-y="1376" data-x="2046" r="4" fill="#019303"><title>2046: 1376</title></circle>
	<circle cx="561.61" cy="265.02" data-y="1322" data-x="2047" r="4" fill="#019303"><title>2047: 1322</title></circle>
	<circle cx="578.71" cy="265.22" data-y="1268" data-x="2048" r="4" fill="#019303"><title>2048: 1268</title></circle>
	<circle cx="595.81" cy="265.43" data-y="1214" data-x="2049" r="4" fill="#019303"><title>2049: 1214</title></circle>
	<circle cx="612.90" cy="265.63" data-y="1161" data-x="2050" r="4" fill="#019303"><title>2050: 1161</title></circle>
</g>
<g data-scenario="petrol" class="data-series">	<path d="M 100.00,187.03L 117.10,187.96L 134.19,189.45L 151.29,193.26L 168.39,198.23L 185.48,204.42L 202.58,211.42L 219.68,217.65L 236.77,223.29L 253.87,228.59L 270.97,233.64L 288.06,238.10L 305.16,242.10L 322.26,245.44L 339.35,248.43L 356.45,251.28L 373.55,254.07L 390.65,256.93L 407.74,259.40L 424.84,261.31L 441.94,262.93L 459.03,264.28L 476.13,265.43L 493.23,266.39L 510.32,267.20L 527.42,267.87L 544.52,268.42L 561.61,268.85L 578.71,269.18L 595.81,269.43L 612.90,269.61" id="Petrol" class="line" stroke="#FFC300" stroke-width="3" stroke-linecap="round"><title>Petrol</title></path>
	<circle cx="100.00" cy="187.03" data-y="22020" data-x="2020" r="4" fill="#FFC300"><title>2020: 22020</title></circle>
	<circle cx="117.10" cy="187.96" data-y="21773" data-x="2021" r="4" fill="#FFC300"><title>2021: 21773</title></circle>
	<circle cx="134.19" cy="189.45" data-y="21377" data-x="2022" r="4" fill="#FFC300"><title>2022: 21377</title></circle>
	<circle cx="151.29" cy="193.26" data-y="20366" data-x="2023" r="4" fill="#FFC300"><title>2023: 20366</title></circle>
	<circle cx="168.39" cy="198.23" data-y="19049" data-x="2024" r="4" fill="#FFC300"><title>2024: 19049</title></circle>
	<circle cx="185.48" cy="204.42" data-y="17406" data-x="2025" r="4" fill="#FFC300"><title>2025: 17406</title></circle>
	<circle cx="202.58" cy="211.42" data-y="15548" data-x="2026" r="4" fill="#FFC300"><title>2026: 15548</title></circle>
	<circle cx="219.68" cy="217.65" data-y="13893" data-x="2027" r="4" fill="#FFC300"><title>2027: 13893</title></circle>
	<circle cx="236.77" cy="223.29" data-y="12398" data-x="2028" r="4" fill="#FFC300"><title>2028: 12398</title></circle>
	<circle cx="253.87" cy="228.59" data-y="10989" data-x="2029" r="4" fill="#FFC300"><title>2029: 10989</title></circle>
	<circle cx="270.97" cy="233.64" data-y="9650" data-x="2030" r="4" fill="#FFC300"><title>2030: 9650</title></circle>
	<circle cx="288.06" cy="238.10" data-y="8466" data-x="2031" r="4" fill="#FFC300"><title>2031: 8466</title></circle>
	<circle cx="305.16" cy="242.10" data-y="7404" data-x="2032" r="4" fill="#FFC300"><title>2032: 7404</title></circle>
	<circle cx="322.26" cy="245.44" data-y="6517" data-x="2033" r="4" fill="#FFC300"><title>2033: 6517</title></circle>
	<circle cx="339.35" cy="248.43" data-y="5726" data-x="2034" r="4" fill="#FFC300"><title>2034: 5726</title></circle>
	<circle cx="356.45" cy="251.28" data-y="4969" data-x="2035" r="4" fill="#FFC300"><title>2035: 4969</title></circle>
	<circle cx="373.55" cy="254.07" data-y="4228" data-x="2036" r="4" fill="#FFC300"><title>2036: 4228</title></circle>
	<circle cx="390.65" cy="256.93" data-y="3468" data-x="2037" r="4" fill="#FFC300"><title>2037: 3468</title></circle>
	<circle cx="407.74" cy="259.40" data-y="2813" data-x="2038" r="4" fill="#FFC300"><title>2038: 2813</title></circle>
	<circle cx="424.84" cy="261.31" data-y="2305" data-x="2039" r="4" fill="#FFC300"><title>2039: 2305</title></circle>
	<circle cx="441.94" cy="262.93" data-y="1876" data-x="2040" r="4" fill="#FFC300"><title>2040: 1876</title></circle>
	<circle cx="459.03" cy="264.28" data-y="1518" data-x="2041" r="4" fill="#FFC300"><title>2041: 1518</title></circle>
	<circle cx="476.13" cy="265.43" data-y="1214" data-x="2042" r="4" fill="#FFC300"><title>2042: 1214</title></circle>
	<circle cx="493.23" cy="266.39" data-y="958" data-x="2043" r="4" fill="#FFC300"><title>2043: 958</title></circle>
	<circle cx="510.32" cy="267.20" data-y="744" data-x="2044" r="4" fill="#FFC300"><title>2044: 744</title></circle>
	<circle cx="527.42" cy="267.87" data-y="565" data-x="2045" r="4" fill="#FFC300"><title>2045: 565</title></circle>
	<circle cx="544.52" cy="268.42" data-y="420" data-x="2046" r="4" fill="#FFC300"><title>2046: 420</title></circle>
	<circle cx="561.61" cy="268.85" data-y="305" data-x="2047" r="4" fill="#FFC300"><title>2047: 305</title></circle>
	<circle cx="578.71" cy="269.18" data-y="218" data-x="2048" r="4" fill="#FFC300"><title>2048: 218</title></circle>
	<circle cx="595.81" cy="269.43" data-y="152" data-x="2049" r="4" fill="#FFC300"><title>2049: 152</title></circle>
	<circle cx="612.90" cy="269.61" data-y="104" data-x="2050" r="4" fill="#FFC300"><title>2050: 104</title></circle>
</g>
<g data-scenario="diesel" class="data-series">	<path d="M 100.00,98.85L 117.10,97.87L 134.19,97.12L 151.29,98.24L 168.39,101.17L 185.48,106.48L 202.58,115.13L 219.68,123.46L 236.77,132.24L 253.87,141.27L 270.97,150.37L 288.06,159.78L 305.16,169.53L 322.26,179.24L 339.35,188.85L 356.45,198.38L 373.55,206.85L 390.65,215.15L 407.74,222.89L 424.84,230.20L 441.94,236.93L 459.03,242.84L 476.13,248.14L 493.23,252.89L 510.32,257.07L 527.42,260.75L 544.52,263.56L 561.61,265.75L 578.71,267.33L 595.81,268.45L 612.90,269.11" id="Diesel" class="line" stroke="#846F3F" stroke-width="3" stroke-linecap="round"><title>Diesel</title></path>
	<circle cx="100.00" cy="98.85" data-y="45422" data-x="2020" r="4" fill="#846F3F"><title>2020: 45422</title></circle>
	<circle cx="117.10" cy="97.87" data-y="45683" data-x="2021" r="4" fill="#846F3F"><title>2021: 45683</title></circle>
	<circle cx="134.19" cy="97.12" data-y="45883" data-x="2022" r="4" fill="#846F3F"><title>2022: 45883</title></circle>
	<circle cx="151.29" cy="98.24" data-y="45585" data-x="2023" r="4" fill="#846F3F"><title>2023: 45585</title></circle>
	<circle cx="168.39" cy="101.17" data-y="44808" data-x="2024" r="4" fill="#846F3F"><title>2024: 44808</title></circle>
	<circle cx="185.48" cy="106.48" data-y="43398" data-x="2025" r="4" fill="#846F3F"><title>2025: 43398</title></circle>
	<circle cx="202.58" cy="115.13" data-y="41103" data-x="2026" r="4" fill="#846F3F"><title>2026: 41103</title></circle>
	<circle cx="219.68" cy="123.46" data-y="38892" data-x="2027" r="4" fill="#846F3F"><title>2027: 38892</title></circle>
	<circle cx="236.77" cy="132.24" data-y="36562" data-x="2028" r="4" fill="#846F3F"><title>2028: 36562</title></circle>
	<circle cx="253.87" cy="141.27" data-y="34166" data-x="2029" r="4" fill="#846F3F"><title>2029: 34166</title></circle>
	<circle cx="270.97" cy="150.37" data-y="31751" data-x="2030" r="4" fill="#846F3F"><title>2030: 31751</title></circle>
	<circle cx="288.06" cy="159.78" data-y="29252" data-x="2031" r="4" fill="#846F3F"><title>2031: 29252</title></circle>
	<circle cx="305.16" cy="169.53" data-y="26664" data-x="2032" r="4" fill="#846F3F"><title>2032: 26664</title></circle>
	<circle cx="322.26" cy="179.24" data-y="24088" data-x="2033" r="4" fill="#846F3F"><title>2033: 24088</title></circle>
	<circle cx="339.35" cy="188.85" data-y="21538" data-x="2034" r="4" fill="#846F3F"><title>2034: 21538</title></circle>
	<circle cx="356.45" cy="198.38" data-y="19007" data-x="2035" r="4" fill="#846F3F"><title>2035: 19007</title></circle>
	<circle cx="373.55" cy="206.85" data-y="16761" data-x="2036" r="4" fill="#846F3F"><title>2036: 16761</title></circle>
	<circle cx="390.65" cy="215.15" data-y="14557" data-x="2037" r="4" fill="#846F3F"><title>2037: 14557</title></circle>
	<circle cx="407.74" cy="222.89" data-y="12502" data-x="2038" r="4" fill="#846F3F"><title>2038: 12502</title></circle>
	<circle cx="424.84" cy="230.20" data-y="10562" data-x="2039" r="4" fill="#846F3F"><title>2039: 10562</title></circle>
	<circle cx="441.94" cy="236.93" data-y="8777" data-x="2040" r="4" fill="#846F3F"><title>2040: 8777</title></circle>
	<circle cx="459.03" cy="242.84" data-y="7209" data-x="2041" r="4" fill="#846F3F"><title>2041: 7209</title></circle>
	<circle cx="476.13" cy="248.14" data-y="5802" data-x="2042" r="4" fill="#846F3F"><title>2042: 5802</title></circle>
	<circle cx="493.23" cy="252.89" data-y="4542" data-x="2043" r="4" fill="#846F3F"><title>2043: 4542</title></circle>
	<circle cx="510.32" cy="257.07" data-y="3431" data-x="2044" r="4" fill="#846F3F"><title>2044: 3431</title></circle>
	<circle cx="527.42" cy="260.75" data-y="2456" data-x="2045" r="4" fill="#846F3F"><title>2045: 2456</title></circle>
	<circle cx="544.52" cy="263.56" data-y="1710" data-x="2046" r="4" fill="#846F3F"><title>2046: 1710</title></circle>
	<circle cx="561.61" cy="265.75" data-y="1129" data-x="2047" r="4" fill="#846F3F"><title>2047: 1129</title></circle>
	<circle cx="578.71" cy="267.33" data-y="708" data-x="2048" r="4" fill="#846F3F"><title>2048: 708</title></circle>
	<circle cx="595.81" cy="268.45" data-y="412" data-x="2049" r="4" fill="#846F3F"><title>2049: 412</title></circle>
	<circle cx="612.90" cy="269.11" data-y="236" data-x="2050" r="4" fill="#846F3F"><title>2050: 236</title></circle>
</g>
<g data-scenario="electricity" class="data-series">	<path d="M 100.00,129.19L 117.10,129.43L 134.19,129.39L 151.29,128.75L 168.39,127.62L 185.48,126.07L 202.58,124.25L 219.68,122.07L 236.77,119.42L 253.87,116.42L 270.97,112.93L 288.06,109.60L 305.16,106.15L 322.26,102.24L 339.35,97.98L 356.45,92.08L 373.55,86.35L 390.65,81.68L 407.74,77.45L 424.84,73.81L 441.94,70.51L 459.03,67.86L 476.13,65.31L 493.23,62.87L 510.32,60.52L 527.42,58.39L 544.52,56.54L 561.61,54.98L 578.71,53.73L 595.81,52.76L 612.90,52.02" id="Electricity" class="line" stroke="#cc0935" stroke-width="3" stroke-linecap="round"><title>Electricity</title></path>
	<circle cx="100.00" cy="129.19" data-y="37371" data-x="2020" r="4" fill="#cc0935"><title>2020: 37371</title></circle>
	<circle cx="117.10" cy="129.43" data-y="37307" data-x="2021" r="4" fill="#cc0935"><title>2021: 37307</title></circle>
	<circle cx="134.19" cy="129.39" data-y="37317" data-x="2022" r="4" fill="#cc0935"><title>2022: 37317</title></circle>
	<circle cx="151.29" cy="128.75" data-y="37489" data-x="2023" r="4" fill="#cc0935"><title>2023: 37489</title></circle>
	<circle cx="168.39" cy="127.62" data-y="37787" data-x="2024" r="4" fill="#cc0935"><title>2024: 37787</title></circle>
	<circle cx="185.48" cy="126.07" data-y="38199" data-x="2025" r="4" fill="#cc0935"><title>2025: 38199</title></circle>
	<circle cx="202.58" cy="124.25" data-y="38681" data-x="2026" r="4" fill="#cc0935"><title>2026: 38681</title></circle>
	<circle cx="219.68" cy="122.07" data-y="39261" data-x="2027" r="4" fill="#cc0935"><title>2027: 39261</title></circle>
	<circle cx="236.77" cy="119.42" data-y="39963" data-x="2028" r="4" fill="#cc0935"><title>2028: 39963</title></circle>
	<circle cx="253.87" cy="116.42" data-y="40760" data-x="2029" r="4" fill="#cc0935"><title>2029: 40760</title></circle>
	<circle cx="270.97" cy="112.93" data-y="41686" data-x="2030" r="4" fill="#cc0935"><title>2030: 41686</title></circle>
	<circle cx="288.06" cy="109.60" data-y="42569" data-x="2031" r="4" fill="#cc0935"><title>2031: 42569</title></circle>
	<circle cx="305.16" cy="106.15" data-y="43487" data-x="2032" r="4" fill="#cc0935"><title>2032: 43487</title></circle>
	<circle cx="322.26" cy="102.24" data-y="44524" data-x="2033" r="4" fill="#cc0935"><title>2033: 44524</title></circle>
	<circle cx="339.35" cy="97.98" data-y="45653" data-x="2034" r="4" fill="#cc0935"><title>2034: 45653</title></circle>
	<circle cx="356.45" cy="92.08" data-y="47220" data-x="2035" r="4" fill="#cc0935"><title>2035: 47220</title></circle>
	<circle cx="373.55" cy="86.35" data-y="48742" data-x="2036" r="4" fill="#cc0935"><title>2036: 48742</title></circle>
	<circle cx="390.65" cy="81.68" data-y="49980" data-x="2037" r="4" fill="#cc0935"><title>2037: 49980</title></circle>
	<circle cx="407.74" cy="77.45" data-y="51104" data-x="2038" r="4" fill="#cc0935"><title>2038: 51104</title></circle>
	<circle cx="424.84" cy="73.81" data-y="52068" data-x="2039" r="4" fill="#cc0935"><title>2039: 52068</title></circle>
	<circle cx="441.94" cy="70.51" data-y="52945" data-x="2040" r="4" fill="#cc0935"><title>2040: 52945</title></circle>
	<circle cx="459.03" cy="67.86" data-y="53649" data-x="2041" r="4" fill="#cc0935"><title>2041: 53649</title></circle>
	<circle cx="476.13" cy="65.31" data-y="54326" data-x="2042" r="4" fill="#cc0935"><title>2042: 54326</title></circle>
	<circle cx="493.23" cy="62.87" data-y="54972" data-x="2043" r="4" fill="#cc0935"><title>2043: 54972</title></circle>
	<circle cx="510.32" cy="60.52" data-y="55595" data-x="2044" r="4" fill="#cc0935"><title>2044: 55595</title></circle>
	<circle cx="527.42" cy="58.39" data-y="56161" data-x="2045" r="4" fill="#cc0935"><title>2045: 56161</title></circle>
	<circle cx="544.52" cy="56.54" data-y="56652" data-x="2046" r="4" fill="#cc0935"><title>2046: 56652</title></circle>
	<circle cx="561.61" cy="54.98" data-y="57066" data-x="2047" r="4" fill="#cc0935"><title>2047: 57066</title></circle>
	<circle cx="578.71" cy="53.73" data-y="57397" data-x="2048" r="4" fill="#cc0935"><title>2048: 57397</title></circle>
	<circle cx="595.81" cy="52.76" data-y="57655" data-x="2049" r="4" fill="#cc0935"><title>2049: 57655</title></circle>
	<circle cx="612.90" cy="52.02" data-y="57853" data-x="2050" r="4" fill="#cc0935"><title>2050: 57853</title></circle>
</g>
</svg>
