<svg width="640" height="320" viewBox="0 0 640 320" xmlns="http://www.w3.org/2000/svg" style="overflow:display" preserveAspectRatio="xMinYMin meet" overflow="visible">
<defs><style>.data-series path.line { fill-opacity: 0; }.data-series path.line.dotted { stroke-dasharray: 12 20 }.data-series circle { display: none; }.data-series:hover path.line, .data-series.on path.line { stroke-width: 5; }.data-series:hover circle, .data-series.on circle { display: inline; }.data-series circle:hover, .data-series circle.on { r: 6px!important; fill: black; }.grid { font-family: "Helvetica Neue",Helvetica,Arial,"Lucida Grande",sans-serif; }.grid line { stroke: rgb(0,0,0); stroke-width: 2; stroke-linecap: round; }.grid.grid-x text { text-anchor: middle; dominant-baseline: hanging; transform: translateY(10px); }.grid.grid-y text { text-anchor: end; dominant-baseline: middle; transform: translateX(-10px); }</style>
</defs><g class="grid grid-y"><line x1="120" y1="270" x2="630" y2="270" data-left="120"></line><text x="120" y="270" text-anchor="end">0</text><text x="120" y="195.22719429426" text-anchor="end">10</text><text x="120" y="120.454388588519" text-anchor="end">20</text><text x="120" y="45.6815828827792" text-anchor="end">30</text><text style="text-anchor:middle;dominant-baseline:hanging;font-weight:bold;transform: translateY(140px) rotate(-90deg);">Mt CO2(e)</text></g><g class="grid grid-x"><line class="tick" x1="120" y1="270" x2="120" y2="275"></line><text x="120" y="270" text-anchor="middle">2020</text><line class="tick" x1="284.516129032258" y1="270" x2="284.516129032258" y2="275"></line><text x="284.516129032258" y="270" text-anchor="middle">2030</text><line class="tick" x1="449.032258064516" y1="270" x2="449.032258064516" y2="275"></line><text x="449.032258064516" y="270" text-anchor="middle">2040</text><line class="tick" x1="613.548387096774" y1="270" x2="613.548387096774" y2="275"></line><text x="613.548387096774" y="270" text-anchor="middle">2050</text><text style="text-anchor:middle;dominant-baseline:hanging;font-weight:bold;transform: translateY(140px) rotate(-90deg);"></text></g><g data-scenario="high-hydrogen" class="data-series"><path d="M 120.00,10.00L 136.45,18.99L 152.90,23.68L 169.35,28.07L 185.81,35.05L 202.26,42.99L 218.71,53.98L 235.16,62.76L 251.61,69.18L 268.06,77.37L 284.52,86.24L 300.97,96.35L 317.42,105.63L 333.87,113.46L 350.32,121.02L 366.77,128.45L 383.23,143.78L 399.68,159.20L 416.13,174.23L 432.58,189.02L 449.03,203.05L 465.48,215.86L 481.94,228.54L 498.39,240.87L 514.84,250.65L 531.29,252.84L 547.74,254.63L 564.19,256.14L 580.65,257.26L 597.10,258.15L 613.55,258.75" id="High hydrogen" class="line" stroke="#0085CA" stroke-width="3" stroke-linecap="round"><title>High hydrogen</title></path><circle cx="120.00" cy="10.00" data-y="34.772" data-x="2020" r="4" fill="#0085CA"><title>2020: 34.772</title></circle><circle cx="136.45" cy="18.99" data-y="33.570" data-x="2021" r="4" fill="#0085CA"><title>2021: 33.570</title></circle><circle cx="152.90" cy="23.68" data-y="32.942" data-x="2022" r="4" fill="#0085CA"><title>2022: 32.942</title></circle><circle cx="169.35" cy="28.07" data-y="32.356" data-x="2023" r="4" fill="#0085CA"><title>2023: 32.356</title></circle><circle cx="185.81" cy="35.05" data-y="31.422" data-x="2024" r="4" fill="#0085CA"><title>2024: 31.422</title></circle><circle cx="202.26" cy="42.99" data-y="30.360" data-x="2025" r="4" fill="#0085CA"><title>2025: 30.360</title></circle><circle cx="218.71" cy="53.98" data-y="28.890" data-x="2026" r="4" fill="#0085CA"><title>2026: 28.890</title></circle><circle cx="235.16" cy="62.76" data-y="27.716" data-x="2027" r="4" fill="#0085CA"><title>2027: 27.716</title></circle><circle cx="251.61" cy="69.18" data-y="26.857" data-x="2028" r="4" fill="#0085CA"><title>2028: 26.857</title></circle><circle cx="268.06" cy="77.37" data-y="25.762" data-x="2029" r="4" fill="#0085CA"><title>2029: 25.762</title></circle><circle cx="284.52" cy="86.24" data-y="24.576" data-x="2030" r="4" fill="#0085CA"><title>2030: 24.576</title></circle><circle cx="300.97" cy="96.35" data-y="23.224" data-x="2031" r="4" fill="#0085CA"><title>2031: 23.224</title></circle><circle cx="317.42" cy="105.63" data-y="21.983" data-x="2032" r="4" fill="#0085CA"><title>2032: 21.983</title></circle><circle cx="333.87" cy="113.46" data-y="20.936" data-x="2033" r="4" fill="#0085CA"><title>2033: 20.936</title></circle><circle cx="350.32" cy="121.02" data-y="19.925" data-x="2034" r="4" fill="#0085CA"><title>2034: 19.925</title></circle><circle cx="366.77" cy="128.45" data-y="18.931" data-x="2035" r="4" fill="#0085CA"><title>2035: 18.931</title></circle><circle cx="383.23" cy="143.78" data-y="16.880" data-x="2036" r="4" fill="#0085CA"><title>2036: 16.880</title></circle><circle cx="399.68" cy="159.20" data-y="14.818" data-x="2037" r="4" fill="#0085CA"><title>2037: 14.818</title></circle><circle cx="416.13" cy="174.23" data-y="12.808" data-x="2038" r="4" fill="#0085CA"><title>2038: 12.808</title></circle><circle cx="432.58" cy="189.02" data-y="10.830" data-x="2039" r="4" fill="#0085CA"><title>2039: 10.830</title></circle><circle cx="449.03" cy="203.05" data-y="8.954" data-x="2040" r="4" fill="#0085CA"><title>2040: 8.954</title></circle><circle cx="465.48" cy="215.86" data-y="7.240" data-x="2041" r="4" fill="#0085CA"><title>2041: 7.240</title></circle><circle cx="481.94" cy="228.54" data-y="5.545" data-x="2042" r="4" fill="#0085CA"><title>2042: 5.545</title></circle><circle cx="498.39" cy="240.87" data-y="3.896" data-x="2043" r="4" fill="#0085CA"><title>2043: 3.896</title></circle><circle cx="514.84" cy="250.65" data-y="2.588" data-x="2044" r="4" fill="#0085CA"><title>2044: 2.588</title></circle><circle cx="531.29" cy="252.84" data-y="2.295" data-x="2045" r="4" fill="#0085CA"><title>2045: 2.295</title></circle><circle cx="547.74" cy="254.63" data-y="2.055" data-x="2046" r="4" fill="#0085CA"><title>2046: 2.055</title></circle><circle cx="564.19" cy="256.14" data-y="1.854" data-x="2047" r="4" fill="#0085CA"><title>2047: 1.854</title></circle><circle cx="580.65" cy="257.26" data-y="1.704" data-x="2048" r="4" fill="#0085CA"><title>2048: 1.704</title></circle><circle cx="597.10" cy="258.15" data-y="1.585" data-x="2049" r="4" fill="#0085CA"><title>2049: 1.585</title></circle><circle cx="613.55" cy="258.75" data-y="1.504" data-x="2050" r="4" fill="#0085CA"><title>2050: 1.504</title></circle></g>
<g data-scenario="deep-electrification" class="data-series"><path d="M 120.00,13.43L 136.45,19.65L 152.90,26.76L 169.35,31.71L 185.81,37.31L 202.26,46.86L 218.71,58.62L 235.16,68.66L 251.61,77.86L 268.06,88.51L 284.52,97.42L 300.97,106.76L 317.42,115.89L 333.87,124.42L 350.32,132.61L 366.77,146.11L 383.23,159.07L 399.68,172.09L 416.13,184.26L 432.58,195.37L 449.03,205.61L 465.48,215.28L 481.94,224.22L 498.39,233.06L 514.84,241.35L 531.29,249.39L 547.74,257.00L 564.19,263.45L 580.65,264.86L 597.10,266.10L 613.55,266.70" id="Deep electrification" class="line" stroke="#AB1236" stroke-width="3" stroke-linecap="round"><title>Deep electrification</title></path><circle cx="120.00" cy="13.43" data-y="34.313" data-x="2020" r="4" fill="#AB1236"><title>2020: 34.313</title></circle><circle cx="136.45" cy="19.65" data-y="33.481" data-x="2021" r="4" fill="#AB1236"><title>2021: 33.481</title></circle><circle cx="152.90" cy="26.76" data-y="32.530" data-x="2022" r="4" fill="#AB1236"><title>2022: 32.530</title></circle><circle cx="169.35" cy="31.71" data-y="31.868" data-x="2023" r="4" fill="#AB1236"><title>2023: 31.868</title></circle><circle cx="185.81" cy="37.31" data-y="31.119" data-x="2024" r="4" fill="#AB1236"><title>2024: 31.119</title></circle><circle cx="202.26" cy="46.86" data-y="29.842" data-x="2025" r="4" fill="#AB1236"><title>2025: 29.842</title></circle><circle cx="218.71" cy="58.62" data-y="28.270" data-x="2026" r="4" fill="#AB1236"><title>2026: 28.270</title></circle><circle cx="235.16" cy="68.66" data-y="26.927" data-x="2027" r="4" fill="#AB1236"><title>2027: 26.927</title></circle><circle cx="251.61" cy="77.86" data-y="25.696" data-x="2028" r="4" fill="#AB1236"><title>2028: 25.696</title></circle><circle cx="268.06" cy="88.51" data-y="24.272" data-x="2029" r="4" fill="#AB1236"><title>2029: 24.272</title></circle><circle cx="284.52" cy="97.42" data-y="23.080" data-x="2030" r="4" fill="#AB1236"><title>2030: 23.080</title></circle><circle cx="300.97" cy="106.76" data-y="21.832" data-x="2031" r="4" fill="#AB1236"><title>2031: 21.832</title></circle><circle cx="317.42" cy="115.89" data-y="20.611" data-x="2032" r="4" fill="#AB1236"><title>2032: 20.611</title></circle><circle cx="333.87" cy="124.42" data-y="19.469" data-x="2033" r="4" fill="#AB1236"><title>2033: 19.469</title></circle><circle cx="350.32" cy="132.61" data-y="18.374" data-x="2034" r="4" fill="#AB1236"><title>2034: 18.374</title></circle><circle cx="366.77" cy="146.11" data-y="16.569" data-x="2035" r="4" fill="#AB1236"><title>2035: 16.569</title></circle><circle cx="383.23" cy="159.07" data-y="14.835" data-x="2036" r="4" fill="#AB1236"><title>2036: 14.835</title></circle><circle cx="399.68" cy="172.09" data-y="13.094" data-x="2037" r="4" fill="#AB1236"><title>2037: 13.094</title></circle><circle cx="416.13" cy="184.26" data-y="11.467" data-x="2038" r="4" fill="#AB1236"><title>2038: 11.467</title></circle><circle cx="432.58" cy="195.37" data-y="9.981" data-x="2039" r="4" fill="#AB1236"><title>2039: 9.981</title></circle><circle cx="449.03" cy="205.61" data-y="8.611" data-x="2040" r="4" fill="#AB1236"><title>2040: 8.611</title></circle><circle cx="465.48" cy="215.28" data-y="7.318" data-x="2041" r="4" fill="#AB1236"><title>2041: 7.318</title></circle><circle cx="481.94" cy="224.22" data-y="6.123" data-x="2042" r="4" fill="#AB1236"><title>2042: 6.123</title></circle><circle cx="498.39" cy="233.06" data-y="4.940" data-x="2043" r="4" fill="#AB1236"><title>2043: 4.940</title></circle><circle cx="514.84" cy="241.35" data-y="3.832" data-x="2044" r="4" fill="#AB1236"><title>2044: 3.832</title></circle><circle cx="531.29" cy="249.39" data-y="2.756" data-x="2045" r="4" fill="#AB1236"><title>2045: 2.756</title></circle><circle cx="547.74" cy="257.00" data-y="1.739" data-x="2046" r="4" fill="#AB1236"><title>2046: 1.739</title></circle><circle cx="564.19" cy="263.45" data-y="0.876" data-x="2047" r="4" fill="#AB1236"><title>2047: 0.876</title></circle><circle cx="580.65" cy="264.86" data-y="0.687" data-x="2048" r="4" fill="#AB1236"><title>2048: 0.687</title></circle><circle cx="597.10" cy="266.10" data-y="0.522" data-x="2049" r="4" fill="#AB1236"><title>2049: 0.522</title></circle><circle cx="613.55" cy="266.70" data-y="0.441" data-x="2050" r="4" fill="#AB1236"><title>2050: 0.441</title></circle></g>
<g data-scenario="net-zero" class="data-series"><path d="M 120.00,10.91L 136.45,20.12L 152.90,26.29L 169.35,33.24L 185.81,41.76L 202.26,51.27L 218.71,63.40L 235.16,74.14L 251.61,82.76L 268.06,93.84L 284.52,108.80L 300.97,124.95L 317.42,141.35L 333.87,156.82L 350.32,171.19L 366.77,184.76L 383.23,201.75L 399.68,217.06L 416.13,230.48L 432.58,242.35L 449.03,251.91L 465.48,257.72L 481.94,259.92L 498.39,261.57L 514.84,263.06L 531.29,263.74L 547.74,264.10L 564.19,264.74L 580.65,264.97L 597.10,265.38L 613.55,265.77" id="Early net zero" class="line" stroke="#00AB84" stroke-width="3" stroke-linecap="round"><title>Early net zero</title></path><circle cx="120.00" cy="10.91" data-y="34.650" data-x="2020" r="4" fill="#00AB84"><title>2020: 34.650</title></circle><circle cx="136.45" cy="20.12" data-y="33.419" data-x="2021" r="4" fill="#00AB84"><title>2021: 33.419</title></circle><circle cx="152.90" cy="26.29" data-y="32.594" data-x="2022" r="4" fill="#00AB84"><title>2022: 32.594</title></circle><circle cx="169.35" cy="33.24" data-y="31.664" data-x="2023" r="4" fill="#00AB84"><title>2023: 31.664</title></circle><circle cx="185.81" cy="41.76" data-y="30.525" data-x="2024" r="4" fill="#00AB84"><title>2024: 30.525</title></circle><circle cx="202.26" cy="51.27" data-y="29.253" data-x="2025" r="4" fill="#00AB84"><title>2025: 29.253</title></circle><circle cx="218.71" cy="63.40" data-y="27.631" data-x="2026" r="4" fill="#00AB84"><title>2026: 27.631</title></circle><circle cx="235.16" cy="74.14" data-y="26.194" data-x="2027" r="4" fill="#00AB84"><title>2027: 26.194</title></circle><circle cx="251.61" cy="82.76" data-y="25.041" data-x="2028" r="4" fill="#00AB84"><title>2028: 25.041</title></circle><circle cx="268.06" cy="93.84" data-y="23.559" data-x="2029" r="4" fill="#00AB84"><title>2029: 23.559</title></circle><circle cx="284.52" cy="108.80" data-y="21.559" data-x="2030" r="4" fill="#00AB84"><title>2030: 21.559</title></circle><circle cx="300.97" cy="124.95" data-y="19.399" data-x="2031" r="4" fill="#00AB84"><title>2031: 19.399</title></circle><circle cx="317.42" cy="141.35" data-y="17.206" data-x="2032" r="4" fill="#00AB84"><title>2032: 17.206</title></circle><circle cx="333.87" cy="156.82" data-y="15.137" data-x="2033" r="4" fill="#00AB84"><title>2033: 15.137</title></circle><circle cx="350.32" cy="171.19" data-y="13.215" data-x="2034" r="4" fill="#00AB84"><title>2034: 13.215</title></circle><circle cx="366.77" cy="184.76" data-y="11.400" data-x="2035" r="4" fill="#00AB84"><title>2035: 11.400</title></circle><circle cx="383.23" cy="201.75" data-y="9.127" data-x="2036" r="4" fill="#00AB84"><title>2036: 9.127</title></circle><circle cx="399.68" cy="217.06" data-y="7.080" data-x="2037" r="4" fill="#00AB84"><title>2037: 7.080</title></circle><circle cx="416.13" cy="230.48" data-y="5.286" data-x="2038" r="4" fill="#00AB84"><title>2038: 5.286</title></circle><circle cx="432.58" cy="242.35" data-y="3.698" data-x="2039" r="4" fill="#00AB84"><title>2039: 3.698</title></circle><circle cx="449.03" cy="251.91" data-y="2.419" data-x="2040" r="4" fill="#00AB84"><title>2040: 2.419</title></circle><circle cx="465.48" cy="257.72" data-y="1.642" data-x="2041" r="4" fill="#00AB84"><title>2041: 1.642</title></circle><circle cx="481.94" cy="259.92" data-y="1.348" data-x="2042" r="4" fill="#00AB84"><title>2042: 1.348</title></circle><circle cx="498.39" cy="261.57" data-y="1.128" data-x="2043" r="4" fill="#00AB84"><title>2043: 1.128</title></circle><circle cx="514.84" cy="263.06" data-y="0.928" data-x="2044" r="4" fill="#00AB84"><title>2044: 0.928</title></circle><circle cx="531.29" cy="263.74" data-y="0.837" data-x="2045" r="4" fill="#00AB84"><title>2045: 0.837</title></circle><circle cx="547.74" cy="264.10" data-y="0.789" data-x="2046" r="4" fill="#00AB84"><title>2046: 0.789</title></circle><circle cx="564.19" cy="264.74" data-y="0.704" data-x="2047" r="4" fill="#00AB84"><title>2047: 0.704</title></circle><circle cx="580.65" cy="264.97" data-y="0.673" data-x="2048" r="4" fill="#00AB84"><title>2048: 0.673</title></circle><circle cx="597.10" cy="265.38" data-y="0.618" data-x="2049" r="4" fill="#00AB84"><title>2049: 0.618</title></circle><circle cx="613.55" cy="265.77" data-y="0.566" data-x="2050" r="4" fill="#00AB84"><title>2050: 0.566</title></circle></g>
</svg>
