<svg width="640" height="320" viewBox="0 0 640 320" xmlns="http://www.w3.org/2000/svg" style="overflow:display" preserveAspectRatio="xMinYMin meet" overflow="visible">
<defs><style>.data-series path.line { fill-opacity: 0; }.data-series path.line.dotted { stroke-dasharray: 12 20 }.data-series circle { display: none; }.data-series:hover path.line, .data-series.on path.line { stroke-width: 5; }.data-series:hover circle, .data-series.on circle { display: inline; }.data-series circle:hover, .data-series circle.on { r: 6px!important; fill: black; }.grid { font-family: "Helvetica Neue",Helvetica,Arial,"Lucida Grande",sans-serif; }.grid line { stroke: rgb(0,0,0); stroke-width: 2; stroke-linecap: round; }.grid.grid-x text { text-anchor: middle; dominant-baseline: hanging; transform: translateY(10px); }.grid.grid-y text { text-anchor: end; dominant-baseline: middle; transform: translateX(-10px); }</style>
</defs><g class="grid grid-y"><line x1="120" y1="270" x2="630" y2="270" data-left="120"></line><text x="120" y="270" text-anchor="end">0</text><text x="120" y="218.196418459768" text-anchor="end">1,000,000</text><text x="120" y="166.392836919536" text-anchor="end">2,000,000</text><text x="120" y="114.589255379304" text-anchor="end">3,000,000</text><text x="120" y="62.7856738390718" text-anchor="end">4,000,000</text><text x="120" y="10.9820922988397" text-anchor="end">5,000,000</text><text style="text-anchor:middle;dominant-baseline:hanging;font-weight:bold;transform: translateY(140px) rotate(-90deg);">Number</text></g><g class="grid grid-x"><line class="tick" x1="120" y1="270" x2="120" y2="275"></line><text x="120" y="270" text-anchor="middle">2020</text><line class="tick" x1="284.516129032258" y1="270" x2="284.516129032258" y2="275"></line><text x="284.516129032258" y="270" text-anchor="middle">2030</text><line class="tick" x1="449.032258064516" y1="270" x2="449.032258064516" y2="275"></line><text x="449.032258064516" y="270" text-anchor="middle">2040</text><line class="tick" x1="613.548387096774" y1="270" x2="613.548387096774" y2="275"></line><text x="613.548387096774" y="270" text-anchor="middle">2050</text><text style="text-anchor:middle;dominant-baseline:hanging;font-weight:bold;transform: translateY(140px) rotate(-90deg);"></text></g><g data-scenario="high-hydrogen" class="data-series"><path d="M 120.00,268.26L 136.45,267.13L 152.90,265.24L 169.35,261.52L 185.81,255.74L 202.26,248.63L 218.71,240.72L 235.16,231.43L 251.61,220.71L 268.06,208.62L 284.52,195.21L 300.97,183.11L 317.42,171.08L 333.87,158.55L 350.32,145.70L 366.77,130.11L 383.23,115.49L 399.68,101.90L 416.13,89.36L 432.58,77.86L 449.03,67.35L 465.48,59.83L 481.94,53.22L 498.39,47.54L 514.84,42.67L 531.29,38.73L 547.74,35.62L 564.19,33.22L 580.65,31.50L 597.10,30.40L 613.55,29.75" id="High hydrogen" class="line" stroke="#0085CA" stroke-width="3" stroke-linecap="round"><title>High hydrogen</title></path>
<circle cx="120.00" cy="268.26" data-y="33503" data-x="2020" r="4" fill="#0085CA"><title>2020: 33503</title></circle>
<circle cx="136.45" cy="267.13" data-y="55351" data-x="2021" r="4" fill="#0085CA"><title>2021: 55351</title></circle>
<circle cx="152.90" cy="265.24" data-y="91827" data-x="2022" r="4" fill="#0085CA"><title>2022: 91827</title></circle>
<circle cx="169.35" cy="261.52" data-y="163638" data-x="2023" r="4" fill="#0085CA"><title>2023: 163638</title></circle>
<circle cx="185.81" cy="255.74" data-y="275190" data-x="2024" r="4" fill="#0085CA"><title>2024: 275190</title></circle>
<circle cx="202.26" cy="248.63" data-y="412610" data-x="2025" r="4" fill="#0085CA"><title>2025: 412610</title></circle>
<circle cx="218.71" cy="240.72" data-y="565205" data-x="2026" r="4" fill="#0085CA"><title>2026: 565205</title></circle>
<circle cx="235.16" cy="231.43" data-y="744467" data-x="2027" r="4" fill="#0085CA"><title>2027: 744467</title></circle>
<circle cx="251.61" cy="220.71" data-y="951517" data-x="2028" r="4" fill="#0085CA"><title>2028: 951517</title></circle>
<circle cx="268.06" cy="208.62" data-y="1184814" data-x="2029" r="4" fill="#0085CA"><title>2029: 1184814</title></circle>
<circle cx="284.52" cy="195.21" data-y="1443687" data-x="2030" r="4" fill="#0085CA"><title>2030: 1443687</title></circle>
<circle cx="300.97" cy="183.11" data-y="1677352" data-x="2031" r="4" fill="#0085CA"><title>2031: 1677352</title></circle>
<circle cx="317.42" cy="171.08" data-y="1909513" data-x="2032" r="4" fill="#0085CA"><title>2032: 1909513</title></circle>
<circle cx="333.87" cy="158.55" data-y="2151472" data-x="2033" r="4" fill="#0085CA"><title>2033: 2151472</title></circle>
<circle cx="350.32" cy="145.70" data-y="2399484" data-x="2034" r="4" fill="#0085CA"><title>2034: 2399484</title></circle>
<circle cx="366.77" cy="130.11" data-y="2700440" data-x="2035" r="4" fill="#0085CA"><title>2035: 2700440</title></circle>
<circle cx="383.23" cy="115.49" data-y="2982613" data-x="2036" r="4" fill="#0085CA"><title>2036: 2982613</title></circle>
<circle cx="399.68" cy="101.90" data-y="3244942" data-x="2037" r="4" fill="#0085CA"><title>2037: 3244942</title></circle>
<circle cx="416.13" cy="89.36" data-y="3487024" data-x="2038" r="4" fill="#0085CA"><title>2038: 3487024</title></circle>
<circle cx="432.58" cy="77.86" data-y="3708947" data-x="2039" r="4" fill="#0085CA"><title>2039: 3708947</title></circle>
<circle cx="449.03" cy="67.35" data-y="3911973" data-x="2040" r="4" fill="#0085CA"><title>2040: 3911973</title></circle>
<circle cx="465.48" cy="59.83" data-y="4057116" data-x="2041" r="4" fill="#0085CA"><title>2041: 4057116</title></circle>
<circle cx="481.94" cy="53.22" data-y="4184573" data-x="2042" r="4" fill="#0085CA"><title>2042: 4184573</title></circle>
<circle cx="498.39" cy="47.54" data-y="4294282" data-x="2043" r="4" fill="#0085CA"><title>2043: 4294282</title></circle>
<circle cx="514.84" cy="42.67" data-y="4388212" data-x="2044" r="4" fill="#0085CA"><title>2044: 4388212</title></circle>
<circle cx="531.29" cy="38.73" data-y="4464438" data-x="2045" r="4" fill="#0085CA"><title>2045: 4464438</title></circle>
<circle cx="547.74" cy="35.62" data-y="4524319" data-x="2046" r="4" fill="#0085CA"><title>2046: 4524319</title></circle>
<circle cx="564.19" cy="33.22" data-y="4570670" data-x="2047" r="4" fill="#0085CA"><title>2047: 4570670</title></circle>
<circle cx="580.65" cy="31.50" data-y="4603951" data-x="2048" r="4" fill="#0085CA"><title>2048: 4603951</title></circle>
<circle cx="597.10" cy="30.40" data-y="4625134" data-x="2049" r="4" fill="#0085CA"><title>2049: 4625134</title></circle>
<circle cx="613.55" cy="29.75" data-y="4637666" data-x="2050" r="4" fill="#0085CA"><title>2050: 4637666</title></circle>
</g>
<g data-scenario="deep-electrification" class="data-series"><path d="M 120.00,268.26L 136.45,267.13L 152.90,265.24L 169.35,261.52L 185.81,255.74L 202.26,248.63L 218.71,240.72L 235.16,231.43L 251.61,220.71L 268.06,208.62L 284.52,195.21L 300.97,183.11L 317.42,171.08L 333.87,158.55L 350.32,145.70L 366.77,130.11L 383.23,115.49L 399.68,101.90L 416.13,89.36L 432.58,77.86L 449.03,67.35L 465.48,59.83L 481.94,53.22L 498.39,47.54L 514.84,42.67L 531.29,38.73L 547.74,35.62L 564.19,33.22L 580.65,31.50L 597.10,30.40L 613.55,29.75" id="Deep electrification" class="line" stroke="#AB1236" stroke-width="3" stroke-linecap="round"><title>Deep electrification</title></path>
<circle cx="120.00" cy="268.26" data-y="33503" data-x="2020" r="4" fill="#AB1236"><title>2020: 33503</title></circle>
<circle cx="136.45" cy="267.13" data-y="55351" data-x="2021" r="4" fill="#AB1236"><title>2021: 55351</title></circle>
<circle cx="152.90" cy="265.24" data-y="91827" data-x="2022" r="4" fill="#AB1236"><title>2022: 91827</title></circle>
<circle cx="169.35" cy="261.52" data-y="163638" data-x="2023" r="4" fill="#AB1236"><title>2023: 163638</title></circle>
<circle cx="185.81" cy="255.74" data-y="275190" data-x="2024" r="4" fill="#AB1236"><title>2024: 275190</title></circle>
<circle cx="202.26" cy="248.63" data-y="412610" data-x="2025" r="4" fill="#AB1236"><title>2025: 412610</title></circle>
<circle cx="218.71" cy="240.72" data-y="565205" data-x="2026" r="4" fill="#AB1236"><title>2026: 565205</title></circle>
<circle cx="235.16" cy="231.43" data-y="744467" data-x="2027" r="4" fill="#AB1236"><title>2027: 744467</title></circle>
<circle cx="251.61" cy="220.71" data-y="951517" data-x="2028" r="4" fill="#AB1236"><title>2028: 951517</title></circle>
<circle cx="268.06" cy="208.62" data-y="1184814" data-x="2029" r="4" fill="#AB1236"><title>2029: 1184814</title></circle>
<circle cx="284.52" cy="195.21" data-y="1443687" data-x="2030" r="4" fill="#AB1236"><title>2030: 1443687</title></circle>
<circle cx="300.97" cy="183.11" data-y="1677352" data-x="2031" r="4" fill="#AB1236"><title>2031: 1677352</title></circle>
<circle cx="317.42" cy="171.08" data-y="1909513" data-x="2032" r="4" fill="#AB1236"><title>2032: 1909513</title></circle>
<circle cx="333.87" cy="158.55" data-y="2151472" data-x="2033" r="4" fill="#AB1236"><title>2033: 2151472</title></circle>
<circle cx="350.32" cy="145.70" data-y="2399484" data-x="2034" r="4" fill="#AB1236"><title>2034: 2399484</title></circle>
<circle cx="366.77" cy="130.11" data-y="2700440" data-x="2035" r="4" fill="#AB1236"><title>2035: 2700440</title></circle>
<circle cx="383.23" cy="115.49" data-y="2982613" data-x="2036" r="4" fill="#AB1236"><title>2036: 2982613</title></circle>
<circle cx="399.68" cy="101.90" data-y="3244942" data-x="2037" r="4" fill="#AB1236"><title>2037: 3244942</title></circle>
<circle cx="416.13" cy="89.36" data-y="3487024" data-x="2038" r="4" fill="#AB1236"><title>2038: 3487024</title></circle>
<circle cx="432.58" cy="77.86" data-y="3708947" data-x="2039" r="4" fill="#AB1236"><title>2039: 3708947</title></circle>
<circle cx="449.03" cy="67.35" data-y="3911973" data-x="2040" r="4" fill="#AB1236"><title>2040: 3911973</title></circle>
<circle cx="465.48" cy="59.83" data-y="4057116" data-x="2041" r="4" fill="#AB1236"><title>2041: 4057116</title></circle>
<circle cx="481.94" cy="53.22" data-y="4184573" data-x="2042" r="4" fill="#AB1236"><title>2042: 4184573</title></circle>
<circle cx="498.39" cy="47.54" data-y="4294282" data-x="2043" r="4" fill="#AB1236"><title>2043: 4294282</title></circle>
<circle cx="514.84" cy="42.67" data-y="4388212" data-x="2044" r="4" fill="#AB1236"><title>2044: 4388212</title></circle>
<circle cx="531.29" cy="38.73" data-y="4464438" data-x="2045" r="4" fill="#AB1236"><title>2045: 4464438</title></circle>
<circle cx="547.74" cy="35.62" data-y="4524319" data-x="2046" r="4" fill="#AB1236"><title>2046: 4524319</title></circle>
<circle cx="564.19" cy="33.22" data-y="4570670" data-x="2047" r="4" fill="#AB1236"><title>2047: 4570670</title></circle>
<circle cx="580.65" cy="31.50" data-y="4603951" data-x="2048" r="4" fill="#AB1236"><title>2048: 4603951</title></circle>
<circle cx="597.10" cy="30.40" data-y="4625134" data-x="2049" r="4" fill="#AB1236"><title>2049: 4625134</title></circle>
<circle cx="613.55" cy="29.75" data-y="4637666" data-x="2050" r="4" fill="#AB1236"><title>2050: 4637666</title></circle>
</g>
<g data-scenario="net-zero" class="data-series"><path d="M 120.00,268.18L 136.45,266.82L 152.90,264.09L 169.35,258.64L 185.81,251.56L 202.26,242.58L 218.71,232.62L 235.16,221.05L 251.61,207.84L 268.06,193.27L 284.52,174.22L 300.97,155.82L 317.42,137.98L 333.87,120.87L 350.32,104.65L 366.77,89.46L 383.23,75.49L 399.68,62.74L 416.13,51.24L 432.58,40.99L 449.03,31.99L 465.48,26.33L 481.94,21.78L 498.39,18.25L 514.84,15.58L 531.29,13.60L 547.74,12.22L 564.19,11.26L 580.65,10.65L 597.10,10.25L 613.55,10.00" id="Early net zero" class="line" stroke="#00AB84" stroke-width="3" stroke-linecap="round"><title>Early net zero</title></path>
<circle cx="120.00" cy="268.18" data-y="35149" data-x="2020" r="4" fill="#00AB84"><title>2020: 35149</title></circle>
<circle cx="136.45" cy="266.82" data-y="61471" data-x="2021" r="4" fill="#00AB84"><title>2021: 61471</title></circle>
<circle cx="152.90" cy="264.09" data-y="114154" data-x="2022" r="4" fill="#00AB84"><title>2022: 114154</title></circle>
<circle cx="169.35" cy="258.64" data-y="219314" data-x="2023" r="4" fill="#00AB84"><title>2023: 219314</title></circle>
<circle cx="185.81" cy="251.56" data-y="355969" data-x="2024" r="4" fill="#00AB84"><title>2024: 355969</title></circle>
<circle cx="202.26" cy="242.58" data-y="529217" data-x="2025" r="4" fill="#00AB84"><title>2025: 529217</title></circle>
<circle cx="218.71" cy="232.62" data-y="721549" data-x="2026" r="4" fill="#00AB84"><title>2026: 721549</title></circle>
<circle cx="235.16" cy="221.05" data-y="944994" data-x="2027" r="4" fill="#00AB84"><title>2027: 944994</title></circle>
<circle cx="251.61" cy="207.84" data-y="1199944" data-x="2028" r="4" fill="#00AB84"><title>2028: 1199944</title></circle>
<circle cx="268.06" cy="193.27" data-y="1481237" data-x="2029" r="4" fill="#00AB84"><title>2029: 1481237</title></circle>
<circle cx="284.52" cy="174.22" data-y="1848921" data-x="2030" r="4" fill="#00AB84"><title>2030: 1848921</title></circle>
<circle cx="300.97" cy="155.82" data-y="2204044" data-x="2031" r="4" fill="#00AB84"><title>2031: 2204044</title></circle>
<circle cx="317.42" cy="137.98" data-y="2548384" data-x="2032" r="4" fill="#00AB84"><title>2032: 2548384</title></circle>
<circle cx="333.87" cy="120.87" data-y="2878804" data-x="2033" r="4" fill="#00AB84"><title>2033: 2878804</title></circle>
<circle cx="350.32" cy="104.65" data-y="3191889" data-x="2034" r="4" fill="#00AB84"><title>2034: 3191889</title></circle>
<circle cx="366.77" cy="89.46" data-y="3485121" data-x="2035" r="4" fill="#00AB84"><title>2035: 3485121</title></circle>
<circle cx="383.23" cy="75.49" data-y="3754707" data-x="2036" r="4" fill="#00AB84"><title>2036: 3754707</title></circle>
<circle cx="399.68" cy="62.74" data-y="4000970" data-x="2037" r="4" fill="#00AB84"><title>2037: 4000970</title></circle>
<circle cx="416.13" cy="51.24" data-y="4222858" data-x="2038" r="4" fill="#00AB84"><title>2038: 4222858</title></circle>
<circle cx="432.58" cy="40.99" data-y="4420771" data-x="2039" r="4" fill="#00AB84"><title>2039: 4420771</title></circle>
<circle cx="449.03" cy="31.99" data-y="4594565" data-x="2040" r="4" fill="#00AB84"><title>2040: 4594565</title></circle>
<circle cx="465.48" cy="26.33" data-y="4703758" data-x="2041" r="4" fill="#00AB84"><title>2041: 4703758</title></circle>
<circle cx="481.94" cy="21.78" data-y="4791524" data-x="2042" r="4" fill="#00AB84"><title>2042: 4791524</title></circle>
<circle cx="498.39" cy="18.25" data-y="4859623" data-x="2043" r="4" fill="#00AB84"><title>2043: 4859623</title></circle>
<circle cx="514.84" cy="15.58" data-y="4911257" data-x="2044" r="4" fill="#00AB84"><title>2044: 4911257</title></circle>
<circle cx="531.29" cy="13.60" data-y="4949503" data-x="2045" r="4" fill="#00AB84"><title>2045: 4949503</title></circle>
<circle cx="547.74" cy="12.22" data-y="4976130" data-x="2046" r="4" fill="#00AB84"><title>2046: 4976130</title></circle>
<circle cx="564.19" cy="11.26" data-y="4994624" data-x="2047" r="4" fill="#00AB84"><title>2047: 4994624</title></circle>
<circle cx="580.65" cy="10.65" data-y="5006505" data-x="2048" r="4" fill="#00AB84"><title>2048: 5006505</title></circle>
<circle cx="597.10" cy="10.25" data-y="5014222" data-x="2049" r="4" fill="#00AB84"><title>2049: 5014222</title></circle>
<circle cx="613.55" cy="10.00" data-y="5018958" data-x="2050" r="4" fill="#00AB84"><title>2050: 5018958</title></circle>
</g>
</svg>
