<svg width="640" height="320" viewBox="0 0 640 320" xmlns="http://www.w3.org/2000/svg" style="overflow:display" preserveAspectRatio="xMinYMin meet" overflow="visible">
<defs><style>.data-series path.line { fill-opacity: 0; }.data-series path.line.dotted { stroke-dasharray: 12 20 }.data-series circle { display: none; }.data-series:hover path.line, .data-series.on path.line { stroke-width: 5; }.data-series:hover circle, .data-series.on circle { display: inline; }.data-series circle:hover, .data-series circle.on { r: 6px!important; fill: black; }.grid { font-family: "Helvetica Neue",Helvetica,Arial,"Lucida Grande",sans-serif; }.grid line { stroke: rgb(0,0,0); stroke-width: 2; stroke-linecap: round; }.grid.grid-x text { text-anchor: middle; dominant-baseline: hanging; transform: translateY(10px); }.grid.grid-y text { text-anchor: end; dominant-baseline: middle; transform: translateX(-10px); }</style>
</defs><g class="grid grid-y"><line x1="80" y1="270" x2="630" y2="270" data-left="80"></line><text x="80" y="270" text-anchor="end">0</text><text x="80" y="196.408151712426" text-anchor="end">1</text><text x="80" y="122.816303424851" text-anchor="end">2</text><text x="80" y="49.2244551372771" text-anchor="end">3</text><text style="text-anchor:middle;dominant-baseline:hanging;font-weight:bold;transform: translateY(140px) rotate(-90deg);">Installed capacity (GW)</text></g><g class="grid grid-x"><line class="tick" x1="80" y1="270" x2="80" y2="275"></line><text x="80" y="270" text-anchor="middle">2020</text><line class="tick" x1="257.41935483871" y1="270" x2="257.41935483871" y2="275"></line><text x="257.41935483871" y="270" text-anchor="middle">2030</text><line class="tick" x1="434.838709677419" y1="270" x2="434.838709677419" y2="275"></line><text x="434.838709677419" y="270" text-anchor="middle">2040</text><line class="tick" x1="612.258064516129" y1="270" x2="612.258064516129" y2="275"></line><text x="612.258064516129" y="270" text-anchor="middle">2050</text><text style="text-anchor:middle;dominant-baseline:hanging;font-weight:bold;transform: translateY(140px) rotate(-90deg);"></text></g><g data-scenario="high-hydrogen" class="data-series"><path d="M 80.00,265.88L 97.74,264.70L 115.48,262.57L 133.23,259.70L 150.97,258.08L 168.71,256.53L 186.45,254.32L 204.19,252.12L 221.94,249.76L 239.68,247.26L 257.42,244.10L 275.16,240.12L 292.90,235.41L 310.65,230.85L 328.39,226.21L 346.13,222.31L 363.87,219.81L 381.61,217.46L 399.35,215.39L 417.10,213.33L 434.84,211.27L 452.58,209.29L 470.32,207.37L 488.06,205.83L 505.81,204.50L 523.55,203.11L 541.29,201.78L 559.03,200.46L 576.77,198.98L 594.52,197.44L 612.26,195.82" id="High hydrogen" class="line" stroke="#0085CA" stroke-width="3" stroke-linecap="round"><title>High hydrogen</title></path>
<circle cx="80.00" cy="265.88" data-y="0.056" data-x="2020" r="4" fill="#0085CA"><title>2020: 0.056</title></circle>
<circle cx="97.74" cy="264.70" data-y="0.072" data-x="2021" r="4" fill="#0085CA"><title>2021: 0.072</title></circle>
<circle cx="115.48" cy="262.57" data-y="0.101" data-x="2022" r="4" fill="#0085CA"><title>2022: 0.101</title></circle>
<circle cx="133.23" cy="259.70" data-y="0.140" data-x="2023" r="4" fill="#0085CA"><title>2023: 0.140</title></circle>
<circle cx="150.97" cy="258.08" data-y="0.162" data-x="2024" r="4" fill="#0085CA"><title>2024: 0.162</title></circle>
<circle cx="168.71" cy="256.53" data-y="0.183" data-x="2025" r="4" fill="#0085CA"><title>2025: 0.183</title></circle>
<circle cx="186.45" cy="254.32" data-y="0.213" data-x="2026" r="4" fill="#0085CA"><title>2026: 0.213</title></circle>
<circle cx="204.19" cy="252.12" data-y="0.243" data-x="2027" r="4" fill="#0085CA"><title>2027: 0.243</title></circle>
<circle cx="221.94" cy="249.76" data-y="0.275" data-x="2028" r="4" fill="#0085CA"><title>2028: 0.275</title></circle>
<circle cx="239.68" cy="247.26" data-y="0.309" data-x="2029" r="4" fill="#0085CA"><title>2029: 0.309</title></circle>
<circle cx="257.42" cy="244.10" data-y="0.352" data-x="2030" r="4" fill="#0085CA"><title>2030: 0.352</title></circle>
<circle cx="275.16" cy="240.12" data-y="0.406" data-x="2031" r="4" fill="#0085CA"><title>2031: 0.406</title></circle>
<circle cx="292.90" cy="235.41" data-y="0.470" data-x="2032" r="4" fill="#0085CA"><title>2032: 0.470</title></circle>
<circle cx="310.65" cy="230.85" data-y="0.532" data-x="2033" r="4" fill="#0085CA"><title>2033: 0.532</title></circle>
<circle cx="328.39" cy="226.21" data-y="0.595" data-x="2034" r="4" fill="#0085CA"><title>2034: 0.595</title></circle>
<circle cx="346.13" cy="222.31" data-y="0.648" data-x="2035" r="4" fill="#0085CA"><title>2035: 0.648</title></circle>
<circle cx="363.87" cy="219.81" data-y="0.682" data-x="2036" r="4" fill="#0085CA"><title>2036: 0.682</title></circle>
<circle cx="381.61" cy="217.46" data-y="0.714" data-x="2037" r="4" fill="#0085CA"><title>2037: 0.714</title></circle>
<circle cx="399.35" cy="215.39" data-y="0.742" data-x="2038" r="4" fill="#0085CA"><title>2038: 0.742</title></circle>
<circle cx="417.10" cy="213.33" data-y="0.770" data-x="2039" r="4" fill="#0085CA"><title>2039: 0.770</title></circle>
<circle cx="434.84" cy="211.27" data-y="0.798" data-x="2040" r="4" fill="#0085CA"><title>2040: 0.798</title></circle>
<circle cx="452.58" cy="209.29" data-y="0.825" data-x="2041" r="4" fill="#0085CA"><title>2041: 0.825</title></circle>
<circle cx="470.32" cy="207.37" data-y="0.851" data-x="2042" r="4" fill="#0085CA"><title>2042: 0.851</title></circle>
<circle cx="488.06" cy="205.83" data-y="0.872" data-x="2043" r="4" fill="#0085CA"><title>2043: 0.872</title></circle>
<circle cx="505.81" cy="204.50" data-y="0.890" data-x="2044" r="4" fill="#0085CA"><title>2044: 0.890</title></circle>
<circle cx="523.55" cy="203.11" data-y="0.909" data-x="2045" r="4" fill="#0085CA"><title>2045: 0.909</title></circle>
<circle cx="541.29" cy="201.78" data-y="0.927" data-x="2046" r="4" fill="#0085CA"><title>2046: 0.927</title></circle>
<circle cx="559.03" cy="200.46" data-y="0.945" data-x="2047" r="4" fill="#0085CA"><title>2047: 0.945</title></circle>
<circle cx="576.77" cy="198.98" data-y="0.965" data-x="2048" r="4" fill="#0085CA"><title>2048: 0.965</title></circle>
<circle cx="594.52" cy="197.44" data-y="0.986" data-x="2049" r="4" fill="#0085CA"><title>2049: 0.986</title></circle>
<circle cx="612.26" cy="195.82" data-y="1.008" data-x="2050" r="4" fill="#0085CA"><title>2050: 1.008</title></circle>
</g>
<g data-scenario="deep-electrification" class="data-series"><path d="M 80.00,264.92L 97.74,259.84L 115.48,253.74L 133.23,248.73L 150.97,245.49L 168.71,241.37L 186.45,236.07L 204.19,230.85L 221.94,221.72L 239.68,214.22L 257.42,202.88L 275.16,192.21L 292.90,182.35L 310.65,163.66L 328.39,148.13L 346.13,132.97L 363.87,113.62L 381.61,94.78L 399.35,69.46L 417.10,55.92L 434.84,46.58L 452.58,34.73L 470.32,30.02L 488.06,23.47L 505.81,19.20L 523.55,17.21L 541.29,15.08L 559.03,13.16L 576.77,11.25L 594.52,10.00L 612.26,10.00" id="Deep electrification" class="line" stroke="#AB1236" stroke-width="3" stroke-linecap="round"><title>Deep electrification</title></path>
<circle cx="80.00" cy="264.92" data-y="0.069" data-x="2020" r="4" fill="#AB1236"><title>2020: 0.069</title></circle>
<circle cx="97.74" cy="259.84" data-y="0.138" data-x="2021" r="4" fill="#AB1236"><title>2021: 0.138</title></circle>
<circle cx="115.48" cy="253.74" data-y="0.221" data-x="2022" r="4" fill="#AB1236"><title>2022: 0.221</title></circle>
<circle cx="133.23" cy="248.73" data-y="0.289" data-x="2023" r="4" fill="#AB1236"><title>2023: 0.289</title></circle>
<circle cx="150.97" cy="245.49" data-y="0.333" data-x="2024" r="4" fill="#AB1236"><title>2024: 0.333</title></circle>
<circle cx="168.71" cy="241.37" data-y="0.389" data-x="2025" r="4" fill="#AB1236"><title>2025: 0.389</title></circle>
<circle cx="186.45" cy="236.07" data-y="0.461" data-x="2026" r="4" fill="#AB1236"><title>2026: 0.461</title></circle>
<circle cx="204.19" cy="230.85" data-y="0.532" data-x="2027" r="4" fill="#AB1236"><title>2027: 0.532</title></circle>
<circle cx="221.94" cy="221.72" data-y="0.656" data-x="2028" r="4" fill="#AB1236"><title>2028: 0.656</title></circle>
<circle cx="239.68" cy="214.22" data-y="0.758" data-x="2029" r="4" fill="#AB1236"><title>2029: 0.758</title></circle>
<circle cx="257.42" cy="202.88" data-y="0.912" data-x="2030" r="4" fill="#AB1236"><title>2030: 0.912</title></circle>
<circle cx="275.16" cy="192.21" data-y="1.057" data-x="2031" r="4" fill="#AB1236"><title>2031: 1.057</title></circle>
<circle cx="292.90" cy="182.35" data-y="1.191" data-x="2032" r="4" fill="#AB1236"><title>2032: 1.191</title></circle>
<circle cx="310.65" cy="163.66" data-y="1.445" data-x="2033" r="4" fill="#AB1236"><title>2033: 1.445</title></circle>
<circle cx="328.39" cy="148.13" data-y="1.656" data-x="2034" r="4" fill="#AB1236"><title>2034: 1.656</title></circle>
<circle cx="346.13" cy="132.97" data-y="1.862" data-x="2035" r="4" fill="#AB1236"><title>2035: 1.862</title></circle>
<circle cx="363.87" cy="113.62" data-y="2.125" data-x="2036" r="4" fill="#AB1236"><title>2036: 2.125</title></circle>
<circle cx="381.61" cy="94.78" data-y="2.381" data-x="2037" r="4" fill="#AB1236"><title>2037: 2.381</title></circle>
<circle cx="399.35" cy="69.46" data-y="2.725" data-x="2038" r="4" fill="#AB1236"><title>2038: 2.725</title></circle>
<circle cx="417.10" cy="55.92" data-y="2.909" data-x="2039" r="4" fill="#AB1236"><title>2039: 2.909</title></circle>
<circle cx="434.84" cy="46.58" data-y="3.036" data-x="2040" r="4" fill="#AB1236"><title>2040: 3.036</title></circle>
<circle cx="452.58" cy="34.73" data-y="3.197" data-x="2041" r="4" fill="#AB1236"><title>2041: 3.197</title></circle>
<circle cx="470.32" cy="30.02" data-y="3.261" data-x="2042" r="4" fill="#AB1236"><title>2042: 3.261</title></circle>
<circle cx="488.06" cy="23.47" data-y="3.350" data-x="2043" r="4" fill="#AB1236"><title>2043: 3.350</title></circle>
<circle cx="505.81" cy="19.20" data-y="3.408" data-x="2044" r="4" fill="#AB1236"><title>2044: 3.408</title></circle>
<circle cx="523.55" cy="17.21" data-y="3.435" data-x="2045" r="4" fill="#AB1236"><title>2045: 3.435</title></circle>
<circle cx="541.29" cy="15.08" data-y="3.464" data-x="2046" r="4" fill="#AB1236"><title>2046: 3.464</title></circle>
<circle cx="559.03" cy="13.16" data-y="3.490" data-x="2047" r="4" fill="#AB1236"><title>2047: 3.490</title></circle>
<circle cx="576.77" cy="11.25" data-y="3.516" data-x="2048" r="4" fill="#AB1236"><title>2048: 3.516</title></circle>
<circle cx="594.52" cy="10.00" data-y="3.533" data-x="2049" r="4" fill="#AB1236"><title>2049: 3.533</title></circle>
<circle cx="612.26" cy="10.00" data-y="3.533" data-x="2050" r="4" fill="#AB1236"><title>2050: 3.533</title></circle>
</g>
<g data-scenario="net-zero" class="data-series"><path d="M 80.00,265.22L 97.74,262.64L 115.48,258.59L 133.23,254.03L 150.97,250.94L 168.71,247.26L 186.45,243.07L 204.19,238.94L 221.94,231.88L 239.68,225.62L 257.42,216.06L 275.16,206.49L 292.90,197.14L 310.65,182.43L 328.39,171.31L 346.13,161.23L 363.87,147.62L 381.61,134.89L 399.35,118.84L 417.10,111.70L 434.84,107.66L 452.58,99.56L 470.32,96.47L 488.06,92.35L 505.81,90.07L 523.55,89.41L 541.29,88.60L 559.03,87.93L 576.77,87.12L 594.52,86.46L 612.26,85.80" id="Early net zero" class="line" stroke="#00AB84" stroke-width="3" stroke-linecap="round"><title>Early net zero</title></path>
<circle cx="80.00" cy="265.22" data-y="0.065" data-x="2020" r="4" fill="#00AB84"><title>2020: 0.065</title></circle>
<circle cx="97.74" cy="262.64" data-y="0.100" data-x="2021" r="4" fill="#00AB84"><title>2021: 0.100</title></circle>
<circle cx="115.48" cy="258.59" data-y="0.155" data-x="2022" r="4" fill="#00AB84"><title>2022: 0.155</title></circle>
<circle cx="133.23" cy="254.03" data-y="0.217" data-x="2023" r="4" fill="#00AB84"><title>2023: 0.217</title></circle>
<circle cx="150.97" cy="250.94" data-y="0.259" data-x="2024" r="4" fill="#00AB84"><title>2024: 0.259</title></circle>
<circle cx="168.71" cy="247.26" data-y="0.309" data-x="2025" r="4" fill="#00AB84"><title>2025: 0.309</title></circle>
<circle cx="186.45" cy="243.07" data-y="0.366" data-x="2026" r="4" fill="#00AB84"><title>2026: 0.366</title></circle>
<circle cx="204.19" cy="238.94" data-y="0.422" data-x="2027" r="4" fill="#00AB84"><title>2027: 0.422</title></circle>
<circle cx="221.94" cy="231.88" data-y="0.518" data-x="2028" r="4" fill="#00AB84"><title>2028: 0.518</title></circle>
<circle cx="239.68" cy="225.62" data-y="0.603" data-x="2029" r="4" fill="#00AB84"><title>2029: 0.603</title></circle>
<circle cx="257.42" cy="216.06" data-y="0.733" data-x="2030" r="4" fill="#00AB84"><title>2030: 0.733</title></circle>
<circle cx="275.16" cy="206.49" data-y="0.863" data-x="2031" r="4" fill="#00AB84"><title>2031: 0.863</title></circle>
<circle cx="292.90" cy="197.14" data-y="0.990" data-x="2032" r="4" fill="#00AB84"><title>2032: 0.990</title></circle>
<circle cx="310.65" cy="182.43" data-y="1.190" data-x="2033" r="4" fill="#00AB84"><title>2033: 1.190</title></circle>
<circle cx="328.39" cy="171.31" data-y="1.341" data-x="2034" r="4" fill="#00AB84"><title>2034: 1.341</title></circle>
<circle cx="346.13" cy="161.23" data-y="1.478" data-x="2035" r="4" fill="#00AB84"><title>2035: 1.478</title></circle>
<circle cx="363.87" cy="147.62" data-y="1.663" data-x="2036" r="4" fill="#00AB84"><title>2036: 1.663</title></circle>
<circle cx="381.61" cy="134.89" data-y="1.836" data-x="2037" r="4" fill="#00AB84"><title>2037: 1.836</title></circle>
<circle cx="399.35" cy="118.84" data-y="2.054" data-x="2038" r="4" fill="#00AB84"><title>2038: 2.054</title></circle>
<circle cx="417.10" cy="111.70" data-y="2.151" data-x="2039" r="4" fill="#00AB84"><title>2039: 2.151</title></circle>
<circle cx="434.84" cy="107.66" data-y="2.206" data-x="2040" r="4" fill="#00AB84"><title>2040: 2.206</title></circle>
<circle cx="452.58" cy="99.56" data-y="2.316" data-x="2041" r="4" fill="#00AB84"><title>2041: 2.316</title></circle>
<circle cx="470.32" cy="96.47" data-y="2.358" data-x="2042" r="4" fill="#00AB84"><title>2042: 2.358</title></circle>
<circle cx="488.06" cy="92.35" data-y="2.414" data-x="2043" r="4" fill="#00AB84"><title>2043: 2.414</title></circle>
<circle cx="505.81" cy="90.07" data-y="2.445" data-x="2044" r="4" fill="#00AB84"><title>2044: 2.445</title></circle>
<circle cx="523.55" cy="89.41" data-y="2.454" data-x="2045" r="4" fill="#00AB84"><title>2045: 2.454</title></circle>
<circle cx="541.29" cy="88.60" data-y="2.465" data-x="2046" r="4" fill="#00AB84"><title>2046: 2.465</title></circle>
<circle cx="559.03" cy="87.93" data-y="2.474" data-x="2047" r="4" fill="#00AB84"><title>2047: 2.474</title></circle>
<circle cx="576.77" cy="87.12" data-y="2.485" data-x="2048" r="4" fill="#00AB84"><title>2048: 2.485</title></circle>
<circle cx="594.52" cy="86.46" data-y="2.494" data-x="2049" r="4" fill="#00AB84"><title>2049: 2.494</title></circle>
<circle cx="612.26" cy="85.80" data-y="2.503" data-x="2050" r="4" fill="#00AB84"><title>2050: 2.503</title></circle>
</g>
</svg>
