<svg width="640" height="320" viewBox="0 0 640 320" xmlns="http://www.w3.org/2000/svg" style="overflow:display" preserveAspectRatio="xMinYMin meet" overflow="visible">
<defs>
	<style>
	.data-series path.line { fill-opacity: 0; }
	.data-series path.line.dotted { stroke-dasharray: 12 20 }
	.data-series circle { display: none; }
	.data-series:hover path.line, .data-series.on path.line { stroke-width: 5; }
	.data-series:hover circle, .data-series.on circle { display: inline; }
	.data-series circle:hover, .data-series circle.on { r: 6px!important; fill: black; }
	.grid { font-family: "Helvetica Neue",Helvetica,Arial,"Lucida Grande",sans-serif; }
	.grid line { stroke: rgb(0,0,0); stroke-width: 2; stroke-linecap: round; }
	.grid.grid-x text { text-anchor: middle; dominant-baseline: hanging; transform: translateY(10px); }
	.grid.grid-y text { text-anchor: end; dominant-baseline: middle; transform: translateX(-10px); }
	</style>
</defs>
<g class="grid grid-y">
	<line x1="70" y1="270" x2="630" y2="270" data-left="70"></line>
	<text x="70" y="270" text-anchor="end">0</text>
	<text x="70" y="194.22696937021" text-anchor="end">10</text>
	<text x="70" y="118.453938740419" text-anchor="end">20</text>
	<text x="70" y="42.6809081106286" text-anchor="end">30</text>
	<text style="text-anchor:middle;dominant-baseline:hanging;font-weight:bold;transform: translateY(140px) rotate(-90deg);">Annual emissions (MtCO2)</text>
</g>
<g class="grid grid-x">
	<line class="tick" x1="70" y1="270" x2="70" y2="275"></line>
	<text x="70" y="270" text-anchor="middle">2020</text>
	<line class="tick" x1="250.645161290323" y1="270" x2="250.645161290323" y2="275"></line>
	<text x="250.645161290323" y="270" text-anchor="middle">2030</text>
	<line class="tick" x1="431.290322580645" y1="270" x2="431.290322580645" y2="275"></line>
	<text x="431.290322580645" y="270" text-anchor="middle">2040</text>
	<line class="tick" x1="611.935483870968" y1="270" x2="611.935483870968" y2="275"></line>
	<text x="611.935483870968" y="270" text-anchor="middle">2050</text>
	<text style="text-anchor:middle;dominant-baseline:hanging;font-weight:bold;transform: translateY(140px) rotate(-90deg);"></text>
</g>
<g data-scenario="heating-oil" class="data-series">	<path d="M 70.00,261.20L 88.06,261.32L 106.13,261.58L 124.19,261.90L 142.26,262.20L 160.32,262.39L 178.39,262.54L 196.45,263.07L 214.52,263.60L 232.58,264.10L 250.65,264.62L 268.71,265.13L 286.77,265.64L 304.84,266.11L 322.90,266.73L 340.97,267.18L 359.03,267.81L 377.10,268.30L 395.16,268.73L 413.23,269.15L 431.29,269.58L 449.35,270.00L 467.42,270.00L 485.48,270.00L 503.55,270.00L 521.61,270.00L 539.68,270.00L 557.74,270.00L 575.81,270.00L 593.87,270.00L 611.94,270.00" id="Heating oil" class="line" stroke="#420A0C" stroke-width="3" stroke-linecap="round"><title>Heating oil</title></path>
	<circle cx="70.00" cy="261.20" data-y="1.161" data-x="2020" r="4" fill="#420A0C"><title>2020: 1.161</title></circle>
	<circle cx="88.06" cy="261.32" data-y="1.146" data-x="2021" r="4" fill="#420A0C"><title>2021: 1.146</title></circle>
	<circle cx="106.13" cy="261.58" data-y="1.111" data-x="2022" r="4" fill="#420A0C"><title>2022: 1.111</title></circle>
	<circle cx="124.19" cy="261.90" data-y="1.069" data-x="2023" r="4" fill="#420A0C"><title>2023: 1.069</title></circle>
	<circle cx="142.26" cy="262.20" data-y="1.030" data-x="2024" r="4" fill="#420A0C"><title>2024: 1.030</title></circle>
	<circle cx="160.32" cy="262.39" data-y="1.004" data-x="2025" r="4" fill="#420A0C"><title>2025: 1.004</title></circle>
	<circle cx="178.39" cy="262.54" data-y="0.984" data-x="2026" r="4" fill="#420A0C"><title>2026: 0.984</title></circle>
	<circle cx="196.45" cy="263.07" data-y="0.914" data-x="2027" r="4" fill="#420A0C"><title>2027: 0.914</title></circle>
	<circle cx="214.52" cy="263.60" data-y="0.845" data-x="2028" r="4" fill="#420A0C"><title>2028: 0.845</title></circle>
	<circle cx="232.58" cy="264.10" data-y="0.778" data-x="2029" r="4" fill="#420A0C"><title>2029: 0.778</title></circle>
	<circle cx="250.65" cy="264.62" data-y="0.710" data-x="2030" r="4" fill="#420A0C"><title>2030: 0.710</title></circle>
	<circle cx="268.71" cy="265.13" data-y="0.643" data-x="2031" r="4" fill="#420A0C"><title>2031: 0.643</title></circle>
	<circle cx="286.77" cy="265.64" data-y="0.575" data-x="2032" r="4" fill="#420A0C"><title>2032: 0.575</title></circle>
	<circle cx="304.84" cy="266.11" data-y="0.514" data-x="2033" r="4" fill="#420A0C"><title>2033: 0.514</title></circle>
	<circle cx="322.90" cy="266.73" data-y="0.431" data-x="2034" r="4" fill="#420A0C"><title>2034: 0.431</title></circle>
	<circle cx="340.97" cy="267.18" data-y="0.372" data-x="2035" r="4" fill="#420A0C"><title>2035: 0.372</title></circle>
	<circle cx="359.03" cy="267.81" data-y="0.289" data-x="2036" r="4" fill="#420A0C"><title>2036: 0.289</title></circle>
	<circle cx="377.10" cy="268.30" data-y="0.224" data-x="2037" r="4" fill="#420A0C"><title>2037: 0.224</title></circle>
	<circle cx="395.16" cy="268.73" data-y="0.168" data-x="2038" r="4" fill="#420A0C"><title>2038: 0.168</title></circle>
	<circle cx="413.23" cy="269.15" data-y="0.112" data-x="2039" r="4" fill="#420A0C"><title>2039: 0.112</title></circle>
	<circle cx="431.29" cy="269.58" data-y="0.056" data-x="2040" r="4" fill="#420A0C"><title>2040: 0.056</title></circle>
	<circle cx="449.35" cy="270.00" data-y="0.000" data-x="2041" r="4" fill="#420A0C"><title>2041: 0.000</title></circle>
	<circle cx="467.42" cy="270.00" data-y="0.000" data-x="2042" r="4" fill="#420A0C"><title>2042: 0.000</title></circle>
	<circle cx="485.48" cy="270.00" data-y="0.000" data-x="2043" r="4" fill="#420A0C"><title>2043: 0.000</title></circle>
	<circle cx="503.55" cy="270.00" data-y="0.000" data-x="2044" r="4" fill="#420A0C"><title>2044: 0.000</title></circle>
	<circle cx="521.61" cy="270.00" data-y="0.000" data-x="2045" r="4" fill="#420A0C"><title>2045: 0.000</title></circle>
	<circle cx="539.68" cy="270.00" data-y="0.000" data-x="2046" r="4" fill="#420A0C"><title>2046: 0.000</title></circle>
	<circle cx="557.74" cy="270.00" data-y="0.000" data-x="2047" r="4" fill="#420A0C"><title>2047: 0.000</title></circle>
	<circle cx="575.81" cy="270.00" data-y="0.000" data-x="2048" r="4" fill="#420A0C"><title>2048: 0.000</title></circle>
	<circle cx="593.87" cy="270.00" data-y="0.000" data-x="2049" r="4" fill="#420A0C"><title>2049: 0.000</title></circle>
	<circle cx="611.94" cy="270.00" data-y="0.000" data-x="2050" r="4" fill="#420A0C"><title>2050: 0.000</title></circle>
</g>
<g data-scenario="natural-gas" class="data-series">	<path d="M 70.00,166.77L 88.06,168.13L 106.13,169.55L 124.19,170.99L 142.26,172.30L 160.32,173.83L 178.39,175.28L 196.45,176.72L 214.52,178.13L 232.58,179.51L 250.65,180.94L 268.71,182.38L 286.77,183.77L 304.84,185.14L 322.90,186.50L 340.97,193.90L 359.03,201.24L 377.10,208.40L 395.16,215.44L 413.23,222.39L 431.29,228.61L 449.35,234.81L 467.42,240.94L 485.48,247.01L 503.55,253.02L 521.61,258.99L 539.68,264.91L 557.74,270.00L 575.81,270.00L 593.87,270.00L 611.94,270.00" id="Natural gas" class="line" stroke="#B8BFF9" stroke-width="3" stroke-linecap="round"><title>Natural gas</title></path>
	<circle cx="70.00" cy="166.77" data-y="13.623" data-x="2020" r="4" fill="#B8BFF9"><title>2020: 13.623</title></circle>
	<circle cx="88.06" cy="168.13" data-y="13.444" data-x="2021" r="4" fill="#B8BFF9"><title>2021: 13.444</title></circle>
	<circle cx="106.13" cy="169.55" data-y="13.257" data-x="2022" r="4" fill="#B8BFF9"><title>2022: 13.257</title></circle>
	<circle cx="124.19" cy="170.99" data-y="13.066" data-x="2023" r="4" fill="#B8BFF9"><title>2023: 13.066</title></circle>
	<circle cx="142.26" cy="172.30" data-y="12.894" data-x="2024" r="4" fill="#B8BFF9"><title>2024: 12.894</title></circle>
	<circle cx="160.32" cy="173.83" data-y="12.692" data-x="2025" r="4" fill="#B8BFF9"><title>2025: 12.692</title></circle>
	<circle cx="178.39" cy="175.28" data-y="12.500" data-x="2026" r="4" fill="#B8BFF9"><title>2026: 12.500</title></circle>
	<circle cx="196.45" cy="176.72" data-y="12.311" data-x="2027" r="4" fill="#B8BFF9"><title>2027: 12.311</title></circle>
	<circle cx="214.52" cy="178.13" data-y="12.125" data-x="2028" r="4" fill="#B8BFF9"><title>2028: 12.125</title></circle>
	<circle cx="232.58" cy="179.51" data-y="11.942" data-x="2029" r="4" fill="#B8BFF9"><title>2029: 11.942</title></circle>
	<circle cx="250.65" cy="180.94" data-y="11.753" data-x="2030" r="4" fill="#B8BFF9"><title>2030: 11.753</title></circle>
	<circle cx="268.71" cy="182.38" data-y="11.563" data-x="2031" r="4" fill="#B8BFF9"><title>2031: 11.563</title></circle>
	<circle cx="286.77" cy="183.77" data-y="11.380" data-x="2032" r="4" fill="#B8BFF9"><title>2032: 11.380</title></circle>
	<circle cx="304.84" cy="185.14" data-y="11.199" data-x="2033" r="4" fill="#B8BFF9"><title>2033: 11.199</title></circle>
	<circle cx="322.90" cy="186.50" data-y="11.020" data-x="2034" r="4" fill="#B8BFF9"><title>2034: 11.020</title></circle>
	<circle cx="340.97" cy="193.90" data-y="10.043" data-x="2035" r="4" fill="#B8BFF9"><title>2035: 10.043</title></circle>
	<circle cx="359.03" cy="201.24" data-y="9.075" data-x="2036" r="4" fill="#B8BFF9"><title>2036: 9.075</title></circle>
	<circle cx="377.10" cy="208.40" data-y="8.129" data-x="2037" r="4" fill="#B8BFF9"><title>2037: 8.129</title></circle>
	<circle cx="395.16" cy="215.44" data-y="7.200" data-x="2038" r="4" fill="#B8BFF9"><title>2038: 7.200</title></circle>
	<circle cx="413.23" cy="222.39" data-y="6.283" data-x="2039" r="4" fill="#B8BFF9"><title>2039: 6.283</title></circle>
	<circle cx="431.29" cy="228.61" data-y="5.462" data-x="2040" r="4" fill="#B8BFF9"><title>2040: 5.462</title></circle>
	<circle cx="449.35" cy="234.81" data-y="4.644" data-x="2041" r="4" fill="#B8BFF9"><title>2041: 4.644</title></circle>
	<circle cx="467.42" cy="240.94" data-y="3.835" data-x="2042" r="4" fill="#B8BFF9"><title>2042: 3.835</title></circle>
	<circle cx="485.48" cy="247.01" data-y="3.034" data-x="2043" r="4" fill="#B8BFF9"><title>2043: 3.034</title></circle>
	<circle cx="503.55" cy="253.02" data-y="2.241" data-x="2044" r="4" fill="#B8BFF9"><title>2044: 2.241</title></circle>
	<circle cx="521.61" cy="258.99" data-y="1.453" data-x="2045" r="4" fill="#B8BFF9"><title>2045: 1.453</title></circle>
	<circle cx="539.68" cy="264.91" data-y="0.672" data-x="2046" r="4" fill="#B8BFF9"><title>2046: 0.672</title></circle>
	<circle cx="557.74" cy="270.00" data-y="0.000" data-x="2047" r="4" fill="#B8BFF9"><title>2047: 0.000</title></circle>
	<circle cx="575.81" cy="270.00" data-y="0.000" data-x="2048" r="4" fill="#B8BFF9"><title>2048: 0.000</title></circle>
	<circle cx="593.87" cy="270.00" data-y="0.000" data-x="2049" r="4" fill="#B8BFF9"><title>2049: 0.000</title></circle>
	<circle cx="611.94" cy="270.00" data-y="0.000" data-x="2050" r="4" fill="#B8BFF9"><title>2050: 0.000</title></circle>
</g>
<g data-scenario="hydrogen" class="data-series">	<path d="M 70.00,270.00L 88.06,269.99L 106.13,269.99L 124.19,269.99L 142.26,269.99L 160.32,269.99L 178.39,269.99L 196.45,269.99L 214.52,269.99L 232.58,269.99L 250.65,269.98L 268.71,269.98L 286.77,269.98L 304.84,269.97L 322.90,269.96L 340.97,269.94L 359.03,269.92L 377.10,269.91L 395.16,269.90L 413.23,269.89L 431.29,269.88L 449.35,269.88L 467.42,269.88L 485.48,269.88L 503.55,269.89L 521.61,269.89L 539.68,269.89L 557.74,269.90L 575.81,269.90L 593.87,269.91L 611.94,269.92" id="Hydrogen" class="line" stroke="#0279FA" stroke-width="3" stroke-linecap="round"><title>Hydrogen</title></path>
	<circle cx="70.00" cy="270.00" data-y="0.000" data-x="2020" r="4" fill="#0279FA"><title>2020: 0.000</title></circle>
	<circle cx="88.06" cy="269.99" data-y="0.001" data-x="2021" r="4" fill="#0279FA"><title>2021: 0.001</title></circle>
	<circle cx="106.13" cy="269.99" data-y="0.001" data-x="2022" r="4" fill="#0279FA"><title>2022: 0.001</title></circle>
	<circle cx="124.19" cy="269.99" data-y="0.001" data-x="2023" r="4" fill="#0279FA"><title>2023: 0.001</title></circle>
	<circle cx="142.26" cy="269.99" data-y="0.001" data-x="2024" r="4" fill="#0279FA"><title>2024: 0.001</title></circle>
	<circle cx="160.32" cy="269.99" data-y="0.001" data-x="2025" r="4" fill="#0279FA"><title>2025: 0.001</title></circle>
	<circle cx="178.39" cy="269.99" data-y="0.001" data-x="2026" r="4" fill="#0279FA"><title>2026: 0.001</title></circle>
	<circle cx="196.45" cy="269.99" data-y="0.001" data-x="2027" r="4" fill="#0279FA"><title>2027: 0.001</title></circle>
	<circle cx="214.52" cy="269.99" data-y="0.001" data-x="2028" r="4" fill="#0279FA"><title>2028: 0.001</title></circle>
	<circle cx="232.58" cy="269.99" data-y="0.001" data-x="2029" r="4" fill="#0279FA"><title>2029: 0.001</title></circle>
	<circle cx="250.65" cy="269.98" data-y="0.002" data-x="2030" r="4" fill="#0279FA"><title>2030: 0.002</title></circle>
	<circle cx="268.71" cy="269.98" data-y="0.003" data-x="2031" r="4" fill="#0279FA"><title>2031: 0.003</title></circle>
	<circle cx="286.77" cy="269.98" data-y="0.003" data-x="2032" r="4" fill="#0279FA"><title>2032: 0.003</title></circle>
	<circle cx="304.84" cy="269.97" data-y="0.004" data-x="2033" r="4" fill="#0279FA"><title>2033: 0.004</title></circle>
	<circle cx="322.90" cy="269.96" data-y="0.005" data-x="2034" r="4" fill="#0279FA"><title>2034: 0.005</title></circle>
	<circle cx="340.97" cy="269.94" data-y="0.008" data-x="2035" r="4" fill="#0279FA"><title>2035: 0.008</title></circle>
	<circle cx="359.03" cy="269.92" data-y="0.011" data-x="2036" r="4" fill="#0279FA"><title>2036: 0.011</title></circle>
	<circle cx="377.10" cy="269.91" data-y="0.012" data-x="2037" r="4" fill="#0279FA"><title>2037: 0.012</title></circle>
	<circle cx="395.16" cy="269.90" data-y="0.013" data-x="2038" r="4" fill="#0279FA"><title>2038: 0.013</title></circle>
	<circle cx="413.23" cy="269.89" data-y="0.015" data-x="2039" r="4" fill="#0279FA"><title>2039: 0.015</title></circle>
	<circle cx="431.29" cy="269.88" data-y="0.016" data-x="2040" r="4" fill="#0279FA"><title>2040: 0.016</title></circle>
	<circle cx="449.35" cy="269.88" data-y="0.016" data-x="2041" r="4" fill="#0279FA"><title>2041: 0.016</title></circle>
	<circle cx="467.42" cy="269.88" data-y="0.016" data-x="2042" r="4" fill="#0279FA"><title>2042: 0.016</title></circle>
	<circle cx="485.48" cy="269.88" data-y="0.016" data-x="2043" r="4" fill="#0279FA"><title>2043: 0.016</title></circle>
	<circle cx="503.55" cy="269.89" data-y="0.015" data-x="2044" r="4" fill="#0279FA"><title>2044: 0.015</title></circle>
	<circle cx="521.61" cy="269.89" data-y="0.015" data-x="2045" r="4" fill="#0279FA"><title>2045: 0.015</title></circle>
	<circle cx="539.68" cy="269.89" data-y="0.014" data-x="2046" r="4" fill="#0279FA"><title>2046: 0.014</title></circle>
	<circle cx="557.74" cy="269.90" data-y="0.013" data-x="2047" r="4" fill="#0279FA"><title>2047: 0.013</title></circle>
	<circle cx="575.81" cy="269.90" data-y="0.013" data-x="2048" r="4" fill="#0279FA"><title>2048: 0.013</title></circle>
	<circle cx="593.87" cy="269.91" data-y="0.012" data-x="2049" r="4" fill="#0279FA"><title>2049: 0.012</title></circle>
	<circle cx="611.94" cy="269.92" data-y="0.011" data-x="2050" r="4" fill="#0279FA"><title>2050: 0.011</title></circle>
</g>
<g data-scenario="bioenergy" class="data-series">	<path d="M 70.00,269.83L 88.06,269.78L 106.13,269.73L 124.19,269.69L 142.26,269.64L 160.32,269.61L 178.39,269.57L 196.45,269.52L 214.52,269.48L 232.58,269.45L 250.65,269.41L 268.71,269.36L 286.77,269.32L 304.84,269.27L 322.90,269.21L 340.97,269.17L 359.03,269.10L 377.10,269.03L 395.16,268.97L 413.23,268.90L 431.29,268.88L 449.35,268.86L 467.42,268.85L 485.48,268.85L 503.55,268.85L 521.61,268.85L 539.68,268.85L 557.74,268.91L 575.81,269.36L 593.87,269.79L 611.94,269.80" id="Bioenergy" class="line" stroke="#019303" stroke-width="3" stroke-linecap="round"><title>Bioenergy</title></path>
	<circle cx="70.00" cy="269.83" data-y="0.023" data-x="2020" r="4" fill="#019303"><title>2020: 0.023</title></circle>
	<circle cx="88.06" cy="269.78" data-y="0.029" data-x="2021" r="4" fill="#019303"><title>2021: 0.029</title></circle>
	<circle cx="106.13" cy="269.73" data-y="0.035" data-x="2022" r="4" fill="#019303"><title>2022: 0.035</title></circle>
	<circle cx="124.19" cy="269.69" data-y="0.041" data-x="2023" r="4" fill="#019303"><title>2023: 0.041</title></circle>
	<circle cx="142.26" cy="269.64" data-y="0.047" data-x="2024" r="4" fill="#019303"><title>2024: 0.047</title></circle>
	<circle cx="160.32" cy="269.61" data-y="0.052" data-x="2025" r="4" fill="#019303"><title>2025: 0.052</title></circle>
	<circle cx="178.39" cy="269.57" data-y="0.057" data-x="2026" r="4" fill="#019303"><title>2026: 0.057</title></circle>
	<circle cx="196.45" cy="269.52" data-y="0.063" data-x="2027" r="4" fill="#019303"><title>2027: 0.063</title></circle>
	<circle cx="214.52" cy="269.48" data-y="0.068" data-x="2028" r="4" fill="#019303"><title>2028: 0.068</title></circle>
	<circle cx="232.58" cy="269.45" data-y="0.073" data-x="2029" r="4" fill="#019303"><title>2029: 0.073</title></circle>
	<circle cx="250.65" cy="269.41" data-y="0.078" data-x="2030" r="4" fill="#019303"><title>2030: 0.078</title></circle>
	<circle cx="268.71" cy="269.36" data-y="0.084" data-x="2031" r="4" fill="#019303"><title>2031: 0.084</title></circle>
	<circle cx="286.77" cy="269.32" data-y="0.090" data-x="2032" r="4" fill="#019303"><title>2032: 0.090</title></circle>
	<circle cx="304.84" cy="269.27" data-y="0.097" data-x="2033" r="4" fill="#019303"><title>2033: 0.097</title></circle>
	<circle cx="322.90" cy="269.21" data-y="0.104" data-x="2034" r="4" fill="#019303"><title>2034: 0.104</title></circle>
	<circle cx="340.97" cy="269.17" data-y="0.110" data-x="2035" r="4" fill="#019303"><title>2035: 0.110</title></circle>
	<circle cx="359.03" cy="269.10" data-y="0.119" data-x="2036" r="4" fill="#019303"><title>2036: 0.119</title></circle>
	<circle cx="377.10" cy="269.03" data-y="0.128" data-x="2037" r="4" fill="#019303"><title>2037: 0.128</title></circle>
	<circle cx="395.16" cy="268.97" data-y="0.136" data-x="2038" r="4" fill="#019303"><title>2038: 0.136</title></circle>
	<circle cx="413.23" cy="268.90" data-y="0.145" data-x="2039" r="4" fill="#019303"><title>2039: 0.145</title></circle>
	<circle cx="431.29" cy="268.88" data-y="0.148" data-x="2040" r="4" fill="#019303"><title>2040: 0.148</title></circle>
	<circle cx="449.35" cy="268.86" data-y="0.150" data-x="2041" r="4" fill="#019303"><title>2041: 0.150</title></circle>
	<circle cx="467.42" cy="268.85" data-y="0.152" data-x="2042" r="4" fill="#019303"><title>2042: 0.152</title></circle>
	<circle cx="485.48" cy="268.85" data-y="0.152" data-x="2043" r="4" fill="#019303"><title>2043: 0.152</title></circle>
	<circle cx="503.55" cy="268.85" data-y="0.152" data-x="2044" r="4" fill="#019303"><title>2044: 0.152</title></circle>
	<circle cx="521.61" cy="268.85" data-y="0.152" data-x="2045" r="4" fill="#019303"><title>2045: 0.152</title></circle>
	<circle cx="539.68" cy="268.85" data-y="0.152" data-x="2046" r="4" fill="#019303"><title>2046: 0.152</title></circle>
	<circle cx="557.74" cy="268.91" data-y="0.144" data-x="2047" r="4" fill="#019303"><title>2047: 0.144</title></circle>
	<circle cx="575.81" cy="269.36" data-y="0.085" data-x="2048" r="4" fill="#019303"><title>2048: 0.085</title></circle>
	<circle cx="593.87" cy="269.79" data-y="0.028" data-x="2049" r="4" fill="#019303"><title>2049: 0.028</title></circle>
	<circle cx="611.94" cy="269.80" data-y="0.027" data-x="2050" r="4" fill="#019303"><title>2050: 0.027</title></circle>
</g>
<g data-scenario="petrol" class="data-series">	<path d="M 70.00,231.51L 88.06,231.95L 106.13,232.64L 124.19,234.41L 142.26,236.71L 160.32,239.58L 178.39,242.83L 196.45,245.72L 214.52,248.33L 232.58,250.79L 250.65,253.13L 268.71,255.20L 286.77,257.06L 304.84,258.61L 322.90,259.99L 340.97,261.32L 359.03,262.61L 377.10,263.94L 395.16,265.08L 413.23,265.97L 431.29,266.72L 449.35,267.35L 467.42,267.88L 485.48,268.33L 503.55,268.70L 521.61,269.01L 539.68,269.27L 557.74,269.47L 575.81,269.62L 593.87,269.73L 611.94,269.82" id="Petrol" class="line" stroke="#FFC300" stroke-width="3" stroke-linecap="round"><title>Petrol</title></path>
	<circle cx="70.00" cy="231.51" data-y="5.079" data-x="2020" r="4" fill="#FFC300"><title>2020: 5.079</title></circle>
	<circle cx="88.06" cy="231.95" data-y="5.022" data-x="2021" r="4" fill="#FFC300"><title>2021: 5.022</title></circle>
	<circle cx="106.13" cy="232.64" data-y="4.931" data-x="2022" r="4" fill="#FFC300"><title>2022: 4.931</title></circle>
	<circle cx="124.19" cy="234.41" data-y="4.697" data-x="2023" r="4" fill="#FFC300"><title>2023: 4.697</title></circle>
	<circle cx="142.26" cy="236.71" data-y="4.394" data-x="2024" r="4" fill="#FFC300"><title>2024: 4.394</title></circle>
	<circle cx="160.32" cy="239.58" data-y="4.015" data-x="2025" r="4" fill="#FFC300"><title>2025: 4.015</title></circle>
	<circle cx="178.39" cy="242.83" data-y="3.586" data-x="2026" r="4" fill="#FFC300"><title>2026: 3.586</title></circle>
	<circle cx="196.45" cy="245.72" data-y="3.204" data-x="2027" r="4" fill="#FFC300"><title>2027: 3.204</title></circle>
	<circle cx="214.52" cy="248.33" data-y="2.860" data-x="2028" r="4" fill="#FFC300"><title>2028: 2.860</title></circle>
	<circle cx="232.58" cy="250.79" data-y="2.535" data-x="2029" r="4" fill="#FFC300"><title>2029: 2.535</title></circle>
	<circle cx="250.65" cy="253.13" data-y="2.226" data-x="2030" r="4" fill="#FFC300"><title>2030: 2.226</title></circle>
	<circle cx="268.71" cy="255.20" data-y="1.953" data-x="2031" r="4" fill="#FFC300"><title>2031: 1.953</title></circle>
	<circle cx="286.77" cy="257.06" data-y="1.708" data-x="2032" r="4" fill="#FFC300"><title>2032: 1.708</title></circle>
	<circle cx="304.84" cy="258.61" data-y="1.503" data-x="2033" r="4" fill="#FFC300"><title>2033: 1.503</title></circle>
	<circle cx="322.90" cy="259.99" data-y="1.321" data-x="2034" r="4" fill="#FFC300"><title>2034: 1.321</title></circle>
	<circle cx="340.97" cy="261.32" data-y="1.146" data-x="2035" r="4" fill="#FFC300"><title>2035: 1.146</title></circle>
	<circle cx="359.03" cy="262.61" data-y="0.975" data-x="2036" r="4" fill="#FFC300"><title>2036: 0.975</title></circle>
	<circle cx="377.10" cy="263.94" data-y="0.800" data-x="2037" r="4" fill="#FFC300"><title>2037: 0.800</title></circle>
	<circle cx="395.16" cy="265.08" data-y="0.649" data-x="2038" r="4" fill="#FFC300"><title>2038: 0.649</title></circle>
	<circle cx="413.23" cy="265.97" data-y="0.532" data-x="2039" r="4" fill="#FFC300"><title>2039: 0.532</title></circle>
	<circle cx="431.29" cy="266.72" data-y="0.433" data-x="2040" r="4" fill="#FFC300"><title>2040: 0.433</title></circle>
	<circle cx="449.35" cy="267.35" data-y="0.350" data-x="2041" r="4" fill="#FFC300"><title>2041: 0.350</title></circle>
	<circle cx="467.42" cy="267.88" data-y="0.280" data-x="2042" r="4" fill="#FFC300"><title>2042: 0.280</title></circle>
	<circle cx="485.48" cy="268.33" data-y="0.221" data-x="2043" r="4" fill="#FFC300"><title>2043: 0.221</title></circle>
	<circle cx="503.55" cy="268.70" data-y="0.172" data-x="2044" r="4" fill="#FFC300"><title>2044: 0.172</title></circle>
	<circle cx="521.61" cy="269.01" data-y="0.130" data-x="2045" r="4" fill="#FFC300"><title>2045: 0.130</title></circle>
	<circle cx="539.68" cy="269.27" data-y="0.097" data-x="2046" r="4" fill="#FFC300"><title>2046: 0.097</title></circle>
	<circle cx="557.74" cy="269.47" data-y="0.070" data-x="2047" r="4" fill="#FFC300"><title>2047: 0.070</title></circle>
	<circle cx="575.81" cy="269.62" data-y="0.050" data-x="2048" r="4" fill="#FFC300"><title>2048: 0.050</title></circle>
	<circle cx="593.87" cy="269.73" data-y="0.035" data-x="2049" r="4" fill="#FFC300"><title>2049: 0.035</title></circle>
	<circle cx="611.94" cy="269.82" data-y="0.024" data-x="2050" r="4" fill="#FFC300"><title>2050: 0.024</title></circle>
</g>
<g data-scenario="diesel" class="data-series">	<path d="M 70.00,186.45L 88.06,185.98L 106.13,185.64L 124.19,186.23L 142.26,187.71L 160.32,190.37L 178.39,194.76L 196.45,199.11L 214.52,203.77L 232.58,208.63L 250.65,213.61L 268.71,218.70L 286.77,223.82L 304.84,228.79L 322.90,233.58L 340.97,238.24L 359.03,242.26L 377.10,246.12L 395.16,249.63L 413.23,252.86L 431.29,255.73L 449.35,258.19L 467.42,260.44L 485.48,262.48L 503.55,264.30L 521.61,265.95L 539.68,267.26L 557.74,268.27L 575.81,268.98L 593.87,269.45L 611.94,269.71" id="Diesel" class="line" stroke="#846F3F" stroke-width="3" stroke-linecap="round"><title>Diesel</title></path>
	<circle cx="70.00" cy="186.45" data-y="11.027" data-x="2020" r="4" fill="#846F3F"><title>2020: 11.027</title></circle>
	<circle cx="88.06" cy="185.98" data-y="11.088" data-x="2021" r="4" fill="#846F3F"><title>2021: 11.088</title></circle>
	<circle cx="106.13" cy="185.64" data-y="11.133" data-x="2022" r="4" fill="#846F3F"><title>2022: 11.133</title></circle>
	<circle cx="124.19" cy="186.23" data-y="11.055" data-x="2023" r="4" fill="#846F3F"><title>2023: 11.055</title></circle>
	<circle cx="142.26" cy="187.71" data-y="10.860" data-x="2024" r="4" fill="#846F3F"><title>2024: 10.860</title></circle>
	<circle cx="160.32" cy="190.37" data-y="10.509" data-x="2025" r="4" fill="#846F3F"><title>2025: 10.509</title></circle>
	<circle cx="178.39" cy="194.76" data-y="9.929" data-x="2026" r="4" fill="#846F3F"><title>2026: 9.929</title></circle>
	<circle cx="196.45" cy="199.11" data-y="9.356" data-x="2027" r="4" fill="#846F3F"><title>2027: 9.356</title></circle>
	<circle cx="214.52" cy="203.77" data-y="8.741" data-x="2028" r="4" fill="#846F3F"><title>2028: 8.741</title></circle>
	<circle cx="232.58" cy="208.63" data-y="8.099" data-x="2029" r="4" fill="#846F3F"><title>2029: 8.099</title></circle>
	<circle cx="250.65" cy="213.61" data-y="7.442" data-x="2030" r="4" fill="#846F3F"><title>2030: 7.442</title></circle>
	<circle cx="268.71" cy="218.70" data-y="6.770" data-x="2031" r="4" fill="#846F3F"><title>2031: 6.770</title></circle>
	<circle cx="286.77" cy="223.82" data-y="6.094" data-x="2032" r="4" fill="#846F3F"><title>2032: 6.094</title></circle>
	<circle cx="304.84" cy="228.79" data-y="5.439" data-x="2033" r="4" fill="#846F3F"><title>2033: 5.439</title></circle>
	<circle cx="322.90" cy="233.58" data-y="4.806" data-x="2034" r="4" fill="#846F3F"><title>2034: 4.806</title></circle>
	<circle cx="340.97" cy="238.24" data-y="4.192" data-x="2035" r="4" fill="#846F3F"><title>2035: 4.192</title></circle>
	<circle cx="359.03" cy="242.26" data-y="3.661" data-x="2036" r="4" fill="#846F3F"><title>2036: 3.661</title></circle>
	<circle cx="377.10" cy="246.12" data-y="3.151" data-x="2037" r="4" fill="#846F3F"><title>2037: 3.151</title></circle>
	<circle cx="395.16" cy="249.63" data-y="2.688" data-x="2038" r="4" fill="#846F3F"><title>2038: 2.688</title></circle>
	<circle cx="413.23" cy="252.86" data-y="2.262" data-x="2039" r="4" fill="#846F3F"><title>2039: 2.262</title></circle>
	<circle cx="431.29" cy="255.73" data-y="1.883" data-x="2040" r="4" fill="#846F3F"><title>2040: 1.883</title></circle>
	<circle cx="449.35" cy="258.19" data-y="1.558" data-x="2041" r="4" fill="#846F3F"><title>2041: 1.558</title></circle>
	<circle cx="467.42" cy="260.44" data-y="1.262" data-x="2042" r="4" fill="#846F3F"><title>2042: 1.262</title></circle>
	<circle cx="485.48" cy="262.48" data-y="0.993" data-x="2043" r="4" fill="#846F3F"><title>2043: 0.993</title></circle>
	<circle cx="503.55" cy="264.30" data-y="0.752" data-x="2044" r="4" fill="#846F3F"><title>2044: 0.752</title></circle>
	<circle cx="521.61" cy="265.95" data-y="0.534" data-x="2045" r="4" fill="#846F3F"><title>2045: 0.534</title></circle>
	<circle cx="539.68" cy="267.26" data-y="0.361" data-x="2046" r="4" fill="#846F3F"><title>2046: 0.361</title></circle>
	<circle cx="557.74" cy="268.27" data-y="0.228" data-x="2047" r="4" fill="#846F3F"><title>2047: 0.228</title></circle>
	<circle cx="575.81" cy="268.98" data-y="0.134" data-x="2048" r="4" fill="#846F3F"><title>2048: 0.134</title></circle>
	<circle cx="593.87" cy="269.45" data-y="0.072" data-x="2049" r="4" fill="#846F3F"><title>2049: 0.072</title></circle>
	<circle cx="611.94" cy="269.71" data-y="0.038" data-x="2050" r="4" fill="#846F3F"><title>2050: 0.038</title></circle>
</g>
<g data-scenario="electricity" class="data-series">	<path d="M 70.00,244.24L 88.06,249.16L 106.13,254.38L 124.19,255.31L 142.26,255.64L 160.32,258.11L 178.39,260.81L 196.45,261.82L 214.52,262.00L 232.58,263.60L 250.65,263.42L 268.71,263.81L 286.77,264.23L 304.84,264.60L 322.90,264.79L 340.97,264.71L 359.03,264.65L 377.10,265.07L 395.16,265.36L 413.23,265.20L 431.29,265.34L 449.35,265.46L 467.42,265.63L 485.48,266.03L 503.55,266.21L 521.61,266.42L 539.68,266.64L 557.74,266.81L 575.81,266.94L 593.87,267.16L 611.94,267.42" id="Electricity" class="line" stroke="#cc0935" stroke-width="3" stroke-linecap="round"><title>Electricity</title></path>
	<circle cx="70.00" cy="244.24" data-y="3.399" data-x="2020" r="4" fill="#cc0935"><title>2020: 3.399</title></circle>
	<circle cx="88.06" cy="249.16" data-y="2.750" data-x="2021" r="4" fill="#cc0935"><title>2021: 2.750</title></circle>
	<circle cx="106.13" cy="254.38" data-y="2.062" data-x="2022" r="4" fill="#cc0935"><title>2022: 2.062</title></circle>
	<circle cx="124.19" cy="255.31" data-y="1.939" data-x="2023" r="4" fill="#cc0935"><title>2023: 1.939</title></circle>
	<circle cx="142.26" cy="255.64" data-y="1.895" data-x="2024" r="4" fill="#cc0935"><title>2024: 1.895</title></circle>
	<circle cx="160.32" cy="258.11" data-y="1.569" data-x="2025" r="4" fill="#cc0935"><title>2025: 1.569</title></circle>
	<circle cx="178.39" cy="260.81" data-y="1.213" data-x="2026" r="4" fill="#cc0935"><title>2026: 1.213</title></circle>
	<circle cx="196.45" cy="261.82" data-y="1.079" data-x="2027" r="4" fill="#cc0935"><title>2027: 1.079</title></circle>
	<circle cx="214.52" cy="262.00" data-y="1.056" data-x="2028" r="4" fill="#cc0935"><title>2028: 1.056</title></circle>
	<circle cx="232.58" cy="263.60" data-y="0.844" data-x="2029" r="4" fill="#cc0935"><title>2029: 0.844</title></circle>
	<circle cx="250.65" cy="263.42" data-y="0.868" data-x="2030" r="4" fill="#cc0935"><title>2030: 0.868</title></circle>
	<circle cx="268.71" cy="263.81" data-y="0.817" data-x="2031" r="4" fill="#cc0935"><title>2031: 0.817</title></circle>
	<circle cx="286.77" cy="264.23" data-y="0.761" data-x="2032" r="4" fill="#cc0935"><title>2032: 0.761</title></circle>
	<circle cx="304.84" cy="264.60" data-y="0.712" data-x="2033" r="4" fill="#cc0935"><title>2033: 0.712</title></circle>
	<circle cx="322.90" cy="264.79" data-y="0.688" data-x="2034" r="4" fill="#cc0935"><title>2034: 0.688</title></circle>
	<circle cx="340.97" cy="264.71" data-y="0.698" data-x="2035" r="4" fill="#cc0935"><title>2035: 0.698</title></circle>
	<circle cx="359.03" cy="264.65" data-y="0.706" data-x="2036" r="4" fill="#cc0935"><title>2036: 0.706</title></circle>
	<circle cx="377.10" cy="265.07" data-y="0.650" data-x="2037" r="4" fill="#cc0935"><title>2037: 0.650</title></circle>
	<circle cx="395.16" cy="265.36" data-y="0.613" data-x="2038" r="4" fill="#cc0935"><title>2038: 0.613</title></circle>
	<circle cx="413.23" cy="265.20" data-y="0.633" data-x="2039" r="4" fill="#cc0935"><title>2039: 0.633</title></circle>
	<circle cx="431.29" cy="265.34" data-y="0.615" data-x="2040" r="4" fill="#cc0935"><title>2040: 0.615</title></circle>
	<circle cx="449.35" cy="265.46" data-y="0.599" data-x="2041" r="4" fill="#cc0935"><title>2041: 0.599</title></circle>
	<circle cx="467.42" cy="265.63" data-y="0.577" data-x="2042" r="4" fill="#cc0935"><title>2042: 0.577</title></circle>
	<circle cx="485.48" cy="266.03" data-y="0.524" data-x="2043" r="4" fill="#cc0935"><title>2043: 0.524</title></circle>
	<circle cx="503.55" cy="266.21" data-y="0.500" data-x="2044" r="4" fill="#cc0935"><title>2044: 0.500</title></circle>
	<circle cx="521.61" cy="266.42" data-y="0.472" data-x="2045" r="4" fill="#cc0935"><title>2045: 0.472</title></circle>
	<circle cx="539.68" cy="266.64" data-y="0.444" data-x="2046" r="4" fill="#cc0935"><title>2046: 0.444</title></circle>
	<circle cx="557.74" cy="266.81" data-y="0.421" data-x="2047" r="4" fill="#cc0935"><title>2047: 0.421</title></circle>
	<circle cx="575.81" cy="266.94" data-y="0.404" data-x="2048" r="4" fill="#cc0935"><title>2048: 0.404</title></circle>
	<circle cx="593.87" cy="267.16" data-y="0.375" data-x="2049" r="4" fill="#cc0935"><title>2049: 0.375</title></circle>
	<circle cx="611.94" cy="267.42" data-y="0.341" data-x="2050" r="4" fill="#cc0935"><title>2050: 0.341</title></circle>
</g>
<g data-scenario="total-emissions" class="data-series">	<path d="M 70.00,10.00L 88.06,16.30L 106.13,23.51L 124.19,28.53L 142.26,34.20L 160.32,43.88L 178.39,55.79L 196.45,65.97L 214.52,75.29L 232.58,86.08L 250.65,95.12L 268.71,104.57L 286.77,113.82L 304.84,122.48L 322.90,130.77L 340.97,144.45L 359.03,157.59L 377.10,170.78L 395.16,183.11L 413.23,194.37L 431.29,204.75L 449.35,214.55L 467.42,223.60L 485.48,232.57L 503.55,240.96L 521.61,249.12L 539.68,256.82L 557.74,263.36L 575.81,264.79L 593.87,266.04L 611.94,266.66" id="Total Emissions" class="line" stroke="#000000" stroke-width="3" stroke-linecap="round"><title>Total Emissions</title></path>
	<circle cx="70.00" cy="10.00" data-y="34.313" data-x="2020" r="4" fill="#000000"><title>2020: 34.313</title></circle>
	<circle cx="88.06" cy="16.30" data-y="33.481" data-x="2021" r="4" fill="#000000"><title>2021: 33.481</title></circle>
	<circle cx="106.13" cy="23.51" data-y="32.530" data-x="2022" r="4" fill="#000000"><title>2022: 32.530</title></circle>
	<circle cx="124.19" cy="28.53" data-y="31.868" data-x="2023" r="4" fill="#000000"><title>2023: 31.868</title></circle>
	<circle cx="142.26" cy="34.20" data-y="31.119" data-x="2024" r="4" fill="#000000"><title>2024: 31.119</title></circle>
	<circle cx="160.32" cy="43.88" data-y="29.842" data-x="2025" r="4" fill="#000000"><title>2025: 29.842</title></circle>
	<circle cx="178.39" cy="55.79" data-y="28.270" data-x="2026" r="4" fill="#000000"><title>2026: 28.270</title></circle>
	<circle cx="196.45" cy="65.97" data-y="26.927" data-x="2027" r="4" fill="#000000"><title>2027: 26.927</title></circle>
	<circle cx="214.52" cy="75.29" data-y="25.696" data-x="2028" r="4" fill="#000000"><title>2028: 25.696</title></circle>
	<circle cx="232.58" cy="86.08" data-y="24.272" data-x="2029" r="4" fill="#000000"><title>2029: 24.272</title></circle>
	<circle cx="250.65" cy="95.12" data-y="23.080" data-x="2030" r="4" fill="#000000"><title>2030: 23.080</title></circle>
	<circle cx="268.71" cy="104.57" data-y="21.832" data-x="2031" r="4" fill="#000000"><title>2031: 21.832</title></circle>
	<circle cx="286.77" cy="113.82" data-y="20.611" data-x="2032" r="4" fill="#000000"><title>2032: 20.611</title></circle>
	<circle cx="304.84" cy="122.48" data-y="19.469" data-x="2033" r="4" fill="#000000"><title>2033: 19.469</title></circle>
	<circle cx="322.90" cy="130.77" data-y="18.374" data-x="2034" r="4" fill="#000000"><title>2034: 18.374</title></circle>
	<circle cx="340.97" cy="144.45" data-y="16.569" data-x="2035" r="4" fill="#000000"><title>2035: 16.569</title></circle>
	<circle cx="359.03" cy="157.59" data-y="14.835" data-x="2036" r="4" fill="#000000"><title>2036: 14.835</title></circle>
	<circle cx="377.10" cy="170.78" data-y="13.094" data-x="2037" r="4" fill="#000000"><title>2037: 13.094</title></circle>
	<circle cx="395.16" cy="183.11" data-y="11.467" data-x="2038" r="4" fill="#000000"><title>2038: 11.467</title></circle>
	<circle cx="413.23" cy="194.37" data-y="9.981" data-x="2039" r="4" fill="#000000"><title>2039: 9.981</title></circle>
	<circle cx="431.29" cy="204.75" data-y="8.611" data-x="2040" r="4" fill="#000000"><title>2040: 8.611</title></circle>
	<circle cx="449.35" cy="214.55" data-y="7.318" data-x="2041" r="4" fill="#000000"><title>2041: 7.318</title></circle>
	<circle cx="467.42" cy="223.60" data-y="6.123" data-x="2042" r="4" fill="#000000"><title>2042: 6.123</title></circle>
	<circle cx="485.48" cy="232.57" data-y="4.940" data-x="2043" r="4" fill="#000000"><title>2043: 4.940</title></circle>
	<circle cx="503.55" cy="240.96" data-y="3.832" data-x="2044" r="4" fill="#000000"><title>2044: 3.832</title></circle>
	<circle cx="521.61" cy="249.12" data-y="2.756" data-x="2045" r="4" fill="#000000"><title>2045: 2.756</title></circle>
	<circle cx="539.68" cy="256.82" data-y="1.739" data-x="2046" r="4" fill="#000000"><title>2046: 1.739</title></circle>
	<circle cx="557.74" cy="263.36" data-y="0.876" data-x="2047" r="4" fill="#000000"><title>2047: 0.876</title></circle>
	<circle cx="575.81" cy="264.79" data-y="0.687" data-x="2048" r="4" fill="#000000"><title>2048: 0.687</title></circle>
	<circle cx="593.87" cy="266.04" data-y="0.522" data-x="2049" r="4" fill="#000000"><title>2049: 0.522</title></circle>
	<circle cx="611.94" cy="266.66" data-y="0.441" data-x="2050" r="4" fill="#000000"><title>2050: 0.441</title></circle>
</g>
</svg>
