<svg width="640" height="320" viewBox="0 0 640 320" xmlns="http://www.w3.org/2000/svg" style="overflow:display" preserveAspectRatio="xMinYMin meet" overflow="visible">
<defs><style>.data-series path.line { fill-opacity: 0; }.data-series path.line.dotted { stroke-dasharray: 12 20 }.data-series circle { display: none; }.data-series:hover path.line, .data-series.on path.line { stroke-width: 5; }.data-series:hover circle, .data-series.on circle { display: inline; }.data-series circle:hover, .data-series circle.on { r: 6px!important; fill: black; }.grid { font-family: "Helvetica Neue",Helvetica,Arial,"Lucida Grande",sans-serif; }.grid line { stroke: rgb(0,0,0); stroke-width: 2; stroke-linecap: round; }.grid.grid-x text { text-anchor: middle; dominant-baseline: hanging; transform: translateY(10px); }.grid.grid-y text { text-anchor: end; dominant-baseline: middle; transform: translateX(-10px); }</style>
</defs><g class="grid grid-y"><line x1="120" y1="270" x2="630" y2="270" data-left="120"></line><text x="120" y="270" text-anchor="end">0</text><text x="120" y="178.944456118232" text-anchor="end">5</text><text x="120" y="87.8889122364642" text-anchor="end">10</text><text style="text-anchor:middle;dominant-baseline:hanging;font-weight:bold;transform: translateY(140px) rotate(-90deg);">Annual peak demand (GW)</text></g><g class="grid grid-x"><line class="tick" x1="120" y1="270" x2="120" y2="275"></line><text x="120" y="270" text-anchor="middle">2020</text><line class="tick" x1="284.516129032258" y1="270" x2="284.516129032258" y2="275"></line><text x="284.516129032258" y="270" text-anchor="middle">2030</text><line class="tick" x1="449.032258064516" y1="270" x2="449.032258064516" y2="275"></line><text x="449.032258064516" y="270" text-anchor="middle">2040</text><line class="tick" x1="613.548387096774" y1="270" x2="613.548387096774" y2="275"></line><text x="613.548387096774" y="270" text-anchor="middle">2050</text><text style="text-anchor:middle;dominant-baseline:hanging;font-weight:bold;transform: translateY(140px) rotate(-90deg);"></text></g><g data-scenario="high-hydrogen" class="data-series"><path d="M 120.00,147.86L 136.45,147.95L 152.90,147.75L 169.35,146.97L 185.81,145.76L 202.26,144.12L 218.71,142.25L 235.16,140.03L 251.61,137.39L 268.06,134.44L 284.52,130.99L 300.97,127.99L 317.42,125.13L 333.87,122.09L 350.32,118.90L 366.77,114.31L 383.23,110.03L 399.68,106.70L 416.13,103.66L 432.58,101.06L 449.03,98.63L 465.48,96.70L 481.94,94.94L 498.39,93.35L 514.84,91.90L 531.29,90.73L 547.74,89.75L 564.19,88.85L 580.65,88.11L 597.10,87.49L 613.55,86.92" id="High hydrogen" class="line" stroke="#0085CA" stroke-width="3" stroke-linecap="round"><title>High hydrogen</title></path>
<circle cx="120.00" cy="147.86" data-y="6.707" data-x="2020" r="4" fill="#0085CA"><title>2020: 6.707</title></circle>
<circle cx="136.45" cy="147.95" data-y="6.702" data-x="2021" r="4" fill="#0085CA"><title>2021: 6.702</title></circle>
<circle cx="152.90" cy="147.75" data-y="6.713" data-x="2022" r="4" fill="#0085CA"><title>2022: 6.713</title></circle>
<circle cx="169.35" cy="146.97" data-y="6.756" data-x="2023" r="4" fill="#0085CA"><title>2023: 6.756</title></circle>
<circle cx="185.81" cy="145.76" data-y="6.822" data-x="2024" r="4" fill="#0085CA"><title>2024: 6.822</title></circle>
<circle cx="202.26" cy="144.12" data-y="6.912" data-x="2025" r="4" fill="#0085CA"><title>2025: 6.912</title></circle>
<circle cx="218.71" cy="142.25" data-y="7.015" data-x="2026" r="4" fill="#0085CA"><title>2026: 7.015</title></circle>
<circle cx="235.16" cy="140.03" data-y="7.137" data-x="2027" r="4" fill="#0085CA"><title>2027: 7.137</title></circle>
<circle cx="251.61" cy="137.39" data-y="7.282" data-x="2028" r="4" fill="#0085CA"><title>2028: 7.282</title></circle>
<circle cx="268.06" cy="134.44" data-y="7.444" data-x="2029" r="4" fill="#0085CA"><title>2029: 7.444</title></circle>
<circle cx="284.52" cy="130.99" data-y="7.633" data-x="2030" r="4" fill="#0085CA"><title>2030: 7.633</title></circle>
<circle cx="300.97" cy="127.99" data-y="7.798" data-x="2031" r="4" fill="#0085CA"><title>2031: 7.798</title></circle>
<circle cx="317.42" cy="125.13" data-y="7.955" data-x="2032" r="4" fill="#0085CA"><title>2032: 7.955</title></circle>
<circle cx="333.87" cy="122.09" data-y="8.122" data-x="2033" r="4" fill="#0085CA"><title>2033: 8.122</title></circle>
<circle cx="350.32" cy="118.90" data-y="8.297" data-x="2034" r="4" fill="#0085CA"><title>2034: 8.297</title></circle>
<circle cx="366.77" cy="114.31" data-y="8.549" data-x="2035" r="4" fill="#0085CA"><title>2035: 8.549</title></circle>
<circle cx="383.23" cy="110.03" data-y="8.784" data-x="2036" r="4" fill="#0085CA"><title>2036: 8.784</title></circle>
<circle cx="399.68" cy="106.70" data-y="8.967" data-x="2037" r="4" fill="#0085CA"><title>2037: 8.967</title></circle>
<circle cx="416.13" cy="103.66" data-y="9.134" data-x="2038" r="4" fill="#0085CA"><title>2038: 9.134</title></circle>
<circle cx="432.58" cy="101.06" data-y="9.277" data-x="2039" r="4" fill="#0085CA"><title>2039: 9.277</title></circle>
<circle cx="449.03" cy="98.63" data-y="9.410" data-x="2040" r="4" fill="#0085CA"><title>2040: 9.410</title></circle>
<circle cx="465.48" cy="96.70" data-y="9.516" data-x="2041" r="4" fill="#0085CA"><title>2041: 9.516</title></circle>
<circle cx="481.94" cy="94.94" data-y="9.613" data-x="2042" r="4" fill="#0085CA"><title>2042: 9.613</title></circle>
<circle cx="498.39" cy="93.35" data-y="9.700" data-x="2043" r="4" fill="#0085CA"><title>2043: 9.700</title></circle>
<circle cx="514.84" cy="91.90" data-y="9.780" data-x="2044" r="4" fill="#0085CA"><title>2044: 9.780</title></circle>
<circle cx="531.29" cy="90.73" data-y="9.844" data-x="2045" r="4" fill="#0085CA"><title>2045: 9.844</title></circle>
<circle cx="547.74" cy="89.75" data-y="9.898" data-x="2046" r="4" fill="#0085CA"><title>2046: 9.898</title></circle>
<circle cx="564.19" cy="88.85" data-y="9.947" data-x="2047" r="4" fill="#0085CA"><title>2047: 9.947</title></circle>
<circle cx="580.65" cy="88.11" data-y="9.988" data-x="2048" r="4" fill="#0085CA"><title>2048: 9.988</title></circle>
<circle cx="597.10" cy="87.49" data-y="10.022" data-x="2049" r="4" fill="#0085CA"><title>2049: 10.022</title></circle>
<circle cx="613.55" cy="86.92" data-y="10.053" data-x="2050" r="4" fill="#0085CA"><title>2050: 10.053</title></circle>
</g>
<g data-scenario="deep-electrification" class="data-series"><path d="M 120.00,149.28L 136.45,149.68L 152.90,149.72L 169.35,149.10L 185.81,147.99L 202.26,146.60L 218.71,145.09L 235.16,143.12L 251.61,140.77L 268.06,138.12L 284.52,135.07L 300.97,132.47L 317.42,130.03L 333.87,127.44L 350.32,124.69L 366.77,114.02L 383.23,103.82L 399.68,94.65L 416.13,85.85L 432.58,77.56L 449.03,69.46L 465.48,61.83L 481.94,54.49L 498.39,47.35L 514.84,40.36L 531.29,33.71L 547.74,27.41L 564.19,21.31L 580.65,15.41L 597.10,10.00L 613.55,10.49" id="Deep electrification" class="line" stroke="#AB1236" stroke-width="3" stroke-linecap="round"><title>Deep electrification</title></path>
<circle cx="120.00" cy="149.28" data-y="6.629" data-x="2020" r="4" fill="#AB1236"><title>2020: 6.629</title></circle>
<circle cx="136.45" cy="149.68" data-y="6.607" data-x="2021" r="4" fill="#AB1236"><title>2021: 6.607</title></circle>
<circle cx="152.90" cy="149.72" data-y="6.605" data-x="2022" r="4" fill="#AB1236"><title>2022: 6.605</title></circle>
<circle cx="169.35" cy="149.10" data-y="6.639" data-x="2023" r="4" fill="#AB1236"><title>2023: 6.639</title></circle>
<circle cx="185.81" cy="147.99" data-y="6.700" data-x="2024" r="4" fill="#AB1236"><title>2024: 6.700</title></circle>
<circle cx="202.26" cy="146.60" data-y="6.776" data-x="2025" r="4" fill="#AB1236"><title>2025: 6.776</title></circle>
<circle cx="218.71" cy="145.09" data-y="6.859" data-x="2026" r="4" fill="#AB1236"><title>2026: 6.859</title></circle>
<circle cx="235.16" cy="143.12" data-y="6.967" data-x="2027" r="4" fill="#AB1236"><title>2027: 6.967</title></circle>
<circle cx="251.61" cy="140.77" data-y="7.096" data-x="2028" r="4" fill="#AB1236"><title>2028: 7.096</title></circle>
<circle cx="268.06" cy="138.12" data-y="7.242" data-x="2029" r="4" fill="#AB1236"><title>2029: 7.242</title></circle>
<circle cx="284.52" cy="135.07" data-y="7.409" data-x="2030" r="4" fill="#AB1236"><title>2030: 7.409</title></circle>
<circle cx="300.97" cy="132.47" data-y="7.552" data-x="2031" r="4" fill="#AB1236"><title>2031: 7.552</title></circle>
<circle cx="317.42" cy="130.03" data-y="7.686" data-x="2032" r="4" fill="#AB1236"><title>2032: 7.686</title></circle>
<circle cx="333.87" cy="127.44" data-y="7.828" data-x="2033" r="4" fill="#AB1236"><title>2033: 7.828</title></circle>
<circle cx="350.32" cy="124.69" data-y="7.979" data-x="2034" r="4" fill="#AB1236"><title>2034: 7.979</title></circle>
<circle cx="366.77" cy="114.02" data-y="8.565" data-x="2035" r="4" fill="#AB1236"><title>2035: 8.565</title></circle>
<circle cx="383.23" cy="103.82" data-y="9.125" data-x="2036" r="4" fill="#AB1236"><title>2036: 9.125</title></circle>
<circle cx="399.68" cy="94.65" data-y="9.629" data-x="2037" r="4" fill="#AB1236"><title>2037: 9.629</title></circle>
<circle cx="416.13" cy="85.85" data-y="10.112" data-x="2038" r="4" fill="#AB1236"><title>2038: 10.112</title></circle>
<circle cx="432.58" cy="77.56" data-y="10.567" data-x="2039" r="4" fill="#AB1236"><title>2039: 10.567</title></circle>
<circle cx="449.03" cy="69.46" data-y="11.012" data-x="2040" r="4" fill="#AB1236"><title>2040: 11.012</title></circle>
<circle cx="465.48" cy="61.83" data-y="11.431" data-x="2041" r="4" fill="#AB1236"><title>2041: 11.431</title></circle>
<circle cx="481.94" cy="54.49" data-y="11.834" data-x="2042" r="4" fill="#AB1236"><title>2042: 11.834</title></circle>
<circle cx="498.39" cy="47.35" data-y="12.226" data-x="2043" r="4" fill="#AB1236"><title>2043: 12.226</title></circle>
<circle cx="514.84" cy="40.36" data-y="12.610" data-x="2044" r="4" fill="#AB1236"><title>2044: 12.610</title></circle>
<circle cx="531.29" cy="33.71" data-y="12.975" data-x="2045" r="4" fill="#AB1236"><title>2045: 12.975</title></circle>
<circle cx="547.74" cy="27.41" data-y="13.321" data-x="2046" r="4" fill="#AB1236"><title>2046: 13.321</title></circle>
<circle cx="564.19" cy="21.31" data-y="13.656" data-x="2047" r="4" fill="#AB1236"><title>2047: 13.656</title></circle>
<circle cx="580.65" cy="15.41" data-y="13.980" data-x="2048" r="4" fill="#AB1236"><title>2048: 13.980</title></circle>
<circle cx="597.10" cy="10.00" data-y="14.277" data-x="2049" r="4" fill="#AB1236"><title>2049: 14.277</title></circle>
<circle cx="613.55" cy="10.49" data-y="14.250" data-x="2050" r="4" fill="#AB1236"><title>2050: 14.250</title></circle>
</g>
<g data-scenario="net-zero" class="data-series"><path d="M 120.00,149.26L 136.45,149.62L 152.90,149.57L 169.35,148.70L 185.81,147.40L 202.26,145.53L 218.71,143.49L 235.16,141.12L 251.61,138.35L 268.06,135.27L 284.52,126.17L 300.97,117.35L 317.42,109.21L 333.87,100.86L 350.32,92.46L 366.77,83.23L 383.23,74.50L 399.68,66.87L 416.13,59.63L 432.58,52.89L 449.03,46.59L 465.48,40.76L 481.94,35.11L 498.39,29.63L 514.84,24.51L 531.29,24.04L 547.74,23.93L 564.19,23.62L 580.65,23.62L 597.10,23.80L 613.55,24.02" id="Early net zero" class="line" stroke="#00AB84" stroke-width="3" stroke-linecap="round"><title>Early net zero</title></path>
<circle cx="120.00" cy="149.26" data-y="6.630" data-x="2020" r="4" fill="#00AB84"><title>2020: 6.630</title></circle>
<circle cx="136.45" cy="149.62" data-y="6.610" data-x="2021" r="4" fill="#00AB84"><title>2021: 6.610</title></circle>
<circle cx="152.90" cy="149.57" data-y="6.613" data-x="2022" r="4" fill="#00AB84"><title>2022: 6.613</title></circle>
<circle cx="169.35" cy="148.70" data-y="6.661" data-x="2023" r="4" fill="#00AB84"><title>2023: 6.661</title></circle>
<circle cx="185.81" cy="147.40" data-y="6.732" data-x="2024" r="4" fill="#00AB84"><title>2024: 6.732</title></circle>
<circle cx="202.26" cy="145.53" data-y="6.835" data-x="2025" r="4" fill="#00AB84"><title>2025: 6.835</title></circle>
<circle cx="218.71" cy="143.49" data-y="6.947" data-x="2026" r="4" fill="#00AB84"><title>2026: 6.947</title></circle>
<circle cx="235.16" cy="141.12" data-y="7.077" data-x="2027" r="4" fill="#00AB84"><title>2027: 7.077</title></circle>
<circle cx="251.61" cy="138.35" data-y="7.229" data-x="2028" r="4" fill="#00AB84"><title>2028: 7.229</title></circle>
<circle cx="268.06" cy="135.27" data-y="7.398" data-x="2029" r="4" fill="#00AB84"><title>2029: 7.398</title></circle>
<circle cx="284.52" cy="126.17" data-y="7.898" data-x="2030" r="4" fill="#00AB84"><title>2030: 7.898</title></circle>
<circle cx="300.97" cy="117.35" data-y="8.382" data-x="2031" r="4" fill="#00AB84"><title>2031: 8.382</title></circle>
<circle cx="317.42" cy="109.21" data-y="8.829" data-x="2032" r="4" fill="#00AB84"><title>2032: 8.829</title></circle>
<circle cx="333.87" cy="100.86" data-y="9.288" data-x="2033" r="4" fill="#00AB84"><title>2033: 9.288</title></circle>
<circle cx="350.32" cy="92.46" data-y="9.749" data-x="2034" r="4" fill="#00AB84"><title>2034: 9.749</title></circle>
<circle cx="366.77" cy="83.23" data-y="10.256" data-x="2035" r="4" fill="#00AB84"><title>2035: 10.256</title></circle>
<circle cx="383.23" cy="74.50" data-y="10.735" data-x="2036" r="4" fill="#00AB84"><title>2036: 10.735</title></circle>
<circle cx="399.68" cy="66.87" data-y="11.154" data-x="2037" r="4" fill="#00AB84"><title>2037: 11.154</title></circle>
<circle cx="416.13" cy="59.63" data-y="11.552" data-x="2038" r="4" fill="#00AB84"><title>2038: 11.552</title></circle>
<circle cx="432.58" cy="52.89" data-y="11.922" data-x="2039" r="4" fill="#00AB84"><title>2039: 11.922</title></circle>
<circle cx="449.03" cy="46.59" data-y="12.268" data-x="2040" r="4" fill="#00AB84"><title>2040: 12.268</title></circle>
<circle cx="465.48" cy="40.76" data-y="12.588" data-x="2041" r="4" fill="#00AB84"><title>2041: 12.588</title></circle>
<circle cx="481.94" cy="35.11" data-y="12.898" data-x="2042" r="4" fill="#00AB84"><title>2042: 12.898</title></circle>
<circle cx="498.39" cy="29.63" data-y="13.199" data-x="2043" r="4" fill="#00AB84"><title>2043: 13.199</title></circle>
<circle cx="514.84" cy="24.51" data-y="13.480" data-x="2044" r="4" fill="#00AB84"><title>2044: 13.480</title></circle>
<circle cx="531.29" cy="24.04" data-y="13.506" data-x="2045" r="4" fill="#00AB84"><title>2045: 13.506</title></circle>
<circle cx="547.74" cy="23.93" data-y="13.512" data-x="2046" r="4" fill="#00AB84"><title>2046: 13.512</title></circle>
<circle cx="564.19" cy="23.62" data-y="13.529" data-x="2047" r="4" fill="#00AB84"><title>2047: 13.529</title></circle>
<circle cx="580.65" cy="23.62" data-y="13.529" data-x="2048" r="4" fill="#00AB84"><title>2048: 13.529</title></circle>
<circle cx="597.10" cy="23.80" data-y="13.519" data-x="2049" r="4" fill="#00AB84"><title>2049: 13.519</title></circle>
<circle cx="613.55" cy="24.02" data-y="13.507" data-x="2050" r="4" fill="#00AB84"><title>2050: 13.507</title></circle>
</g>
<g data-scenario="high-hydrogen" class="data-series"><path d="M 120.00,147.86L 136.45,147.95L 152.90,147.75L 169.35,147.38L 185.81,146.53L 202.26,145.31L 218.71,143.96L 235.16,142.38L 251.61,140.56L 268.06,138.12L 284.52,135.24L 300.97,132.72L 317.42,130.34L 333.87,127.81L 350.32,125.17L 366.77,121.38L 383.23,117.83L 399.68,115.02L 416.13,112.46L 432.58,110.25L 449.03,108.19L 465.48,106.52L 481.94,104.97L 498.39,103.57L 514.84,102.28L 531.29,101.20L 547.74,100.27L 564.19,99.45L 580.65,98.71L 597.10,98.07L 613.55,97.50" id="High hydrogen with customer flexibility" class="line dotted" stroke="#0085CA" stroke-width="3" stroke-linecap="round"><title>High hydrogen with customer flexibility</title></path>
<circle cx="120.00" cy="147.86" data-y="6.707" data-x="2020" r="4" fill="#0085CA"><title>2020: 6.707</title></circle>
<circle cx="136.45" cy="147.95" data-y="6.702" data-x="2021" r="4" fill="#0085CA"><title>2021: 6.702</title></circle>
<circle cx="152.90" cy="147.75" data-y="6.713" data-x="2022" r="4" fill="#0085CA"><title>2022: 6.713</title></circle>
<circle cx="169.35" cy="147.38" data-y="6.733" data-x="2023" r="4" fill="#0085CA"><title>2023: 6.733</title></circle>
<circle cx="185.81" cy="146.53" data-y="6.780" data-x="2024" r="4" fill="#0085CA"><title>2024: 6.780</title></circle>
<circle cx="202.26" cy="145.31" data-y="6.847" data-x="2025" r="4" fill="#0085CA"><title>2025: 6.847</title></circle>
<circle cx="218.71" cy="143.96" data-y="6.921" data-x="2026" r="4" fill="#0085CA"><title>2026: 6.921</title></circle>
<circle cx="235.16" cy="142.38" data-y="7.008" data-x="2027" r="4" fill="#0085CA"><title>2027: 7.008</title></circle>
<circle cx="251.61" cy="140.56" data-y="7.108" data-x="2028" r="4" fill="#0085CA"><title>2028: 7.108</title></circle>
<circle cx="268.06" cy="138.12" data-y="7.242" data-x="2029" r="4" fill="#0085CA"><title>2029: 7.242</title></circle>
<circle cx="284.52" cy="135.24" data-y="7.400" data-x="2030" r="4" fill="#0085CA"><title>2030: 7.400</title></circle>
<circle cx="300.97" cy="132.72" data-y="7.538" data-x="2031" r="4" fill="#0085CA"><title>2031: 7.538</title></circle>
<circle cx="317.42" cy="130.34" data-y="7.669" data-x="2032" r="4" fill="#0085CA"><title>2032: 7.669</title></circle>
<circle cx="333.87" cy="127.81" data-y="7.808" data-x="2033" r="4" fill="#0085CA"><title>2033: 7.808</title></circle>
<circle cx="350.32" cy="125.17" data-y="7.953" data-x="2034" r="4" fill="#0085CA"><title>2034: 7.953</title></circle>
<circle cx="366.77" cy="121.38" data-y="8.161" data-x="2035" r="4" fill="#0085CA"><title>2035: 8.161</title></circle>
<circle cx="383.23" cy="117.83" data-y="8.356" data-x="2036" r="4" fill="#0085CA"><title>2036: 8.356</title></circle>
<circle cx="399.68" cy="115.02" data-y="8.510" data-x="2037" r="4" fill="#0085CA"><title>2037: 8.510</title></circle>
<circle cx="416.13" cy="112.46" data-y="8.651" data-x="2038" r="4" fill="#0085CA"><title>2038: 8.651</title></circle>
<circle cx="432.58" cy="110.25" data-y="8.772" data-x="2039" r="4" fill="#0085CA"><title>2039: 8.772</title></circle>
<circle cx="449.03" cy="108.19" data-y="8.885" data-x="2040" r="4" fill="#0085CA"><title>2040: 8.885</title></circle>
<circle cx="465.48" cy="106.52" data-y="8.977" data-x="2041" r="4" fill="#0085CA"><title>2041: 8.977</title></circle>
<circle cx="481.94" cy="104.97" data-y="9.062" data-x="2042" r="4" fill="#0085CA"><title>2042: 9.062</title></circle>
<circle cx="498.39" cy="103.57" data-y="9.139" data-x="2043" r="4" fill="#0085CA"><title>2043: 9.139</title></circle>
<circle cx="514.84" cy="102.28" data-y="9.210" data-x="2044" r="4" fill="#0085CA"><title>2044: 9.210</title></circle>
<circle cx="531.29" cy="101.20" data-y="9.269" data-x="2045" r="4" fill="#0085CA"><title>2045: 9.269</title></circle>
<circle cx="547.74" cy="100.27" data-y="9.320" data-x="2046" r="4" fill="#0085CA"><title>2046: 9.320</title></circle>
<circle cx="564.19" cy="99.45" data-y="9.365" data-x="2047" r="4" fill="#0085CA"><title>2047: 9.365</title></circle>
<circle cx="580.65" cy="98.71" data-y="9.406" data-x="2048" r="4" fill="#0085CA"><title>2048: 9.406</title></circle>
<circle cx="597.10" cy="98.07" data-y="9.441" data-x="2049" r="4" fill="#0085CA"><title>2049: 9.441</title></circle>
<circle cx="613.55" cy="97.50" data-y="9.472" data-x="2050" r="4" fill="#0085CA"><title>2050: 9.472</title></circle>
</g>
<g data-scenario="deep-electrification" class="data-series"><path d="M 120.00,149.28L 136.45,149.68L 152.90,149.72L 169.35,149.52L 185.81,148.71L 202.26,147.73L 218.71,146.67L 235.16,145.29L 251.61,143.67L 268.06,141.45L 284.52,138.90L 300.97,136.73L 317.42,134.69L 333.87,132.54L 350.32,130.27L 366.77,120.30L 383.23,110.71L 399.68,101.98L 416.13,93.59L 432.58,85.65L 449.03,77.85L 465.48,70.42L 481.94,63.29L 498.39,56.29L 514.84,49.43L 531.29,42.87L 547.74,36.62L 564.19,30.54L 580.65,24.66L 597.10,19.23L 613.55,19.69" id="Deep electrification with customer flexibility" class="line dotted" stroke="#AB1236" stroke-width="3" stroke-linecap="round"><title>Deep electrification with customer flexibility</title></path>
<circle cx="120.00" cy="149.28" data-y="6.629" data-x="2020" r="4" fill="#AB1236"><title>2020: 6.629</title></circle>
<circle cx="136.45" cy="149.68" data-y="6.607" data-x="2021" r="4" fill="#AB1236"><title>2021: 6.607</title></circle>
<circle cx="152.90" cy="149.72" data-y="6.605" data-x="2022" r="4" fill="#AB1236"><title>2022: 6.605</title></circle>
<circle cx="169.35" cy="149.52" data-y="6.616" data-x="2023" r="4" fill="#AB1236"><title>2023: 6.616</title></circle>
<circle cx="185.81" cy="148.71" data-y="6.660" data-x="2024" r="4" fill="#AB1236"><title>2024: 6.660</title></circle>
<circle cx="202.26" cy="147.73" data-y="6.714" data-x="2025" r="4" fill="#AB1236"><title>2025: 6.714</title></circle>
<circle cx="218.71" cy="146.67" data-y="6.772" data-x="2026" r="4" fill="#AB1236"><title>2026: 6.772</title></circle>
<circle cx="235.16" cy="145.29" data-y="6.848" data-x="2027" r="4" fill="#AB1236"><title>2027: 6.848</title></circle>
<circle cx="251.61" cy="143.67" data-y="6.937" data-x="2028" r="4" fill="#AB1236"><title>2028: 6.937</title></circle>
<circle cx="268.06" cy="141.45" data-y="7.059" data-x="2029" r="4" fill="#AB1236"><title>2029: 7.059</title></circle>
<circle cx="284.52" cy="138.90" data-y="7.199" data-x="2030" r="4" fill="#AB1236"><title>2030: 7.199</title></circle>
<circle cx="300.97" cy="136.73" data-y="7.318" data-x="2031" r="4" fill="#AB1236"><title>2031: 7.318</title></circle>
<circle cx="317.42" cy="134.69" data-y="7.430" data-x="2032" r="4" fill="#AB1236"><title>2032: 7.430</title></circle>
<circle cx="333.87" cy="132.54" data-y="7.548" data-x="2033" r="4" fill="#AB1236"><title>2033: 7.548</title></circle>
<circle cx="350.32" cy="130.27" data-y="7.673" data-x="2034" r="4" fill="#AB1236"><title>2034: 7.673</title></circle>
<circle cx="366.77" cy="120.30" data-y="8.220" data-x="2035" r="4" fill="#AB1236"><title>2035: 8.220</title></circle>
<circle cx="383.23" cy="110.71" data-y="8.747" data-x="2036" r="4" fill="#AB1236"><title>2036: 8.747</title></circle>
<circle cx="399.68" cy="101.98" data-y="9.226" data-x="2037" r="4" fill="#AB1236"><title>2037: 9.226</title></circle>
<circle cx="416.13" cy="93.59" data-y="9.687" data-x="2038" r="4" fill="#AB1236"><title>2038: 9.687</title></circle>
<circle cx="432.58" cy="85.65" data-y="10.123" data-x="2039" r="4" fill="#AB1236"><title>2039: 10.123</title></circle>
<circle cx="449.03" cy="77.85" data-y="10.551" data-x="2040" r="4" fill="#AB1236"><title>2040: 10.551</title></circle>
<circle cx="465.48" cy="70.42" data-y="10.959" data-x="2041" r="4" fill="#AB1236"><title>2041: 10.959</title></circle>
<circle cx="481.94" cy="63.29" data-y="11.351" data-x="2042" r="4" fill="#AB1236"><title>2042: 11.351</title></circle>
<circle cx="498.39" cy="56.29" data-y="11.735" data-x="2043" r="4" fill="#AB1236"><title>2043: 11.735</title></circle>
<circle cx="514.84" cy="49.43" data-y="12.112" data-x="2044" r="4" fill="#AB1236"><title>2044: 12.112</title></circle>
<circle cx="531.29" cy="42.87" data-y="12.472" data-x="2045" r="4" fill="#AB1236"><title>2045: 12.472</title></circle>
<circle cx="547.74" cy="36.62" data-y="12.815" data-x="2046" r="4" fill="#AB1236"><title>2046: 12.815</title></circle>
<circle cx="564.19" cy="30.54" data-y="13.149" data-x="2047" r="4" fill="#AB1236"><title>2047: 13.149</title></circle>
<circle cx="580.65" cy="24.66" data-y="13.472" data-x="2048" r="4" fill="#AB1236"><title>2048: 13.472</title></circle>
<circle cx="597.10" cy="19.23" data-y="13.770" data-x="2049" r="4" fill="#AB1236"><title>2049: 13.770</title></circle>
<circle cx="613.55" cy="19.69" data-y="13.745" data-x="2050" r="4" fill="#AB1236"><title>2050: 13.745</title></circle>
</g>
<g data-scenario="net-zero" class="data-series"><path d="M 120.00,149.26L 136.45,149.62L 152.90,149.57L 169.35,149.13L 185.81,148.19L 202.26,146.77L 218.71,145.27L 235.16,143.60L 251.61,141.67L 268.06,139.13L 284.52,130.70L 300.97,122.53L 317.42,114.99L 333.87,107.21L 350.32,99.40L 366.77,90.91L 383.23,82.79L 399.68,75.60L 416.13,68.71L 432.58,62.25L 449.03,56.20L 465.48,50.52L 481.94,44.98L 498.39,39.56L 514.84,34.49L 531.29,34.04L 547.74,33.93L 564.19,33.58L 580.65,33.57L 597.10,33.69L 613.55,33.84" id="Early net zero with customer flexibility" class="line dotted" stroke="#00AB84" stroke-width="3" stroke-linecap="round"><title>Early net zero with customer flexibility</title></path>
<circle cx="120.00" cy="149.26" data-y="6.630" data-x="2020" r="4" fill="#00AB84"><title>2020: 6.630</title></circle>
<circle cx="136.45" cy="149.62" data-y="6.610" data-x="2021" r="4" fill="#00AB84"><title>2021: 6.610</title></circle>
<circle cx="152.90" cy="149.57" data-y="6.613" data-x="2022" r="4" fill="#00AB84"><title>2022: 6.613</title></circle>
<circle cx="169.35" cy="149.13" data-y="6.637" data-x="2023" r="4" fill="#00AB84"><title>2023: 6.637</title></circle>
<circle cx="185.81" cy="148.19" data-y="6.689" data-x="2024" r="4" fill="#00AB84"><title>2024: 6.689</title></circle>
<circle cx="202.26" cy="146.77" data-y="6.767" data-x="2025" r="4" fill="#00AB84"><title>2025: 6.767</title></circle>
<circle cx="218.71" cy="145.27" data-y="6.849" data-x="2026" r="4" fill="#00AB84"><title>2026: 6.849</title></circle>
<circle cx="235.16" cy="143.60" data-y="6.941" data-x="2027" r="4" fill="#00AB84"><title>2027: 6.941</title></circle>
<circle cx="251.61" cy="141.67" data-y="7.047" data-x="2028" r="4" fill="#00AB84"><title>2028: 7.047</title></circle>
<circle cx="268.06" cy="139.13" data-y="7.186" data-x="2029" r="4" fill="#00AB84"><title>2029: 7.186</title></circle>
<circle cx="284.52" cy="130.70" data-y="7.649" data-x="2030" r="4" fill="#00AB84"><title>2030: 7.649</title></circle>
<circle cx="300.97" cy="122.53" data-y="8.098" data-x="2031" r="4" fill="#00AB84"><title>2031: 8.098</title></circle>
<circle cx="317.42" cy="114.99" data-y="8.512" data-x="2032" r="4" fill="#00AB84"><title>2032: 8.512</title></circle>
<circle cx="333.87" cy="107.21" data-y="8.939" data-x="2033" r="4" fill="#00AB84"><title>2033: 8.939</title></circle>
<circle cx="350.32" cy="99.40" data-y="9.368" data-x="2034" r="4" fill="#00AB84"><title>2034: 9.368</title></circle>
<circle cx="366.77" cy="90.91" data-y="9.834" data-x="2035" r="4" fill="#00AB84"><title>2035: 9.834</title></circle>
<circle cx="383.23" cy="82.79" data-y="10.280" data-x="2036" r="4" fill="#00AB84"><title>2036: 10.280</title></circle>
<circle cx="399.68" cy="75.60" data-y="10.675" data-x="2037" r="4" fill="#00AB84"><title>2037: 10.675</title></circle>
<circle cx="416.13" cy="68.71" data-y="11.053" data-x="2038" r="4" fill="#00AB84"><title>2038: 11.053</title></circle>
<circle cx="432.58" cy="62.25" data-y="11.408" data-x="2039" r="4" fill="#00AB84"><title>2039: 11.408</title></circle>
<circle cx="449.03" cy="56.20" data-y="11.740" data-x="2040" r="4" fill="#00AB84"><title>2040: 11.740</title></circle>
<circle cx="465.48" cy="50.52" data-y="12.052" data-x="2041" r="4" fill="#00AB84"><title>2041: 12.052</title></circle>
<circle cx="481.94" cy="44.98" data-y="12.356" data-x="2042" r="4" fill="#00AB84"><title>2042: 12.356</title></circle>
<circle cx="498.39" cy="39.56" data-y="12.654" data-x="2043" r="4" fill="#00AB84"><title>2043: 12.654</title></circle>
<circle cx="514.84" cy="34.49" data-y="12.932" data-x="2044" r="4" fill="#00AB84"><title>2044: 12.932</title></circle>
<circle cx="531.29" cy="34.04" data-y="12.957" data-x="2045" r="4" fill="#00AB84"><title>2045: 12.957</title></circle>
<circle cx="547.74" cy="33.93" data-y="12.963" data-x="2046" r="4" fill="#00AB84"><title>2046: 12.963</title></circle>
<circle cx="564.19" cy="33.58" data-y="12.982" data-x="2047" r="4" fill="#00AB84"><title>2047: 12.982</title></circle>
<circle cx="580.65" cy="33.57" data-y="12.983" data-x="2048" r="4" fill="#00AB84"><title>2048: 12.983</title></circle>
<circle cx="597.10" cy="33.69" data-y="12.976" data-x="2049" r="4" fill="#00AB84"><title>2049: 12.976</title></circle>
<circle cx="613.55" cy="33.84" data-y="12.968" data-x="2050" r="4" fill="#00AB84"><title>2050: 12.968</title></circle>
</g>
</svg>
