<svg width="640" height="320" viewBox="0 0 640 320" xmlns="http://www.w3.org/2000/svg" style="overflow:display" preserveAspectRatio="xMinYMin meet" overflow="visible">
<defs>
	<style>
	.data-series path.line { fill-opacity: 0; }
	.data-series path.line.dotted { stroke-dasharray: 12 20 }
	.data-series circle { display: none; }
	.data-series:hover path.line, .data-series.on path.line { stroke-width: 5; }
	.data-series:hover circle, .data-series.on circle { display: inline; }
	.data-series circle:hover, .data-series circle.on { r: 6px!important; fill: black; }
	.grid { font-family: "Helvetica Neue",Helvetica,Arial,"Lucida Grande",sans-serif; }
	.grid line { stroke: rgb(0,0,0); stroke-width: 2; stroke-linecap: round; }
	.grid.grid-x text { text-anchor: middle; dominant-baseline: hanging; transform: translateY(10px); }
	.grid.grid-y text { text-anchor: end; dominant-baseline: middle; transform: translateX(-10px); }
	</style>
</defs>
<g class="grid grid-y">
	<line x1="70" y1="270" x2="630" y2="270" data-left="70"></line>
	<text x="70" y="270" text-anchor="end">0</text>
	<text x="70" y="201.919350615344" text-anchor="end">1</text>
	<text x="70" y="133.838701230689" text-anchor="end">2</text>
	<text x="70" y="65.758051846033" text-anchor="end">3</text>
	<text style="text-anchor:middle;dominant-baseline:hanging;font-weight:bold;transform: translateY(140px) rotate(-90deg);">Network peak demand (GW)</text>
</g>
<g class="grid grid-x">
	<line class="tick" x1="70" y1="270" x2="70" y2="275"></line>
	<text x="70" y="270" text-anchor="middle">2020</text>
	<line class="tick" x1="250.645161290323" y1="270" x2="250.645161290323" y2="275"></line>
	<text x="250.645161290323" y="270" text-anchor="middle">2030</text>
	<line class="tick" x1="431.290322580645" y1="270" x2="431.290322580645" y2="275"></line>
	<text x="431.290322580645" y="270" text-anchor="middle">2040</text>
	<line class="tick" x1="611.935483870968" y1="270" x2="611.935483870968" y2="275"></line>
	<text x="611.935483870968" y="270" text-anchor="middle">2050</text>
	<text style="text-anchor:middle;dominant-baseline:hanging;font-weight:bold;transform: translateY(140px) rotate(-90deg);"></text>
</g>
<g data-scenario="domestic" class="data-series">	<path d="M 70.00,79.10L 88.06,78.49L 106.13,77.94L 124.19,77.26L 142.26,76.45L 160.32,75.56L 178.39,74.47L 196.45,73.32L 214.52,72.16L 232.58,71.00L 250.65,69.77L 268.71,68.82L 286.77,67.94L 304.84,67.05L 322.90,66.23L 340.97,65.42L 359.03,64.60L 377.10,63.78L 395.16,62.97L 413.23,62.29L 431.29,61.47L 449.35,60.72L 467.42,59.97L 485.48,59.15L 503.55,58.41L 521.61,57.59L 539.68,56.84L 557.74,56.02L 575.81,55.27L 593.87,54.46L 611.94,53.64" id="Domestic" class="line" stroke="#F1060E" stroke-width="3" stroke-linecap="round"><title>Domestic</title></path>
	<circle cx="70.00" cy="79.10" data-y="2.804" data-x="2020" r="4" fill="#F1060E"><title>2020: 2.804</title></circle>
	<circle cx="88.06" cy="78.49" data-y="2.813" data-x="2021" r="4" fill="#F1060E"><title>2021: 2.813</title></circle>
	<circle cx="106.13" cy="77.94" data-y="2.821" data-x="2022" r="4" fill="#F1060E"><title>2022: 2.821</title></circle>
	<circle cx="124.19" cy="77.26" data-y="2.831" data-x="2023" r="4" fill="#F1060E"><title>2023: 2.831</title></circle>
	<circle cx="142.26" cy="76.45" data-y="2.843" data-x="2024" r="4" fill="#F1060E"><title>2024: 2.843</title></circle>
	<circle cx="160.32" cy="75.56" data-y="2.856" data-x="2025" r="4" fill="#F1060E"><title>2025: 2.856</title></circle>
	<circle cx="178.39" cy="74.47" data-y="2.872" data-x="2026" r="4" fill="#F1060E"><title>2026: 2.872</title></circle>
	<circle cx="196.45" cy="73.32" data-y="2.889" data-x="2027" r="4" fill="#F1060E"><title>2027: 2.889</title></circle>
	<circle cx="214.52" cy="72.16" data-y="2.906" data-x="2028" r="4" fill="#F1060E"><title>2028: 2.906</title></circle>
	<circle cx="232.58" cy="71.00" data-y="2.923" data-x="2029" r="4" fill="#F1060E"><title>2029: 2.923</title></circle>
	<circle cx="250.65" cy="69.77" data-y="2.941" data-x="2030" r="4" fill="#F1060E"><title>2030: 2.941</title></circle>
	<circle cx="268.71" cy="68.82" data-y="2.955" data-x="2031" r="4" fill="#F1060E"><title>2031: 2.955</title></circle>
	<circle cx="286.77" cy="67.94" data-y="2.968" data-x="2032" r="4" fill="#F1060E"><title>2032: 2.968</title></circle>
	<circle cx="304.84" cy="67.05" data-y="2.981" data-x="2033" r="4" fill="#F1060E"><title>2033: 2.981</title></circle>
	<circle cx="322.90" cy="66.23" data-y="2.993" data-x="2034" r="4" fill="#F1060E"><title>2034: 2.993</title></circle>
	<circle cx="340.97" cy="65.42" data-y="3.005" data-x="2035" r="4" fill="#F1060E"><title>2035: 3.005</title></circle>
	<circle cx="359.03" cy="64.60" data-y="3.017" data-x="2036" r="4" fill="#F1060E"><title>2036: 3.017</title></circle>
	<circle cx="377.10" cy="63.78" data-y="3.029" data-x="2037" r="4" fill="#F1060E"><title>2037: 3.029</title></circle>
	<circle cx="395.16" cy="62.97" data-y="3.041" data-x="2038" r="4" fill="#F1060E"><title>2038: 3.041</title></circle>
	<circle cx="413.23" cy="62.29" data-y="3.051" data-x="2039" r="4" fill="#F1060E"><title>2039: 3.051</title></circle>
	<circle cx="431.29" cy="61.47" data-y="3.063" data-x="2040" r="4" fill="#F1060E"><title>2040: 3.063</title></circle>
	<circle cx="449.35" cy="60.72" data-y="3.074" data-x="2041" r="4" fill="#F1060E"><title>2041: 3.074</title></circle>
	<circle cx="467.42" cy="59.97" data-y="3.085" data-x="2042" r="4" fill="#F1060E"><title>2042: 3.085</title></circle>
	<circle cx="485.48" cy="59.15" data-y="3.097" data-x="2043" r="4" fill="#F1060E"><title>2043: 3.097</title></circle>
	<circle cx="503.55" cy="58.41" data-y="3.108" data-x="2044" r="4" fill="#F1060E"><title>2044: 3.108</title></circle>
	<circle cx="521.61" cy="57.59" data-y="3.120" data-x="2045" r="4" fill="#F1060E"><title>2045: 3.120</title></circle>
	<circle cx="539.68" cy="56.84" data-y="3.131" data-x="2046" r="4" fill="#F1060E"><title>2046: 3.131</title></circle>
	<circle cx="557.74" cy="56.02" data-y="3.143" data-x="2047" r="4" fill="#F1060E"><title>2047: 3.143</title></circle>
	<circle cx="575.81" cy="55.27" data-y="3.154" data-x="2048" r="4" fill="#F1060E"><title>2048: 3.154</title></circle>
	<circle cx="593.87" cy="54.46" data-y="3.166" data-x="2049" r="4" fill="#F1060E"><title>2049: 3.166</title></circle>
	<circle cx="611.94" cy="53.64" data-y="3.178" data-x="2050" r="4" fill="#F1060E"><title>2050: 3.178</title></circle>
</g>
<g data-scenario="i-and-c" class="data-series">	<path d="M 70.00,10.00L 88.06,11.91L 106.13,13.68L 124.19,15.24L 142.26,16.60L 160.32,17.83L 178.39,18.92L 196.45,19.80L 214.52,20.55L 232.58,21.17L 250.65,21.64L 268.71,21.98L 286.77,22.19L 304.84,22.32L 322.90,22.25L 340.97,22.12L 359.03,21.85L 377.10,21.44L 395.16,20.96L 413.23,20.42L 431.29,19.80L 449.35,19.19L 467.42,18.51L 485.48,17.90L 503.55,17.22L 521.61,16.54L 539.68,15.79L 557.74,15.11L 575.81,14.36L 593.87,13.61L 611.94,12.86" id="I &amp; C" class="line" stroke="#6DC2C7" stroke-width="3" stroke-linecap="round"><title>I &amp; C</title></path>
	<circle cx="70.00" cy="10.00" data-y="3.819" data-x="2020" r="4" fill="#6DC2C7"><title>2020: 3.819</title></circle>
	<circle cx="88.06" cy="11.91" data-y="3.791" data-x="2021" r="4" fill="#6DC2C7"><title>2021: 3.791</title></circle>
	<circle cx="106.13" cy="13.68" data-y="3.765" data-x="2022" r="4" fill="#6DC2C7"><title>2022: 3.765</title></circle>
	<circle cx="124.19" cy="15.24" data-y="3.742" data-x="2023" r="4" fill="#6DC2C7"><title>2023: 3.742</title></circle>
	<circle cx="142.26" cy="16.60" data-y="3.722" data-x="2024" r="4" fill="#6DC2C7"><title>2024: 3.722</title></circle>
	<circle cx="160.32" cy="17.83" data-y="3.704" data-x="2025" r="4" fill="#6DC2C7"><title>2025: 3.704</title></circle>
	<circle cx="178.39" cy="18.92" data-y="3.688" data-x="2026" r="4" fill="#6DC2C7"><title>2026: 3.688</title></circle>
	<circle cx="196.45" cy="19.80" data-y="3.675" data-x="2027" r="4" fill="#6DC2C7"><title>2027: 3.675</title></circle>
	<circle cx="214.52" cy="20.55" data-y="3.664" data-x="2028" r="4" fill="#6DC2C7"><title>2028: 3.664</title></circle>
	<circle cx="232.58" cy="21.17" data-y="3.655" data-x="2029" r="4" fill="#6DC2C7"><title>2029: 3.655</title></circle>
	<circle cx="250.65" cy="21.64" data-y="3.648" data-x="2030" r="4" fill="#6DC2C7"><title>2030: 3.648</title></circle>
	<circle cx="268.71" cy="21.98" data-y="3.643" data-x="2031" r="4" fill="#6DC2C7"><title>2031: 3.643</title></circle>
	<circle cx="286.77" cy="22.19" data-y="3.640" data-x="2032" r="4" fill="#6DC2C7"><title>2032: 3.640</title></circle>
	<circle cx="304.84" cy="22.32" data-y="3.638" data-x="2033" r="4" fill="#6DC2C7"><title>2033: 3.638</title></circle>
	<circle cx="322.90" cy="22.25" data-y="3.639" data-x="2034" r="4" fill="#6DC2C7"><title>2034: 3.639</title></circle>
	<circle cx="340.97" cy="22.12" data-y="3.641" data-x="2035" r="4" fill="#6DC2C7"><title>2035: 3.641</title></circle>
	<circle cx="359.03" cy="21.85" data-y="3.645" data-x="2036" r="4" fill="#6DC2C7"><title>2036: 3.645</title></circle>
	<circle cx="377.10" cy="21.44" data-y="3.651" data-x="2037" r="4" fill="#6DC2C7"><title>2037: 3.651</title></circle>
	<circle cx="395.16" cy="20.96" data-y="3.658" data-x="2038" r="4" fill="#6DC2C7"><title>2038: 3.658</title></circle>
	<circle cx="413.23" cy="20.42" data-y="3.666" data-x="2039" r="4" fill="#6DC2C7"><title>2039: 3.666</title></circle>
	<circle cx="431.29" cy="19.80" data-y="3.675" data-x="2040" r="4" fill="#6DC2C7"><title>2040: 3.675</title></circle>
	<circle cx="449.35" cy="19.19" data-y="3.684" data-x="2041" r="4" fill="#6DC2C7"><title>2041: 3.684</title></circle>
	<circle cx="467.42" cy="18.51" data-y="3.694" data-x="2042" r="4" fill="#6DC2C7"><title>2042: 3.694</title></circle>
	<circle cx="485.48" cy="17.90" data-y="3.703" data-x="2043" r="4" fill="#6DC2C7"><title>2043: 3.703</title></circle>
	<circle cx="503.55" cy="17.22" data-y="3.713" data-x="2044" r="4" fill="#6DC2C7"><title>2044: 3.713</title></circle>
	<circle cx="521.61" cy="16.54" data-y="3.723" data-x="2045" r="4" fill="#6DC2C7"><title>2045: 3.723</title></circle>
	<circle cx="539.68" cy="15.79" data-y="3.734" data-x="2046" r="4" fill="#6DC2C7"><title>2046: 3.734</title></circle>
	<circle cx="557.74" cy="15.11" data-y="3.744" data-x="2047" r="4" fill="#6DC2C7"><title>2047: 3.744</title></circle>
	<circle cx="575.81" cy="14.36" data-y="3.755" data-x="2048" r="4" fill="#6DC2C7"><title>2048: 3.755</title></circle>
	<circle cx="593.87" cy="13.61" data-y="3.766" data-x="2049" r="4" fill="#6DC2C7"><title>2049: 3.766</title></circle>
	<circle cx="611.94" cy="12.86" data-y="3.777" data-x="2050" r="4" fill="#6DC2C7"><title>2050: 3.777</title></circle>
</g>
<g data-scenario="heat-pumps---domestic" class="data-series">	<path d="M 70.00,268.43L 88.06,268.30L 106.13,267.96L 124.19,267.34L 142.26,267.07L 160.32,265.98L 178.39,264.62L 196.45,263.19L 214.52,261.63L 232.58,259.79L 250.65,257.68L 268.71,255.57L 286.77,253.59L 304.84,251.69L 322.90,249.85L 340.97,248.08L 359.03,246.17L 377.10,244.61L 395.16,243.24L 413.23,242.16L 431.29,241.13L 449.35,240.04L 467.42,239.02L 485.48,237.93L 503.55,236.84L 521.61,235.89L 539.68,234.94L 557.74,233.99L 575.81,233.03L 593.87,232.08L 611.94,231.13" id="Heat pumps - domestic" class="line" stroke="#2D137F" stroke-width="3" stroke-linecap="round"><title>Heat pumps - domestic</title></path>
	<circle cx="70.00" cy="268.43" data-y="0.023" data-x="2020" r="4" fill="#2D137F"><title>2020: 0.023</title></circle>
	<circle cx="88.06" cy="268.30" data-y="0.025" data-x="2021" r="4" fill="#2D137F"><title>2021: 0.025</title></circle>
	<circle cx="106.13" cy="267.96" data-y="0.030" data-x="2022" r="4" fill="#2D137F"><title>2022: 0.030</title></circle>
	<circle cx="124.19" cy="267.34" data-y="0.039" data-x="2023" r="4" fill="#2D137F"><title>2023: 0.039</title></circle>
	<circle cx="142.26" cy="267.07" data-y="0.043" data-x="2024" r="4" fill="#2D137F"><title>2024: 0.043</title></circle>
	<circle cx="160.32" cy="265.98" data-y="0.059" data-x="2025" r="4" fill="#2D137F"><title>2025: 0.059</title></circle>
	<circle cx="178.39" cy="264.62" data-y="0.079" data-x="2026" r="4" fill="#2D137F"><title>2026: 0.079</title></circle>
	<circle cx="196.45" cy="263.19" data-y="0.100" data-x="2027" r="4" fill="#2D137F"><title>2027: 0.100</title></circle>
	<circle cx="214.52" cy="261.63" data-y="0.123" data-x="2028" r="4" fill="#2D137F"><title>2028: 0.123</title></circle>
	<circle cx="232.58" cy="259.79" data-y="0.150" data-x="2029" r="4" fill="#2D137F"><title>2029: 0.150</title></circle>
	<circle cx="250.65" cy="257.68" data-y="0.181" data-x="2030" r="4" fill="#2D137F"><title>2030: 0.181</title></circle>
	<circle cx="268.71" cy="255.57" data-y="0.212" data-x="2031" r="4" fill="#2D137F"><title>2031: 0.212</title></circle>
	<circle cx="286.77" cy="253.59" data-y="0.241" data-x="2032" r="4" fill="#2D137F"><title>2032: 0.241</title></circle>
	<circle cx="304.84" cy="251.69" data-y="0.269" data-x="2033" r="4" fill="#2D137F"><title>2033: 0.269</title></circle>
	<circle cx="322.90" cy="249.85" data-y="0.296" data-x="2034" r="4" fill="#2D137F"><title>2034: 0.296</title></circle>
	<circle cx="340.97" cy="248.08" data-y="0.322" data-x="2035" r="4" fill="#2D137F"><title>2035: 0.322</title></circle>
	<circle cx="359.03" cy="246.17" data-y="0.350" data-x="2036" r="4" fill="#2D137F"><title>2036: 0.350</title></circle>
	<circle cx="377.10" cy="244.61" data-y="0.373" data-x="2037" r="4" fill="#2D137F"><title>2037: 0.373</title></circle>
	<circle cx="395.16" cy="243.24" data-y="0.393" data-x="2038" r="4" fill="#2D137F"><title>2038: 0.393</title></circle>
	<circle cx="413.23" cy="242.16" data-y="0.409" data-x="2039" r="4" fill="#2D137F"><title>2039: 0.409</title></circle>
	<circle cx="431.29" cy="241.13" data-y="0.424" data-x="2040" r="4" fill="#2D137F"><title>2040: 0.424</title></circle>
	<circle cx="449.35" cy="240.04" data-y="0.440" data-x="2041" r="4" fill="#2D137F"><title>2041: 0.440</title></circle>
	<circle cx="467.42" cy="239.02" data-y="0.455" data-x="2042" r="4" fill="#2D137F"><title>2042: 0.455</title></circle>
	<circle cx="485.48" cy="237.93" data-y="0.471" data-x="2043" r="4" fill="#2D137F"><title>2043: 0.471</title></circle>
	<circle cx="503.55" cy="236.84" data-y="0.487" data-x="2044" r="4" fill="#2D137F"><title>2044: 0.487</title></circle>
	<circle cx="521.61" cy="235.89" data-y="0.501" data-x="2045" r="4" fill="#2D137F"><title>2045: 0.501</title></circle>
	<circle cx="539.68" cy="234.94" data-y="0.515" data-x="2046" r="4" fill="#2D137F"><title>2046: 0.515</title></circle>
	<circle cx="557.74" cy="233.99" data-y="0.529" data-x="2047" r="4" fill="#2D137F"><title>2047: 0.529</title></circle>
	<circle cx="575.81" cy="233.03" data-y="0.543" data-x="2048" r="4" fill="#2D137F"><title>2048: 0.543</title></circle>
	<circle cx="593.87" cy="232.08" data-y="0.557" data-x="2049" r="4" fill="#2D137F"><title>2049: 0.557</title></circle>
	<circle cx="611.94" cy="231.13" data-y="0.571" data-x="2050" r="4" fill="#2D137F"><title>2050: 0.571</title></circle>
</g>
<g data-scenario="heat-pumps---i-and-c" class="data-series">	<path d="M 70.00,267.07L 88.06,266.80L 106.13,266.39L 124.19,266.05L 142.26,265.64L 160.32,265.37L 178.39,265.10L 196.45,264.69L 214.52,264.28L 232.58,263.87L 250.65,263.33L 268.71,262.78L 286.77,262.37L 304.84,262.10L 322.90,261.63L 340.97,261.01L 359.03,260.67L 377.10,260.47L 395.16,260.26L 413.23,260.06L 431.29,259.86L 449.35,259.65L 467.42,259.45L 485.48,259.18L 503.55,258.97L 521.61,258.90L 539.68,258.90L 557.74,258.83L 575.81,258.77L 593.87,258.70L 611.94,258.56" id="Heat pumps - I &amp; C" class="line" stroke="#cc0935" stroke-width="3" stroke-linecap="round"><title>Heat pumps - I &amp; C</title></path>
	<circle cx="70.00" cy="267.07" data-y="0.043" data-x="2020" r="4" fill="#cc0935"><title>2020: 0.043</title></circle>
	<circle cx="88.06" cy="266.80" data-y="0.047" data-x="2021" r="4" fill="#cc0935"><title>2021: 0.047</title></circle>
	<circle cx="106.13" cy="266.39" data-y="0.053" data-x="2022" r="4" fill="#cc0935"><title>2022: 0.053</title></circle>
	<circle cx="124.19" cy="266.05" data-y="0.058" data-x="2023" r="4" fill="#cc0935"><title>2023: 0.058</title></circle>
	<circle cx="142.26" cy="265.64" data-y="0.064" data-x="2024" r="4" fill="#cc0935"><title>2024: 0.064</title></circle>
	<circle cx="160.32" cy="265.37" data-y="0.068" data-x="2025" r="4" fill="#cc0935"><title>2025: 0.068</title></circle>
	<circle cx="178.39" cy="265.10" data-y="0.072" data-x="2026" r="4" fill="#cc0935"><title>2026: 0.072</title></circle>
	<circle cx="196.45" cy="264.69" data-y="0.078" data-x="2027" r="4" fill="#cc0935"><title>2027: 0.078</title></circle>
	<circle cx="214.52" cy="264.28" data-y="0.084" data-x="2028" r="4" fill="#cc0935"><title>2028: 0.084</title></circle>
	<circle cx="232.58" cy="263.87" data-y="0.090" data-x="2029" r="4" fill="#cc0935"><title>2029: 0.090</title></circle>
	<circle cx="250.65" cy="263.33" data-y="0.098" data-x="2030" r="4" fill="#cc0935"><title>2030: 0.098</title></circle>
	<circle cx="268.71" cy="262.78" data-y="0.106" data-x="2031" r="4" fill="#cc0935"><title>2031: 0.106</title></circle>
	<circle cx="286.77" cy="262.37" data-y="0.112" data-x="2032" r="4" fill="#cc0935"><title>2032: 0.112</title></circle>
	<circle cx="304.84" cy="262.10" data-y="0.116" data-x="2033" r="4" fill="#cc0935"><title>2033: 0.116</title></circle>
	<circle cx="322.90" cy="261.63" data-y="0.123" data-x="2034" r="4" fill="#cc0935"><title>2034: 0.123</title></circle>
	<circle cx="340.97" cy="261.01" data-y="0.132" data-x="2035" r="4" fill="#cc0935"><title>2035: 0.132</title></circle>
	<circle cx="359.03" cy="260.67" data-y="0.137" data-x="2036" r="4" fill="#cc0935"><title>2036: 0.137</title></circle>
	<circle cx="377.10" cy="260.47" data-y="0.140" data-x="2037" r="4" fill="#cc0935"><title>2037: 0.140</title></circle>
	<circle cx="395.16" cy="260.26" data-y="0.143" data-x="2038" r="4" fill="#cc0935"><title>2038: 0.143</title></circle>
	<circle cx="413.23" cy="260.06" data-y="0.146" data-x="2039" r="4" fill="#cc0935"><title>2039: 0.146</title></circle>
	<circle cx="431.29" cy="259.86" data-y="0.149" data-x="2040" r="4" fill="#cc0935"><title>2040: 0.149</title></circle>
	<circle cx="449.35" cy="259.65" data-y="0.152" data-x="2041" r="4" fill="#cc0935"><title>2041: 0.152</title></circle>
	<circle cx="467.42" cy="259.45" data-y="0.155" data-x="2042" r="4" fill="#cc0935"><title>2042: 0.155</title></circle>
	<circle cx="485.48" cy="259.18" data-y="0.159" data-x="2043" r="4" fill="#cc0935"><title>2043: 0.159</title></circle>
	<circle cx="503.55" cy="258.97" data-y="0.162" data-x="2044" r="4" fill="#cc0935"><title>2044: 0.162</title></circle>
	<circle cx="521.61" cy="258.90" data-y="0.163" data-x="2045" r="4" fill="#cc0935"><title>2045: 0.163</title></circle>
	<circle cx="539.68" cy="258.90" data-y="0.163" data-x="2046" r="4" fill="#cc0935"><title>2046: 0.163</title></circle>
	<circle cx="557.74" cy="258.83" data-y="0.164" data-x="2047" r="4" fill="#cc0935"><title>2047: 0.164</title></circle>
	<circle cx="575.81" cy="258.77" data-y="0.165" data-x="2048" r="4" fill="#cc0935"><title>2048: 0.165</title></circle>
	<circle cx="593.87" cy="258.70" data-y="0.166" data-x="2049" r="4" fill="#cc0935"><title>2049: 0.166</title></circle>
	<circle cx="611.94" cy="258.56" data-y="0.168" data-x="2050" r="4" fill="#cc0935"><title>2050: 0.168</title></circle>
</g>
<g data-scenario="ev" class="data-series">	<path d="M 70.00,268.77L 88.06,268.16L 106.13,267.00L 124.19,264.21L 142.26,259.79L 160.32,254.68L 178.39,249.30L 196.45,243.11L 214.52,235.69L 232.58,227.31L 250.65,217.92L 268.71,209.95L 286.77,202.33L 304.84,193.89L 322.90,185.17L 340.97,171.35L 359.03,158.69L 377.10,149.22L 395.16,140.65L 413.23,133.57L 431.29,127.10L 449.35,122.54L 467.42,118.66L 485.48,115.46L 503.55,112.80L 521.61,110.83L 539.68,109.60L 557.74,108.85L 575.81,108.58L 593.87,108.85L 611.94,109.33" id="EV" class="line" stroke="#45D526" stroke-width="3" stroke-linecap="round"><title>EV</title></path>
	<circle cx="70.00" cy="268.77" data-y="0.018" data-x="2020" r="4" fill="#45D526"><title>2020: 0.018</title></circle>
	<circle cx="88.06" cy="268.16" data-y="0.027" data-x="2021" r="4" fill="#45D526"><title>2021: 0.027</title></circle>
	<circle cx="106.13" cy="267.00" data-y="0.044" data-x="2022" r="4" fill="#45D526"><title>2022: 0.044</title></circle>
	<circle cx="124.19" cy="264.21" data-y="0.085" data-x="2023" r="4" fill="#45D526"><title>2023: 0.085</title></circle>
	<circle cx="142.26" cy="259.79" data-y="0.150" data-x="2024" r="4" fill="#45D526"><title>2024: 0.150</title></circle>
	<circle cx="160.32" cy="254.68" data-y="0.225" data-x="2025" r="4" fill="#45D526"><title>2025: 0.225</title></circle>
	<circle cx="178.39" cy="249.30" data-y="0.304" data-x="2026" r="4" fill="#45D526"><title>2026: 0.304</title></circle>
	<circle cx="196.45" cy="243.11" data-y="0.395" data-x="2027" r="4" fill="#45D526"><title>2027: 0.395</title></circle>
	<circle cx="214.52" cy="235.69" data-y="0.504" data-x="2028" r="4" fill="#45D526"><title>2028: 0.504</title></circle>
	<circle cx="232.58" cy="227.31" data-y="0.627" data-x="2029" r="4" fill="#45D526"><title>2029: 0.627</title></circle>
	<circle cx="250.65" cy="217.92" data-y="0.765" data-x="2030" r="4" fill="#45D526"><title>2030: 0.765</title></circle>
	<circle cx="268.71" cy="209.95" data-y="0.882" data-x="2031" r="4" fill="#45D526"><title>2031: 0.882</title></circle>
	<circle cx="286.77" cy="202.33" data-y="0.994" data-x="2032" r="4" fill="#45D526"><title>2032: 0.994</title></circle>
	<circle cx="304.84" cy="193.89" data-y="1.118" data-x="2033" r="4" fill="#45D526"><title>2033: 1.118</title></circle>
	<circle cx="322.90" cy="185.17" data-y="1.246" data-x="2034" r="4" fill="#45D526"><title>2034: 1.246</title></circle>
	<circle cx="340.97" cy="171.35" data-y="1.449" data-x="2035" r="4" fill="#45D526"><title>2035: 1.449</title></circle>
	<circle cx="359.03" cy="158.69" data-y="1.635" data-x="2036" r="4" fill="#45D526"><title>2036: 1.635</title></circle>
	<circle cx="377.10" cy="149.22" data-y="1.774" data-x="2037" r="4" fill="#45D526"><title>2037: 1.774</title></circle>
	<circle cx="395.16" cy="140.65" data-y="1.900" data-x="2038" r="4" fill="#45D526"><title>2038: 1.900</title></circle>
	<circle cx="413.23" cy="133.57" data-y="2.004" data-x="2039" r="4" fill="#45D526"><title>2039: 2.004</title></circle>
	<circle cx="431.29" cy="127.10" data-y="2.099" data-x="2040" r="4" fill="#45D526"><title>2040: 2.099</title></circle>
	<circle cx="449.35" cy="122.54" data-y="2.166" data-x="2041" r="4" fill="#45D526"><title>2041: 2.166</title></circle>
	<circle cx="467.42" cy="118.66" data-y="2.223" data-x="2042" r="4" fill="#45D526"><title>2042: 2.223</title></circle>
	<circle cx="485.48" cy="115.46" data-y="2.270" data-x="2043" r="4" fill="#45D526"><title>2043: 2.270</title></circle>
	<circle cx="503.55" cy="112.80" data-y="2.309" data-x="2044" r="4" fill="#45D526"><title>2044: 2.309</title></circle>
	<circle cx="521.61" cy="110.83" data-y="2.338" data-x="2045" r="4" fill="#45D526"><title>2045: 2.338</title></circle>
	<circle cx="539.68" cy="109.60" data-y="2.356" data-x="2046" r="4" fill="#45D526"><title>2046: 2.356</title></circle>
	<circle cx="557.74" cy="108.85" data-y="2.367" data-x="2047" r="4" fill="#45D526"><title>2047: 2.367</title></circle>
	<circle cx="575.81" cy="108.58" data-y="2.371" data-x="2048" r="4" fill="#45D526"><title>2048: 2.371</title></circle>
	<circle cx="593.87" cy="108.85" data-y="2.367" data-x="2049" r="4" fill="#45D526"><title>2049: 2.367</title></circle>
	<circle cx="611.94" cy="109.33" data-y="2.360" data-x="2050" r="4" fill="#45D526"><title>2050: 2.360</title></circle>
</g>
</svg>
