<svg width="640" height="320" viewBox="0 0 640 320" xmlns="http://www.w3.org/2000/svg" style="overflow:display" preserveAspectRatio="xMinYMin meet" overflow="visible">
<defs>
	<style>
	.data-series path.line { fill-opacity: 0; }
	.data-series path.line.dotted { stroke-dasharray: 12 20 }
	.data-series circle { display: none; }
	.data-series:hover path.line, .data-series.on path.line { stroke-width: 5; }
	.data-series:hover circle, .data-series.on circle { display: inline; }
	.data-series circle:hover, .data-series circle.on { r: 6px!important; fill: black; }
	.grid { font-family: "Helvetica Neue",Helvetica,Arial,"Lucida Grande",sans-serif; }
	.grid line { stroke: rgb(0,0,0); stroke-width: 2; stroke-linecap: round; }
	.grid.grid-x text { text-anchor: middle; dominant-baseline: hanging; transform: translateY(10px); }
	.grid.grid-y text { text-anchor: end; dominant-baseline: middle; transform: translateX(-10px); }
	</style>
</defs>
<g class="grid grid-y">
	<line x1="80" y1="270" x2="630" y2="270" data-left="80"></line>
	<text x="80" y="270" text-anchor="end">0</text>
	<text x="80" y="220.829933979731" text-anchor="end">100</text>
	<text x="80" y="171.659867959461" text-anchor="end">200</text>
	<text x="80" y="122.489801939192" text-anchor="end">300</text>
	<text x="80" y="73.3197359189224" text-anchor="end">400</text>
	<text x="80" y="24.1496698986529" text-anchor="end">500</text>
	<text style="text-anchor:middle;dominant-baseline:hanging;font-weight:bold;transform: translateY(140px) rotate(-90deg);">Cumulative emissions (MtCO2)</text>
</g>
<g class="grid grid-x">
	<line class="tick" x1="80" y1="270" x2="80" y2="275"></line>
	<text x="80" y="270" text-anchor="middle">2020</text>
	<line class="tick" x1="257.41935483871" y1="270" x2="257.41935483871" y2="275"></line>
	<text x="257.41935483871" y="270" text-anchor="middle">2030</text>
	<line class="tick" x1="434.838709677419" y1="270" x2="434.838709677419" y2="275"></line>
	<text x="434.838709677419" y="270" text-anchor="middle">2040</text>
	<line class="tick" x1="612.258064516129" y1="270" x2="612.258064516129" y2="275"></line>
	<text x="612.258064516129" y="270" text-anchor="middle">2050</text>
	<text style="text-anchor:middle;dominant-baseline:hanging;font-weight:bold;transform: translateY(140px) rotate(-90deg);"></text>
</g>
<g data-scenario="high-hydrogen" class="data-series">	<path d="M 80.00,252.90L 97.74,236.40L 115.48,220.20L 133.23,204.29L 150.97,188.84L 168.71,173.91L 186.45,159.71L 204.19,146.08L 221.94,132.87L 239.68,120.20L 257.42,108.12L 275.16,96.70L 292.90,85.89L 310.65,75.60L 328.39,65.80L 346.13,56.49L 363.87,48.19L 381.61,40.91L 399.35,34.61L 417.10,29.28L 434.84,24.88L 452.58,21.32L 470.32,18.59L 488.06,16.68L 505.81,15.41L 523.55,14.28L 541.29,13.27L 559.03,12.36L 576.77,11.52L 594.52,10.74L 612.26,10.00" id="High hydrogen" class="line" stroke="#0085CA" stroke-width="3" stroke-linecap="round"><title>High hydrogen</title></path>
	<circle cx="80.00" cy="252.90" data-y="34.772" data-x="2020" r="4" fill="#0085CA"><title>2020: 34.772</title></circle>
	<circle cx="97.74" cy="236.40" data-y="68.342" data-x="2021" r="4" fill="#0085CA"><title>2021: 68.342</title></circle>
	<circle cx="115.48" cy="220.20" data-y="101.284" data-x="2022" r="4" fill="#0085CA"><title>2022: 101.284</title></circle>
	<circle cx="133.23" cy="204.29" data-y="133.640" data-x="2023" r="4" fill="#0085CA"><title>2023: 133.640</title></circle>
	<circle cx="150.97" cy="188.84" data-y="165.062" data-x="2024" r="4" fill="#0085CA"><title>2024: 165.062</title></circle>
	<circle cx="168.71" cy="173.91" data-y="195.422" data-x="2025" r="4" fill="#0085CA"><title>2025: 195.422</title></circle>
	<circle cx="186.45" cy="159.71" data-y="224.312" data-x="2026" r="4" fill="#0085CA"><title>2026: 224.312</title></circle>
	<circle cx="204.19" cy="146.08" data-y="252.028" data-x="2027" r="4" fill="#0085CA"><title>2027: 252.028</title></circle>
	<circle cx="221.94" cy="132.87" data-y="278.885" data-x="2028" r="4" fill="#0085CA"><title>2028: 278.885</title></circle>
	<circle cx="239.68" cy="120.20" data-y="304.647" data-x="2029" r="4" fill="#0085CA"><title>2029: 304.647</title></circle>
	<circle cx="257.42" cy="108.12" data-y="329.223" data-x="2030" r="4" fill="#0085CA"><title>2030: 329.223</title></circle>
	<circle cx="275.16" cy="96.70" data-y="352.446" data-x="2031" r="4" fill="#0085CA"><title>2031: 352.446</title></circle>
	<circle cx="292.90" cy="85.89" data-y="374.430" data-x="2032" r="4" fill="#0085CA"><title>2032: 374.430</title></circle>
	<circle cx="310.65" cy="75.60" data-y="395.365" data-x="2033" r="4" fill="#0085CA"><title>2033: 395.365</title></circle>
	<circle cx="328.39" cy="65.80" data-y="415.291" data-x="2034" r="4" fill="#0085CA"><title>2034: 415.291</title></circle>
	<circle cx="346.13" cy="56.49" data-y="434.222" data-x="2035" r="4" fill="#0085CA"><title>2035: 434.222</title></circle>
	<circle cx="363.87" cy="48.19" data-y="451.101" data-x="2036" r="4" fill="#0085CA"><title>2036: 451.101</title></circle>
	<circle cx="381.61" cy="40.91" data-y="465.919" data-x="2037" r="4" fill="#0085CA"><title>2037: 465.919</title></circle>
	<circle cx="399.35" cy="34.61" data-y="478.727" data-x="2038" r="4" fill="#0085CA"><title>2038: 478.727</title></circle>
	<circle cx="417.10" cy="29.28" data-y="489.557" data-x="2039" r="4" fill="#0085CA"><title>2039: 489.557</title></circle>
	<circle cx="434.84" cy="24.88" data-y="498.511" data-x="2040" r="4" fill="#0085CA"><title>2040: 498.511</title></circle>
	<circle cx="452.58" cy="21.32" data-y="505.752" data-x="2041" r="4" fill="#0085CA"><title>2041: 505.752</title></circle>
	<circle cx="470.32" cy="18.59" data-y="511.297" data-x="2042" r="4" fill="#0085CA"><title>2042: 511.297</title></circle>
	<circle cx="488.06" cy="16.68" data-y="515.193" data-x="2043" r="4" fill="#0085CA"><title>2043: 515.193</title></circle>
	<circle cx="505.81" cy="15.41" data-y="517.780" data-x="2044" r="4" fill="#0085CA"><title>2044: 517.780</title></circle>
	<circle cx="523.55" cy="14.28" data-y="520.075" data-x="2045" r="4" fill="#0085CA"><title>2045: 520.075</title></circle>
	<circle cx="541.29" cy="13.27" data-y="522.130" data-x="2046" r="4" fill="#0085CA"><title>2046: 522.130</title></circle>
	<circle cx="559.03" cy="12.36" data-y="523.984" data-x="2047" r="4" fill="#0085CA"><title>2047: 523.984</title></circle>
	<circle cx="576.77" cy="11.52" data-y="525.688" data-x="2048" r="4" fill="#0085CA"><title>2048: 525.688</title></circle>
	<circle cx="594.52" cy="10.74" data-y="527.273" data-x="2049" r="4" fill="#0085CA"><title>2049: 527.273</title></circle>
	<circle cx="612.26" cy="10.00" data-y="528.777" data-x="2050" r="4" fill="#0085CA"><title>2050: 528.777</title></circle>
</g>
<g data-scenario="deep-electrification" class="data-series">	<path d="M 80.00,253.13L 97.74,236.67L 115.48,220.67L 133.23,205.00L 150.97,189.70L 168.71,175.03L 186.45,161.13L 204.19,147.89L 221.94,135.25L 239.68,123.32L 257.42,111.97L 275.16,101.23L 292.90,91.10L 310.65,81.53L 328.39,72.49L 346.13,64.34L 363.87,57.05L 381.61,50.61L 399.35,44.97L 417.10,40.07L 434.84,35.83L 452.58,32.23L 470.32,29.22L 488.06,26.79L 505.81,24.91L 523.55,23.55L 541.29,22.70L 559.03,22.27L 576.77,21.93L 594.52,21.67L 612.26,21.46" id="Deep electrification" class="line" stroke="#AB1236" stroke-width="3" stroke-linecap="round"><title>Deep electrification</title></path>
	<circle cx="80.00" cy="253.13" data-y="34.313" data-x="2020" r="4" fill="#AB1236"><title>2020: 34.313</title></circle>
	<circle cx="97.74" cy="236.67" data-y="67.793" data-x="2021" r="4" fill="#AB1236"><title>2021: 67.793</title></circle>
	<circle cx="115.48" cy="220.67" data-y="100.323" data-x="2022" r="4" fill="#AB1236"><title>2022: 100.323</title></circle>
	<circle cx="133.23" cy="205.00" data-y="132.191" data-x="2023" r="4" fill="#AB1236"><title>2023: 132.191</title></circle>
	<circle cx="150.97" cy="189.70" data-y="163.310" data-x="2024" r="4" fill="#AB1236"><title>2024: 163.310</title></circle>
	<circle cx="168.71" cy="175.03" data-y="193.152" data-x="2025" r="4" fill="#AB1236"><title>2025: 193.152</title></circle>
	<circle cx="186.45" cy="161.13" data-y="221.422" data-x="2026" r="4" fill="#AB1236"><title>2026: 221.422</title></circle>
	<circle cx="204.19" cy="147.89" data-y="248.349" data-x="2027" r="4" fill="#AB1236"><title>2027: 248.349</title></circle>
	<circle cx="221.94" cy="135.25" data-y="274.045" data-x="2028" r="4" fill="#AB1236"><title>2028: 274.045</title></circle>
	<circle cx="239.68" cy="123.32" data-y="298.317" data-x="2029" r="4" fill="#AB1236"><title>2029: 298.317</title></circle>
	<circle cx="257.42" cy="111.97" data-y="321.398" data-x="2030" r="4" fill="#AB1236"><title>2030: 321.398</title></circle>
	<circle cx="275.16" cy="101.23" data-y="343.230" data-x="2031" r="4" fill="#AB1236"><title>2031: 343.230</title></circle>
	<circle cx="292.90" cy="91.10" data-y="363.841" data-x="2032" r="4" fill="#AB1236"><title>2032: 363.841</title></circle>
	<circle cx="310.65" cy="81.53" data-y="383.310" data-x="2033" r="4" fill="#AB1236"><title>2033: 383.310</title></circle>
	<circle cx="328.39" cy="72.49" data-y="401.684" data-x="2034" r="4" fill="#AB1236"><title>2034: 401.684</title></circle>
	<circle cx="346.13" cy="64.34" data-y="418.253" data-x="2035" r="4" fill="#AB1236"><title>2035: 418.253</title></circle>
	<circle cx="363.87" cy="57.05" data-y="433.089" data-x="2036" r="4" fill="#AB1236"><title>2036: 433.089</title></circle>
	<circle cx="381.61" cy="50.61" data-y="446.183" data-x="2037" r="4" fill="#AB1236"><title>2037: 446.183</title></circle>
	<circle cx="399.35" cy="44.97" data-y="457.650" data-x="2038" r="4" fill="#AB1236"><title>2038: 457.650</title></circle>
	<circle cx="417.10" cy="40.07" data-y="467.631" data-x="2039" r="4" fill="#AB1236"><title>2039: 467.631</title></circle>
	<circle cx="434.84" cy="35.83" data-y="476.242" data-x="2040" r="4" fill="#AB1236"><title>2040: 476.242</title></circle>
	<circle cx="452.58" cy="32.23" data-y="483.560" data-x="2041" r="4" fill="#AB1236"><title>2041: 483.560</title></circle>
	<circle cx="470.32" cy="29.22" data-y="489.683" data-x="2042" r="4" fill="#AB1236"><title>2042: 489.683</title></circle>
	<circle cx="488.06" cy="26.79" data-y="494.623" data-x="2043" r="4" fill="#AB1236"><title>2043: 494.623</title></circle>
	<circle cx="505.81" cy="24.91" data-y="498.455" data-x="2044" r="4" fill="#AB1236"><title>2044: 498.455</title></circle>
	<circle cx="523.55" cy="23.55" data-y="501.211" data-x="2045" r="4" fill="#AB1236"><title>2045: 501.211</title></circle>
	<circle cx="541.29" cy="22.70" data-y="502.951" data-x="2046" r="4" fill="#AB1236"><title>2046: 502.951</title></circle>
	<circle cx="559.03" cy="22.27" data-y="503.827" data-x="2047" r="4" fill="#AB1236"><title>2047: 503.827</title></circle>
	<circle cx="576.77" cy="21.93" data-y="504.514" data-x="2048" r="4" fill="#AB1236"><title>2048: 504.514</title></circle>
	<circle cx="594.52" cy="21.67" data-y="505.036" data-x="2049" r="4" fill="#AB1236"><title>2049: 505.036</title></circle>
	<circle cx="612.26" cy="21.46" data-y="505.477" data-x="2050" r="4" fill="#AB1236"><title>2050: 505.477</title></circle>
</g>
<g data-scenario="net-zero" class="data-series">	<path d="M 80.00,252.96L 97.74,236.53L 115.48,220.50L 133.23,204.93L 150.97,189.93L 168.71,175.54L 186.45,161.95L 204.19,149.08L 221.94,136.76L 239.68,125.18L 257.42,114.58L 275.16,105.04L 292.90,96.58L 310.65,89.14L 328.39,82.64L 346.13,77.03L 363.87,72.55L 381.61,69.06L 399.35,66.46L 417.10,64.65L 434.84,63.46L 452.58,62.65L 470.32,61.99L 488.06,61.43L 505.81,60.98L 523.55,60.56L 541.29,60.18L 559.03,59.83L 576.77,59.50L 594.52,59.20L 612.26,58.92" id="Early net zero" class="line" stroke="#00AB84" stroke-width="3" stroke-linecap="round"><title>Early net zero</title></path>
	<circle cx="80.00" cy="252.96" data-y="34.650" data-x="2020" r="4" fill="#00AB84"><title>2020: 34.650</title></circle>
	<circle cx="97.74" cy="236.53" data-y="68.069" data-x="2021" r="4" fill="#00AB84"><title>2021: 68.069</title></circle>
	<circle cx="115.48" cy="220.50" data-y="100.663" data-x="2022" r="4" fill="#00AB84"><title>2022: 100.663</title></circle>
	<circle cx="133.23" cy="204.93" data-y="132.328" data-x="2023" r="4" fill="#00AB84"><title>2023: 132.328</title></circle>
	<circle cx="150.97" cy="189.93" data-y="162.853" data-x="2024" r="4" fill="#00AB84"><title>2024: 162.853</title></circle>
	<circle cx="168.71" cy="175.54" data-y="192.106" data-x="2025" r="4" fill="#00AB84"><title>2025: 192.106</title></circle>
	<circle cx="186.45" cy="161.95" data-y="219.738" data-x="2026" r="4" fill="#00AB84"><title>2026: 219.738</title></circle>
	<circle cx="204.19" cy="149.08" data-y="245.932" data-x="2027" r="4" fill="#00AB84"><title>2027: 245.932</title></circle>
	<circle cx="221.94" cy="136.76" data-y="270.973" data-x="2028" r="4" fill="#00AB84"><title>2028: 270.973</title></circle>
	<circle cx="239.68" cy="125.18" data-y="294.532" data-x="2029" r="4" fill="#00AB84"><title>2029: 294.532</title></circle>
	<circle cx="257.42" cy="114.58" data-y="316.091" data-x="2030" r="4" fill="#00AB84"><title>2030: 316.091</title></circle>
	<circle cx="275.16" cy="105.04" data-y="335.489" data-x="2031" r="4" fill="#00AB84"><title>2031: 335.489</title></circle>
	<circle cx="292.90" cy="96.58" data-y="352.696" data-x="2032" r="4" fill="#00AB84"><title>2032: 352.696</title></circle>
	<circle cx="310.65" cy="89.14" data-y="367.833" data-x="2033" r="4" fill="#00AB84"><title>2033: 367.833</title></circle>
	<circle cx="328.39" cy="82.64" data-y="381.048" data-x="2034" r="4" fill="#00AB84"><title>2034: 381.048</title></circle>
	<circle cx="346.13" cy="77.03" data-y="392.448" data-x="2035" r="4" fill="#00AB84"><title>2035: 392.448</title></circle>
	<circle cx="363.87" cy="72.55" data-y="401.575" data-x="2036" r="4" fill="#00AB84"><title>2036: 401.575</title></circle>
	<circle cx="381.61" cy="69.06" data-y="408.655" data-x="2037" r="4" fill="#00AB84"><title>2037: 408.655</title></circle>
	<circle cx="399.35" cy="66.46" data-y="413.941" data-x="2038" r="4" fill="#00AB84"><title>2038: 413.941</title></circle>
	<circle cx="417.10" cy="64.65" data-y="417.639" data-x="2039" r="4" fill="#00AB84"><title>2039: 417.639</title></circle>
	<circle cx="434.84" cy="63.46" data-y="420.058" data-x="2040" r="4" fill="#00AB84"><title>2040: 420.058</title></circle>
	<circle cx="452.58" cy="62.65" data-y="421.700" data-x="2041" r="4" fill="#00AB84"><title>2041: 421.700</title></circle>
	<circle cx="470.32" cy="61.99" data-y="423.048" data-x="2042" r="4" fill="#00AB84"><title>2042: 423.048</title></circle>
	<circle cx="488.06" cy="61.43" data-y="424.177" data-x="2043" r="4" fill="#00AB84"><title>2043: 424.177</title></circle>
	<circle cx="505.81" cy="60.98" data-y="425.105" data-x="2044" r="4" fill="#00AB84"><title>2044: 425.105</title></circle>
	<circle cx="523.55" cy="60.56" data-y="425.942" data-x="2045" r="4" fill="#00AB84"><title>2045: 425.942</title></circle>
	<circle cx="541.29" cy="60.18" data-y="426.731" data-x="2046" r="4" fill="#00AB84"><title>2046: 426.731</title></circle>
	<circle cx="559.03" cy="59.83" data-y="427.435" data-x="2047" r="4" fill="#00AB84"><title>2047: 427.435</title></circle>
	<circle cx="576.77" cy="59.50" data-y="428.108" data-x="2048" r="4" fill="#00AB84"><title>2048: 428.108</title></circle>
	<circle cx="594.52" cy="59.20" data-y="428.726" data-x="2049" r="4" fill="#00AB84"><title>2049: 428.726</title></circle>
	<circle cx="612.26" cy="58.92" data-y="429.292" data-x="2050" r="4" fill="#00AB84"><title>2050: 429.292</title></circle>
</g>
</svg>
