<svg width="640" height="320" viewBox="0 0 640 320" xmlns="http://www.w3.org/2000/svg" style="overflow:display" preserveAspectRatio="xMinYMin meet" overflow="visible">
<defs><style>.data-series path.line { fill-opacity: 0; }.data-series path.line.dotted { stroke-dasharray: 12 20 }.data-series circle { display: none; }.data-series:hover path.line, .data-series.on path.line { stroke-width: 5; }.data-series:hover circle, .data-series.on circle { display: inline; }.data-series circle:hover, .data-series circle.on { r: 6px!important; fill: black; }.grid { font-family: "Helvetica Neue",Helvetica,Arial,"Lucida Grande",sans-serif; }.grid line { stroke: rgb(0,0,0); stroke-width: 2; stroke-linecap: round; }.grid.grid-x text { text-anchor: middle; dominant-baseline: hanging; transform: translateY(10px); }.grid.grid-y text { text-anchor: end; dominant-baseline: middle; transform: translateX(-10px); }</style>
</defs><g class="grid grid-y"><line x1="120" y1="270" x2="630" y2="270" data-left="120"></line><text x="120" y="270" text-anchor="end">0</text><text x="120" y="207.982380794384" text-anchor="end">1,000,000</text><text x="120" y="145.964761588767" text-anchor="end">2,000,000</text><text x="120" y="83.9471423831511" text-anchor="end">3,000,000</text><text x="120" y="21.9295231775347" text-anchor="end">4,000,000</text><text style="text-anchor:middle;dominant-baseline:hanging;font-weight:bold;transform: translateY(140px) rotate(-90deg);">Number</text></g><g class="grid grid-x"><line class="tick" x1="120" y1="270" x2="120" y2="275"></line><text x="120" y="270" text-anchor="middle">2020</text><line class="tick" x1="284.516129032258" y1="270" x2="284.516129032258" y2="275"></line><text x="284.516129032258" y="270" text-anchor="middle">2030</text><line class="tick" x1="449.032258064516" y1="270" x2="449.032258064516" y2="275"></line><text x="449.032258064516" y="270" text-anchor="middle">2040</text><line class="tick" x1="613.548387096774" y1="270" x2="613.548387096774" y2="275"></line><text x="613.548387096774" y="270" text-anchor="middle">2050</text><text style="text-anchor:middle;dominant-baseline:hanging;font-weight:bold;transform: translateY(140px) rotate(-90deg);"></text></g><g data-scenario="high-hydrogen" class="data-series"><path d="M 120.00,268.23L 136.45,268.11L 152.90,267.61L 169.35,266.89L 185.81,266.52L 202.26,264.73L 218.71,262.70L 235.16,260.52L 251.61,258.17L 268.06,255.56L 284.52,252.56L 300.97,249.61L 317.42,246.87L 333.87,244.23L 350.32,241.62L 366.77,239.12L 383.23,236.53L 399.68,234.23L 416.13,232.11L 432.58,230.64L 449.03,229.36L 465.48,228.06L 481.94,226.75L 498.39,225.43L 514.84,224.10L 531.29,222.89L 547.74,221.67L 564.19,220.45L 580.65,219.23L 597.10,218.00L 613.55,216.77" id="High hydrogen" class="line" stroke="#0085CA" stroke-width="3" stroke-linecap="round"><title>High hydrogen</title></path>
<circle cx="120.00" cy="268.23" data-y="28516" data-x="2020" r="4" fill="#0085CA"><title>2020: 28516</title></circle>
<circle cx="136.45" cy="268.11" data-y="30399" data-x="2021" r="4" fill="#0085CA"><title>2021: 30399</title></circle>
<circle cx="152.90" cy="267.61" data-y="38496" data-x="2022" r="4" fill="#0085CA"><title>2022: 38496</title></circle>
<circle cx="169.35" cy="266.89" data-y="50162" data-x="2023" r="4" fill="#0085CA"><title>2023: 50162</title></circle>
<circle cx="185.81" cy="266.52" data-y="56037" data-x="2024" r="4" fill="#0085CA"><title>2024: 56037</title></circle>
<circle cx="202.26" cy="264.73" data-y="85024" data-x="2025" r="4" fill="#0085CA"><title>2025: 85024</title></circle>
<circle cx="218.71" cy="262.70" data-y="117629" data-x="2026" r="4" fill="#0085CA"><title>2026: 117629</title></circle>
<circle cx="235.16" cy="260.52" data-y="152861" data-x="2027" r="4" fill="#0085CA"><title>2027: 152861</title></circle>
<circle cx="251.61" cy="258.17" data-y="190775" data-x="2028" r="4" fill="#0085CA"><title>2028: 190775</title></circle>
<circle cx="268.06" cy="255.56" data-y="232891" data-x="2029" r="4" fill="#0085CA"><title>2029: 232891</title></circle>
<circle cx="284.52" cy="252.56" data-y="281198" data-x="2030" r="4" fill="#0085CA"><title>2030: 281198</title></circle>
<circle cx="300.97" cy="249.61" data-y="328815" data-x="2031" r="4" fill="#0085CA"><title>2031: 328815</title></circle>
<circle cx="317.42" cy="246.87" data-y="372916" data-x="2032" r="4" fill="#0085CA"><title>2032: 372916</title></circle>
<circle cx="333.87" cy="244.23" data-y="415456" data-x="2033" r="4" fill="#0085CA"><title>2033: 415456</title></circle>
<circle cx="350.32" cy="241.62" data-y="457545" data-x="2034" r="4" fill="#0085CA"><title>2034: 457545</title></circle>
<circle cx="366.77" cy="239.12" data-y="497966" data-x="2035" r="4" fill="#0085CA"><title>2035: 497966</title></circle>
<circle cx="383.23" cy="236.53" data-y="539749" data-x="2036" r="4" fill="#0085CA"><title>2036: 539749</title></circle>
<circle cx="399.68" cy="234.23" data-y="576692" data-x="2037" r="4" fill="#0085CA"><title>2037: 576692</title></circle>
<circle cx="416.13" cy="232.11" data-y="611022" data-x="2038" r="4" fill="#0085CA"><title>2038: 611022</title></circle>
<circle cx="432.58" cy="230.64" data-y="634594" data-x="2039" r="4" fill="#0085CA"><title>2039: 634594</title></circle>
<circle cx="449.03" cy="229.36" data-y="655369" data-x="2040" r="4" fill="#0085CA"><title>2040: 655369</title></circle>
<circle cx="465.48" cy="228.06" data-y="676332" data-x="2041" r="4" fill="#0085CA"><title>2041: 676332</title></circle>
<circle cx="481.94" cy="226.75" data-y="697431" data-x="2042" r="4" fill="#0085CA"><title>2042: 697431</title></circle>
<circle cx="498.39" cy="225.43" data-y="718675" data-x="2043" r="4" fill="#0085CA"><title>2043: 718675</title></circle>
<circle cx="514.84" cy="224.10" data-y="740061" data-x="2044" r="4" fill="#0085CA"><title>2044: 740061</title></circle>
<circle cx="531.29" cy="222.89" data-y="759601" data-x="2045" r="4" fill="#0085CA"><title>2045: 759601</title></circle>
<circle cx="547.74" cy="221.67" data-y="779226" data-x="2046" r="4" fill="#0085CA"><title>2046: 779226</title></circle>
<circle cx="564.19" cy="220.45" data-y="798929" data-x="2047" r="4" fill="#0085CA"><title>2047: 798929</title></circle>
<circle cx="580.65" cy="219.23" data-y="818678" data-x="2048" r="4" fill="#0085CA"><title>2048: 818678</title></circle>
<circle cx="597.10" cy="218.00" data-y="838448" data-x="2049" r="4" fill="#0085CA"><title>2049: 838448</title></circle>
<circle cx="613.55" cy="216.77" data-y="858236" data-x="2050" r="4" fill="#0085CA"><title>2050: 858236</title></circle>
</g>
<g data-scenario="deep-electrification" class="data-series"><path d="M 120.00,268.21L 136.45,268.04L 152.90,267.30L 169.35,266.22L 185.81,265.00L 202.26,262.95L 218.71,260.83L 235.16,258.38L 251.61,255.76L 268.06,252.91L 284.52,249.75L 300.97,246.65L 317.42,243.77L 333.87,240.98L 350.32,238.13L 366.77,221.99L 383.23,205.85L 399.68,190.19L 416.13,174.82L 432.58,159.95L 449.03,145.26L 465.48,130.41L 481.94,115.74L 498.39,100.97L 514.84,86.17L 531.29,71.42L 547.74,56.65L 564.19,41.89L 580.65,27.16L 597.10,13.17L 613.55,11.91" id="Deep electrification" class="line" stroke="#AB1236" stroke-width="3" stroke-linecap="round"><title>Deep electrification</title></path>
<circle cx="120.00" cy="268.21" data-y="28891" data-x="2020" r="4" fill="#AB1236"><title>2020: 28891</title></circle>
<circle cx="136.45" cy="268.04" data-y="31647" data-x="2021" r="4" fill="#AB1236"><title>2021: 31647</title></circle>
<circle cx="152.90" cy="267.30" data-y="43558" data-x="2022" r="4" fill="#AB1236"><title>2022: 43558</title></circle>
<circle cx="169.35" cy="266.22" data-y="60930" data-x="2023" r="4" fill="#AB1236"><title>2023: 60930</title></circle>
<circle cx="185.81" cy="265.00" data-y="80655" data-x="2024" r="4" fill="#AB1236"><title>2024: 80655</title></circle>
<circle cx="202.26" cy="262.95" data-y="113738" data-x="2025" r="4" fill="#AB1236"><title>2025: 113738</title></circle>
<circle cx="218.71" cy="260.83" data-y="147830" data-x="2026" r="4" fill="#AB1236"><title>2026: 147830</title></circle>
<circle cx="235.16" cy="258.38" data-y="187295" data-x="2027" r="4" fill="#AB1236"><title>2027: 187295</title></circle>
<circle cx="251.61" cy="255.76" data-y="229669" data-x="2028" r="4" fill="#AB1236"><title>2028: 229669</title></circle>
<circle cx="268.06" cy="252.91" data-y="275588" data-x="2029" r="4" fill="#AB1236"><title>2029: 275588</title></circle>
<circle cx="284.52" cy="249.75" data-y="326492" data-x="2030" r="4" fill="#AB1236"><title>2030: 326492</title></circle>
<circle cx="300.97" cy="246.65" data-y="376567" data-x="2031" r="4" fill="#AB1236"><title>2031: 376567</title></circle>
<circle cx="317.42" cy="243.77" data-y="422986" data-x="2032" r="4" fill="#AB1236"><title>2032: 422986</title></circle>
<circle cx="333.87" cy="240.98" data-y="467959" data-x="2033" r="4" fill="#AB1236"><title>2033: 467959</title></circle>
<circle cx="350.32" cy="238.13" data-y="513882" data-x="2034" r="4" fill="#AB1236"><title>2034: 513882</title></circle>
<circle cx="366.77" cy="221.99" data-y="774176" data-x="2035" r="4" fill="#AB1236"><title>2035: 774176</title></circle>
<circle cx="383.23" cy="205.85" data-y="1034444" data-x="2036" r="4" fill="#AB1236"><title>2036: 1034444</title></circle>
<circle cx="399.68" cy="190.19" data-y="1286897" data-x="2037" r="4" fill="#AB1236"><title>2037: 1286897</title></circle>
<circle cx="416.13" cy="174.82" data-y="1534773" data-x="2038" r="4" fill="#AB1236"><title>2038: 1534773</title></circle>
<circle cx="432.58" cy="159.95" data-y="1774452" data-x="2039" r="4" fill="#AB1236"><title>2039: 1774452</title></circle>
<circle cx="449.03" cy="145.26" data-y="2011405" data-x="2040" r="4" fill="#AB1236"><title>2040: 2011405</title></circle>
<circle cx="465.48" cy="130.41" data-y="2250826" data-x="2041" r="4" fill="#AB1236"><title>2041: 2250826</title></circle>
<circle cx="481.94" cy="115.74" data-y="2487369" data-x="2042" r="4" fill="#AB1236"><title>2042: 2487369</title></circle>
<circle cx="498.39" cy="100.97" data-y="2725529" data-x="2043" r="4" fill="#AB1236"><title>2043: 2725529</title></circle>
<circle cx="514.84" cy="86.17" data-y="2964171" data-x="2044" r="4" fill="#AB1236"><title>2044: 2964171</title></circle>
<circle cx="531.29" cy="71.42" data-y="3202052" data-x="2045" r="4" fill="#AB1236"><title>2045: 3202052</title></circle>
<circle cx="547.74" cy="56.65" data-y="3440190" data-x="2046" r="4" fill="#AB1236"><title>2046: 3440190</title></circle>
<circle cx="564.19" cy="41.89" data-y="3678156" data-x="2047" r="4" fill="#AB1236"><title>2047: 3678156</title></circle>
<circle cx="580.65" cy="27.16" data-y="3915741" data-x="2048" r="4" fill="#AB1236"><title>2048: 3915741</title></circle>
<circle cx="597.10" cy="13.17" data-y="4141298" data-x="2049" r="4" fill="#AB1236"><title>2049: 4141298</title></circle>
<circle cx="613.55" cy="11.91" data-y="4161549" data-x="2050" r="4" fill="#AB1236"><title>2050: 4161549</title></circle>
</g>
<g data-scenario="net-zero" class="data-series"><path d="M 120.00,268.21L 136.45,268.04L 152.90,267.46L 169.35,266.42L 185.81,265.22L 202.26,262.60L 218.71,259.97L 235.16,257.29L 251.61,254.52L 268.06,251.57L 284.52,234.86L 300.97,218.10L 317.42,201.55L 333.87,185.09L 350.32,168.64L 366.77,152.33L 383.23,135.98L 399.68,119.94L 416.13,104.32L 432.58,89.13L 449.03,74.86L 465.48,60.39L 481.94,45.81L 498.39,31.15L 514.84,17.01L 531.29,15.73L 547.74,14.55L 564.19,13.38L 580.65,12.24L 597.10,11.12L 613.55,10.00" id="Early net zero" class="line" stroke="#00AB84" stroke-width="3" stroke-linecap="round"><title>Early net zero</title></path>
<circle cx="120.00" cy="268.21" data-y="28891" data-x="2020" r="4" fill="#00AB84"><title>2020: 28891</title></circle>
<circle cx="136.45" cy="268.04" data-y="31647" data-x="2021" r="4" fill="#00AB84"><title>2021: 31647</title></circle>
<circle cx="152.90" cy="267.46" data-y="40947" data-x="2022" r="4" fill="#00AB84"><title>2022: 40947</title></circle>
<circle cx="169.35" cy="266.42" data-y="57755" data-x="2023" r="4" fill="#00AB84"><title>2023: 57755</title></circle>
<circle cx="185.81" cy="265.22" data-y="77127" data-x="2024" r="4" fill="#00AB84"><title>2024: 77127</title></circle>
<circle cx="202.26" cy="262.60" data-y="119301" data-x="2025" r="4" fill="#00AB84"><title>2025: 119301</title></circle>
<circle cx="218.71" cy="259.97" data-y="161758" data-x="2026" r="4" fill="#00AB84"><title>2026: 161758</title></circle>
<circle cx="235.16" cy="257.29" data-y="204988" data-x="2027" r="4" fill="#00AB84"><title>2027: 204988</title></circle>
<circle cx="251.61" cy="254.52" data-y="249641" data-x="2028" r="4" fill="#00AB84"><title>2028: 249641</title></circle>
<circle cx="268.06" cy="251.57" data-y="297155" data-x="2029" r="4" fill="#00AB84"><title>2029: 297155</title></circle>
<circle cx="284.52" cy="234.86" data-y="566580" data-x="2030" r="4" fill="#00AB84"><title>2030: 566580</title></circle>
<circle cx="300.97" cy="218.10" data-y="836862" data-x="2031" r="4" fill="#00AB84"><title>2031: 836862</title></circle>
<circle cx="317.42" cy="201.55" data-y="1103744" data-x="2032" r="4" fill="#00AB84"><title>2032: 1103744</title></circle>
<circle cx="333.87" cy="185.09" data-y="1369130" data-x="2033" r="4" fill="#00AB84"><title>2033: 1369130</title></circle>
<circle cx="350.32" cy="168.64" data-y="1634317" data-x="2034" r="4" fill="#00AB84"><title>2034: 1634317</title></circle>
<circle cx="366.77" cy="152.33" data-y="1897299" data-x="2035" r="4" fill="#00AB84"><title>2035: 1897299</title></circle>
<circle cx="383.23" cy="135.98" data-y="2161023" data-x="2036" r="4" fill="#00AB84"><title>2036: 2161023</title></circle>
<circle cx="399.68" cy="119.94" data-y="2419561" data-x="2037" r="4" fill="#00AB84"><title>2037: 2419561</title></circle>
<circle cx="416.13" cy="104.32" data-y="2671480" data-x="2038" r="4" fill="#00AB84"><title>2038: 2671480</title></circle>
<circle cx="432.58" cy="89.13" data-y="2916405" data-x="2039" r="4" fill="#00AB84"><title>2039: 2916405</title></circle>
<circle cx="449.03" cy="74.86" data-y="3146472" data-x="2040" r="4" fill="#00AB84"><title>2040: 3146472</title></circle>
<circle cx="465.48" cy="60.39" data-y="3379811" data-x="2041" r="4" fill="#00AB84"><title>2041: 3379811</title></circle>
<circle cx="481.94" cy="45.81" data-y="3614936" data-x="2042" r="4" fill="#00AB84"><title>2042: 3614936</title></circle>
<circle cx="498.39" cy="31.15" data-y="3851367" data-x="2043" r="4" fill="#00AB84"><title>2043: 3851367</title></circle>
<circle cx="514.84" cy="17.01" data-y="4079264" data-x="2044" r="4" fill="#00AB84"><title>2044: 4079264</title></circle>
<circle cx="531.29" cy="15.73" data-y="4100002" data-x="2045" r="4" fill="#00AB84"><title>2045: 4100002</title></circle>
<circle cx="547.74" cy="14.55" data-y="4119067" data-x="2046" r="4" fill="#00AB84"><title>2046: 4119067</title></circle>
<circle cx="564.19" cy="13.38" data-y="4137796" data-x="2047" r="4" fill="#00AB84"><title>2047: 4137796</title></circle>
<circle cx="580.65" cy="12.24" data-y="4156203" data-x="2048" r="4" fill="#00AB84"><title>2048: 4156203</title></circle>
<circle cx="597.10" cy="11.12" data-y="4174296" data-x="2049" r="4" fill="#00AB84"><title>2049: 4174296</title></circle>
<circle cx="613.55" cy="10.00" data-y="4192357" data-x="2050" r="4" fill="#00AB84"><title>2050: 4192357</title></circle>
</g>
</svg>
