<svg width="640" height="320" viewBox="0 0 640 320" xmlns="http://www.w3.org/2000/svg" style="overflow:display" preserveAspectRatio="xMinYMin meet" overflow="visible">
<defs>
	<style>
	.data-series path.line { fill-opacity: 0; }
	.data-series path.line.dotted { stroke-dasharray: 12 20 }
	.data-series circle { display: none; }
	.data-series:hover path.line, .data-series.on path.line { stroke-width: 5; }
	.data-series:hover circle, .data-series.on circle { display: inline; }
	.data-series circle:hover, .data-series circle.on { r: 6px!important; fill: black; }
	.grid { font-family: "Helvetica Neue",Helvetica,Arial,"Lucida Grande",sans-serif; }
	.grid line { stroke: rgb(0,0,0); stroke-width: 2; stroke-linecap: round; }
	.grid.grid-x text { text-anchor: middle; dominant-baseline: hanging; transform: translateY(10px); }
	.grid.grid-y text { text-anchor: end; dominant-baseline: middle; transform: translateX(-10px); }
	</style>
</defs>
<g class="grid grid-y">
	<line x1="70" y1="270" x2="630" y2="270" data-left="70"></line>
	<text x="70" y="270" text-anchor="end">0</text>
	<text x="70" y="196.408151712426" text-anchor="end">1</text>
	<text x="70" y="122.816303424851" text-anchor="end">2</text>
	<text x="70" y="49.2244551372771" text-anchor="end">3</text>
	<text style="text-anchor:middle;dominant-baseline:hanging;font-weight:bold;transform: translateY(140px) rotate(-90deg);">Installed capacity (GW)</text>
</g>
<g class="grid grid-x">
	<line class="tick" x1="70" y1="270" x2="70" y2="275"></line>
	<text x="70" y="270" text-anchor="middle">2020</text>
	<line class="tick" x1="250.645161290323" y1="270" x2="250.645161290323" y2="275"></line>
	<text x="250.645161290323" y="270" text-anchor="middle">2030</text>
	<line class="tick" x1="431.290322580645" y1="270" x2="431.290322580645" y2="275"></line>
	<text x="431.290322580645" y="270" text-anchor="middle">2040</text>
	<line class="tick" x1="611.935483870968" y1="270" x2="611.935483870968" y2="275"></line>
	<text x="611.935483870968" y="270" text-anchor="middle">2050</text>
	<text style="text-anchor:middle;dominant-baseline:hanging;font-weight:bold;transform: translateY(140px) rotate(-90deg);"></text>
</g>
<g data-scenario="high-hydrogen" class="data-series">	<path d="M 70.00,265.88L 88.06,264.70L 106.13,262.57L 124.19,259.70L 142.26,258.08L 160.32,256.53L 178.39,254.32L 196.45,252.12L 214.52,249.76L 232.58,247.26L 250.65,244.10L 268.71,240.12L 286.77,235.41L 304.84,230.85L 322.90,226.21L 340.97,222.31L 359.03,219.81L 377.10,217.46L 395.16,215.39L 413.23,213.33L 431.29,211.27L 449.35,209.29L 467.42,207.37L 485.48,205.83L 503.55,204.50L 521.61,203.11L 539.68,201.78L 557.74,200.46L 575.81,198.98L 593.87,197.44L 611.94,195.82" id="High hydrogen" class="line" stroke="#0085CA" stroke-width="3" stroke-linecap="round"><title>High hydrogen</title></path>
	<circle cx="70.00" cy="265.88" data-y="0.056" data-x="2020" r="4" fill="#0085CA"><title>2020: 0.056</title></circle>
	<circle cx="88.06" cy="264.70" data-y="0.072" data-x="2021" r="4" fill="#0085CA"><title>2021: 0.072</title></circle>
	<circle cx="106.13" cy="262.57" data-y="0.101" data-x="2022" r="4" fill="#0085CA"><title>2022: 0.101</title></circle>
	<circle cx="124.19" cy="259.70" data-y="0.140" data-x="2023" r="4" fill="#0085CA"><title>2023: 0.140</title></circle>
	<circle cx="142.26" cy="258.08" data-y="0.162" data-x="2024" r="4" fill="#0085CA"><title>2024: 0.162</title></circle>
	<circle cx="160.32" cy="256.53" data-y="0.183" data-x="2025" r="4" fill="#0085CA"><title>2025: 0.183</title></circle>
	<circle cx="178.39" cy="254.32" data-y="0.213" data-x="2026" r="4" fill="#0085CA"><title>2026: 0.213</title></circle>
	<circle cx="196.45" cy="252.12" data-y="0.243" data-x="2027" r="4" fill="#0085CA"><title>2027: 0.243</title></circle>
	<circle cx="214.52" cy="249.76" data-y="0.275" data-x="2028" r="4" fill="#0085CA"><title>2028: 0.275</title></circle>
	<circle cx="232.58" cy="247.26" data-y="0.309" data-x="2029" r="4" fill="#0085CA"><title>2029: 0.309</title></circle>
	<circle cx="250.65" cy="244.10" data-y="0.352" data-x="2030" r="4" fill="#0085CA"><title>2030: 0.352</title></circle>
	<circle cx="268.71" cy="240.12" data-y="0.406" data-x="2031" r="4" fill="#0085CA"><title>2031: 0.406</title></circle>
	<circle cx="286.77" cy="235.41" data-y="0.470" data-x="2032" r="4" fill="#0085CA"><title>2032: 0.470</title></circle>
	<circle cx="304.84" cy="230.85" data-y="0.532" data-x="2033" r="4" fill="#0085CA"><title>2033: 0.532</title></circle>
	<circle cx="322.90" cy="226.21" data-y="0.595" data-x="2034" r="4" fill="#0085CA"><title>2034: 0.595</title></circle>
	<circle cx="340.97" cy="222.31" data-y="0.648" data-x="2035" r="4" fill="#0085CA"><title>2035: 0.648</title></circle>
	<circle cx="359.03" cy="219.81" data-y="0.682" data-x="2036" r="4" fill="#0085CA"><title>2036: 0.682</title></circle>
	<circle cx="377.10" cy="217.46" data-y="0.714" data-x="2037" r="4" fill="#0085CA"><title>2037: 0.714</title></circle>
	<circle cx="395.16" cy="215.39" data-y="0.742" data-x="2038" r="4" fill="#0085CA"><title>2038: 0.742</title></circle>
	<circle cx="413.23" cy="213.33" data-y="0.770" data-x="2039" r="4" fill="#0085CA"><title>2039: 0.770</title></circle>
	<circle cx="431.29" cy="211.27" data-y="0.798" data-x="2040" r="4" fill="#0085CA"><title>2040: 0.798</title></circle>
	<circle cx="449.35" cy="209.29" data-y="0.825" data-x="2041" r="4" fill="#0085CA"><title>2041: 0.825</title></circle>
	<circle cx="467.42" cy="207.37" data-y="0.851" data-x="2042" r="4" fill="#0085CA"><title>2042: 0.851</title></circle>
	<circle cx="485.48" cy="205.83" data-y="0.872" data-x="2043" r="4" fill="#0085CA"><title>2043: 0.872</title></circle>
	<circle cx="503.55" cy="204.50" data-y="0.890" data-x="2044" r="4" fill="#0085CA"><title>2044: 0.890</title></circle>
	<circle cx="521.61" cy="203.11" data-y="0.909" data-x="2045" r="4" fill="#0085CA"><title>2045: 0.909</title></circle>
	<circle cx="539.68" cy="201.78" data-y="0.927" data-x="2046" r="4" fill="#0085CA"><title>2046: 0.927</title></circle>
	<circle cx="557.74" cy="200.46" data-y="0.945" data-x="2047" r="4" fill="#0085CA"><title>2047: 0.945</title></circle>
	<circle cx="575.81" cy="198.98" data-y="0.965" data-x="2048" r="4" fill="#0085CA"><title>2048: 0.965</title></circle>
	<circle cx="593.87" cy="197.44" data-y="0.986" data-x="2049" r="4" fill="#0085CA"><title>2049: 0.986</title></circle>
	<circle cx="611.94" cy="195.82" data-y="1.008" data-x="2050" r="4" fill="#0085CA"><title>2050: 1.008</title></circle>
</g>
<g data-scenario="deep-electrification" class="data-series">	<path d="M 70.00,264.92L 88.06,259.84L 106.13,253.74L 124.19,248.73L 142.26,245.49L 160.32,241.37L 178.39,236.07L 196.45,230.85L 214.52,221.72L 232.58,214.22L 250.65,202.88L 268.71,192.21L 286.77,182.35L 304.84,163.66L 322.90,148.13L 340.97,132.97L 359.03,113.62L 377.10,94.78L 395.16,69.46L 413.23,55.92L 431.29,46.58L 449.35,34.73L 467.42,30.02L 485.48,23.47L 503.55,19.20L 521.61,17.21L 539.68,15.08L 557.74,13.16L 575.81,11.25L 593.87,10.00L 611.94,10.00" id="Deep electrification" class="line" stroke="#AB1236" stroke-width="3" stroke-linecap="round"><title>Deep electrification</title></path>
	<circle cx="70.00" cy="264.92" data-y="0.069" data-x="2020" r="4" fill="#AB1236"><title>2020: 0.069</title></circle>
	<circle cx="88.06" cy="259.84" data-y="0.138" data-x="2021" r="4" fill="#AB1236"><title>2021: 0.138</title></circle>
	<circle cx="106.13" cy="253.74" data-y="0.221" data-x="2022" r="4" fill="#AB1236"><title>2022: 0.221</title></circle>
	<circle cx="124.19" cy="248.73" data-y="0.289" data-x="2023" r="4" fill="#AB1236"><title>2023: 0.289</title></circle>
	<circle cx="142.26" cy="245.49" data-y="0.333" data-x="2024" r="4" fill="#AB1236"><title>2024: 0.333</title></circle>
	<circle cx="160.32" cy="241.37" data-y="0.389" data-x="2025" r="4" fill="#AB1236"><title>2025: 0.389</title></circle>
	<circle cx="178.39" cy="236.07" data-y="0.461" data-x="2026" r="4" fill="#AB1236"><title>2026: 0.461</title></circle>
	<circle cx="196.45" cy="230.85" data-y="0.532" data-x="2027" r="4" fill="#AB1236"><title>2027: 0.532</title></circle>
	<circle cx="214.52" cy="221.72" data-y="0.656" data-x="2028" r="4" fill="#AB1236"><title>2028: 0.656</title></circle>
	<circle cx="232.58" cy="214.22" data-y="0.758" data-x="2029" r="4" fill="#AB1236"><title>2029: 0.758</title></circle>
	<circle cx="250.65" cy="202.88" data-y="0.912" data-x="2030" r="4" fill="#AB1236"><title>2030: 0.912</title></circle>
	<circle cx="268.71" cy="192.21" data-y="1.057" data-x="2031" r="4" fill="#AB1236"><title>2031: 1.057</title></circle>
	<circle cx="286.77" cy="182.35" data-y="1.191" data-x="2032" r="4" fill="#AB1236"><title>2032: 1.191</title></circle>
	<circle cx="304.84" cy="163.66" data-y="1.445" data-x="2033" r="4" fill="#AB1236"><title>2033: 1.445</title></circle>
	<circle cx="322.90" cy="148.13" data-y="1.656" data-x="2034" r="4" fill="#AB1236"><title>2034: 1.656</title></circle>
	<circle cx="340.97" cy="132.97" data-y="1.862" data-x="2035" r="4" fill="#AB1236"><title>2035: 1.862</title></circle>
	<circle cx="359.03" cy="113.62" data-y="2.125" data-x="2036" r="4" fill="#AB1236"><title>2036: 2.125</title></circle>
	<circle cx="377.10" cy="94.78" data-y="2.381" data-x="2037" r="4" fill="#AB1236"><title>2037: 2.381</title></circle>
	<circle cx="395.16" cy="69.46" data-y="2.725" data-x="2038" r="4" fill="#AB1236"><title>2038: 2.725</title></circle>
	<circle cx="413.23" cy="55.92" data-y="2.909" data-x="2039" r="4" fill="#AB1236"><title>2039: 2.909</title></circle>
	<circle cx="431.29" cy="46.58" data-y="3.036" data-x="2040" r="4" fill="#AB1236"><title>2040: 3.036</title></circle>
	<circle cx="449.35" cy="34.73" data-y="3.197" data-x="2041" r="4" fill="#AB1236"><title>2041: 3.197</title></circle>
	<circle cx="467.42" cy="30.02" data-y="3.261" data-x="2042" r="4" fill="#AB1236"><title>2042: 3.261</title></circle>
	<circle cx="485.48" cy="23.47" data-y="3.350" data-x="2043" r="4" fill="#AB1236"><title>2043: 3.350</title></circle>
	<circle cx="503.55" cy="19.20" data-y="3.408" data-x="2044" r="4" fill="#AB1236"><title>2044: 3.408</title></circle>
	<circle cx="521.61" cy="17.21" data-y="3.435" data-x="2045" r="4" fill="#AB1236"><title>2045: 3.435</title></circle>
	<circle cx="539.68" cy="15.08" data-y="3.464" data-x="2046" r="4" fill="#AB1236"><title>2046: 3.464</title></circle>
	<circle cx="557.74" cy="13.16" data-y="3.490" data-x="2047" r="4" fill="#AB1236"><title>2047: 3.490</title></circle>
	<circle cx="575.81" cy="11.25" data-y="3.516" data-x="2048" r="4" fill="#AB1236"><title>2048: 3.516</title></circle>
	<circle cx="593.87" cy="10.00" data-y="3.533" data-x="2049" r="4" fill="#AB1236"><title>2049: 3.533</title></circle>
	<circle cx="611.94" cy="10.00" data-y="3.533" data-x="2050" r="4" fill="#AB1236"><title>2050: 3.533</title></circle>
</g>
<g data-scenario="net-zero" class="data-series">	<path d="M 70.00,265.22L 88.06,262.64L 106.13,258.59L 124.19,254.03L 142.26,250.94L 160.32,247.26L 178.39,243.07L 196.45,238.94L 214.52,231.88L 232.58,225.62L 250.65,216.06L 268.71,206.49L 286.77,197.14L 304.84,182.43L 322.90,171.31L 340.97,161.23L 359.03,147.62L 377.10,134.89L 395.16,118.84L 413.23,111.70L 431.29,107.66L 449.35,99.56L 467.42,96.47L 485.48,92.35L 503.55,90.07L 521.61,89.41L 539.68,88.60L 557.74,87.93L 575.81,87.12L 593.87,86.46L 611.94,85.80" id="Early net zero" class="line" stroke="#00AB84" stroke-width="3" stroke-linecap="round"><title>Early net zero</title></path>
	<circle cx="70.00" cy="265.22" data-y="0.065" data-x="2020" r="4" fill="#00AB84"><title>2020: 0.065</title></circle>
	<circle cx="88.06" cy="262.64" data-y="0.100" data-x="2021" r="4" fill="#00AB84"><title>2021: 0.100</title></circle>
	<circle cx="106.13" cy="258.59" data-y="0.155" data-x="2022" r="4" fill="#00AB84"><title>2022: 0.155</title></circle>
	<circle cx="124.19" cy="254.03" data-y="0.217" data-x="2023" r="4" fill="#00AB84"><title>2023: 0.217</title></circle>
	<circle cx="142.26" cy="250.94" data-y="0.259" data-x="2024" r="4" fill="#00AB84"><title>2024: 0.259</title></circle>
	<circle cx="160.32" cy="247.26" data-y="0.309" data-x="2025" r="4" fill="#00AB84"><title>2025: 0.309</title></circle>
	<circle cx="178.39" cy="243.07" data-y="0.366" data-x="2026" r="4" fill="#00AB84"><title>2026: 0.366</title></circle>
	<circle cx="196.45" cy="238.94" data-y="0.422" data-x="2027" r="4" fill="#00AB84"><title>2027: 0.422</title></circle>
	<circle cx="214.52" cy="231.88" data-y="0.518" data-x="2028" r="4" fill="#00AB84"><title>2028: 0.518</title></circle>
	<circle cx="232.58" cy="225.62" data-y="0.603" data-x="2029" r="4" fill="#00AB84"><title>2029: 0.603</title></circle>
	<circle cx="250.65" cy="216.06" data-y="0.733" data-x="2030" r="4" fill="#00AB84"><title>2030: 0.733</title></circle>
	<circle cx="268.71" cy="206.49" data-y="0.863" data-x="2031" r="4" fill="#00AB84"><title>2031: 0.863</title></circle>
	<circle cx="286.77" cy="197.14" data-y="0.990" data-x="2032" r="4" fill="#00AB84"><title>2032: 0.990</title></circle>
	<circle cx="304.84" cy="182.43" data-y="1.190" data-x="2033" r="4" fill="#00AB84"><title>2033: 1.190</title></circle>
	<circle cx="322.90" cy="171.31" data-y="1.341" data-x="2034" r="4" fill="#00AB84"><title>2034: 1.341</title></circle>
	<circle cx="340.97" cy="161.23" data-y="1.478" data-x="2035" r="4" fill="#00AB84"><title>2035: 1.478</title></circle>
	<circle cx="359.03" cy="147.62" data-y="1.663" data-x="2036" r="4" fill="#00AB84"><title>2036: 1.663</title></circle>
	<circle cx="377.10" cy="134.89" data-y="1.836" data-x="2037" r="4" fill="#00AB84"><title>2037: 1.836</title></circle>
	<circle cx="395.16" cy="118.84" data-y="2.054" data-x="2038" r="4" fill="#00AB84"><title>2038: 2.054</title></circle>
	<circle cx="413.23" cy="111.70" data-y="2.151" data-x="2039" r="4" fill="#00AB84"><title>2039: 2.151</title></circle>
	<circle cx="431.29" cy="107.66" data-y="2.206" data-x="2040" r="4" fill="#00AB84"><title>2040: 2.206</title></circle>
	<circle cx="449.35" cy="99.56" data-y="2.316" data-x="2041" r="4" fill="#00AB84"><title>2041: 2.316</title></circle>
	<circle cx="467.42" cy="96.47" data-y="2.358" data-x="2042" r="4" fill="#00AB84"><title>2042: 2.358</title></circle>
	<circle cx="485.48" cy="92.35" data-y="2.414" data-x="2043" r="4" fill="#00AB84"><title>2043: 2.414</title></circle>
	<circle cx="503.55" cy="90.07" data-y="2.445" data-x="2044" r="4" fill="#00AB84"><title>2044: 2.445</title></circle>
	<circle cx="521.61" cy="89.41" data-y="2.454" data-x="2045" r="4" fill="#00AB84"><title>2045: 2.454</title></circle>
	<circle cx="539.68" cy="88.60" data-y="2.465" data-x="2046" r="4" fill="#00AB84"><title>2046: 2.465</title></circle>
	<circle cx="557.74" cy="87.93" data-y="2.474" data-x="2047" r="4" fill="#00AB84"><title>2047: 2.474</title></circle>
	<circle cx="575.81" cy="87.12" data-y="2.485" data-x="2048" r="4" fill="#00AB84"><title>2048: 2.485</title></circle>
	<circle cx="593.87" cy="86.46" data-y="2.494" data-x="2049" r="4" fill="#00AB84"><title>2049: 2.494</title></circle>
	<circle cx="611.94" cy="85.80" data-y="2.503" data-x="2050" r="4" fill="#00AB84"><title>2050: 2.503</title></circle>
</g>
</svg>
