<svg width="640" height="256" viewBox="0 0 640 256" xmlns="http://www.w3.org/2000/svg" style="overflow:display" preserveAspectRatio="xMinYMin meet" overflow="visible">
<defs><style>.data-series path.line { fill-opacity: 0; }.data-series path.line.dotted { stroke-dasharray: 12 20 }.data-series circle { display: none; }.data-series:hover path.line, .data-series.on path.line { stroke-width: 5; }.data-series:hover circle, .data-series.on circle { display: inline; }.data-series circle:hover, .data-series circle.on { r: 6px!important; fill: black; }.grid { font-family: "Helvetica Neue",Helvetica,Arial,"Lucida Grande",sans-serif; }.grid line { stroke: rgb(0,0,0); stroke-width: 2; stroke-linecap: round; }.grid.grid-x text { text-anchor: middle; dominant-baseline: hanging; transform: translateY(10px); }.grid.grid-y text { text-anchor: end; dominant-baseline: middle; transform: translateX(-10px); }</style>
</defs><g class="grid grid-y"><line x1="80" y1="206" x2="630" y2="206" data-left="80"></line><text x="80" y="206" text-anchor="end">0</text><text x="80" y="150.523068213982" text-anchor="end">1</text><text x="80" y="95.0461364279649" text-anchor="end">2</text><text x="80" y="39.5692046419474" text-anchor="end">3</text><text style="text-anchor:middle;dominant-baseline:hanging;font-weight:bold;transform: translateY(108px) rotate(-90deg);">Installed capacity (GW)</text></g><g class="grid grid-x"><line class="tick" x1="80" y1="206" x2="80" y2="211"></line><text x="80" y="206" text-anchor="middle">2020</text><line class="tick" x1="257.41935483871" y1="206" x2="257.41935483871" y2="211"></line><text x="257.41935483871" y="206" text-anchor="middle">2030</text><line class="tick" x1="434.838709677419" y1="206" x2="434.838709677419" y2="211"></line><text x="434.838709677419" y="206" text-anchor="middle">2040</text><line class="tick" x1="612.258064516129" y1="206" x2="612.258064516129" y2="211"></line><text x="612.258064516129" y="206" text-anchor="middle">2050</text><text style="text-anchor:middle;dominant-baseline:hanging;font-weight:bold;transform: translateY(108px) rotate(-90deg);"></text></g><g data-scenario="high-hydrogen" class="data-series"><path d="M 80,202.893291819983L 97.741935483871,202.005660911407L 115.483870967742,200.396829889612L 133.225806451613,198.233229549958L 150.967741935484,197.012737050665L 168.709677419355,195.847721483159L 186.451612903226,194.183413529578L 204.193548387097,192.519105575998L 221.935483870968,190.743843758845L 239.677419354839,188.857628078121L 257.41935483871,186.472120011322L 275.161290322581,183.476365694877L 292.903225806452,179.925842060572L 310.645161290323,176.486272289839L 328.387096774194,172.99122558732L 346.129032258065,170.050948202661L 363.870967741935,168.164732521936L 381.612903225806,166.389470704783L 399.354838709677,164.836116614775L 417.096774193548,163.282762524766L 434.838709677419,161.729408434758L 452.58064516129,160.231531276536L 470.322580645161,158.789131050099L 488.064516129032,157.624115482593L 505.806451612903,156.625530710444L 523.548387096774,155.57146900651L 541.290322580645,154.572884234362L 559.032258064516,153.574299462213L 576.774193548387,152.464760826493L 594.516129032258,151.299745258987L 612.258064516129,150.079252759694" id="High hydrogen" class="line" stroke="#0085CA" stroke-width="3" stroke-linecap="round"><title>High hydrogen</title></path><circle cx="80" cy="202.893291819983" data-y="0.056" data-x="2020" r="4" fill="#0085CA"><title>2020: 0.056</title></circle><circle cx="97.741935483871" cy="202.005660911407" data-y="0.072" data-x="2021" r="4" fill="#0085CA"><title>2021: 0.072</title></circle><circle cx="115.483870967742" cy="200.396829889612" data-y="0.101" data-x="2022" r="4" fill="#0085CA"><title>2022: 0.101</title></circle><circle cx="133.225806451613" cy="198.233229549958" data-y="0.140" data-x="2023" r="4" fill="#0085CA"><title>2023: 0.140</title></circle><circle cx="150.967741935484" cy="197.012737050665" data-y="0.162" data-x="2024" r="4" fill="#0085CA"><title>2024: 0.162</title></circle><circle cx="168.709677419355" cy="195.847721483159" data-y="0.183" data-x="2025" r="4" fill="#0085CA"><title>2025: 0.183</title></circle><circle cx="186.451612903226" cy="194.183413529578" data-y="0.213" data-x="2026" r="4" fill="#0085CA"><title>2026: 0.213</title></circle><circle cx="204.193548387097" cy="192.519105575998" data-y="0.243" data-x="2027" r="4" fill="#0085CA"><title>2027: 0.243</title></circle><circle cx="221.935483870968" cy="190.743843758845" data-y="0.275" data-x="2028" r="4" fill="#0085CA"><title>2028: 0.275</title></circle><circle cx="239.677419354839" cy="188.857628078121" data-y="0.309" data-x="2029" r="4" fill="#0085CA"><title>2029: 0.309</title></circle><circle cx="257.41935483871" cy="186.472120011322" data-y="0.352" data-x="2030" r="4" fill="#0085CA"><title>2030: 0.352</title></circle><circle cx="275.161290322581" cy="183.476365694877" data-y="0.406" data-x="2031" r="4" fill="#0085CA"><title>2031: 0.406</title></circle><circle cx="292.903225806452" cy="179.925842060572" data-y="0.470" data-x="2032" r="4" fill="#0085CA"><title>2032: 0.470</title></circle><circle cx="310.645161290323" cy="176.486272289839" data-y="0.532" data-x="2033" r="4" fill="#0085CA"><title>2033: 0.532</title></circle><circle cx="328.387096774194" cy="172.99122558732" data-y="0.595" data-x="2034" r="4" fill="#0085CA"><title>2034: 0.595</title></circle><circle cx="346.129032258065" cy="170.050948202661" data-y="0.648" data-x="2035" r="4" fill="#0085CA"><title>2035: 0.648</title></circle><circle cx="363.870967741935" cy="168.164732521936" data-y="0.682" data-x="2036" r="4" fill="#0085CA"><title>2036: 0.682</title></circle><circle cx="381.612903225806" cy="166.389470704783" data-y="0.714" data-x="2037" r="4" fill="#0085CA"><title>2037: 0.714</title></circle><circle cx="399.354838709677" cy="164.836116614775" data-y="0.742" data-x="2038" r="4" fill="#0085CA"><title>2038: 0.742</title></circle><circle cx="417.096774193548" cy="163.282762524766" data-y="0.770" data-x="2039" r="4" fill="#0085CA"><title>2039: 0.770</title></circle><circle cx="434.838709677419" cy="161.729408434758" data-y="0.798" data-x="2040" r="4" fill="#0085CA"><title>2040: 0.798</title></circle><circle cx="452.58064516129" cy="160.231531276536" data-y="0.825" data-x="2041" r="4" fill="#0085CA"><title>2041: 0.825</title></circle><circle cx="470.322580645161" cy="158.789131050099" data-y="0.851" data-x="2042" r="4" fill="#0085CA"><title>2042: 0.851</title></circle><circle cx="488.064516129032" cy="157.624115482593" data-y="0.872" data-x="2043" r="4" fill="#0085CA"><title>2043: 0.872</title></circle><circle cx="505.806451612903" cy="156.625530710444" data-y="0.890" data-x="2044" r="4" fill="#0085CA"><title>2044: 0.890</title></circle><circle cx="523.548387096774" cy="155.57146900651" data-y="0.909" data-x="2045" r="4" fill="#0085CA"><title>2045: 0.909</title></circle><circle cx="541.290322580645" cy="154.572884234362" data-y="0.927" data-x="2046" r="4" fill="#0085CA"><title>2046: 0.927</title></circle><circle cx="559.032258064516" cy="153.574299462213" data-y="0.945" data-x="2047" r="4" fill="#0085CA"><title>2047: 0.945</title></circle><circle cx="576.774193548387" cy="152.464760826493" data-y="0.965" data-x="2048" r="4" fill="#0085CA"><title>2048: 0.965</title></circle><circle cx="594.516129032258" cy="151.299745258987" data-y="0.986" data-x="2049" r="4" fill="#0085CA"><title>2049: 0.986</title></circle><circle cx="612.258064516129" cy="150.079252759694" data-y="1.008" data-x="2050" r="4" fill="#0085CA"><title>2050: 1.008</title></circle></g>
<g data-scenario="deep-electrification" class="data-series"><path d="M 80,202.172091706765L 97.741935483871,198.34418341353L 115.483870967742,193.73959807529L 133.225806451613,189.967166713841L 150.967741935484,187.526181715256L 168.709677419355,184.419473535239L 186.451612903226,180.425134446646L 204.193548387097,176.486272289839L 221.935483870968,169.607132748372L 239.677419354839,163.948485706199L 257.41935483871,155.405038211152L 275.161290322581,147.360883102179L 292.903225806452,139.926974242853L 310.645161290323,125.835833569205L 328.387096774194,114.130200962355L 346.129032258065,102.701953014435L 363.870967741935,88.1115199547127L 381.612903225806,73.9094254174922L 399.354838709677,54.8253608831022L 417.096774193548,44.617605434475L 434.838709677419,37.5720350976507L 452.58064516129,28.6402490801019L 470.322580645161,25.0897254457968L 488.064516129032,20.1522785168412L 505.806451612903,16.9346164732522L 523.548387096774,15.4367393150297L 541.290322580645,13.8279082932352L 559.032258064516,12.3855080667987L 576.774193548387,10.9431078403623L 594.516129032258,10L 612.258064516129,10" id="Deep electrification" class="line" stroke="#AB1236" stroke-width="3" stroke-linecap="round"><title>Deep electrification</title></path><circle cx="80" cy="202.172091706765" data-y="0.069" data-x="2020" r="4" fill="#AB1236"><title>2020: 0.069</title></circle><circle cx="97.741935483871" cy="198.34418341353" data-y="0.138" data-x="2021" r="4" fill="#AB1236"><title>2021: 0.138</title></circle><circle cx="115.483870967742" cy="193.73959807529" data-y="0.221" data-x="2022" r="4" fill="#AB1236"><title>2022: 0.221</title></circle><circle cx="133.225806451613" cy="189.967166713841" data-y="0.289" data-x="2023" r="4" fill="#AB1236"><title>2023: 0.289</title></circle><circle cx="150.967741935484" cy="187.526181715256" data-y="0.333" data-x="2024" r="4" fill="#AB1236"><title>2024: 0.333</title></circle><circle cx="168.709677419355" cy="184.419473535239" data-y="0.389" data-x="2025" r="4" fill="#AB1236"><title>2025: 0.389</title></circle><circle cx="186.451612903226" cy="180.425134446646" data-y="0.461" data-x="2026" r="4" fill="#AB1236"><title>2026: 0.461</title></circle><circle cx="204.193548387097" cy="176.486272289839" data-y="0.532" data-x="2027" r="4" fill="#AB1236"><title>2027: 0.532</title></circle><circle cx="221.935483870968" cy="169.607132748372" data-y="0.656" data-x="2028" r="4" fill="#AB1236"><title>2028: 0.656</title></circle><circle cx="239.677419354839" cy="163.948485706199" data-y="0.758" data-x="2029" r="4" fill="#AB1236"><title>2029: 0.758</title></circle><circle cx="257.41935483871" cy="155.405038211152" data-y="0.912" data-x="2030" r="4" fill="#AB1236"><title>2030: 0.912</title></circle><circle cx="275.161290322581" cy="147.360883102179" data-y="1.057" data-x="2031" r="4" fill="#AB1236"><title>2031: 1.057</title></circle><circle cx="292.903225806452" cy="139.926974242853" data-y="1.191" data-x="2032" r="4" fill="#AB1236"><title>2032: 1.191</title></circle><circle cx="310.645161290323" cy="125.835833569205" data-y="1.445" data-x="2033" r="4" fill="#AB1236"><title>2033: 1.445</title></circle><circle cx="328.387096774194" cy="114.130200962355" data-y="1.656" data-x="2034" r="4" fill="#AB1236"><title>2034: 1.656</title></circle><circle cx="346.129032258065" cy="102.701953014435" data-y="1.862" data-x="2035" r="4" fill="#AB1236"><title>2035: 1.862</title></circle><circle cx="363.870967741935" cy="88.1115199547127" data-y="2.125" data-x="2036" r="4" fill="#AB1236"><title>2036: 2.125</title></circle><circle cx="381.612903225806" cy="73.9094254174922" data-y="2.381" data-x="2037" r="4" fill="#AB1236"><title>2037: 2.381</title></circle><circle cx="399.354838709677" cy="54.8253608831022" data-y="2.725" data-x="2038" r="4" fill="#AB1236"><title>2038: 2.725</title></circle><circle cx="417.096774193548" cy="44.617605434475" data-y="2.909" data-x="2039" r="4" fill="#AB1236"><title>2039: 2.909</title></circle><circle cx="434.838709677419" cy="37.5720350976507" data-y="3.036" data-x="2040" r="4" fill="#AB1236"><title>2040: 3.036</title></circle><circle cx="452.58064516129" cy="28.6402490801019" data-y="3.197" data-x="2041" r="4" fill="#AB1236"><title>2041: 3.197</title></circle><circle cx="470.322580645161" cy="25.0897254457968" data-y="3.261" data-x="2042" r="4" fill="#AB1236"><title>2042: 3.261</title></circle><circle cx="488.064516129032" cy="20.1522785168412" data-y="3.350" data-x="2043" r="4" fill="#AB1236"><title>2043: 3.350</title></circle><circle cx="505.806451612903" cy="16.9346164732522" data-y="3.408" data-x="2044" r="4" fill="#AB1236"><title>2044: 3.408</title></circle><circle cx="523.548387096774" cy="15.4367393150297" data-y="3.435" data-x="2045" r="4" fill="#AB1236"><title>2045: 3.435</title></circle><circle cx="541.290322580645" cy="13.8279082932352" data-y="3.464" data-x="2046" r="4" fill="#AB1236"><title>2046: 3.464</title></circle><circle cx="559.032258064516" cy="12.3855080667987" data-y="3.490" data-x="2047" r="4" fill="#AB1236"><title>2047: 3.490</title></circle><circle cx="576.774193548387" cy="10.9431078403623" data-y="3.516" data-x="2048" r="4" fill="#AB1236"><title>2048: 3.516</title></circle><circle cx="594.516129032258" cy="10" data-y="3.533" data-x="2049" r="4" fill="#AB1236"><title>2049: 3.533</title></circle><circle cx="612.258064516129" cy="10" data-y="3.533" data-x="2050" r="4" fill="#AB1236"><title>2050: 3.533</title></circle></g>
<g data-scenario="net-zero" class="data-series"><path d="M 80,202.393999433909L 97.741935483871,200.452306821398L 115.483870967742,197.401075573167L 133.225806451613,193.961505802434L 150.967741935484,191.631474667421L 168.709677419355,188.857628078121L 186.451612903226,185.695442966318L 204.193548387097,182.588734786301L 221.935483870968,177.262949334843L 239.677419354839,172.547410133031L 257.41935483871,165.335409000849L 275.161290322581,158.123407868667L 292.903225806452,151.077837531843L 310.645161290323,139.982451174639L 328.387096774194,131.60543447495L 346.129032258065,124.005094820266L 363.870967741935,113.741862439853L 381.612903225806,104.144353240872L 399.354838709677,92.05038211152L 417.096774193548,86.6691197282763L 434.838709677419,83.6178884800453L 452.58064516129,77.5154259835834L 470.322580645161,75.1853948485706L 488.064516129032,72.0786866685536L 505.806451612903,70.3589017831871L 523.548387096774,69.8596093971129L 541.290322580645,69.2493631474667L 559.032258064516,68.7500707613926L 576.774193548387,68.1398245117464L 594.516129032258,67.6405321256722L 612.258064516129,67.1412397395981" id="Early net zero" class="line" stroke="#00AB84" stroke-width="3" stroke-linecap="round"><title>Early net zero</title></path><circle cx="80" cy="202.393999433909" data-y="0.065" data-x="2020" r="4" fill="#00AB84"><title>2020: 0.065</title></circle><circle cx="97.741935483871" cy="200.452306821398" data-y="0.100" data-x="2021" r="4" fill="#00AB84"><title>2021: 0.100</title></circle><circle cx="115.483870967742" cy="197.401075573167" data-y="0.155" data-x="2022" r="4" fill="#00AB84"><title>2022: 0.155</title></circle><circle cx="133.225806451613" cy="193.961505802434" data-y="0.217" data-x="2023" r="4" fill="#00AB84"><title>2023: 0.217</title></circle><circle cx="150.967741935484" cy="191.631474667421" data-y="0.259" data-x="2024" r="4" fill="#00AB84"><title>2024: 0.259</title></circle><circle cx="168.709677419355" cy="188.857628078121" data-y="0.309" data-x="2025" r="4" fill="#00AB84"><title>2025: 0.309</title></circle><circle cx="186.451612903226" cy="185.695442966318" data-y="0.366" data-x="2026" r="4" fill="#00AB84"><title>2026: 0.366</title></circle><circle cx="204.193548387097" cy="182.588734786301" data-y="0.422" data-x="2027" r="4" fill="#00AB84"><title>2027: 0.422</title></circle><circle cx="221.935483870968" cy="177.262949334843" data-y="0.518" data-x="2028" r="4" fill="#00AB84"><title>2028: 0.518</title></circle><circle cx="239.677419354839" cy="172.547410133031" data-y="0.603" data-x="2029" r="4" fill="#00AB84"><title>2029: 0.603</title></circle><circle cx="257.41935483871" cy="165.335409000849" data-y="0.733" data-x="2030" r="4" fill="#00AB84"><title>2030: 0.733</title></circle><circle cx="275.161290322581" cy="158.123407868667" data-y="0.863" data-x="2031" r="4" fill="#00AB84"><title>2031: 0.863</title></circle><circle cx="292.903225806452" cy="151.077837531843" data-y="0.990" data-x="2032" r="4" fill="#00AB84"><title>2032: 0.990</title></circle><circle cx="310.645161290323" cy="139.982451174639" data-y="1.190" data-x="2033" r="4" fill="#00AB84"><title>2033: 1.190</title></circle><circle cx="328.387096774194" cy="131.60543447495" data-y="1.341" data-x="2034" r="4" fill="#00AB84"><title>2034: 1.341</title></circle><circle cx="346.129032258065" cy="124.005094820266" data-y="1.478" data-x="2035" r="4" fill="#00AB84"><title>2035: 1.478</title></circle><circle cx="363.870967741935" cy="113.741862439853" data-y="1.663" data-x="2036" r="4" fill="#00AB84"><title>2036: 1.663</title></circle><circle cx="381.612903225806" cy="104.144353240872" data-y="1.836" data-x="2037" r="4" fill="#00AB84"><title>2037: 1.836</title></circle><circle cx="399.354838709677" cy="92.05038211152" data-y="2.054" data-x="2038" r="4" fill="#00AB84"><title>2038: 2.054</title></circle><circle cx="417.096774193548" cy="86.6691197282763" data-y="2.151" data-x="2039" r="4" fill="#00AB84"><title>2039: 2.151</title></circle><circle cx="434.838709677419" cy="83.6178884800453" data-y="2.206" data-x="2040" r="4" fill="#00AB84"><title>2040: 2.206</title></circle><circle cx="452.58064516129" cy="77.5154259835834" data-y="2.316" data-x="2041" r="4" fill="#00AB84"><title>2041: 2.316</title></circle><circle cx="470.322580645161" cy="75.1853948485706" data-y="2.358" data-x="2042" r="4" fill="#00AB84"><title>2042: 2.358</title></circle><circle cx="488.064516129032" cy="72.0786866685536" data-y="2.414" data-x="2043" r="4" fill="#00AB84"><title>2043: 2.414</title></circle><circle cx="505.806451612903" cy="70.3589017831871" data-y="2.445" data-x="2044" r="4" fill="#00AB84"><title>2044: 2.445</title></circle><circle cx="523.548387096774" cy="69.8596093971129" data-y="2.454" data-x="2045" r="4" fill="#00AB84"><title>2045: 2.454</title></circle><circle cx="541.290322580645" cy="69.2493631474667" data-y="2.465" data-x="2046" r="4" fill="#00AB84"><title>2046: 2.465</title></circle><circle cx="559.032258064516" cy="68.7500707613926" data-y="2.474" data-x="2047" r="4" fill="#00AB84"><title>2047: 2.474</title></circle><circle cx="576.774193548387" cy="68.1398245117464" data-y="2.485" data-x="2048" r="4" fill="#00AB84"><title>2048: 2.485</title></circle><circle cx="594.516129032258" cy="67.6405321256722" data-y="2.494" data-x="2049" r="4" fill="#00AB84"><title>2049: 2.494</title></circle><circle cx="612.258064516129" cy="67.1412397395981" data-y="2.503" data-x="2050" r="4" fill="#00AB84"><title>2050: 2.503</title></circle></g>
</svg>
