<svg width="640" height="320" viewBox="0 0 640 320" xmlns="http://www.w3.org/2000/svg" style="overflow:display" preserveAspectRatio="xMinYMin meet" overflow="visible">
<defs>
	<style>
	.data-series path.line { fill-opacity: 0; }
	.data-series path.line.dotted { stroke-dasharray: 12 20 }
	.data-series circle { display: none; }
	.data-series:hover path.line, .data-series.on path.line { stroke-width: 5; }
	.data-series:hover circle, .data-series.on circle { display: inline; }
	.data-series circle:hover, .data-series circle.on { r: 6px!important; fill: black; }
	.grid { font-family: "Helvetica Neue",Helvetica,Arial,"Lucida Grande",sans-serif; }
	.grid line { stroke: rgb(0,0,0); stroke-width: 2; stroke-linecap: round; }
	.grid.grid-x text { text-anchor: middle; dominant-baseline: hanging; transform: translateY(10px); }
	.grid.grid-y text { text-anchor: end; dominant-baseline: middle; transform: translateX(-10px); }
	</style>
</defs>
<g class="grid grid-y">
	<line x1="70" y1="270" x2="630" y2="270" data-left="70"></line>
	<text x="70" y="270" text-anchor="end">0</text>
	<text x="70" y="178.944456118232" text-anchor="end">5</text>
	<text x="70" y="87.8889122364642" text-anchor="end">10</text>
	<text style="text-anchor:middle;dominant-baseline:hanging;font-weight:bold;transform: translateY(140px) rotate(-90deg);">Annual peak demand (GW)</text>
</g>
<g class="grid grid-x">
	<line class="tick" x1="70" y1="270" x2="70" y2="275"></line>
	<text x="70" y="270" text-anchor="middle">2020</text>
	<line class="tick" x1="250.645161290323" y1="270" x2="250.645161290323" y2="275"></line>
	<text x="250.645161290323" y="270" text-anchor="middle">2030</text>
	<line class="tick" x1="431.290322580645" y1="270" x2="431.290322580645" y2="275"></line>
	<text x="431.290322580645" y="270" text-anchor="middle">2040</text>
	<line class="tick" x1="611.935483870968" y1="270" x2="611.935483870968" y2="275"></line>
	<text x="611.935483870968" y="270" text-anchor="middle">2050</text>
	<text style="text-anchor:middle;dominant-baseline:hanging;font-weight:bold;transform: translateY(140px) rotate(-90deg);"></text>
</g>
<g data-scenario="high-hydrogen" class="data-series">	<path d="M 70.00,147.86L 88.06,147.95L 106.13,147.75L 124.19,146.97L 142.26,145.76L 160.32,144.12L 178.39,142.25L 196.45,140.03L 214.52,137.39L 232.58,134.44L 250.65,130.99L 268.71,127.99L 286.77,125.13L 304.84,122.09L 322.90,118.90L 340.97,114.31L 359.03,110.03L 377.10,106.70L 395.16,103.66L 413.23,101.06L 431.29,98.63L 449.35,96.70L 467.42,94.94L 485.48,93.35L 503.55,91.90L 521.61,90.73L 539.68,89.75L 557.74,88.85L 575.81,88.11L 593.87,87.49L 611.94,86.92" id="High hydrogen" class="line" stroke="#0085CA" stroke-width="3" stroke-linecap="round"><title>High hydrogen</title></path>
	<circle cx="70.00" cy="147.86" data-y="6.707" data-x="2020" r="4" fill="#0085CA"><title>2020: 6.707</title></circle>
	<circle cx="88.06" cy="147.95" data-y="6.702" data-x="2021" r="4" fill="#0085CA"><title>2021: 6.702</title></circle>
	<circle cx="106.13" cy="147.75" data-y="6.713" data-x="2022" r="4" fill="#0085CA"><title>2022: 6.713</title></circle>
	<circle cx="124.19" cy="146.97" data-y="6.756" data-x="2023" r="4" fill="#0085CA"><title>2023: 6.756</title></circle>
	<circle cx="142.26" cy="145.76" data-y="6.822" data-x="2024" r="4" fill="#0085CA"><title>2024: 6.822</title></circle>
	<circle cx="160.32" cy="144.12" data-y="6.912" data-x="2025" r="4" fill="#0085CA"><title>2025: 6.912</title></circle>
	<circle cx="178.39" cy="142.25" data-y="7.015" data-x="2026" r="4" fill="#0085CA"><title>2026: 7.015</title></circle>
	<circle cx="196.45" cy="140.03" data-y="7.137" data-x="2027" r="4" fill="#0085CA"><title>2027: 7.137</title></circle>
	<circle cx="214.52" cy="137.39" data-y="7.282" data-x="2028" r="4" fill="#0085CA"><title>2028: 7.282</title></circle>
	<circle cx="232.58" cy="134.44" data-y="7.444" data-x="2029" r="4" fill="#0085CA"><title>2029: 7.444</title></circle>
	<circle cx="250.65" cy="130.99" data-y="7.633" data-x="2030" r="4" fill="#0085CA"><title>2030: 7.633</title></circle>
	<circle cx="268.71" cy="127.99" data-y="7.798" data-x="2031" r="4" fill="#0085CA"><title>2031: 7.798</title></circle>
	<circle cx="286.77" cy="125.13" data-y="7.955" data-x="2032" r="4" fill="#0085CA"><title>2032: 7.955</title></circle>
	<circle cx="304.84" cy="122.09" data-y="8.122" data-x="2033" r="4" fill="#0085CA"><title>2033: 8.122</title></circle>
	<circle cx="322.90" cy="118.90" data-y="8.297" data-x="2034" r="4" fill="#0085CA"><title>2034: 8.297</title></circle>
	<circle cx="340.97" cy="114.31" data-y="8.549" data-x="2035" r="4" fill="#0085CA"><title>2035: 8.549</title></circle>
	<circle cx="359.03" cy="110.03" data-y="8.784" data-x="2036" r="4" fill="#0085CA"><title>2036: 8.784</title></circle>
	<circle cx="377.10" cy="106.70" data-y="8.967" data-x="2037" r="4" fill="#0085CA"><title>2037: 8.967</title></circle>
	<circle cx="395.16" cy="103.66" data-y="9.134" data-x="2038" r="4" fill="#0085CA"><title>2038: 9.134</title></circle>
	<circle cx="413.23" cy="101.06" data-y="9.277" data-x="2039" r="4" fill="#0085CA"><title>2039: 9.277</title></circle>
	<circle cx="431.29" cy="98.63" data-y="9.410" data-x="2040" r="4" fill="#0085CA"><title>2040: 9.410</title></circle>
	<circle cx="449.35" cy="96.70" data-y="9.516" data-x="2041" r="4" fill="#0085CA"><title>2041: 9.516</title></circle>
	<circle cx="467.42" cy="94.94" data-y="9.613" data-x="2042" r="4" fill="#0085CA"><title>2042: 9.613</title></circle>
	<circle cx="485.48" cy="93.35" data-y="9.700" data-x="2043" r="4" fill="#0085CA"><title>2043: 9.700</title></circle>
	<circle cx="503.55" cy="91.90" data-y="9.780" data-x="2044" r="4" fill="#0085CA"><title>2044: 9.780</title></circle>
	<circle cx="521.61" cy="90.73" data-y="9.844" data-x="2045" r="4" fill="#0085CA"><title>2045: 9.844</title></circle>
	<circle cx="539.68" cy="89.75" data-y="9.898" data-x="2046" r="4" fill="#0085CA"><title>2046: 9.898</title></circle>
	<circle cx="557.74" cy="88.85" data-y="9.947" data-x="2047" r="4" fill="#0085CA"><title>2047: 9.947</title></circle>
	<circle cx="575.81" cy="88.11" data-y="9.988" data-x="2048" r="4" fill="#0085CA"><title>2048: 9.988</title></circle>
	<circle cx="593.87" cy="87.49" data-y="10.022" data-x="2049" r="4" fill="#0085CA"><title>2049: 10.022</title></circle>
	<circle cx="611.94" cy="86.92" data-y="10.053" data-x="2050" r="4" fill="#0085CA"><title>2050: 10.053</title></circle>
</g>
<g data-scenario="deep-electrification" class="data-series">	<path d="M 70.00,149.28L 88.06,149.68L 106.13,149.72L 124.19,149.10L 142.26,147.99L 160.32,146.60L 178.39,145.09L 196.45,143.12L 214.52,140.77L 232.58,138.12L 250.65,135.07L 268.71,132.47L 286.77,130.03L 304.84,127.44L 322.90,124.69L 340.97,114.02L 359.03,103.82L 377.10,94.65L 395.16,85.85L 413.23,77.56L 431.29,69.46L 449.35,61.83L 467.42,54.49L 485.48,47.35L 503.55,40.36L 521.61,33.71L 539.68,27.41L 557.74,21.31L 575.81,15.41L 593.87,10.00L 611.94,10.49" id="Deep electrification" class="line" stroke="#AB1236" stroke-width="3" stroke-linecap="round"><title>Deep electrification</title></path>
	<circle cx="70.00" cy="149.28" data-y="6.629" data-x="2020" r="4" fill="#AB1236"><title>2020: 6.629</title></circle>
	<circle cx="88.06" cy="149.68" data-y="6.607" data-x="2021" r="4" fill="#AB1236"><title>2021: 6.607</title></circle>
	<circle cx="106.13" cy="149.72" data-y="6.605" data-x="2022" r="4" fill="#AB1236"><title>2022: 6.605</title></circle>
	<circle cx="124.19" cy="149.10" data-y="6.639" data-x="2023" r="4" fill="#AB1236"><title>2023: 6.639</title></circle>
	<circle cx="142.26" cy="147.99" data-y="6.700" data-x="2024" r="4" fill="#AB1236"><title>2024: 6.700</title></circle>
	<circle cx="160.32" cy="146.60" data-y="6.776" data-x="2025" r="4" fill="#AB1236"><title>2025: 6.776</title></circle>
	<circle cx="178.39" cy="145.09" data-y="6.859" data-x="2026" r="4" fill="#AB1236"><title>2026: 6.859</title></circle>
	<circle cx="196.45" cy="143.12" data-y="6.967" data-x="2027" r="4" fill="#AB1236"><title>2027: 6.967</title></circle>
	<circle cx="214.52" cy="140.77" data-y="7.096" data-x="2028" r="4" fill="#AB1236"><title>2028: 7.096</title></circle>
	<circle cx="232.58" cy="138.12" data-y="7.242" data-x="2029" r="4" fill="#AB1236"><title>2029: 7.242</title></circle>
	<circle cx="250.65" cy="135.07" data-y="7.409" data-x="2030" r="4" fill="#AB1236"><title>2030: 7.409</title></circle>
	<circle cx="268.71" cy="132.47" data-y="7.552" data-x="2031" r="4" fill="#AB1236"><title>2031: 7.552</title></circle>
	<circle cx="286.77" cy="130.03" data-y="7.686" data-x="2032" r="4" fill="#AB1236"><title>2032: 7.686</title></circle>
	<circle cx="304.84" cy="127.44" data-y="7.828" data-x="2033" r="4" fill="#AB1236"><title>2033: 7.828</title></circle>
	<circle cx="322.90" cy="124.69" data-y="7.979" data-x="2034" r="4" fill="#AB1236"><title>2034: 7.979</title></circle>
	<circle cx="340.97" cy="114.02" data-y="8.565" data-x="2035" r="4" fill="#AB1236"><title>2035: 8.565</title></circle>
	<circle cx="359.03" cy="103.82" data-y="9.125" data-x="2036" r="4" fill="#AB1236"><title>2036: 9.125</title></circle>
	<circle cx="377.10" cy="94.65" data-y="9.629" data-x="2037" r="4" fill="#AB1236"><title>2037: 9.629</title></circle>
	<circle cx="395.16" cy="85.85" data-y="10.112" data-x="2038" r="4" fill="#AB1236"><title>2038: 10.112</title></circle>
	<circle cx="413.23" cy="77.56" data-y="10.567" data-x="2039" r="4" fill="#AB1236"><title>2039: 10.567</title></circle>
	<circle cx="431.29" cy="69.46" data-y="11.012" data-x="2040" r="4" fill="#AB1236"><title>2040: 11.012</title></circle>
	<circle cx="449.35" cy="61.83" data-y="11.431" data-x="2041" r="4" fill="#AB1236"><title>2041: 11.431</title></circle>
	<circle cx="467.42" cy="54.49" data-y="11.834" data-x="2042" r="4" fill="#AB1236"><title>2042: 11.834</title></circle>
	<circle cx="485.48" cy="47.35" data-y="12.226" data-x="2043" r="4" fill="#AB1236"><title>2043: 12.226</title></circle>
	<circle cx="503.55" cy="40.36" data-y="12.610" data-x="2044" r="4" fill="#AB1236"><title>2044: 12.610</title></circle>
	<circle cx="521.61" cy="33.71" data-y="12.975" data-x="2045" r="4" fill="#AB1236"><title>2045: 12.975</title></circle>
	<circle cx="539.68" cy="27.41" data-y="13.321" data-x="2046" r="4" fill="#AB1236"><title>2046: 13.321</title></circle>
	<circle cx="557.74" cy="21.31" data-y="13.656" data-x="2047" r="4" fill="#AB1236"><title>2047: 13.656</title></circle>
	<circle cx="575.81" cy="15.41" data-y="13.980" data-x="2048" r="4" fill="#AB1236"><title>2048: 13.980</title></circle>
	<circle cx="593.87" cy="10.00" data-y="14.277" data-x="2049" r="4" fill="#AB1236"><title>2049: 14.277</title></circle>
	<circle cx="611.94" cy="10.49" data-y="14.250" data-x="2050" r="4" fill="#AB1236"><title>2050: 14.250</title></circle>
</g>
<g data-scenario="net-zero" class="data-series">	<path d="M 70.00,149.26L 88.06,149.62L 106.13,149.57L 124.19,148.70L 142.26,147.40L 160.32,145.53L 178.39,143.49L 196.45,141.12L 214.52,138.35L 232.58,135.27L 250.65,126.17L 268.71,117.35L 286.77,109.21L 304.84,100.86L 322.90,92.46L 340.97,83.23L 359.03,74.50L 377.10,66.87L 395.16,59.63L 413.23,52.89L 431.29,46.59L 449.35,40.76L 467.42,35.11L 485.48,29.63L 503.55,24.51L 521.61,24.04L 539.68,23.93L 557.74,23.62L 575.81,23.62L 593.87,23.80L 611.94,24.02" id="Early net zero" class="line" stroke="#00AB84" stroke-width="3" stroke-linecap="round"><title>Early net zero</title></path>
	<circle cx="70.00" cy="149.26" data-y="6.630" data-x="2020" r="4" fill="#00AB84"><title>2020: 6.630</title></circle>
	<circle cx="88.06" cy="149.62" data-y="6.610" data-x="2021" r="4" fill="#00AB84"><title>2021: 6.610</title></circle>
	<circle cx="106.13" cy="149.57" data-y="6.613" data-x="2022" r="4" fill="#00AB84"><title>2022: 6.613</title></circle>
	<circle cx="124.19" cy="148.70" data-y="6.661" data-x="2023" r="4" fill="#00AB84"><title>2023: 6.661</title></circle>
	<circle cx="142.26" cy="147.40" data-y="6.732" data-x="2024" r="4" fill="#00AB84"><title>2024: 6.732</title></circle>
	<circle cx="160.32" cy="145.53" data-y="6.835" data-x="2025" r="4" fill="#00AB84"><title>2025: 6.835</title></circle>
	<circle cx="178.39" cy="143.49" data-y="6.947" data-x="2026" r="4" fill="#00AB84"><title>2026: 6.947</title></circle>
	<circle cx="196.45" cy="141.12" data-y="7.077" data-x="2027" r="4" fill="#00AB84"><title>2027: 7.077</title></circle>
	<circle cx="214.52" cy="138.35" data-y="7.229" data-x="2028" r="4" fill="#00AB84"><title>2028: 7.229</title></circle>
	<circle cx="232.58" cy="135.27" data-y="7.398" data-x="2029" r="4" fill="#00AB84"><title>2029: 7.398</title></circle>
	<circle cx="250.65" cy="126.17" data-y="7.898" data-x="2030" r="4" fill="#00AB84"><title>2030: 7.898</title></circle>
	<circle cx="268.71" cy="117.35" data-y="8.382" data-x="2031" r="4" fill="#00AB84"><title>2031: 8.382</title></circle>
	<circle cx="286.77" cy="109.21" data-y="8.829" data-x="2032" r="4" fill="#00AB84"><title>2032: 8.829</title></circle>
	<circle cx="304.84" cy="100.86" data-y="9.288" data-x="2033" r="4" fill="#00AB84"><title>2033: 9.288</title></circle>
	<circle cx="322.90" cy="92.46" data-y="9.749" data-x="2034" r="4" fill="#00AB84"><title>2034: 9.749</title></circle>
	<circle cx="340.97" cy="83.23" data-y="10.256" data-x="2035" r="4" fill="#00AB84"><title>2035: 10.256</title></circle>
	<circle cx="359.03" cy="74.50" data-y="10.735" data-x="2036" r="4" fill="#00AB84"><title>2036: 10.735</title></circle>
	<circle cx="377.10" cy="66.87" data-y="11.154" data-x="2037" r="4" fill="#00AB84"><title>2037: 11.154</title></circle>
	<circle cx="395.16" cy="59.63" data-y="11.552" data-x="2038" r="4" fill="#00AB84"><title>2038: 11.552</title></circle>
	<circle cx="413.23" cy="52.89" data-y="11.922" data-x="2039" r="4" fill="#00AB84"><title>2039: 11.922</title></circle>
	<circle cx="431.29" cy="46.59" data-y="12.268" data-x="2040" r="4" fill="#00AB84"><title>2040: 12.268</title></circle>
	<circle cx="449.35" cy="40.76" data-y="12.588" data-x="2041" r="4" fill="#00AB84"><title>2041: 12.588</title></circle>
	<circle cx="467.42" cy="35.11" data-y="12.898" data-x="2042" r="4" fill="#00AB84"><title>2042: 12.898</title></circle>
	<circle cx="485.48" cy="29.63" data-y="13.199" data-x="2043" r="4" fill="#00AB84"><title>2043: 13.199</title></circle>
	<circle cx="503.55" cy="24.51" data-y="13.480" data-x="2044" r="4" fill="#00AB84"><title>2044: 13.480</title></circle>
	<circle cx="521.61" cy="24.04" data-y="13.506" data-x="2045" r="4" fill="#00AB84"><title>2045: 13.506</title></circle>
	<circle cx="539.68" cy="23.93" data-y="13.512" data-x="2046" r="4" fill="#00AB84"><title>2046: 13.512</title></circle>
	<circle cx="557.74" cy="23.62" data-y="13.529" data-x="2047" r="4" fill="#00AB84"><title>2047: 13.529</title></circle>
	<circle cx="575.81" cy="23.62" data-y="13.529" data-x="2048" r="4" fill="#00AB84"><title>2048: 13.529</title></circle>
	<circle cx="593.87" cy="23.80" data-y="13.519" data-x="2049" r="4" fill="#00AB84"><title>2049: 13.519</title></circle>
	<circle cx="611.94" cy="24.02" data-y="13.507" data-x="2050" r="4" fill="#00AB84"><title>2050: 13.507</title></circle>
</g>
<g data-scenario="high-hydrogen-customer-flexibility" class="data-series">	<path d="M 70.00,147.86L 88.06,147.95L 106.13,147.75L 124.19,147.38L 142.26,146.53L 160.32,145.31L 178.39,143.96L 196.45,142.38L 214.52,140.56L 232.58,138.12L 250.65,135.24L 268.71,132.72L 286.77,130.34L 304.84,127.81L 322.90,125.17L 340.97,121.38L 359.03,117.83L 377.10,115.02L 395.16,112.46L 413.23,110.25L 431.29,108.19L 449.35,106.52L 467.42,104.97L 485.48,103.57L 503.55,102.28L 521.61,101.20L 539.68,100.27L 557.74,99.45L 575.81,98.71L 593.87,98.07L 611.94,97.50" id="High hydrogen with customer flexibility" class="line dotted" stroke="#0085CA" stroke-width="3" stroke-linecap="round"><title>High hydrogen with customer flexibility</title></path>
	<circle cx="70.00" cy="147.86" data-y="6.707" data-x="2020" r="4" fill="#0085CA"><title>2020: 6.707</title></circle>
	<circle cx="88.06" cy="147.95" data-y="6.702" data-x="2021" r="4" fill="#0085CA"><title>2021: 6.702</title></circle>
	<circle cx="106.13" cy="147.75" data-y="6.713" data-x="2022" r="4" fill="#0085CA"><title>2022: 6.713</title></circle>
	<circle cx="124.19" cy="147.38" data-y="6.733" data-x="2023" r="4" fill="#0085CA"><title>2023: 6.733</title></circle>
	<circle cx="142.26" cy="146.53" data-y="6.780" data-x="2024" r="4" fill="#0085CA"><title>2024: 6.780</title></circle>
	<circle cx="160.32" cy="145.31" data-y="6.847" data-x="2025" r="4" fill="#0085CA"><title>2025: 6.847</title></circle>
	<circle cx="178.39" cy="143.96" data-y="6.921" data-x="2026" r="4" fill="#0085CA"><title>2026: 6.921</title></circle>
	<circle cx="196.45" cy="142.38" data-y="7.008" data-x="2027" r="4" fill="#0085CA"><title>2027: 7.008</title></circle>
	<circle cx="214.52" cy="140.56" data-y="7.108" data-x="2028" r="4" fill="#0085CA"><title>2028: 7.108</title></circle>
	<circle cx="232.58" cy="138.12" data-y="7.242" data-x="2029" r="4" fill="#0085CA"><title>2029: 7.242</title></circle>
	<circle cx="250.65" cy="135.24" data-y="7.400" data-x="2030" r="4" fill="#0085CA"><title>2030: 7.400</title></circle>
	<circle cx="268.71" cy="132.72" data-y="7.538" data-x="2031" r="4" fill="#0085CA"><title>2031: 7.538</title></circle>
	<circle cx="286.77" cy="130.34" data-y="7.669" data-x="2032" r="4" fill="#0085CA"><title>2032: 7.669</title></circle>
	<circle cx="304.84" cy="127.81" data-y="7.808" data-x="2033" r="4" fill="#0085CA"><title>2033: 7.808</title></circle>
	<circle cx="322.90" cy="125.17" data-y="7.953" data-x="2034" r="4" fill="#0085CA"><title>2034: 7.953</title></circle>
	<circle cx="340.97" cy="121.38" data-y="8.161" data-x="2035" r="4" fill="#0085CA"><title>2035: 8.161</title></circle>
	<circle cx="359.03" cy="117.83" data-y="8.356" data-x="2036" r="4" fill="#0085CA"><title>2036: 8.356</title></circle>
	<circle cx="377.10" cy="115.02" data-y="8.510" data-x="2037" r="4" fill="#0085CA"><title>2037: 8.510</title></circle>
	<circle cx="395.16" cy="112.46" data-y="8.651" data-x="2038" r="4" fill="#0085CA"><title>2038: 8.651</title></circle>
	<circle cx="413.23" cy="110.25" data-y="8.772" data-x="2039" r="4" fill="#0085CA"><title>2039: 8.772</title></circle>
	<circle cx="431.29" cy="108.19" data-y="8.885" data-x="2040" r="4" fill="#0085CA"><title>2040: 8.885</title></circle>
	<circle cx="449.35" cy="106.52" data-y="8.977" data-x="2041" r="4" fill="#0085CA"><title>2041: 8.977</title></circle>
	<circle cx="467.42" cy="104.97" data-y="9.062" data-x="2042" r="4" fill="#0085CA"><title>2042: 9.062</title></circle>
	<circle cx="485.48" cy="103.57" data-y="9.139" data-x="2043" r="4" fill="#0085CA"><title>2043: 9.139</title></circle>
	<circle cx="503.55" cy="102.28" data-y="9.210" data-x="2044" r="4" fill="#0085CA"><title>2044: 9.210</title></circle>
	<circle cx="521.61" cy="101.20" data-y="9.269" data-x="2045" r="4" fill="#0085CA"><title>2045: 9.269</title></circle>
	<circle cx="539.68" cy="100.27" data-y="9.320" data-x="2046" r="4" fill="#0085CA"><title>2046: 9.320</title></circle>
	<circle cx="557.74" cy="99.45" data-y="9.365" data-x="2047" r="4" fill="#0085CA"><title>2047: 9.365</title></circle>
	<circle cx="575.81" cy="98.71" data-y="9.406" data-x="2048" r="4" fill="#0085CA"><title>2048: 9.406</title></circle>
	<circle cx="593.87" cy="98.07" data-y="9.441" data-x="2049" r="4" fill="#0085CA"><title>2049: 9.441</title></circle>
	<circle cx="611.94" cy="97.50" data-y="9.472" data-x="2050" r="4" fill="#0085CA"><title>2050: 9.472</title></circle>
</g>
<g data-scenario="deep-electrification-customer-flexibility" class="data-series">	<path d="M 70.00,149.28L 88.06,149.68L 106.13,149.72L 124.19,149.52L 142.26,148.71L 160.32,147.73L 178.39,146.67L 196.45,145.29L 214.52,143.67L 232.58,141.45L 250.65,138.90L 268.71,136.73L 286.77,134.69L 304.84,132.54L 322.90,130.27L 340.97,120.30L 359.03,110.71L 377.10,101.98L 395.16,93.59L 413.23,85.65L 431.29,77.85L 449.35,70.42L 467.42,63.29L 485.48,56.29L 503.55,49.43L 521.61,42.87L 539.68,36.62L 557.74,30.54L 575.81,24.66L 593.87,19.23L 611.94,19.69" id="Deep electrification with customer flexibility" class="line dotted" stroke="#AB1236" stroke-width="3" stroke-linecap="round"><title>Deep electrification with customer flexibility</title></path>
	<circle cx="70.00" cy="149.28" data-y="6.629" data-x="2020" r="4" fill="#AB1236"><title>2020: 6.629</title></circle>
	<circle cx="88.06" cy="149.68" data-y="6.607" data-x="2021" r="4" fill="#AB1236"><title>2021: 6.607</title></circle>
	<circle cx="106.13" cy="149.72" data-y="6.605" data-x="2022" r="4" fill="#AB1236"><title>2022: 6.605</title></circle>
	<circle cx="124.19" cy="149.52" data-y="6.616" data-x="2023" r="4" fill="#AB1236"><title>2023: 6.616</title></circle>
	<circle cx="142.26" cy="148.71" data-y="6.660" data-x="2024" r="4" fill="#AB1236"><title>2024: 6.660</title></circle>
	<circle cx="160.32" cy="147.73" data-y="6.714" data-x="2025" r="4" fill="#AB1236"><title>2025: 6.714</title></circle>
	<circle cx="178.39" cy="146.67" data-y="6.772" data-x="2026" r="4" fill="#AB1236"><title>2026: 6.772</title></circle>
	<circle cx="196.45" cy="145.29" data-y="6.848" data-x="2027" r="4" fill="#AB1236"><title>2027: 6.848</title></circle>
	<circle cx="214.52" cy="143.67" data-y="6.937" data-x="2028" r="4" fill="#AB1236"><title>2028: 6.937</title></circle>
	<circle cx="232.58" cy="141.45" data-y="7.059" data-x="2029" r="4" fill="#AB1236"><title>2029: 7.059</title></circle>
	<circle cx="250.65" cy="138.90" data-y="7.199" data-x="2030" r="4" fill="#AB1236"><title>2030: 7.199</title></circle>
	<circle cx="268.71" cy="136.73" data-y="7.318" data-x="2031" r="4" fill="#AB1236"><title>2031: 7.318</title></circle>
	<circle cx="286.77" cy="134.69" data-y="7.430" data-x="2032" r="4" fill="#AB1236"><title>2032: 7.430</title></circle>
	<circle cx="304.84" cy="132.54" data-y="7.548" data-x="2033" r="4" fill="#AB1236"><title>2033: 7.548</title></circle>
	<circle cx="322.90" cy="130.27" data-y="7.673" data-x="2034" r="4" fill="#AB1236"><title>2034: 7.673</title></circle>
	<circle cx="340.97" cy="120.30" data-y="8.220" data-x="2035" r="4" fill="#AB1236"><title>2035: 8.220</title></circle>
	<circle cx="359.03" cy="110.71" data-y="8.747" data-x="2036" r="4" fill="#AB1236"><title>2036: 8.747</title></circle>
	<circle cx="377.10" cy="101.98" data-y="9.226" data-x="2037" r="4" fill="#AB1236"><title>2037: 9.226</title></circle>
	<circle cx="395.16" cy="93.59" data-y="9.687" data-x="2038" r="4" fill="#AB1236"><title>2038: 9.687</title></circle>
	<circle cx="413.23" cy="85.65" data-y="10.123" data-x="2039" r="4" fill="#AB1236"><title>2039: 10.123</title></circle>
	<circle cx="431.29" cy="77.85" data-y="10.551" data-x="2040" r="4" fill="#AB1236"><title>2040: 10.551</title></circle>
	<circle cx="449.35" cy="70.42" data-y="10.959" data-x="2041" r="4" fill="#AB1236"><title>2041: 10.959</title></circle>
	<circle cx="467.42" cy="63.29" data-y="11.351" data-x="2042" r="4" fill="#AB1236"><title>2042: 11.351</title></circle>
	<circle cx="485.48" cy="56.29" data-y="11.735" data-x="2043" r="4" fill="#AB1236"><title>2043: 11.735</title></circle>
	<circle cx="503.55" cy="49.43" data-y="12.112" data-x="2044" r="4" fill="#AB1236"><title>2044: 12.112</title></circle>
	<circle cx="521.61" cy="42.87" data-y="12.472" data-x="2045" r="4" fill="#AB1236"><title>2045: 12.472</title></circle>
	<circle cx="539.68" cy="36.62" data-y="12.815" data-x="2046" r="4" fill="#AB1236"><title>2046: 12.815</title></circle>
	<circle cx="557.74" cy="30.54" data-y="13.149" data-x="2047" r="4" fill="#AB1236"><title>2047: 13.149</title></circle>
	<circle cx="575.81" cy="24.66" data-y="13.472" data-x="2048" r="4" fill="#AB1236"><title>2048: 13.472</title></circle>
	<circle cx="593.87" cy="19.23" data-y="13.770" data-x="2049" r="4" fill="#AB1236"><title>2049: 13.770</title></circle>
	<circle cx="611.94" cy="19.69" data-y="13.745" data-x="2050" r="4" fill="#AB1236"><title>2050: 13.745</title></circle>
</g>
<g data-scenario="net-zero-customer-flexibility" class="data-series">	<path d="M 70.00,149.26L 88.06,149.62L 106.13,149.57L 124.19,149.13L 142.26,148.19L 160.32,146.77L 178.39,145.27L 196.45,143.60L 214.52,141.67L 232.58,139.13L 250.65,130.70L 268.71,122.53L 286.77,114.99L 304.84,107.21L 322.90,99.40L 340.97,90.91L 359.03,82.79L 377.10,75.60L 395.16,68.71L 413.23,62.25L 431.29,56.20L 449.35,50.52L 467.42,44.98L 485.48,39.56L 503.55,34.49L 521.61,34.04L 539.68,33.93L 557.74,33.58L 575.81,33.57L 593.87,33.69L 611.94,33.84" id="Early net zero with customer flexibility" class="line dotted" stroke="#00AB84" stroke-width="3" stroke-linecap="round"><title>Early net zero with customer flexibility</title></path>
	<circle cx="70.00" cy="149.26" data-y="6.630" data-x="2020" r="4" fill="#00AB84"><title>2020: 6.630</title></circle>
	<circle cx="88.06" cy="149.62" data-y="6.610" data-x="2021" r="4" fill="#00AB84"><title>2021: 6.610</title></circle>
	<circle cx="106.13" cy="149.57" data-y="6.613" data-x="2022" r="4" fill="#00AB84"><title>2022: 6.613</title></circle>
	<circle cx="124.19" cy="149.13" data-y="6.637" data-x="2023" r="4" fill="#00AB84"><title>2023: 6.637</title></circle>
	<circle cx="142.26" cy="148.19" data-y="6.689" data-x="2024" r="4" fill="#00AB84"><title>2024: 6.689</title></circle>
	<circle cx="160.32" cy="146.77" data-y="6.767" data-x="2025" r="4" fill="#00AB84"><title>2025: 6.767</title></circle>
	<circle cx="178.39" cy="145.27" data-y="6.849" data-x="2026" r="4" fill="#00AB84"><title>2026: 6.849</title></circle>
	<circle cx="196.45" cy="143.60" data-y="6.941" data-x="2027" r="4" fill="#00AB84"><title>2027: 6.941</title></circle>
	<circle cx="214.52" cy="141.67" data-y="7.047" data-x="2028" r="4" fill="#00AB84"><title>2028: 7.047</title></circle>
	<circle cx="232.58" cy="139.13" data-y="7.186" data-x="2029" r="4" fill="#00AB84"><title>2029: 7.186</title></circle>
	<circle cx="250.65" cy="130.70" data-y="7.649" data-x="2030" r="4" fill="#00AB84"><title>2030: 7.649</title></circle>
	<circle cx="268.71" cy="122.53" data-y="8.098" data-x="2031" r="4" fill="#00AB84"><title>2031: 8.098</title></circle>
	<circle cx="286.77" cy="114.99" data-y="8.512" data-x="2032" r="4" fill="#00AB84"><title>2032: 8.512</title></circle>
	<circle cx="304.84" cy="107.21" data-y="8.939" data-x="2033" r="4" fill="#00AB84"><title>2033: 8.939</title></circle>
	<circle cx="322.90" cy="99.40" data-y="9.368" data-x="2034" r="4" fill="#00AB84"><title>2034: 9.368</title></circle>
	<circle cx="340.97" cy="90.91" data-y="9.834" data-x="2035" r="4" fill="#00AB84"><title>2035: 9.834</title></circle>
	<circle cx="359.03" cy="82.79" data-y="10.280" data-x="2036" r="4" fill="#00AB84"><title>2036: 10.280</title></circle>
	<circle cx="377.10" cy="75.60" data-y="10.675" data-x="2037" r="4" fill="#00AB84"><title>2037: 10.675</title></circle>
	<circle cx="395.16" cy="68.71" data-y="11.053" data-x="2038" r="4" fill="#00AB84"><title>2038: 11.053</title></circle>
	<circle cx="413.23" cy="62.25" data-y="11.408" data-x="2039" r="4" fill="#00AB84"><title>2039: 11.408</title></circle>
	<circle cx="431.29" cy="56.20" data-y="11.740" data-x="2040" r="4" fill="#00AB84"><title>2040: 11.740</title></circle>
	<circle cx="449.35" cy="50.52" data-y="12.052" data-x="2041" r="4" fill="#00AB84"><title>2041: 12.052</title></circle>
	<circle cx="467.42" cy="44.98" data-y="12.356" data-x="2042" r="4" fill="#00AB84"><title>2042: 12.356</title></circle>
	<circle cx="485.48" cy="39.56" data-y="12.654" data-x="2043" r="4" fill="#00AB84"><title>2043: 12.654</title></circle>
	<circle cx="503.55" cy="34.49" data-y="12.932" data-x="2044" r="4" fill="#00AB84"><title>2044: 12.932</title></circle>
	<circle cx="521.61" cy="34.04" data-y="12.957" data-x="2045" r="4" fill="#00AB84"><title>2045: 12.957</title></circle>
	<circle cx="539.68" cy="33.93" data-y="12.963" data-x="2046" r="4" fill="#00AB84"><title>2046: 12.963</title></circle>
	<circle cx="557.74" cy="33.58" data-y="12.982" data-x="2047" r="4" fill="#00AB84"><title>2047: 12.982</title></circle>
	<circle cx="575.81" cy="33.57" data-y="12.983" data-x="2048" r="4" fill="#00AB84"><title>2048: 12.983</title></circle>
	<circle cx="593.87" cy="33.69" data-y="12.976" data-x="2049" r="4" fill="#00AB84"><title>2049: 12.976</title></circle>
	<circle cx="611.94" cy="33.84" data-y="12.968" data-x="2050" r="4" fill="#00AB84"><title>2050: 12.968</title></circle>
</g>
</svg>
