<svg width="640" height="320" viewBox="0 0 640 320" xmlns="http://www.w3.org/2000/svg" style="overflow:display" preserveAspectRatio="xMinYMin meet" overflow="visible">
<defs><style>.data-series path.line { fill-opacity: 0; }.data-series path.line.dotted { stroke-dasharray: 12 20 }.data-series circle { display: none; }.data-series:hover path.line, .data-series.on path.line { stroke-width: 5; }.data-series:hover circle, .data-series.on circle { display: inline; }.data-series circle:hover, .data-series circle.on { r: 6px!important; fill: black; }.grid { font-family: "Helvetica Neue",Helvetica,Arial,"Lucida Grande",sans-serif; }.grid line { stroke: rgb(0,0,0); stroke-width: 2; stroke-linecap: round; }.grid.grid-x text { text-anchor: middle; dominant-baseline: hanging; transform: translateY(10px); }.grid.grid-y text { text-anchor: end; dominant-baseline: middle; transform: translateX(-10px); }</style>
</defs><g class="grid grid-y"><line x1="80" y1="270" x2="630" y2="270" data-left="80"></line><text x="80" y="270" text-anchor="end">0</text><text x="80" y="215.833333333333" text-anchor="end">20</text><text x="80" y="161.666666666667" text-anchor="end">40</text><text x="80" y="107.5" text-anchor="end">60</text><text x="80" y="53.3333333333333" text-anchor="end">80</text><text style="text-anchor:middle;dominant-baseline:hanging;font-weight:bold;transform: translateY(140px) rotate(-90deg);">EVs (%)</text></g><g class="grid grid-x"><line class="tick" x1="80" y1="270" x2="80" y2="275"></line><text x="80" y="270" text-anchor="middle">2020</text><line class="tick" x1="257.41935483871" y1="270" x2="257.41935483871" y2="275"></line><text x="257.41935483871" y="270" text-anchor="middle">2030</text><line class="tick" x1="434.838709677419" y1="270" x2="434.838709677419" y2="275"></line><text x="434.838709677419" y="270" text-anchor="middle">2040</text><line class="tick" x1="612.258064516129" y1="270" x2="612.258064516129" y2="275"></line><text x="612.258064516129" y="270" text-anchor="middle">2050</text><text style="text-anchor:middle;dominant-baseline:hanging;font-weight:bold;transform: translateY(140px) rotate(-90deg);"></text></g><g data-scenario="high-hydrogen" class="data-series"><path d="M 80.00,267.29L 97.74,267.29L 115.48,264.58L 133.23,259.17L 150.97,253.75L 168.71,245.62L 186.45,237.50L 204.19,226.67L 221.94,215.83L 239.68,202.29L 257.42,188.75L 275.16,175.21L 292.90,164.38L 310.65,150.83L 328.39,140.00L 346.13,123.75L 363.87,110.21L 381.61,99.38L 399.35,85.83L 417.10,77.71L 434.84,66.88L 452.58,61.46L 470.32,53.33L 488.06,47.92L 505.81,42.50L 523.55,39.79L 541.29,37.08L 559.03,34.38L 576.77,31.67L 594.52,31.67L 612.26,31.67" id="High hydrogen" class="line" stroke="#0085CA" stroke-width="3" stroke-linecap="round"><title>High hydrogen</title></path><circle cx="80.00" cy="267.29" data-y="1" data-x="2020" r="4" fill="#0085CA"><title>2020: 1</title></circle><circle cx="97.74" cy="267.29" data-y="1" data-x="2021" r="4" fill="#0085CA"><title>2021: 1</title></circle><circle cx="115.48" cy="264.58" data-y="2" data-x="2022" r="4" fill="#0085CA"><title>2022: 2</title></circle><circle cx="133.23" cy="259.17" data-y="4" data-x="2023" r="4" fill="#0085CA"><title>2023: 4</title></circle><circle cx="150.97" cy="253.75" data-y="6" data-x="2024" r="4" fill="#0085CA"><title>2024: 6</title></circle><circle cx="168.71" cy="245.62" data-y="9" data-x="2025" r="4" fill="#0085CA"><title>2025: 9</title></circle><circle cx="186.45" cy="237.50" data-y="12" data-x="2026" r="4" fill="#0085CA"><title>2026: 12</title></circle><circle cx="204.19" cy="226.67" data-y="16" data-x="2027" r="4" fill="#0085CA"><title>2027: 16</title></circle><circle cx="221.94" cy="215.83" data-y="20" data-x="2028" r="4" fill="#0085CA"><title>2028: 20</title></circle><circle cx="239.68" cy="202.29" data-y="25" data-x="2029" r="4" fill="#0085CA"><title>2029: 25</title></circle><circle cx="257.42" cy="188.75" data-y="30" data-x="2030" r="4" fill="#0085CA"><title>2030: 30</title></circle><circle cx="275.16" cy="175.21" data-y="35" data-x="2031" r="4" fill="#0085CA"><title>2031: 35</title></circle><circle cx="292.90" cy="164.38" data-y="39" data-x="2032" r="4" fill="#0085CA"><title>2032: 39</title></circle><circle cx="310.65" cy="150.83" data-y="44" data-x="2033" r="4" fill="#0085CA"><title>2033: 44</title></circle><circle cx="328.39" cy="140.00" data-y="48" data-x="2034" r="4" fill="#0085CA"><title>2034: 48</title></circle><circle cx="346.13" cy="123.75" data-y="54" data-x="2035" r="4" fill="#0085CA"><title>2035: 54</title></circle><circle cx="363.87" cy="110.21" data-y="59" data-x="2036" r="4" fill="#0085CA"><title>2036: 59</title></circle><circle cx="381.61" cy="99.38" data-y="63" data-x="2037" r="4" fill="#0085CA"><title>2037: 63</title></circle><circle cx="399.35" cy="85.83" data-y="68" data-x="2038" r="4" fill="#0085CA"><title>2038: 68</title></circle><circle cx="417.10" cy="77.71" data-y="71" data-x="2039" r="4" fill="#0085CA"><title>2039: 71</title></circle><circle cx="434.84" cy="66.88" data-y="75" data-x="2040" r="4" fill="#0085CA"><title>2040: 75</title></circle><circle cx="452.58" cy="61.46" data-y="77" data-x="2041" r="4" fill="#0085CA"><title>2041: 77</title></circle><circle cx="470.32" cy="53.33" data-y="80" data-x="2042" r="4" fill="#0085CA"><title>2042: 80</title></circle><circle cx="488.06" cy="47.92" data-y="82" data-x="2043" r="4" fill="#0085CA"><title>2043: 82</title></circle><circle cx="505.81" cy="42.50" data-y="84" data-x="2044" r="4" fill="#0085CA"><title>2044: 84</title></circle><circle cx="523.55" cy="39.79" data-y="85" data-x="2045" r="4" fill="#0085CA"><title>2045: 85</title></circle><circle cx="541.29" cy="37.08" data-y="86" data-x="2046" r="4" fill="#0085CA"><title>2046: 86</title></circle><circle cx="559.03" cy="34.38" data-y="87" data-x="2047" r="4" fill="#0085CA"><title>2047: 87</title></circle><circle cx="576.77" cy="31.67" data-y="88" data-x="2048" r="4" fill="#0085CA"><title>2048: 88</title></circle><circle cx="594.52" cy="31.67" data-y="88" data-x="2049" r="4" fill="#0085CA"><title>2049: 88</title></circle><circle cx="612.26" cy="31.67" data-y="88" data-x="2050" r="4" fill="#0085CA"><title>2050: 88</title></circle></g>
<g data-scenario="deep-electrification" class="data-series"><path d="M 80.00,267.29L 97.74,267.29L 115.48,264.58L 133.23,259.17L 150.97,253.75L 168.71,245.62L 186.45,237.50L 204.19,226.67L 221.94,215.83L 239.68,202.29L 257.42,188.75L 275.16,175.21L 292.90,164.38L 310.65,150.83L 328.39,140.00L 346.13,123.75L 363.87,110.21L 381.61,99.38L 399.35,85.83L 417.10,77.71L 434.84,66.88L 452.58,61.46L 470.32,53.33L 488.06,47.92L 505.81,42.50L 523.55,39.79L 541.29,37.08L 559.03,34.38L 576.77,31.67L 594.52,31.67L 612.26,31.67" id="Deep electrification" class="line" stroke="#AB1236" stroke-width="3" stroke-linecap="round"><title>Deep electrification</title></path><circle cx="80.00" cy="267.29" data-y="1" data-x="2020" r="4" fill="#AB1236"><title>2020: 1</title></circle><circle cx="97.74" cy="267.29" data-y="1" data-x="2021" r="4" fill="#AB1236"><title>2021: 1</title></circle><circle cx="115.48" cy="264.58" data-y="2" data-x="2022" r="4" fill="#AB1236"><title>2022: 2</title></circle><circle cx="133.23" cy="259.17" data-y="4" data-x="2023" r="4" fill="#AB1236"><title>2023: 4</title></circle><circle cx="150.97" cy="253.75" data-y="6" data-x="2024" r="4" fill="#AB1236"><title>2024: 6</title></circle><circle cx="168.71" cy="245.62" data-y="9" data-x="2025" r="4" fill="#AB1236"><title>2025: 9</title></circle><circle cx="186.45" cy="237.50" data-y="12" data-x="2026" r="4" fill="#AB1236"><title>2026: 12</title></circle><circle cx="204.19" cy="226.67" data-y="16" data-x="2027" r="4" fill="#AB1236"><title>2027: 16</title></circle><circle cx="221.94" cy="215.83" data-y="20" data-x="2028" r="4" fill="#AB1236"><title>2028: 20</title></circle><circle cx="239.68" cy="202.29" data-y="25" data-x="2029" r="4" fill="#AB1236"><title>2029: 25</title></circle><circle cx="257.42" cy="188.75" data-y="30" data-x="2030" r="4" fill="#AB1236"><title>2030: 30</title></circle><circle cx="275.16" cy="175.21" data-y="35" data-x="2031" r="4" fill="#AB1236"><title>2031: 35</title></circle><circle cx="292.90" cy="164.38" data-y="39" data-x="2032" r="4" fill="#AB1236"><title>2032: 39</title></circle><circle cx="310.65" cy="150.83" data-y="44" data-x="2033" r="4" fill="#AB1236"><title>2033: 44</title></circle><circle cx="328.39" cy="140.00" data-y="48" data-x="2034" r="4" fill="#AB1236"><title>2034: 48</title></circle><circle cx="346.13" cy="123.75" data-y="54" data-x="2035" r="4" fill="#AB1236"><title>2035: 54</title></circle><circle cx="363.87" cy="110.21" data-y="59" data-x="2036" r="4" fill="#AB1236"><title>2036: 59</title></circle><circle cx="381.61" cy="99.38" data-y="63" data-x="2037" r="4" fill="#AB1236"><title>2037: 63</title></circle><circle cx="399.35" cy="85.83" data-y="68" data-x="2038" r="4" fill="#AB1236"><title>2038: 68</title></circle><circle cx="417.10" cy="77.71" data-y="71" data-x="2039" r="4" fill="#AB1236"><title>2039: 71</title></circle><circle cx="434.84" cy="66.88" data-y="75" data-x="2040" r="4" fill="#AB1236"><title>2040: 75</title></circle><circle cx="452.58" cy="61.46" data-y="77" data-x="2041" r="4" fill="#AB1236"><title>2041: 77</title></circle><circle cx="470.32" cy="53.33" data-y="80" data-x="2042" r="4" fill="#AB1236"><title>2042: 80</title></circle><circle cx="488.06" cy="47.92" data-y="82" data-x="2043" r="4" fill="#AB1236"><title>2043: 82</title></circle><circle cx="505.81" cy="42.50" data-y="84" data-x="2044" r="4" fill="#AB1236"><title>2044: 84</title></circle><circle cx="523.55" cy="39.79" data-y="85" data-x="2045" r="4" fill="#AB1236"><title>2045: 85</title></circle><circle cx="541.29" cy="37.08" data-y="86" data-x="2046" r="4" fill="#AB1236"><title>2046: 86</title></circle><circle cx="559.03" cy="34.38" data-y="87" data-x="2047" r="4" fill="#AB1236"><title>2047: 87</title></circle><circle cx="576.77" cy="31.67" data-y="88" data-x="2048" r="4" fill="#AB1236"><title>2048: 88</title></circle><circle cx="594.52" cy="31.67" data-y="88" data-x="2049" r="4" fill="#AB1236"><title>2049: 88</title></circle><circle cx="612.26" cy="31.67" data-y="88" data-x="2050" r="4" fill="#AB1236"><title>2050: 88</title></circle></g>
<g data-scenario="net-zero" class="data-series"><path d="M 80.00,267.29L 97.74,267.29L 115.48,261.88L 133.23,256.46L 150.97,248.33L 168.71,237.50L 186.45,226.67L 204.19,215.83L 221.94,199.58L 239.68,186.04L 257.42,164.38L 275.16,145.42L 292.90,129.17L 310.65,112.92L 328.39,96.67L 346.13,83.12L 363.87,69.58L 381.61,58.75L 399.35,47.92L 417.10,39.79L 434.84,31.67L 452.58,26.25L 470.32,23.54L 488.06,18.12L 505.81,15.42L 523.55,15.42L 541.29,12.71L 559.03,12.71L 576.77,12.71L 594.52,10.00L 612.26,10.00" id="Early net zero" class="line" stroke="#00AB84" stroke-width="3" stroke-linecap="round"><title>Early net zero</title></path><circle cx="80.00" cy="267.29" data-y="1" data-x="2020" r="4" fill="#00AB84"><title>2020: 1</title></circle><circle cx="97.74" cy="267.29" data-y="1" data-x="2021" r="4" fill="#00AB84"><title>2021: 1</title></circle><circle cx="115.48" cy="261.88" data-y="3" data-x="2022" r="4" fill="#00AB84"><title>2022: 3</title></circle><circle cx="133.23" cy="256.46" data-y="5" data-x="2023" r="4" fill="#00AB84"><title>2023: 5</title></circle><circle cx="150.97" cy="248.33" data-y="8" data-x="2024" r="4" fill="#00AB84"><title>2024: 8</title></circle><circle cx="168.71" cy="237.50" data-y="12" data-x="2025" r="4" fill="#00AB84"><title>2025: 12</title></circle><circle cx="186.45" cy="226.67" data-y="16" data-x="2026" r="4" fill="#00AB84"><title>2026: 16</title></circle><circle cx="204.19" cy="215.83" data-y="20" data-x="2027" r="4" fill="#00AB84"><title>2027: 20</title></circle><circle cx="221.94" cy="199.58" data-y="26" data-x="2028" r="4" fill="#00AB84"><title>2028: 26</title></circle><circle cx="239.68" cy="186.04" data-y="31" data-x="2029" r="4" fill="#00AB84"><title>2029: 31</title></circle><circle cx="257.42" cy="164.38" data-y="39" data-x="2030" r="4" fill="#00AB84"><title>2030: 39</title></circle><circle cx="275.16" cy="145.42" data-y="46" data-x="2031" r="4" fill="#00AB84"><title>2031: 46</title></circle><circle cx="292.90" cy="129.17" data-y="52" data-x="2032" r="4" fill="#00AB84"><title>2032: 52</title></circle><circle cx="310.65" cy="112.92" data-y="58" data-x="2033" r="4" fill="#00AB84"><title>2033: 58</title></circle><circle cx="328.39" cy="96.67" data-y="64" data-x="2034" r="4" fill="#00AB84"><title>2034: 64</title></circle><circle cx="346.13" cy="83.12" data-y="69" data-x="2035" r="4" fill="#00AB84"><title>2035: 69</title></circle><circle cx="363.87" cy="69.58" data-y="74" data-x="2036" r="4" fill="#00AB84"><title>2036: 74</title></circle><circle cx="381.61" cy="58.75" data-y="78" data-x="2037" r="4" fill="#00AB84"><title>2037: 78</title></circle><circle cx="399.35" cy="47.92" data-y="82" data-x="2038" r="4" fill="#00AB84"><title>2038: 82</title></circle><circle cx="417.10" cy="39.79" data-y="85" data-x="2039" r="4" fill="#00AB84"><title>2039: 85</title></circle><circle cx="434.84" cy="31.67" data-y="88" data-x="2040" r="4" fill="#00AB84"><title>2040: 88</title></circle><circle cx="452.58" cy="26.25" data-y="90" data-x="2041" r="4" fill="#00AB84"><title>2041: 90</title></circle><circle cx="470.32" cy="23.54" data-y="91" data-x="2042" r="4" fill="#00AB84"><title>2042: 91</title></circle><circle cx="488.06" cy="18.12" data-y="93" data-x="2043" r="4" fill="#00AB84"><title>2043: 93</title></circle><circle cx="505.81" cy="15.42" data-y="94" data-x="2044" r="4" fill="#00AB84"><title>2044: 94</title></circle><circle cx="523.55" cy="15.42" data-y="94" data-x="2045" r="4" fill="#00AB84"><title>2045: 94</title></circle><circle cx="541.29" cy="12.71" data-y="95" data-x="2046" r="4" fill="#00AB84"><title>2046: 95</title></circle><circle cx="559.03" cy="12.71" data-y="95" data-x="2047" r="4" fill="#00AB84"><title>2047: 95</title></circle><circle cx="576.77" cy="12.71" data-y="95" data-x="2048" r="4" fill="#00AB84"><title>2048: 95</title></circle><circle cx="594.52" cy="10.00" data-y="96" data-x="2049" r="4" fill="#00AB84"><title>2049: 96</title></circle><circle cx="612.26" cy="10.00" data-y="96" data-x="2050" r="4" fill="#00AB84"><title>2050: 96</title></circle></g>
</svg>
