<svg width="640" height="320" viewBox="0 0 640 320" xmlns="http://www.w3.org/2000/svg" style="overflow:display" preserveAspectRatio="xMinYMin meet" overflow="visible">
<defs>
	<style>
	.data-series path.line { fill-opacity: 0; }
	.data-series path.line.dotted { stroke-dasharray: 12 20 }
	.data-series circle { display: none; }
	.data-series:hover path.line, .data-series.on path.line { stroke-width: 5; }
	.data-series:hover circle, .data-series.on circle { display: inline; }
	.data-series circle:hover, .data-series circle.on { r: 6px!important; fill: black; }
	.grid { font-family: "Helvetica Neue",Helvetica,Arial,"Lucida Grande",sans-serif; }
	.grid line { stroke: rgb(0,0,0); stroke-width: 2; stroke-linecap: round; }
	.grid.grid-x text { text-anchor: middle; dominant-baseline: hanging; transform: translateY(10px); }
	.grid.grid-y text { text-anchor: end; dominant-baseline: middle; transform: translateX(-10px); }
	</style>
</defs>
<g class="grid grid-y">
	<line x1="80" y1="270" x2="630" y2="270" data-left="80"></line>
	<text x="80" y="270" text-anchor="end">0</text>
	<text x="80" y="215.001480729365" text-anchor="end">5</text>
	<text x="80" y="160.00296145873" text-anchor="end">10</text>
	<text x="80" y="105.004442188095" text-anchor="end">15</text>
	<text x="80" y="50.0059229174599" text-anchor="end">20</text>
	<text style="text-anchor:middle;dominant-baseline:hanging;font-weight:bold;transform: translateY(140px) rotate(-90deg);">Network energy consumption (TWh)</text>
</g>
<g class="grid grid-x">
	<line class="tick" x1="80" y1="270" x2="80" y2="275"></line>
	<text x="80" y="270" text-anchor="middle">2020</text>
	<line class="tick" x1="257.41935483871" y1="270" x2="257.41935483871" y2="275"></line>
	<text x="257.41935483871" y="270" text-anchor="middle">2030</text>
	<line class="tick" x1="434.838709677419" y1="270" x2="434.838709677419" y2="275"></line>
	<text x="434.838709677419" y="270" text-anchor="middle">2040</text>
	<line class="tick" x1="612.258064516129" y1="270" x2="612.258064516129" y2="275"></line>
	<text x="612.258064516129" y="270" text-anchor="middle">2050</text>
	<text style="text-anchor:middle;dominant-baseline:hanging;font-weight:bold;transform: translateY(140px) rotate(-90deg);"></text>
</g>
<g data-scenario="domestic" class="data-series">	<path d="M 80.00,122.49L 97.74,122.03L 115.48,121.62L 133.23,121.08L 150.97,120.46L 168.71,119.73L 186.45,118.89L 204.19,118.02L 221.94,117.12L 239.68,116.21L 257.42,115.29L 275.16,114.56L 292.90,113.87L 310.65,113.19L 328.39,112.55L 346.13,111.93L 363.87,111.30L 381.61,110.66L 399.35,110.04L 417.10,109.48L 434.84,108.89L 452.58,108.28L 470.32,107.69L 488.06,107.08L 505.81,106.48L 523.55,105.88L 541.29,105.28L 559.03,104.66L 576.77,104.06L 594.52,103.44L 612.26,102.83" id="Domestic" class="line" stroke="#F1060E" stroke-width="3" stroke-linecap="round"><title>Domestic</title></path>
	<circle cx="80.00" cy="122.49" data-y="13.410" data-x="2020" r="4" fill="#F1060E"><title>2020: 13.410</title></circle>
	<circle cx="97.74" cy="122.03" data-y="13.452" data-x="2021" r="4" fill="#F1060E"><title>2021: 13.452</title></circle>
	<circle cx="115.48" cy="121.62" data-y="13.489" data-x="2022" r="4" fill="#F1060E"><title>2022: 13.489</title></circle>
	<circle cx="133.23" cy="121.08" data-y="13.539" data-x="2023" r="4" fill="#F1060E"><title>2023: 13.539</title></circle>
	<circle cx="150.97" cy="120.46" data-y="13.595" data-x="2024" r="4" fill="#F1060E"><title>2024: 13.595</title></circle>
	<circle cx="168.71" cy="119.73" data-y="13.661" data-x="2025" r="4" fill="#F1060E"><title>2025: 13.661</title></circle>
	<circle cx="186.45" cy="118.89" data-y="13.738" data-x="2026" r="4" fill="#F1060E"><title>2026: 13.738</title></circle>
	<circle cx="204.19" cy="118.02" data-y="13.817" data-x="2027" r="4" fill="#F1060E"><title>2027: 13.817</title></circle>
	<circle cx="221.94" cy="117.12" data-y="13.899" data-x="2028" r="4" fill="#F1060E"><title>2028: 13.899</title></circle>
	<circle cx="239.68" cy="116.21" data-y="13.981" data-x="2029" r="4" fill="#F1060E"><title>2029: 13.981</title></circle>
	<circle cx="257.42" cy="115.29" data-y="14.065" data-x="2030" r="4" fill="#F1060E"><title>2030: 14.065</title></circle>
	<circle cx="275.16" cy="114.56" data-y="14.131" data-x="2031" r="4" fill="#F1060E"><title>2031: 14.131</title></circle>
	<circle cx="292.90" cy="113.87" data-y="14.194" data-x="2032" r="4" fill="#F1060E"><title>2032: 14.194</title></circle>
	<circle cx="310.65" cy="113.19" data-y="14.256" data-x="2033" r="4" fill="#F1060E"><title>2033: 14.256</title></circle>
	<circle cx="328.39" cy="112.55" data-y="14.314" data-x="2034" r="4" fill="#F1060E"><title>2034: 14.314</title></circle>
	<circle cx="346.13" cy="111.93" data-y="14.370" data-x="2035" r="4" fill="#F1060E"><title>2035: 14.370</title></circle>
	<circle cx="363.87" cy="111.30" data-y="14.428" data-x="2036" r="4" fill="#F1060E"><title>2036: 14.428</title></circle>
	<circle cx="381.61" cy="110.66" data-y="14.486" data-x="2037" r="4" fill="#F1060E"><title>2037: 14.486</title></circle>
	<circle cx="399.35" cy="110.04" data-y="14.542" data-x="2038" r="4" fill="#F1060E"><title>2038: 14.542</title></circle>
	<circle cx="417.10" cy="109.48" data-y="14.593" data-x="2039" r="4" fill="#F1060E"><title>2039: 14.593</title></circle>
	<circle cx="434.84" cy="108.89" data-y="14.647" data-x="2040" r="4" fill="#F1060E"><title>2040: 14.647</title></circle>
	<circle cx="452.58" cy="108.28" data-y="14.702" data-x="2041" r="4" fill="#F1060E"><title>2041: 14.702</title></circle>
	<circle cx="470.32" cy="107.69" data-y="14.756" data-x="2042" r="4" fill="#F1060E"><title>2042: 14.756</title></circle>
	<circle cx="488.06" cy="107.08" data-y="14.811" data-x="2043" r="4" fill="#F1060E"><title>2043: 14.811</title></circle>
	<circle cx="505.81" cy="106.48" data-y="14.866" data-x="2044" r="4" fill="#F1060E"><title>2044: 14.866</title></circle>
	<circle cx="523.55" cy="105.88" data-y="14.920" data-x="2045" r="4" fill="#F1060E"><title>2045: 14.920</title></circle>
	<circle cx="541.29" cy="105.28" data-y="14.975" data-x="2046" r="4" fill="#F1060E"><title>2046: 14.975</title></circle>
	<circle cx="559.03" cy="104.66" data-y="15.031" data-x="2047" r="4" fill="#F1060E"><title>2047: 15.031</title></circle>
	<circle cx="576.77" cy="104.06" data-y="15.086" data-x="2048" r="4" fill="#F1060E"><title>2048: 15.086</title></circle>
	<circle cx="594.52" cy="103.44" data-y="15.142" data-x="2049" r="4" fill="#F1060E"><title>2049: 15.142</title></circle>
	<circle cx="612.26" cy="102.83" data-y="15.198" data-x="2050" r="4" fill="#F1060E"><title>2050: 15.198</title></circle>
</g>
<g data-scenario="i-and-c" class="data-series">	<path d="M 80.00,10.00L 97.74,11.94L 115.48,13.68L 133.23,15.25L 150.97,16.64L 168.71,17.88L 186.45,18.95L 204.19,19.87L 221.94,20.63L 239.68,21.25L 257.42,21.74L 275.16,22.08L 292.90,22.30L 310.65,22.37L 328.39,22.34L 346.13,22.19L 363.87,21.93L 381.61,21.56L 399.35,21.10L 417.10,20.53L 434.84,19.92L 452.58,19.29L 470.32,18.66L 488.06,18.00L 505.81,17.34L 523.55,16.65L 541.29,15.96L 559.03,15.26L 576.77,14.53L 594.52,13.79L 612.26,13.05" id="I &amp; C" class="line" stroke="#cc0935" stroke-width="3" stroke-linecap="round"><title>I &amp; C</title></path>
	<circle cx="80.00" cy="10.00" data-y="23.637" data-x="2020" r="4" fill="#cc0935"><title>2020: 23.637</title></circle>
	<circle cx="97.74" cy="11.94" data-y="23.461" data-x="2021" r="4" fill="#cc0935"><title>2021: 23.461</title></circle>
	<circle cx="115.48" cy="13.68" data-y="23.302" data-x="2022" r="4" fill="#cc0935"><title>2022: 23.302</title></circle>
	<circle cx="133.23" cy="15.25" data-y="23.160" data-x="2023" r="4" fill="#cc0935"><title>2023: 23.160</title></circle>
	<circle cx="150.97" cy="16.64" data-y="23.033" data-x="2024" r="4" fill="#cc0935"><title>2024: 23.033</title></circle>
	<circle cx="168.71" cy="17.88" data-y="22.921" data-x="2025" r="4" fill="#cc0935"><title>2025: 22.921</title></circle>
	<circle cx="186.45" cy="18.95" data-y="22.823" data-x="2026" r="4" fill="#cc0935"><title>2026: 22.823</title></circle>
	<circle cx="204.19" cy="19.87" data-y="22.740" data-x="2027" r="4" fill="#cc0935"><title>2027: 22.740</title></circle>
	<circle cx="221.94" cy="20.63" data-y="22.671" data-x="2028" r="4" fill="#cc0935"><title>2028: 22.671</title></circle>
	<circle cx="239.68" cy="21.25" data-y="22.614" data-x="2029" r="4" fill="#cc0935"><title>2029: 22.614</title></circle>
	<circle cx="257.42" cy="21.74" data-y="22.570" data-x="2030" r="4" fill="#cc0935"><title>2030: 22.570</title></circle>
	<circle cx="275.16" cy="22.08" data-y="22.539" data-x="2031" r="4" fill="#cc0935"><title>2031: 22.539</title></circle>
	<circle cx="292.90" cy="22.30" data-y="22.519" data-x="2032" r="4" fill="#cc0935"><title>2032: 22.519</title></circle>
	<circle cx="310.65" cy="22.37" data-y="22.512" data-x="2033" r="4" fill="#cc0935"><title>2033: 22.512</title></circle>
	<circle cx="328.39" cy="22.34" data-y="22.515" data-x="2034" r="4" fill="#cc0935"><title>2034: 22.515</title></circle>
	<circle cx="346.13" cy="22.19" data-y="22.529" data-x="2035" r="4" fill="#cc0935"><title>2035: 22.529</title></circle>
	<circle cx="363.87" cy="21.93" data-y="22.552" data-x="2036" r="4" fill="#cc0935"><title>2036: 22.552</title></circle>
	<circle cx="381.61" cy="21.56" data-y="22.586" data-x="2037" r="4" fill="#cc0935"><title>2037: 22.586</title></circle>
	<circle cx="399.35" cy="21.10" data-y="22.628" data-x="2038" r="4" fill="#cc0935"><title>2038: 22.628</title></circle>
	<circle cx="417.10" cy="20.53" data-y="22.680" data-x="2039" r="4" fill="#cc0935"><title>2039: 22.680</title></circle>
	<circle cx="434.84" cy="19.92" data-y="22.735" data-x="2040" r="4" fill="#cc0935"><title>2040: 22.735</title></circle>
	<circle cx="452.58" cy="19.29" data-y="22.792" data-x="2041" r="4" fill="#cc0935"><title>2041: 22.792</title></circle>
	<circle cx="470.32" cy="18.66" data-y="22.850" data-x="2042" r="4" fill="#cc0935"><title>2042: 22.850</title></circle>
	<circle cx="488.06" cy="18.00" data-y="22.910" data-x="2043" r="4" fill="#cc0935"><title>2043: 22.910</title></circle>
	<circle cx="505.81" cy="17.34" data-y="22.970" data-x="2044" r="4" fill="#cc0935"><title>2044: 22.970</title></circle>
	<circle cx="523.55" cy="16.65" data-y="23.032" data-x="2045" r="4" fill="#cc0935"><title>2045: 23.032</title></circle>
	<circle cx="541.29" cy="15.96" data-y="23.095" data-x="2046" r="4" fill="#cc0935"><title>2046: 23.095</title></circle>
	<circle cx="559.03" cy="15.26" data-y="23.159" data-x="2047" r="4" fill="#cc0935"><title>2047: 23.159</title></circle>
	<circle cx="576.77" cy="14.53" data-y="23.225" data-x="2048" r="4" fill="#cc0935"><title>2048: 23.225</title></circle>
	<circle cx="594.52" cy="13.79" data-y="23.292" data-x="2049" r="4" fill="#cc0935"><title>2049: 23.292</title></circle>
	<circle cx="612.26" cy="13.05" data-y="23.360" data-x="2050" r="4" fill="#cc0935"><title>2050: 23.360</title></circle>
</g>
<g data-scenario="heat-pumps---domestic" class="data-series">	<path d="M 80.00,269.05L 97.74,269.00L 115.48,268.77L 133.23,268.38L 150.97,268.21L 168.71,267.57L 186.45,266.77L 204.19,265.89L 221.94,264.92L 239.68,263.84L 257.42,262.55L 275.16,261.28L 292.90,260.09L 310.65,258.95L 328.39,257.81L 346.13,256.75L 363.87,255.61L 381.61,254.66L 399.35,253.81L 417.10,253.17L 434.84,252.54L 452.58,251.91L 470.32,251.27L 488.06,250.62L 505.81,249.96L 523.55,249.40L 541.29,248.81L 559.03,248.24L 576.77,247.66L 594.52,247.08L 612.26,246.49" id="Heat pumps - domestic" class="line" stroke="#2D137F" stroke-width="3" stroke-linecap="round"><title>Heat pumps - domestic</title></path>
	<circle cx="80.00" cy="269.05" data-y="0.086" data-x="2020" r="4" fill="#2D137F"><title>2020: 0.086</title></circle>
	<circle cx="97.74" cy="269.00" data-y="0.091" data-x="2021" r="4" fill="#2D137F"><title>2021: 0.091</title></circle>
	<circle cx="115.48" cy="268.77" data-y="0.112" data-x="2022" r="4" fill="#2D137F"><title>2022: 0.112</title></circle>
	<circle cx="133.23" cy="268.38" data-y="0.147" data-x="2023" r="4" fill="#2D137F"><title>2023: 0.147</title></circle>
	<circle cx="150.97" cy="268.21" data-y="0.163" data-x="2024" r="4" fill="#2D137F"><title>2024: 0.163</title></circle>
	<circle cx="168.71" cy="267.57" data-y="0.221" data-x="2025" r="4" fill="#2D137F"><title>2025: 0.221</title></circle>
	<circle cx="186.45" cy="266.77" data-y="0.294" data-x="2026" r="4" fill="#2D137F"><title>2026: 0.294</title></circle>
	<circle cx="204.19" cy="265.89" data-y="0.374" data-x="2027" r="4" fill="#2D137F"><title>2027: 0.374</title></circle>
	<circle cx="221.94" cy="264.92" data-y="0.462" data-x="2028" r="4" fill="#2D137F"><title>2028: 0.462</title></circle>
	<circle cx="239.68" cy="263.84" data-y="0.560" data-x="2029" r="4" fill="#2D137F"><title>2029: 0.560</title></circle>
	<circle cx="257.42" cy="262.55" data-y="0.677" data-x="2030" r="4" fill="#2D137F"><title>2030: 0.677</title></circle>
	<circle cx="275.16" cy="261.28" data-y="0.793" data-x="2031" r="4" fill="#2D137F"><title>2031: 0.793</title></circle>
	<circle cx="292.90" cy="260.09" data-y="0.901" data-x="2032" r="4" fill="#2D137F"><title>2032: 0.901</title></circle>
	<circle cx="310.65" cy="258.95" data-y="1.005" data-x="2033" r="4" fill="#2D137F"><title>2033: 1.005</title></circle>
	<circle cx="328.39" cy="257.81" data-y="1.108" data-x="2034" r="4" fill="#2D137F"><title>2034: 1.108</title></circle>
	<circle cx="346.13" cy="256.75" data-y="1.205" data-x="2035" r="4" fill="#2D137F"><title>2035: 1.205</title></circle>
	<circle cx="363.87" cy="255.61" data-y="1.308" data-x="2036" r="4" fill="#2D137F"><title>2036: 1.308</title></circle>
	<circle cx="381.61" cy="254.66" data-y="1.395" data-x="2037" r="4" fill="#2D137F"><title>2037: 1.395</title></circle>
	<circle cx="399.35" cy="253.81" data-y="1.472" data-x="2038" r="4" fill="#2D137F"><title>2038: 1.472</title></circle>
	<circle cx="417.10" cy="253.17" data-y="1.530" data-x="2039" r="4" fill="#2D137F"><title>2039: 1.530</title></circle>
	<circle cx="434.84" cy="252.54" data-y="1.587" data-x="2040" r="4" fill="#2D137F"><title>2040: 1.587</title></circle>
	<circle cx="452.58" cy="251.91" data-y="1.645" data-x="2041" r="4" fill="#2D137F"><title>2041: 1.645</title></circle>
	<circle cx="470.32" cy="251.27" data-y="1.703" data-x="2042" r="4" fill="#2D137F"><title>2042: 1.703</title></circle>
	<circle cx="488.06" cy="250.62" data-y="1.762" data-x="2043" r="4" fill="#2D137F"><title>2043: 1.762</title></circle>
	<circle cx="505.81" cy="249.96" data-y="1.822" data-x="2044" r="4" fill="#2D137F"><title>2044: 1.822</title></circle>
	<circle cx="523.55" cy="249.40" data-y="1.873" data-x="2045" r="4" fill="#2D137F"><title>2045: 1.873</title></circle>
	<circle cx="541.29" cy="248.81" data-y="1.926" data-x="2046" r="4" fill="#2D137F"><title>2046: 1.926</title></circle>
	<circle cx="559.03" cy="248.24" data-y="1.978" data-x="2047" r="4" fill="#2D137F"><title>2047: 1.978</title></circle>
	<circle cx="576.77" cy="247.66" data-y="2.031" data-x="2048" r="4" fill="#2D137F"><title>2048: 2.031</title></circle>
	<circle cx="594.52" cy="247.08" data-y="2.084" data-x="2049" r="4" fill="#2D137F"><title>2049: 2.084</title></circle>
	<circle cx="612.26" cy="246.49" data-y="2.137" data-x="2050" r="4" fill="#2D137F"><title>2050: 2.137</title></circle>
</g>
<g data-scenario="heat-pumps---i-and-c" class="data-series">	<path d="M 80.00,268.35L 97.74,268.21L 115.48,268.00L 133.23,267.77L 150.97,267.55L 168.71,267.40L 186.45,267.25L 204.19,267.03L 221.94,266.80L 239.68,266.57L 257.42,266.25L 275.16,265.96L 292.90,265.71L 310.65,265.59L 328.39,265.31L 346.13,264.98L 363.87,264.79L 381.61,264.67L 399.35,264.54L 417.10,264.42L 434.84,264.31L 452.58,264.19L 470.32,264.07L 488.06,263.95L 505.81,263.83L 523.55,263.80L 541.29,263.76L 559.03,263.73L 576.77,263.70L 594.52,263.65L 612.26,263.61" id="Heat pumps - I &amp; C" class="line" stroke="#cc0935" stroke-width="3" stroke-linecap="round"><title>Heat pumps - I &amp; C</title></path>
	<circle cx="80.00" cy="268.35" data-y="0.150" data-x="2020" r="4" fill="#cc0935"><title>2020: 0.150</title></circle>
	<circle cx="97.74" cy="268.21" data-y="0.163" data-x="2021" r="4" fill="#cc0935"><title>2021: 0.163</title></circle>
	<circle cx="115.48" cy="268.00" data-y="0.182" data-x="2022" r="4" fill="#cc0935"><title>2022: 0.182</title></circle>
	<circle cx="133.23" cy="267.77" data-y="0.203" data-x="2023" r="4" fill="#cc0935"><title>2023: 0.203</title></circle>
	<circle cx="150.97" cy="267.55" data-y="0.223" data-x="2024" r="4" fill="#cc0935"><title>2024: 0.223</title></circle>
	<circle cx="168.71" cy="267.40" data-y="0.236" data-x="2025" r="4" fill="#cc0935"><title>2025: 0.236</title></circle>
	<circle cx="186.45" cy="267.25" data-y="0.250" data-x="2026" r="4" fill="#cc0935"><title>2026: 0.250</title></circle>
	<circle cx="204.19" cy="267.03" data-y="0.270" data-x="2027" r="4" fill="#cc0935"><title>2027: 0.270</title></circle>
	<circle cx="221.94" cy="266.80" data-y="0.291" data-x="2028" r="4" fill="#cc0935"><title>2028: 0.291</title></circle>
	<circle cx="239.68" cy="266.57" data-y="0.312" data-x="2029" r="4" fill="#cc0935"><title>2029: 0.312</title></circle>
	<circle cx="257.42" cy="266.25" data-y="0.341" data-x="2030" r="4" fill="#cc0935"><title>2030: 0.341</title></circle>
	<circle cx="275.16" cy="265.96" data-y="0.367" data-x="2031" r="4" fill="#cc0935"><title>2031: 0.367</title></circle>
	<circle cx="292.90" cy="265.71" data-y="0.390" data-x="2032" r="4" fill="#cc0935"><title>2032: 0.390</title></circle>
	<circle cx="310.65" cy="265.59" data-y="0.401" data-x="2033" r="4" fill="#cc0935"><title>2033: 0.401</title></circle>
	<circle cx="328.39" cy="265.31" data-y="0.426" data-x="2034" r="4" fill="#cc0935"><title>2034: 0.426</title></circle>
	<circle cx="346.13" cy="264.98" data-y="0.456" data-x="2035" r="4" fill="#cc0935"><title>2035: 0.456</title></circle>
	<circle cx="363.87" cy="264.79" data-y="0.474" data-x="2036" r="4" fill="#cc0935"><title>2036: 0.474</title></circle>
	<circle cx="381.61" cy="264.67" data-y="0.485" data-x="2037" r="4" fill="#cc0935"><title>2037: 0.485</title></circle>
	<circle cx="399.35" cy="264.54" data-y="0.496" data-x="2038" r="4" fill="#cc0935"><title>2038: 0.496</title></circle>
	<circle cx="417.10" cy="264.42" data-y="0.507" data-x="2039" r="4" fill="#cc0935"><title>2039: 0.507</title></circle>
	<circle cx="434.84" cy="264.31" data-y="0.517" data-x="2040" r="4" fill="#cc0935"><title>2040: 0.517</title></circle>
	<circle cx="452.58" cy="264.19" data-y="0.528" data-x="2041" r="4" fill="#cc0935"><title>2041: 0.528</title></circle>
	<circle cx="470.32" cy="264.07" data-y="0.539" data-x="2042" r="4" fill="#cc0935"><title>2042: 0.539</title></circle>
	<circle cx="488.06" cy="263.95" data-y="0.550" data-x="2043" r="4" fill="#cc0935"><title>2043: 0.550</title></circle>
	<circle cx="505.81" cy="263.83" data-y="0.561" data-x="2044" r="4" fill="#cc0935"><title>2044: 0.561</title></circle>
	<circle cx="523.55" cy="263.80" data-y="0.564" data-x="2045" r="4" fill="#cc0935"><title>2045: 0.564</title></circle>
	<circle cx="541.29" cy="263.76" data-y="0.567" data-x="2046" r="4" fill="#cc0935"><title>2046: 0.567</title></circle>
	<circle cx="559.03" cy="263.73" data-y="0.570" data-x="2047" r="4" fill="#cc0935"><title>2047: 0.570</title></circle>
	<circle cx="576.77" cy="263.70" data-y="0.573" data-x="2048" r="4" fill="#cc0935"><title>2048: 0.573</title></circle>
	<circle cx="594.52" cy="263.65" data-y="0.577" data-x="2049" r="4" fill="#cc0935"><title>2049: 0.577</title></circle>
	<circle cx="612.26" cy="263.61" data-y="0.581" data-x="2050" r="4" fill="#cc0935"><title>2050: 0.581</title></circle>
</g>
<g data-scenario="ev" class="data-series">	<path d="M 80.00,269.05L 97.74,268.53L 115.48,267.60L 133.23,265.40L 150.97,261.89L 168.71,257.83L 186.45,253.54L 204.19,248.62L 221.94,242.71L 239.68,236.09L 257.42,228.59L 275.16,222.23L 292.90,216.20L 310.65,209.47L 328.39,202.57L 346.13,191.54L 363.87,181.49L 381.61,173.95L 399.35,167.17L 417.10,161.50L 434.84,156.37L 452.58,152.77L 470.32,149.66L 488.06,147.11L 505.81,144.99L 523.55,143.46L 541.29,142.49L 559.03,141.88L 576.77,141.67L 594.52,141.84L 612.26,142.26" id="EV" class="line" stroke="#45D526" stroke-width="3" stroke-linecap="round"><title>EV</title></path>
	<circle cx="80.00" cy="269.05" data-y="0.086" data-x="2020" r="4" fill="#45D526"><title>2020: 0.086</title></circle>
	<circle cx="97.74" cy="268.53" data-y="0.134" data-x="2021" r="4" fill="#45D526"><title>2021: 0.134</title></circle>
	<circle cx="115.48" cy="267.60" data-y="0.218" data-x="2022" r="4" fill="#45D526"><title>2022: 0.218</title></circle>
	<circle cx="133.23" cy="265.40" data-y="0.418" data-x="2023" r="4" fill="#45D526"><title>2023: 0.418</title></circle>
	<circle cx="150.97" cy="261.89" data-y="0.737" data-x="2024" r="4" fill="#45D526"><title>2024: 0.737</title></circle>
	<circle cx="168.71" cy="257.83" data-y="1.106" data-x="2025" r="4" fill="#45D526"><title>2025: 1.106</title></circle>
	<circle cx="186.45" cy="253.54" data-y="1.496" data-x="2026" r="4" fill="#45D526"><title>2026: 1.496</title></circle>
	<circle cx="204.19" cy="248.62" data-y="1.944" data-x="2027" r="4" fill="#45D526"><title>2027: 1.944</title></circle>
	<circle cx="221.94" cy="242.71" data-y="2.481" data-x="2028" r="4" fill="#45D526"><title>2028: 2.481</title></circle>
	<circle cx="239.68" cy="236.09" data-y="3.083" data-x="2029" r="4" fill="#45D526"><title>2029: 3.083</title></circle>
	<circle cx="257.42" cy="228.59" data-y="3.765" data-x="2030" r="4" fill="#45D526"><title>2030: 3.765</title></circle>
	<circle cx="275.16" cy="222.23" data-y="4.343" data-x="2031" r="4" fill="#45D526"><title>2031: 4.343</title></circle>
	<circle cx="292.90" cy="216.20" data-y="4.891" data-x="2032" r="4" fill="#45D526"><title>2032: 4.891</title></circle>
	<circle cx="310.65" cy="209.47" data-y="5.503" data-x="2033" r="4" fill="#45D526"><title>2033: 5.503</title></circle>
	<circle cx="328.39" cy="202.57" data-y="6.130" data-x="2034" r="4" fill="#45D526"><title>2034: 6.130</title></circle>
	<circle cx="346.13" cy="191.54" data-y="7.133" data-x="2035" r="4" fill="#45D526"><title>2035: 7.133</title></circle>
	<circle cx="363.87" cy="181.49" data-y="8.047" data-x="2036" r="4" fill="#45D526"><title>2036: 8.047</title></circle>
	<circle cx="381.61" cy="173.95" data-y="8.732" data-x="2037" r="4" fill="#45D526"><title>2037: 8.732</title></circle>
	<circle cx="399.35" cy="167.17" data-y="9.348" data-x="2038" r="4" fill="#45D526"><title>2038: 9.348</title></circle>
	<circle cx="417.10" cy="161.50" data-y="9.864" data-x="2039" r="4" fill="#45D526"><title>2039: 9.864</title></circle>
	<circle cx="434.84" cy="156.37" data-y="10.330" data-x="2040" r="4" fill="#45D526"><title>2040: 10.330</title></circle>
	<circle cx="452.58" cy="152.77" data-y="10.658" data-x="2041" r="4" fill="#45D526"><title>2041: 10.658</title></circle>
	<circle cx="470.32" cy="149.66" data-y="10.940" data-x="2042" r="4" fill="#45D526"><title>2042: 10.940</title></circle>
	<circle cx="488.06" cy="147.11" data-y="11.172" data-x="2043" r="4" fill="#45D526"><title>2043: 11.172</title></circle>
	<circle cx="505.81" cy="144.99" data-y="11.365" data-x="2044" r="4" fill="#45D526"><title>2044: 11.365</title></circle>
	<circle cx="523.55" cy="143.46" data-y="11.504" data-x="2045" r="4" fill="#45D526"><title>2045: 11.504</title></circle>
	<circle cx="541.29" cy="142.49" data-y="11.592" data-x="2046" r="4" fill="#45D526"><title>2046: 11.592</title></circle>
	<circle cx="559.03" cy="141.88" data-y="11.648" data-x="2047" r="4" fill="#45D526"><title>2047: 11.648</title></circle>
	<circle cx="576.77" cy="141.67" data-y="11.667" data-x="2048" r="4" fill="#45D526"><title>2048: 11.667</title></circle>
	<circle cx="594.52" cy="141.84" data-y="11.651" data-x="2049" r="4" fill="#45D526"><title>2049: 11.651</title></circle>
	<circle cx="612.26" cy="142.26" data-y="11.613" data-x="2050" r="4" fill="#45D526"><title>2050: 11.613</title></circle>
</g>
</svg>
