<svg width="640" height="320" viewBox="0 0 640 320" xmlns="http://www.w3.org/2000/svg" style="overflow:display" preserveAspectRatio="xMinYMin meet" overflow="visible">
<defs>
	<style>
	.data-series path.line { fill-opacity: 0; }
	.data-series path.line.dotted { stroke-dasharray: 12 20 }
	.data-series circle { display: none; }
	.data-series:hover path.line, .data-series.on path.line { stroke-width: 5; }
	.data-series:hover circle, .data-series.on circle { display: inline; }
	.data-series circle:hover, .data-series circle.on { r: 6px!important; fill: black; }
	.grid { font-family: "Helvetica Neue",Helvetica,Arial,"Lucida Grande",sans-serif; }
	.grid line { stroke: rgb(0,0,0); stroke-width: 2; stroke-linecap: round; }
	.grid.grid-x text { text-anchor: middle; dominant-baseline: hanging; transform: translateY(10px); }
	.grid.grid-y text { text-anchor: end; dominant-baseline: middle; transform: translateX(-10px); }
	</style>
</defs>
<g class="grid grid-y">
	<line x1="80" y1="270" x2="630" y2="270" data-left="80"></line>
	<text x="80" y="270" text-anchor="end">0</text>
	<text x="80" y="186.377203139071" text-anchor="end">5</text>
	<text x="80" y="102.754406278142" text-anchor="end">10</text>
	<text x="80" y="19.1316094172134" text-anchor="end">15</text>
	<text style="text-anchor:middle;dominant-baseline:hanging;font-weight:bold;transform: translateY(140px) rotate(-90deg);">Renewable generation (GW)</text>
</g>
<g class="grid grid-x">
	<line class="tick" x1="80" y1="270" x2="80" y2="275"></line>
	<text x="80" y="270" text-anchor="middle">2020</text>
	<line class="tick" x1="257.41935483871" y1="270" x2="257.41935483871" y2="275"></line>
	<text x="257.41935483871" y="270" text-anchor="middle">2030</text>
	<line class="tick" x1="434.838709677419" y1="270" x2="434.838709677419" y2="275"></line>
	<text x="434.838709677419" y="270" text-anchor="middle">2040</text>
	<line class="tick" x1="612.258064516129" y1="270" x2="612.258064516129" y2="275"></line>
	<text x="612.258064516129" y="270" text-anchor="middle">2050</text>
	<text style="text-anchor:middle;dominant-baseline:hanging;font-weight:bold;transform: translateY(140px) rotate(-90deg);"></text>
</g>
<g data-scenario="high-hydrogen" class="data-series">	<path d="M 80.00,209.42L 97.74,208.60L 115.48,206.75L 133.23,205.34L 150.97,203.60L 168.71,201.81L 186.45,199.79L 204.19,197.65L 221.94,195.51L 239.68,193.03L 257.42,189.82L 275.16,186.04L 292.90,181.61L 310.65,177.71L 328.39,173.48L 346.13,170.19L 363.87,168.10L 381.61,166.21L 399.35,164.52L 417.10,162.96L 434.84,161.46L 452.58,160.14L 470.32,158.93L 488.06,158.00L 505.81,157.31L 523.55,156.64L 541.29,155.97L 559.03,155.30L 576.77,154.55L 594.52,153.75L 612.26,152.88" id="High hydrogen" class="line" stroke="#0085CA" stroke-width="3" stroke-linecap="round"><title>High hydrogen</title></path>
	<circle cx="80.00" cy="209.42" data-y="3.622" data-x="2020" r="4" fill="#0085CA"><title>2020: 3.622</title></circle>
	<circle cx="97.74" cy="208.60" data-y="3.671" data-x="2021" r="4" fill="#0085CA"><title>2021: 3.671</title></circle>
	<circle cx="115.48" cy="206.75" data-y="3.782" data-x="2022" r="4" fill="#0085CA"><title>2022: 3.782</title></circle>
	<circle cx="133.23" cy="205.34" data-y="3.866" data-x="2023" r="4" fill="#0085CA"><title>2023: 3.866</title></circle>
	<circle cx="150.97" cy="203.60" data-y="3.970" data-x="2024" r="4" fill="#0085CA"><title>2024: 3.970</title></circle>
	<circle cx="168.71" cy="201.81" data-y="4.077" data-x="2025" r="4" fill="#0085CA"><title>2025: 4.077</title></circle>
	<circle cx="186.45" cy="199.79" data-y="4.198" data-x="2026" r="4" fill="#0085CA"><title>2026: 4.198</title></circle>
	<circle cx="204.19" cy="197.65" data-y="4.326" data-x="2027" r="4" fill="#0085CA"><title>2027: 4.326</title></circle>
	<circle cx="221.94" cy="195.51" data-y="4.454" data-x="2028" r="4" fill="#0085CA"><title>2028: 4.454</title></circle>
	<circle cx="239.68" cy="193.03" data-y="4.602" data-x="2029" r="4" fill="#0085CA"><title>2029: 4.602</title></circle>
	<circle cx="257.42" cy="189.82" data-y="4.794" data-x="2030" r="4" fill="#0085CA"><title>2030: 4.794</title></circle>
	<circle cx="275.16" cy="186.04" data-y="5.020" data-x="2031" r="4" fill="#0085CA"><title>2031: 5.020</title></circle>
	<circle cx="292.90" cy="181.61" data-y="5.285" data-x="2032" r="4" fill="#0085CA"><title>2032: 5.285</title></circle>
	<circle cx="310.65" cy="177.71" data-y="5.518" data-x="2033" r="4" fill="#0085CA"><title>2033: 5.518</title></circle>
	<circle cx="328.39" cy="173.48" data-y="5.771" data-x="2034" r="4" fill="#0085CA"><title>2034: 5.771</title></circle>
	<circle cx="346.13" cy="170.19" data-y="5.968" data-x="2035" r="4" fill="#0085CA"><title>2035: 5.968</title></circle>
	<circle cx="363.87" cy="168.10" data-y="6.093" data-x="2036" r="4" fill="#0085CA"><title>2036: 6.093</title></circle>
	<circle cx="381.61" cy="166.21" data-y="6.206" data-x="2037" r="4" fill="#0085CA"><title>2037: 6.206</title></circle>
	<circle cx="399.35" cy="164.52" data-y="6.307" data-x="2038" r="4" fill="#0085CA"><title>2038: 6.307</title></circle>
	<circle cx="417.10" cy="162.96" data-y="6.400" data-x="2039" r="4" fill="#0085CA"><title>2039: 6.400</title></circle>
	<circle cx="434.84" cy="161.46" data-y="6.490" data-x="2040" r="4" fill="#0085CA"><title>2040: 6.490</title></circle>
	<circle cx="452.58" cy="160.14" data-y="6.569" data-x="2041" r="4" fill="#0085CA"><title>2041: 6.569</title></circle>
	<circle cx="470.32" cy="158.93" data-y="6.641" data-x="2042" r="4" fill="#0085CA"><title>2042: 6.641</title></circle>
	<circle cx="488.06" cy="158.00" data-y="6.697" data-x="2043" r="4" fill="#0085CA"><title>2043: 6.697</title></circle>
	<circle cx="505.81" cy="157.31" data-y="6.738" data-x="2044" r="4" fill="#0085CA"><title>2044: 6.738</title></circle>
	<circle cx="523.55" cy="156.64" data-y="6.778" data-x="2045" r="4" fill="#0085CA"><title>2045: 6.778</title></circle>
	<circle cx="541.29" cy="155.97" data-y="6.818" data-x="2046" r="4" fill="#0085CA"><title>2046: 6.818</title></circle>
	<circle cx="559.03" cy="155.30" data-y="6.858" data-x="2047" r="4" fill="#0085CA"><title>2047: 6.858</title></circle>
	<circle cx="576.77" cy="154.55" data-y="6.903" data-x="2048" r="4" fill="#0085CA"><title>2048: 6.903</title></circle>
	<circle cx="594.52" cy="153.75" data-y="6.951" data-x="2049" r="4" fill="#0085CA"><title>2049: 6.951</title></circle>
	<circle cx="612.26" cy="152.88" data-y="7.003" data-x="2050" r="4" fill="#0085CA"><title>2050: 7.003</title></circle>
</g>
<g data-scenario="deep-electrification" class="data-series">	<path d="M 80.00,206.38L 97.74,200.12L 115.48,194.74L 133.23,189.49L 150.97,183.87L 168.71,177.76L 186.45,171.04L 204.19,164.03L 221.94,156.64L 239.68,148.70L 257.42,140.08L 275.16,131.19L 292.90,122.66L 310.65,113.53L 328.39,104.13L 346.13,95.31L 363.87,86.72L 381.61,78.49L 399.35,70.91L 417.10,63.65L 434.84,56.93L 452.58,50.82L 470.32,45.21L 488.06,39.79L 505.81,34.65L 523.55,29.72L 541.29,24.94L 559.03,20.62L 576.77,16.57L 594.52,13.09L 612.26,10.00" id="Deep electrification" class="line" stroke="#AB1236" stroke-width="3" stroke-linecap="round"><title>Deep electrification</title></path>
	<circle cx="80.00" cy="206.38" data-y="3.804" data-x="2020" r="4" fill="#AB1236"><title>2020: 3.804</title></circle>
	<circle cx="97.74" cy="200.12" data-y="4.178" data-x="2021" r="4" fill="#AB1236"><title>2021: 4.178</title></circle>
	<circle cx="115.48" cy="194.74" data-y="4.500" data-x="2022" r="4" fill="#AB1236"><title>2022: 4.500</title></circle>
	<circle cx="133.23" cy="189.49" data-y="4.814" data-x="2023" r="4" fill="#AB1236"><title>2023: 4.814</title></circle>
	<circle cx="150.97" cy="183.87" data-y="5.150" data-x="2024" r="4" fill="#AB1236"><title>2024: 5.150</title></circle>
	<circle cx="168.71" cy="177.76" data-y="5.515" data-x="2025" r="4" fill="#AB1236"><title>2025: 5.515</title></circle>
	<circle cx="186.45" cy="171.04" data-y="5.917" data-x="2026" r="4" fill="#AB1236"><title>2026: 5.917</title></circle>
	<circle cx="204.19" cy="164.03" data-y="6.336" data-x="2027" r="4" fill="#AB1236"><title>2027: 6.336</title></circle>
	<circle cx="221.94" cy="156.64" data-y="6.778" data-x="2028" r="4" fill="#AB1236"><title>2028: 6.778</title></circle>
	<circle cx="239.68" cy="148.70" data-y="7.253" data-x="2029" r="4" fill="#AB1236"><title>2029: 7.253</title></circle>
	<circle cx="257.42" cy="140.08" data-y="7.768" data-x="2030" r="4" fill="#AB1236"><title>2030: 7.768</title></circle>
	<circle cx="275.16" cy="131.19" data-y="8.300" data-x="2031" r="4" fill="#AB1236"><title>2031: 8.300</title></circle>
	<circle cx="292.90" cy="122.66" data-y="8.810" data-x="2032" r="4" fill="#AB1236"><title>2032: 8.810</title></circle>
	<circle cx="310.65" cy="113.53" data-y="9.356" data-x="2033" r="4" fill="#AB1236"><title>2033: 9.356</title></circle>
	<circle cx="328.39" cy="104.13" data-y="9.918" data-x="2034" r="4" fill="#AB1236"><title>2034: 9.918</title></circle>
	<circle cx="346.13" cy="95.31" data-y="10.445" data-x="2035" r="4" fill="#AB1236"><title>2035: 10.445</title></circle>
	<circle cx="363.87" cy="86.72" data-y="10.959" data-x="2036" r="4" fill="#AB1236"><title>2036: 10.959</title></circle>
	<circle cx="381.61" cy="78.49" data-y="11.451" data-x="2037" r="4" fill="#AB1236"><title>2037: 11.451</title></circle>
	<circle cx="399.35" cy="70.91" data-y="11.904" data-x="2038" r="4" fill="#AB1236"><title>2038: 11.904</title></circle>
	<circle cx="417.10" cy="63.65" data-y="12.338" data-x="2039" r="4" fill="#AB1236"><title>2039: 12.338</title></circle>
	<circle cx="434.84" cy="56.93" data-y="12.740" data-x="2040" r="4" fill="#AB1236"><title>2040: 12.740</title></circle>
	<circle cx="452.58" cy="50.82" data-y="13.105" data-x="2041" r="4" fill="#AB1236"><title>2041: 13.105</title></circle>
	<circle cx="470.32" cy="45.21" data-y="13.441" data-x="2042" r="4" fill="#AB1236"><title>2042: 13.441</title></circle>
	<circle cx="488.06" cy="39.79" data-y="13.765" data-x="2043" r="4" fill="#AB1236"><title>2043: 13.765</title></circle>
	<circle cx="505.81" cy="34.65" data-y="14.072" data-x="2044" r="4" fill="#AB1236"><title>2044: 14.072</title></circle>
	<circle cx="523.55" cy="29.72" data-y="14.367" data-x="2045" r="4" fill="#AB1236"><title>2045: 14.367</title></circle>
	<circle cx="541.29" cy="24.94" data-y="14.653" data-x="2046" r="4" fill="#AB1236"><title>2046: 14.653</title></circle>
	<circle cx="559.03" cy="20.62" data-y="14.911" data-x="2047" r="4" fill="#AB1236"><title>2047: 14.911</title></circle>
	<circle cx="576.77" cy="16.57" data-y="15.153" data-x="2048" r="4" fill="#AB1236"><title>2048: 15.153</title></circle>
	<circle cx="594.52" cy="13.09" data-y="15.361" data-x="2049" r="4" fill="#AB1236"><title>2049: 15.361</title></circle>
	<circle cx="612.26" cy="10.00" data-y="15.546" data-x="2050" r="4" fill="#AB1236"><title>2050: 15.546</title></circle>
</g>
<g data-scenario="net-zero" class="data-series">	<path d="M 80.00,208.30L 97.74,205.73L 115.48,202.38L 133.23,199.32L 150.97,195.84L 168.71,192.16L 186.45,188.12L 204.19,183.87L 221.94,179.52L 239.68,174.64L 257.42,168.72L 275.16,161.96L 292.90,154.45L 310.65,147.56L 328.39,140.22L 346.13,134.13L 363.87,129.61L 381.61,125.33L 399.35,121.39L 417.10,117.51L 434.84,113.79L 452.58,110.41L 470.32,107.37L 488.06,104.76L 505.81,102.62L 523.55,100.48L 541.29,98.36L 559.03,96.32L 576.77,94.14L 594.52,92.13L 612.26,90.21" id="Early net zero" class="line" stroke="#00AB84" stroke-width="3" stroke-linecap="round"><title>Early net zero</title></path>
	<circle cx="80.00" cy="208.30" data-y="3.689" data-x="2020" r="4" fill="#00AB84"><title>2020: 3.689</title></circle>
	<circle cx="97.74" cy="205.73" data-y="3.843" data-x="2021" r="4" fill="#00AB84"><title>2021: 3.843</title></circle>
	<circle cx="115.48" cy="202.38" data-y="4.043" data-x="2022" r="4" fill="#00AB84"><title>2022: 4.043</title></circle>
	<circle cx="133.23" cy="199.32" data-y="4.226" data-x="2023" r="4" fill="#00AB84"><title>2023: 4.226</title></circle>
	<circle cx="150.97" cy="195.84" data-y="4.434" data-x="2024" r="4" fill="#00AB84"><title>2024: 4.434</title></circle>
	<circle cx="168.71" cy="192.16" data-y="4.654" data-x="2025" r="4" fill="#00AB84"><title>2025: 4.654</title></circle>
	<circle cx="186.45" cy="188.12" data-y="4.896" data-x="2026" r="4" fill="#00AB84"><title>2026: 4.896</title></circle>
	<circle cx="204.19" cy="183.87" data-y="5.150" data-x="2027" r="4" fill="#00AB84"><title>2027: 5.150</title></circle>
	<circle cx="221.94" cy="179.52" data-y="5.410" data-x="2028" r="4" fill="#00AB84"><title>2028: 5.410</title></circle>
	<circle cx="239.68" cy="174.64" data-y="5.702" data-x="2029" r="4" fill="#00AB84"><title>2029: 5.702</title></circle>
	<circle cx="257.42" cy="168.72" data-y="6.056" data-x="2030" r="4" fill="#00AB84"><title>2030: 6.056</title></circle>
	<circle cx="275.16" cy="161.96" data-y="6.460" data-x="2031" r="4" fill="#00AB84"><title>2031: 6.460</title></circle>
	<circle cx="292.90" cy="154.45" data-y="6.909" data-x="2032" r="4" fill="#00AB84"><title>2032: 6.909</title></circle>
	<circle cx="310.65" cy="147.56" data-y="7.321" data-x="2033" r="4" fill="#00AB84"><title>2033: 7.321</title></circle>
	<circle cx="328.39" cy="140.22" data-y="7.760" data-x="2034" r="4" fill="#00AB84"><title>2034: 7.760</title></circle>
	<circle cx="346.13" cy="134.13" data-y="8.124" data-x="2035" r="4" fill="#00AB84"><title>2035: 8.124</title></circle>
	<circle cx="363.87" cy="129.61" data-y="8.394" data-x="2036" r="4" fill="#00AB84"><title>2036: 8.394</title></circle>
	<circle cx="381.61" cy="125.33" data-y="8.650" data-x="2037" r="4" fill="#00AB84"><title>2037: 8.650</title></circle>
	<circle cx="399.35" cy="121.39" data-y="8.886" data-x="2038" r="4" fill="#00AB84"><title>2038: 8.886</title></circle>
	<circle cx="417.10" cy="117.51" data-y="9.118" data-x="2039" r="4" fill="#00AB84"><title>2039: 9.118</title></circle>
	<circle cx="434.84" cy="113.79" data-y="9.340" data-x="2040" r="4" fill="#00AB84"><title>2040: 9.340</title></circle>
	<circle cx="452.58" cy="110.41" data-y="9.542" data-x="2041" r="4" fill="#00AB84"><title>2041: 9.542</title></circle>
	<circle cx="470.32" cy="107.37" data-y="9.724" data-x="2042" r="4" fill="#00AB84"><title>2042: 9.724</title></circle>
	<circle cx="488.06" cy="104.76" data-y="9.880" data-x="2043" r="4" fill="#00AB84"><title>2043: 9.880</title></circle>
	<circle cx="505.81" cy="102.62" data-y="10.008" data-x="2044" r="4" fill="#00AB84"><title>2044: 10.008</title></circle>
	<circle cx="523.55" cy="100.48" data-y="10.136" data-x="2045" r="4" fill="#00AB84"><title>2045: 10.136</title></circle>
	<circle cx="541.29" cy="98.36" data-y="10.263" data-x="2046" r="4" fill="#00AB84"><title>2046: 10.263</title></circle>
	<circle cx="559.03" cy="96.32" data-y="10.385" data-x="2047" r="4" fill="#00AB84"><title>2047: 10.385</title></circle>
	<circle cx="576.77" cy="94.14" data-y="10.515" data-x="2048" r="4" fill="#00AB84"><title>2048: 10.515</title></circle>
	<circle cx="594.52" cy="92.13" data-y="10.635" data-x="2049" r="4" fill="#00AB84"><title>2049: 10.635</title></circle>
	<circle cx="612.26" cy="90.21" data-y="10.750" data-x="2050" r="4" fill="#00AB84"><title>2050: 10.750</title></circle>
</g>
</svg>
