<svg width="640" height="320" viewBox="0 0 640 320" xmlns="http://www.w3.org/2000/svg" style="overflow:display" preserveAspectRatio="xMinYMin meet" overflow="visible">
<defs>
	<style>
	.data-series path.line { fill-opacity: 0; }
	.data-series path.line.dotted { stroke-dasharray: 12 20 }
	.data-series circle { display: none; }
	.data-series:hover path.line, .data-series.on path.line { stroke-width: 5; }
	.data-series:hover circle, .data-series.on circle { display: inline; }
	.data-series circle:hover, .data-series circle.on { r: 6px!important; fill: black; }
	.grid { font-family: "Helvetica Neue",Helvetica,Arial,"Lucida Grande",sans-serif; }
	.grid line { stroke: rgb(0,0,0); stroke-width: 2; stroke-linecap: round; }
	.grid.grid-x text { text-anchor: middle; dominant-baseline: hanging; transform: translateY(10px); }
	.grid.grid-y text { text-anchor: end; dominant-baseline: middle; transform: translateX(-10px); }
	</style>
</defs>
<g class="grid grid-y">
	<line x1="70" y1="270" x2="630" y2="270" data-left="70"></line>
	<text x="70" y="270" text-anchor="end">0</text>
	<text x="70" y="218.27414702079" text-anchor="end">2</text>
	<text x="70" y="166.54829404158" text-anchor="end">4</text>
	<text x="70" y="114.822441062369" text-anchor="end">6</text>
	<text x="70" y="63.0965880831593" text-anchor="end">8</text>
	<text x="70" y="11.3707351039491" text-anchor="end">10</text>
	<text style="text-anchor:middle;dominant-baseline:hanging;font-weight:bold;transform: translateY(140px) rotate(-90deg);">Annual gross peak demand (GW)</text>
</g>
<g class="grid grid-x">
	<line class="tick" x1="70" y1="270" x2="70" y2="275"></line>
	<text x="70" y="270" text-anchor="middle">2020</text>
	<line class="tick" x1="250.645161290323" y1="270" x2="250.645161290323" y2="275"></line>
	<text x="250.645161290323" y="270" text-anchor="middle">2030</text>
	<line class="tick" x1="431.290322580645" y1="270" x2="431.290322580645" y2="275"></line>
	<text x="431.290322580645" y="270" text-anchor="middle">2040</text>
	<line class="tick" x1="611.935483870968" y1="270" x2="611.935483870968" y2="275"></line>
	<text x="611.935483870968" y="270" text-anchor="middle">2050</text>
	<text style="text-anchor:middle;dominant-baseline:hanging;font-weight:bold;transform: translateY(140px) rotate(-90deg);"></text>
</g>
<g data-scenario="domestic" class="data-series">	<path d="M 70.00,197.48L 88.06,197.25L 106.13,197.04L 124.19,196.78L 142.26,196.47L 160.32,196.14L 178.39,195.72L 196.45,195.28L 214.52,194.84L 232.58,194.40L 250.65,193.94L 268.71,193.58L 286.77,193.24L 304.84,192.90L 322.90,192.59L 340.97,192.28L 359.03,191.97L 377.10,191.66L 395.16,191.35L 413.23,191.09L 431.29,190.78L 449.35,190.50L 467.42,190.21L 485.48,189.90L 503.55,189.62L 521.61,189.31L 539.68,189.02L 557.74,188.71L 575.81,188.43L 593.87,188.12L 611.94,187.81" id="Domestic" class="line" stroke="#F1060E" stroke-width="3" stroke-linecap="round"><title>Domestic</title></path>
	<circle cx="70.00" cy="197.48" data-y="2.804" data-x="2020" r="4" fill="#F1060E"><title>2020: 2.804</title></circle>
	<circle cx="88.06" cy="197.25" data-y="2.813" data-x="2021" r="4" fill="#F1060E"><title>2021: 2.813</title></circle>
	<circle cx="106.13" cy="197.04" data-y="2.821" data-x="2022" r="4" fill="#F1060E"><title>2022: 2.821</title></circle>
	<circle cx="124.19" cy="196.78" data-y="2.831" data-x="2023" r="4" fill="#F1060E"><title>2023: 2.831</title></circle>
	<circle cx="142.26" cy="196.47" data-y="2.843" data-x="2024" r="4" fill="#F1060E"><title>2024: 2.843</title></circle>
	<circle cx="160.32" cy="196.14" data-y="2.856" data-x="2025" r="4" fill="#F1060E"><title>2025: 2.856</title></circle>
	<circle cx="178.39" cy="195.72" data-y="2.872" data-x="2026" r="4" fill="#F1060E"><title>2026: 2.872</title></circle>
	<circle cx="196.45" cy="195.28" data-y="2.889" data-x="2027" r="4" fill="#F1060E"><title>2027: 2.889</title></circle>
	<circle cx="214.52" cy="194.84" data-y="2.906" data-x="2028" r="4" fill="#F1060E"><title>2028: 2.906</title></circle>
	<circle cx="232.58" cy="194.40" data-y="2.923" data-x="2029" r="4" fill="#F1060E"><title>2029: 2.923</title></circle>
	<circle cx="250.65" cy="193.94" data-y="2.941" data-x="2030" r="4" fill="#F1060E"><title>2030: 2.941</title></circle>
	<circle cx="268.71" cy="193.58" data-y="2.955" data-x="2031" r="4" fill="#F1060E"><title>2031: 2.955</title></circle>
	<circle cx="286.77" cy="193.24" data-y="2.968" data-x="2032" r="4" fill="#F1060E"><title>2032: 2.968</title></circle>
	<circle cx="304.84" cy="192.90" data-y="2.981" data-x="2033" r="4" fill="#F1060E"><title>2033: 2.981</title></circle>
	<circle cx="322.90" cy="192.59" data-y="2.993" data-x="2034" r="4" fill="#F1060E"><title>2034: 2.993</title></circle>
	<circle cx="340.97" cy="192.28" data-y="3.005" data-x="2035" r="4" fill="#F1060E"><title>2035: 3.005</title></circle>
	<circle cx="359.03" cy="191.97" data-y="3.017" data-x="2036" r="4" fill="#F1060E"><title>2036: 3.017</title></circle>
	<circle cx="377.10" cy="191.66" data-y="3.029" data-x="2037" r="4" fill="#F1060E"><title>2037: 3.029</title></circle>
	<circle cx="395.16" cy="191.35" data-y="3.041" data-x="2038" r="4" fill="#F1060E"><title>2038: 3.041</title></circle>
	<circle cx="413.23" cy="191.09" data-y="3.051" data-x="2039" r="4" fill="#F1060E"><title>2039: 3.051</title></circle>
	<circle cx="431.29" cy="190.78" data-y="3.063" data-x="2040" r="4" fill="#F1060E"><title>2040: 3.063</title></circle>
	<circle cx="449.35" cy="190.50" data-y="3.074" data-x="2041" r="4" fill="#F1060E"><title>2041: 3.074</title></circle>
	<circle cx="467.42" cy="190.21" data-y="3.085" data-x="2042" r="4" fill="#F1060E"><title>2042: 3.085</title></circle>
	<circle cx="485.48" cy="189.90" data-y="3.097" data-x="2043" r="4" fill="#F1060E"><title>2043: 3.097</title></circle>
	<circle cx="503.55" cy="189.62" data-y="3.108" data-x="2044" r="4" fill="#F1060E"><title>2044: 3.108</title></circle>
	<circle cx="521.61" cy="189.31" data-y="3.120" data-x="2045" r="4" fill="#F1060E"><title>2045: 3.120</title></circle>
	<circle cx="539.68" cy="189.02" data-y="3.131" data-x="2046" r="4" fill="#F1060E"><title>2046: 3.131</title></circle>
	<circle cx="557.74" cy="188.71" data-y="3.143" data-x="2047" r="4" fill="#F1060E"><title>2047: 3.143</title></circle>
	<circle cx="575.81" cy="188.43" data-y="3.154" data-x="2048" r="4" fill="#F1060E"><title>2048: 3.154</title></circle>
	<circle cx="593.87" cy="188.12" data-y="3.166" data-x="2049" r="4" fill="#F1060E"><title>2049: 3.166</title></circle>
	<circle cx="611.94" cy="187.81" data-y="3.178" data-x="2050" r="4" fill="#F1060E"><title>2050: 3.178</title></circle>
</g>
<g data-scenario="i-and-c" class="data-series">	<path d="M 70.00,171.23L 88.06,171.95L 106.13,172.63L 124.19,173.22L 142.26,173.74L 160.32,174.20L 178.39,174.62L 196.45,174.95L 214.52,175.24L 232.58,175.47L 250.65,175.65L 268.71,175.78L 286.77,175.86L 304.84,175.91L 322.90,175.88L 340.97,175.83L 359.03,175.73L 377.10,175.57L 395.16,175.39L 413.23,175.19L 431.29,174.95L 449.35,174.72L 467.42,174.46L 485.48,174.23L 503.55,173.97L 521.61,173.71L 539.68,173.43L 557.74,173.17L 575.81,172.88L 593.87,172.60L 611.94,172.32" id="I &amp; C" class="line" stroke="#6DC2C7" stroke-width="3" stroke-linecap="round"><title>I &amp; C</title></path>
	<circle cx="70.00" cy="171.23" data-y="3.819" data-x="2020" r="4" fill="#6DC2C7"><title>2020: 3.819</title></circle>
	<circle cx="88.06" cy="171.95" data-y="3.791" data-x="2021" r="4" fill="#6DC2C7"><title>2021: 3.791</title></circle>
	<circle cx="106.13" cy="172.63" data-y="3.765" data-x="2022" r="4" fill="#6DC2C7"><title>2022: 3.765</title></circle>
	<circle cx="124.19" cy="173.22" data-y="3.742" data-x="2023" r="4" fill="#6DC2C7"><title>2023: 3.742</title></circle>
	<circle cx="142.26" cy="173.74" data-y="3.722" data-x="2024" r="4" fill="#6DC2C7"><title>2024: 3.722</title></circle>
	<circle cx="160.32" cy="174.20" data-y="3.704" data-x="2025" r="4" fill="#6DC2C7"><title>2025: 3.704</title></circle>
	<circle cx="178.39" cy="174.62" data-y="3.688" data-x="2026" r="4" fill="#6DC2C7"><title>2026: 3.688</title></circle>
	<circle cx="196.45" cy="174.95" data-y="3.675" data-x="2027" r="4" fill="#6DC2C7"><title>2027: 3.675</title></circle>
	<circle cx="214.52" cy="175.24" data-y="3.664" data-x="2028" r="4" fill="#6DC2C7"><title>2028: 3.664</title></circle>
	<circle cx="232.58" cy="175.47" data-y="3.655" data-x="2029" r="4" fill="#6DC2C7"><title>2029: 3.655</title></circle>
	<circle cx="250.65" cy="175.65" data-y="3.648" data-x="2030" r="4" fill="#6DC2C7"><title>2030: 3.648</title></circle>
	<circle cx="268.71" cy="175.78" data-y="3.643" data-x="2031" r="4" fill="#6DC2C7"><title>2031: 3.643</title></circle>
	<circle cx="286.77" cy="175.86" data-y="3.640" data-x="2032" r="4" fill="#6DC2C7"><title>2032: 3.640</title></circle>
	<circle cx="304.84" cy="175.91" data-y="3.638" data-x="2033" r="4" fill="#6DC2C7"><title>2033: 3.638</title></circle>
	<circle cx="322.90" cy="175.88" data-y="3.639" data-x="2034" r="4" fill="#6DC2C7"><title>2034: 3.639</title></circle>
	<circle cx="340.97" cy="175.83" data-y="3.641" data-x="2035" r="4" fill="#6DC2C7"><title>2035: 3.641</title></circle>
	<circle cx="359.03" cy="175.73" data-y="3.645" data-x="2036" r="4" fill="#6DC2C7"><title>2036: 3.645</title></circle>
	<circle cx="377.10" cy="175.57" data-y="3.651" data-x="2037" r="4" fill="#6DC2C7"><title>2037: 3.651</title></circle>
	<circle cx="395.16" cy="175.39" data-y="3.658" data-x="2038" r="4" fill="#6DC2C7"><title>2038: 3.658</title></circle>
	<circle cx="413.23" cy="175.19" data-y="3.666" data-x="2039" r="4" fill="#6DC2C7"><title>2039: 3.666</title></circle>
	<circle cx="431.29" cy="174.95" data-y="3.675" data-x="2040" r="4" fill="#6DC2C7"><title>2040: 3.675</title></circle>
	<circle cx="449.35" cy="174.72" data-y="3.684" data-x="2041" r="4" fill="#6DC2C7"><title>2041: 3.684</title></circle>
	<circle cx="467.42" cy="174.46" data-y="3.694" data-x="2042" r="4" fill="#6DC2C7"><title>2042: 3.694</title></circle>
	<circle cx="485.48" cy="174.23" data-y="3.703" data-x="2043" r="4" fill="#6DC2C7"><title>2043: 3.703</title></circle>
	<circle cx="503.55" cy="173.97" data-y="3.713" data-x="2044" r="4" fill="#6DC2C7"><title>2044: 3.713</title></circle>
	<circle cx="521.61" cy="173.71" data-y="3.723" data-x="2045" r="4" fill="#6DC2C7"><title>2045: 3.723</title></circle>
	<circle cx="539.68" cy="173.43" data-y="3.734" data-x="2046" r="4" fill="#6DC2C7"><title>2046: 3.734</title></circle>
	<circle cx="557.74" cy="173.17" data-y="3.744" data-x="2047" r="4" fill="#6DC2C7"><title>2047: 3.744</title></circle>
	<circle cx="575.81" cy="172.88" data-y="3.755" data-x="2048" r="4" fill="#6DC2C7"><title>2048: 3.755</title></circle>
	<circle cx="593.87" cy="172.60" data-y="3.766" data-x="2049" r="4" fill="#6DC2C7"><title>2049: 3.766</title></circle>
	<circle cx="611.94" cy="172.32" data-y="3.777" data-x="2050" r="4" fill="#6DC2C7"><title>2050: 3.777</title></circle>
</g>
<g data-scenario="heat-pumps---domestic" class="data-series">	<path d="M 70.00,269.41L 88.06,269.35L 106.13,269.22L 124.19,268.99L 142.26,268.89L 160.32,268.47L 178.39,267.96L 196.45,267.41L 214.52,266.82L 232.58,266.12L 250.65,265.32L 268.71,264.52L 286.77,263.77L 304.84,263.04L 322.90,262.34L 340.97,261.67L 359.03,260.95L 377.10,260.35L 395.16,259.84L 413.23,259.42L 431.29,259.03L 449.35,258.62L 467.42,258.23L 485.48,257.82L 503.55,257.40L 521.61,257.04L 539.68,256.68L 557.74,256.32L 575.81,255.96L 593.87,255.59L 611.94,255.23" id="Heat pumps - domestic" class="line" stroke="#2D137F" stroke-width="3" stroke-linecap="round"><title>Heat pumps - domestic</title></path>
	<circle cx="70.00" cy="269.41" data-y="0.023" data-x="2020" r="4" fill="#2D137F"><title>2020: 0.023</title></circle>
	<circle cx="88.06" cy="269.35" data-y="0.025" data-x="2021" r="4" fill="#2D137F"><title>2021: 0.025</title></circle>
	<circle cx="106.13" cy="269.22" data-y="0.030" data-x="2022" r="4" fill="#2D137F"><title>2022: 0.030</title></circle>
	<circle cx="124.19" cy="268.99" data-y="0.039" data-x="2023" r="4" fill="#2D137F"><title>2023: 0.039</title></circle>
	<circle cx="142.26" cy="268.89" data-y="0.043" data-x="2024" r="4" fill="#2D137F"><title>2024: 0.043</title></circle>
	<circle cx="160.32" cy="268.47" data-y="0.059" data-x="2025" r="4" fill="#2D137F"><title>2025: 0.059</title></circle>
	<circle cx="178.39" cy="267.96" data-y="0.079" data-x="2026" r="4" fill="#2D137F"><title>2026: 0.079</title></circle>
	<circle cx="196.45" cy="267.41" data-y="0.100" data-x="2027" r="4" fill="#2D137F"><title>2027: 0.100</title></circle>
	<circle cx="214.52" cy="266.82" data-y="0.123" data-x="2028" r="4" fill="#2D137F"><title>2028: 0.123</title></circle>
	<circle cx="232.58" cy="266.12" data-y="0.150" data-x="2029" r="4" fill="#2D137F"><title>2029: 0.150</title></circle>
	<circle cx="250.65" cy="265.32" data-y="0.181" data-x="2030" r="4" fill="#2D137F"><title>2030: 0.181</title></circle>
	<circle cx="268.71" cy="264.52" data-y="0.212" data-x="2031" r="4" fill="#2D137F"><title>2031: 0.212</title></circle>
	<circle cx="286.77" cy="263.77" data-y="0.241" data-x="2032" r="4" fill="#2D137F"><title>2032: 0.241</title></circle>
	<circle cx="304.84" cy="263.04" data-y="0.269" data-x="2033" r="4" fill="#2D137F"><title>2033: 0.269</title></circle>
	<circle cx="322.90" cy="262.34" data-y="0.296" data-x="2034" r="4" fill="#2D137F"><title>2034: 0.296</title></circle>
	<circle cx="340.97" cy="261.67" data-y="0.322" data-x="2035" r="4" fill="#2D137F"><title>2035: 0.322</title></circle>
	<circle cx="359.03" cy="260.95" data-y="0.350" data-x="2036" r="4" fill="#2D137F"><title>2036: 0.350</title></circle>
	<circle cx="377.10" cy="260.35" data-y="0.373" data-x="2037" r="4" fill="#2D137F"><title>2037: 0.373</title></circle>
	<circle cx="395.16" cy="259.84" data-y="0.393" data-x="2038" r="4" fill="#2D137F"><title>2038: 0.393</title></circle>
	<circle cx="413.23" cy="259.42" data-y="0.409" data-x="2039" r="4" fill="#2D137F"><title>2039: 0.409</title></circle>
	<circle cx="431.29" cy="259.03" data-y="0.424" data-x="2040" r="4" fill="#2D137F"><title>2040: 0.424</title></circle>
	<circle cx="449.35" cy="258.62" data-y="0.440" data-x="2041" r="4" fill="#2D137F"><title>2041: 0.440</title></circle>
	<circle cx="467.42" cy="258.23" data-y="0.455" data-x="2042" r="4" fill="#2D137F"><title>2042: 0.455</title></circle>
	<circle cx="485.48" cy="257.82" data-y="0.471" data-x="2043" r="4" fill="#2D137F"><title>2043: 0.471</title></circle>
	<circle cx="503.55" cy="257.40" data-y="0.487" data-x="2044" r="4" fill="#2D137F"><title>2044: 0.487</title></circle>
	<circle cx="521.61" cy="257.04" data-y="0.501" data-x="2045" r="4" fill="#2D137F"><title>2045: 0.501</title></circle>
	<circle cx="539.68" cy="256.68" data-y="0.515" data-x="2046" r="4" fill="#2D137F"><title>2046: 0.515</title></circle>
	<circle cx="557.74" cy="256.32" data-y="0.529" data-x="2047" r="4" fill="#2D137F"><title>2047: 0.529</title></circle>
	<circle cx="575.81" cy="255.96" data-y="0.543" data-x="2048" r="4" fill="#2D137F"><title>2048: 0.543</title></circle>
	<circle cx="593.87" cy="255.59" data-y="0.557" data-x="2049" r="4" fill="#2D137F"><title>2049: 0.557</title></circle>
	<circle cx="611.94" cy="255.23" data-y="0.571" data-x="2050" r="4" fill="#2D137F"><title>2050: 0.571</title></circle>
</g>
<g data-scenario="heat-pumps---i-and-c" class="data-series">	<path d="M 70.00,268.89L 88.06,268.78L 106.13,268.63L 124.19,268.50L 142.26,268.34L 160.32,268.24L 178.39,268.14L 196.45,267.98L 214.52,267.83L 232.58,267.67L 250.65,267.47L 268.71,267.26L 286.77,267.10L 304.84,267.00L 322.90,266.82L 340.97,266.59L 359.03,266.46L 377.10,266.38L 395.16,266.30L 413.23,266.22L 431.29,266.15L 449.35,266.07L 467.42,265.99L 485.48,265.89L 503.55,265.81L 521.61,265.78L 539.68,265.78L 557.74,265.76L 575.81,265.73L 593.87,265.71L 611.94,265.66" id="Heat pumps - I &amp; C" class="line" stroke="#cc0935" stroke-width="3" stroke-linecap="round"><title>Heat pumps - I &amp; C</title></path>
	<circle cx="70.00" cy="268.89" data-y="0.043" data-x="2020" r="4" fill="#cc0935"><title>2020: 0.043</title></circle>
	<circle cx="88.06" cy="268.78" data-y="0.047" data-x="2021" r="4" fill="#cc0935"><title>2021: 0.047</title></circle>
	<circle cx="106.13" cy="268.63" data-y="0.053" data-x="2022" r="4" fill="#cc0935"><title>2022: 0.053</title></circle>
	<circle cx="124.19" cy="268.50" data-y="0.058" data-x="2023" r="4" fill="#cc0935"><title>2023: 0.058</title></circle>
	<circle cx="142.26" cy="268.34" data-y="0.064" data-x="2024" r="4" fill="#cc0935"><title>2024: 0.064</title></circle>
	<circle cx="160.32" cy="268.24" data-y="0.068" data-x="2025" r="4" fill="#cc0935"><title>2025: 0.068</title></circle>
	<circle cx="178.39" cy="268.14" data-y="0.072" data-x="2026" r="4" fill="#cc0935"><title>2026: 0.072</title></circle>
	<circle cx="196.45" cy="267.98" data-y="0.078" data-x="2027" r="4" fill="#cc0935"><title>2027: 0.078</title></circle>
	<circle cx="214.52" cy="267.83" data-y="0.084" data-x="2028" r="4" fill="#cc0935"><title>2028: 0.084</title></circle>
	<circle cx="232.58" cy="267.67" data-y="0.090" data-x="2029" r="4" fill="#cc0935"><title>2029: 0.090</title></circle>
	<circle cx="250.65" cy="267.47" data-y="0.098" data-x="2030" r="4" fill="#cc0935"><title>2030: 0.098</title></circle>
	<circle cx="268.71" cy="267.26" data-y="0.106" data-x="2031" r="4" fill="#cc0935"><title>2031: 0.106</title></circle>
	<circle cx="286.77" cy="267.10" data-y="0.112" data-x="2032" r="4" fill="#cc0935"><title>2032: 0.112</title></circle>
	<circle cx="304.84" cy="267.00" data-y="0.116" data-x="2033" r="4" fill="#cc0935"><title>2033: 0.116</title></circle>
	<circle cx="322.90" cy="266.82" data-y="0.123" data-x="2034" r="4" fill="#cc0935"><title>2034: 0.123</title></circle>
	<circle cx="340.97" cy="266.59" data-y="0.132" data-x="2035" r="4" fill="#cc0935"><title>2035: 0.132</title></circle>
	<circle cx="359.03" cy="266.46" data-y="0.137" data-x="2036" r="4" fill="#cc0935"><title>2036: 0.137</title></circle>
	<circle cx="377.10" cy="266.38" data-y="0.140" data-x="2037" r="4" fill="#cc0935"><title>2037: 0.140</title></circle>
	<circle cx="395.16" cy="266.30" data-y="0.143" data-x="2038" r="4" fill="#cc0935"><title>2038: 0.143</title></circle>
	<circle cx="413.23" cy="266.22" data-y="0.146" data-x="2039" r="4" fill="#cc0935"><title>2039: 0.146</title></circle>
	<circle cx="431.29" cy="266.15" data-y="0.149" data-x="2040" r="4" fill="#cc0935"><title>2040: 0.149</title></circle>
	<circle cx="449.35" cy="266.07" data-y="0.152" data-x="2041" r="4" fill="#cc0935"><title>2041: 0.152</title></circle>
	<circle cx="467.42" cy="265.99" data-y="0.155" data-x="2042" r="4" fill="#cc0935"><title>2042: 0.155</title></circle>
	<circle cx="485.48" cy="265.89" data-y="0.159" data-x="2043" r="4" fill="#cc0935"><title>2043: 0.159</title></circle>
	<circle cx="503.55" cy="265.81" data-y="0.162" data-x="2044" r="4" fill="#cc0935"><title>2044: 0.162</title></circle>
	<circle cx="521.61" cy="265.78" data-y="0.163" data-x="2045" r="4" fill="#cc0935"><title>2045: 0.163</title></circle>
	<circle cx="539.68" cy="265.78" data-y="0.163" data-x="2046" r="4" fill="#cc0935"><title>2046: 0.163</title></circle>
	<circle cx="557.74" cy="265.76" data-y="0.164" data-x="2047" r="4" fill="#cc0935"><title>2047: 0.164</title></circle>
	<circle cx="575.81" cy="265.73" data-y="0.165" data-x="2048" r="4" fill="#cc0935"><title>2048: 0.165</title></circle>
	<circle cx="593.87" cy="265.71" data-y="0.166" data-x="2049" r="4" fill="#cc0935"><title>2049: 0.166</title></circle>
	<circle cx="611.94" cy="265.66" data-y="0.168" data-x="2050" r="4" fill="#cc0935"><title>2050: 0.168</title></circle>
</g>
<g data-scenario="ev" class="data-series">	<path d="M 70.00,269.53L 88.06,269.30L 106.13,268.86L 124.19,267.80L 142.26,266.12L 160.32,264.18L 178.39,262.14L 196.45,259.78L 214.52,256.97L 232.58,253.78L 250.65,250.21L 268.71,247.19L 286.77,244.29L 304.84,241.09L 322.90,237.77L 340.97,232.52L 359.03,227.71L 377.10,224.12L 395.16,220.86L 413.23,218.17L 431.29,215.71L 449.35,213.98L 467.42,212.51L 485.48,211.29L 503.55,210.28L 521.61,209.53L 539.68,209.07L 557.74,208.78L 575.81,208.68L 593.87,208.78L 611.94,208.96" id="EV" class="line" stroke="#45D526" stroke-width="3" stroke-linecap="round"><title>EV</title></path>
	<circle cx="70.00" cy="269.53" data-y="0.018" data-x="2020" r="4" fill="#45D526"><title>2020: 0.018</title></circle>
	<circle cx="88.06" cy="269.30" data-y="0.027" data-x="2021" r="4" fill="#45D526"><title>2021: 0.027</title></circle>
	<circle cx="106.13" cy="268.86" data-y="0.044" data-x="2022" r="4" fill="#45D526"><title>2022: 0.044</title></circle>
	<circle cx="124.19" cy="267.80" data-y="0.085" data-x="2023" r="4" fill="#45D526"><title>2023: 0.085</title></circle>
	<circle cx="142.26" cy="266.12" data-y="0.150" data-x="2024" r="4" fill="#45D526"><title>2024: 0.150</title></circle>
	<circle cx="160.32" cy="264.18" data-y="0.225" data-x="2025" r="4" fill="#45D526"><title>2025: 0.225</title></circle>
	<circle cx="178.39" cy="262.14" data-y="0.304" data-x="2026" r="4" fill="#45D526"><title>2026: 0.304</title></circle>
	<circle cx="196.45" cy="259.78" data-y="0.395" data-x="2027" r="4" fill="#45D526"><title>2027: 0.395</title></circle>
	<circle cx="214.52" cy="256.97" data-y="0.504" data-x="2028" r="4" fill="#45D526"><title>2028: 0.504</title></circle>
	<circle cx="232.58" cy="253.78" data-y="0.627" data-x="2029" r="4" fill="#45D526"><title>2029: 0.627</title></circle>
	<circle cx="250.65" cy="250.21" data-y="0.765" data-x="2030" r="4" fill="#45D526"><title>2030: 0.765</title></circle>
	<circle cx="268.71" cy="247.19" data-y="0.882" data-x="2031" r="4" fill="#45D526"><title>2031: 0.882</title></circle>
	<circle cx="286.77" cy="244.29" data-y="0.994" data-x="2032" r="4" fill="#45D526"><title>2032: 0.994</title></circle>
	<circle cx="304.84" cy="241.09" data-y="1.118" data-x="2033" r="4" fill="#45D526"><title>2033: 1.118</title></circle>
	<circle cx="322.90" cy="237.77" data-y="1.246" data-x="2034" r="4" fill="#45D526"><title>2034: 1.246</title></circle>
	<circle cx="340.97" cy="232.52" data-y="1.449" data-x="2035" r="4" fill="#45D526"><title>2035: 1.449</title></circle>
	<circle cx="359.03" cy="227.71" data-y="1.635" data-x="2036" r="4" fill="#45D526"><title>2036: 1.635</title></circle>
	<circle cx="377.10" cy="224.12" data-y="1.774" data-x="2037" r="4" fill="#45D526"><title>2037: 1.774</title></circle>
	<circle cx="395.16" cy="220.86" data-y="1.900" data-x="2038" r="4" fill="#45D526"><title>2038: 1.900</title></circle>
	<circle cx="413.23" cy="218.17" data-y="2.004" data-x="2039" r="4" fill="#45D526"><title>2039: 2.004</title></circle>
	<circle cx="431.29" cy="215.71" data-y="2.099" data-x="2040" r="4" fill="#45D526"><title>2040: 2.099</title></circle>
	<circle cx="449.35" cy="213.98" data-y="2.166" data-x="2041" r="4" fill="#45D526"><title>2041: 2.166</title></circle>
	<circle cx="467.42" cy="212.51" data-y="2.223" data-x="2042" r="4" fill="#45D526"><title>2042: 2.223</title></circle>
	<circle cx="485.48" cy="211.29" data-y="2.270" data-x="2043" r="4" fill="#45D526"><title>2043: 2.270</title></circle>
	<circle cx="503.55" cy="210.28" data-y="2.309" data-x="2044" r="4" fill="#45D526"><title>2044: 2.309</title></circle>
	<circle cx="521.61" cy="209.53" data-y="2.338" data-x="2045" r="4" fill="#45D526"><title>2045: 2.338</title></circle>
	<circle cx="539.68" cy="209.07" data-y="2.356" data-x="2046" r="4" fill="#45D526"><title>2046: 2.356</title></circle>
	<circle cx="557.74" cy="208.78" data-y="2.367" data-x="2047" r="4" fill="#45D526"><title>2047: 2.367</title></circle>
	<circle cx="575.81" cy="208.68" data-y="2.371" data-x="2048" r="4" fill="#45D526"><title>2048: 2.371</title></circle>
	<circle cx="593.87" cy="208.78" data-y="2.367" data-x="2049" r="4" fill="#45D526"><title>2049: 2.367</title></circle>
	<circle cx="611.94" cy="208.96" data-y="2.360" data-x="2050" r="4" fill="#45D526"><title>2050: 2.360</title></circle>
</g>
<g data-scenario="total-demand" class="data-series">	<path d="M 70.00,96.54L 88.06,96.67L 106.13,96.38L 124.19,95.27L 142.26,93.56L 160.32,91.24L 178.39,88.57L 196.45,85.42L 214.52,81.67L 232.58,77.48L 250.65,72.59L 268.71,68.32L 286.77,64.26L 304.84,59.94L 322.90,55.42L 340.97,48.90L 359.03,42.82L 377.10,38.09L 395.16,33.77L 413.23,30.07L 431.29,26.63L 449.35,23.89L 467.42,21.38L 485.48,19.13L 503.55,17.06L 521.61,15.41L 539.68,14.01L 557.74,12.74L 575.81,11.68L 593.87,10.80L 611.94,10.00" id="Total demand" class="line" stroke="#cc0935" stroke-width="3" stroke-linecap="round"><title>Total demand</title></path>
	<circle cx="70.00" cy="96.54" data-y="6.707" data-x="2020" r="4" fill="#cc0935"><title>2020: 6.707</title></circle>
	<circle cx="88.06" cy="96.67" data-y="6.702" data-x="2021" r="4" fill="#cc0935"><title>2021: 6.702</title></circle>
	<circle cx="106.13" cy="96.38" data-y="6.713" data-x="2022" r="4" fill="#cc0935"><title>2022: 6.713</title></circle>
	<circle cx="124.19" cy="95.27" data-y="6.756" data-x="2023" r="4" fill="#cc0935"><title>2023: 6.756</title></circle>
	<circle cx="142.26" cy="93.56" data-y="6.822" data-x="2024" r="4" fill="#cc0935"><title>2024: 6.822</title></circle>
	<circle cx="160.32" cy="91.24" data-y="6.912" data-x="2025" r="4" fill="#cc0935"><title>2025: 6.912</title></circle>
	<circle cx="178.39" cy="88.57" data-y="7.015" data-x="2026" r="4" fill="#cc0935"><title>2026: 7.015</title></circle>
	<circle cx="196.45" cy="85.42" data-y="7.137" data-x="2027" r="4" fill="#cc0935"><title>2027: 7.137</title></circle>
	<circle cx="214.52" cy="81.67" data-y="7.282" data-x="2028" r="4" fill="#cc0935"><title>2028: 7.282</title></circle>
	<circle cx="232.58" cy="77.48" data-y="7.444" data-x="2029" r="4" fill="#cc0935"><title>2029: 7.444</title></circle>
	<circle cx="250.65" cy="72.59" data-y="7.633" data-x="2030" r="4" fill="#cc0935"><title>2030: 7.633</title></circle>
	<circle cx="268.71" cy="68.32" data-y="7.798" data-x="2031" r="4" fill="#cc0935"><title>2031: 7.798</title></circle>
	<circle cx="286.77" cy="64.26" data-y="7.955" data-x="2032" r="4" fill="#cc0935"><title>2032: 7.955</title></circle>
	<circle cx="304.84" cy="59.94" data-y="8.122" data-x="2033" r="4" fill="#cc0935"><title>2033: 8.122</title></circle>
	<circle cx="322.90" cy="55.42" data-y="8.297" data-x="2034" r="4" fill="#cc0935"><title>2034: 8.297</title></circle>
	<circle cx="340.97" cy="48.90" data-y="8.549" data-x="2035" r="4" fill="#cc0935"><title>2035: 8.549</title></circle>
	<circle cx="359.03" cy="42.82" data-y="8.784" data-x="2036" r="4" fill="#cc0935"><title>2036: 8.784</title></circle>
	<circle cx="377.10" cy="38.09" data-y="8.967" data-x="2037" r="4" fill="#cc0935"><title>2037: 8.967</title></circle>
	<circle cx="395.16" cy="33.77" data-y="9.134" data-x="2038" r="4" fill="#cc0935"><title>2038: 9.134</title></circle>
	<circle cx="413.23" cy="30.07" data-y="9.277" data-x="2039" r="4" fill="#cc0935"><title>2039: 9.277</title></circle>
	<circle cx="431.29" cy="26.63" data-y="9.410" data-x="2040" r="4" fill="#cc0935"><title>2040: 9.410</title></circle>
	<circle cx="449.35" cy="23.89" data-y="9.516" data-x="2041" r="4" fill="#cc0935"><title>2041: 9.516</title></circle>
	<circle cx="467.42" cy="21.38" data-y="9.613" data-x="2042" r="4" fill="#cc0935"><title>2042: 9.613</title></circle>
	<circle cx="485.48" cy="19.13" data-y="9.700" data-x="2043" r="4" fill="#cc0935"><title>2043: 9.700</title></circle>
	<circle cx="503.55" cy="17.06" data-y="9.780" data-x="2044" r="4" fill="#cc0935"><title>2044: 9.780</title></circle>
	<circle cx="521.61" cy="15.41" data-y="9.844" data-x="2045" r="4" fill="#cc0935"><title>2045: 9.844</title></circle>
	<circle cx="539.68" cy="14.01" data-y="9.898" data-x="2046" r="4" fill="#cc0935"><title>2046: 9.898</title></circle>
	<circle cx="557.74" cy="12.74" data-y="9.947" data-x="2047" r="4" fill="#cc0935"><title>2047: 9.947</title></circle>
	<circle cx="575.81" cy="11.68" data-y="9.988" data-x="2048" r="4" fill="#cc0935"><title>2048: 9.988</title></circle>
	<circle cx="593.87" cy="10.80" data-y="10.022" data-x="2049" r="4" fill="#cc0935"><title>2049: 10.022</title></circle>
	<circle cx="611.94" cy="10.00" data-y="10.053" data-x="2050" r="4" fill="#cc0935"><title>2050: 10.053</title></circle>
</g>
</svg>
