<?xml version="1.0" encoding="UTF-8" standalone="no"?>
<!-- Generated by IcoMoon.io -->

<svg
   xmlns:dc="http://purl.org/dc/elements/1.1/"
   xmlns:cc="http://creativecommons.org/ns#"
   xmlns:rdf="http://www.w3.org/1999/02/22-rdf-syntax-ns#"
   xmlns:svg="http://www.w3.org/2000/svg"
   xmlns="http://www.w3.org/2000/svg"
   xmlns:sodipodi="http://sodipodi.sourceforge.net/DTD/sodipodi-0.dtd"
   xmlns:inkscape="http://www.inkscape.org/namespaces/inkscape"
   version="1.1"
   width="32"
   height="32"
   viewBox="0 0 32 32"
   id="svg6"
   sodipodi:docname="geolocate.svg"
   inkscape:version="0.92.4 (5da689c313, 2019-01-14)">
  <metadata
     id="metadata12">
    <rdf:RDF>
      <cc:Work
         rdf:about="">
        <dc:format>image/svg+xml</dc:format>
        <dc:type
           rdf:resource="http://purl.org/dc/dcmitype/StillImage" />
        <dc:title>search</dc:title>
      </cc:Work>
    </rdf:RDF>
  </metadata>
  <defs
     id="defs10" />
  <sodipodi:namedview
     pagecolor="#ffffff"
     bordercolor="#666666"
     borderopacity="1"
     objecttolerance="10"
     gridtolerance="10"
     guidetolerance="10"
     inkscape:pageopacity="0"
     inkscape:pageshadow="2"
     inkscape:window-width="1499"
     inkscape:window-height="849"
     id="namedview8"
     showgrid="false"
     inkscape:zoom="14.75"
     inkscape:cx="20.73079"
     inkscape:cy="10.960278"
     inkscape:window-x="0"
     inkscape:window-y="0"
     inkscape:window-maximized="0"
     inkscape:current-layer="svg6" />
  <title
     id="title2">search</title>
  <path
     style="fill:#000000;stroke-width:0;stroke-linecap:round"
     d="M 14.5 -0.001953125 C 14.223 -0.001953125 14 0.22104687 14 0.49804688 L 14 4.1796875 A 12 12 0 0 0 4.1679688 14 L 0.49804688 14 C 0.22104687 14 -0.001953125 14.223 -0.001953125 14.5 L -0.001953125 17.5 C -0.001953125 17.777 0.22104688 18 0.49804688 18 L 4.1796875 18 A 12 12 0 0 0 14 27.830078 L 14 31.5 C 14 31.777 14.223 32 14.5 32 L 17.5 32 C 17.777 32 18 31.777 18 31.5 L 18 27.818359 A 12 12 0 0 0 27.828125 18 L 31.5 18 C 31.777 18 32 17.777 32 17.5 L 32 14.5 C 32 14.223 31.777 14 31.5 14 L 27.818359 14 A 12 12 0 0 0 18 4.1699219 L 18 0.49804688 C 18 0.22104688 17.777 -0.001953125 17.5 -0.001953125 L 14.5 -0.001953125 z M 16 8 A 8 8 0 0 1 24 16 A 8 8 0 0 1 16 24 A 8 8 0 0 1 8 16 A 8 8 0 0 1 16 8 z M 16 13.388672 A 2.6101694 2.6101694 0 0 0 13.388672 16 A 2.6101694 2.6101694 0 0 0 16 18.609375 A 2.6101694 2.6101694 0 0 0 18.609375 16 A 2.6101694 2.6101694 0 0 0 16 13.388672 z "
     id="path4526" />
</svg>
